<svg xmlns="http://www.w3.org/2000/svg" viewBox="0 0 747.89 204.36"><defs><style>.cls-1{fill:#fff;}</style></defs><title>aline_et_jonathan</title><g id="Layer_2" data-name="Layer 2"><g id="alineetjonathan"><path class="cls-1" d="M0,198.64A4.23,4.23,0,0,0,.71,196a5.56,5.56,0,0,1,.56-2.24c.63-2.17,1.31-4.33,1.89-6.51.36-1.33.55-2.7.88-4s.72-2.61,1.09-3.91c1.09-3.87,2.16-7.73,3-11.68.57-2.75.89-5.55,1.64-8.26.43-1.55.91-3.1,1.29-4.66s.67-3.24,1-4.85c.88-3.75,1.79-7.49,2.7-11.24.63-2.6,1.29-5.2,1.9-7.8.75-3.17,1.49-6.35,2.19-9.53a25.91,25.91,0,0,0,.3-2.67.94.94,0,0,1,.12-.4c.11-.17.37-.29.38-.45.09-1.24.87-2.36.61-3.68-.07-.35.45-.78.47-1.18.05-1.19.73-2.2.89-3.37a23.73,23.73,0,0,1,.92-3.59c.37-1.21.88-2.39,1.24-3.61.31-1,.5-2.13.76-3.2.37-1.53.77-3,1.12-4.57s.63-3.1,1-4.63c.56-2.19,1.25-4.34,1.81-6.53.77-3,1.47-5.93,2.2-8.9.65-2.69,1.35-5.37,1.93-8.07.75-3.51,1.37-7,2.11-10.55.4-1.86,1-3.67,1.4-5.53.45-2.21.72-4.46,1.14-6.67.28-1.47.69-2.91,1-4.37.66-3,1.28-6.1,1.95-9.14.43-2,1-3.91,1.39-5.88.17-.8.13-1.65.31-2.45.43-1.92,1-3.82,1.38-5.75.3-1.36.46-2.76.73-4.12s.6-2.46.82-3.71.37-2.73.55-4.09L45.16,4l1.16-.58c2.32.36,2.32,2.2,2.58,3.83.29,1.78.49,3.57.72,5.35.19,1.44.36,2.89.57,4.33s.45,2.86.67,4.3c.34,2.21.67,4.43,1,6.64.12.74.29,1.47.42,2.2.29,1.7.58,3.4.84,5.1.31,2,.56,4.08.89,6.12.25,1.6.58,3.18.87,4.77.34,1.84.66,3.68,1,5.51.4,2.05.86,4.09,1.23,6.15.6,3.33,1.15,6.68,1.74,10,.38,2.13.8,4.25,1.17,6.38.21,1.19.34,2.4.52,3.6.2,1.38.42,2.76.61,4.14s.25,2.57.47,3.84c.33,1.85.78,3.68,1.12,5.54.3,1.6.5,3.22.76,4.83.14.85.32,1.69.49,2.53.4,2,.78,4,1.2,5.94.46,2.16,1,4.31,1.4,6.48.31,1.59.47,3.21.71,4.82s.44,3.22.75,4.82c.23,1.21.69,2.37.9,3.58.16.91.07,1.87.16,2.79s.24,1.67.39,2.5c.09.49.23,1,.31,1.46.23,1.43.42,2.87.67,4.3.17,1,.44,1.94.62,2.92.45,2.42.84,4.85,1.31,7.27.51,2.6,1.12,5.17,1.63,7.77.47,2.38.87,4.77,1.3,7.16.22,1.22.36,2.46.67,3.65.4,1.56,1,3.06,1.39,4.63.31,1.35.33,2.77.55,4.15a3,3,0,0,0,.57,1.33c.66.85.49,1.86.62,2.8.26,1.94.36,3.9.68,5.82.25,1.52.73,3,1.09,4.51.62,2.6,1.23,5.19,1.86,7.79.37,1.53.75,3.05,1.16,4.57s-.11,3.31-1.17,3.95c-.25.15-.87.13-1,0-.5-.71-1.1-.6-1.75-.41a11.24,11.24,0,0,1-2.57.72,8,8,0,0,1-3-.5c-.3-.11-.29-1.07-.48-1.88-.75-.35-.66-1.3-.72-2.25-.09-1.7-.23-3.39-.41-5.08-.16-1.49-.42-3-.63-4.46s-.43-3.08-.64-4.62a3.91,3.91,0,0,0-2-1.25c-2.61-.06-5.22-.2-7.83-.19-1.72,0-3.43.23-5.15.33-.74,0-1.49,0-2.24,0-4.24.14-8.49.24-12.73.44-2.42.11-4.84.41-7.26.58-.51,0-1-.17-1.54-.16-1.25,0-2.49.14-3.74.13-2.44,0-4.89-.13-7.33-.13-1.56,0-3.12.19-4.69.18-1.9,0-3.79-.18-5.69-.18-1.32,0-2.64.24-4,.28-1,0-1.17.76-1.35,1.42-.38,1.4-.65,2.82-1,4.24-.62,2.64-1.22,5.29-1.88,7.93A2,2,0,0,1,0,199.91Zm43.05-168a4.9,4.9,0,0,0-.27.59c-.5,2.22-1,4.44-1.48,6.65-.26,1.13-.64,2.24-.84,3.38-.41,2.37-.67,4.77-1.1,7.13-.36,1.95-.91,3.86-1.33,5.79-.9,4.09-1.75,8.19-2.65,12.28-.68,3.09-1.41,6.18-2.13,9.26-.44,1.9-.9,3.8-1.34,5.7-.21.9-.37,1.82-.62,2.71s-.73,2-1,3c-.44,1.77-.78,3.57-1.19,5.34s-.91,3.81-1.39,5.71c-.36,1.47-.71,2.94-1.13,4.39-.65,2.24-1.39,4.45-2,6.69-.47,1.64-.88,3.31-1.25,5-.6,2.73-1.14,5.47-1.72,8.2-.34,1.59-.67,3.18-1.08,4.75-.35,1.34-.89,2.63-1.22,4s-.38,2.61-.69,3.89c-.42,1.74-1,3.43-1.44,5.17-.88,3.61-1.68,7.24-2.56,10.85-.34,1.39-.91,2.73-1.23,4.12-.5,2.12-.89,4.26-1.3,6.4-.28,1.46-.44,2.94-.78,4.38-.46,2-1.22,3.87-1.5,5.85a57.42,57.42,0,0,1-2,8.92,7.2,7.2,0,0,0-.15.87,2.82,2.82,0,0,0,.81-.08,6.64,6.64,0,0,1,3.75-.4c1.69.2,3.34.87,5.09.49a6.25,6.25,0,0,1,1.44-.2c1.93,0,3.86.13,5.8.19.28,0,.56,0,.84-.05.94,0,1.89-.16,2.82-.13,2.57.09,5.13.33,7.69.35,1.84,0,3.68-.29,5.52-.36,2.71-.11,5.41-.13,8.12-.24,2.42-.1,4.83-.28,7.25-.4.81,0,1.63,0,2.45,0,3.18-.12,6.36-.25,9.54-.39.6,0,1.2-.15,1.88-.24-.3-1.73-.61-3.3-.85-4.88-.15-1-.17-1.94-.3-2.91-.09-.67-.33-1.32-.4-2-.3-2.77-.84-5.5-1.41-8.22-.33-1.59-.65-3.19-.92-4.79-.17-1-.12-2-.34-3-.47-2.07-1.08-4.1-1.56-6.16-.21-.91-.19-1.86-.36-2.78-.34-1.78-.79-3.55-1.13-5.33-.26-1.36-.36-2.75-.67-4.09-.41-1.75-1-3.46-1.43-5.21-.48-2-.86-4.09-1.27-6.13-.3-1.5-.55-3-.87-4.52-.28-1.3-.7-2.58-.93-3.88-.2-1.15-.19-2.33-.35-3.49-.1-.78-.36-1.53-.47-2.3a31.11,31.11,0,0,0-.61-4.38c-.56-1.86-.48-3.8-1.11-5.65a31.78,31.78,0,0,1-.76-4.29c-.13-.7-.48-1.38-.55-2.08a19.79,19.79,0,0,0-.51-3.83C53,87.73,53.25,85,52.16,82.5c-.4-.91-.14-2.08-.32-3.11-.23-1.34-.6-2.66-.9-4-.19-.84-.39-1.67-.54-2.52-.34-1.93-.63-3.86-1-5.78-.29-1.57-.64-3.12-.95-4.68-.85-4.28-1.7-8.57-2.51-12.86-.24-1.29-.27-2.63-.5-3.92-.28-1.61-.69-3.19-1-4.8-.23-1.14-.43-2.29-.6-3.45s-.3-2.49-.44-3.74C43.3,32.75,43.19,31.85,43.05,30.67Zm3.57-16.82-.24-.11a14.82,14.82,0,0,0-.93,3.89c.07,2.21-1.38,4.17-.62,6.51a32.88,32.88,0,0,1,.83,5.55c.23,1.59.48,3.17.71,4.76s.42,3,.62,4.53c.29,2.21.57,4.43.87,6.64.09.64.21,1.27.36,1.9.34,1.42.77,2.82,1,4.26.37,2,.57,3.94.94,5.9.61,3.28,1.32,6.55,1.94,9.83.53,2.82.92,5.67,1.46,8.49.46,2.37,1,4.71,1.58,7.05.14.59.38,1.16.47,1.75.14,1.05.15,2.13.31,3.18.09.56.47,1.07.56,1.63.33,2,.59,4,.88,6a3.33,3.33,0,0,0,.16.38,22.13,22.13,0,0,1,.66,2.44c.34,2.08.59,4.17.9,6.26a17.29,17.29,0,0,0,.44,1.78,18.57,18.57,0,0,1,.86,3.49,7.55,7.55,0,0,0,.09,2,5.89,5.89,0,0,1,.26,1.3c.1,1.25.06,2.52.27,3.75.32,1.89.78,3.75,1.21,5.61s1,4,1.47,6c.32,1.49.32,3.06.75,4.52.91,3.1,1.87,6.17,1.84,9.45,0,.09.12.18.14.27.58,2.38,1.22,4.75,1.72,7.15.61,3,1.08,6,1.67,8.93.21,1.06.68,2.08.86,3.15s.08,2.25.27,3.34c.56,3.22,1.22,6.42,1.8,9.63.33,1.83.62,3.67.91,5.51.37,2.37.69,4.76,1.08,7.13.44,2.69.93,5.38,1.4,8.07a15.29,15.29,0,0,1,.4,2.62,17.23,17.23,0,0,1-.46,2.29c-.08.53.1.92.78.65a3.79,3.79,0,0,1,.72-.11l3.36-.6c-.19-.93-.36-1.67-.48-2.41s-.11-1.34-.28-2c-.59-2.32-1.29-4.61-1.83-6.95-.39-1.71-.56-3.48-.89-5.21-.53-2.8-1.13-5.6-1.66-8.4-.32-1.65-.56-3.31-.86-5s-.59-3.21-.92-4.8-.65-2.92-1-4.38a5,5,0,0,0-.16-.59c-.15-.42-.34-.82-.46-1.24-.08-.26,0-.55-.11-.82-.24-1-.58-2-.73-3.09-.33-2.21-.69-4.44-1.12-6.6s-.51-4.41-1.35-6.56c-.77-2-.79-4.23-1.16-6.36-.1-.57-.31-1.13-.4-1.7-.19-1.2-.36-2.41-.5-3.62a18,18,0,0,0-.14-1.88c-.3-1.32-.77-2.6-1-3.92-.35-1.72-.6-3.46-.86-5.2-.37-2.53-.67-5.07-1.08-7.6-.36-2.19-.82-4.35-1.26-6.53-.34-1.74-.7-3.47-1.06-5.2-.26-1.25-.57-2.48-.79-3.73s-.31-2.55-.51-3.82-.45-2.59-.71-3.88c-.21-1-.51-2.07-.72-3.12-.17-.88-.24-1.78-.39-2.67-.21-1.29-.48-2.57-.64-3.87-.24-1.8-.36-3.63-.62-5.43s-.62-3.38-.91-5.08c-.16-1-.22-1.93-.41-2.87-.54-2.62-1.12-5.24-1.68-7.86-.14-.64-.22-1.3-.33-1.95-.27-1.59-.49-3.19-.81-4.77-.27-1.34-.71-2.64-1-4s-.39-2.52-.58-3.79c-.3-2-.59-4-.91-6.06q-.94-5.93-1.91-11.85c-.34-2.1-.72-4.19-1.05-6.29-.13-.79-.16-1.59-.3-2.37C47.14,16.08,46.87,15,46.62,13.85Z"/><path class="cls-1" d="M459.54,0c.26.28.46.7.78.82A1.74,1.74,0,0,1,461.57,3c-.31,2-.58,3.91-.74,5.88s-.22,3.78-.21,5.68c0,2.3.13,4.59.18,6.89,0,1.72,0,3.43.07,5.15,0,.55.13,1.09.15,1.64.08,2.29.19,4.58.2,6.86,0,1.72-.19,3.45-.18,5.17,0,2.11.14,4.21.19,6.32s0,4.19.09,6.28c0,1.51,0,3,.14,4.54s.28,2.86.39,4.29A8.8,8.8,0,0,1,461.8,63a7.69,7.69,0,0,0-.13,1.13c.11,1.45.3,2.89.4,4.34.17,2.66.35,5.32.42,8,.06,2.51-.2,5,.06,7.51.09.82.09,1.68.2,2.51.13,1,.13,2,.18,3.06s.12,1.89.13,2.84c0,.47-.14.95-.13,1.42,0,1.43.15,2.87.2,4.3.08,2.18.18,4.36.19,6.53,0,1.83-.17,3.66-.17,5.49s.17,3.55.22,5.32,0,3.54,0,5.3c0,1.42.22,2.84.3,4.26.11,1.72.23,3.43.27,5.15,0,2.15,0,4.31,0,6.46,0,1.57.37,3.14.36,4.71s-.35,3.4-.36,5.1c0,4.41.08,8.82.05,13.22,0,1.26-.42,2.52-.47,3.78-.08,1.94.05,3.89,0,5.83a50.52,50.52,0,0,1-.58,5.07c-.32,2.06-.68,4.11-1.11,6.15-.26,1.23-.7,2.42-1,3.64-.2.77-.28,1.57-.48,2.33-.7,2.59-2.66,4.35-4.26,6.35a24.09,24.09,0,0,1-6.1,5.24,13.68,13.68,0,0,1-4.45,2.11c-1.54.33-3,1.19-4.48,1.62a21.11,21.11,0,0,1-5.83,1.2c-3.32-.06-6.65.17-10-.65-2.48-.61-4.9-1.34-7.35-2a31.39,31.39,0,0,1-10.37-5.21,29.11,29.11,0,0,1-5.88-5.66,20.35,20.35,0,0,1-2.13-3.79,2.42,2.42,0,0,1,.11-2.08,2.78,2.78,0,0,1,2-1.12c.55.05,1.11,1,1.49,1.64a26,26,0,0,0,1.18,2.57,27.21,27.21,0,0,0,3.38,3.78,30.11,30.11,0,0,0,4.13,3.06,52,52,0,0,0,5.18,2.9c1,.47,2.13.57,3.17.95a31.52,31.52,0,0,0,9,1.88,42.42,42.42,0,0,1,4.88.08,8.19,8.19,0,0,0,4.35-.55c2.79-1,5.78-1.65,8.3-3.32,1.67-1.11,3.21-2.41,4.81-3.62a1.26,1.26,0,0,0,.14-.14c-1-.78.19-1.44.17-2.22-.06-1.84.3-3.7.41-5.55.05-.81-.1-1.62-.12-2.43,0-.5.08-1,.08-1.5s0-1.13-.07-1.52c.08-.67.16-1.19.2-1.7.09-1.09.18-2.17.24-3.26.07-1.49.14-3,.16-4.46,0-1.65,0-3.29,0-4.94,0-1.37-.16-2.73-.19-4.1,0-1.91,0-3.81,0-5.72,0-.87,0-1.74,0-2.61,0-1.46-.11-2.92-.08-4.38,0-1.25.17-2.49.23-3.74,0-.36-.1-.73-.09-1.1.05-1.61.16-3.23.2-4.84s0-3.13,0-4.69c.09-2.35.28-4.7.37-7.06.06-1.56,0-3.12.05-4.67.1-2.3.56-4.64.32-6.9s.17-4.25-.21-6.37a20.32,20.32,0,0,1,.08-3.25c0-1.16-.16-2.32-.17-3.48,0-.81.19-1.63.18-2.44s-.19-1.58-.27-2.37a2.62,2.62,0,0,1,0-1.1c.45-1.21-.11-2.37-.13-3.55,0-1.49-.2-3-.32-4.48-.11-1.25-.24-2.51-.35-3.76-.07-.8-.13-1.6-.16-2.4-.08-2.35-.14-4.7-.22-7.05-.06-1.76-.44-3.58-.1-5.25.26-1.29-.43-2.25-.36-3.42s-.15-2.51-.18-3.76,0-2.51,0-3.77a13.78,13.78,0,0,1-.17-1.43,58.46,58.46,0,0,0,0-5.94c0-1.65.16-3.3.18-5q.05-3.24,0-6.49c0-1.82-.17-3.63-.19-5.45,0-1.38.09-2.76.09-4.14q0-3.37-.11-6.75a52,52,0,0,1,.61-9.53c.15-1-.13-2-.07-3,.12-2,.34-4,.52-6a2.81,2.81,0,0,0-.1-.52l-2.48.47a1.5,1.5,0,0,1-.3.07c-2.32-.06-4.64-.16-7-.19C440.18,4,438.08,4,436,4c-1.31,0-2.6.35-3.91.45-2.69.2-5.39.75-8.07-.11a2.8,2.8,0,0,0-.92-.13c-1.93.06-3.85.17-5.78.19-1.11,0-2.24-.22-3.35-.17-2.16.1-4.31.32-6.47.48-1,.07-1.94.12-2.66.16a8.84,8.84,0,0,1-.92-1.38,2.37,2.37,0,0,1-.21-1.37,1.28,1.28,0,0,1,.94-.64c2.29-.26,4.58-.52,6.88-.64,1.95-.1,3.91,0,5.86,0,1.46,0,2.91-.34,4.36-.34a27.65,27.65,0,0,1,3.81.42c2,.28,3.93,0,5.88.11,1.39.07,2.74-1,4.19,0,.49.32,1.4,0,2.12,0,2.76-.17,5.52-.38,8.28-.49,1.22-.05,2.45.13,3.68.12,1.4,0,2.8-.12,4.19-.19.47,0,.94,0,1.41-.08a2.22,2.22,0,0,0,.63-.31Zm-3.85,186.2.35.12a12.53,12.53,0,0,0,.73-1.83c.25-1.07.36-2.18.58-3.26.36-1.75.83-3.48,1.13-5.24s.4-3.48.66-5.21c.1-.69.51-1.35.56-2,.06-.89-.17-1.8-.14-2.7.09-2.27.31-4.53.39-6.79.07-1.82,0-3.64,0-5.46s0-3.66,0-5.48c0-1.08-.07-2.17,0-3.25a34,34,0,0,0,.25-5.71c-.29-3.36-.2-6.76-.27-10.15,0-1.76,0-3.52-.11-5.27-.05-1.24-.25-2.48-.3-3.72-.1-2.36-.14-4.72-.22-7.09,0-1.41-.16-2.82-.17-4.23,0-1,.13-2.09.16-3.14s0-2,0-3c0-1.81,0-3.61-.06-5.42,0-.39,0-.79,0-1.18-.06-1.44-.16-2.87-.19-4.31,0-2.65,0-5.3-.09-8-.05-2.11-.21-4.21-.28-6.32-.06-1.65,0-3.3-.09-4.94-.14-2.19-.47-4.36-.57-6.55s0-4.6,0-6.9c0-1.38-.14-2.75-.18-4.13,0-1.61,0-3.21-.08-4.82-.07-2.29-.2-4.57-.24-6.86,0-1.52.09-3,.09-4.55,0-3,0-6-.08-9.05-.06-1.72-.34-3.44-.52-5.16a5.22,5.22,0,0,1,0-.74c.06-1.56.18-3.12.18-4.68,0-1.29-.17-2.58-.19-3.88,0-2-.08-4,0-6,.07-1.69.32-3.38.5-5.09-1.38-.9-1.87-.67-2,1-.09,1.05-.13,2.12-.2,3.17a11.9,11.9,0,0,0-.17,2.68,16,16,0,0,1-.43,6.18,13.45,13.45,0,0,0-.38,3.08c0,2.1.26,4.2.33,6.31,0,.87-.2,1.75-.17,2.61,0,1.11.34,2.22.34,3.32,0,2.6-.11,5.2-.15,7.8,0,1.63,0,3.26,0,4.89a35.63,35.63,0,0,0,0,4c.14,1.23-.21,2.55.54,3.71.15.23.06.62.06.94,0,4.09.09,8.19.12,12.28,0,1.1-.13,2.21-.07,3.31a39.4,39.4,0,0,1,0,8c0,.18.11.38.15.57a4.69,4.69,0,0,1,.18.9c.05,2,0,4,.13,6s.39,4.24.52,6.36c.1,1.69.05,3.39.12,5.09.08,2.24.21,4.47.32,6.71a19,19,0,0,1,.12,1.92c0,.58-.44,1.21-.28,1.7a5.29,5.29,0,0,1-.21,3.48c.18.29.46.55.47.81,0,1.23-.07,2.46-.1,3.69-.08,3.26-.13,6.51-.22,9.77,0,1.33-.09,2.66-.22,4-.23,2.49,0,5-.59,7.47,0,.11.1.25.11.38.09,1.56.26,3.11.23,4.67,0,2-.32,4-.37,6,0,1.54.16,3.08.2,4.62s0,3.05,0,4.58c0,.51-.17,1-.14,1.53s.33,1.19.34,1.79c0,2.63,0,5.27,0,7.9,0,1.93.14,3.86.2,5.8a11.15,11.15,0,0,1,0,1.38c-.19,2.06-.65,4.08-.26,6.21a18.22,18.22,0,0,1-.16,4.29A5.64,5.64,0,0,1,455.69,186.2Z"/><path class="cls-1" d="M747.89,201.61a2.1,2.1,0,0,1-2.53,1.2,8.7,8.7,0,0,0-1.19.07c-2.34,0-2.9.07-5.23,0a1.86,1.86,0,0,1-1.9-1.41c-.73-1.93-.2-3.57.09-5.36a30.54,30.54,0,0,0,.17-3.51c0-.36.07-.72.07-1.09,0-1.83,0-3.66-.06-5.49a3.5,3.5,0,0,1,.07-.87c.5-2-.08-4,.2-6a9,9,0,0,0,.07-1.72c-.06-1.06-.2-2.11-.25-3.17,0-.34.23-.68.23-1a13,13,0,0,0-.13-1.72,5.75,5.75,0,0,1-.23-1.69c.47-2.25-.4-4.4-.35-6.18-1-1.06-1.86-1.85-2.63-2.7a15.27,15.27,0,0,1-1.61-2c-1-1.58-1.9-3.23-2.91-4.82-.83-1.31-1.74-2.56-2.62-3.84-.2-.29-.45-.56-.63-.87-1.18-2.1-2.33-4.21-3.52-6.31-1-1.72-2-3.44-3-5.12-.75-1.23-1.6-2.4-2.38-3.61s-1.6-2.57-2.43-3.9c-.12.12-.25.18-.25.24a49.87,49.87,0,0,1-.39,8.15,52.6,52.6,0,0,0,.15,6.22c.08,2.88.16,5.77.2,8.65,0,.95-.29,1.87.17,2.84.21.45-.1,1.14-.15,1.73a12.77,12.77,0,0,0,0,1.28c0,1.61.06,3.21.13,4.82,0,.49.28,1,.27,1.46q0,3.44-.2,6.89c0,1-.23,1.93-.3,2.9,0,.5.11,1,.09,1.52-.1,1.92-.3,3.83-.34,5.75,0,.91.3,1.83.33,2.75.06,1.7.07,3.41,0,5.11s-.31,3.28-.37,4.93a33.68,33.68,0,0,0,.15,4c.09,1.07-.68,2.62-1.55,2.87a1.16,1.16,0,0,1-.56.06,13.43,13.43,0,0,0-6.09.2c-.06,0-.11.1-.17.11-.52.08-3.53-1.64-3.66-2.16a5.17,5.17,0,0,1,0-1.27c0-.69,0-1.39.06-2.08,0-2.94.12-5.87.12-8.81,0-1.47-.15-2.94-.16-4.41,0-1.32.13-2.64.15-4,0-.65-.16-1.31-.18-2-.08-2.8-.17-5.61-.19-8.41,0-1.81.15-3.62.15-5.43,0-1.41-.14-2.81-.18-4.22,0-.77,0-1.55,0-2.32,0-2-.17-4.1-.13-6.14,0-2.63.27-5.26.33-7.89s0-5.5,0-8.25c0-1.28.35-2.55.37-3.83,0-1.5-.13-3-.21-4.51,0-.66-.16-1.32-.16-2a1.5,1.5,0,0,1,2.25-1.38,17.33,17.33,0,0,0,2.72,1c.33.09.76-.29,1.16-.32.7-.05,1.42.05,2.13,0,1.08-.08,2.15-.22,3.22-.37.87-.12,1.55-.21,2,.93a19.69,19.69,0,0,0,1.88,3.22c1.79,2.93,3.62,5.84,5.38,8.8,1.07,1.8,2,3.68,3,5.49s2.13,3.49,3.25,5.2,2.2,3.17,3.24,4.8c.85,1.33,1.56,2.73,2.39,4.07a3.8,3.8,0,0,0,.85.78c0-2.64,0-5.35,0-8.05,0-2.36-.24-4.73-.21-7.09a39.54,39.54,0,0,0-.19-6,13.73,13.73,0,0,1,.2-3.45c0-.31.51-.56.58-.88.25-1.1.37-2.22.6-3.33.18-.85.42-1.69.67-2.53s1.14-.91,1.8-.92a31.62,31.62,0,0,1,4.11.2c1.56.13,2.25,1,2.5,2.94,0,.07,0,.15,0,.21,1.39,2.58.14,5.48,1,8.15.26.8-.14,1.79-.16,2.69,0,1.6,0,3.2,0,4.8,0,.51-.06,1-.05,1.54,0,2.8,0,5.6.08,8.4,0,1.07.25,2.14.27,3.21,0,.89-.16,1.78-.24,2.67a2.46,2.46,0,0,0,0,1c.53,1.31.18,2.63.21,4,.06,2.92.32,5.83.38,8.74,0,2-.16,4.08-.17,6.12,0,1.43.21,2.87.17,4.3-.07,2.35-.33,4.69-.38,7s.15,4.58.09,6.86a3,3,0,0,0,.52,2.27Zm-36.95-73.75a16.35,16.35,0,0,1-3.82.6c-1.19-.09-.95.6-1,1.13,0,1.61.11,3.23.06,4.84-.08,2.48-.27,4.95-.4,7.42-.14,2.67-.35,5.34-.38,8a70.09,70.09,0,0,0,.1,7.16c.2,2.18-.17,4.4-.13,6.6.08,4.66.28,9.32.39,14,.05,2.23-.05,4.46,0,6.69s-.22,4.16.33,6.27c.38,1.46,0,3.1.09,4.65,0,.87-.44,1.9.62,2.5l-.54,1.06h2.05a7.5,7.5,0,0,0,2,0c1.11-.3.18-1.17.34-1.76,0-.06.1-.12.11-.18.2-1.38.46-2.76.58-4.15s.09-2.8.14-4.19c.06-2,.14-4,.2-6.05,0-.21,0-.42,0-.63,0-1.3-.11-2.61-.09-3.91,0-1,.21-2,.23-3,0-1.71,0-3.42,0-5.13s0-3.37,0-5.06c0-1.12,0-2.24.06-3.36s0-2.36,0-3.53c0-.37-.18-.74-.18-1.12,0-1.57.15-3.15.06-4.71-.18-3.34-.55-6.67-.69-10-.09-2.13.21-4.28.14-6.41a32.86,32.86,0,0,1,.17-3.47C711.58,130.78,711.94,129.24,710.94,127.86Zm29.27,1.24q-.26,6.33-.53,12.64c-.06,1.35-.18,2.7-.17,4,0,2.83.14,5.65.2,8.48,0,1.67-.06,3.34,0,5,.14,2.5.43,5,.59,7.49.08,1.33,0,2.67,0,4,.1,2.07.29,4.14.4,6.22.05,1.06-.07,2.12,0,3.17s-.66,2,.17,2.94c0,0-.06.19-.07.29a38.21,38.21,0,0,0-.29,5.32,62.77,62.77,0,0,1-.19,9.86c0,.22.44.66.71.7,1.08.15.41.14,1.49.28.93.12,1.29-.29,1.08-1.23a4.89,4.89,0,0,1-.07-1.48c.11-1.27.32-2.54.39-3.81s0-2.58,0-3.87c.11-2.3.3-4.6.42-6.9,0-.67-.1-1.35-.1-2,0-.92.1-1.84.08-2.76,0-1.37-.14-2.74-.18-4.11s0-2.76,0-4.14c0-.65-.17-1.31-.17-2,0-1.23.14-2.45.16-3.68,0-.73-.18-1.45-.17-2.18,0-1.37.19-2.75.13-4.11,0-1-.68-2.14-.48-3.09a14.82,14.82,0,0,0-.07-3.87c-.12-2.67-.1-5.35-.14-8,0-1.1,0-2.2,0-3.3,0-1.37-.28-2.8-.32-4.22a48.52,48.52,0,0,0-.36-5.1,1.62,1.62,0,0,0-1.19-1C740.61,128.63,741.34,128.91,740.21,129.09Z"/><path class="cls-1" d="M583.64,204.36l-1.48-1.57-1.74-.79c-1.52-6.57-2.07-12.92-3.11-19.22-1.52-.08-2.94-.2-4.35-.23a29.85,29.85,0,0,0-7.44.83c-2,.46-2,.38-3-1.49a15.66,15.66,0,0,0-.43,1.69c-.31,2.27-.49,4.55-.88,6.8-.42,2.41-1,4.8-1.56,7.19-.24,1.1-.56,2.19-.72,3.3a2,2,0,0,1-1.37,1.88c-.54.12-1.56-.12-1.74-.5a4,4,0,0,1-.34-2.55,10.39,10.39,0,0,0,.72-3.93c0-.23.28-.49.36-.76.43-1.45.94-2.88,1.23-4.36.51-2.58.86-5.19,1.33-7.78.19-1.06.59-2.07.81-3.13s.32-2.26.52-3.39c.15-.86.4-1.7.58-2.55.36-1.77.69-3.53,1-5.3.13-.64.25-1.28.37-1.93.2-1.11.39-2.21.6-3.32.25-1.32.51-2.64.78-3.95.32-1.52.73-3,1-4.56.26-1.72.38-3.46.56-5.19,0-.26.06-.52.1-.78.35-2.15.71-4.3,1-6.45.26-1.64.5-3.28.75-4.92s.49-3.43.76-5.15c.2-1.21.46-2.42.67-3.63a5.7,5.7,0,0,0,.14-1.34c-.08-1.29.39-2.23,1.24-2.35a2.14,2.14,0,0,1,2.66,1.79,2.52,2.52,0,0,1,2.84,2.87,17.78,17.78,0,0,0,.55,3.74c.17,1,.38,2,.56,3,.36,2.09.55,4.24,1.12,6.27a43.54,43.54,0,0,1,1,5.62c.16,1.11.52,2.19.76,3.29.07.35,0,.74,0,1.09.36,1.57.77,3.12,1.14,4.69.1.44.11.89.18,1.34.28,1.95.57,3.89.83,5.84a43.91,43.91,0,0,0,1.55,8.73,11.83,11.83,0,0,1,.31,1.84c.3,1.72.53,3.46.92,5.16.33,1.42.88,2.79,1.3,4.2.71,2.41,1.46,4.81,2,7.25.7,2.91,1.27,5.86,1.86,8.79.36,1.8-.36,2.62-2.22,2.92a10.61,10.61,0,0,0-2.38,1Zm-14.11-61.9c-.45,3-.9,5.91-1.34,8.86-.29,1.91-.5,3.84-.84,5.74-.44,2.43-1,4.83-1.47,7.27s-.67,5-1.15,7.54c-.53,2.78-1.24,5.53-1.81,8a79.25,79.25,0,0,1,13.8-.69C574.53,166.8,572.76,154.54,569.52,142.46Zm16.15,57.62c-.2-1.82-.32-3.6-.62-5.36-.21-1.27-.69-2.49-1-3.75-.62-2.52-1.21-5.05-1.8-7.58-.48-2.07-1-4.14-1.41-6.23-.3-1.44-.56-2.88-.8-4.33s-.41-3-.67-4.54c-.31-1.8-.71-3.59-1-5.4-.24-1.33-.41-2.67-.65-4-.19-1.08-.47-2.15-.62-3.24-.19-1.42-.3-2.85-.44-4.27,0-.31.08-.71-.07-.93-.84-1.25-.66-2.73-1-4.09-.28-1.2-.35-2.45-.62-3.66s-.7-2.55-1-3.83q-.63-2.49-1.2-5c-.26-1.13-.47-2.28-.71-3.48l-1.32,5.5c.57.36,1.47.6,1.71,1.14a7.53,7.53,0,0,1,.9,3.62,14.2,14.2,0,0,0,.52,4.52c.39,1.89.55,3.83.89,5.74.18,1,.61,2,.78,3,.35,2.07.56,4.15.89,6.22.22,1.32.58,2.61.84,3.92.48,2.37.31,4.81,1,7.18a68,68,0,0,1,1.33,7.12c.41,2.27.82,4.55,1.28,6.81.31,1.55.74,3.08,1,4.63.67,3.44,1.28,6.89,1.92,10.3Z"/><path class="cls-1" d="M607.29,130.63c-.06.65-.13,1.14-.14,1.62,0,.89,0,1.77,0,2.66,0,3,0,5.93-.14,8.89-.09,1.89-.47,3.77-.68,5.67a20.08,20.08,0,0,0,0,2c0,1.17,0,2.34,0,3.51q0,2.63.07,5.26c0,1.36.08,2.73.14,4.09,0,.27.06.54.09.82.05.52.13,1,.14,1.57,0,1.13,0,2.27,0,3.4-.05,1.86-.18,3.72-.18,5.59,0,1,.33,2,.31,3,0,1.89-.28,3.79-.32,5.68-.06,2.73,0,5.45,0,8.18,0,1.81,0,3.61,0,5.42a21.06,21.06,0,0,1-.33,3.47,1.49,1.49,0,0,1-1.06.83c-1.84.28-3.69.43-5.54.65a2.31,2.31,0,0,0-.68.36c-.55.29-1.11.81-1.65.81a1.33,1.33,0,0,1-1.4-1.25,21.06,21.06,0,0,1-.1-5.09c0-1.27.37-2.52.51-3.79.1-.92.09-1.86.14-2.79a65.4,65.4,0,0,0,.31-7,27.26,27.26,0,0,1,.44-4.43c.22-2.15.12-4.33.16-6.49.06-2.85.1-5.7.2-8.54,0-1.28.28-2.54.32-3.82s-.09-2.67-.09-4c0-1,.09-2.06.12-3.09,0-.57,0-1.14,0-1.71.12-2.32.28-4.63.37-6.95.06-1.73,0-3.47.06-5.21,0-1.33.19-2.66.19-4s-.14-2.44-.23-3.66c0-.59-.11-1.17-.18-1.87-2.07,0-4.09.08-6.09,0s-4.29-.4-6.43-.56c-1-.07-1.92.06-2.87,0-1.5-.16-1.86-.94-1.13-2.25.86-1.54.86-1.51,2.76-1.34,1.39.12,2.8.14,4.19.23.73,0,1.45.18,2.18.2,1.53,0,3.05,0,4.58,0,3.2.06,6.41.16,9.61.2,2.43,0,4.86,0,7.29,0,1.4,0,2.79-.26,4.19-.34,1.2-.07,2.4-.07,3.6-.06a1,1,0,0,1,.73.28c.54.78,1,1.61,1.58,2.54a23,23,0,0,1,1.44-1.9c.24-.26.75-.55,1-.47a12.6,12.6,0,0,0,4.29.77c1,0,1.57,1.19,1.46,2.17-.17,1.45-.34,2.9-.4,4.36s0,3.05,0,4.58q0,2.87,0,5.75c0,2.48,0,5,0,7.43s.17,4.81.19,7.22c0,1.56-.18,3.11-.17,4.67,0,2.73.14,5.46.19,8.19,0,1.91,0,3.82,0,5.63,6.27-.06,12.51.23,18.74-.26.11-2,.24-3.75.31-5.53a12,12,0,0,1,0-2.75c.65-2.2-.2-4.35.06-6.55a53.08,53.08,0,0,0,.1-6.78c0-2.12-.14-4.25-.2-6.37,0-1.11,0-2.22,0-3.32,0-.54-.23-1.08-.27-1.62a7,7,0,0,1,.15-1.32c0-.2.15-.42.1-.59-.74-2.26-.36-4.62-.55-6.92a36,36,0,0,1-.22-4,32.5,32.5,0,0,1,.44-4.23c.08-.51,2-1.06,2.72-.94,1.47.23,3,.34,4.42.65a13.1,13.1,0,0,1,2.32,1l-.21.19a7.25,7.25,0,0,1,.4,1.66c0,1.13-.13,2.26-.19,3.39,0,.91,0,1.81-.06,2.72-.1,2.76-.24,5.51-.3,8.27,0,1.15.19,2.3.2,3.45,0,1.92,0,3.84,0,5.75,0,.85,0,1.7,0,2.55q-.1,5-.21,10c0,1.89.41,3.75.1,5.68-.14.85,0,1.8-.12,2.72a21.92,21.92,0,0,0,0,2.93c0,1.69-.13,3.37-.17,5.06,0,.41.15.81.16,1.22.08,2.31.18,4.63.21,6.94s0,4.83,0,7.25c0,.85,0,1.71,0,2.56s-.81,1.79-1.68,1.55-1.63.33-2.43.5-1.59.38-2.39.52c-.49.08-1,0-1.51.08a2.1,2.1,0,0,1-1.74-1.54,3,3,0,0,0-.41-1,2.23,2.23,0,0,1-.33-2.06,22.85,22.85,0,0,0,.53-4.24c.13-1.25.29-2.51.35-3.76,0-.9-.15-1.8-.12-2.7.06-2.06.19-4.11.3-6.32-.74-.07-1.56-.13-2.37-.21a22.08,22.08,0,0,0-3.6-.39c-2.78.17-5.55.54-8.33.78a21.47,21.47,0,0,1-2.87,0c-.76,0-1.17.09-1.16,1a40.65,40.65,0,0,0-.12,5.46c.25,1.79,0,3.54.09,5.31a42.44,42.44,0,0,1-.3,5,21.54,21.54,0,0,1,.09,2.27c-.19,1.2-1.13,1.66-2.24,1.9s-2.28.5-3.39.84c-1.26.39-2.2,0-3-1.76a10.07,10.07,0,0,1-.45-3.67c0-1.66.14-3.33.18-5,.06-2.08.06-4.16.11-6.24,0-1.35.13-2.7.16-4.05.06-2.59.16-5.18.13-7.77,0-1.57-.31-3.13-.38-4.7,0-1,.14-2,.16-3,0-1.6,0-3.19,0-4.79,0-.66.2-1.32.18-2,0-1.69-.16-3.37-.25-5.06,0-.78-.14-1.56-.15-2.34,0-2.13,0-4.27,0-6.4,0-2.62.16-5.24.2-7.86,0-2.14,0-4.28,0-6.41a8.69,8.69,0,0,0-.21-1.76c0-.19-.37-.47-.53-.45a57.54,57.54,0,0,1-8.55.07C610.57,130.34,608.9,130.54,607.29,130.63Zm-3.8.27a3.84,3.84,0,0,0-1.07-.21c-.17,0-.45.36-.46.56-.13,1.95-.24,3.9-.3,5.85,0,.71.19,1.43.18,2.15,0,1.08-.11,2.16-.2,3.24-.13,1.69-.31,3.39-.42,5.08-.05.79,0,1.59,0,2.38-.17,2.21-.49,4.42-.57,6.63s.19,4.17.15,6.25-.33,3.89-.38,5.85c-.07,2.75,0,5.5,0,8.25,0,.75.12,1.51.05,2.26-.19,2-.59,4-.67,6-.12,2.86,0,5.73,0,8.59a25.11,25.11,0,0,1-.29,4.29c-.18.95,0,1.25.9,1.2a1.42,1.42,0,0,1,.62.08c.94.4,1.4,0,1.53-.91.23-1.58.47-3.15.63-4.74.13-1.37.21-2.74.2-4.12,0-1.93-.19-3.86-.15-5.79s.31-4.11.36-6.17c0-1.38-.18-2.77-.17-4.16,0-3.34.18-6.68.16-10,0-1.93-.33-3.86-.37-5.8s.12-4,.18-6c0-1,0-2.1,0-3.15a34.59,34.59,0,0,0,.13-3.79,33,33,0,0,1,.1-5.14c0-1.75,0-3.49-.06-5.24C603.48,133.24,603.49,132.16,603.49,130.9Zm51.84,45.2c-.12-1.31-.2-2.38-.31-3.45-.21-2,.58-3.93,0-6a15.22,15.22,0,0,1-.25-3.87c0-3.32,0-6.64.1-10,0-.42.3-.84.3-1.26,0-1.12-.14-2.24-.19-3.35s0-2.22-.07-3.33c0-1.41-.18-2.82-.17-4.24,0-1.94.3-3.89.13-5.81-.11-1.22-.14-2.41-.14-3.63,0-.33-.2-1-.28-1-.66,0-1.76,0-1.9.32a5.25,5.25,0,0,0-.47,3c.41,1.73-.52,3.4.08,5.13a12,12,0,0,1,.22,3c.07,1.11.23,2.22.24,3.34s-.11,2.26-.2,3.39a8.78,8.78,0,0,0-.2,1.35c.06.75.36,1.48.37,2.22q.09,3.91,0,7.83c0,3-.12,5.91-.22,8.86,0,.46-.35.92-.35,1.38,0,1.19.15,2.38.14,3.56,0,1.72-.13,3.43-.2,5.14s-.15,3.5-.21,5.25a16,16,0,0,1-.08,2.77c-.42,2,.09,3.92-.23,5.9a22.28,22.28,0,0,0,.32,5.5,1.34,1.34,0,0,0,.6,1,6.29,6.29,0,0,0,1.6.31,10.06,10.06,0,0,0,.51-2,32.49,32.49,0,0,1,0-4,46.79,46.79,0,0,0,.28-6c0-.9.06-1.79.07-2.69,0-2,.08-4,.06-5.94C654.91,177.91,654.73,176.83,655.33,176.1Zm-28.93-45.8c-1,.17-1.29.79-1.28,1.89,0,2.76-.1,5.52-.19,8.28,0,.8-.12,1.6-.16,2.41-.09,1.53-.21,3.06-.23,4.59a14.32,14.32,0,0,1,.15,2.69c-.57,2.52-.09,5-.14,7.55-.06,3.12.08,6.25.07,9.37,0,.95-.33,1.9-.29,2.83.15,3.15.43,6.3.59,9.45.05,1.11-.16,2.23-.18,3.34,0,.73.19,1.45.18,2.18,0,1.93-.18,3.86-.18,5.79,0,2.5.13,5,.19,7.51,0,.44,0,.89,0,1.31l1.49.14c0-.78,0-1.56,0-2.32.1-1.41.34-2.82.39-4.23.07-1.77,0-3.54,0-5.31,0-1.94.17-3.87.15-5.81a24.58,24.58,0,0,0-.4-3.07,7.54,7.54,0,0,0,.41-1.43c.09-1,.09-2,.11-2.93a19.56,19.56,0,0,0,0-3c-.26-1.91-.07-3.83-.25-5.74a32,32,0,0,1,.06-4.2c.05-1.27.25-2.53.22-3.79s-.36-2.53-.42-3.79c-.1-1.94-.17-3.89-.08-5.83a53.87,53.87,0,0,0-.21-8.15,28.6,28.6,0,0,1,0-3.4c0-1.28.08-2.57.09-3.85C626.52,132,626.44,131.16,626.39,130.3Z"/><path class="cls-1" d="M542.75,159.36c.12-1.69.25-3.24.33-4.79,0-.33-.2-.66-.23-1-.1-1.45-.26-2.9-.23-4.35,0-2.21.23-4.42.32-6.62,0-.44-.17-.89-.17-1.33,0-3.29.14-6.58.14-9.87a16.27,16.27,0,0,0-.42-3.38,2.12,2.12,0,0,1,2.34-2.58c1.35.15,2.7.21,4,.38.45.06,1.1.22,1.27.55.64,1.19,1.7,2.2,1.72,3.68s0,3.13,0,4.69c0,1.86-.11,3.72-.19,5.58,0,.31-.21.62-.22.93,0,1.86,0,3.73-.09,5.59s-.31,3.53-.32,5.3c0,2.56.18,5.13.17,7.69,0,1.45-.31,2.9-.37,4.36-.05,1.18.1,2.37.09,3.56,0,2.31,0,4.61-.13,6.92-.11,3.18-.32,6.35-.39,9.53,0,1.75.18,3.5.17,5.24,0,2.08-.16,4.15-.19,6.23,0,1.62.09,3.25.06,4.87a3.36,3.36,0,0,1-.41,1.83c-.63.86-1.82.55-2.43-.59a2.41,2.41,0,0,1-3,1.55,13.83,13.83,0,0,0-1.6,0c-.54,0-2.25-1.37-2.3-1.91s-.36-1,.41-1.25c.22-.08.36-.65.38-1,.1-1.86.13-3.72.24-5.57.09-1.56.32-3.11.4-4.68.1-2,.07-4,.2-6,.08-1.26-.42-2.55.21-3.79.12-.23-.08-.6-.08-.9q0-3.11,0-6.21c0-1.43.07-2.85.06-4.28,0-.46-.23-.92-.24-1.39s.17-.9.17-1.35a1.24,1.24,0,0,0-.27-.81c-1.23-1.28-2.59-2.44-3.72-3.8-1.67-2-3.25-4.11-4.75-6.25-1.38-2-2.54-4.11-3.93-6.08-.89-1.27-2-2.35-3-3.57q-2.45-3-4.83-6.11c-1.23-1.6-2.39-3.25-3.64-5-.11,2.28-.24,4.4-.31,6.51,0,.67.13,1.35.1,2-.08,1.75-.24,3.49-.3,5.24,0,.65.18,1.31.19,2a48.32,48.32,0,0,1-.09,7.68c-.27,1.74.08,3.44-.25,5.18-.29,1.55.12,3.21.12,4.83s-.18,3.45-.18,5.18c0,2.06.17,4.11.18,6.17,0,1.4-.15,2.8-.19,4.2-.08,2.75-.17,5.5-.17,8.25,0,1.1.34,2.2.35,3.3a40.66,40.66,0,0,1-.23,5.35c-.18,1.41-1.95,1.85-3.24,1.18a4.75,4.75,0,0,0-2.41-.18c-1,.08-2,.45-3.05.48a2.08,2.08,0,0,1-1.85-3,5.77,5.77,0,0,0,.2-1.35c.26-1.46.62-2.92.79-4.39s.22-3.07.27-4.61a5.1,5.1,0,0,0-.3-1.26l.52-.05c.3-3.86.7-7.67.85-11.49s.16-7.59,0-11.38.43-7.75-.12-11.36c.07-.64.14-1.08.17-1.52,0-.28,0-.56,0-.85,0-2.34,0-4.68,0-7,0-1.76-.15-3.52-.2-5.27C509,135.11,509,133,509,131a5.78,5.78,0,0,1,.65-1.75,2.68,2.68,0,0,1,0-3.63.94.94,0,0,1,.76-.19c2.05.39,4.13.72,6.13,1.29a5.05,5.05,0,0,1,2.4,1.56c2.07,2.53,4,5.17,6,7.78,1.42,1.89,2.8,3.82,4.22,5.71,1,1.3,2,2.55,3,3.86a24.72,24.72,0,0,0,2.21,3.13c2.1,2,2.75,5.18,5.35,6.84.65.41,1,1.33,1.47,2S542.18,158.71,542.75,159.36ZM546.83,200c.1-1.62.23-3.09.27-4.57.07-2.75.08-5.49.14-8.24,0-1.58.13-3.16.18-4.74,0-1.19-.05-2.39,0-3.58s.65-2.57.5-3.8c-.26-2.17,0-4.32-.11-6.48,0-.47.14-.95.15-1.43,0-1.06,0-2.11,0-3.17,0-1.24.06-2.49.06-3.73,0-.61-.14-1.23-.13-1.84.05-1.89.21-3.78.22-5.67,0-1.24-.26-2.48-.27-3.72,0-1.62.1-3.23.18-4.85.11-2.21.25-4.42.37-6.63a22.59,22.59,0,0,0,.15-3.27c-.15-1.7-.5-3.39-.76-5-.73-.25-1.13,0-1.27.6a18.83,18.83,0,0,0-.6,3c-.1,2,0,4,0,6-.06,1.63-.36,3.26-.37,4.88,0,1.88.24,3.77.27,5.65s-.08,3.8-.08,5.7a11.58,11.58,0,0,1,.14,2.38,24.84,24.84,0,0,0-.36,4.65c0,.67,0,1.35,0,2-.05,2-.16,3.94-.16,5.91,0,3.21.08,6.43.1,9.64,0,1.05-.1,2.1-.11,3.15,0,2.82,0,5.65,0,8.47,0,2.64,0,5.28,0,8.13C546.18,198.71,546.4,199.47,546.83,200Zm-33.26-69.93a4.08,4.08,0,0,0-.44.93,19.53,19.53,0,0,0-.3,2.36c-.13,2.32-.25,4.64-.33,7,0,1.35,0,2.71,0,4.06s-.2,2.51-.17,3.76c.05,1.93.33,3.86.32,5.79,0,2.23-.3,4.46-.36,6.69-.07,2.47,0,5,0,7.43,0,2,0,4,0,6.07,0,.85,0,1.7,0,2.55,0,1.5.08,3,0,4.5s-.31,3.12-.44,4.68c-.23,2.8-.43,5.61-.64,8.41-.06.72-.13,1.43-.21,2.21l2.92.39a38.6,38.6,0,0,0,.42-4c0-2.55-.18-5.1-.15-7.65,0-2.23.28-4.47.39-6.7.06-1.17,0-2.34,0-3.51,0-1.83.16-3.66.16-5.48,0-1.45-.14-2.91-.17-4.36,0-2,0-4,0-6,0-1.79.16-3.59.22-5.38,0-.71,0-1.42,0-2.13.06-1.9.17-3.8.18-5.7,0-.77-.34-1.53-.34-2.3,0-1,.25-2,.26-3.07,0-1.73,0-3.46-.13-5.18-.1-1.34-.4-2.67-.61-4a2.5,2.5,0,0,1,0-.45l.25.37.6-1.46Z"/><path class="cls-1" d="M190.8,157.83v-1.27c0-3.5,0-7,0-10.49,0-2-.19-4-.19-6s.15-3.88.19-5.81,0-3.81.05-5.71a8.75,8.75,0,0,1,.43-2.54,1.67,1.67,0,0,1,1.1-1,25,25,0,0,1,4.45-.07c1.17.1,2.52,2.29,2.47,3.49,0,.9.19,1.8.18,2.7,0,3-.13,6-.19,9.06,0,1.16,0,2.33,0,3.49-.06,3.52-.1,7-.22,10.56-.07,2-.3,4.06-.39,6.1,0,.72.18,1.45.18,2.18,0,3.61,0,7.21,0,10.82,0,1.42,0,2.83,0,4.25-.06,3.42-.15,6.83-.2,10.24,0,.8.18,1.6.15,2.39-.09,2.54-.23,5.08-.37,7.62a10.18,10.18,0,0,1-.29,2.72,2.11,2.11,0,0,1-1.41,1.14c-.45.08-1-.42-1.52-.73-.16-.11-.19-.42-.21-.48-1.25.15-2.44.36-3.63.42-1.52.07-1.92-.58-1.57-2,.24-1,.22-2,.38-3,.22-1.39-.51-2.78.15-4.2.23-.5-.1-1.23-.09-1.85,0-.79.16-1.57.22-2.36,0-.6.07-1.2.06-1.8,0-1.29-.08-2.59-.07-3.88,0-1.46.08-2.93.09-4.39,0-1.23,0-2.47,0-3.7,0-.4.08-.79.06-1.19-.09-1.4-.26-2.8-.3-4.2a18.3,18.3,0,0,1,.16-4.39c.23-1-.39-1.54-.73-2.2a10.13,10.13,0,0,0-1.57-2c-.81-.92-1.65-1.81-2.5-2.68q-1.91-2-3.86-3.91c-1.18-1.18-2.39-2.35-3.57-3.53-1.61-1.62-3.23-3.23-4.82-4.87-1.34-1.38-2.6-2.86-4-4.17s-3.23-2.74-4.81-4.15c-1.26-1.13-2.46-2.34-3.93-3.75.11,1.18.28,2.05.27,2.92,0,1.9-.18,3.79-.18,5.69,0,2.43.09,4.86.13,7.28,0,.3-.13.6-.14.9-.08,1.93-.2,3.86-.2,5.79,0,2.22.16,4.43.18,6.65,0,2.83,0,5.66,0,8.48,0,3.38,0,6.76,0,10.14,0,2.85.11,5.7.21,8.55.12,3.61.24,7.22.44,10.82.06,1.17-.87,1.49-1.51,1.66a1.34,1.34,0,0,1-1.77-1.19,2,2,0,0,1-2.3.7c-.58-.18-1.32.17-2,.1a8.69,8.69,0,0,1-2.42-.62c-.46-.2-.61-.65-.51-1.35.36-2.57.56-5.16.69-7.75.1-2,0-4,0-6,0-1.79.18-3.59.18-5.38s-.15-3.41-.19-5.12c0-2.2-.08-4.4-.25-6.61a16.38,16.38,0,0,1-.07-4.56,26.26,26.26,0,0,0,.16-4.56c.06-1.32.11-2.67.11-4s-.36-2.75-.3-4.11a33.67,33.67,0,0,1,.2-4.79c.34-1.75-.05-3.49.3-5.24a15.36,15.36,0,0,0-.15-3.26c0-1.39,0-2.79,0-4.18,0-2.1-.13-4.2-.16-6.3a1.07,1.07,0,0,1,.4-.78c1-.66,1.81-1.27,3.23-.86a5.32,5.32,0,0,0,3.42.16c1.16-.43,1.59.17,2.07,1.35a8.35,8.35,0,0,0,1.84,2.46c1.27,1.31,2.63,2.52,4,3.78,1.11,1.05,2.24,2.08,3.3,3.18.67.7,1.22,1.52,1.85,2.26.29.34.67.61,1,.93,2.15,2.2,4.24,4.46,6.45,6.6,1.38,1.35,2.93,2.53,4.37,3.81.59.52,1.13,1.12,1.69,1.68,1.61,1.6,3.22,3.2,4.83,4.81C190.12,157,190.37,157.32,190.8,157.83ZM157.69,198c-.3-1.64.26-3.29,0-5a19.78,19.78,0,0,1,.11-3.66c0-2.8,0-5.59,0-8.39a2.86,2.86,0,0,0-.2-.67,2.4,2.4,0,0,1-.15-.66c.06-2,.14-4,.19-6.07,0-.89,0-1.79,0-2.68,0-1.17,0-2.34,0-3.51,0-2.06,0-4.11,0-6.17,0-1.07,0-2.14,0-3.21,0-1.36-.22-2.72-.2-4.08.07-3.27.28-6.53.31-9.8,0-2.3-.12-4.6-.23-6.9-.1-2.1-.22-4.21-.41-6.3-.05-.58.73-1.35-.15-1.71a5.21,5.21,0,0,0-1.89,0,2,2,0,0,0-.3.12c-.11,2.57-.26,5.24-.32,7.92,0,1.81.09,3.63,0,5.45-.08,2.84-.31,5.69-.38,8.53-.08,3.41-.07,6.82-.09,10.24,0,.54.09,1.08.09,1.62,0,1.06-.12,2.12-.06,3.17a26.29,26.29,0,0,0,.41,3.61c.25,1.3-.23,2.55.11,3.91a25.91,25.91,0,0,1,.43,5.73c0,2-.11,4-.13,6.06,0,2.3.05,4.6,0,6.89-.06,1.83-.28,3.65-.42,5.41Zm37.24-69.92a3.21,3.21,0,0,0-.31.83q-.2,3.81-.34,7.62c0,.55.14,1.11.11,1.67-.12,2.74-.27,5.47-.41,8.21-.05,1-.19,1.91-.18,2.86,0,1.36.22,2.71.18,4.06-.08,2.51-.36,5-.39,7.54,0,2.79.15,5.58.17,8.37,0,1.63-.17,3.26-.18,4.89,0,3.08,0,6.16,0,9.24,0,.33.15.67.13,1-.08,1.91-.24,3.82-.27,5.73,0,1.66.17,3.32.08,5-.13,2.34-.21,2.33,1.46,3,0-.74,0-1.38,0-2,.15-2,.35-4,.48-6.07,0-.67-.18-1.36-.14-2,0-.86.31-1.71.32-2.56,0-1.78-.1-3.57-.14-5.35a9.57,9.57,0,0,1,.07-1.26,9.29,9.29,0,0,0,.28-2.74c-.35-1.62.37-3.19-.05-4.83-.27-1.06.11-2.26.1-3.4,0-1.79-.19-3.59-.18-5.38,0-2.81.15-5.62.19-8.43,0-1.22-.1-2.43-.11-3.65,0-1.41,0-2.82,0-4.24,0-1.76.06-3.51.09-5.27,0-.93,0-1.85,0-2.78,0-3-.17-5.91-.08-8.86C195.84,128.43,195.67,128.24,194.93,128.09Z"/><path class="cls-1" d="M468.48,174.64c-.2-2.47-.41-4.57-.52-6.68-.13-2.59-.25-5.19-.24-7.79,0-3.2.13-6.4.31-9.59a68,68,0,0,1,.72-7.26c.4-2.42,1.36-4.77,1.57-7.19.19-2.21,1.69-3.62,2.48-5.43.91-2.1,2.87-3.12,5.12-3.49a50.5,50.5,0,0,1,7.06-1c2.86,0,5.77.28,7.87,2.73.48.55,1.25.85,1.71,1.41,1.8,2.18,3.48,4.41,4,7.31.33,1.71,1,3.35,1.42,5s.75,3.62,1.11,5.43c.08.4.17.8.23,1.2.35,2.45.82,4.88,1,7.34s0,4.94.05,7.42c0,1.35.12,2.7.17,4.06q.12,3.73.22,7.46a58,58,0,0,1,.06,5.9,26.46,26.46,0,0,1-1,5.59,38,38,0,0,1-2.54,6.33,10.28,10.28,0,0,1-2.54,2.65A26.36,26.36,0,0,1,493,199a10.34,10.34,0,0,1-3.35,1.1,12.38,12.38,0,0,1-9.37-1.69,17.82,17.82,0,0,1-6.1-6.88c-.63-1.2-1.55-2.25-2.11-3.48a52.35,52.35,0,0,1-2.33-6,52.92,52.92,0,0,1-1.28-5.68A7.32,7.32,0,0,1,468.48,174.64Zm3.24-3.78c.31,2,.58,3.37.74,4.76a24.83,24.83,0,0,0,4.27,12.23c.93,1.28,1.62,2.74,2.44,4.11a11.2,11.2,0,0,0,4.81,4c1.91,1,4.1.74,6.2.21A1.89,1.89,0,0,0,491.8,194c0-3.37,0-6.74.08-10.11.06-3.7.18-7.39.26-11.08,0-1.65,0-3.3.08-5,0-.84.35-1.66.35-2.49,0-1.21-.21-2.41-.24-3.62,0-1.47,0-2.94,0-4.41-.14-4.23-.36-8.45-.47-12.67-.07-2.56,0-5.13,0-7.69,0-2-.05-4.23-1.65-5.55a7.32,7.32,0,0,0-5.78-1.66c-2.06.32-4.11.76-6.16,1.16a3.17,3.17,0,0,0-2.31,1.94c-.42.87-1,1.66-1.51,2.5a3.55,3.55,0,0,0-.5,1.08c-.53,2.86-1.17,5.71-1.49,8.59-.4,3.58-.66,7.18-.75,10.78C471.62,161,471.71,166.25,471.71,170.86Zm23.89,20.69c.59-.61,1.07-.89,1.22-1.29.63-1.69,1.15-3.42,1.74-5.13a7.06,7.06,0,0,0,.67-1.7c.06-1.35-.08-2.7-.09-4.05,0-2.46,0-4.93,0-7.39,0-1.19,0-2.38,0-3.57-.11-3-.26-5.9-.39-8.85a49.79,49.79,0,0,0-.23-5.12c-.4-2.69-.93-5.36-1.57-8a49.4,49.4,0,0,0-1.62-4.72,6.32,6.32,0,0,0-.32,2c.1,3,.27,5.91.35,8.87.05,1.84,0,3.69,0,5.53,0,2.59,0,5.18,0,7.77,0,1.32-.29,2.64-.28,4,0,2.23.25,4.46.27,6.69,0,2-.22,3.91-.2,5.86,0,1.19.39,2.37.45,3.56C495.67,187.73,495.6,189.45,495.6,191.55Z"/><path class="cls-1" d="M220.88,179.37c2.88,0,5.6-.13,8.3,0,1.87.12,3.71.26,5.6.21,2.19-.06,4.39.34,6.59.35s4.46-.26,6.7-.35c1.78-.07,3.57,0,5.35-.06a1.62,1.62,0,0,1,1.66,1,2.44,2.44,0,0,1-.32,2,1.7,1.7,0,0,1-2.07.73,7.3,7.3,0,0,0-3.82-.18,31.24,31.24,0,0,1-4.6.07c-1.56,0-3.12.18-4.67.22-.62,0-1.24-.16-1.86-.18-2-.09-4.09-.15-6.13-.22s-4.29-.2-6.43-.19c-1.39,0-2.78.2-4.15.31,0,.37,0,.77,0,1.18,0,3.13,0,6.26,0,9.39,0,1.36.12,2.72.21,4.09,0,.57,1.08,1.19,1.91.86,1.25-.49,2.37.16,3.55.07,1.48-.1,3-.09,4.44-.11,2.81,0,5.58-.89,8.43-.4a11.87,11.87,0,0,0,2.29-.15c2.2-.07,4.38.29,6.6.08,1.13-.11,2.65,0,3.11,1.73a1.58,1.58,0,0,1-.73,2c-1.09.69-2.14.27-3.22,0a9.13,9.13,0,0,0-1.41-.26c-1.79-.09-3.59-.24-5.37-.2-3.26.07-6.51.28-9.76.39-1.66.06-3.33,0-5,.05-3.11.1-6.22.27-9.33.38-1.38,0-2.77,0-4.15,0a2,2,0,0,1-2.1-2.5,7.58,7.58,0,0,0-.07-1.08c0-1,.07-2,0-2.94s-.18-1.79-.18-2.68c0-.73.2-1.45.22-2.18.07-2,.08-4.07.13-6.11.07-3.09.18-6.17.2-9.26,0-2-.16-4.08-.18-6.13,0-1.15.19-2.3.18-3.45,0-2-.17-4-.14-6s.32-4.23.31-6.35c0-2.53-.24-5.06-.32-7.59,0-.7.15-1.41.2-2.12a4,4,0,0,0-.21-.9c.11-.83.31-1.94.38-3.07.12-1.9.17-3.81.21-5.71,0-.4-.16-.81-.18-1.22s.1-.73.11-1.1a11.36,11.36,0,0,0,0-1.44c-.08-.78-.42-1.6.42-2a5.18,5.18,0,0,1-.06-1.72c.47-1.39,1.24-1.64,3.45-1.55,1.77.07,3.54,0,5.31,0,2,0,3.93-.11,5.89-.21s4.12-.29,6.18-.35c1.18,0,2.38.17,3.56.13,1.81-.07,3.61-.28,5.42-.38,1.13-.06,2.26,0,3.39,0a36.24,36.24,0,0,0,4-.44c1.82-.32,3.11.7,3,2.46a1.73,1.73,0,0,1-1.83,1.42c-1.09-.08-2.19,0-3.29-.05-1.63,0-3.26,0-4.89,0-.94,0-1.88.17-2.81.19-1.66,0-3.33,0-5,0s-3.23.12-4.84.21c-2.26.13-4.52.25-6.78.46a1.22,1.22,0,0,0-.8.87c-.1,1.41.21,2.9-.13,4.24a14.86,14.86,0,0,0,0,5,27.76,27.76,0,0,1-.28,3c-.06,2-.05,4.1-.07,6.15,0,.78,0,1.55,0,2.33,0,3,0,6,0,8.93,0,2.74-.06,5.49-.06,8.23,0,1.5.07,3,.05,4.5s-.14,2.82-.18,4.23C220.86,177.09,220.88,178.11,220.88,179.37Zm-6-50.18c-.1,1.66-.19,3.22-.28,4.79,0,.25,0,.49,0,.74,0,1.71,0,3.41,0,5.12-.08,1.86-.31,3.71-.37,5.57,0,1.08.18,2.17.18,3.25s-.17,2.34-.19,3.5c0,3.15,0,6.3,0,9.44,0,.17,0,.35.05.52.05.69.15,1.39.14,2.08,0,1.08-.08,2.16-.13,3.24,0,.61-.07,1.22-.06,1.82a74.76,74.76,0,0,1,.12,8.42c-.18,1.89,0,3.74-.08,5.6-.09,2.16.26,4.33.25,6.49,0,1.55-.27,3.1-.42,4.65a3.36,3.36,0,0,0,0,.71,9.34,9.34,0,0,1,.28,2.31c-.09.65.08.73.59.76.8.05,1.59.19,2.39.17.24,0,.68-.44.66-.64a48.49,48.49,0,0,1,0-7.23c.22-3.59.06-7.19.06-10.79,0-1.2,0-2.41,0-3.61q0-3.47,0-6.93c0-2.37,0-4.74,0-7.11,0-1.33.23-2.66.15-4a47.52,47.52,0,0,1,0-7.73,46.1,46.1,0,0,0,0-5.24c0-2-.15-4.08-.19-6.12s0-4.26,0-6.39c0-.48-.34-1-.31-1.44a16,16,0,0,1,.5-2.28Z"/><path class="cls-1" d="M687.85,183c-1.79-.1-3.36-.27-4.93-.27-2.44,0-4.87.13-7.31.16-1.52,0-3,0-4.66-.08-.27,1.61-.58,3.51-.91,5.41-.28,1.59-.6,3.18-.89,4.77-.27,1.42-.54,2.84-.79,4.27-.18,1-.32,2.07-.5,3.09a2,2,0,0,1-2.14,1.75,3.32,3.32,0,0,1-1.84-1.21c-.22-.27.09-1,.17-1.5a12.13,12.13,0,0,1,.24-1.32c.57-2.07,1.22-4.12,1.72-6.2s.84-4.32,1.3-6.48,1-4,1.41-6c.37-1.85.57-3.73.92-5.59.2-1.07.54-2.13.85-3.18.58-2,1.25-3.93,1.77-5.92.47-1.77.77-3.58,1.19-5.36.22-.9.6-1.76.81-2.66.34-1.47.59-3,.9-4.44.06-.3.22-.58.28-.88q.91-4.55,1.8-9.1c.3-1.51.61-3,.87-4.55.3-1.74.55-3.49.83-5.23q.33-2.06.68-4.12c.19-1.11.34-2.23.62-3.31A2.13,2.13,0,0,1,681,124a1.93,1.93,0,0,1,3.2,1.38c.29,1.69.82,3.34,1.11,5,.4,2.32.66,4.66,1,7,.2,1.41.42,2.82.61,4.23.23,1.65.4,3.3.67,4.94.23,1.45.5,2.9.87,4.32.22.82.78,1.55,1,2.37.55,1.91,1,3.85,1.48,5.79.4,1.72.66,3.48,1.09,5.19s1.13,3.64,1.6,5.49c.34,1.33.47,2.72.79,4.06a33.73,33.73,0,0,1,1.22,4.5c.14,1.39,1.09,2.62.64,4.13-.13.45.29,1,.38,1.58.44,2.48.75,5,1.3,7.45.45,2,1.23,3.92,1.75,5.9.3,1.12.24,2.34.59,3.43a1.4,1.4,0,0,1-.81,1.84,3.33,3.33,0,0,1-1.42.28c-1.64.1-3.31,0-4.92.26s-2.8-.65-2.62-2.36a9.77,9.77,0,0,0-.34-2.41c-.18-1.17-.37-2.33-.56-3.5-.11-.68-.28-1.35-.38-2-.28-1.86-.53-3.72-.8-5.58C688.31,185.89,688.07,184.46,687.85,183Zm-16.21-3.56h15.62l-7.86-31.17a2.32,2.32,0,0,0-.23.54c-.36,1.73-.64,3.48-1.05,5.2-.49,2-1.12,4-1.62,6.07s-.8,3.92-1.28,5.86c-.25,1-.71,2-1,3-.21.65-.32,1.34-.49,2-.51,2-1,4-1.53,6C672,177.78,671.83,178.59,671.64,179.49Zm10.87-47c-.16.84-.28,1.45-.4,2.06-.34,1.78-.69,3.57-1,5.35a4.92,4.92,0,0,0-.19,1.73c.06.29.71.42,1,.71a1.44,1.44,0,0,1,.39.8c.12.88.12,1.77.28,2.64.37,2,.82,4,1.21,6,.19,1,.26,2,.51,3,.42,1.66,1,3.28,1.39,4.93.57,2.25,1,4.54,1.61,6.79.31,1.19.87,2.33,1.13,3.53.63,2.9,1.13,5.82,1.73,8.73s1.29,5.84,1.88,8.76c.28,1.35.41,2.74.65,4.1.46,2.64.94,5.27,1.4,7.85l2.29.23a21,21,0,0,0-.35-2.75,20.89,20.89,0,0,1-1.08-4.51,22.46,22.46,0,0,0-.72-3.76c-.2-1-.78-2-.57-2.86a6.9,6.9,0,0,0-.29-2.89q-.4-2.66-.89-5.31c-.18-1-.39-2-.66-2.92s-.76-2-1-3c-.45-1.93-.76-3.89-1.19-5.82-.56-2.5-1.18-5-1.8-7.48q-.7-2.81-1.47-5.59c-.44-1.6-.95-3.18-1.41-4.77-.16-.56-.31-1.13-.43-1.7-.31-1.48-.68-2.95-.89-4.44-.18-1.29-.1-2.61-.26-3.9C683.15,136.21,682.83,134.5,682.51,132.49Z"/><path class="cls-1" d="M102.56,199.88a33.43,33.43,0,0,0,5.62-.08,31,31,0,0,1,3.54-.08c3.39-.21,6.79-.3,10.19-.46.83,0,1.67-.18,2.5-.2,1.77,0,2.39,1,1.67,2.59-.15.33-.26.89-.47.94a15.49,15.49,0,0,1-2.6.26c-.37,0-.74-.19-1.11-.18-3.22.13-6.44.32-9.66.4-1.51,0-3-.23-4.54-.17-1.9.08-3.79.34-5.69.53-.24,0-.49.06-.73.07l-9.23.16A1.87,1.87,0,0,1,90,201.85c0-.14,0-.37-.08-.4-1.57-.61-.61-2-.91-3a4.54,4.54,0,0,1,.09-3.35c.16-.33-.14-.87-.15-1.31,0-1.32-.09-2.64,0-4,.22-2.8.57-5.6.8-8.4.1-1.2,0-2.41,0-3.61.05-2.64.13-5.27.17-7.91,0-.34-.16-.67-.17-1,0-1.14,0-2.29,0-3.43,0-1.93,0-3.86,0-5.79,0-3.2.15-6.4.16-9.61,0-2.09-.14-4.18-.15-6.26,0-1.26.2-2.52.16-3.78-.06-2-.27-4-.37-6a6.38,6.38,0,0,1,.76-3.61c.26-.46.59-1.12.44-1.52-.42-1.1.43-1.71.74-2.52a.84.84,0,0,1,.69-.32c1.79.11,3.59.17,5.36.45a2.87,2.87,0,0,1,2.05,3.39,9.45,9.45,0,0,0-.1,1.9c0,3.15,0,6.29,0,9.44,0,1.44.2,2.87.19,4.31,0,2.64-.14,5.27-.19,7.91-.05,2.95-.13,5.89-.09,8.84,0,3.29.24,6.58.28,9.87,0,1.68-.24,3.36-.17,5,.12,2.86.41,5.71.58,8.56.07,1.14,0,2.29,0,3.44s.12,2.12.15,3.18c0,1.35,0,2.7.11,4a8.89,8.89,0,0,0,.64,2.75c.19.44.89.67,1.36,1Zm-5.84-70.49H94.16c-.9,0-1.16.43-.85,1.3a2.51,2.51,0,0,1,.22,1c-.16,1.94-.47,3.86-.53,5.8-.09,3,0,6.1,0,9.15,0,1.44-.15,2.87-.2,4.31,0,1.2,0,2.41-.07,3.61s-.29,2.49-.3,3.74c0,2,.13,4.08.15,6.12,0,4,0,8,0,12,0,3.13-.12,6.27-.21,9.4,0,1.26-.18,2.51-.19,3.77,0,3.15,0,6.29,0,9.44,0,.6.24,1,.95.92a11,11,0,0,1,2.9-.13c.88.16.8-.25.8-.76,0-1.74,0-3.48-.08-5.22,0-.74-.25-1.47-.31-2.2a5.87,5.87,0,0,1,.12-1.49,10.48,10.48,0,0,0,.45-2c0-1.42-.27-2.83-.35-4.25-.07-1.17,0-2.34,0-3.51,0-3.14,0-6.29,0-9.43,0-.65.2-1.31.17-2-.09-2-.26-4.09-.38-6.14-.08-1.3-.12-2.6-.17-3.89a10.77,10.77,0,0,1,0-1.48c.17-1.72.49-3.44.54-5.16.06-1.93-.12-3.86-.16-5.8,0-.54.12-1.08.1-1.62-.09-2.33-.21-4.65-.31-7,0-.92-.06-1.84-.09-2.75,0-1.12-.15-2.25-.1-3.37A14.52,14.52,0,0,1,96.73,129.39Z"/><path class="cls-1" d="M135.17,202.32a10.13,10.13,0,0,1-1.92-.4,2,2,0,0,1-.88-.95c-.85-1.67-.52-3.5-.66-5.26-.09-1.14-.27-2.27-.4-3.41a2.34,2.34,0,0,1,0-.63c.53-3.2.1-6.42.18-9.63.06-2.32-.13-4.65-.24-7-.09-1.91-.24-3.81-.31-5.72-.06-1.48,0-3-.07-4.45-.06-1.16-.29-2.3-.36-3.46s0-2.2-.05-3.29c-.09-1.35-.35-2.69-.38-4,0-1.15.19-2.3.27-3.46a38.25,38.25,0,0,0-.27-8.65,13.17,13.17,0,0,1,.11-2.08c0-.84-.09-1.69-.08-2.53q.05-3.76.16-7.51a6.59,6.59,0,0,1,.2-1.85A2.24,2.24,0,0,1,133,126.4c1.59.08,3.19.09,4.79.11a2.06,2.06,0,0,1,1.87,2.54,21.53,21.53,0,0,0-.24,6.76c0,.41.14.82.17,1.23.08,1.5.2,3,.2,4.51,0,1.23-.21,2.47-.17,3.7s.35,2.41.38,3.62c.06,2.46,0,4.92,0,7.39,0,3.13.14,6.26.21,9.39s.14,6.05.21,9.08c.05,1.95.16,3.9.17,5.84,0,1.66-.16,3.32-.15,5s.19,3.3.18,4.94c0,2.36-.14,4.73-.18,7.09a11.44,11.44,0,0,1,.15,1.64c-.1.55-.33,1.33-.73,1.52-1.46.7-3,1.19-4.55,1.75Zm2-3a6.46,6.46,0,0,1-.26-1.63,37.49,37.49,0,0,0,.39-7.13c-.09-1.41.3-2.87.13-4.26-.24-2,.58-3.82.14-5.79a20.09,20.09,0,0,1-.1-3.82c-.06-2.33-.15-4.67-.2-7,0-1.43,0-2.86,0-4.29,0-1.79,0-3.58-.08-5.36-.06-1.4-.27-2.79-.33-4.18s0-2.61,0-3.92c0-2.14-.14-4.29-.21-6.43s-.12-4.5-.23-6.76-.26-4.49-.41-6.74a10.55,10.55,0,0,0-.21-1.43,5.13,5.13,0,0,0-.29-.77c-.48.47-1.6-.32-1.71.81-.16,1.66-.28,3.32-.36,5-.08,1.92-.14,3.84-.13,5.76,0,3.52.18,7,.11,10.57,0,1.72-.56,3.44.39,5.08,0,.07,0,.19,0,.29,0,2.78-.17,5.56-.09,8.34s.41,5.7.58,8.56q.27,4.55.42,9.11c.11,3.19.1,6.38.24,9.56.09,1.95.38,3.88.58,5.88Z"/><path class="cls-1" d="M329.92,190.67a17.3,17.3,0,0,1-1.83-1.45c-1.43-1.49-2.83-3-4.21-4.56-1.06-1.18-2-2.42-3.12-3.57-.88-.92-1.91-1.69-2.78-2.62a26.13,26.13,0,0,1-2.45-3,16.55,16.55,0,0,0-3.53-3.8c-.6-.46-1.26-.9-1.85-1.42-.92-.81-.29-1.72,0-2.46a1.8,1.8,0,0,1,1.57-.83,7.07,7.07,0,0,1,2.14,1.34,7.3,7.3,0,0,1,.95.92l2.82,3c.49.52,1,1.06,1.44,1.58,1.59,1.69,3.16,3.39,4.79,5,1.22,1.23,2.53,2.37,3.77,3.59.7.69,1.33,1.44,2,2.18s1.48,1.71,2.17,2.6a1.89,1.89,0,0,1-.06,2.34C331.33,190,330.66,190.2,329.92,190.67Z"/><path class="cls-1" d="M336,187.42a9.81,9.81,0,0,1,1-1.85c2.1-2.38,4.22-4.75,6.41-7.05,2-2.12,4.12-4.15,6.19-6.2,1.35-1.34,2.75-2.64,4.08-4,.77-.78,1.47-1.64,2.2-2.46a2.55,2.55,0,0,1,2.48.06,1.88,1.88,0,0,1,.07,2.25c-2.26,2.28-4.58,4.5-6.79,6.83-1.33,1.41-2.5,3-3.74,4.48l-.28.31c-2.35,2.56-4.71,5.12-7.05,7.7a6.61,6.61,0,0,0-.86,1.28c-.66,1.21-1.69,1.33-2.56.27C336.73,188.55,336.39,188,336,187.42Z"/><path class="cls-1" d="M334.54,157c-.14.06-.36.09-.4.2-.16.34-.15.92-.39,1a5.08,5.08,0,0,1-1.82.43c-1,.07-1.91,0-2.87,0s-1,.25-1.08,1.09c0,.68-.11,1.37-.15,2.05a2.05,2.05,0,0,0,.07.54c.16.74.33,1.48.53,2.34.52,0,1.23,0,1.94,0s1.43-.09,2.15-.07c.4,0,1-.31,1.09.52a1.26,1.26,0,0,1-1.25,1.24c-1.28.11-2.55.28-3.8.42-.25,1.64-.11,1.84,1.43,1.81s2.94-.09,4.41-.16c.56,0,.71.25.65.73-.12.94-.64,1.34-1.82,1.36s-2.57,0-3.85,0c-.19,0-.46-.08-.55,0-1.17,1.18-1.81-.24-2.65-.57a1.66,1.66,0,0,1,.14-.91c.1-.21.4-.32.7-.53-.19-.74-.44-1.51-.59-2.29a7.77,7.77,0,0,1,.11-1.08c0-1-.12-2-.16-3,0-.71,0-1.42,0-2.13,0-.52.07-1-.58-1.33s-.71-1.08.08-1.51a2.61,2.61,0,0,1,1-.32c1-.09,1.92-.13,2.88-.17,1.27-.06,2.55-.12,3.82-.16a5.66,5.66,0,0,1,.82.09Z"/><path class="cls-1" d="M359.7,160.55c-.48.51-.73,1-1.08,1.1a1.83,1.83,0,0,1-1.41-.3c-1.34-1.15-2.6-2.39-3.87-3.62a42.72,42.72,0,0,0-4-3.82,32.09,32.09,0,0,1-3.41-3.3c-1.72-1.71-3.63-3.22-5.42-4.87-.4-.37-.58-1-1-1.39-.93-1-1.88-1.95-2.89-2.84s-.37-2-.08-2.85c.17-.49,1.14-.74,1.77-1,.14-.06.48.11.62.27a33.75,33.75,0,0,1,2.39,2.62c1.11,1.43,2,3,3.2,4.39,1.46,1.67,3.1,3.18,4.69,4.74,1.31,1.27,2.66,2.5,4,3.75s2.86,2.63,4.18,4A31.1,31.1,0,0,1,359.7,160.55Z"/><path class="cls-1" d="M312.1,161.81a18.09,18.09,0,0,1-1.89-.3,1,1,0,0,1-.54-1.64c.88-1.25,1.73-2.53,2.72-3.69a20.4,20.4,0,0,1,2.07-1.74c.65-.59,1.24-1.24,1.87-1.85,1.14-1.12,2.31-2.21,3.43-3.35a45.6,45.6,0,0,1,4.28-4.41c2.07-1.61,3.19-4,5-5.73a2,2,0,0,1,3.3.48c.12.29-.06.72-.16,1.08a1,1,0,0,1-.33.4c-1,.93-2,1.81-2.94,2.81-1.78,1.95-3.46,4-5.22,5.95-.85.94-1.81,1.78-2.67,2.72-1.37,1.51-2.71,3-4,4.58-1.11,1.27-2.17,2.6-3.34,3.81A5.82,5.82,0,0,1,312.1,161.81Z"/><path class="cls-1" d="M341.25,158.92l-.4,4.85a.46.46,0,0,0,0,.16c.52,1.77.14,3.61.35,5.39a2.47,2.47,0,0,1-.59,2.21c-1.13-.31-1.17-.44-1.22-1.56-.12-2.39-.31-4.77-.46-7.16a3.83,3.83,0,0,1,0-.48c0-.72.09-1.43.13-2.15,0-.11,0-.21,0-.32,0-.37.11-.88-.08-1.06s-.71-.09-1.08-.1a7,7,0,0,1-1.44-.05c-.29-.07-.74-.43-.72-.63a1.36,1.36,0,0,1,.58-1,7.14,7.14,0,0,1,3.5-.44c1.07,0,2.15-.06,3.22-.06a20.13,20.13,0,0,1,2.59.11c.18,0,.47.6.4.8a1.33,1.33,0,0,1-.8.73C344,158.49,342.74,158.67,341.25,158.92Z"/></g></g></svg>