<?xml version="1.0" encoding="utf-8"?>
<!-- Generator: Adobe Illustrator 21.0.0, SVG Export Plug-In . SVG Version: 6.00 Build 0)  -->
<svg version="1.1" id="Layer_1" xmlns="http://www.w3.org/2000/svg" xmlns:xlink="http://www.w3.org/1999/xlink" x="0px" y="0px"
	 viewBox="0 0 1057 822" style="enable-background:new 0 0 1057 822;" xml:space="preserve">
<style type="text/css">
	.st0{fill:#FFFFFF;}
</style>
<g>
	<path class="st0" d="M202,3c285.6,0,571.3,0,856.9,0c0,241.3,0,482.6,0,723.9c-1.7-3-3.6-5.7-7.7-5.3c-3,0.3-6.1,0.3-9.2,0.4
		c-9.3,0.3-18.6,0.6-28,1c-2.7,0.1-5.5,0.8-8.2,0.3c-7.3-1.4-14.6,0.3-22.2-1.8c-7.1-2-15.3-0.3-23.1-0.5
		c-11.9-0.2-23.7-0.6-35.6-0.9c-9.1-0.2-9-0.2-9.2-9.1c-0.3-12.6-0.9-25.3-0.9-37.9c0-9.8,0.9-19.6,0.9-29.4
		c0-10.9-0.7-21.8-0.9-32.7c-0.2-11.3,0-22.5,0-33.8c0-3.8,0.3-7.6-0.1-11.3c-0.3-2.4-2.5-4.7-2.4-7c0.2-4.1,1.7-8.1,2.2-12.1
		c0.6-4.2,0.9-8.5,1-12.8c0.2-5.9,0.1-11.8,0.4-17.7c0.1-3.1,1.4-5.1,5.1-5.3c12.3-0.5,24.6-1.3,36.9-1.8c8.8-0.4,17.6-0.6,26.4-1
		c10-0.5,20-1.6,30-1.9c7-0.2,13.9,0.7,20.9,0.9c2.8,0.1,5.8-0.9,5.5-4.2c-0.4-3.3-1.2-8.5-3.3-9.3c-4.2-1.6-9.4-1.1-14.1-1.1
		c-6.7,0-13.3,0.4-20,0.7c-1.2,0-2.5-0.3-3.5,0.1c-6.1,2.3-12.5,1.9-18.9,2c-12.7,0.1-25.4,0.7-38.2,1c-11,0.3-22.1,0.7-33.1,0.9
		c-7.5,0.1-15.1,0-22.6,0c-7,0.1-10.4,1.9-11,6.2c-0.6,4.5-1.1,9.1-1.1,13.7c-0.1,12.3,0.1,24.7-0.1,37c-0.1,6.2-0.9,12.4-0.9,18.5
		c0.1,9.2,0.6,18.4,0.9,27.5c0.1,1.9,0.6,3.8,0.6,5.8c-0.4,9.4-1.2,18.8-1.3,28.2c-0.1,11.5,0.4,23,0.7,34.4
		c0.3,11.7,0.8,23.4,0.8,35.1c0,13.9-0.5,27.8-0.6,41.8c0,4.4,1,8.9,0.7,13.2c-1.2,16.8-1.7,33.5,0.1,50.2c0.4,3.9,2.8,6.6,7.3,6.3
		c3.5-0.3,6.9-0.9,10.4-0.8c7.8,0.1,15.6,0.6,23.5,0.8c6.6,0.1,13.1,0.3,19.7-0.1c8.9-0.5,17.7-2,26.6-2.3
		c15.3-0.5,30.6-0.5,45.8-0.6c3.8,0,7.7-0.2,11.5,0.4c4.8,0.7,9.4,2.3,14.1,3.4c5.3,1.3,10.4-1.6,11.1-6.3
		c0.8-4.7-4.1-10.3-9.2-10.4c-16.4-0.4-32.9-0.9-49.3-1c-7.5-0.1-15,0.6-22.5,1c-8.2,0.5-16.4,1.3-24.6,1.8
		c-4.2,0.2-8.5,0.6-12.6-0.1c-3.3-0.6-8.6,0.9-9.5-4.1c-1.1-6.2-1.8-12.7-1-18.9c1.6-12.7,0.3-25.2-1.2-37.8
		c-0.4-3.3,0.2-5.3,4.3-5.2c9,0.3,18.1,0.1,27.1,0.1c11.5,0,22.9-0.1,34.4,0c9.4,0.1,18.8,0.7,28.3,0.9c7.7,0.2,15.4,0,23.1,0
		c4.5,0,9.1-0.4,13.6,0.2c6,0.7,9.6-0.5,12.2-5.1c0,31.3,0,62.6,0,94c-243.6,0-487.3,0-730.9,0c5-1.9,10.1-3.8,13.9-5.2
		c2.7,1.7,4.5,3.7,6.5,3.9c1.2,0.1,2.8-2.6,3.8-4.3c5.1-8.7,0.2-17.3-1.2-25.6c-1.9-11.7-5.9-23-8.9-34.5c-1.8-6.7-3.4-13.5-5-20.3
		c-0.2-0.9-0.6-1.8-0.6-2.7c-0.2-5.9,0.4-12-0.5-17.8c-1.6-9.9-4.1-19.6-6.2-29.3c-1.8-8.1-3.6-16.2-5.6-24.2
		c-0.6-2.3-2.4-4.3-2.8-6.6c-1-5.3-1.3-10.7-2.2-16c-0.6-3.5-1.8-6.9-2.5-10.4c-0.5-2.6-0.3-5.3-0.9-7.8c-1.4-6.3-3.3-12.4-4.5-18.7
		c-1.7-9.3-2.2-18.9-4.5-28.1c-2.7-10.7-5.2-21.4-6.6-32.3c-0.2-1.3-1.3-2.5-1.4-3.8c-1.3-10-2.1-20.1-3.6-30.1
		c-1.9-12.2-4.3-24.3-6.4-36.5c-0.8-4.9-1.1-9.9-1.8-14.8c-0.8-5.3-1.7-10.5-2.8-15.7c-0.5-2.2-1.9-4.3-2.3-6.5
		c-0.8-4.6-0.9-9.4-1.7-13.9c-1.1-5.8-2.9-11.4-3.9-17.2c-1.6-9.4-1.5-19.4-4.4-28.3c-4.4-13.2-3.5-27.2-8.1-40.3
		c-2.4-6.8-1.7-14.7-2.5-22c-0.6-5.8-1.2-11.6-2.3-17.3c-1.5-8-3.9-15.8-5.3-23.8c-2-10.9-3.2-21.9-5.2-32.8
		c-1.4-7.5-3.8-14.8-5.3-22.4c-1.4-7-1.9-14.2-3.1-21.3c-0.7-4.3-2.3-8.5-2.8-12.8c-0.8-6-2.8-11.7-2.5-18.2
		c0.3-7.5-2.2-15.1-3.7-22.6c-2.7-13.8-5.3-27.6-7-41.6c-1.4-11.5-3.9-22.9-5.6-34.4c-2.5-16.4-4.8-32.8-7.3-49.3
		C210,12.8,210.1,5.6,202,3z M791.9,631.4c-5.4-4.6-10-8.1-14.1-12.1c-6.2-5.9-12.1-12.1-18.2-18.1c-7.1-7-14.4-13.8-21.6-20.7
		c-1.5-1.4-3.1-2.6-4.7-3.9c-3.6-3-8.5-5.3-10.6-9.2c-2.3-4.1-5.1-7-8.3-10.1c-4.2-4.1-7.7-8.8-11.6-13.1
		c-5.3-5.8-10.6-11.7-16.4-17.1c-3.3-3.1-7.2-5.2-10.2-9c-3.2-4-7.3-7.1-8.2-12.6c-0.6-3.8-5-6.8-8.3-5.3c-5.3,2.4-10.3,1.1-15.5,0
		c-8.1-1.6-13.1,2.4-13.1,10.7c0,4.7-0.1,9.3,0,14c0.2,7.7,0.5,15.4,0.7,23c0.1,3.1,0.1,6.1,0.3,9.2c0.2,3.8,0.9,7.7,0.8,11.5
		c-0.4,12.2-1.4,24.4-1.7,36.6c-0.2,5.8,0.7,11.6,0.8,17.3c0.2,13.2,0.1,26.4,0.1,39.7c0,2.8-0.2,5.5-0.1,8.3
		c0.3,9.8,0.7,19.5,1,29.3c0.1,2.9-0.3,5.8-0.2,8.6c0.3,6.8,1,13.5,1,20.2c0.1,6.5-0.6,12.9-0.6,19.4c0,6.4,1.3,12.8,0.7,19.1
		c-1.1,11.9-3.4,23.7-4.6,35.6c-0.2,2.2,1.8,6.3,3.6,6.7c8.7,2.2,17.6,1.9,25.2,0.4c3.7,1.1,7.1,3.3,9.3,2.4c3.2-1.3,5.3-4.7,5-9.1
		c-0.9-14.7-1.6-29.4-2.3-44.1c-0.3-6.6-0.6-13.3-1-19.9c-0.2-2.9-0.7-5.8-0.7-8.7c0-3,0.8-6,0.9-8.9c0.1-5.9-0.1-11.8-0.1-17.6
		c0-1.6,0.7-3.2,0.5-4.7c-0.3-3-1.5-6-1.4-9c0.1-10.2,0.7-20.3,0.7-30.5c0-7.2-0.5-14.4-0.9-21.5c-0.3-5.2-1-10.4-0.8-15.6
		c0.4-12.6,1.4-25.2,1.8-37.8c0.3-8.9,0-17.9,0.1-26.8c0.1-5.8,0.8-11.6,0.8-17.4c0-3.3-0.8-6.7-1.3-10c4,2.1,6.8,4.5,9.5,7
		c4.3,3.8,8.6,7.6,12.9,11.4c4.2,3.7,8.6,7.3,12.6,11.2c6.3,6.1,12.2,12.6,18.4,18.8c7,7.1,14.1,14.2,21.1,21.3
		c3.2,3.2,6.1,6.6,9.3,9.8c1.6,1.6,3.8,2.7,5.4,4.4c1.5,1.6,2.4,3.9,3.9,5.5c3.5,3.7,7.3,7,10.8,10.6c2.2,2.3,3.7,5.2,6.1,7.1
		c10,7.9,13.7,18.2,13.2,30.6c-0.5,12.2-0.7,24.5-0.7,36.8c0,10.8,0.4,21.6,0.6,32.4c0,1.9,0.6,3.9,0.5,5.8
		c-0.7,10.5-1.7,21.1-2.2,31.6c-0.4,10-0.1,20-0.3,30.1c-0.1,3,1.1,4.9,4.1,4.8c5.9-0.1,11.7-0.5,17.1-0.8c1.9,1.5,3.8,4,6.1,4.6
		c1.5,0.4,4.5-1.6,5.3-3.3c1.4-3,2.2-6.6,2.4-9.9c0.6-10.1,1.6-20.4,0.9-30.4c-0.8-10.2-0.6-20.3-0.7-30.4
		c-0.2-19.5-0.1-39-0.3-58.5c-0.1-8.6-0.3-17.2-0.5-25.9c-0.1-2.8-0.1-5.6-0.3-8.4c-0.2-2.2-1.3-4.5-1.1-6.7
		c0.6-6.1,3.4-11.7,1.5-18.3c-1.2-3.9-0.1-8.5,0-12.9c0.3-12.5,0.7-24.9,1-37.4c0.1-3.8-0.4-7.6-0.2-11.4c0.4-9.3,1.4-18.6,1.6-27.9
		c0.1-7.1-0.9-14.3-1-21.4c-0.1-6-4.7-13.4-10.8-13.9c-6.7-0.6-13.6,0.6-20.3,1.1c-0.5,0-1.2,0.8-1.3,1.3c-0.8,4-2.1,8-2.2,12
		c-0.3,15-0.2,30-0.1,45c0.2,14.3,0.7,28.7,1,43C792.1,609.8,791.9,620,791.9,631.4z M392.6,502.2c-4.9-0.6-8,2.2-9.3,6.2
		c-2,6.1-3.3,12.4-4.3,18.7c-0.6,4.4-0.1,9-0.1,13.6c0,7.1-0.1,14.2,0,21.3c0.2,9.3,0.7,18.6,0.9,27.9c0.1,2.6-0.7,5.2-0.8,7.8
		c-0.3,12.2-0.4,24.4-0.6,36.6c0,1.6-0.5,3.3-0.4,4.9c0.1,6.1,0.4,12.2,0.4,18.4c0,6-0.3,11.9-0.3,17.9c0,0.9,0.7,1.8,0.9,2.8
		c0.3,1.2,0.7,2.5,0.7,3.8c-0.2,4.6-0.7,9.2-0.8,13.8c0,3.6,0.8,7.2,0.6,10.7c-0.3,6.2-1.3,12.5-1.7,18.7c-0.5,8.1-0.6,16.3-1,24.5
		c-0.4,8.2-0.9,16.4-1.3,24.6c-0.2,4.5-0.5,9-0.6,13.6c-0.1,7.2-0.5,14.4,0.3,21.5c0.4,3.5,2.6,6.9,4.6,10c2.9,4.3,8.1,4.4,12.5,4.3
		c10.9-0.1,21.8-1,32.7-1.6c1.5-0.1,3-0.1,4.5-0.3c8-0.8,16.1-1.9,24.1-2.3c8.8-0.4,17.7,0.5,26.5-0.3c12.1-1,24-2.3,36.1,0.6
		c3.1,0.7,8-0.6,10.4-2.8c3.3-3.1,2.7-9.8-0.5-11.7c-2.8-1.6-6.5-2.2-9.8-2.1c-9.3,0.3-18.5,1.5-27.7,1.9c-13.9,0.5-27.9,0.6-41.9,1
		c-4.8,0.1-9.6,0.3-14.4,1c-7,1.1-10.4-3.7-10.4-9.2c0-4.3-0.8-8.6-0.9-13c-0.4-13.3-0.7-26.6-1-39.9c-0.1-3.7,0.1-7.3-0.3-11
		c-0.8-7.6-2.4-15.2-2.5-22.8c-0.2-12.2,0.5-24.5,0.9-36.7c0.1-2.3,0.8-4.5,0.7-6.7c-0.3-4.1-1.5-8.1-1.5-12.2
		c0-7.8,0.7-15.6,0.7-23.4c0-8.4-0.7-16.7-0.7-25.1c0-10.2,0.7-20.4,0.8-30.7c0.1-18.3,0-36.7,0-55c0-0.8-0.1-1.7,0.1-2.5
		c1.9-6.5,0.4-11.7-6-13.8C406,502.9,399.1,503,392.6,502.2z M551.2,792.6c-0.1,0-0.1,0-0.2,0c0.3,4.8,0.3,9.6,1.1,14.3
		c0.5,2.7,2,7.3,3.5,7.5c6.2,0.8,12.6,0.6,18.9,0.1c2.4-0.2,5.1-1.5,7-3c2.1-1.7,5-4.1,5.1-6.4c0.6-7.7,0.3-15.4,0-23.1
		c-0.3-7.3-1.5-14.6-1.5-21.9c-0.1-11.4,0.5-22.7,0.8-34.1c0.1-4.4,0-8.8-0.1-13.2c-0.3-13.5-0.6-26.9-0.8-40.4
		c-0.1-5.2-0.1-10.4-0.2-15.6c0-2.7,0.2-5.4,0-8.1c-0.5-5.9-1.4-11.8-1.9-17.7c-0.6-7.3,1.7-14.3,0.3-21.9c-1.6-9-1.2-18.5-1.3-27.7
		c0-6.8,1.8-13.8,0.6-20.3c-1.6-8.5-1.6-16.8-1.8-25.3c0-2-1.1-4.1-0.9-6.1c0.5-5.2,1.6-10.3,2-15.5c0.6-7.2-2.3-10.1-9.3-10.3
		c-5.6-0.1-11.2-0.5-16.8-1c-4.1-0.3-11.8,6.2-11.8,10.3c0,8.3,0,16.5,0.2,24.8c0.2,9.9,0.5,19.8,0.6,29.8
		c0.1,9.4,0.3,18.7,0.1,28.1c-0.1,7.7-0.9,15.3-0.8,23c0.1,5.8,1.4,11.7,1.8,17.5c0.7,10.2,1.4,20.4,1.8,30.6
		c0.3,8.1,0,16.3,0.3,24.4c0.5,11.2,1.6,22.5,1.9,33.7c0.3,15-0.1,30,0.1,44.9C550.1,777.5,550.8,785,551.2,792.6z"/>
	<path class="st0" d="M2,803.9C2,536.9,2,270,2,3c65.7,0,131.3,0,197,0c-3.2,1.1-3.9,3.3-2.8,6.4c0.3,0.8,0.3,1.8,0.1,2.7
		c-2.6,12.8-5.2,25.7-8,38.5c-2.2,10.2-5.1,20.3-7.2,30.5c-2.3,11.2-4.1,22.5-6.1,33.7c-1.1,5.8-2,11.7-3.4,17.4
		c-2,8.1-4.7,15.9-6.5,24c-3,13.5-5.4,27-8.1,40.5c-2.7,13.8-5.1,27.7-8.1,41.4c-4.5,21.1-9.1,42.2-14.3,63.2
		c-4.4,17.6-9.8,34.9-14.6,52.4c-5.4,19.5-10.9,39-15.9,58.6c-6,23-11.5,46.1-17.4,69.2c-4.1,16.3-8.5,32.5-12.6,48.8
		c-2.8,11.2-5.1,22.5-8.2,33.7c-5.5,20.1-8.5,40.7-15.7,60.4c-3.3,9-4.3,18.8-6.6,28.2c-3.8,15.9-7.7,31.8-11.7,47.6
		c-2.1,8.4-4.6,16.7-7,25c-1.6,5.8-3.4,11.5-5,17.3c-2.3,8.3-4.3,16.7-6.7,25c-1.9,6.8-4.2,13.6-6.3,20.4
		C5.3,793.2,3.7,798.5,2,803.9z"/>
	<path d="M2,803.9c1.7-5.4,3.3-10.7,5-16.1c2.1-6.8,4.4-13.5,6.3-20.4c2.4-8.3,4.4-16.7,6.7-25c1.6-5.8,3.3-11.5,5-17.3
		c2.4-8.3,4.9-16.6,7-25c4-15.8,7.9-31.7,11.7-47.6c2.2-9.4,3.3-19.2,6.6-28.2c7.2-19.7,10.2-40.4,15.7-60.4
		c3.1-11.1,5.3-22.5,8.2-33.7c4.1-16.3,8.5-32.5,12.6-48.8c5.8-23,11.4-46.2,17.4-69.2c5.1-19.6,10.6-39.1,15.9-58.6
		c4.8-17.5,10.2-34.8,14.6-52.4c5.2-20.9,9.7-42.1,14.3-63.2c3-13.8,5.4-27.6,8.1-41.4c2.6-13.5,5.1-27.1,8.1-40.5
		c1.8-8.1,4.5-16,6.5-24c1.4-5.7,2.4-11.6,3.4-17.4c2.1-11.2,3.8-22.5,6.1-33.7c2.1-10.2,4.9-20.3,7.2-30.5
		c2.8-12.8,5.4-25.7,8-38.5c0.2-0.9,0.2-1.9-0.1-2.7c-1.1-3.1-0.5-5.3,2.8-6.4c1,0,2,0,3,0c8.1,2.6,8,9.8,9,16.3
		c2.5,16.4,4.8,32.9,7.3,49.3c1.8,11.5,4.2,22.8,5.6,34.4c1.7,14,4.3,27.8,7,41.6c1.5,7.5,4,15.1,3.7,22.6
		c-0.3,6.5,1.7,12.1,2.5,18.2c0.5,4.3,2.1,8.5,2.8,12.8c1.2,7.1,1.7,14.3,3.1,21.3c1.4,7.5,3.9,14.8,5.3,22.4
		c2,10.9,3.2,21.9,5.2,32.8c1.4,8,3.8,15.8,5.3,23.8c1.1,5.7,1.6,11.5,2.3,17.3c0.8,7.4,0.1,15.2,2.5,22c4.6,13.1,3.8,27.1,8.1,40.3
		c3,9,2.8,18.9,4.4,28.3c1,5.8,2.8,11.4,3.9,17.2c0.8,4.6,0.9,9.3,1.7,13.9c0.4,2.2,1.8,4.3,2.3,6.5c1.1,5.2,2,10.4,2.8,15.7
		c0.7,4.9,1,9.9,1.8,14.8c2,12.2,4.5,24.3,6.4,36.5c1.5,10,2.4,20.1,3.6,30.1c0.2,1.3,1.3,2.5,1.4,3.8c1.4,10.9,3.9,21.6,6.6,32.3
		c2.3,9.2,2.8,18.7,4.5,28.1c1.2,6.3,3.1,12.5,4.5,18.7c0.6,2.6,0.4,5.3,0.9,7.8c0.7,3.5,1.9,6.9,2.5,10.4c0.9,5.3,1.2,10.7,2.2,16
		c0.4,2.3,2.2,4.3,2.8,6.6c2,8,3.8,16.1,5.6,24.2c2.2,9.8,4.7,19.5,6.2,29.3c0.9,5.8,0.4,11.9,0.5,17.8c0,0.9,0.4,1.8,0.6,2.7
		c1.7,6.8,3.3,13.5,5,20.3c3,11.5,7,22.8,8.9,34.5c1.4,8.3,6.2,16.9,1.2,25.6c-1,1.7-2.6,4.4-3.8,4.3c-2-0.2-3.8-2.1-6.5-3.9
		c-3.8,1.4-8.8,3.3-13.9,5.2c-3.7,0-7.3,0-11,0c-2.2-2.9-5.6-5.3-3.2-9.8c0.3-0.5-0.5-2.1-1.2-2.6c-3.3-2.1-2.4-5.3-2.6-8.4
		c-0.8-10.2-1.5-20.4-2.7-30.6c-1.1-9.1-2.7-18.1-4.3-27.2c-0.2-1.3-1.8-3-3-3.5c-5.7-2-12-1.1-17.5-2.1c-5.3-1-10.4,2.2-15.7-0.7
		c-2.6-1.4-6.9,0.5-10.5,0.6c-5.7,0.2-11.4-0.2-17.1,0.1c-7.4,0.4-14.9,1.2-22.3,1.9c-5,0.5-10,1.8-15,1.8c-5.5,0-11.1-1.6-16.5-1.4
		c-11.1,0.5-22.1,1.9-33.1,2.5c-11.7,0.6-23.5,0.8-35.3,1.1c-6,0.1-12-0.1-17.9,0c-10.5,0.2-20.9,0.8-31.4,1
		c-8.7,0.2-17.4-0.1-26.1,0.1c-9.2,0.2-10.4,1.2-12.7,10.1c-0.7,2.6-1.2,5.1-1.8,7.7c-2.9,11.8-5.9,23.5-8.7,35.3
		c-2.2,9.3-4.7,12.5-16,9.8C2,808.6,2,806.2,2,803.9z M37.8,731.3c1.4,0,2.5,0,3.7,0c6.8,0.1,13.6,0.1,20.4,0.3
		c8.8,0.2,17.5,0.5,26.3,0.6c5.6,0.1,11.2-0.4,16.8-0.2c10.6,0.4,21.1,1.7,31.6,1.5c12.6-0.1,25.2-1.4,37.9-2.1
		c16.7-0.9,33.4-1.6,50.1-2.3c22.9-1,45.8-1.8,68.6-2.8c1.9-0.1,3.7-0.7,5.2-1c-1.9-13.6-3.6-26.6-5.6-39.5
		c-1.5-9.6-3.3-19.1-4.9-28.6c-1.3-7.7-2.7-15.3-3.8-23c-0.4-2.6,0-5.4-0.6-8c-1-4.6-2.8-9-3.7-13.7c-1.8-9.5-3-19.1-4.8-28.7
		c-1.9-10.2-4.2-20.4-6.3-30.6c-0.7-3.5-0.8-7.1-1.6-10.6c-1.2-5.1-3.2-10.1-4.3-15.2c-3.1-14.1-6-28.2-8.7-42.3
		c-2.9-14.7-5.6-29.4-8.2-44.2c-2.4-13.3-4.3-26.7-6.8-40c-1.8-9.5-4.3-18.9-6.1-28.4c-1.5-8-2.2-16.3-3.8-24.3
		c-4.2-21.4-8.9-42.7-13.1-64.1c-2.6-12.9-4.9-25.9-7.2-38.9c-3-16.4-5.8-32.9-8.9-49.3c-2.5-13.1-5.6-26.1-7.9-39.3
		c-2.2-12.5-3.6-25.2-5.3-37.8c-2.4,7.6-4.1,15.1-5.8,22.7c-2.6,11.7-5.2,23.4-7.7,35.2c-2.7,13.2-5.1,26.5-7.9,39.8
		c-3.4,16.2-7,32.3-10.6,48.5c-4.9,21.9-9.8,43.9-15.1,65.8c-3.2,13.3-7.1,26.5-10.7,39.7c-3.8,13.7-7.7,27.4-11.4,41.1
		c-3.7,13.5-7.2,27.1-10.7,40.7C103,468.4,99,484.6,95,500.8c-3.2,13.2-6.2,26.5-9.6,39.7c-2.5,9.7-5.8,19.3-8.3,29
		c-5.4,20.7-10.5,41.5-15.8,62.3c-2.4,9.6-5,19.2-7.2,28.8c-3.4,15-6.5,30-9.9,45C42.3,714.1,40,722.5,37.8,731.3z M201.5,49.6
		c-0.5,0-1.1,0-1.6,0c-1,4.8-2,9.7-2.9,14.5c-0.6,3.2-1.1,6.5-1.7,9.7c-0.5,2.7-2,5.6-1.6,8.1c1.5,9.9,3.8,19.6,5.2,29.5
		c2.7,18.3,4.9,36.7,7.4,55c0.4,3.2,0.8,6.5,1.5,9.7c1.6,7.9,3.6,15.7,5.1,23.7c2.7,14.2,5.1,28.5,7.8,42.8
		c2.3,11.9,4.8,23.8,7.1,35.7c2.3,12,4.4,24,6.7,36c1.3,6.9,3,13.8,4.2,20.7c1.8,9.9,3.3,19.8,5,29.7c0.7,4.3,1.6,8.6,2.5,13
		c1.2,6,2.5,12.1,3.7,18.1c2.4,11.5,4.1,23.2,7.5,34.4c1,3.3,1.6,5.8,0.6,8.9c-0.3,1,0.1,2.2,0.3,3.3c0.5,3.1,1.1,6.1,1.5,9.2
		c1,8.2,1.8,16.5,3,24.7c0.4,2.4,2.3,4.5,2.9,6.8c2.4,10.9,4.5,21.9,6.7,32.9c0.5,2.7,0.7,5.5,1.3,8.3c2.1,8.8,4.5,17.5,6.4,26.3
		c1.3,6.1,1.3,12.5,2.5,18.7c1.8,9.3,4.4,18.5,6.3,27.9c1.8,8.7,3.1,17.5,4.7,26.2c2.2,12,4.5,23.9,6.6,35.9
		c2.6,14.5,5,29.1,7.5,43.7c1.4,8.6,2.9,17.2,4.2,25.8c1.9,12.6,3.8,25.1,5.7,37.7c1.7,11.2,3.7,22.5,5.2,33.7
		c0.5,3.6-0.4,7.5-0.8,12.4c6-0.8,12.3-1.7,18.9-2.7c-0.5-4.5-0.6-8.7-1.5-12.6c-2.8-13.3-5.9-26.6-8.8-40c-1-4.5-1.4-9-2.3-13.5
		c-2.4-12.2-4.9-24.3-7.4-36.5c-1.8-9-3.5-18.1-5.4-27.1c-1.4-6.7-3.1-13.3-4.4-20c-0.8-4.1-1-8.3-2-12.4c-1.9-8.6-4.6-17-6.2-25.6
		c-1.5-8.1-1.6-16.4-3-24.5c-1.7-9.8-4.3-19.5-6.3-29.2c-1.4-6.9-2.6-13.9-3.3-21c-0.8-7.9-4.1-16.1-4.7-24.4
		c-0.2-2.6,1.1-6.1-0.1-7.7c-3.4-4.3-1.1-6.4,2-8.7c0.3-0.3,0.2-1.2,0.3-1.8c-0.4,0.4-0.7,0.7-1.1,1.1c-1.6-1.2-3.7-2.1-4.8-3.6
		c-1.1-1.7-1.6-4-1.9-6.1c-2.1-15-3.8-30.1-6.3-45c-2.6-15.7-6-31.3-9.1-47c-2.2-11.3-4.7-22.6-6.8-33.9c-1.5-8.1-2.5-16.3-3.9-24.4
		c-2-11.5-4.2-22.9-6.1-34.4c-2.4-14.3-4.4-28.6-6.8-42.9c-1.6-9.4-3.5-18.8-5.3-28.2c-2.6-13.7-5.2-27.4-7.9-41.1
		c-2.5-12.8-5.5-25.4-7.6-38.3c-3.5-21.1-6.3-42.2-9.7-63.3c-2.4-14.9-5.2-29.6-7.9-44.4C202.7,52.1,202,50.9,201.5,49.6z"/>
	<path class="st0" d="M2,810.9c11.3,2.6,13.8-0.5,16-9.8c2.8-11.8,5.8-23.5,8.7-35.3c0.6-2.6,1.2-5.1,1.8-7.7
		c2.3-8.8,3.5-9.9,12.7-10.1c8.7-0.2,17.4,0.1,26.1-0.1c10.5-0.2,20.9-0.7,31.4-1c6-0.1,12,0.1,17.9,0c11.8-0.3,23.5-0.4,35.3-1.1
		c11.1-0.6,22.1-2.1,33.1-2.5c5.5-0.2,11,1.4,16.5,1.4c5,0,10-1.3,15-1.8c7.4-0.7,14.9-1.5,22.3-1.9c5.7-0.3,11.4,0,17.1-0.1
		c3.6-0.1,7.9-2,10.5-0.6c5.3,2.9,10.4-0.3,15.7,0.7c5.5,1,11.8,0.1,17.5,2.1c1.3,0.5,2.8,2.1,3,3.5c1.6,9,3.3,18.1,4.3,27.2
		c1.2,10.2,1.9,20.4,2.7,30.6c0.2,3-0.7,6.3,2.6,8.4c0.7,0.4,1.5,2,1.2,2.6c-2.4,4.5,1,6.9,3.2,9.8c-105,0-210,0-315,0
		C2,820.2,2,815.6,2,810.9z"/>
	<path d="M1058.9,730.9c-2.6,4.6-6.2,5.8-12.2,5.1c-4.5-0.5-9.1-0.2-13.6-0.2c-7.7,0-15.4,0.1-23.1,0c-9.4-0.2-18.8-0.8-28.3-0.9
		c-11.4-0.2-22.9,0-34.4,0c-9,0-18.1,0.2-27.1-0.1c-4.2-0.1-4.7,1.8-4.3,5.2c1.5,12.6,2.7,25.1,1.2,37.8c-0.8,6.2-0.1,12.7,1,18.9
		c0.9,5,6.1,3.5,9.5,4.1c4.1,0.7,8.4,0.3,12.6,0.1c8.2-0.5,16.4-1.3,24.6-1.8c7.5-0.5,15-1.1,22.5-1c16.4,0.1,32.9,0.6,49.3,1
		c5.1,0.1,10,5.7,9.2,10.4c-0.8,4.7-5.8,7.5-11.1,6.3c-4.7-1.1-9.4-2.6-14.1-3.4c-3.8-0.6-7.7-0.4-11.5-0.4
		c-15.3,0.1-30.6,0.1-45.8,0.6c-8.9,0.3-17.7,1.7-26.6,2.3c-6.5,0.4-13.1,0.2-19.7,0.1c-7.8-0.2-15.6-0.7-23.5-0.8
		c-3.5,0-6.9,0.6-10.4,0.8c-4.5,0.3-6.9-2.4-7.3-6.3c-1.8-16.7-1.3-33.5-0.1-50.2c0.3-4.4-0.7-8.8-0.7-13.2
		c0.1-13.9,0.6-27.8,0.6-41.8c0-11.7-0.5-23.4-0.8-35.1c-0.3-11.5-0.8-23-0.7-34.4c0.1-9.4,0.9-18.8,1.3-28.2
		c0.1-1.9-0.5-3.8-0.6-5.8c-0.4-9.2-0.9-18.3-0.9-27.5c0-6.2,0.8-12.4,0.9-18.5c0.2-12.3-0.1-24.7,0.1-37c0.1-4.6,0.5-9.2,1.1-13.7
		c0.6-4.3,4-6.2,11-6.2c7.5-0.1,15.1,0.1,22.6,0c11-0.2,22.1-0.6,33.1-0.9c12.7-0.4,25.4-0.9,38.2-1c6.4,0,12.7,0.4,18.9-2
		c1-0.4,2.3-0.1,3.5-0.1c6.7-0.2,13.3-0.7,20-0.7c4.8,0,9.9-0.5,14.1,1.1c2,0.8,2.9,6,3.3,9.3c0.4,3.3-2.7,4.3-5.5,4.2
		c-7-0.2-14-1-20.9-0.9c-10,0.3-20,1.3-30,1.9c-8.8,0.5-17.6,0.6-26.4,1c-12.3,0.6-24.6,1.4-36.9,1.8c-3.7,0.1-5,2.2-5.1,5.3
		c-0.3,5.9-0.1,11.8-0.4,17.7c-0.2,4.3-0.4,8.6-1,12.8c-0.6,4.1-2.1,8.1-2.2,12.1c-0.1,2.3,2.1,4.6,2.4,7c0.4,3.7,0.1,7.5,0.1,11.3
		c0,11.3-0.1,22.5,0,33.8c0.2,10.9,0.9,21.8,0.9,32.7c0,9.8-0.9,19.6-0.9,29.4c0,12.6,0.6,25.3,0.9,37.9c0.2,8.9,0.1,8.9,9.2,9.1
		c11.9,0.3,23.7,0.7,35.6,0.9c7.7,0.1,15.9-1.6,23.1,0.5c7.6,2.2,14.9,0.4,22.2,1.8c2.6,0.5,5.4-0.2,8.2-0.3c9.3-0.3,18.6-0.6,28-1
		c3.1-0.1,6.1-0.1,9.2-0.4c4.1-0.3,6,2.3,7.7,5.3C1058.9,728.2,1058.9,729.6,1058.9,730.9z M904.6,799c-0.6-7.7-1.5-14.4-1.6-21.2
		c0-12,0.8-24.1,0.8-36.1c-0.1-16.2-0.8-32.4-0.9-48.6c-0.1-19.9,0.1-39.8,0-59.7c0-9.9-0.2-19.8-0.3-29.7c0-5.6,0.2-11.2,0.1-16.8
		c-0.2-9.4-0.5-18.9-0.8-28.3c-0.3-9-0.8-17.9-1-26.8c-0.2-6.2,0-12.3,0-18.5c-12.9,0-12.5-0.8-12.3,11.6
		c0.2,10.3-0.5,20.6-0.9,30.9c-0.5,14.8-1.5,29.6-1.6,44.4c0,13.7,1.2,27.3,1.5,41c0.3,12.9,0.2,25.8,0.2,38.7
		c0,13.4,0.1,26.8,0.1,40.2c0,5.7-0.1,11.4,0,17.1c0.1,5.7,0.5,11.4,0.9,17.1c0.2,3.5,0.9,7,0.9,10.5c0.1,10.9,0,21.8,0,32.7
		C894.7,798.1,899.1,798.5,904.6,799z"/>
	<path d="M791.9,631.4c0-11.3,0.1-21.6,0-31.8c-0.2-14.3-0.8-28.7-1-43c-0.2-15-0.2-30,0.1-45c0.1-4,1.3-8,2.2-12
		c0.1-0.5,0.8-1.3,1.3-1.3c6.8-0.5,13.6-1.7,20.3-1.1c6.1,0.5,10.7,7.9,10.8,13.9c0.1,7.1,1.1,14.3,1,21.4
		c-0.2,9.3-1.2,18.6-1.6,27.9c-0.2,3.8,0.3,7.6,0.2,11.4c-0.3,12.5-0.7,24.9-1,37.4c-0.1,4.3-1.2,8.9,0,12.9
		c1.9,6.6-0.9,12.2-1.5,18.3c-0.2,2.2,0.9,4.4,1.1,6.7c0.3,2.8,0.2,5.6,0.3,8.4c0.2,8.6,0.5,17.2,0.5,25.9c0.1,19.5,0,39,0.3,58.5
		c0.1,10.1-0.1,20.2,0.7,30.4c0.8,10.1-0.3,20.3-0.9,30.4c-0.2,3.4-1,6.9-2.4,9.9c-0.8,1.7-3.9,3.6-5.3,3.3
		c-2.4-0.6-4.2-3.1-6.1-4.6c-5.4,0.3-11.3,0.7-17.1,0.8c-3,0.1-4.1-1.8-4.1-4.8c0.2-10-0.1-20.1,0.3-30.1
		c0.4-10.5,1.5-21.1,2.2-31.6c0.1-1.9-0.5-3.8-0.5-5.8c-0.3-10.8-0.6-21.6-0.6-32.4c0-12.3,0.1-24.5,0.7-36.8
		c0.6-12.5-3.2-22.7-13.2-30.6c-2.4-1.9-4-4.8-6.1-7.1c-3.5-3.6-7.3-7-10.8-10.6c-1.5-1.6-2.4-3.9-3.9-5.5c-1.6-1.7-3.8-2.8-5.4-4.4
		c-3.2-3.2-6.1-6.6-9.3-9.8c-7-7.1-14.1-14.2-21.1-21.3c-6.1-6.3-12.1-12.7-18.4-18.8c-4-3.9-8.4-7.5-12.6-11.2
		c-4.3-3.8-8.6-7.6-12.9-11.4c-2.8-2.5-5.5-5-9.5-7c0.5,3.3,1.3,6.7,1.3,10c0,5.8-0.7,11.6-0.8,17.4c-0.1,8.9,0.2,17.9-0.1,26.8
		c-0.4,12.6-1.4,25.2-1.8,37.8c-0.2,5.2,0.6,10.4,0.8,15.6c0.4,7.2,0.9,14.4,0.9,21.5c0,10.2-0.7,20.3-0.7,30.5c0,3,1.1,6,1.4,9
		c0.2,1.5-0.5,3.2-0.5,4.7c0,5.9,0.2,11.8,0.1,17.6c-0.1,3-0.8,6-0.9,8.9c0,2.9,0.5,5.8,0.7,8.7c0.4,6.6,0.7,13.3,1,19.9
		c0.8,14.7,1.4,29.4,2.3,44.1c0.3,4.4-1.8,7.8-5,9.1c-2.2,0.9-5.6-1.3-9.3-2.4c-7.6,1.4-16.5,1.8-25.2-0.4c-1.7-0.4-3.8-4.5-3.6-6.7
		c1.2-11.9,3.5-23.7,4.6-35.6c0.6-6.3-0.7-12.7-0.7-19.1c0-6.5,0.7-12.9,0.6-19.4c-0.1-6.8-0.8-13.5-1-20.2
		c-0.1-2.9,0.3-5.8,0.2-8.6c-0.3-9.8-0.7-19.5-1-29.3c-0.1-2.8,0.1-5.5,0.1-8.3c0-13.2,0-26.4-0.1-39.7c-0.1-5.8-1-11.6-0.8-17.3
		c0.4-12.2,1.3-24.4,1.7-36.6c0.1-3.8-0.6-7.7-0.8-11.5c-0.2-3-0.2-6.1-0.3-9.2c-0.2-7.7-0.5-15.4-0.7-23c-0.1-4.7,0-9.3,0-14
		c0-8.2,5.1-12.3,13.1-10.7c5.1,1.1,10.1,2.3,15.5,0c3.3-1.5,7.7,1.6,8.3,5.3c0.9,5.6,5.1,8.6,8.2,12.6c3,3.8,6.9,5.9,10.2,9
		c5.8,5.4,11,11.3,16.4,17.1c4,4.3,7.5,9,11.6,13.1c3.2,3.1,6.1,6,8.3,10.1c2.1,3.8,7,6.2,10.6,9.2c1.6,1.3,3.2,2.5,4.7,3.9
		c7.2,6.9,14.5,13.7,21.6,20.7c6.1,6,12,12.2,18.2,18.1C782,623.2,786.5,626.8,791.9,631.4z M657,797.6c0-10,0-19.9,0-29.9
		c0-6.3,0-12.5,0-18.8c-0.1-12.3-0.2-24.7-0.2-37c0-9.5,0.4-19,0.3-28.5c-0.1-9.6-0.8-19.2-1-28.8c-0.1-7.1,0.6-14.1,0.5-21.2
		c-0.1-18.5-0.4-37-0.6-55.4c-0.1-12.7-0.1-25.3-0.4-38c-0.2-6.6-1.2-13.1-1.5-19.7c-0.1-3,0.2-6-3.7-6.3c-3.6-0.3-6.2,1.5-6.3,5.3
		c-0.4,10.4-0.5,20.8-0.8,31.1c-0.4,13.8-0.7,27.6-1.1,41.5c-0.3,10.4-0.7,20.7-0.8,31.1c-0.1,6.7,0.5,13.5,0.6,20.2
		c0.1,7.7-0.4,15.4,0,23.1c0.5,11.2,1.6,22.4,2.1,33.6c0.6,14.8,1.1,29.5,1.1,44.3c0.1,12-0.6,24.1-0.9,36.1c-0.1,5.7,0,11.3,0,16.6
		C648.9,797.2,652.7,797.4,657,797.6z M809.7,797.2c0.7-4.1,1.7-7.7,1.7-11.3c0.3-16.2,0.4-32.4,0.6-48.6
		c0.2-16.8,0.7-33.7,0.7-50.5c0-15.7-0.5-31.4-0.7-47.1c-0.1-13.7-0.2-27.4-0.1-41.1c0.1-19.9,0.4-39.8,0.3-59.6
		c0-9.3-0.8-18.6-1.2-28.2c-4.9,0.5-4.9,3.6-4.9,6.5c-0.1,11.2,0.2,22.4-0.1,33.6c-0.4,16.4-1.4,32.8-1.9,49.2
		c-0.3,9.4,0.1,18.9-0.1,28.3c0,3.5-1,6.9-0.9,10.3c0.1,10.8,0.6,21.6,0.7,32.4c0.1,13.4-0.1,26.9,0,40.3
		c0.1,26.2,0.5,52.4,0.5,78.6C804.1,794.1,805.6,795.8,809.7,797.2z"/>
	<path d="M392.6,502.2c6.5,0.8,13.4,0.7,19.5,2.7c6.4,2.1,7.9,7.4,6,13.8c-0.2,0.8-0.1,1.7-0.1,2.5c0,18.3,0.1,36.7,0,55
		c-0.1,10.2-0.7,20.4-0.8,30.7c0,8.4,0.7,16.7,0.7,25.1c0,7.8-0.7,15.6-0.7,23.4c0,4.1,1.2,8.1,1.5,12.2c0.2,2.2-0.6,4.5-0.7,6.7
		c-0.4,12.2-1.1,24.5-0.9,36.7c0.1,7.6,1.8,15.2,2.5,22.8c0.4,3.6,0.2,7.3,0.3,11c0.3,13.3,0.6,26.6,1,39.9c0.1,4.3,0.9,8.6,0.9,13
		c0.1,5.6,3.4,10.3,10.4,9.2c4.7-0.7,9.6-0.9,14.4-1c14-0.4,27.9-0.5,41.9-1c9.3-0.4,18.5-1.5,27.7-1.9c3.3-0.1,7,0.5,9.8,2.1
		c3.2,1.8,3.8,8.5,0.5,11.7c-2.4,2.2-7.2,3.5-10.4,2.8c-12.1-2.9-24-1.6-36.1-0.6c-8.8,0.8-17.7-0.1-26.5,0.3
		c-8.1,0.4-16.1,1.5-24.1,2.3c-1.5,0.1-3,0.2-4.5,0.3c-10.9,0.6-21.8,1.5-32.7,1.6c-4.4,0.1-9.6,0-12.5-4.3c-2-3-4.3-6.5-4.6-10
		c-0.7-7.1-0.3-14.3-0.3-21.5c0-4.5,0.3-9,0.6-13.6c0.4-8.2,1-16.4,1.3-24.6c0.4-8.2,0.5-16.3,1-24.5c0.4-6.2,1.3-12.5,1.7-18.7
		c0.2-3.5-0.6-7.1-0.6-10.7c0.1-4.6,0.6-9.2,0.8-13.8c0-1.3-0.4-2.6-0.7-3.8c-0.2-1-1-1.9-0.9-2.8c0-6,0.3-11.9,0.3-17.9
		c0-6.1-0.3-12.2-0.4-18.4c0-1.6,0.4-3.3,0.4-4.9c0.2-12.2,0.3-24.4,0.6-36.6c0.1-2.6,0.8-5.2,0.8-7.8c-0.2-9.3-0.7-18.6-0.9-27.9
		c-0.2-7.1,0-14.2,0-21.3c0-4.5-0.5-9.1,0.1-13.6c0.9-6.3,2.3-12.7,4.3-18.7C384.6,504.4,387.7,501.6,392.6,502.2z M405.1,517
		c-3-0.2-6.4-1.2-9.2-0.4c-5,1.3-1.6,5.6-1.8,8.5c-0.9,10.1-1.8,20.2-2,30.4c-0.3,14.4,0,28.8,0,43.1c0,3.6-0.2,7.1-0.5,10.7
		c-0.7,8.9-2,17.8-2,26.6c0.1,19,1.2,37.9,1.2,56.9c0,15.9-1.1,31.7-1.7,47.6c-0.2,4.7,0,9.3-0.2,14c-0.5,16-1.1,32-1.5,48.1
		c-0.1,2.6,1,4.9,4.5,4.6c4.9-0.4,9.8-0.6,15.5-1c-0.4-9-0.8-17.4-1.3-25.8c-0.2-4.3-2.5-10.1-0.5-12.6c4.6-5.8,1.5-11.8,2-17.4
		c0.8-8.6-1.3-17.4-1.4-26.1c-0.3-18.4-0.2-36.8-0.2-55.2c0-7.1,0.1-14.2,0-21.3c-0.1-4.3-0.9-8.6-0.8-12.9
		c0.4-21.7,1.4-43.5,1.4-65.2C406.6,552.1,405.6,534.8,405.1,517z"/>
	<path d="M551.2,792.6c-0.4-7.5-1.1-15-1.2-22.5c-0.2-15,0.2-30-0.1-44.9c-0.2-11.2-1.4-22.5-1.9-33.7c-0.3-8.1,0-16.3-0.3-24.4
		c-0.4-10.2-1-20.4-1.8-30.6c-0.4-5.9-1.7-11.7-1.8-17.5c-0.1-7.7,0.7-15.3,0.8-23c0.1-9.4,0-18.7-0.1-28.1
		c-0.1-9.9-0.5-19.8-0.6-29.8c-0.1-8.3-0.2-16.5-0.2-24.8c0-4.1,7.7-10.7,11.8-10.3c5.6,0.4,11.2,0.8,16.8,1c7,0.2,9.9,3,9.3,10.3
		c-0.4,5.2-1.5,10.3-2,15.5c-0.2,2,0.9,4.1,0.9,6.1c0.2,8.5,0.2,16.8,1.8,25.3c1.2,6.5-0.6,13.5-0.6,20.3c0.1,9.3-0.4,18.7,1.3,27.7
		c1.4,7.5-0.9,14.6-0.3,21.9c0.5,5.9,1.3,11.8,1.9,17.7c0.2,2.7,0,5.4,0,8.1c0,5.2,0.1,10.4,0.2,15.6c0.3,13.5,0.6,26.9,0.8,40.4
		c0.1,4.4,0.2,8.8,0.1,13.2c-0.2,11.4-0.8,22.7-0.8,34.1c0,7.3,1.2,14.6,1.5,21.9c0.3,7.7,0.6,15.5,0,23.1c-0.2,2.3-3,4.7-5.1,6.4
		c-1.9,1.5-4.6,2.8-7,3c-6.3,0.4-12.7,0.7-18.9-0.1c-1.5-0.2-3-4.7-3.5-7.5c-0.8-4.7-0.8-9.5-1.1-14.3
		C551.1,792.6,551.1,792.6,551.2,792.6z M567,518.1c-8.8-0.1-9.9,0.8-9.9,8.8c-0.2,16,0,31.9-0.2,47.9c-0.1,14.9-0.7,29.7-0.7,44.6
		c0,9.3,0.9,18.7,1.3,28c0.1,3.1-0.2,6.3,0.2,9.4c0.6,5.7,1.9,11.3,2.2,17c0.5,10.7,0.3,21.4,0.7,32.1c0.7,19.7,1.5,39.4,2.5,59.1
		c0.6,11.6,1.7,23.1,3,34.6c0.1,1.3,3,2.2,4.5,3.3c0.6-1.2,1.8-2.5,1.8-3.8c0.3-9.4,0.4-18.7,0.7-28.1c0.6-17,1.5-33.9,1.8-50.8
		c0.2-8.3-0.7-16.7-1-25c-0.4-12.4-0.5-24.8-1-37.2c-0.4-11.2-1.2-22.3-1.8-33.5c0-0.8,0.2-1.7,0.1-2.5c0-4.5,0-9-0.2-13.5
		c-0.2-4.6-0.7-9.2-0.8-13.8c-0.1-8.5,0.1-17-0.2-25.5c-0.1-4.1-1.1-8.2-1.3-12.3C568.1,543.9,567.6,531.2,567,518.1z"/>
	<path class="st0" d="M37.8,731.3c2.2-8.8,4.4-17.2,6.4-25.7c3.4-15,6.5-30,9.9-45c2.2-9.7,4.8-19.2,7.2-28.8
		c5.2-20.8,10.4-41.5,15.8-62.3c2.5-9.7,5.8-19.3,8.3-29c3.4-13.2,6.4-26.5,9.6-39.7c4-16.2,8-32.4,12.1-48.5
		c3.5-13.6,7-27.1,10.7-40.7c3.7-13.7,7.6-27.4,11.4-41.1c3.6-13.2,7.5-26.4,10.7-39.7c5.3-21.9,10.1-43.8,15.1-65.8
		c3.6-16.1,7.2-32.3,10.6-48.5c2.8-13.2,5.1-26.5,7.9-39.8c2.4-11.8,5.1-23.5,7.7-35.2c1.7-7.6,3.4-15.1,5.8-22.7
		c1.7,12.6,3.1,25.3,5.3,37.8c2.3,13.2,5.4,26.2,7.9,39.3c3.1,16.4,5.9,32.9,8.9,49.3c2.4,13,4.6,26,7.2,38.9
		c4.3,21.4,8.9,42.7,13.1,64.1c1.6,8,2.2,16.3,3.8,24.3c1.8,9.5,4.3,18.9,6.1,28.4c2.5,13.3,4.4,26.7,6.8,40
		c2.6,14.7,5.3,29.5,8.2,44.2c2.8,14.1,5.7,28.2,8.7,42.3c1.1,5.1,3.1,10.1,4.3,15.2c0.8,3.5,0.9,7.1,1.6,10.6
		c2,10.2,4.4,20.3,6.3,30.6c1.8,9.5,3,19.1,4.8,28.7c0.9,4.6,2.7,9.1,3.7,13.7c0.6,2.6,0.2,5.4,0.6,8c1.2,7.7,2.5,15.3,3.8,23
		c1.6,9.5,3.5,19.1,4.9,28.6c2,12.9,3.7,25.8,5.6,39.5c-1.5,0.3-3.3,0.9-5.2,1c-22.9,1-45.8,1.9-68.6,2.8
		c-16.7,0.7-33.4,1.5-50.1,2.3c-12.6,0.6-25.2,1.9-37.9,2.1c-10.5,0.1-21.1-1.1-31.6-1.5c-5.6-0.2-11.2,0.3-16.8,0.2
		c-8.8-0.1-17.5-0.4-26.3-0.6c-6.8-0.1-13.6-0.2-20.4-0.3C40.4,731.2,39.3,731.3,37.8,731.3z"/>
	<path class="st0" d="M201.5,49.6c0.5,1.3,1.1,2.5,1.4,3.8c2.7,14.8,5.5,29.6,7.9,44.4c3.4,21.1,6.2,42.2,9.7,63.3
		c2.1,12.8,5.1,25.5,7.6,38.3c2.7,13.7,5.3,27.4,7.9,41.1c1.8,9.4,3.7,18.7,5.3,28.2c2.4,14.3,4.4,28.6,6.8,42.9
		c1.9,11.5,4.1,22.9,6.1,34.4c1.4,8.1,2.4,16.3,3.9,24.4c2.1,11.3,4.5,22.6,6.8,33.9c3.1,15.6,6.5,31.2,9.1,47
		c2.5,14.9,4.2,30,6.3,45c0.3,2.1,0.7,4.4,1.9,6.1c1.1,1.6,3.2,2.5,4.8,3.6c0.4-0.4,0.7-0.7,1.1-1.1c-0.1,0.6,0.1,1.5-0.3,1.8
		c-3.1,2.4-5.4,4.4-2,8.7c1.3,1.6-0.1,5.1,0.1,7.7c0.6,8.4,3.9,16.5,4.7,24.4c0.7,7.1,1.9,14.1,3.3,21c2,9.8,4.6,19.4,6.3,29.2
		c1.4,8.1,1.5,16.4,3,24.5c1.6,8.6,4.2,17,6.2,25.6c0.9,4.1,1.1,8.3,2,12.4c1.4,6.7,3.1,13.3,4.4,20c1.9,9,3.6,18,5.4,27.1
		c2.4,12.2,5,24.3,7.4,36.5c0.9,4.5,1.3,9,2.3,13.5c2.9,13.3,6,26.6,8.8,40c0.8,4,1,8.1,1.5,12.6c-6.6,0.9-12.9,1.8-18.9,2.7
		c0.3-5,1.2-8.8,0.8-12.4c-1.5-11.3-3.5-22.5-5.2-33.7c-1.9-12.6-3.8-25.1-5.7-37.7c-1.3-8.6-2.7-17.2-4.2-25.8
		c-2.5-14.6-4.9-29.1-7.5-43.7c-2.1-12-4.4-23.9-6.6-35.9c-1.6-8.7-2.9-17.5-4.7-26.2c-1.9-9.3-4.5-18.5-6.3-27.9
		c-1.2-6.2-1.3-12.5-2.5-18.7c-1.8-8.8-4.3-17.5-6.4-26.3c-0.6-2.7-0.8-5.5-1.3-8.3c-2.2-11-4.3-22-6.7-32.9
		c-0.5-2.4-2.5-4.5-2.9-6.8c-1.2-8.2-2-16.5-3-24.7c-0.4-3.1-1-6.1-1.5-9.2c-0.2-1.1-0.6-2.3-0.3-3.3c0.9-3.1,0.4-5.6-0.6-8.9
		c-3.4-11.2-5.1-22.9-7.5-34.4c-1.2-6-2.5-12.1-3.7-18.1c-0.9-4.3-1.7-8.6-2.5-13c-1.7-9.9-3.2-19.8-5-29.7
		c-1.3-6.9-2.9-13.8-4.2-20.7c-2.3-12-4.4-24-6.7-36c-2.3-11.9-4.9-23.8-7.1-35.7c-2.7-14.2-5.1-28.5-7.8-42.8
		c-1.5-7.9-3.5-15.8-5.1-23.7c-0.7-3.2-1.1-6.5-1.5-9.7c-2.5-18.3-4.7-36.7-7.4-55c-1.4-9.9-3.8-19.6-5.2-29.5
		c-0.4-2.6,1.1-5.4,1.6-8.1c0.6-3.2,1.1-6.5,1.7-9.7c0.9-4.8,1.9-9.7,2.9-14.5C200.4,49.6,201,49.6,201.5,49.6z"/>
	<path class="st0" d="M904.6,799c-5.5-0.5-9.9-0.9-14.7-1.4c0-10.9,0.1-21.8,0-32.7c0-3.5-0.7-7-0.9-10.5
		c-0.4-5.7-0.8-11.4-0.9-17.1c-0.1-5.7,0-11.4,0-17.1c0-13.4-0.1-26.8-0.1-40.2c0-12.9,0.1-25.8-0.2-38.7c-0.3-13.7-1.5-27.4-1.5-41
		c0-14.8,1-29.6,1.6-44.4c0.4-10.3,1.1-20.6,0.9-30.9c-0.2-12.4-0.7-11.6,12.3-11.6c0,6.2-0.1,12.4,0,18.5c0.2,9,0.7,17.9,1,26.8
		c0.3,9.4,0.6,18.9,0.8,28.3c0.1,5.6-0.1,11.2-0.1,16.8c0.1,9.9,0.3,19.8,0.3,29.7c0,19.9-0.2,39.8,0,59.7
		c0.1,16.2,0.8,32.4,0.9,48.6c0,12-0.8,24.1-0.8,36.1C903.1,784.6,904,791.3,904.6,799z"/>
	<path class="st0" d="M657,797.6c-4.3-0.2-8.2-0.4-12.9-0.6c0-5.3-0.1-10.9,0-16.6c0.3-12,0.9-24.1,0.9-36.1
		c-0.1-14.8-0.5-29.6-1.1-44.3c-0.5-11.2-1.6-22.4-2.1-33.6c-0.3-7.7,0.1-15.4,0-23.1c-0.1-6.8-0.6-13.5-0.6-20.2
		c0.1-10.4,0.5-20.7,0.8-31.1c0.4-13.8,0.7-27.6,1.1-41.5c0.3-10.4,0.4-20.8,0.8-31.1c0.1-3.8,2.6-5.6,6.3-5.3
		c4,0.3,3.6,3.3,3.7,6.3c0.3,6.6,1.4,13.1,1.5,19.7c0.4,12.7,0.3,25.3,0.4,38c0.2,18.5,0.5,37,0.6,55.4c0,7.1-0.6,14.1-0.5,21.2
		c0.1,9.6,0.9,19.2,1,28.8c0.1,9.5-0.3,19-0.3,28.5c0,12.3,0.2,24.7,0.2,37c0,6.3,0,12.5,0,18.8C657.1,777.6,657,787.6,657,797.6z"
		/>
	<path class="st0" d="M809.7,797.2c-4-1.4-5.6-3.1-5.6-7.1c0-26.2-0.3-52.4-0.5-78.6c-0.1-13.4,0.1-26.9,0-40.3
		c-0.1-10.8-0.6-21.6-0.7-32.4c0-3.4,0.9-6.9,0.9-10.3c0.1-9.4-0.2-18.9,0.1-28.3c0.5-16.4,1.4-32.8,1.9-49.2
		c0.3-11.2,0-22.4,0.1-33.6c0-2.9,0-6,4.9-6.5c0.4,9.5,1.2,18.9,1.2,28.2c0.1,19.9-0.2,39.8-0.3,59.6c0,13.7,0,27.4,0.1,41.1
		c0.2,15.7,0.7,31.4,0.7,47.1c0,16.8-0.5,33.7-0.7,50.5c-0.2,16.2-0.2,32.4-0.6,48.6C811.3,789.5,810.3,793.1,809.7,797.2z"/>
	<path class="st0" d="M405.1,517c0.5,17.8,1.5,35.1,1.5,52.4c-0.1,21.7-1,43.5-1.4,65.2c-0.1,4.3,0.7,8.6,0.8,12.9
		c0.1,7.1,0,14.2,0,21.3c0,18.4-0.1,36.8,0.2,55.2c0.1,8.7,2.2,17.6,1.4,26.1c-0.5,5.6,2.6,11.6-2,17.4c-2,2.5,0.3,8.3,0.5,12.6
		c0.5,8.4,0.8,16.8,1.3,25.8c-5.7,0.3-10.6,0.6-15.5,1c-3.5,0.3-4.6-1.9-4.5-4.6c0.4-16,1-32,1.5-48.1c0.1-4.7,0-9.3,0.2-14
		c0.6-15.9,1.7-31.7,1.7-47.6c0-19-1.1-37.9-1.2-56.9c0-8.9,1.3-17.8,2-26.6c0.3-3.6,0.5-7.1,0.5-10.7c0-14.4-0.3-28.8,0-43.1
		c0.2-10.1,1.1-20.3,2-30.4c0.3-2.9-3.2-7.1,1.8-8.5C398.7,515.8,402,516.8,405.1,517z"/>
	<path class="st0" d="M567,518.1c0.6,13.1,1.1,25.8,1.8,38.6c0.2,4.1,1.2,8.2,1.3,12.3c0.2,8.5,0,17,0.2,25.5
		c0.1,4.6,0.6,9.2,0.8,13.8c0.2,4.5,0.1,9,0.2,13.5c0,0.8-0.2,1.7-0.1,2.5c0.6,11.2,1.3,22.3,1.8,33.5c0.5,12.4,0.6,24.8,1,37.2
		c0.3,8.3,1.2,16.7,1,25c-0.3,17-1.2,33.9-1.8,50.8c-0.3,9.4-0.3,18.7-0.7,28.1c0,1.3-1.2,2.5-1.8,3.8c-1.6-1.1-4.4-2.1-4.5-3.3
		c-1.3-11.5-2.4-23-3-34.6c-1.1-19.7-1.8-39.4-2.5-59.1c-0.4-10.7-0.2-21.4-0.7-32.1c-0.3-5.7-1.6-11.3-2.2-17
		c-0.3-3.1,0-6.2-0.2-9.4c-0.4-9.3-1.3-18.7-1.3-28c0-14.9,0.5-29.7,0.7-44.6c0.2-16,0-31.9,0.2-47.9
		C557.1,518.9,558.2,518,567,518.1z"/>
</g>
</svg>
