<svg xmlns="http://www.w3.org/2000/svg" viewBox="0 0 469.86 156.2"><title>Asset 7</title><g id="Layer_2" data-name="Layer 2"><g id="coord"><path d="M273.24,0a27,27,0,0,0,1.94,2c.81.69.46,1.52.46,2.33a24,24,0,0,0,0,3.24q.54,4.17,1.27,8.31c.54,3.08,1.18,6.14,1.73,9.22.28,1.55.41,3.12.66,4.66.34,2,.7,4,1.11,6s.8,3.69,1.3,5.51c.45,1.64,1.05,3.25,1.54,4.88s1,3.34,1.38,5c.27,1.13.4,2.29.56,3.45.07.52.1,1.15-.56,1.27a2.54,2.54,0,0,1-1.25-.34c-.49-.2-.94-.53-1.44-.71-1.45-.5-1.28-1.9-1.69-3a5.45,5.45,0,0,1-.21-1.52c-.07-.88-.43-1.23-1.34-1.13a45.11,45.11,0,0,0-4.85.63,32.84,32.84,0,0,1-7.45.53c-1.72,0-1.76,0-2.13,1.64s-.58,3.07-.85,4.6c-.11.61-.31,1-1,1-1.78,0-2-.35-1.7-2.13.52-2.72,1-5.44,1.43-8.18.5-3.41.84-6.84,1.33-10.25.2-1.42.64-2.81.91-4.23.51-2.69,1-5.39,1.48-8.08s1.06-5.31,1.57-8c.3-1.57.53-3.14.84-4.71.06-.32.37-.58.48-.9.2-.56.32-1.15.5-1.72.5-1.56,1-3.11,1.5-4.68.36-1.23.6-2.5,1-3.73A4.84,4.84,0,0,1,272.32,0Zm.4,13.14-.55,2.09c-.51,1.93-1,3.87-1.51,5.81a5.61,5.61,0,0,1-.32,1.48,9.23,9.23,0,0,0-1.36,3.76c-.13,1.1-.35,2.19-.55,3.29a1.62,1.62,0,0,1-.25.67c-1.08,1.44-1.13,3.25-1.76,4.85a4.63,4.63,0,0,0-.35,1.66,15.46,15.46,0,0,1-.75,4.36,7.09,7.09,0,0,0-.21.78c-.28,1.6-.49,3.22-.84,4.8-.15.71,0,1,.71,1,.34,0,.68,0,1,0l7.69-.72,4.61-.45C276.6,35.5,275.65,24.33,273.64,13.14Z"/><path d="M150.1,0c1.21,1.18,2.43,2.35,3.6,3.56a10.57,10.57,0,0,1,1,1.46c.07.1.1.22.18.32.89,1.2,1.79,2.4,2.69,3.58.52.68.53,1.36,0,1.75a1.45,1.45,0,0,1-1.94-.31c-1.12-1.46-2.21-3-3.39-4.37-.69-.83-1.53-1.55-2.27-2.29-2,2.11-2.52,4.95-3.73,7.42a14.14,14.14,0,0,0-.76,3c-.48,2.06-.94,4.13-1.42,6.2s-1,4.38-1.54,6.57-1.08,4.24-1.58,6.37c-.08.32.11.7.1,1-.1,2.45-.27,4.9-.33,7.35,0,1.53,0,3.06.17,4.59s.41,3.33.53,5a11.82,11.82,0,0,0,1.5,4.48,2.72,2.72,0,0,0,2.46,1.45,10.8,10.8,0,0,0,3.43-.31,7.88,7.88,0,0,0,2.57-1.61c1.62-1.36,2.25-3.35,3.15-5.18a18.56,18.56,0,0,0,1.75-5.62c.1-.67.23-1.77-.1-2a4,4,0,0,0-2.19-.13c-1.32.11-2.64.37-4,.41a1.84,1.84,0,0,1-1.35-.71,1.36,1.36,0,0,1,.14-1.83c.19-.18.54-.4.74-.34,1.39.4,2.67-.19,4-.37a19.8,19.8,0,0,1,2-.2c.82,0,1.66.06,2.28-.65.05-.06.16-.07.25-.09a2.63,2.63,0,0,1,2.79,1.89c0,.37-.28,1.08-.49,1.1-1.41.14-1.23,1.3-1.22,2.06a19.35,19.35,0,0,1-1,5.48,7.23,7.23,0,0,1-.58,1.67A14.54,14.54,0,0,0,156,55.35a.53.53,0,0,1-.11.24c-2.16,2.45-4.36,4.85-8.07,4.61a2.65,2.65,0,0,0-1,.18c-1.49.5-2.73-.3-4.08-.68s-1.83-1.44-2.42-2.41a43.09,43.09,0,0,1-2.6-4.76,14.83,14.83,0,0,1-.92-3.47c-.26-1.45-.41-2.92-.54-4.39,0-.53.17-1.09.14-1.62-.07-1.05-.2-2.1-.36-3.14a16.1,16.1,0,0,1,0-5.61c.26-1.31.74-2.57,1.06-3.87a16.31,16.31,0,0,0,.59-3.27A20.05,20.05,0,0,1,139.32,21c.44-1.24.65-2.55,1-3.83.54-2,1.1-3.92,1.66-5.88.48-1.67.9-3.36,1.5-5a24.51,24.51,0,0,1,1.79-3.71,8.89,8.89,0,0,1,1.63-2A4.23,4.23,0,0,1,148.25,0Z"/><path d="M0,7.94c.18-.28.51-.56.53-.85A1.36,1.36,0,0,1,2,5.73C3.1,5.62,4.27,6,5.4,5.39c.25-.13.71.19,1.08.21,1.46.06,2.92.09,4.38.12a69,69,0,0,0,10-.35,2.37,2.37,0,0,1,1.06.18c1.21.45,2.4-.12,3.61,0A.73.73,0,0,0,26,5.41a1.69,1.69,0,0,1,2.36-.13,2.47,2.47,0,0,1,.75,2.5,51.22,51.22,0,0,0-1.35,6.33c-.22,2.83-1.26,5.44-1.63,8.22-.33,2.51-1.16,5-1.72,7.45A13.41,13.41,0,0,0,24,32.57a15.92,15.92,0,0,1-.92,3.83c-.58,2.27-1.05,4.56-1.5,6.86A36.83,36.83,0,0,0,20.74,49c-.07,2.23-1.05,4.15-1.62,6.21-.31,1.12-.64,2.23-1,3.32a31.78,31.78,0,0,1-1.29,3,1.7,1.7,0,0,1-1.87,1.1c-1.4-.2-2.81-.34-4.2-.59a1.75,1.75,0,0,1-1-.72A24.67,24.67,0,0,1,7.79,58c-.67-1.46-1.14-3-1.73-4.51a4.52,4.52,0,0,0-.71-1.15,2.54,2.54,0,0,1,.22-3.88C7.64,48.9,8,50.16,8.47,52a19.71,19.71,0,0,0,2.84,6.07c.88,1.25,2.85.78,3.48-.61a20.93,20.93,0,0,0,1.88-6.09c.11-.9.19-1.81.31-2.71.3-2.31.57-4.62.95-6.91s.88-4.36,1.26-6.55c.35-2,.57-4.06.95-6.07s.9-3.92,1.27-5.89.6-3.86.92-5.78.67-3.6,1-5.41c.17-1,.25-2.07.39-3.34-1.52.18-2.87.39-4.24.48-.87.05-1.76-.13-2.64-.12-1.34,0-2.68.12-4,.21-2.17.16-4.29.7-6.51.36a16.56,16.56,0,0,0-3.11.3A8.12,8.12,0,0,1,1,9.75C.64,9.67.34,9.29,0,9Z"/><path d="M469.86,27.14a7.42,7.42,0,0,1-4.05,1.27c-1.33.08-2.67,0-4.17,0,.27,2.3.56,4.67.82,7,.16,1.43.14,2.88.41,4.29.71,3.74.73,7.62,2.28,11.2.39.91.63,1.88,1,2.81a.83.83,0,0,1-.62,1.17c-.19.06-.55-.37-.8-.61s-.25-.44-.44-.56a4.38,4.38,0,0,1-1.74-2.92c-.3-1.16-.61-2.32-.81-3.5-.4-2.32-.73-4.64-1.07-7-.15-1-.28-2-.4-3q-.2-1.72-.34-3.44c-.14-1.66-.24-3.33-.39-5a.8.8,0,0,0-.29-.52,3.54,3.54,0,0,0-3.27-.31,17,17,0,0,1-3.55.61,1.09,1.09,0,0,1-1-1.75.9.9,0,0,1,.51-.42c1.62-.34,3.23-.71,4.86-.93a15.3,15.3,0,0,1,3.73-.13c2.64.3,5.22,1.11,7.93.87a6.84,6.84,0,0,1,1.43.17Z"/><path d="M360.39,6.82a3.84,3.84,0,0,0-.81-.16,54.91,54.91,0,0,0-7.87.34,36.23,36.23,0,0,1-4.21.2c-1.23,0-1.54-.38-1.53-1.6,0-.63.25-.92.91-1a3.21,3.21,0,0,0,1.44-.6A1.76,1.76,0,0,1,350,3.68a18.29,18.29,0,0,0,3.83.4c1.89,0,3.78-.1,5.67-.21a50.5,50.5,0,0,0,7.35-.63c1.59-.34,3.07.06,4.59-.1C372.2,3.06,373,3,373.78,3a6.86,6.86,0,0,1,3.29.1c1.08.41,2.41.18,3.62.28a5.29,5.29,0,0,1,1.05.29,6.56,6.56,0,0,0-.3,1.37c0,.86-.23,1.46-1.52,1.44a19.25,19.25,0,0,1-3.8-.38,16.07,16.07,0,0,0-4.56,0c-2,.12-4,.13-6.07.18h-.84c-.07,1.62-.13,3.23-.23,4.83a11.43,11.43,0,0,1-.25,1.41,3.65,3.65,0,0,0-.1.53c-.07,1.93-.15,3.87-.19,5.8,0,1.66.12,3.33,0,5a33.6,33.6,0,0,0,.39,6.31c.14,1.65.15,3.3.2,5,.07,2.46.09,4.92.21,7.37,0,.88.4,1.74.52,2.62s.1,1.78.2,2.67c.14,1.29.34,2.57.51,3.86.08.63.14,1.26.22,1.89.13,1,.27,2,.39,3a2.21,2.21,0,0,1,0,.75c-.09.38-.28.74-.35,1.12-.27,1.49-1.27,2-2.6,1.29l-.94-.47c-.73.86-1.23,1-1.48.41a5.34,5.34,0,0,1-.49-2.14c0-1,.35-1.94.45-2.92a30.56,30.56,0,0,0,.23-3.84c-.05-2.32-.25-4.63-.34-6.94s-.19-4.45-.17-6.67c0-1.79.3-3.58.33-5.37.06-3.4.11-6.8,0-10.19-.11-3-.51-6.05-.68-9.09C360.31,10.67,360.39,8.83,360.39,6.82Z"/><path d="M328.62,79.84c1.29-.24,2.58-.55,3.89-.71a7.25,7.25,0,0,1,2.38.09c1.07.23,1.83,1.68,1.89,2.77a8.18,8.18,0,0,1-2.23,6,1.82,1.82,0,0,0-.15.26,10,10,0,0,1,4.24,3.2c-.07-.52-.13-1-.21-1.55-.24-1.47-.48-2.95-.76-4.41-.11-.54-.41-1-.51-1.59-.2-1,.53-1.51,1.24-1.86a11.74,11.74,0,0,1,2.7-.9,9.94,9.94,0,0,1,2.71-.22,1.88,1.88,0,0,1,1.24.8,12.24,12.24,0,0,1,2.2,6.2,6.31,6.31,0,0,1-.74,2.44c-.25.6-.14.91.43,1.14.74.3,1.46.63,2.19.95l.28-.22a11.6,11.6,0,0,1-.39-1.47,18.91,18.91,0,0,1-.23-2.63c0-1.41.09-2.81.17-4.22.05-.92.12-1.85.24-2.77,0-.17.37-.45.52-.42.54.11,1.17.18,1.25.92a19.48,19.48,0,0,1,.18,2.27c0,1.75-.14,3.5-.16,5.25a15.52,15.52,0,0,0,.2,2.83,4.33,4.33,0,0,0,.74,1.5.73.73,0,0,0,.66.1,6.15,6.15,0,0,0,3.53-6,17.64,17.64,0,0,0-1.2-5.24,1.58,1.58,0,0,1,.53-1.44c.52-.33,1.12,0,1.34.68a9.45,9.45,0,0,1,.61,2.15c.17,2.39.53,4.8-.18,7.16a8.22,8.22,0,0,1-.72,1.33,7.34,7.34,0,0,1-3.85,3.6,1.79,1.79,0,0,1-1.11-.05c-1.41-.46-2.83-.93-4.21-1.48A10.66,10.66,0,0,1,345,93c-.52-.39-.83-.47-1.32,0A8.26,8.26,0,0,1,342,94.29c-1,.53-.77-.54-1.2-1,0,.65,0,1.22,0,1.78,0,.77-.51,1-1.1,1.09s-.7-.39-.76-.86-.17-.95-.27-1.49c-.12,0-.35,0-.44.06-1.27,1.25-3,1.53-4.55,2.11-1.4.51-2.83.95-4.2,1.51-.4.16-.68.64-1,1-.59.55-1,.43-1.35-.3a15,15,0,0,0-1-1.74c-.74-1.14-.71-1.6.06-2.76a1.83,1.83,0,0,0,.17-1.13,31.38,31.38,0,0,1-.12-7.62,36.67,36.67,0,0,0-.17-4.19,2.33,2.33,0,0,1,.75-1.31c.13-.13.62,0,.91.13a4.63,4.63,0,0,1,.82.55Zm.07,11.87c.51-1,1.62-1.34,1.46-2.55a1.08,1.08,0,0,1,.62-.85,4.57,4.57,0,0,0,2.48-2,5.33,5.33,0,0,0,1.17-5,22.61,22.61,0,0,0-3,.29,6.69,6.69,0,0,0-2.54,1.07c-.33.25-.16,1.15-.22,1.76,0,0,0,.06,0,.09A23.2,23.2,0,0,0,328.69,91.71Zm14-.41-.25-.59c-.36-.91,0-1.45,1-1.34,1.3.15,1.79-.28,1.81-1.61a6.17,6.17,0,0,0-1.54-3.87,1.52,1.52,0,0,0-1.17-.57,23.65,23.65,0,0,0-2.77.79L341,92.58Zm-6,1.06a32,32,0,0,0-2.88-1.66,1.3,1.3,0,0,0-1.64.23c-.93,1-1.9,2-2.93,2.92-.71.64-.78.81-.12,1.55Z"/><path d="M79,92.81c-1,.17-1.8.26-2.58.45-.38.09-.86,0-.95.73a1.38,1.38,0,0,1-1,.85,1.07,1.07,0,0,1-1.17-.91c-.14-.68-.69-.67-1.19-.28-1.32,1.06-2.57,2.23-4,3.16a4.85,4.85,0,0,1-2.74.85c-.65,0-1.39-.79-1.85-1.39a9.2,9.2,0,0,1-1.65-6.53c.11-1.51.25-3,.36-4.54a12.76,12.76,0,0,1,1.64-4.76,5.45,5.45,0,0,1,.71-1.24,4.32,4.32,0,0,1,3.61-1.34c.84,0,1.86,0,2.17.94a17.94,17.94,0,0,1,.7,3.6c.06.51-.92.77-1.31.33a3.53,3.53,0,0,1-.83-1.37c-.11-.42-.17-.84-.62-.82a3.1,3.1,0,0,0-1.7.39,10.21,10.21,0,0,0-1.28,1.72c-1,1.17-.81,2.62-1,4s-.29,2.53-.38,3.8a6.82,6.82,0,0,0,1.47,4.72,1.26,1.26,0,0,0,1.17.09c1.64-.87,3.24-1.83,4.85-2.77a2.57,2.57,0,0,0,.53-.5,2,2,0,0,0,.7-2,21.89,21.89,0,0,1-.07-3.7c0-1.62-.09-3.24-.2-4.85-.05-.73.2-1.23.9-1.25s1.05.31,1.09,1.11c.06,1.41.34,2.8.4,4.21,0,1.12-.14,2.26-.12,3.38A11.23,11.23,0,0,0,75,90.79l3.66.45c0-.77,0-1.43,0-2.09a62.3,62.3,0,0,1,.53-11.06,1,1,0,0,1,.92-.91.76.76,0,0,1,1,.82,13,13,0,0,1,.14,2.81,24.33,24.33,0,0,0-.2,6c.1,1.29,0,2.59.06,3.88,0,.86.15,1.72.26,2.87.46-1.12.88-2,1.16-2.86.44-1.37.83-2.76,1.16-4.16.41-1.72.74-3.46,1.1-5.19a2,2,0,0,1,.12-.52c.71-1.36,1.56-1.46,2.51-.21a11,11,0,0,1,1.17,2.1,46.46,46.46,0,0,1,2.86,10,18.27,18.27,0,0,0,.76,2.59,1.92,1.92,0,0,1-.48,2.32A1.13,1.13,0,0,1,89.91,97a11.8,11.8,0,0,0-.46-1.82.88.88,0,0,0-.75-.36c-1.66.25-3.31.56-5,.85-.2,0-.49,0-.6.11-.53.6-1,1.28-1.54,1.85-.28.29-.89.67-1.06.56a2.2,2.2,0,0,1-.92-1.23C79.32,95.56,79.17,94.16,79,92.81Zm10,.31c-.56-3.1-1-6.23-2.66-9.09L83.9,93.12Z"/><path d="M169.7,107.77c2,.6,1.87,2,2,3.34a23.58,23.58,0,0,1,.17,2.82c0,1.3-.23,2.6-.27,3.91-.07,1.89-.12,3.78-.06,5.67a15.79,15.79,0,0,0,.53,2.54c.18.89.84.81,1.49.78a3.13,3.13,0,0,1,1.23.14,3.36,3.36,0,0,1-2.73,1.49,1.85,1.85,0,0,1-1.94-1.46c-.21-.81-.42-1.62-.64-2.43a3.74,3.74,0,0,0-.28-.58,2.71,2.71,0,0,0-.42.33c-1.11,1.38-2.79,1.82-4.26,2.6-.08,0-.2.11-.25.08-1-.54-2-.1-3,0-2.08.21-2.73-.84-3.42-2.36-.17-.37-.31-.76-.47-1.17-1.12.87-2.14,1.74-3.23,2.48a5.38,5.38,0,0,1-1.83.67c-.71.16-1.22-.34-1.64-1.54a3.15,3.15,0,0,0-.65.42,5.72,5.72,0,0,1-3.94,1.68c-.76.07-2.39-1.27-2.83-2.17a25.45,25.45,0,0,1-1.86-7.1c-.11-.64-.67-1.37-.48-1.84a9.06,9.06,0,0,0,.28-3.7,34.43,34.43,0,0,0-.4-5.41,22.55,22.55,0,0,1-.53-2.63c0-.68.24-1.07.74-1.07a1.67,1.67,0,0,1,1.31.61,7,7,0,0,1,.64,2.44c.16,2,.2,4,.31,6,0,.7.15,1.39.24,2.24,1.52-.94,3.13-.65,4.69-.66a4.74,4.74,0,0,1,1.6.24c.31.11.53.49.92.89l-5.36,1.49c-.09,0-.16.11-.25.12-2.13.21-1.72.59-1.49,2.27a15.39,15.39,0,0,0,1.48,5,2.17,2.17,0,0,0,3,1.06c.54-.25,1.11-.45,1.62-.75s1-.57,1.18-1.36a4.51,4.51,0,0,1,2-2.85c1.44-1,2.68-2.28,4.54-2.64a1.69,1.69,0,0,1,2.13,1.91,8.34,8.34,0,0,0,.72,5,2.44,2.44,0,0,0,1.2,1c.79.31,1.24,0,1.11-.85-.21-1.33.8-2.13,1.27-3.12a8.88,8.88,0,0,1,3.47-3.68,3.2,3.2,0,0,1,1.09-.41c.66-.12,1-.32.72-1.1-.13-.42.13-.95.12-1.42,0-1.68-.17-3.37-.15-5A7.51,7.51,0,0,1,169.7,107.77ZM169,120l-.22-.23c-.74.62-1.52,1.2-2.21,1.88a18.41,18.41,0,0,0-1.72,2c-.12.15,0,.46,0,.79A8.34,8.34,0,0,0,169,120Zm-16.17,4.06c1.55-.34,3.71-2.48,3.81-3.71C155.11,121.3,153.59,122.2,152.82,124.06Z"/><path d="M248.77,121.25a11.46,11.46,0,0,0,1.83-.91,9.21,9.21,0,0,0,3.5-4.34,11.37,11.37,0,0,0,.89-3c.12-1.71-.88-2.73-2.08-3.56a2.46,2.46,0,0,0-1.76.05c-1.66.49-3.32,1-4.94,1.66a9.06,9.06,0,0,0-3.27,2.66c-1.7,1.86-2.39,4.14-3.22,6.39a3.62,3.62,0,0,0,1.35,4.39,9.5,9.5,0,0,0,6.89,2.21,19.38,19.38,0,0,0,4-.78c1.83-.56,3.62-1.26,5.4-2,.69-.27,1.31-.73,2-1.05a2.1,2.1,0,0,1,.72-.07c-.06.26,0,.65-.2.76-1,.7-2,1.38-3.09,2a23.13,23.13,0,0,1-3.78,2,32.63,32.63,0,0,1-4.48,1,10.2,10.2,0,0,1-5.12-.36,9.83,9.83,0,0,1-5.37-3.81,1.88,1.88,0,0,1-.35-.81,14.53,14.53,0,0,1,1.32-7.43,18.24,18.24,0,0,1,3.37-5.29,10,10,0,0,1,4.58-2.42c1.28-.41,2.55-.86,3.78-1.39a3.07,3.07,0,0,1,2.5,0,5.43,5.43,0,0,1,3.14,2.73,6.8,6.8,0,0,1,.44,3.1,18,18,0,0,1-.7,3.61,16.94,16.94,0,0,1-.91,2.19,9,9,0,0,1-2.77,3.11,10.33,10.33,0,0,1-1.87,1,3.1,3.1,0,0,0-.54.3,2.2,2.2,0,0,1-3.36-1c-.07-.2-.15-.39-.28-.7l-1.05.62c-.8.48-1.56,1-2.39,1.42-1.57.75-2.55.06-2.71-1.75a4.38,4.38,0,0,1,2.39-4.22,28.29,28.29,0,0,1,5.54-2.55,4.08,4.08,0,0,1,2.42.51c.51.2.25,1.55-.34,2A3.58,3.58,0,0,0,248.77,121.25Zm-5.92,0,2.92-2.34C244.93,118.75,243.1,120.07,242.85,121.21Z"/><path d="M203.53,123.69a7,7,0,0,1-4.94,2.3c-.8.07-1.88.07-2.33-1.05-.09-.23-.49-.33-.73-.51a15,15,0,0,1-1.95-1.52c-.32-.34-.52-.44-.77-.09a6.22,6.22,0,0,1-3.54,2.13,32.93,32.93,0,0,1-5.1,1.23c-.53.08-1.26-.5-1.74-.94a8.31,8.31,0,0,1-1.11-1.7,10,10,0,0,1-2.09,1.52,18.8,18.8,0,0,1-3.46.82c-.15,0-.4-.25-.55-.43a4.31,4.31,0,0,1,0-4.22,9.83,9.83,0,0,1,5.71-3.89c.4-.1.7-.56,1.1-.65a3.61,3.61,0,0,1,1.77,0c.21.07.31.82.29,1.25-.06,1-.26,2-.32,3.07a6.38,6.38,0,0,0,.19,1.71,2.17,2.17,0,0,0,2.55,1.44.64.64,0,0,0,.37-.42c.15-2,1.38-3.48,2.6-5a7.31,7.31,0,0,1,4.13-2.73c.73-.16,1.6-.3,2.12.42.27.38.5,1.21.29,1.45-.77.9-.41,1.87-.36,2.8a4.62,4.62,0,0,0,.52,1.34,11.32,11.32,0,0,0,.87-1.15,13.16,13.16,0,0,1,5.47-5.34c1.41-.71,2.42-.68,3.39.31a2.53,2.53,0,0,1,.44,2.58,14.19,14.19,0,0,0-.44,3.51c.06,1.54.67,1.48,2.17,1.34a2.18,2.18,0,0,1,.93.06c.63.23.53.73.07.93a14.36,14.36,0,0,1-3,1.06C204.79,125.58,204.05,124.79,203.53,123.69Zm-5.18.14A3.74,3.74,0,0,0,202,122c.84-1.08,2.06-2,1.49-3.74-2.28.84-4.07,2.17-4.71,4.7A5.29,5.29,0,0,1,198.35,123.83Zm-16.8-3.56c-2.15-.08-4.59,1.86-4.58,3.51A10.49,10.49,0,0,0,181.55,120.27Zm11-.7L189.76,122A3.76,3.76,0,0,0,192.53,119.57Z"/><path d="M376.07,48.39c-.25,1.19-.54,2.38-.75,3.58s-1.11,1.28-2.37.37a5.38,5.38,0,0,0,0,2c.38.8.06,1.54.14,2.29a1,1,0,0,1-1,1.16,1.6,1.6,0,0,1-1.22-.9,22,22,0,0,1-.27-7.07,34.16,34.16,0,0,0,.28-8.09c-.3-2.2-.29-4.44-.42-6.67-.11-1.85-.31-3.7-.34-5.56a19.85,19.85,0,0,1,.37-3.33c.11-.68,1-1.08,1.46-.56.92,1.16,2,.54,3.08.54,2.26,0,4.53-.22,6.44,1.63a6.52,6.52,0,0,1,1.85,3.77A4.86,4.86,0,0,1,383,34c-.73,2-1.51,4-2.39,5.89-.8,1.74-1.78,3.4-2.62,5.12a1.27,1.27,0,0,0,.08,1,44.11,44.11,0,0,0,2.35,3.78,17.26,17.26,0,0,0,1.8,1.75,15.6,15.6,0,0,1,2,2.18,15.86,15.86,0,0,1,1.32,2.79,2.73,2.73,0,0,1,0,1c-.31,0-.7.1-.93,0a4,4,0,0,1-1.32-1.15,15.11,15.11,0,0,0-2.5-2.9c-1.39-1.36-2.59-2.91-3.86-4.38-.17-.19-.3-.42-.45-.63Zm-3,1.36a16.44,16.44,0,0,1,.58-1.57c.84-1.72,1.72-3.41,2.56-5.13q1.55-3.22,3-6.46a13.24,13.24,0,0,0,1.58-5.41,2.23,2.23,0,0,0-.28-.91A2.94,2.94,0,0,0,378,28.52a10.51,10.51,0,0,0-4.82.49,1.25,1.25,0,0,0-.7.89c0,1.41.21,2.81.32,4.21.19,2.56.48,5.11.52,7.67S373.65,47,373.11,49.75Z"/><path d="M394.54,92.66a11.73,11.73,0,0,1-6.51,2.8c-1.72.24-2.61-.34-2.89-2-.19-1.12-.14-2.28-.22-3.42-.17-2.43-.37-4.85-.51-7.28a4.76,4.76,0,0,1,.22-1.61,1.14,1.14,0,0,1,1.72-.2,3.54,3.54,0,0,1,.58,1.57c.12,1.5.16,3,.17,4.52,0,.91-.15,1.83-.12,2.74s.27,1.67.32,2.51.53,1,1.23,1a15.56,15.56,0,0,0,5.22-1.34c.57-.27.63-.54.43-1.13a7.59,7.59,0,0,1-.2-1.89c-.07-1-.14-2-.19-3-.07-1.43-.12-2.87-.19-4.3,0-.73.24-1.41,1-1.36a1.72,1.72,0,0,1,1.21,1.07,17.47,17.47,0,0,1,.55,4.06,29.52,29.52,0,0,0,.6,6.25c.26,1.23,1.39,1.46,2.68.54.21-.15.51-.21.69-.38s.47-.49.47-.74c0-1.68-.09-3.36-.13-5,0-1.35-.1-2.71,0-4.05a1.43,1.43,0,0,1,.78-1,11.13,11.13,0,0,1,4.89-.79c1.5.11,3,.15,4.5.19a33.26,33.26,0,0,0,3.7,0c.77-.07,1,.1.86.83L403,83c.13,1.15.28,2.13.35,3.12a7,7,0,0,1,0,1.94c-.14.66.25.61.6.58,2.22-.22,4.44-.48,6.67-.69.18,0,.55.25.54.32-.09.39-.17,1-.43,1.11a31.4,31.4,0,0,1-3.09.93c-1.06.3-2.12.62-3.19.9-.42.11-.87.12-.81.74a1.16,1.16,0,0,0,1,1.12,10.59,10.59,0,0,0,5-.35c.78-.21,1.51-.57,2.29-.81a2.4,2.4,0,0,1,.83.06c0,.3,0,.68-.16.89a3.32,3.32,0,0,1-1,.77,12.5,12.5,0,0,1-5.78,2c-1.21,0-2.63.19-3.57-.87a10.06,10.06,0,0,1-1.12-2A33.57,33.57,0,0,1,398,94.62c-1.53.75-2.29.4-3-1.16-.1-.22-.18-.44-.29-.65C394.72,92.76,394.65,92.74,394.54,92.66Z"/><path d="M315.86,45.86q-.26-4.71-.52-9.42c0-.28,0-.55,0-.83-.12-2.94-.22-5.88-.38-8.82-.08-1.43.35-2,1.53-1.68.94.22.77,1.1.81,1.63.14,1.66,0,3.33.08,5,.06,1.48.26,3,.34,4.44.11,2.11.22,4.22.25,6.33,0,2.58-.09,5.17,0,7.75,0,1.16.47,2.3.56,3.46a1.64,1.64,0,0,1-.66,1.25,1.17,1.17,0,0,1-1.58-.78c-.2-1.09-.32-2.21-.59-3.29a7.27,7.27,0,0,0-.77-1.57c-.46-.87-1-1.71-1.4-2.61-1.31-3.1-2.32-6.34-4.08-9.25-.6-1-1.06-2.06-1.59-3.09l-.25,0q.34,3.25.68,6.5c.13,1.23.32,2.46.4,3.7.11,1.74.09,3.49.21,5.22.09,1.32.39,2.63.45,4a9.24,9.24,0,0,1-.37,2.28.64.64,0,0,1-.54.08c-.43-.3-1.09-.62-1.16-1a49.66,49.66,0,0,1-.6-5.18c-.18-2.54-.23-5.09-.41-7.63-.07-.95-.38-1.88-.53-2.83a16.09,16.09,0,0,1-.17-2c-.08-2.36-.11-4.71-.2-7.07,0-.81-.28-1.62-.28-2.43a5.72,5.72,0,0,1,.37-2.07,1.2,1.2,0,0,1,1-.56,1.84,1.84,0,0,1,.88,1c.28.62.36,1.33.61,2,.83,2.08,1.65,4.16,2.56,6.2.48,1.08,1.16,2.07,1.71,3.12a14.42,14.42,0,0,1,.69,1.66c.71,1.91,1.4,3.83,2.12,5.74a6.71,6.71,0,0,0,.46.85Z"/><path d="M217.55,26.73c-.07,2.91-.21,5.86-.2,8.81,0,2,.23,4,.3,6.06,0,.94-.17,1.89-.11,2.82a15.06,15.06,0,0,0,.48,2.36c.21.92.63,1.82.19,2.8a2.08,2.08,0,0,0,0,.93q.27,3.07.55,6.14c.05.57-.75,1.38-1.51,1.5s-.91-.45-1-.94c-.2-1.19-.32-2.4-.45-3.6-.23-2-.55-4-.65-6a6.52,6.52,0,0,0-1-2.55c-.48-1-.93-2.09-1.48-3.09-.88-1.6-1.83-3.16-2.74-4.74A30.1,30.1,0,0,0,208,34c0,.63-.1,1.26-.14,1.89-.13,1.91-.29,3.83-.35,5.75,0,1.1.1,2.2.16,3.3s.08,2.14.17,3.2c.11,1.33.22,2.66.44,4,.16,1-.09,1.84-.74,1.94a1.62,1.62,0,0,1-1.71-1.47c-.17-2.39-.37-4.79-.44-7.19s0-4.58.06-6.86c0-1.19.17-2.38.17-3.56,0-2-.1-3.94-.18-5.9a8.89,8.89,0,0,1-.14-1.61c.13-.81.8-.9,1.4-.62a2.65,2.65,0,0,1,1.12,1c1.59,2.85,3.12,5.74,4.7,8.61.4.73.93,1.39,1.34,2.12.31.54.52,1.14.78,1.71.13.27.27.54.49,1,0-1.66,0-3.09,0-4.51,0-2.29.08-4.58.09-6.88,0-.76-.19-1.52-.14-2.27a2.94,2.94,0,0,1,.57-1.47c.09-.12.73.15,1.1.26C217,26.48,217.23,26.59,217.55,26.73Z"/><path d="M442.25,47a7.82,7.82,0,0,0-.41,2.33c.16,1.25.09,2.54.94,3.71.39.54.18,1.62,0,2.42a1.36,1.36,0,0,1-1.18.56,3.16,3.16,0,0,1-1.27-1.39,9.71,9.71,0,0,1-.51-2.28,1.67,1.67,0,0,0-1-1.48c-.16-.06-.21-.6-.17-.9a19.8,19.8,0,0,0,.51-3.17c-.1-3.42-.35-6.83-.51-10.24,0-1,0-2,0-3.06,0-1.64,0-3.28,0-4.91a3.22,3.22,0,0,1,.35-1.19,7.83,7.83,0,0,1,2.4-1.87,11.5,11.5,0,0,1,4.28-1c1.94.07,4.91,2.14,5.33,4a11.27,11.27,0,0,1-.18,3,12.14,12.14,0,0,1-1.28,4.94,52.62,52.62,0,0,1-3.46,5.13c-.64.9-1.37,1.74-2,2.65-.09.14.06.6.24.75,1.68,1.47,3.41,2.89,5.09,4.37,1,.88,1.91,1.84,2.87,2.76.66.63,1,1.58,2.13,1.72a.77.77,0,0,1,.5.53c0,.16-.24.41-.43.55-1.21.91-2.14,0-3-.59s-1.78-1.52-2.68-2.25c-1.88-1.52-3.78-3-5.66-4.53a4.1,4.1,0,0,1-.51-.6Zm-.89-3c.2-.22.34-.35.45-.5l2.58-3.39c1.72-2.26,3.5-4.5,4-7.41.11-.59.12-1.21.26-1.8a2.41,2.41,0,0,0-1.24-3.1,8.06,8.06,0,0,0-.88-.64c-.45-.2-1-.51-1.42-.39-1.29.37-2.52.91-3.77,1.4a.54.54,0,0,0-.28.38c-.14,1.85-.33,3.71-.36,5.56s.06,3.68.18,5.51C441,41.09,441.19,42.49,441.36,44Z"/><path d="M42.17,33.8c0,3,0,5.72,0,8.46,0,.89.07,1.78.1,2.67.06,1.5,0,3,.21,4.48s.1,3.17.83,4.68a7.46,7.46,0,0,1,.26,2.62,3,3,0,0,1,0,1c-.1.34-.45.93-.52.9-.5-.16-1.21-.35-1.39-.74A10.39,10.39,0,0,1,40.82,55c-.37-2.67-.73-5.34-.91-8-.16-2.38,0-4.77-.08-7.15,0-2.05-.14-4.1-.11-6.15a30.09,30.09,0,0,1,.41-3.32,6.7,6.7,0,0,0,.11-1c0-.74.2-1.19,1-1.3s1.06.11,1.24.84a12.41,12.41,0,0,0,.9,2.52c.32.64.94,1.12,1.25,1.76.68,1.43,1.2,2.93,1.88,4.36A23.74,23.74,0,0,0,48,40c.26.42.57.81.85,1.21l.23-.07c-.14-1.63-.26-3.26-.43-4.89-.13-1.2-.37-2.39-.47-3.59A39.63,39.63,0,0,1,48,28.54a2.07,2.07,0,0,1,.63-1.31c.17-.16.84,0,1.06.17a3.33,3.33,0,0,1,.49,1.2A7.49,7.49,0,0,0,50.75,30,1.7,1.7,0,0,1,50.82,32a2.43,2.43,0,0,0-.18,1.49,72.89,72.89,0,0,1,.7,9.72c0,2.53.11,5.06.15,7.59,0,.38-.19.78-.16,1.15a30.42,30.42,0,0,0,.7,4.53,2.65,2.65,0,0,1-.55.71,1.7,1.7,0,0,1-1,.32,1.11,1.11,0,0,1-.77-.61,18.22,18.22,0,0,1-.49-6.76,10.63,10.63,0,0,0-1.51-6.32c-1.58-2.64-3.55-5.08-4.44-8.1a8.34,8.34,0,0,0-.59-1.31A5.54,5.54,0,0,0,42.17,33.8Z"/><path d="M284.63,120.81a36.73,36.73,0,0,0-2.67,2.95,12.18,12.18,0,0,0-1.07,2.38,1.23,1.23,0,0,1-1.5.87c-.68-.16-.64-.75-.59-1.27.16-1.72.39-3.43.51-5.15a12.51,12.51,0,0,0-.16-2c-.06-.66-.1-1.33-.18-2a1,1,0,0,1,1-1.15,1.41,1.41,0,0,1,1,.9c.26,1.33.34,2.7.48,4,.87-.55,1.77-1.16,2.71-1.71a1.39,1.39,0,0,1,2.14.49l1.14,1.63a4.55,4.55,0,0,1,.77-1.2,8.76,8.76,0,0,1,2.18-1.33,1.34,1.34,0,0,1,1.68.91,13.77,13.77,0,0,1,.57,1.67c.17.57.32,1.15.48,1.72.8-.69,1.58-1.48,2.46-2.12a16.81,16.81,0,0,1,6.46-2.57c1.59-.36,2.44.58,2.44,2.24,0,2,.22,4,.34,6,0,.75.64.65,1,.54,1.17-.35,2.31-.83,3.48-1.22a3.3,3.3,0,0,1,1,0c-.07.3,0,.72-.23.89a12.74,12.74,0,0,1-4.56,2.71,2.06,2.06,0,0,1-2.71-1.52c-.33-1.21-.49-2.46-.73-3.7a3.23,3.23,0,0,0-.18-.42c-2.4,2.24-5.6,2.52-8.43,3.73a8.85,8.85,0,0,0,0,1.36,1.32,1.32,0,0,1-.89,1.57c-.61.11-1.18-.43-1.2-1.23,0-1.14,0-2.29,0-3.43a23.1,23.1,0,0,0-.44-2.75c-.09-.47-.25-.93-.42-1.57a7.88,7.88,0,0,0-1,.59,7.12,7.12,0,0,0-1.54,1.41,4,4,0,0,0-.44,1.7c-.16,1.27-.19,2.57-.44,3.82-.06.29-.75.6-1.18.63-.24,0-.75-.49-.75-.77a19.11,19.11,0,0,1,.18-3.58A6.15,6.15,0,0,0,284.63,120.81Zm17.18-.33a11.38,11.38,0,0,0-6.91,3.5C297.49,123.41,300,122.76,301.81,120.48Z"/><path d="M113.06,41.49c0-1.1,0-2.19,0-3.29q0-4.43-.07-8.85c0-.56,0-1.11,0-1.67a.87.87,0,0,1,1.26-.86c.46.17,1.09.77,1.1,1.19.05,2.17-.1,4.35-.12,6.53,0,3.39,0,6.78,0,10.17a2.83,2.83,0,0,0,.81,2.22c.21.21.26,1,.13,1.08-1.21.7-.73,1.72-.61,2.68q.3,2.38.6,4.77c.06.45.13.9.18,1.35.08.66-.08,1.09-.88,1a3.69,3.69,0,0,0-.91.19c-.2-.8-.45-1.58-.6-2.37a35.51,35.51,0,0,1-.76-8.13c.05-1.36-.76-2.21-1.28-3.23-.75-1.49-1.6-2.95-2.5-4.36-1.13-1.77-2.35-3.49-3.63-5.38-.18.38-.33.53-.31.67.23,2.75.51,5.49.71,8.25.13,1.87.07,3.75.21,5.61.17,2.23.5,4.45.69,6.68.13,1.44.16,2-1.36,1.85a.86.86,0,0,1-.62-.47,9.61,9.61,0,0,1-.38-1.94c-.21-2.45-.41-4.91-.54-7.36-.09-1.71,0-3.44-.11-5.15-.18-3.13-.35-6.26-.7-9.37-.1-.9.26-2-.64-2.75-.08-.07-.06-.3,0-.44a10.15,10.15,0,0,1,.28-2.13,1.2,1.2,0,0,1,1-.59c.4.06,1,.44,1.06.77.55,2.68,2.41,4.57,3.82,6.74,1.22,1.89,2.41,3.8,3.6,5.71.19.3.33.63.49.94Z"/><path d="M433,50.51c-3.27-.77-6.4.11-9.67,1,0,.65,0,1.42,0,2.17,0,.34-.15.83-.39,1s-1,.34-1.27.15-.9-.94-.84-1.37c.4-3.14.84-6.27,1.46-9.37s1.48-6.43,2.25-9.63c.64-2.65,1.4-5.28,1.88-8a13.69,13.69,0,0,1,.51-1.89,1.18,1.18,0,0,1,1.42-.93c.7.05,1,.4,1.13,1.07.51,2.37,1.14,4.71,1.61,7.09.26,1.33.17,2.73.43,4.06.4,2,.9,4.09,1.49,6.09.49,1.69,1.21,3.31,1.72,5,.64,2.12,1.15,4.29,1.77,6.42.19.65.59,1.24.81,1.88.14.4.31,1,.12,1.24a1.31,1.31,0,0,1-1.61.44,2.55,2.55,0,0,1-1.54-1.66C433.82,53.66,433.42,52.07,433,50.51Zm-9.3-1.83c.23.06.5.22.69.15a11.57,11.57,0,0,1,6.87-.29,12.2,12.2,0,0,0,1.33.23c-.13-.43-.28-.86-.4-1.3-.49-1.69-1-3.36-1.46-5.06-.6-2.41-1.13-4.85-1.68-7.28a16.89,16.89,0,0,1-.34-1.76c-.13-1.13-.22-2.26-.32-3.39H428c-.24.82-.45,1.66-.72,2.47-.64,2-1.45,3.93-1.9,6s-.42,3.92-.72,5.87C424.48,45.73,424.07,47.15,423.71,48.68Z"/><path d="M25.72,47c.23-2.38.59-4.65.64-6.93a28.13,28.13,0,0,1,.84-5.86c.41-1.76.56-3.66,1.76-5.2.63-.81,1.36-1.61,2.33-1.47a13.25,13.25,0,0,1,4.32,1.32c.72.39,1.08,1.54,1.47,2.41a14.8,14.8,0,0,1,.83,2.65c.27,1.18.49,2.37.67,3.56s.29,2.25.36,3.37c0,.57-.16,1.14-.15,1.71,0,1.32.11,2.64.16,4a.86.86,0,0,1-.08.35c-.85,2-1.07,4.26-2,6.31A25.87,25.87,0,0,1,35,57.65c-1.59,2.33-4.1,1.85-5.82.3-2.19-2-2.55-4.64-2.94-7.32C26,49.41,25.88,48.18,25.72,47Zm2.68-3.18h-.24a5,5,0,0,0-.09.68c0,1.17-.05,2.35,0,3.52a12.29,12.29,0,0,0,.4,3.32c.63,1.81.66,3.92,2.49,5.22,1,.69,1.8.7,2.29-.38a57.36,57.36,0,0,0,2.34-5.73,17.17,17.17,0,0,0,1-5.78,40.49,40.49,0,0,0-.71-8.43,26,26,0,0,0-1.74-5.46,2.08,2.08,0,0,0-1.84-1.25,2.67,2.67,0,0,0-2.37,2.23c-.34,1.48-.76,2.94-1,4.43s-.74,2.81,0,4.29c.28.54,0,1.36,0,2.05h-.19L28.47,42l-.25,1.45.17,0,.49-.62c.17,2.35.86,4.6.54,6.93C28.22,48,28.69,45.83,28.4,43.83Z"/><path d="M121.59,94.63c2.36-.1,4.57-.16,6.77-.32a1.23,1.23,0,0,0,1.24-1.4,3.64,3.64,0,0,1,0-.74c.25-1.87-1-2.79-2.34-3.54-1.14-.63-2.4-1.05-3.53-1.69a2.31,2.31,0,0,1-1.15-2.9,11.56,11.56,0,0,1,.63-2.33,2.36,2.36,0,0,1,1.18-1.16c1.46-.52,3-1.06,4.48,0a2.24,2.24,0,0,1,.54.76c.11.2.11.49.26.64.59.58.29,1.12-.16,1.49a1,1,0,0,1-1.57-.2,1.77,1.77,0,0,0-2.11-.55c-1,.26-1.06,1.09-1.09,1.79,0,.27.7.63,1.13.84,1.18.57,2.45,1,3.57,1.64a6,6,0,0,1,2.41,5.93c-.05.31.06.65,0,1A3.34,3.34,0,0,1,129,96.59a16.07,16.07,0,0,1-7.58-.84c-1.39-.44-2.3.19-3.39.52a27,27,0,0,1-2.74.84,2.74,2.74,0,0,1-3.39-2.56,68.42,68.42,0,0,1-.56-11.18,16.73,16.73,0,0,1,0-2.5,1.52,1.52,0,0,1,.91-1c.36-.08.84.33,1.26.56.23.13.43.45.65.45,1.79,0,3.57,0,5.36.07a4.52,4.52,0,0,1,1.11.43,7.73,7.73,0,0,1-1.21.9,9.63,9.63,0,0,1-2.25.81c-.81.14-1.67,0-2.49.06a1,1,0,0,0-.76.54,10.63,10.63,0,0,0-.25,2.09c0,.86,0,1.71,0,2.75.5-.09,1.08-.16,1.64-.3.78-.2,1.54-.49,2.33-.66a1.09,1.09,0,0,1,1.36.78,1,1,0,0,1-.66,1.3,31.35,31.35,0,0,1-3.25,1c-.87.2-1.15.64-1,1.47s.27,1.55.35,2.33c.06.5.14.63.73.5a19.72,19.72,0,0,0,5.44-1.81,5.24,5.24,0,0,1,1.46-.32l.23.22Z"/><path d="M66.09,58c-.69,0-1.36-.8-1.66-1.81a12.62,12.62,0,0,0-1.23-3.26c-.3-.46-1.33-.61-2-.61-1.39,0-2.79.32-4.18.29-1,0-1.3.42-1.42,1.27a8.69,8.69,0,0,1-1.39,4.07,1.37,1.37,0,0,1-1.05.44c-.53,0-.52-.46-.43-1,.56-2.93,1-5.86,1.58-8.79.31-1.68.7-3.35,1-5a32.78,32.78,0,0,0,.46-3.32,33.23,33.23,0,0,1,1.39-5.88c.27-1,.56-2.07.84-3.1.4-1.44.75-2.89,1.23-4.3a1.31,1.31,0,0,1,1-.7c.31,0,.76.42.9.76.94,2.21,1,4.62,1.47,6.94.39,1.95.71,3.91,1,5.87.16,1.11.16,2.24.31,3.35.28,2.06.61,4.11.92,6.17a.81.81,0,0,0,.06.26c1.07,1.95.84,4.3,2.1,6.23A1.27,1.27,0,0,1,66.09,58Zm-10-7.82h6.45L60.09,32.39C57.72,38.14,57.61,44.24,56.13,50.15Z"/><path d="M395.12,24.82c.45.16.9.31,1.33.51a.64.64,0,0,1,.29.42c.25,1.55.53,3.09.7,4.65.11,1,0,2,.07,3.05s.11,1.94.17,2.91c.12,1.73.32,3.46.33,5.19a33.48,33.48,0,0,1-.39,3.79c0,.33-.1.66-.13,1-.24,2.58-.28,5.21-1.49,7.57-.88,1.72-2,2.47-3.67,1.85a6.61,6.61,0,0,0-1-.33c-2.65-.5-3.23-2.78-3.94-4.8-1.4-3.94-1.54-8.07-1.52-12.21,0-2.28-.08-4.56-.18-6.84-.07-1.49-.24-3-.35-4.45a2.26,2.26,0,0,1,0-1c.18-.43.48-1.07.81-1.12.86-.14,1.33.47,1.38,1.31.16,2.73.39,5.47.52,8.2.08,1.63-.09,3.28.06,4.9s-.37,3.21.42,4.8a5.76,5.76,0,0,1,.27,2.61c-.05,2,.89,3.52,1.83,5.1.39.67.61,1.42,1.69,1.46,1.25,0,1.62-.1,1.85-1.4.44-2.54,1-5.08,1.24-7.64a48.13,48.13,0,0,0-.11-5.65c0-.89.06-1.79,0-2.68-.24-2.48.06-5-.7-7.43-.25-.79-.38-1.62-.57-2.43S394.18,24.93,395.12,24.82Z"/><path d="M177.5,43.45c-.48.41-.94.85-1.44,1.23a13.25,13.25,0,0,1-5.24,2c-1.19.29-2.4.55-3.58.87-.91.25-1.06.7-.91,1.59.21,1.21.26,2.45.4,3.67a7.41,7.41,0,0,0,.28,1.6,1,1,0,0,0,.69.55c1.67,0,3.37.29,4.95-.52.48-.24.93-.53,1.41-.78s.87-.43,1.31-.65l.22.2c-.07.26-.05.59-.22.76-2.21,2.3-4.69,3.86-8.11,3.08-2.06-.47-2.51-1.24-3-3.82-.34-1.76-.24-3.51-.42-5.26a29.85,29.85,0,0,1,.27-4.23c0-1-.05-2-.09-3,0-.24-.06-.48-.06-.73-.06-2.11-.16-4.23-.17-6.34,0-1.66.13-3.31.11-5a10,10,0,0,0-.39-2.11c-.35-1.51.12-1.77,1.13-2.09,2.33-.73,4.71-.35,7.05-.6.89-.09,1.76-.35,2.65-.38,1.55-.06,3.11,0,4.66,0l.08.27a4.67,4.67,0,0,1-.93.5c-2.25.62-4.5,1.27-6.77,1.79-1.22.28-2.5.29-3.74.51s-1.45.42-1.45,1.81c0,2.94,0,5.87,0,8.81,0,1,.3,1.91.32,2.87a37.26,37.26,0,0,1-.13,3.76c-.05.67,0,1.11.83,1,2.57-.31,5.2-.24,7.69-1.11.79-.28,1.63-.41,2.45-.62Z"/><path d="M304.7,90.37c-.37,1.17-.64,2.17-1,3.14a7.41,7.41,0,0,1-1.06,2c-1.6,2-2.81,1.74-4.46-.21a5.16,5.16,0,0,1-1.07-3.46,67.48,67.48,0,0,1,.39-7.21,5.75,5.75,0,0,0,0-1.74c-.22-1.18.81-1,1.53-1.31l.55,1.76a3.24,3.24,0,0,1,3.4-2.25,1.24,1.24,0,0,1,1.18,1.05c.13.77.4,1.51.54,2.27s.18,1.47.34,2.21c.07-.52.17-1,.2-1.57.08-1.27.09-2.55.22-3.81,0-.32.48-.87.68-.85.48.06,1.13.14,1.14.91a5,5,0,0,0,.19.92c.77-.62,1.38-1.18,2.06-1.65a1.63,1.63,0,0,1,2.54,1c.37,1.6.88,3.18,1.14,4.8a27.84,27.84,0,0,1,.1,3.66c0,1.82-1.08,3.22-1.79,4.75a4,4,0,0,1-2.88,2.15c-.72.17-2.16-1-2.46-1.72A10.43,10.43,0,0,1,305,90.9C305,90.77,304.85,90.64,304.7,90.37Zm5.76-7.44c-1.32-.13-3.19,1.94-3.24,3.11-.09,2-.21,4-.15,6a5.31,5.31,0,0,0,.84,2.24,1.1,1.1,0,0,0,1.06.18,7.1,7.1,0,0,0,1.38-1.56,7.76,7.76,0,0,0,1.12-6.66C311.18,85.17,310.81,84.08,310.46,82.93Zm-10.89,1.76-.11,0c-.18,1.19-.43,2.38-.53,3.59a21.93,21.93,0,0,0,0,3.17,4.51,4.51,0,0,0,.78,2.72c.62.78,1.19.82,1.72,0a9.12,9.12,0,0,0,.92-2c.79-2.48,1.49-5,.65-7.61-.12-.37,0-.92-.58-.81-.38.07-.93.33-1,.64a20.29,20.29,0,0,0-.4,2.23c-.05.23-.33.41-.51.61-.21-.19-.56-.35-.62-.58A15.81,15.81,0,0,1,299.57,84.69Z"/><path d="M93.12,52.26c.31.76.81,1.36.71,1.83a5.82,5.82,0,0,1-1.16,2.35c-.35.44-1.35,0-1.52-.66A4.33,4.33,0,0,1,91,54.23c.15-1.41.37-2.81.55-4.22a15.81,15.81,0,0,0,.16-2A50,50,0,0,1,93,36c.46-1.9.64-3.86,1-5.79.11-.67.22-1.35.4-2A1.4,1.4,0,0,1,95.66,27a1.43,1.43,0,0,1,1.45,1.22c.6,3.1,1.29,6.18,1.83,9.28.35,2,.47,4,.77,5.93.33,2.22.65,4.45,1.17,6.62a13.93,13.93,0,0,1,.85,2.59,12.14,12.14,0,0,0,.9,2.34c.14.48.25,1.23,0,1.5s-1,.32-1.54.33c-.21,0-.53-.32-.62-.56-.42-1.15-.76-2.33-1.16-3.49-.07-.2-.28-.49-.43-.5C97,52.24,95.21,52.26,93.12,52.26Zm2.82-19-.35.06c-.39,2.13-.82,4.26-1.15,6.4-.23,1.5-.34,3-.46,4.53-.1,1.29-.14,2.58-.18,3.88a3.56,3.56,0,0,0,.1,1.44c.07.16.74.07,1.13.1.08,0,.16.08.25.1l3.43.61Z"/><path d="M272.9,117.06c.5-1.11.87-1.3,1.79-.92s.71,1.08.64,1.67c-.28,2.46-.62,4.91-1,7.36-.32,2.15-.76,4.29-1.07,6.44-.2,1.38-.21,2.79-.41,4.17-.38,2.65-.8,5.3-1.24,7.94a25.64,25.64,0,0,1-.8,3.76,75.09,75.09,0,0,1-2.62,7.08,2.7,2.7,0,0,1-2.65,1.65,2.79,2.79,0,0,1-2.39-1.75,3.17,3.17,0,0,1,.22-1.19c.27.19.63.32.8.58.41.64,1.49.63,2.41-.47a14.1,14.1,0,0,0,2.76-6.43c.48-2.33.94-4.66,1.27-7,.29-2,.39-4.11.59-6.16.3-3.07.61-6.14.91-9.21,0-.41,0-.83.08-1.5-.84.61-1.54,1.18-2.29,1.65a32.36,32.36,0,0,1-3.71,2.19,2.11,2.11,0,0,1-2.32-.29,2.3,2.3,0,0,1-.79-2.06c.2-3,2.19-4.61,4.6-5.92A9.74,9.74,0,0,1,272.9,117.06Zm-.47,2.69-.23-.39a19.5,19.5,0,0,0-2.29.86c-1.8.93-3.67,1.81-4.52,3.86-.07.17-.11.35-.17.53.21,0,.46.09.62,0A21.07,21.07,0,0,0,268.7,123C270,122,271.19,120.83,272.43,119.75Z"/><path d="M323.67,45.91c1.45-.42,2.59-.76,3.73-1.07q2.55-.7,5.12-1.36c.13,0,.42,0,.44.13a1,1,0,0,1,0,.68,1.8,1.8,0,0,1-.68.58q-2.58,1.31-5.18,2.58a13.64,13.64,0,0,1-2,.88c-.81.24-.93.78-.83,1.47s.21,1.68.4,2.5a2.17,2.17,0,0,0,1.84,1.84,7.37,7.37,0,0,0,3.75.15,3.94,3.94,0,0,0,1-.49,16.7,16.7,0,0,0,3.48-3.12,5.55,5.55,0,0,1,.91-.74l.32.25A12.5,12.5,0,0,1,335,52c-1.14,1.58-2,3.45-4,4.21a7.17,7.17,0,0,1-2.61.49,9.84,9.84,0,0,1-4.71-1.28c-1.24-.69-1.43-1.89-1.55-3.07-.26-2.51-.42-5-.57-7.55-.11-1.8-.13-3.6-.19-5.4s-.16-3.36-.17-5,.21-3.23.08-4.83a4.58,4.58,0,0,1,.74-2.63,1.64,1.64,0,0,1,1.16-.79c2.8-.07,5.61-.11,8.41,0a22.56,22.56,0,0,1,3.76.76,1.16,1.16,0,0,1,.31.19v.29a9.88,9.88,0,0,1-1.87.55c-1.88.18-3.77.26-5.66.39l-4.32.31C323.42,34.35,323.64,40,323.67,45.91Z"/><path d="M83.58,50.34c.21,1.75.4,3.54.66,5.32.11.74-.31,1.26-1,1.08-.4-.1-1-.12-1.14-.37a6.53,6.53,0,0,1-.45-2c-.16-1.43-.24-2.87-.38-4.3-.11-1.11-.28-2.22-.37-3.34-.15-1.82-.17-3.65-.4-5.46-.36-2.87-.85-5.72-1.25-8.58A17.83,17.83,0,0,1,79,30.23c0-.6.2-1.18.94-1.23a1.39,1.39,0,0,1,1.45,1.22c.18,2,.33,4.05.56,6.07.26,2.26.64,4.51.89,6.77.18,1.6.25,3.21.38,5.11.94-.2,1.79-.33,2.6-.58.18-.05.35-.48.34-.73-.09-2.17-.18-4.35-.36-6.52s-.47-4.39-.72-6.59c-.11-1-.29-2-.31-3.06a1,1,0,0,1,.69-.75c.62-.08,1.47-.27,1.62.68.2,1.22.28,2.47.39,3.7.25,2.93.51,5.86.73,8.79.07.89,0,1.8,0,2.69a13.42,13.42,0,0,0,.47,1.88,1,1,0,0,1,0,.54C88,50.15,88.49,52,89,53.91a13.79,13.79,0,0,1,.5,2.47c0,.25-.49.76-.76.76a1.79,1.79,0,0,1-1.36-.51,6,6,0,0,1-.75-2.28c-.16-1.27-.16-2.56-.21-3.84,0-.9-.1-.91-.93-.59A13.4,13.4,0,0,1,83.58,50.34Z"/><path d="M41.86,119.64c1.06.12,1.4-.4,1.56-1.24a6.11,6.11,0,0,1,.62-1.69,2.24,2.24,0,0,1,2.65-.7c1.86.64,3.37,4.09,2.31,5.92-.41.7-.8.75-1.47.45a9.35,9.35,0,0,0-2.11-.68c-.67-.12-.88.39-.78.94a4.62,4.62,0,0,0,1.9,3.16c2.37,1.52,3.94,1,5.31-1.15.42-.67.18-1.77.22-2.68,0-.56,0-1.12,0-1.67.06-2,.13-4,.17-6.07a5.93,5.93,0,0,0-.21-1,24,24,0,0,1-.37-2.72A1.35,1.35,0,0,1,53,109.3c.72.1.85.66.93,1.26.19,1.34.47,2.68.59,4,.1,1.08,0,2.18,0,3.3a26.48,26.48,0,0,1,2.71.48c.4.11.71.53,1.06.81-.34.33-.62.81-1,.95-.87.3-1.81.4-2.7.64a.74.74,0,0,0-.45.54c.15,1.85.32,3.7.56,5.54.08.57,1.57,1,2.15.62A25,25,0,0,0,59,125.66c.58-.51,1-1.27,2.28-.78l-1.93,2.33c-.1.12-.25.2-.3.33-.5,1.3-1.71,1.63-2.83,2a2.23,2.23,0,0,1-2.55-.95c-.5-.69-1-1.4-1.5-2.17a4.86,4.86,0,0,1-3.31,1.94,4.92,4.92,0,0,1-3.92-1,5.31,5.31,0,0,1-2.35-4.4,3,3,0,0,0-.63-2.11C41.79,120.61,41.9,120.1,41.86,119.64Zm5.44.23.18-.22a6.91,6.91,0,0,0-1.05-1.21c-.15-.11-.63.15-.9.32-.07,0,0,.55.1.59C46.16,119.56,46.74,119.7,47.29,119.86Z"/><path d="M155.24,101.93,154.13,96c-1.44.94-2.69,1.79-4,2.58a4.21,4.21,0,0,1-4.42-.77,6.85,6.85,0,0,1-1.61-4.15,14.1,14.1,0,0,1,.4-4.56,9.06,9.06,0,0,1,2.28-3.81,16.17,16.17,0,0,1,8-4.64c.5-.15,1.26-.38,1.53-.15.5.43,1.1,1.28,1,1.77-.23.86.27,1.42.35,2.11s.15,1.64.23,2.46c0,.35.09.71.13,1.06A6.35,6.35,0,0,1,156.73,93a2.75,2.75,0,0,0-.48,2.93,14.53,14.53,0,0,1,.27,5.11c0,.37-.58.71-.89,1.07Zm-1.7-8.82c-1-.73-1.16-1.62-.43-2.35a1,1,0,0,1,1.69.18c.06.08.52,0,.6-.08a2,2,0,0,0,.4-1c.1-1.58.19-3.17.18-4.75a1.32,1.32,0,0,0-1.29-1.47,6.54,6.54,0,0,0-4.39,1.58,17.9,17.9,0,0,0-2.36,2.36,5.37,5.37,0,0,0-1.18,1.93,26.79,26.79,0,0,0-.36,3,4.58,4.58,0,0,0,.62,3.08,1.72,1.72,0,0,0,2.38.76c1.06-.66,2-1.46,3-2.23C152.81,93.83,153.13,93.49,153.55,93.1Z"/><path d="M339,118.77c-.89.78-.93,1.88-1.21,2.92-.8,2.9.76,3.64,3,3.81a18.85,18.85,0,0,0,4.05-.4,1.47,1.47,0,0,0,1.29-1.44c-.13-1.92.67-3.54,1.36-5.21.24-.58.41-1.18.68-1.74.52-1.12,1.9-1.17,2.64-2a3.29,3.29,0,0,1,.82-.55,1.16,1.16,0,0,1,1.85.56,17.5,17.5,0,0,1,1.16,7.14,4.75,4.75,0,0,1-3.07,4.36c-.11,0-.3.1-.31.16-.21,1.48-1.39,1.13-2.2,1a3.77,3.77,0,0,1-2-1.14c-.48-.53-.61-.39-1.14-.13a16.27,16.27,0,0,1-3.59,1.39,6.39,6.39,0,0,1-5.27-.76,3.68,3.68,0,0,1-1.53-2.74,9.75,9.75,0,0,1,.61-4.92c.6-1.54,1.16-3.2,2.69-4.19.07,0,.11-.16.18-.18a3.72,3.72,0,0,1,1.65-.2c.3.11.53.87.51,1.32a11.18,11.18,0,0,1-.48,2.45C340.31,119.39,339.93,119.49,339,118.77Zm13.35-1.91a4,4,0,0,0-2.92,3,19.32,19.32,0,0,0-.31,4.07.7.7,0,0,0,.47.5c1.37.06,3.21-1.36,3.24-2.74A38.89,38.89,0,0,0,352.37,116.86Z"/><path d="M16.44,90.29c-1.68.92-1.31,2.55-1.47,4a20.9,20.9,0,0,0,0,2.13c.27-.08.52-.23.63-.17s.65.47.61.61a29.57,29.57,0,0,1-1.09,3.22c-.12.29-.64.72-.78.65-.46-.21-1.13-.59-1.17-1C13,98.13,13,96.47,13,94.83c0-.94-.06-1.87-.06-2.81A8.37,8.37,0,0,1,13,91a7.67,7.67,0,0,0,.08-.82c0-1.31.08-2.63.07-3.94,0-.9-.08-1.8-.15-2.7a37.5,37.5,0,0,1-.26-3.81,1.72,1.72,0,0,1,1-1.16,19.78,19.78,0,0,1,3.77-1.15A2.91,2.91,0,0,1,21,79.78a6.18,6.18,0,0,1,.19,2.53,10.52,10.52,0,0,1-1.14,2.91,10.32,10.32,0,0,1-1.52,1.92c-.74.82-.21,1.8.55,2.77,1.19,1.5,2.46,2.94,3.67,4.43a24.9,24.9,0,0,1,1.66,2.28.82.82,0,0,1-.16.79c-.3.23-.86.5-1.08.37a6.19,6.19,0,0,1-1.43-1.33c-.79-.92-1.51-1.91-2.31-2.83C18.5,92.49,17.47,91.41,16.44,90.29Zm-1.1-2.48c.79-.95,1.53-1.7,2.11-2.56A22.84,22.84,0,0,0,19,82.51c.53-1.06,0-2.76-.9-2.71a9.69,9.69,0,0,0-2.64.69c-.19.07-.26.56-.31.87s.15.4.14.6c0,1.72-.11,3.43-.16,5.15A3.22,3.22,0,0,0,15.34,87.81Z"/><path d="M376.3,129a1.57,1.57,0,0,1-2.79-.16,15,15,0,0,1-1.21-3.54c-.17-1.28-.42-2.54-.67-3.81a8.69,8.69,0,0,0-.54-1.44c-.45.24-.93.45-1.36.72-.27.17-.44.48-.7.66-1.56,1.1-1.71,2.76-1.81,4.44,0,.34,0,.68,0,1,0,1-.29,1.2-1.33,1.28s-1-.6-1.05-1.23a14.46,14.46,0,0,1,.17-2.27c.21-1.55.46-3.09.74-4.88-.59.27-1,.45-1.4.65-.19.09-.34.25-.53.34-1.46.77-2.59,1.69-2.17,3.63a3.68,3.68,0,0,1-.19,1.88,1.52,1.52,0,0,1-1,.86c-.21,0-.79-.51-.82-.82a20.33,20.33,0,0,1-.09-6.31,23.18,23.18,0,0,0,.24-3.94c0-.7.38-1.13,1.08-1s1,.34.87,1.16a15.15,15.15,0,0,0,.14,2.87l2-1.18a8.3,8.3,0,0,1,1.78-1c1.29-.37,2,.34,2.18,2,.92-.54,1.84-1,2.69-1.59,1.06-.7,2.31.05,2.82,1.27,1,2.28.63,4.76,1.27,7.07C374.94,126.85,374.94,128.22,376.3,129Z"/><path d="M102.85,96.5a1.64,1.64,0,0,1-2.43-.41c-.73-1-1.46-1.92-2.21-2.87a5.64,5.64,0,0,0-.92-1,.64.64,0,0,0-.61.06A4.53,4.53,0,0,0,96,93.83c-.11.8.05,1.6-.55,2.33s-.93.93-2.14.34a1.46,1.46,0,0,1-.79-1.69,6.76,6.76,0,0,1,.64-1.47,2.8,2.8,0,0,0,.26-1.6c-.16-1.84-.12-3.7-.24-5.55-.09-1.47-.23-2.94-.45-4.39-.16-1.05.25-1.57,1.34-1.54a5.19,5.19,0,0,0,1.45-.33,8.76,8.76,0,0,1,4.3.24,2.81,2.81,0,0,1,1.92,3,10,10,0,0,1-2.87,5.9c-.37.42-.39.68,0,1.06a11.73,11.73,0,0,1,2.86,4.46A13.51,13.51,0,0,0,102.85,96.5ZM95.66,89.3l.24.09c.37-.5.72-1,1.11-1.49a11.16,11.16,0,0,0,2.43-4.45c.15-.59,0-.92-.54-1a9.29,9.29,0,0,0-2.15-.24c-.58,0-1.28.21-1.28.95C95.48,85.19,95.59,87.24,95.66,89.3Z"/><path d="M407.46,49.4c-.28-.84-.69-2.2-1.16-3.54-.82-2.33-1.61-4.67-2.55-6.95a16,16,0,0,0-1.9-3.23,13.94,13.94,0,0,1-2.37-6.14c-.19-1.13.62-1.66.94-2.47a2.73,2.73,0,0,1,2.44-1.76,3.35,3.35,0,0,1,1.28.28.84.84,0,0,1,.39.38c.24.42.71.93.61,1.26-.19.65-.82.48-1.39.31s-1.83,1.09-1.73,1.92a25.34,25.34,0,0,0,.68,3.42,3,3,0,0,0,.8,1.08,14.27,14.27,0,0,1,2.94,5.87c.49,1.56,1.18,3.06,1.74,4.61a50.5,50.5,0,0,1,1.74,5.24,4.78,4.78,0,0,1-1.31,4.58,2.46,2.46,0,0,1-1.17.39,4,4,0,0,1-2.83.08c-.35-.17-.86,0-1.27-.09a3.47,3.47,0,0,1-2.83-3.7c0-.17-.11-.36-.06-.51.11-.39.21-1,.45-1.09.6-.17,1,.28,1.13.88a6,6,0,0,0,.52,1.6c.64,1.05,1.67,1,2.72.77.09,0,.16-.1.25-.12C407.41,52,407.46,51.91,407.46,49.4Z"/><path d="M196.41,51l-1.64,1.66c-.74.74-1.55,1.41-2.21,2.21a9.22,9.22,0,0,1-3.42,2.72c-1.24.54-4,.16-4.79-.89a4,4,0,0,1-.44-2c-.11-1.84-.07-3.69-.23-5.52s-.12-3.92-.15-5.88c-.07-4.06-.07-8.13-.22-12.19-.06-1.52-.49-3-.66-4.54A2.91,2.91,0,0,1,182.9,25a.82.82,0,0,1,1.33-.17,3,3,0,0,1,1.12,2.2c.09,1.71.17,3.42.19,5.13,0,2.47,0,4.94,0,7.41,0,1.82.24,3.64.31,5.46.1,2.48.14,5,.22,7.45a24.72,24.72,0,0,0,.21,2.49,1.37,1.37,0,0,0,1.72.85,19.08,19.08,0,0,0,2.74-1.52c1.44-1,2.81-2,4.23-3a6.26,6.26,0,0,1,1.14-.51Z"/><path d="M243.14,81.75c-3.57,1.84-7.64,1.49-11.41,2.45v1.86a19.86,19.86,0,0,0,2.17-.22A6.53,6.53,0,0,1,239,87.26a5.3,5.3,0,0,1,2.23,6,5.61,5.61,0,0,1-4.87,3.9,16.8,16.8,0,0,1-5.32-1.3,1.14,1.14,0,0,1-.71-1.68c.2-.54.33-.53.9-.4,1.93.44,3.78,1.48,5.86.94A3.22,3.22,0,0,0,239.4,92a2.26,2.26,0,0,0-1-2.26A6.61,6.61,0,0,0,232,88.46c-.35.1-.68.22-1,.33-1,.31-1.47-.06-1.49-1.11,0-.54.11-1.07.11-1.61,0-1.29-.1-2.58-.1-3.86,0-.75.42-1,1.19-1,1.14.06,2.28,0,3.43,0h4.82c1.11,0,2.22,0,3.33,0a5.11,5.11,0,0,1,.89.17Z"/><path d="M13.26,154.72c1.81.15,2.79-.85,3.61-2.16a18.5,18.5,0,0,0,1.55-2.19,22.38,22.38,0,0,0,1.8-5.22,25.94,25.94,0,0,0-.21-5.23c0-.43-.06-.86-.06-1.28,0-1.57,0-3.15,0-4.72,0-2.61,0-5.23-.21-7.83-.13-1.79-.6-3.56-.89-5.34a24.37,24.37,0,0,1-.35-2.74,1.12,1.12,0,0,1,1-1.34c1-.13,1.22.55,1.32,1.17q.64,4,1.13,8c.2,1.67.32,3.36.36,5,0,1.29-.14,2.59-.15,3.89,0,.78.15,1.56.16,2.34,0,1.79-.08,3.58,0,5.37a15.69,15.69,0,0,1-.21,4.6,11.33,11.33,0,0,1-1.86,4.41,33.94,33.94,0,0,1-2.27,2.8c-.8.85-1.71,1.56-3,1.18-.14,0-.34.11-.51.13C13.89,155.67,13.4,155.55,13.26,154.72Z"/><path d="M419.1,50.2c0,.75,0,1.51,0,2.26A1.41,1.41,0,0,1,417.74,54c-1.51.06-3,.65-4.58-.06a3,3,0,0,1-1.61-3.11c.05-.17.36-.42.49-.39a1.42,1.42,0,0,1,.76.46c.19.25.17.69.39.89a3.15,3.15,0,0,0,1.18.6c.23.07.52-.1.78-.15,1.5-.29,1.65-.62,1.39-2.16-.32-1.9-.37-3.86-.82-5.72a23.07,23.07,0,0,0-1.82-4.57c-.83-1.69-1.83-3.29-2.74-4.94-.62-1.13-1.24-2.26-1.83-3.4a4.14,4.14,0,0,1,.67-4.54c.15-.16.3-.31.46-.46,1.42-1.41,1.87-1,3.27-.32a9.26,9.26,0,0,1,.93.72c.71.49,1,.93.24,1.71s-.85.78-1.4,0c-.15-.22-.55-.49-.71-.43-.38.16-.88.43-1,.78a2.9,2.9,0,0,0,.27,2.65c1.61,2.57,3.18,5.18,4.53,7.89a17.9,17.9,0,0,1,1.77,7.21,11.82,11.82,0,0,0,.43,2.09c.12.49.27,1,.4,1.46Z"/><path d="M290,54.27c1.21,0,2.29,0,3.36,0,1.61,0,3.22.13,4.66-.85a1.31,1.31,0,0,1,1,0c-1.21,1.7-2.67,2.9-4.8,2.91a6,6,0,0,0-3,.68,2.73,2.73,0,0,1-3.13-.18,1.34,1.34,0,0,1-.43-.92c0-.84.09-1.69.08-2.53,0-2.87,0-5.74-.14-8.6-.13-2.13-.6-4.24-.87-6.36-.23-1.83-.37-3.68-.58-5.51-.15-1.35-.37-2.69-.52-4-.1-.89-.15-1.78-.21-2.67,0-.64,0-1.25.79-1.42a1.38,1.38,0,0,1,1.57,1.08c.1.7,0,1.42,0,2.13.07,1.21.14,2.43.28,3.63.24,2.08.55,4.15.81,6.23.29,2.35.59,4.7.82,7.05.11,1.14.06,2.29.11,3.43,0,.57.17,1.14.18,1.71,0,1.09,0,2.19,0,3.29C290,53.67,290,54,290,54.27Z"/><path d="M181.77,89.7c.21-2.76-.65-5.29-.43-7.82,1.8-.2,2.26.18,2.35,1.82.19,3.31.38,6.63.55,9.94.05,1,0,2,0,3.06,0,.87-.82.54-1.26.72a1.71,1.71,0,0,1-.58-.84,11.48,11.48,0,0,1-.36-2.5,3.2,3.2,0,0,0-1.14-2.27c-1.51-1.61-2.95-3.29-4.41-4.94-.18-.21-.34-.44-.5-.66l-.26.1q0,2.37,0,4.74c0,1.06,0,2.11,0,3.17a6.57,6.57,0,0,1-.22,1.89c-.09.28-.6.47-1,.58-.08,0-.43-.44-.45-.69-.23-2.23-.37-4.47-.61-6.71-.19-1.81-.46-3.61-.7-5.41-.15-1.12.53-1.56,1.65-1.58,2,0,2.74,1.44,3.69,2.73C179.29,86.57,180.48,88,181.77,89.7Z"/><path d="M34.36,89c1.14.48,2.19,1,3.28,1.35a4.16,4.16,0,0,0,1.48,0c.42,0,.83-.08,1.36-.13-.94,2-2.33,2.64-4.2,2-.23-.07-.47-.11-.7-.17-.9-.22-1.22.1-1,1,.15.61.3,1.22.49,1.82.3.93.72,1.2,1.65,1,1.72-.4,3.45-.8,5.14-1.29a16.76,16.76,0,0,0,2.06-1,3.35,3.35,0,0,1,.78-.15c0,.34.1.8-.07,1a7.27,7.27,0,0,1-1.87,1.55,34.91,34.91,0,0,1-4.21,1.73,18.78,18.78,0,0,1-2.72.56,2.59,2.59,0,0,1-2.41-1.57c-.36-1.11-.62-2.25-.94-3.37-.12-.41-.32-.79-.47-1.2a3.89,3.89,0,0,1,.08-2.17,25.51,25.51,0,0,0,.38-3.33c.1-1.54.14-3.07.19-4.61a1.73,1.73,0,0,0-.1-.71.87.87,0,0,1,.85-1.29,13.3,13.3,0,0,0,2.31,0,14.32,14.32,0,0,1,7.17.6c.33.12.56.5.83.76-.36.17-.75.53-1.07.48-2.35-.4-4.53.45-6.77.83-.64.11-1,.39-1,1.31a22.12,22.12,0,0,1-.46,3.94C34.42,88.25,34.39,88.68,34.36,89Z"/><path d="M78.51,29c-.33.33-.49.62-.7.66-.85.17-1.72.28-2.59.39a18.06,18.06,0,0,0-1.8.22.8.8,0,0,0-.47.61c.08,2.25.23,4.5.33,6.76.06,1.28,0,2.56.1,3.84s.21,2.55.24,3.82c.05,2,0,4.09.08,6.14a14.34,14.34,0,0,0,.34,2c.05.3.12.59.17.88.14.71-.3,1.34-.83,1.25a2.11,2.11,0,0,1-1.5-1.16,29,29,0,0,1-.59-4.69c-.06-.91.16-1.84.14-2.76,0-1.41-.2-2.82-.28-4.23-.1-1.8-.17-3.59-.26-5.39-.12-2.25-.22-4.51-.4-6.75a1.1,1.1,0,0,0-.82-.69c-1.88,0-3.76.2-5.65.28a1.22,1.22,0,0,1-1.21-1.58,1,1,0,0,1,.79-.44c2.17-.09,4.34-.12,6.51-.19a.73.73,0,0,0,.43-.23,1.29,1.29,0,0,1,2.09.16,1.62,1.62,0,0,0,1,.58C75.16,28.77,76.7,28.87,78.51,29Z"/><path d="M219,119.37a5.24,5.24,0,0,0-1.2.33,18.83,18.83,0,0,0-2.88,1.85c-.35.3-.37,1-.42,1.6a8.4,8.4,0,0,0,.23,1.14c0,.62.1,1.31-.63,1.62-1,.44-1.29.27-1.59-.81a10.49,10.49,0,0,1-.07-5.3,7.28,7.28,0,0,0,0-1.63c0-.51,0-1,0-1.52a1,1,0,0,1,1.15-1c.45.12.85.75,1.1,1.24a5.67,5.67,0,0,1,.26,1.58,9.25,9.25,0,0,0,1.07-.62,5.16,5.16,0,0,1,4-1,.55.55,0,0,1,.32.15c.78.85,1.51.42,2.3,0a8.09,8.09,0,0,1,1.76-.64c.44-.13,1.66.91,1.75,1.47a23.48,23.48,0,0,1,.53,3.32c0,1.14-.25,2.28-.32,3.43,0,.76.13,1.53.07,2.29a1.71,1.71,0,0,1-.55,1.22c-.53.3-1.51-.38-1.54-1-.05-1.17,0-2.35,0-3.52s.13-2.15.17-3.22a.91.91,0,0,0-1.34-.85,10.13,10.13,0,0,0-1.08.66,2.18,2.18,0,0,0-.77,2.33,6.46,6.46,0,0,1-.11,1.52c-.09.76-.71.71-1.18.6a1.36,1.36,0,0,1-.83-.72,4.57,4.57,0,0,1-.21-1.51C218.94,121.4,219,120.46,219,119.37Z"/><path d="M380.91,91.59c0,.47.29,1.14.08,1.35a4.57,4.57,0,0,1-1.9,1.18c-1.58.44-3.21.71-4.83,1-.65.13-1.31.21-2,.3-1.13.15-1.59-.23-1.73-2.05-.24-3-.32-6-.47-9,0-.6-.12-1.2-.1-1.79a1,1,0,0,1,1.51-.86,2.76,2.76,0,0,0,1.12.23c1.5,0,3-.17,4.5-.16,1.83,0,3.66.16,5.49.25.08.57-.2.88-.9,1-1.46.29-2.9.66-4.37.9-1.28.21-2.59.3-3.89.38-.73,0-1.14.16-.92,1.07a4.4,4.4,0,0,1-.07,1.72c-.13.77,0,1,.85.92,1-.08,1.94-.16,2.91-.17a6.75,6.75,0,0,1,2,.21c.33.1.54.57.81.87-.29.24-.55.62-.88.71-1,.26-2.06.42-3.1.59a11.06,11.06,0,0,1-1.71.18c-.55,0-.82.19-.75.76a3.9,3.9,0,0,0,.23,1.41,1.24,1.24,0,0,0,1,.4c1.19-.15,2.37-.39,3.55-.64S379.64,91.88,380.91,91.59Z"/><path d="M291.28,80.34c.89-.3,1.6-.58,2.32-.78a1.07,1.07,0,0,1,1.4.87,68.27,68.27,0,0,1,1.45,7.24,14.68,14.68,0,0,1-.85,7.27c-.8,2-4,3.47-5.55,1.71a5.91,5.91,0,0,1-1.68-3.05c-.15-1.07-.4-2.13-.58-3.2a14.63,14.63,0,0,1,.13-6c.24-1,.51-2,.84-2.93a2.68,2.68,0,0,1,.71-1C290.17,79.78,290.69,79.81,291.28,80.34Zm-1.89,7.06c.22,1.9.38,3.63.63,5.35a5.4,5.4,0,0,0,.56,1.51c.75,1.57,2.21,1.5,3.27.22a5.9,5.9,0,0,0,1.13-4c0-2.16-.3-4.31-.55-6.45a11.45,11.45,0,0,0-.66-2.11l-.44,0a11.38,11.38,0,0,0-1.39,2.1c-.4,1-.49,2.16-.82,3.21-.13.4-.54.71-.83,1.06Z"/><path d="M99.66,126.87c-.13-.08-.44-.26-.73-.46-.53-.37-1-.65-1.68-.14s-1.62,1-2.4,1.51c-1.27.89-2.86.15-3.08-1.61-.31-2.49-.57-5-.74-7.5-.15-2.2-.12-4.41-.22-6.62a9.48,9.48,0,0,0-.33-1.59c-.24-1.11.4-2.14,1.3-2.09a2.73,2.73,0,0,1,1.4,1.55c0,.59.06,1.18,0,1.76-.09,1.42-.3,2.84-.33,4.26s.08,2.68.17,4,.24,2.41.35,3.62c.26,2.85.33,2.86,2.69,1.72,1.33-.65,1.33-.92,1.23-2.42s.08-2.86.12-4.29c0-.23-.11-.46-.12-.69a5,5,0,0,1,.07-1.52c.05-.17.65-.3,1-.23.46.1.64.46.89.95.87,1.7,0,3.38.27,5,.06.32.26.6.34.92a1.78,1.78,0,0,1,.05.73c-.12.74.29,1.21,1,1a17.81,17.81,0,0,0,1.59-.88c.2-.1.65-.12.69,0a1,1,0,0,1,.07.81A4.25,4.25,0,0,1,99.66,126.87Z"/><path d="M27.75,94.77a7.11,7.11,0,0,0,1.4-4,28.35,28.35,0,0,0,.18-4.2c-.06-1.35-.34-2.69-.51-4-.14-1.18-.3-2.36-.36-3.55a1,1,0,0,1,.53-.78c.31-.11.9-.06,1,.15a7.65,7.65,0,0,1,.79,1.77,4.43,4.43,0,0,1,.07,2.2,18.16,18.16,0,0,0,.3,2.77,39.6,39.6,0,0,1-.08,4.9,26.88,26.88,0,0,1-.87,4.41,7.65,7.65,0,0,1-1.09,2,1.5,1.5,0,0,1-2,.41A7.52,7.52,0,0,1,23.51,93a14.6,14.6,0,0,1-.6-4c-.13-1.52-.15-3-.19-4.57,0-1.34,0-2.67,0-4,0-.84.54-1.61,1.13-1.61s1.26.93,1.26,1.64c0,1,0,2.06,0,3.09,0,1.32-.14,2.64-.17,4a8.63,8.63,0,0,0,.18,1.9c.25,1.2-.17,2.56.81,3.57C26.5,93.62,27.12,94.17,27.75,94.77Z"/><path d="M201.82,52.18c.84.14,1,.75.9,1.54a13.1,13.1,0,0,1-.31,2.69c-.12.34-1,.57-1.5.59s-.81-.3-.86-1c-.1-1.52-.46-3-.64-4.55-.06-.56.16-1.14.14-1.71,0-1.65-.13-3.3-.17-4.94-.08-3.15-.1-6.3-.2-9.45-.07-2.28-.22-4.57-.37-6.85a1.37,1.37,0,0,1,1-1.52c.48-.16,1.31.69,1.39,1.36s.14,1.52.18,2.28c.07,1.49.18,3,.18,4.48,0,2.26-.14,4.53-.16,6.79,0,1.34.13,2.69.16,4s0,3,0,4.45C201.63,50.93,201.74,51.48,201.82,52.18Z"/><path d="M84,126.08c-1.45.83-2.84,1.68-4.28,2.41-1.24.63-2.43.08-3.57-.45a1.12,1.12,0,0,1-.42-.67c-.84-2.86-.84-3.23,2.12-5.3,1.69-1.18,3.42-2.3,5.19-3.36a2.79,2.79,0,0,1,2.52-.62c1.22.44,1.45,1.11,1.13,2.36a23.49,23.49,0,0,0-.67,4.36c-.07,1.11.57,1.6,1.88,1.84a2.67,2.67,0,0,1,.71.38c-.23.2-.44.54-.68.57a7.11,7.11,0,0,1-2.62.06c-.51-.14-.84-1-1.25-1.47C84,126.12,83.94,126,84,126.08Zm.05-4.6-.18-.23a7.23,7.23,0,0,0-.79.35c-.86.5-1.7,1-2.55,1.54a18.67,18.67,0,0,0-2.45,1.49,1.73,1.73,0,0,0-.55,1.46c.23.71,1,.7,1.65.49A7.49,7.49,0,0,0,84,121.48Z"/><path d="M300.93,29.25c0,2.82,0,5.63,0,8.45,0,1.47-.18,2.94-.14,4.4s.26,2.92.41,4.38c.09.85.19,1.71.3,2.56q.23,1.79.47,3.59a6.19,6.19,0,0,1,.22,1.93,2.09,2.09,0,0,1-1.06,1.16c-.42.22-1.42-.66-1.47-1.22-.2-2.27-.38-4.54-.56-6.81s-.43-4.72-.52-7.08c-.06-1.66.15-3.32.15-5,0-2-.12-3.94-.2-5.9,0-1.13-.15-2.26-.14-3.39,0-.44.22-1,.83-.83s1.37-.14,1.44.81.1,2,.15,2.93Z"/><path d="M166.8,83c-.25,2.6-.44,4.79-.67,7-.16,1.57-.26,3.15-.56,4.7a3.55,3.55,0,0,1-2.4,2.38c-1.55.68-2,.62-2.85-.92a16,16,0,0,1-1.17-3.64c-.51-2,.07-4,.33-6,.12-.93.26-1.85.38-2.78a1,1,0,0,1,1.16-.91A1.06,1.06,0,0,1,162.1,84c-.05.72-.1,1.44-.19,2.15-.23,1.85-.58,3.7-.69,5.56a8.35,8.35,0,0,0,.53,2.63c.07.24.46.59.63.56a1.47,1.47,0,0,0,1-.59,8.53,8.53,0,0,0,.74-2.37c.21-1.56.29-3.14.4-4.72.08-1.28.14-2.57.16-3.85a5.71,5.71,0,0,0-.28-1,4,4,0,0,1-.17-1.48A1.25,1.25,0,0,1,165,80a1.21,1.21,0,0,1,1,.53A21.09,21.09,0,0,1,166.8,83Z"/><path d="M326.59,122.52c-.24.5-.3.84-.5,1-2,1.74-4,3.53-6.93,3.51a2.19,2.19,0,0,1-2.18-1.48,15.06,15.06,0,0,1-.87-3.65c-.36-3.34.26-6.63.7-9.92.16-1.17.24-2.35.39-3.52.1-.8.26-1.6.36-2.4s.14-1.33.18-2c0-.45,0-.88.63-.88s1.32,0,1.38.82a17.23,17.23,0,0,1-.09,2.92c-.24,2.25-.53,4.49-.8,6.73a6.06,6.06,0,0,1-.23,1.42,11.2,11.2,0,0,0-.47,5,23.76,23.76,0,0,0,.75,4.06c.09.34.72.84,1,.78a14.56,14.56,0,0,0,5.69-2.09A3.77,3.77,0,0,1,326.59,122.52Z"/><path d="M421.42,90.93c-.34-.18-.69-.35-1-.55-1.39-.82-2.76-1.7-4.18-2.47-1.63-.88-2.57-2.14-2.27-3.55a4.29,4.29,0,0,1,2.8-3,14.44,14.44,0,0,1,3.63-.63,1,1,0,0,1,.8.52,2,2,0,0,1-1.27,2.62.73.73,0,0,1-.48-.05,2.31,2.31,0,0,0-3,.78c-.07.14.12.53.29.65,1.58,1,3.22,2,4.78,3.06a4,4,0,0,1,2,3.52A1.25,1.25,0,0,1,422.8,93a12.08,12.08,0,0,1-2.14.71c-1.15.26-2.31.4-3.47.63a4,4,0,0,1-3.42-1.32.74.74,0,0,1,.88-1.09,11.47,11.47,0,0,0,6.46-.62Z"/><path d="M117.24,121.3a12.56,12.56,0,0,1,.42-3,6.24,6.24,0,0,1,1.62-1.8,2.54,2.54,0,0,1,.72-.38,1,1,0,0,1,1.44.34,11.67,11.67,0,0,1,2.35,5,1.35,1.35,0,0,1-1.08,1.66c-.74.12-1.48.22-2.21.38-.34.08-1-.08-.81.58a1.69,1.69,0,0,0,1,.85,2.21,2.21,0,0,0,1.36,0c1.44-.5,3.15-.22,4.32-1.52.07-.08.56.08.72.25a.84.84,0,0,1,.17.75,2,2,0,0,1-.76.78,12.15,12.15,0,0,1-5.91,2,2.88,2.88,0,0,1-3.13-2.3,1.68,1.68,0,0,0-1.69-1.43c-.83-.08-.86-.86-.9-1.46s.48-.76,1-.74S116.68,121.3,117.24,121.3Zm2.13,0a13.28,13.28,0,0,0,1.63-.18,1,1,0,0,0,.63-.47c.11-.32-1-1.55-1.52-1.68Z"/><path d="M362.34,90.4c-.46,1.5-.81,2.75-1.23,4-.09.27-.4.46-.61.68-.28-.31-.83-.64-.81-.94a19.76,19.76,0,0,1,.5-3.38c.21-.89.62-1.74.89-2.62a1.29,1.29,0,0,0-.06-.8c-.62-1.55-1.34-3.07-1.88-4.65a2,2,0,0,1,.25-1.7c.34-.38,1.07-.17,1.49.32a1.69,1.69,0,0,1,.25.55c.38,1.16.75,2.31,1.13,3.48l4-4.53c.71-.8,1.16-.9,1.71-.38a1.52,1.52,0,0,1-.12,2.12c-.83.82-1.7,1.61-2.46,2.49a13.06,13.06,0,0,0-1.56,2.31,1.5,1.5,0,0,0,0,1.22c1.05,2,1.93,4,3.54,5.68.22.23.07.82.1,1.24-.45,0-1,.12-1.32-.08-1.61-.93-2.3-2.6-3.18-4.12C362.8,91.07,362.64,90.86,362.34,90.4Z"/><path d="M189.33,83.82a22.14,22.14,0,0,1-2.93,0,1.75,1.75,0,0,1-1.22-.85,2.51,2.51,0,0,1,.11-1.61c.06-.18.64-.23,1-.26,1.28-.09,2.56-.14,3.85-.21.88,0,1.76-.16,2.64-.16a18,18,0,0,1,2.55.19,14.09,14.09,0,0,1,1.79.51v.86c-1.47.26-2.94.52-4.42.76-.69.11-.91.47-.89,1.17.15,4.34.26,8.68.39,13,0,.51-.1,1-.67,1a1.76,1.76,0,0,1-1.13-.51c-.21-.22-.2-.68-.23-1-.08-1.22-.11-2.44-.2-3.66-.11-1.57-.27-3.15-.35-4.72,0-.86.09-1.73,0-2.59A13.54,13.54,0,0,0,189.33,83.82Z"/><path d="M106.44,119.58c1-.55,1.83-1.09,2.74-1.57a6.64,6.64,0,0,1,1.9-.75c1-.16,1.48.28,1.69,1.63.26,1.64.41,3.3.58,5,.09.91.11,1.82.2,2.73a1.06,1.06,0,0,0,.28.63c.48.45.69.88.08,1.37s-1.57.41-1.82-.24a13.25,13.25,0,0,1-.58-2.53c-.33-1.92-.62-3.85-.93-5.77a6.44,6.44,0,0,0-3.63,2.5,6.11,6.11,0,0,0-.41,2.63c-.06.71,0,1.43-.05,2.13,0,.17-.46.47-.52.43-.4-.25-1-.54-1.06-.9a30.73,30.73,0,0,1-.41-3.88c-.1-1.69-.19-3.38-.15-5.07,0-.55.24-1.25,1.16-1.22s.81.62.83,1.19S106.4,118.88,106.44,119.58Z"/><path d="M23.7,121.3l-.58,2.27c-.78,0-1-.3-1-1a7.23,7.23,0,0,1,4.1-7,5.08,5.08,0,0,1,2-.54c.75-.07,1.41.75,1.52,1.64.24,1.95.61,3.88.69,5.84.05,1.32.44,2.77-.68,3.94a4.07,4.07,0,0,1-2.94,1.61c-1.09,0-1.65-1-1.9-1.92-.41-1.59-.71-3.21-1.05-4.81Zm3.12,4.88c2.28-1,1.92-1.56,1.84-3.31-.05-1.2,0-2.41-.09-3.6-.06-.62-.25-1.52-.67-1.73s-1.29.09-1.83.39a1.41,1.41,0,0,0-.55,1.66c.22,1,.31,2.08.51,3.11S26.54,125,26.82,126.19Z"/><path d="M105.79,96a2.89,2.89,0,0,1-3-2.68c.08-1.85.21-3.71.16-5.56s-.28-3.56-.43-5.35a2.88,2.88,0,0,1-.07-1c.09-.31.37-.77.6-.8.43,0,1.2.07,1.29.31a18.63,18.63,0,0,1,.91,3.42,15.11,15.11,0,0,1,.11,2.72c0,.94-.13,1.89-.15,2.83s0,1.91,0,2.86a.6.6,0,0,0,.78.64c.82-.17,1.64-.35,2.46-.54.2,0,.41-.21.59-.18.49.07,1.14-.34,1.43.4s-.4.85-.82,1.14A8.07,8.07,0,0,1,105.79,96Z"/><path d="M283.21,92.65c0-2.42,0-4.85,0-7.27a15.75,15.75,0,0,0-.48-2.37,16.85,16.85,0,0,1-.38-2.56,1.15,1.15,0,0,1,.72-.83c.54-.14,1.25-.14,1.44.59.61,2.33,1.38,4.63,1.13,7.11-.19,1.91-.28,3.82-.37,5.73a11,11,0,0,0,.17,1.8.92.92,0,0,1-.94,1.1,1.58,1.58,0,0,1-1.23-.77,12.16,12.16,0,0,1-.32-2.51Z"/><path d="M225.15,80.87c1.38,0,1.33,1,1.51,1.68a22.86,22.86,0,0,1,.59,3.79c.08.82,0,1.67,0,2.5.1,1.27.32,2.52.4,3.79.12,1.65.17,3.3.2,4.95,0,.15-.44.44-.67.43s-.76-.2-.83-.42a14.18,14.18,0,0,1-.44-2.21c-.25-1.67-.49-3.34-.7-5-.14-1.11-.25-2.22-.35-3.34s-.09-1.95-.19-2.92c-.08-.75-.32-1.48-.37-2.23A.91.91,0,0,1,225.15,80.87Z"/><path d="M214.6,79.94c1.41,0,1.68.36,1.8,1.59.08.86.39,1.69.54,2.55.26,1.48.43,3,.74,4.44.22,1,.67,2,.91,3s1.13,2,.71,3.19a2.15,2.15,0,0,1-.89,1.07c-.49.27-.65-.26-.78-.61-.41-1.09-.84-2.17-1.19-3.28-.51-1.63-1.06-3.26-1.42-4.92-.44-2-.72-4-1-6C213.89,80.34,214.19,80,214.6,79.94Z"/><path d="M170.5,85.1c.28,2.5.57,5,.82,7.49.11,1.12.16,2.25.19,3.37a1.57,1.57,0,0,1-1.38,1.49,1,1,0,0,1-.8-.58,10.78,10.78,0,0,1-.06-1.75c0-.82-.09-1.63-.18-2.45-.29-2.52-.6-5-.9-7.54-.07-.63-.13-1.26-.19-1.9s.24-1.22.91-1.22a1.33,1.33,0,0,1,1.48,1.05c.12.67.16,1.35.23,2Z"/><path d="M309.5,120.16c-.08-.6-.15-1.19-.25-1.79a1.63,1.63,0,0,1,1.3-1.68c.6,0,1,.51,1.09,1.31a33.63,33.63,0,0,0,.44,4.63c.16.74.38,1.74,1.46,2,.33.09.85.59.8.8a2.17,2.17,0,0,1-.82,1.15c-.47.34-2.49-.55-2.79-1.15A10.15,10.15,0,0,1,309.5,120.16Z"/><path d="M247.55,46.27c.11,1-.52,1-1,1.13a1.46,1.46,0,0,1-1-.15c-1.3-.73-2.64,0-4-.15a.93.93,0,0,0-.54.27,3.18,3.18,0,0,1-2.62.38c-.23,0-.59-.69-.53-1,.08-.47.38-1.17.74-1.27,1.82-.56,3.7-1.16,5.63-.76a15.69,15.69,0,0,1,3,1.16C247.49,45.94,247.55,46.26,247.55,46.27Z"/><path d="M267.94,90.19a9.88,9.88,0,0,1-7.21,1.23c-.16,0-.34.11-.51.14a1.51,1.51,0,0,1-1.92-1.33c0-.48.92-1.3,1.64-1.23,1.74.17,3.48.42,5.21.65.57.07,1.13.16,1.69.26C267.21,90,267.57,90.1,267.94,90.19Z"/><path d="M329.63,123.22c-.09.44,0,1-.3,1.28s-1.11.74-1.25.61a4.79,4.79,0,0,1-1-1.59c-.1-.21.11-.56,0-.79a1,1,0,0,1,.69-1.4,1.24,1.24,0,0,1,1.74,1,5.82,5.82,0,0,1,0,.92Z"/><path d="M20.06,109.88l-.66,1.71c-1,.33-1.53,0-1.83-1.44-.08-.38-.52-1,.14-1.28a1.4,1.4,0,0,1,1.75.24C19.72,109.41,19.94,109.73,20.06,109.88Z"/><path d="M136.25,124.58a1.49,1.49,0,0,1-1.15,1.51,1.44,1.44,0,0,1-1.25-1.22c-.07-.94.5-1.91,1.12-1.91S136.22,123.78,136.25,124.58Z"/><path d="M34.16,124.07a1.82,1.82,0,0,1,1.45,1.34,1.6,1.6,0,0,1-1.26,1.43,1.41,1.41,0,0,1-1.3-1.22C33,124.42,33.29,124.06,34.16,124.07Z"/><path d="M65.17,126.75c0-1.34.4-1.94,1.08-1.94a1.7,1.7,0,0,1,1.31,1.37c0,.58-.89,1.49-1.52,1.34C65.65,127.43,65.34,126.91,65.17,126.75Z"/><path d="M169.29,74.28c0,.53-.72,1.35-1.19,1.19a2.47,2.47,0,0,1-1.32-.92c-.25-.45.63-1.58,1.09-1.62A1.48,1.48,0,0,1,169.29,74.28Z"/><path d="M312.49,109.29c.86,0,1.11.52,1.18,1.16s-.63,1.48-1.2,1.43c-.91-.09-.75-.85-.81-1.44S311.76,109.28,312.49,109.29Z"/><path d="M100.49,111.72c.8.12,1.19.3,1.25,1,0,.35.22.69.26,1a.57.57,0,0,1-.22.48c-.69.29-2.25-.92-2-1.62C99.84,112.27,100.23,112,100.49,111.72Z"/></g></g></svg>