<svg xmlns="http://www.w3.org/2000/svg" viewBox="0 0 238.2 213.77"><title>Asset 11</title><g id="Layer_2" data-name="Layer 2"><g id="Layer_13" data-name="Layer 13"><path d="M93.2,60.06l-3,1.94a54.24,54.24,0,0,0,4.89,3c2.14,1,4.4,1.77,6.6,2.65a95.41,95.41,0,0,1,9.78,4c3.8,2,7.36,4.55,11,6.94a45.28,45.28,0,0,1,5.37,4c3,2.67,5.67,5.64,8.68,8.26a32.47,32.47,0,0,1,7.34,10.28c1.77,3.54,4.52,7.1,3.66,11.49-.18.93-2.08,2.46-2.36,2.29a9,9,0,0,0-5.82-1.51c-.25,0-.53-.28-.8-.44l.63-.31c-1.43-3.4-2.67-6.9-4.35-10.17a46.06,46.06,0,0,0-5.48-8.59,80.24,80.24,0,0,0-9.16-9.16,68.16,68.16,0,0,0-8.91-6.2c-1.75-1.07-3.84-1.56-5.7-2.45S102,73.71,100,73.2c-6.18-1.61-12.39-3.57-18.7-4.09-5.71-.47-11.63.39-17.34,1.33-8.87,1.46-17,5.22-25,9.28a106.72,106.72,0,0,0-12.89,7.49c-2,1.38-3.27,3.84-4.55,6-1.7,2.86-3,5.93-4.61,8.87-1.37,2.56-3.43,4.92-4.14,7.64-1.15,4.4-1.46,9-2.06,13.54-.16,1.21.12,2.48-.11,3.66a41.17,41.17,0,0,0,.91,18,89,89,0,0,0,8.57,22.64,74.64,74.64,0,0,0,8.34,11.68,39.14,39.14,0,0,0,8.91,8.06c5.89,3.6,11.57,7.73,18.59,9.2,3.56.75,6.91,2.54,10.48,3.12a71.37,71.37,0,0,0,12.48.64c3.43-.05,6.85-.67,10.28-1a28,28,0,0,0,10.37-3.1c4.66-2.43,9.73-4.14,14.23-6.82a142.21,142.21,0,0,0,15.14-10.65c2-1.61,3.52-4.06,5-6.31a93.56,93.56,0,0,0,5.38-9.46c.73-1.5.67-3.37,1.14-5,.55-1.94,1-4,3.09-5a16.55,16.55,0,0,1,2.06-.68c.21.84.73,1.75.57,2.5-.43,1.91-1.16,3.74-1.88,5.93l2.3-.23c2.4,1.56,1.55,3.24.6,5.21-1.47,3-2.23,6.43-3.93,9.29a73.36,73.36,0,0,1-12.76,15.89,55.44,55.44,0,0,1-15.78,10.75c-5.65,2.47-11.38,4.78-17.22,6.74a148.14,148.14,0,0,1-18.84,5.28c-3.43.66-7.21-.1-10.77-.61a98.91,98.91,0,0,1-12-2.5c-5.78-1.59-11.59-3.19-16.47-7-1.29-1-3.07-1.39-4.48-2.29A50.86,50.86,0,0,1,19.17,186.3c-3.56-5.41-7.08-10.81-9.62-16.79A60.35,60.35,0,0,0,7,163.93c-.76-1.38-2.06-2.49-2.66-3.91a28.46,28.46,0,0,1-1.67-5.95c-.58-3.13-1.07-6.28-1.35-9.45C.9,140.34.77,136,.49,131.74.38,130.14,0,128.55,0,127s.34-3.1.49-4.65c.25-2.48.55-5,.67-7.45a46.63,46.63,0,0,1,5.23-19,81.85,81.85,0,0,1,10.5-15.29c2.68-3.21,5.2-7,8.66-9,4.8-2.81,8.92-7,14.87-7.9,3.11-.46,6-2,9.14-2.69A100,100,0,0,1,60.51,59.2q7.3-.79,14.64-1.15c5.1-.26,10.27-.68,15.15,3.29-1.93-4.4-.56-7.81.63-11.23.88-2.53,1.71-5.07,2.7-7.56a71.54,71.54,0,0,1,3.44-7.81,59.4,59.4,0,0,1,5.15-8,65.89,65.89,0,0,1,6.5-7c3-2.84,6-5.54,9.17-8.2A25.31,25.31,0,0,1,121.8,8.9a37.44,37.44,0,0,1,4.3-2.14,11.18,11.18,0,0,1,3.68-1,17.24,17.24,0,0,0,6.66-1.92c1.94-.89,4.3-.92,6.49-1.16,3.21-.34,6.48-.34,9.66-.82,5-.75,9.88-2.06,14.93-1.78A30.09,30.09,0,0,1,175,1.59,103.45,103.45,0,0,1,186.63,6c4.17,1.93,8.15,4.27,12.17,6.52a30.49,30.49,0,0,1,4,2.76c3.89,3.09,7.82,6.13,11.55,9.4a30.48,30.48,0,0,1,3.76,4.78c1.26,1.66,2.62,3.27,3.71,5a72.84,72.84,0,0,1,8.26,17.4c2.2,7.42,5,14.68,6.89,22.18,1.46,5.85,1.91,11.9-.28,17.88-.75,2.06-.5,4.47-.84,6.7a12.15,12.15,0,0,1-1.08,2.56c-1.43-2.6.49-5.39-1.69-7.88-1.84,9.69-6.62,17.58-11.37,25.44a59.06,59.06,0,0,1-6.77,8.66,72.86,72.86,0,0,1-9,8.94,36.28,36.28,0,0,1-9.22,4.93A110.64,110.64,0,0,1,184,145.13c-2.39.61-5.07,1.36-7.37.88-6.46-1.35-12.75,1.76-19.17.27-1.46-.34-3.13.33-4.69.24-7.12-.43-14-1.71-20.42-5.12-2.62-1.39-5.58-2.1-8.32-3.28-1-.44-1.76-1.53-2.77-2-5.3-2.54-9.6-6.33-13.62-10.51-4.69-4.88-9.87-9.38-14-14.69a33,33,0,0,1-6.23-14c-.7-3.69-1.3-7.41-1.65-11.14-.09-1,.93-2.07,1.44-3.12,1.08.6,2.73,1,3.11,1.85a16.11,16.11,0,0,1,.86,5.42,31.8,31.8,0,0,0,3.85,13.33c.78,1.49,1.12,3.3,2.16,4.54,3.17,3.77,6.41,7.5,9.94,10.94a126.33,126.33,0,0,0,13.19,11.65c3.55,2.6,7.85,4.19,11.82,6.23l.33-.55c-2.48-1.8-5-3.51-7.43-5.43-4.32-3.48-8.6-7-12.78-10.68a40.13,40.13,0,0,1-4.63-5.07c-3-3.71-6-7.41-8.76-11.31-1-1.39-1.11-3.36-1.7-5-1.38-3.88-3-7.71-4.16-11.64-.8-2.58,1-5.41,3-5.33,1.35.05,2.73.59,2.13,2.22-1.14,3.1.23,5.66,1.25,8.37.84,2.25,1.26,4.7,2.4,6.77a68.7,68.7,0,0,0,5.86,8.77,67.54,67.54,0,0,0,7.46,8.52c3.28,3,7,5.59,10.53,8.32a100.53,100.53,0,0,0,8.5,6.29,43.1,43.1,0,0,0,8.34,3.83,106.83,106.83,0,0,0,14.2,4.25c4.6.91,9.39.79,14.06,1.37,3.51.44,6.93.48,10.23-.83,5.34-2.12,10.9-3.77,15.5-7.47.95-.76,2.55-.71,3.48-1.48a57.74,57.74,0,0,0,7.7-7.07c3.88-4.63,7.51-9.48,11-14.43a78,78,0,0,0,7.56-12.41,53,53,0,0,0,3.56-12.78c.91-5.33,1.34-10.93-.09-16.12-1.13-4.11-3.59-7.93-5.88-11.62a106.25,106.25,0,0,0-7.5-10.15c-1.51-1.89-3.37-3.48-5-5.26s-3.26-3.75-5-5.56a80.57,80.57,0,0,0-7-7.12,74.6,74.6,0,0,0-11-7.94c-5.59-3.1-11.89-4.24-18.21-5-1.51-.19-3-.36-4.53-.59-8.52-1.29-17-1.47-25.27,1.34a90.54,90.54,0,0,1-9.33,2.65,21.37,21.37,0,0,0-10.83,6.5c-5.18,5.37-10.42,10.69-15.31,16.32a19.2,19.2,0,0,0-3.58,7.24,91.06,91.06,0,0,0-2,10.93,2.54,2.54,0,0,1-3.44,2.14C94.9,61.12,94.12,60.58,93.2,60.06ZM96.49,47l.46.16c1.35-2.68,2.58-5.44,4.07-8,3.62-6.31,8.88-11.35,14.09-16.2,3.62-3.37,7.09-7.41,12.46-8.64,4.51-1,8.71-3.26,13.43-3.61a18.56,18.56,0,0,0,3.29-.94A15.24,15.24,0,0,1,147.43,9q5-.24,10.07-.24a38.69,38.69,0,0,1,6.09.34c4.92.78,9.79,1.82,14.71,2.61a37.35,37.35,0,0,1,15.11,5.95c4.73,3.22,8.72,7.55,13,11.45,1.16,1.06,2.12,2.34,3.19,3.51,3,3.31,6,6.6,9,9.92,1.5,1.67,2.94,3.41,4.4,5.12l.8-.59c-1.27-2.29-2.44-4.66-3.85-6.87a99.53,99.53,0,0,0-6.82-9.9c-1.89-2.3-4.57-3.92-6.66-6.08a59,59,0,0,0-17.63-12.08c-1.63-.77-3.17-1.75-4.85-2.37-3.15-1.16-6.48-1.89-9.54-3.24-4.1-1.8-8.29-1.78-12.55-1.34-3.45.36-6.87,1-10.31,1.45-3.19.43-6.42.63-9.56,1.25s-6.29,2.19-9.49,2.39c-4.81.3-8.64,2.65-12.34,5.06-3.53,2.3-6.4,5.59-9.68,8.31A43.25,43.25,0,0,0,98.19,41.25,58.76,58.76,0,0,0,96.49,47Zm40.33,130.36-.47-.45c-.41.3-1,.52-1.21.92-2.57,4.82-7.26,7.41-11.36,10.48a82.45,82.45,0,0,1-19.58,10.85c-4.61,1.79-9.36,3.24-14.13,4.56a31.44,31.44,0,0,1-7.6,1,125.74,125.74,0,0,1-14.77-.22,39.1,39.1,0,0,1-9.2-2.55,130.94,130.94,0,0,1-13.23-5.26,59.25,59.25,0,0,1-10.05-6.27,80.86,80.86,0,0,1-10.61-9.38A54.74,54.74,0,0,1,13.83,164c-1-2.62-2.32-5.12-3.41-7.72-.74-1.76-1.34-3.59-2-5.38l-.86.29C8.82,155,9.84,159,11.39,162.8a102.62,102.62,0,0,0,5.69,11.44c2.42,4.27,4.7,8.74,7.84,12.45a47.4,47.4,0,0,0,14.67,11.76c2.43,1.24,4.65,3,7.19,3.89,5,1.77,10.15,3.18,15.28,4.58s10.44,2.93,16,1.66c3.8-.87,7.77-1.09,11.5-2.18a168.36,168.36,0,0,0,15.88-5.59,91.15,91.15,0,0,0,14.22-6.7c3.94-2.46,7.36-5.84,10.73-9.1A92.35,92.35,0,0,0,136.82,177.36ZM20.2,86.07c12.17-10.66,27-15.9,41.92-21.08a4.16,4.16,0,0,0-2.13-.4c-5,.86-9.93,1.69-14.85,2.73-4.3.91-8.46,2.1-11.92,5.17-1.84,1.63-4.25,2.6-6.4,3.87-.53.31-1.27.48-1.55.93C23.52,80.18,21.88,83.14,20.2,86.07ZM93.75,56l.76.09,1.66-6.2-.71-.17Z"/></g></g></svg>