<svg xmlns="http://www.w3.org/2000/svg" viewBox="0 0 353.2 122.17"><defs><style>.cls-1{fill:#fff;}</style></defs><title>celeb_line</title><g id="Layer_2" data-name="Layer 2"><g id="ceremonie"><path class="cls-1" d="M0,3.2a9,9,0,0,1,.9-.39,11.42,11.42,0,0,1,1.33-.34A10.42,10.42,0,0,1,6,2.18c.52.09,1.09-.06,1.62,0,.78.08,1.55.24,2.32.38,1.45.27,2.83.76,4.32.91a2.44,2.44,0,0,1,2.15,1.18,2.59,2.59,0,0,1,.21.94,8,8,0,0,0-.06,1.23,19,19,0,0,1,.09,2.48,7.12,7.12,0,0,1,0,1.06c-.1,1.31.74,1.88,1.79,2.45A2.49,2.49,0,0,0,20.2,13,4.47,4.47,0,0,0,22,12.19a3.91,3.91,0,0,1,1.4-.47c.67-.22,1.4-.26,2.07-.46a2.25,2.25,0,0,1,1.81.26,15.15,15.15,0,0,1,2.56,1.87,6.53,6.53,0,0,0,2.6,1.55c1.15.3,2.31.57,3.47.86a1,1,0,0,1,.52.29,11.38,11.38,0,0,1,2,3.14c.36,1,.67,1.94,1,2.92.2.58.38,1.18.59,1.76A3.31,3.31,0,0,1,40,26a2.62,2.62,0,0,0,1.14,3.11,5.68,5.68,0,0,0,2.78.9,4.77,4.77,0,0,1,2.82,1.32,6,6,0,0,1,1.7,3.31,2.45,2.45,0,0,1-1.25,2.49,13.85,13.85,0,0,1-1.67,1,12.05,12.05,0,0,1-2.1.51.74.74,0,0,0-.66.56,8.55,8.55,0,0,0-.14,4.52,7.69,7.69,0,0,0,1.13,2.85,1.1,1.1,0,0,1-.13,1.44c-.68.77-1.3,1.59-2,2.34a7.68,7.68,0,0,1-3.45,2.23,16.12,16.12,0,0,1-2.8.57c-1,.12-2.2.42-3.16-.23a11.43,11.43,0,0,1-2.25-1.91,16.54,16.54,0,0,1-1.16-2.09A9.89,9.89,0,0,0,27.37,47a6,6,0,0,0-2.42-1.53,3.2,3.2,0,0,0-1.08-.18,12.2,12.2,0,0,0-1.48.27,2.59,2.59,0,0,0-2.44,2.51,9,9,0,0,0-.24,1,5.53,5.53,0,0,0,.15,1.63,18.11,18.11,0,0,1,.9,2.47A2.63,2.63,0,0,1,19.39,56c-.63.37-1.21.81-1.83,1.2a1.12,1.12,0,0,1-.49.16c-1,.09-2.05.41-3.05-.19a2,2,0,0,0-1.12-.22A1.64,1.64,0,0,0,11.26,59a1.63,1.63,0,0,1,0,.29c0,.63.07,1.25.11,1.88a4.57,4.57,0,0,1-.67,2.73A3.16,3.16,0,0,0,10.39,65a16.07,16.07,0,0,0-.4,2.76c0,1-.14,1.94,0,2.92a29.76,29.76,0,0,0,.35,3.82,9,9,0,0,0,.48,2.24c.55,1.07,1,2.24,2.14,2.89a2.81,2.81,0,0,0,3.15.22,2.16,2.16,0,0,0,1.08-1.63,12.62,12.62,0,0,0,0-2.65,8.42,8.42,0,0,0-.69-1.83,3.73,3.73,0,0,1-.08-3,4.56,4.56,0,0,1,.94-1.11,2,2,0,0,1,1.37-.45,2.65,2.65,0,0,1,2.48,1.4,12.81,12.81,0,0,0,1.11,1.33.62.62,0,0,0,1-.06c.22-.24.36-.56.58-.81a3.76,3.76,0,0,1,2.3-1.41,3.85,3.85,0,0,1,3,.57,7.14,7.14,0,0,0,.78.44,2.57,2.57,0,0,1,1.35,2.71,4.48,4.48,0,0,1-1,2.57,5,5,0,0,0-.84,1.28,2.6,2.6,0,0,0-.14,1c0,.5.44.74.75,1a4.34,4.34,0,0,0,1.68.91A8,8,0,0,0,34,80c.82-.09,1.63-.29,2.45-.43,1-.18,2-.36,3.07-.51A14.48,14.48,0,0,1,41.2,79c.64,0,1.29,0,1.93,0,1.06-.07,2.12-.19,3.19-.29a.74.74,0,0,1,.32,0c.87.35,1.83.16,2.74.45a6.45,6.45,0,0,0,2,0,9.21,9.21,0,0,1,1.26-.08,3,3,0,0,0,2.49-1A2.62,2.62,0,0,0,56,75.35c-.22-1-.26-1.95-.43-2.92a5.25,5.25,0,0,0-1.28-2.77c-.53-.57-.79-1.37-1.35-1.91a12.12,12.12,0,0,1-1.33-2.06,5.24,5.24,0,0,1-.73-2.76A17.38,17.38,0,0,1,51,60a2,2,0,0,1,.47-1,19.49,19.49,0,0,1,1.88-2c.45-.41,1.09-.62,1.57-1a4.87,4.87,0,0,0,2.13-3.57c0-.65,0-1.31,0-2,0-1.63.09-3.25.1-4.88,0-1.33-.06-2.65-.11-4,0-.54-.06-1.07-.1-1.6-.07-1-.2-2-.19-3a15.15,15.15,0,0,1,.3-2.2c.13-.84.23-1.68.44-2.5s.55-1.77.87-2.64c.4-1.11.87-2.21,1.24-3.33a16.84,16.84,0,0,0,.72-2.83,6.44,6.44,0,0,0-.21-1.75c-.06-.39-.12-.77-.18-1.16a2.29,2.29,0,0,1,0-.3,16.84,16.84,0,0,1,.56-5.73c.31-.91.65-1.81.87-2.74A8.86,8.86,0,0,1,62.6,9.18a3.07,3.07,0,0,1,3.24-1.32A4,4,0,0,1,69,11.24a3.5,3.5,0,0,1,0,2.07c-.1.28.09.65.07,1,0,.5-.18,1-.19,1.49,0,1.37-.07,2.74,0,4.1s.29,2.44.43,3.66c.11,1,.19,2,.3,3A14.26,14.26,0,0,0,70.43,31,15.73,15.73,0,0,1,71,33.2c0,.12.14.22.18.34a14.69,14.69,0,0,0,2.42,3.86A13.17,13.17,0,0,1,75.43,41a17.65,17.65,0,0,1,.73,4.79c.05.93,0,1.86.12,2.78s.28,2,.39,3.07c.07.61.11,1.22.12,1.83,0,1.13.06,2.27,0,3.4q-.14,2.34-.42,4.67c-.2,1.57-.59,3.13-.7,4.7a21.47,21.47,0,0,0,.25,3.35A6.6,6.6,0,0,1,76,71.22a4.87,4.87,0,0,1-.66,1.36c-.35.64-.76,1.25-1,1.91a1.63,1.63,0,0,0,1.25,2.3c.81.11,1.61.25,2.43.35a2.06,2.06,0,0,0,.76-.06,6,6,0,0,1,2.44.07,19.81,19.81,0,0,0,2.93,0,2.84,2.84,0,0,0,.52-.07,6.86,6.86,0,0,0,1.64-.37,21.55,21.55,0,0,0,2.5-1.51,6.47,6.47,0,0,0,1.5-1.25,8.09,8.09,0,0,0,.72-1.6,2.71,2.71,0,0,0-.07-2.64,5.42,5.42,0,0,0-2.59-2.41c-.55-.23-1.16-.34-1.68-.62a2.68,2.68,0,0,1-1.36-2,8,8,0,0,1,.83-5.08A22.53,22.53,0,0,1,87.78,57a4.28,4.28,0,0,0,.85-3,6.06,6.06,0,0,0-.4-1.2c-.29-.75-.61-1.48-.89-2.23a2.39,2.39,0,0,1-.13-.62,4.24,4.24,0,0,1,.73-3.51c.49-.57.87-1.23,1.4-1.76a4.41,4.41,0,0,1,1.59-1.07,2.87,2.87,0,0,1,1.87.29c.39.15.78.3,1.16.49.82.41,1.69.79,1.63,1.88a.32.32,0,0,0,.1.22,7.26,7.26,0,0,0,1.37,1.24,3.32,3.32,0,0,0,1.69.39c1.64-.09,3.27-.38,4.9-.43a5.17,5.17,0,0,1,2.77.36,10.15,10.15,0,0,1,1.23,1,6.23,6.23,0,0,1,2,3.38,7.58,7.58,0,0,0,1.05,2.46A4.19,4.19,0,0,0,112,55.94,12.28,12.28,0,0,0,114.46,57a8.93,8.93,0,0,0,1.93,0,7.49,7.49,0,0,1,1.34.19c.58.14,1.15.33,1.72.51a1.41,1.41,0,0,1,.45.24,13.15,13.15,0,0,0,1.32,1.09,7.18,7.18,0,0,0,1.31.46c.9.33,1.77.73,2.69,1a8.83,8.83,0,0,0,4.32.55c.35-.08.79,0,1-.23a5.62,5.62,0,0,0,1-1.18c.4-.55.72-1.15,1.13-1.7a1.48,1.48,0,0,0-.1-2,6.16,6.16,0,0,1-.71-1.14,1.92,1.92,0,0,1,.14-1.9c.12-.21.17-.46.31-.66a20,20,0,0,1,1.55-2,8.12,8.12,0,0,0,2.17-3.38,5.29,5.29,0,0,0-.12-2.43c-.23-1.1-.37-2.22-.62-3.32a16.6,16.6,0,0,0-.71-2.34,14,14,0,0,0-1.2-2.58A5.14,5.14,0,0,0,132,35a12,12,0,0,0-3.46-1.28,7.94,7.94,0,0,0-2.8-.37c-.76,0-1.52.15-2.28.27s-1.77.32-2.66.5-2,.4-3,.64-2.09.57-3.15.84a4.91,4.91,0,0,1-1.13.19,18.91,18.91,0,0,1-2.7-.06,7.22,7.22,0,0,1-3-1.41,12.9,12.9,0,0,1-1.71-1.21,9.37,9.37,0,0,1-2.44-2.76,4.17,4.17,0,0,1-.33-2.11,4.77,4.77,0,0,1,.52-2A7,7,0,0,1,106,23.61c.95-.65,1.92-1.28,2.89-1.9a2.63,2.63,0,0,0,1.18-1.81A7.41,7.41,0,0,1,112,16.21a3.48,3.48,0,0,1,2.22-1.16c.56-.06,1.08-.37,1.64-.49.73-.16,1.49-.18,2.2-.38,1.24-.36,2.52-.7,3.25-1.87a.66.66,0,0,1,.16-.19,4.67,4.67,0,0,0,1.83-3.29c.15-1.11-.12-2.25-.05-3.38a3.59,3.59,0,0,1,.65-1.88,10.59,10.59,0,0,1,4.05-2.9,7.58,7.58,0,0,1,2.13-.46c.77-.11,1.55-.14,2.33-.21h1.71c.68.17,1.38.28,2,.51s1.49.65,2.23,1a2.48,2.48,0,0,1,.62.26,16.51,16.51,0,0,1,1.65,1.55,10.78,10.78,0,0,0,3.13,2.56,2.51,2.51,0,0,0,1.19.13,15.62,15.62,0,0,0,1.88-.19c.47-.08.92-.31,1.39-.34a7.11,7.11,0,0,1,2.08.08,3.16,3.16,0,0,1,1.48.85c.71.76,1.29,1.63,1.93,2.45a1.26,1.26,0,0,0,1.26.57c.32,0,.66.1,1,.08.6,0,1.19-.1,1.79-.18.43-.06.85-.18,1.28-.21,1.2-.09,2.4-.14,3.6-.2.34,0,.69,0,1,0a9.49,9.49,0,0,1,3,.41,9,9,0,0,1,1.88.75c.7.32,1.37.69,2,1s1.42.71,2.08,1.15a5.39,5.39,0,0,1,1,1c.74.85,1.49,1.69,2.18,2.57a5.69,5.69,0,0,1,.64,1.27,21.92,21.92,0,0,1,.88,2.16A24,24,0,0,1,178,22a13.23,13.23,0,0,1,.21,2.12,2.46,2.46,0,0,1-.78,1.77c-.61.62-1.27,1.19-1.88,1.81a3.41,3.41,0,0,1-1.9.82c-.91.18-1.83.31-2.75.44-.5.07-1,.12-1.51.17a2.85,2.85,0,0,0-2.53,1.67,6.74,6.74,0,0,0-.55,2.25,4.61,4.61,0,0,1-2.55,4.07c-1.21.63-2.5,1.12-3.77,1.65a4.58,4.58,0,0,1-.67.07,19.09,19.09,0,0,0-2.38.61,5.29,5.29,0,0,1-3.23,0,3.85,3.85,0,0,1-1.18-.34A4.57,4.57,0,0,1,151.39,38a1.12,1.12,0,0,0-2,0,4.06,4.06,0,0,1-.61.84c-.48.43-.47,1-.59,1.54a6.57,6.57,0,0,0,.17,3.07c.1.43-.07.92.06,1.34a5.84,5.84,0,0,0,.87,1.76c1.07,1.39,2.3,2.67,3.33,4.09a2.87,2.87,0,0,1,.3,3.19,7.69,7.69,0,0,0-.27,1.29c-.31,1,.18,1.82.43,2.71.31,1.13,1.33,1.8,1.94,2.73.36.54.63,1.13,1,1.68a5.11,5.11,0,0,0,1.12,1.51,1.84,1.84,0,0,0,1.67.23,8.37,8.37,0,0,0,2.49-1.63,1.75,1.75,0,0,0,.45-2.28,23.39,23.39,0,0,0-2.56-3.67,7,7,0,0,1-1.71-3.14,4.62,4.62,0,0,1,.82-2.86,11.87,11.87,0,0,1,1.28-1.71,1.86,1.86,0,0,1,1.95-.61,13.76,13.76,0,0,0,1.82,0,7.41,7.41,0,0,1,1.77.24,14.65,14.65,0,0,1,1.44.79,10.38,10.38,0,0,0,1.78.64A1,1,0,0,0,169.5,49c0-.11,0-.26.13-.3.64-.34.82-1,1.2-1.5a2.35,2.35,0,0,1,1.92-.93A4,4,0,0,1,176,47.68c.84,1,1.67,2,2.48,3a10.17,10.17,0,0,1,1,1.44,2.05,2.05,0,0,1,.17.86,7.91,7.91,0,0,1-.18,2.46,7.42,7.42,0,0,0-.09,2.31,17,17,0,0,0,.39,2.18c.16.77-.35,1.35-.61,2a9.72,9.72,0,0,1-.47.92c-.39.12-.65.21-.91.26a6.78,6.78,0,0,1-.86.1,8.2,8.2,0,0,0-1.84.14,2.82,2.82,0,0,0-1.14.9.88.88,0,0,0,.07,1.33.24.24,0,0,1,.08.12c.09.88.79,1.36,1.39,1.91a9.24,9.24,0,0,1,1.34,1.32c.64.92.11,1.67-.52,2.35s-1,1.12-1.54,1.69a.4.4,0,0,0,0,.39,2.14,2.14,0,0,0,2.09,1.14c.9-.09,1.81-.07,2.72-.18a13.43,13.43,0,0,1,2.85-.2,9.76,9.76,0,0,0,2.54-.35c.77-.13,1.56-.18,2.34-.26.59-.06,1.18-.15,1.77-.17s1,0,1.45,0a5.11,5.11,0,0,0,1-.07,5.91,5.91,0,0,1,2.87.55,23.36,23.36,0,0,0,2.36.39c.35.06.69.19,1,.28.61.16,1.23.32,1.84.47.93.22,1.86.42,2.78.65s1.64.42,2.44.68a16.19,16.19,0,0,1,1.49.67,3.62,3.62,0,0,0,.57.22,1.06,1.06,0,0,1,.84,1.12.36.36,0,0,0,0,.22c.48.77,0,1.35-.47,1.87a3.91,3.91,0,0,1-2.81,1.21,12,12,0,0,0-2.28.37c-.94.22-1.85.54-2.79.79s-1.65.36-2.45.63c-1,.32-1.86.76-2.8,1.13s-1.92.73-2.87,1.11a2,2,0,0,0-.65.4c-.54.54-1.07,1.09-1.56,1.67a1.73,1.73,0,0,0,.52,2.19,8.19,8.19,0,0,0,2.81,1.32c.93.27,1.84.61,2.77.87a15,15,0,0,0,1.63.31c1.45.24,2.91.46,4.37.71a13.51,13.51,0,0,0,2.8.45,4.93,4.93,0,0,1,1.22.36c.8.2,1.61.4,2.42.56s1.44.22,2.16.34l2,.36c.56.1,1.13.21,1.69.28s1.06.06,1.58.13c.71.09,1.41.23,2.11.35.85.15,1.71.28,2.56.45.57.12,1.13.32,1.7.43s1.44.23,2.16.36,1.36.26,2,.4l2.6.5c1.78.36,3.56.72,5.33,1.1,1.11.24,2.2.54,3.31.77.85.18,1.73.25,2.58.43s2,.52,3,.76,1.73.37,2.59.56c.35.08.69.18,1,.28,1.22.36,2.44.7,3.65,1.09,1.82.58,3.64,1.17,5.44,1.8,1.37.48,2.73,1,4.08,1.55s2.44,1.07,3.66,1.61c.65.29,1.32.54,2,.85s1.5.81,2.25,1.2,1.69.84,2.51,1.3,1.52.92,2.27,1.4c.93.59,1.87,1.17,2.78,1.8a21.21,21.21,0,0,1,2.16,1.64,18.62,18.62,0,0,1,2.13,2.2,28.77,28.77,0,0,1,1.82,2.72c.19.31.4.68,0,1h-.64a4.87,4.87,0,0,1-.61-.43,7.66,7.66,0,0,1-1.59-1.64,15.53,15.53,0,0,0-1.89-2.27,6.39,6.39,0,0,0-1.3-1.07c-1.17-.84-2.32-1.71-3.54-2.48-1-.63-2.07-1.13-3.1-1.7-.25-.14-.46-.35-.71-.49a30.81,30.81,0,0,0-3.7-2c-1.72-.68-3.34-1.53-5-2.24-1.07-.44-2.23-.68-3.33-1.06-.66-.23-1.27-.56-1.92-.81-1-.38-2-.74-3-1.07-.64-.21-1.3-.35-1.94-.55s-1.55-.51-2.33-.75c-.59-.18-1.19-.34-1.79-.48l-5.5-1.24c-1.23-.28-2.45-.59-3.68-.86-2.14-.48-4.29-1-6.44-1.41-1.6-.32-3.23-.55-4.84-.82-1.27-.21-2.56-.37-3.82-.62-.77-.16-1.5-.51-2.27-.67-1-.19-1.94-.27-2.91-.41-1.41-.2-2.82-.4-4.23-.61s-2.81-.44-4.21-.69c-.8-.15-1.58-.37-2.37-.54s-1.53-.32-2.31-.45c-1-.16-2-.28-3-.44-1.2-.2-2.4-.39-3.57-.67s-2.11-.62-3.17-.94a5,5,0,0,0-.53-.15,6.55,6.55,0,0,1-2.62-1.22,5.11,5.11,0,0,1-1.2-1,3.53,3.53,0,0,1,.58-4.71,12,12,0,0,1,3.06-1.89c.49-.21,1-.49,1.45-.71.26-.12.57-.16.84-.25,1.36-.48,2.71-1,4.08-1.44a32,32,0,0,1,3.16-.9c1.2-.26,2.43-.39,3.64-.63a3.9,3.9,0,0,0,1.26-.53c.51-.32.46-.83-.1-1.05-1-.38-1.95-.69-2.93-1-.68-.22-1.37-.44-2.07-.61s-1.46-.26-2.2-.4c-.32-.06-.63-.17-1-.22-.69-.1-1.39-.17-2.08-.28-.2,0-.38-.16-.59-.2-.86-.14-1.72-.32-2.59-.38a9.56,9.56,0,0,1-1.6-.17,8.3,8.3,0,0,0-2.22.08c-.23,0-.47,0-.71,0-.62,0-1.25,0-1.86.13-1,.16-2.07.41-3.12.55-.61.08-1.26,0-1.88,0-1,.08-1.94.29-2.91.31a4.78,4.78,0,0,1-2.34-.23,3.39,3.39,0,0,0-.93-.28,5.49,5.49,0,0,1-2.07-1.18c-.42-.28-.27-.84.14-1.16a3.45,3.45,0,0,0,.48-.62,10.88,10.88,0,0,1,1.91-2.3c.34-.25.42-.55.07-.86,0,0-.05-.14-.11-.16a5.6,5.6,0,0,1-1.9-1.92,9,9,0,0,1-1.06-1.82c-.12-.32.07-.76.17-1.13s.26-.53.37-.8a2.59,2.59,0,0,1,2.51-1.79c.71-.1,1.4-.09,2.11-.13s1.07-1,.92-1.62a14.11,14.11,0,0,1-.47-2.3,7.12,7.12,0,0,1,.2-2.3,4.21,4.21,0,0,0-.89-4.06c-.67-.8-1.29-1.63-2-2.38A6.07,6.07,0,0,0,173.6,48c-.66-.36-1.27,0-1.75.65a13,13,0,0,1-2.23,2.52,2.3,2.3,0,0,1-2.27.15c-1.11-.48-2.19-1-3.28-1.54a.79.79,0,0,0-.3-.07c-.88,0-1.76-.09-2.64-.08a1,1,0,0,0-.59.41c-.31.39-.58.82-.85,1.24a2.37,2.37,0,0,0,0,2.87c.9,1.35,2,2.54,2.95,3.86a3.62,3.62,0,0,1,.46,1,8.61,8.61,0,0,1,.45,1.77,2.93,2.93,0,0,1-.78,2.43,11.68,11.68,0,0,1-3.52,2.39A3.75,3.75,0,0,1,156,65a5.1,5.1,0,0,1-1.46-2,11.74,11.74,0,0,0-1.32-1.84,8.68,8.68,0,0,1-1.87-3,5.91,5.91,0,0,0-.22-1.15,4.17,4.17,0,0,1,.05-2.83,8.08,8.08,0,0,1,.3-.93,1.87,1.87,0,0,0-.42-1.88l-1.6-1.92c-.51-.61-1.08-1.19-1.53-1.84s-1.19-1.42-1.06-2.44a3.15,3.15,0,0,0-.21-1.35,5.78,5.78,0,0,1-.1-2.69,3.66,3.66,0,0,0,0-1.1c-.13-.75.35-1.23.76-1.76a20.86,20.86,0,0,1,1.74-2.21,2.58,2.58,0,0,1,1.42-.42,3.46,3.46,0,0,1,1.12.19,1.67,1.67,0,0,1,1.19,1.21c.2.67.77.71,1.25.85a12,12,0,0,0,1.8.26.71.71,0,0,0,.33,0,11.71,11.71,0,0,1,1.45-.58c.71-.17,1.46-.19,2.16-.38a12.38,12.38,0,0,0,1.91-.76c.56-.26,1.08-.6,1.64-.86a2.49,2.49,0,0,0,1.34-2c.17-.75.28-1.52.43-2.27.07-.35.19-.69.24-1,.11-.77.72-1.18,1.28-1.62a6.24,6.24,0,0,1,1-.61,4.94,4.94,0,0,1,.63-.2l.57-.22a1.19,1.19,0,0,1,.3-.08,9.35,9.35,0,0,1,1.36-.09,6.46,6.46,0,0,0,2.41-.44c.41-.13.84-.17,1.26-.28,1-.25,2.62-1.91,2.58-2.86a15,15,0,0,0-.54-2.89,14.12,14.12,0,0,0-1.61-4.15,15.34,15.34,0,0,0-1.44-1.72c-.3-.35-.62-.68-.91-1a6.34,6.34,0,0,0-2.13-1.46,30.94,30.94,0,0,0-4-1.94,6.71,6.71,0,0,0-3.74-.44,2.67,2.67,0,0,1-.59,0,12.4,12.4,0,0,0-4.19.54,6.91,6.91,0,0,1-3,.11,4,4,0,0,1-2.17-.9,9,9,0,0,1-1.23-1.46,8.77,8.77,0,0,0-.81-1.07,2.61,2.61,0,0,0-2.53-.42,8.43,8.43,0,0,1-1.38.38A7.94,7.94,0,0,1,142.26,7a9.63,9.63,0,0,1-1.84-1.39c-.52-.47-1-1-1.44-1.53a7.09,7.09,0,0,0-4.24-2.25c-.39-.05-.76-.25-1.15-.28a8.66,8.66,0,0,0-1.47.09c-.76.08-1.52.23-2.28.28A5.25,5.25,0,0,0,127,3a8.93,8.93,0,0,0-1.55,1.38,2.38,2.38,0,0,0-.51,1.29c-.06.75.12,1.52.06,2.28a11.37,11.37,0,0,1-.47,2.25,7.83,7.83,0,0,1-3,4,8.56,8.56,0,0,1-1.81,1.17,14.07,14.07,0,0,1-2.22.52c-1,.23-2,.42-3,.71A4,4,0,0,0,112,19.3c-.2.55-.22,1.15-.41,1.7a3.7,3.7,0,0,1-1.66,2,18.22,18.22,0,0,0-2.11,1.4A7.86,7.86,0,0,0,105.28,27a3.09,3.09,0,0,0,0,2.59,6.12,6.12,0,0,0,2,2.26A12.3,12.3,0,0,0,108.79,33a17.32,17.32,0,0,0,2.49,1.19,3.18,3.18,0,0,0,1.37.05c.67-.07,1.34-.21,2-.34s1.42-.27,2.12-.46c1.26-.35,2.59-.37,3.83-.84a14.62,14.62,0,0,1,2.76-.54,11.62,11.62,0,0,1,1.66-.2,14.43,14.43,0,0,1,4.83.7c.49.16,1,.24,1.5.39a5.61,5.61,0,0,1,1,.45,14.52,14.52,0,0,1,1.35.84,4.59,4.59,0,0,1,2,2.72c.19.81.61,1.57.86,2.38a15.45,15.45,0,0,1,.38,1.92c.12.73.21,1.46.33,2.18,0,.29.16.56.23.85a9.82,9.82,0,0,1,.28,1.49,3.74,3.74,0,0,1-.19,1,9.39,9.39,0,0,1-.29,1,7.15,7.15,0,0,1-1.6,2.62,18,18,0,0,0-1.68,2,5.24,5.24,0,0,0-.58,1.32.51.51,0,0,0,.1.41c.33.44.71.85,1,1.3a1.92,1.92,0,0,1,.28,1.49,5.07,5.07,0,0,1-1,2.07c-.46.67-.68,1.48-1.12,2.17a2.61,2.61,0,0,1-1.67,1.31,19.75,19.75,0,0,1-3.6.34,8.38,8.38,0,0,1-3-.74c-.83-.34-1.73-.55-2.56-.9s-1.51-.76-2.28-1.13c-.18-.09-.4-.08-.58-.17a1.16,1.16,0,0,1-.5-.37c-.4-.69-1.15-.77-1.82-.89s-1.19,0-1.77,0a13.63,13.63,0,0,1-1.88-.38,8.49,8.49,0,0,1-3.59-2.12,1.87,1.87,0,0,1-.5-.67c-.35-.92-.69-1.86-1-2.8A5.72,5.72,0,0,0,106.26,50c-.73-.63-1.56-.51-2.4-.65-.65-.11-1.08.28-1.64.29s-1.32.16-2,.17a19.16,19.16,0,0,1-2.95-.12,3.24,3.24,0,0,1-1.47-.74,11.65,11.65,0,0,1-1.46-1.54c-.25-.3-.39-.69-.65-1a4,4,0,0,0-2.24-1.09.66.66,0,0,0-.43.12,5.06,5.06,0,0,0-1.18,1.22c-.21.27-.5.51-.7.82a2,2,0,0,0-.39,1.85c.37,1.08.77,2.15,1.09,3.25a4.81,4.81,0,0,1-.07,3.94,9.72,9.72,0,0,0-.48,1.2,1.54,1.54,0,0,1-.17.29c-.37.53-.72,1.08-1.12,1.59a7.38,7.38,0,0,0-1.14,3.06,4.36,4.36,0,0,0,.08,2c.15.63.8.89,1.42,1a4.61,4.61,0,0,1,2.3,1.23,9.29,9.29,0,0,1,1.64,2,3.35,3.35,0,0,1,.22.89c.1.45.18.9.27,1.34a4.1,4.1,0,0,1-.65,2.6c-.19.4-.37.79-.59,1.17a7.89,7.89,0,0,1-2.91,2.37,8.64,8.64,0,0,1-2.85,1.39,13,13,0,0,1-1.42.13l-.67.09A13.81,13.81,0,0,1,80,78.64a4.36,4.36,0,0,0-.67,0c-1,0-1.92,0-2.87,0a4.82,4.82,0,0,1-1.7-.36,5.07,5.07,0,0,1-1.56-1.11c-1-1-.63-2.25-.18-3.38a12,12,0,0,1,1.25-2.16,2,2,0,0,0,.24-1.48c-.09-.84-.31-1.68-.39-2.52a7.83,7.83,0,0,1,.1-1.53c.05-.54.12-1.08.2-1.61.17-1.06.35-2.12.54-3.19a7.07,7.07,0,0,0,.17-.72c.06-.92.11-1.85.14-2.77,0-1.16.14-2.32.09-3.48-.06-1.41-.3-2.81-.39-4.23-.07-1,0-2,0-3,0-.43-.1-.85-.14-1.27s-.06-1-.1-1.55a1.76,1.76,0,0,0-.06-.23,14.57,14.57,0,0,0-.35-1.67,11.89,11.89,0,0,0-.93-2.27c-.55-.93-1.27-1.78-1.86-2.69a15.5,15.5,0,0,1-1.9-4.06c-.28-1-.66-1.88-.88-2.85s-.27-1.85-.39-2.77-.22-1.69-.31-2.53c-.15-1.29-.33-2.58-.43-3.88-.11-1.47-.22-2.94-.2-4.41s.26-2.72.27-4.08a6.5,6.5,0,0,0-.43-2.15,2.49,2.49,0,0,0-2.53-1.36,1,1,0,0,0-.6.34,8.75,8.75,0,0,0-1,1.62,24.06,24.06,0,0,0-.74,2.31c-.17.54-.33,1.08-.49,1.62a6.92,6.92,0,0,0-.35,1.36,27.88,27.88,0,0,0-.1,3.33c0,.91.3,1.8.4,2.71a4.63,4.63,0,0,1,0,1.6c-.34,1.37-.73,2.74-1.18,4.09-.26.79-.75,1.51-1,2.29a22.41,22.41,0,0,0-.76,2.83c-.22,1.09-.4,2.19-.52,3.29a10.49,10.49,0,0,0,.08,1.68c0,.7.06,1.4.11,2.1s.15,1.14.19,1.71c0,.27-.09.55-.08.83,0,.68.11,1.37.09,2,0,1.15-.16,2.3-.19,3.46,0,1,.11,2,.07,2.95a24,24,0,0,1-.33,3c0,.26-.36.48-.54.73a9,9,0,0,1-2.57,2.58,5.36,5.36,0,0,0-2.28,2.1,5.44,5.44,0,0,0-.49,1.74,9.51,9.51,0,0,0,.15,1.86,3.28,3.28,0,0,0,.61,1.69c.23.31.28.73.51,1,.76,1,1.56,2,2.35,3a.84.84,0,0,1,.13.21c.33.88.71,1.75,1,2.65a15.89,15.89,0,0,1,.25,1.85c.14.85.31,1.7.46,2.55,0,.12.08.28,0,.37a26.15,26.15,0,0,1-1.49,2.27,4.89,4.89,0,0,1-1.13.85c-.27.18-.56.34-.9.55l-.53.05-1.44.1c-.79,0-1.59.09-2.38.09a10.59,10.59,0,0,1-1.29-.16,10.17,10.17,0,0,0-3.82-.09,4.66,4.66,0,0,1-2,0,11.06,11.06,0,0,0-2.67.06,14.3,14.3,0,0,0-2.13.29,11.4,11.4,0,0,1-1.49.1,8.17,8.17,0,0,0-1.81.41,6.32,6.32,0,0,1-2.64.27,7.14,7.14,0,0,1-3.58-1.59,2.49,2.49,0,0,1-.75-2.58A3.91,3.91,0,0,1,29,75.31a3,3,0,0,0,.6-2.7c0-.29-.45-.57-.74-.79a2.67,2.67,0,0,0-2.55-.64,2.82,2.82,0,0,0-1.48,1.16,2.75,2.75,0,0,1-2.17,1.33,2.19,2.19,0,0,1-1.75-.75,5.52,5.52,0,0,1-.4-.46c-.37-.46-.72-.93-1.13-1.36a1.14,1.14,0,0,0-.72-.39c-.22,0-.46.26-.65.45-.72.71-.27,1.47-.05,2.2s.54,1.44.81,2.16c0,.08.09.15.09.23-.07.89-.13,1.77-.22,2.66a3.43,3.43,0,0,1-.21,1.15,3.29,3.29,0,0,1-1.93,1.82c-.31.11-.6.27-.92.39-1.14.43-2.12-.12-3.07-.55A5.86,5.86,0,0,1,10.83,80,7.45,7.45,0,0,1,9.28,77.2a13,13,0,0,1-.55-3.89c0-.75-.22-1.49-.29-2.24a8.91,8.91,0,0,1,0-1.41c0-.7.13-1.4.19-2.1s.06-1.17.12-1.75a7.23,7.23,0,0,1,1-3.35.72.72,0,0,0,.14-.41c-.06-.75-.15-1.5-.24-2.25,0,0-.07-.09-.06-.13a9.81,9.81,0,0,1,.46-2.57,2.47,2.47,0,0,1,2-1.52c.63-.06,1.26-.16,1.89-.18a1.28,1.28,0,0,1,.73.23,2.36,2.36,0,0,0,2.77-.09c.46-.25,1-.48,1.12-1a.19.19,0,0,1,.07-.08c.29-.22.67-.39.5-.86-.12-.32-.2-.65-.29-1-.21-.74-.43-1.47-.62-2.21a5.14,5.14,0,0,1,.6-3.46c.17-.38.21-.82.36-1.21a1.3,1.3,0,0,1,.87-.82c.81-.26,1.6-.63,2.42-.85a7,7,0,0,1,2.05-.25,4.54,4.54,0,0,1,1.62.48,8.79,8.79,0,0,1,1.67,1,10.78,10.78,0,0,1,1.74,1.59,4.85,4.85,0,0,1,.71,1.5,3.94,3.94,0,0,0,1.21,1.77,15.46,15.46,0,0,1,1.35,1.28,1,1,0,0,0,1.07.38,10.46,10.46,0,0,1,1.38,0,7.7,7.7,0,0,0,1.49-.22,9.53,9.53,0,0,0,1.84-.69A5.45,5.45,0,0,0,40.9,49a13.42,13.42,0,0,1,1.05-1.32.79.79,0,0,0,.07-1,11.73,11.73,0,0,1-1-5.41,8,8,0,0,1,.5-3,2.46,2.46,0,0,1,1.82-1.13,3.06,3.06,0,0,0,2.17-.49c.33-.3.8-.46,1.1-.77a1.52,1.52,0,0,0,.29-1.53A4.36,4.36,0,0,0,45,31.81a6.43,6.43,0,0,0-1.7-.52,15.13,15.13,0,0,1-2.83-.84,6.12,6.12,0,0,1-1.59-1.61c-.85-1-.44-2.16-.3-3.22a6.06,6.06,0,0,0-.47-2.92c-.31-.86-.62-1.72-1-2.57a9.82,9.82,0,0,0-.62-1.08c-.24-.43-.46-.87-.73-1.28a2.45,2.45,0,0,0-1.87-1.06A6.76,6.76,0,0,1,31,15.95c-.64-.39-1.37-.67-2-1.1s-.9-1-1.42-1.36a12.45,12.45,0,0,0-1.68-1,.5.5,0,0,0-.31,0c-.67.15-1.35.28-2,.49a15.46,15.46,0,0,0-1.44.67c-.41.18-.83.36-1.26.51a4.58,4.58,0,0,1-1.2.29c-.5,0-1-.1-1.52-.12-.7,0-.95-.66-1.48-.89a2.71,2.71,0,0,1-1.34-1.18A3.11,3.11,0,0,1,15.16,11c-.06-1.73-.09-3.46-.11-5.2,0-.39-.07-.52-.58-.66a14.18,14.18,0,0,0-1.84-.42,7.32,7.32,0,0,1-2-.61,7.72,7.72,0,0,0-2.47-.46c-1-.08-2,0-3.05,0a15.28,15.28,0,0,0-1.93,0,16.6,16.6,0,0,0-1.95.47c-.1,0-.19.08-.29.11C.5,4.34.1,4.37,0,3.8Z"/><path class="cls-1" d="M353.2,13.1c-.24.57-.52.66-1.18.35a8,8,0,0,1-1.57-.81c-.47-.37-.76-.93-1.21-1.33a3.82,3.82,0,0,0-1.46-1,7,7,0,0,0-1.83.09,4.68,4.68,0,0,1-3.3-.76c-.48-.38-1-.68-1.52-1a14.66,14.66,0,0,1-1.4-1.11,2.21,2.21,0,0,0-2.31-.4c-.31.13-.67.16-1,.29a9.18,9.18,0,0,0-1.85.84,17.09,17.09,0,0,0-2.08,1.82c-.28.27-.39.69-.65,1a9.64,9.64,0,0,1-1.4,1.47,4.67,4.67,0,0,1-1.54.73c-.73.22-1.35.74-2.08,1a8.23,8.23,0,0,1-2.21.23,7.8,7.8,0,0,1-1.49-.26.36.36,0,0,1-.18-.09c-.94-1-1.3-.78-2.29-.25-.47.25-1,.47-1.11,1.07a2.15,2.15,0,0,0,.06,1.42,7.15,7.15,0,0,1,.57,3.27c-.1,1.39-.4,2.07-2,2.44a3.69,3.69,0,0,1-.52,0c-1.23.11-2.47.15-3.68.36a2.7,2.7,0,0,0-1.2.88,4.51,4.51,0,0,0-1.16,1.85,1.25,1.25,0,0,0,1,1.72c.48.11.93.34,1.41.45a2.56,2.56,0,0,1,1.5,1.26,3.53,3.53,0,0,1,.39,1.49c.13,1,.21,1.95.29,2.92,0,.32-.06.65,0,1a5.07,5.07,0,0,0,1.6,2.6,5.83,5.83,0,0,0,3,1.77c1.29.31,2.59.57,3.89.82a4.58,4.58,0,0,0,1-.07c1.06,0,2.11-.06,3.17-.11a3.13,3.13,0,0,0,.94-.21,7.39,7.39,0,0,1,3.17-.16,4.1,4.1,0,0,1,1.2.39c.44.17.86.39,1.31.56s1.15.42,1.73.62a4.79,4.79,0,0,1,2.92,2.63,4.53,4.53,0,0,1,.39,2.91,5.13,5.13,0,0,1-1.66,3.12,8.16,8.16,0,0,1-4.56,1.51,5.52,5.52,0,0,1-1.48,0,11.46,11.46,0,0,0-2-.38,13,13,0,0,0-2.05-.34,2.15,2.15,0,0,0-2.5,2.17,9.26,9.26,0,0,0,.22,1.76,1.85,1.85,0,0,1-.54,1.69,6.42,6.42,0,0,1-4.4,1.86,2.25,2.25,0,0,0-2.18,2.72,5.75,5.75,0,0,1,.49,2.67,5.05,5.05,0,0,1-1.33,2.63,6.5,6.5,0,0,1-.61.56c-.31.25-.64.49-1,.74s-.62.49-1,.69c-.72.44-1.44.9-2.21,1.28a6.09,6.09,0,0,1-1.22.23,7,7,0,0,1-3.38-.43,4.66,4.66,0,0,1-1.31-.76,9.24,9.24,0,0,1-1.07-.8,3.63,3.63,0,0,1-1.07-3.44c.08-.61.23-1.22.33-1.83s.26-1.48.33-2.23a2,2,0,0,0-.21-.93c-.2-.46-.47-.9-.72-1.35a5.56,5.56,0,0,1-.53-.94c-.28-.9-.54-1.82-.74-2.74-.07-.29.12-.63.07-.92a7.68,7.68,0,0,1,.35-3c.23-.92.6-1.82.91-2.73a2,2,0,0,0,0-1.7c-.31-.57-.44-1.25-1.08-1.63s-1.32-.36-1.62.39-.7,1.39-1,2.11c-.09.22.06.51.05.77,0,.68-.1,1.35-.09,2,0,1.08.07,2.16.08,3.23,0,.34-.11.68-.12,1,0,.75-.05,1.5,0,2.24,0,.51,0,1,.09,1.54a8.12,8.12,0,0,0,.22,1.4,3.38,3.38,0,0,1-.14,1.88,4.57,4.57,0,0,0-.28,1.33.84.84,0,0,1-.53.91,2.69,2.69,0,0,1-1.2.14c-1.2-.12-1.72-1.09-2.45-1.8A7,7,0,0,1,296,57.5c-.27-.73-.6-1.45-.83-2.19a7.48,7.48,0,0,1-.22-1.4,24.09,24.09,0,0,1-.31-3.13,32.06,32.06,0,0,1,.39-3.47c.14-1.07.29-2.14.44-3.21a1.9,1.9,0,0,1,.13-.62,10.25,10.25,0,0,0,.7-3.73,8.75,8.75,0,0,0-.06-2.74,15.43,15.43,0,0,0-.94-2.25c-.3-.8-.53-1.62-.78-2.43a13.22,13.22,0,0,1-.36-1.32,10.35,10.35,0,0,1-.44-3.39c.16-1.27.11-2.56.15-3.84,0-.29.09-.59.1-.88,0-1.19.1-2.39.1-3.59a20.12,20.12,0,0,0-.13-3,2.13,2.13,0,0,0-.79-1.29c-.56-.4-1.53.22-1.63,1-.12,1-.24,1.92-.35,2.88a16.23,16.23,0,0,1-.21,2.07,22.07,22.07,0,0,0-.2,3.95c0,.79-.17,1.57-.2,2.36a10.08,10.08,0,0,0,.1,1.63,16.22,16.22,0,0,1,0,4.85,8.5,8.5,0,0,0,0,1.35,5.63,5.63,0,0,1-.58,2.86,3,3,0,0,0-.16.88c-.15.72-.32,1.43-.45,2.15-.07.38,0,.76-.08,1.15a30.67,30.67,0,0,0-.3,3.33,26,26,0,0,0,.41,3.36c.15,1,.39,2,.51,3a21.14,21.14,0,0,0,.83,3.92,6.8,6.8,0,0,1,.24,1.75c0,.82,0,1.64,0,2.46a3.2,3.2,0,0,0,.12,1,1.48,1.48,0,0,1-.13,1.12,6.7,6.7,0,0,0-.32,1.12A2.45,2.45,0,0,1,289,64.89c-.46.08-.89.26-1.34.38a4,4,0,0,1-2.3,0A3.57,3.57,0,0,1,283,62.4a3.92,3.92,0,0,1-.09-1.82,8,8,0,0,1,.95-2.24,6.25,6.25,0,0,0,1.06-2.3c0-.25.26-.47.29-.72a1.68,1.68,0,0,0-.41-1.39,4,4,0,0,0-3.59-1.34,30.51,30.51,0,0,1-3.28.35c-1.57-.07-3.1-.74-3.47-2.52a27.09,27.09,0,0,0-.56-2.78A5.53,5.53,0,0,0,272.19,45a8.19,8.19,0,0,0-.85-.71,11,11,0,0,0-1.95-1.08,12.13,12.13,0,0,0-2.63-.63,5.44,5.44,0,0,0-3.05.21c-.3.14-.5.53-.8.61-.61.17-.75.72-1.15,1a8.42,8.42,0,0,0-2.12,2.76,4.39,4.39,0,0,0-.31,1.08,13.07,13.07,0,0,0-.34,3.6c0,.77,0,1.54,0,2.31a1,1,0,0,1-.52.84,11.88,11.88,0,0,0-1.79,1.48,3.26,3.26,0,0,1-3.44,1.18,9.37,9.37,0,0,0-1.52-.13,5.27,5.27,0,0,0-2.55.29c-.41.17-.59.39-.49.79s.29.87.37,1.32a2.09,2.09,0,0,1-.77,2.08,4,4,0,0,1-2.46,1c-.89,0-2.32-.64-2.52-1.69a15.88,15.88,0,0,0-.44-2,13.19,13.19,0,0,0-.8-1.64,6.36,6.36,0,0,0-.83,1.89,7.47,7.47,0,0,1-1,1.93c0,.06-.14.09-.21.13a2.39,2.39,0,0,1-2.78-.62,6.65,6.65,0,0,1-.58-1,.87.87,0,0,0-1.41-.36c-1.07.69-2.13,1.4-3.24,2a39.81,39.81,0,0,1-3.73,1.82c-.67.28-1.46.27-2.15.53a6.05,6.05,0,0,1-2.23,0,3.07,3.07,0,0,1-1.23-.51,2.59,2.59,0,0,1-1.24-1.25,2.79,2.79,0,0,1,.43-3.06A13.57,13.57,0,0,1,223,58.18a3.57,3.57,0,0,1,.92-.4l1.28-.5a14.56,14.56,0,0,1,3.67-1.09,3.72,3.72,0,0,1,.75,0c.74.06,1.09-.41,1.51-.87.64-.71.77-1.79,1.86-2.16.24-.62.88-.82,1.38-1.17a3,3,0,0,1,2.69-.36,7.83,7.83,0,0,0,3.13.56,1.94,1.94,0,0,0,1.5-.85,4.28,4.28,0,0,0,.89-2.31,4.25,4.25,0,0,0-3.3-4.66,13.42,13.42,0,0,1-1.85-1c-.42-.22-.88-.35-1.3-.58a4.17,4.17,0,0,1-1.42-1.06,1,1,0,0,0-.25-.17,2.73,2.73,0,0,1-1.06-1.63c-.1-.37.25-.85.37-1.28.3-1.05,1.21-1.64,1.93-2.39a4.09,4.09,0,0,0,.82-1.85,3.87,3.87,0,0,0-.87-3.72,3.34,3.34,0,0,0-2.68-1.3,12.79,12.79,0,0,0-1.57.22,5.2,5.2,0,0,1-3.72-.51,10.12,10.12,0,0,1-1.7-1.64A10.36,10.36,0,0,0,224.65,26a7.77,7.77,0,0,0-1.91-.77,2.77,2.77,0,0,0-.83-.1,1.25,1.25,0,0,0-.44.13c-.06,0-.1.11-.16.13a16.73,16.73,0,0,0-3.3,1.71,6.14,6.14,0,0,1-2.57,1,8.67,8.67,0,0,1-2.08-.15,8,8,0,0,1-1.43-.54,2.42,2.42,0,0,0-2.37.3,1.77,1.77,0,0,0-.58.84c-.17.47-.2,1-.36,1.47a3.94,3.94,0,0,1-.51.83c-.28.43-.57.86-.87,1.28a3.57,3.57,0,0,1-2.6,1.22,3.06,3.06,0,0,1-1.41-.13c-1.33-.46-1.73.31-1.84,1.19a6.22,6.22,0,0,0,.17,2.57,7.41,7.41,0,0,1,.13,1.82,6.51,6.51,0,0,1,0,1.75c-.24,1-.21,2-.93,2.84A11.58,11.58,0,0,0,199.62,45a1.65,1.65,0,0,1-1.27.73,20,20,0,0,1-2.13.21c-.69,0-.93.32-1.25.89a2.39,2.39,0,0,0-.11,1.58c.06.93.74,1.1,1.43,1.28a10.22,10.22,0,0,1,3.87,1.51,14.81,14.81,0,0,0,1.39.74,2.2,2.2,0,0,1,1,2,2.43,2.43,0,0,0,.9,2.08c.22.18.34.47.54.67a.55.55,0,0,0,.42.13,2.87,2.87,0,0,0,1.71-.89,3.89,3.89,0,0,1,3.29-1.6c.78,0,1,.21,1.19.94s.5,1.17.67,1.77a13.17,13.17,0,0,1,.47,2.28c.08.83,0,1.67,0,2.51s.09,1.86.08,2.79c0,.42-.17.84-.18,1.26a19.48,19.48,0,0,0,0,2.86,7.48,7.48,0,0,1-.18,2.08,1.76,1.76,0,0,1-1.7,1.58,5.71,5.71,0,0,1-.7,0v.18c1,.19,2.09.37,3.13.59a13.23,13.23,0,0,1,1.41.45c1,.35,2.09.66,3.11,1.06a13.7,13.7,0,0,1,2.33,1.17,7.13,7.13,0,0,1,1.17,1.21,1.92,1.92,0,0,0,.21.2,1.59,1.59,0,0,1,.28,2.21c-.21.29-.29.66-.51.93a3.66,3.66,0,0,1-1.9,1.21c-1,.27-1.91.62-2.89.88s-1.87.41-2.8.65a11.71,11.71,0,0,0-1.4.5c-.89.35-1.78.71-2.65,1.09a5.2,5.2,0,0,0-.76.52c-.67.46-.64,1.36.32,1.9a8.75,8.75,0,0,0,2.36.79c.74.18,1.45.44,2.2.59,1.14.23,2.29.39,3.44.6a45.26,45.26,0,0,0,6.29.61c1.35.06,2.7.24,4,.4.9.1,1.8.28,2.7.37s1.59.06,2.39.13,1.39.21,2.09.29c.88.11,1.77.19,2.66.29l2.65.31c1.18.13,2.36.26,3.54.4.67.08,1.34.19,2,.3l2.88.48,2.86.42,2.79.39,1.39.21,3.51.5a16.16,16.16,0,0,0,1.73.28c1.17,0,2.27.39,3.41.53s2,.38,3,.58l3.45.7c1.52.32,3,.67,4.56,1,.87.17,1.76.24,2.62.43,1.29.27,2.57.6,3.85.91s2.43.58,3.64.89c.61.15,1.21.36,1.82.52,1.08.28,2.17.53,3.24.83,1.34.38,2.68.81,4,1.22l4,1.21c1.14.35,2.27.75,3.43,1a44.81,44.81,0,0,1,5.59,1.92c1,.4,2,.67,3,1.05s1.64.75,2.47,1.09c.55.23,1.13.4,1.7.59a26.56,26.56,0,0,1,4.58,2c.6.34,1.29.54,1.93.83q1.55.69,3.08,1.42c1,.49,2.06,1,3.09,1.49l3.62,1.79a11.44,11.44,0,0,1,2,1c.54.42,1.27.7,1.5,1.43a1.22,1.22,0,0,0,.43.53,1.5,1.5,0,0,1,.58,1c.08.37-.06.44-.34.33a8.75,8.75,0,0,1-2.09-1,14.94,14.94,0,0,0-2.24-1.46c-.74-.38-1.42-.86-2.14-1.27s-1.28-.68-1.92-1-1.45-.71-2.18-1L320,113.57c-.33-.15-.64-.32-1-.46-.74-.32-1.49-.61-2.22-1-.56-.26-1.08-.58-1.63-.86a12.35,12.35,0,0,0-1.23-.52c-1.18-.43-2.36-.83-3.54-1.26q-2.06-.76-4.11-1.56c-.92-.36-1.8-.81-2.74-1.14s-2.14-.62-3.19-1-1.89-.68-2.85-1c-.18-.06-.39,0-.58-.06-.48-.13-1-.27-1.44-.42l-2.16-.7c-1-.32-2.05-.64-3.09-.94-.82-.24-1.66-.45-2.48-.67-1.08-.29-2.16-.6-3.24-.87-.57-.15-1.17-.22-1.74-.36-1-.25-1.92-.54-2.88-.79s-1.66-.39-2.5-.57c-1-.21-2-.4-3-.61l-2.93-.6c-.5-.11-1-.26-1.49-.36-.95-.19-1.9-.35-2.85-.54s-1.62-.36-2.43-.53c-1.35-.29-2.7-.61-4.06-.85s-2.87-.42-4.31-.61c-.3,0-.63,0-.93,0-.85-.11-1.7-.27-2.55-.38-.69-.09-1.4-.13-2.09-.22-.39-.06-.76-.23-1.16-.28-1.06-.15-2.13-.25-3.2-.42-.85-.13-1.69-.34-2.55-.48-.35-.06-.72,0-1.07,0-.59-.07-1.18-.23-1.77-.29-.92-.1-1.86-.12-2.78-.23s-1.54-.28-2.31-.39-1.29-.12-1.94-.19l-3-.3c-1.06-.1-2.13-.19-3.19-.3-1.22-.13-2.43-.3-3.65-.42s-2.35-.17-3.52-.28c-1.62-.15-3.24-.33-4.85-.5a19.62,19.62,0,0,1-2-.22c-1.11-.23-2.19-.54-3.29-.81a10.71,10.71,0,0,1-1.42-.34c-.93-.37-2-.51-2.65-1.38a.51.51,0,0,0-.12-.14,1.6,1.6,0,0,1-.81-1.85,3,3,0,0,1,1.07-2,8.21,8.21,0,0,1,2.71-1.4c1.28-.46,2.59-.87,3.9-1.27.49-.15,1-.16,1.5-.35,1.23-.48,2.62-.57,3.75-1.3a9,9,0,0,0,.94-.81,4.82,4.82,0,0,0-2.67-2.21c-.31-.14-.57-.37-.89-.5-.83-.34-1.67-.67-2.53-.95a15.43,15.43,0,0,0-1.63-.32l-1.92-.4c-1-.2-2-.34-3-.62s-2.09-.23-3.09-.44-2,0-2.7-.89a.86.86,0,0,1,.31-1.37.72.72,0,0,1,.34,0l1.44.36a.58.58,0,0,0,.34,0,3.43,3.43,0,0,1,2.27-.33,5.37,5.37,0,0,0,1.59-.07c.11,0,.21-.13.27-.18.68,0,1.34-.05,2-.15.13,0,.29-.37.3-.57,0-.46-.07-.92-.07-1.38s.06-1,.09-1.43c.07-1,.17-2,.2-3,0-.68,0-1.37-.06-2.05s0-1.11,0-1.65c-.09-.84-.22-1.69-.38-2.52a12.9,12.9,0,0,0-.45-1.55c-.13-.4-.46-.46-.75-.16l-1,1a1.91,1.91,0,0,1-1.29.66,6.29,6.29,0,0,0-1.57.57,1.52,1.52,0,0,1-1.54-.37,7.94,7.94,0,0,1-2.14-2.88,1.25,1.25,0,0,1-.05-.54c0-.7.08-1.44-.74-1.88-.6-.33-1.16-.71-1.75-1a1.18,1.18,0,0,0-.58-.18c-1.3,0-2.38-.66-3.57-1-.59-.15-.71-.82-.91-1.31a4,4,0,0,1,.69-4,2.51,2.51,0,0,1,1.39-.85,11.63,11.63,0,0,1,2.59-.29,1.11,1.11,0,0,0,.71-.52,10.88,10.88,0,0,0,1.22-2.4,6.77,6.77,0,0,0,.14-3.28,15.23,15.23,0,0,1-.32-3,4.42,4.42,0,0,1,.51-2.38,2.46,2.46,0,0,1,1.82-1.09,5.11,5.11,0,0,1,2.26.2,2.31,2.31,0,0,0,1.9-.85,6.52,6.52,0,0,0,1.13-2.6,3.54,3.54,0,0,1,.88-1.45,4,4,0,0,1,3.84-1.16,4.15,4.15,0,0,1,1.67.63,2.66,2.66,0,0,0,1.94.21,3.15,3.15,0,0,0,1.71-.76,6.36,6.36,0,0,1,1.1-.61c.26-.16.47-.4.75-.54.85-.43,1.71-.85,2.6-1.21a1.94,1.94,0,0,1,.92.06,8.88,8.88,0,0,1,1.49.31,4.36,4.36,0,0,1,2.35,1.54,8.74,8.74,0,0,0,1.93,2.16,4.19,4.19,0,0,0,3.34.58,9.78,9.78,0,0,1,2.52-.16c.48,0,.91.46,1.39.61a3.45,3.45,0,0,1,2,2,4.88,4.88,0,0,1,.63,3.25,3.77,3.77,0,0,0-.11.83,6.16,6.16,0,0,1-1,2.57,1.73,1.73,0,0,1-.72.69,2.24,2.24,0,0,0-1,1.75c-.1.55.48.89.9,1.19a20.28,20.28,0,0,0,1.82,1c.84.46,1.68.93,2.53,1.37a8.79,8.79,0,0,1,1.49.73,5,5,0,0,1,2,3.29,14.51,14.51,0,0,1,.19,2.22A3.88,3.88,0,0,1,244,51a4.5,4.5,0,0,1-2.77,2.62,1.9,1.9,0,0,1-.51.09c-.86,0-1.72.05-2.57,0a6,6,0,0,1-1.44-.4,1.84,1.84,0,0,0-1.89.42c-1.24,1-2,2.43-3.19,3.54a1.33,1.33,0,0,1-1.24.45,5.57,5.57,0,0,0-2.88.26,17.17,17.17,0,0,0-3.2,1.41,3.13,3.13,0,0,0-1.07,1.31c-.25.48.37,1.44,1,1.59a5.93,5.93,0,0,0,2,.19A6.34,6.34,0,0,0,228,61.8a20.92,20.92,0,0,1,2.9-1.34c.76-.21,1-1,1.72-1.11,0-.45.38-.67.67-.93.07-.06.18-.15.23-.13.7.23,1.23-.18,1.8-.41a2.57,2.57,0,0,1,2.67.79l1,1.64c.42-1,.75-1.88,1.14-2.73a3.82,3.82,0,0,1,.73-1.11,1.57,1.57,0,0,1,2.3,0,5.09,5.09,0,0,1,1.76,3.76,1.56,1.56,0,0,0,.8,1.21c.14.09.54-.06.77-.18.58-.29.89-.62.73-1.33a19.84,19.84,0,0,1-.24-2.82,11.65,11.65,0,0,1,1.2-.5,17.18,17.18,0,0,1,2.63-.66,9.27,9.27,0,0,1,1.91.21c.63.06,1.29.44,1.9,0s1.27-.94,1.9-1.42c.06,0,.08-.18.14-.2.85-.27.78-.92.74-1.55a17.51,17.51,0,0,1-.09-1.83c0-.78.19-1.56.28-2.34a2.41,2.41,0,0,0,0-.35,5.14,5.14,0,0,1,1-2.68,15,15,0,0,1,2.41-3A5.5,5.5,0,0,1,264.82,41a24,24,0,0,1,2.94.17,11.56,11.56,0,0,1,3,.87A7.34,7.34,0,0,1,274,44.53a10.35,10.35,0,0,1,1.32,2,12.44,12.44,0,0,1,.6,2.21,9.68,9.68,0,0,0,.47,1.84,1.65,1.65,0,0,0,1,.68,2.94,2.94,0,0,0,1.91,0c.28-.12.68,0,1,0a6.19,6.19,0,0,1,2.68,0c1.67.46,3.2,1.11,3.89,2.77a2.59,2.59,0,0,1-.06,2.09c-.22.51-.33,1.05-.57,1.55s-.63,1.15-1,1.72a3.68,3.68,0,0,0-.12,3.67,1.55,1.55,0,0,0,2,.75,2.57,2.57,0,0,0,.44-.16c.38-.21,1,.07,1.2-.51a12.58,12.58,0,0,0,.56-1.23,13.38,13.38,0,0,0,.06-2.11c.27-1.91-.4-3.71-.79-5.54-.13-.59-.19-1.2-.27-1.8-.12-.82-.21-1.66-.36-2.47a16.07,16.07,0,0,1-.6-4.67c.15-1.54.21-3.09.45-4.62.18-1.16.6-2.3.89-3.45A6,6,0,0,0,289,36.1c.12-1.75.28-3.49.3-5.24,0-1.06-.23-2.12-.28-3.19,0-.52.15-1,.17-1.56s-.08-.82-.08-1.23c0-1.08,0-2.16.11-3.23,0-.68.23-1.35.3-2,0-.5,0-1,0-1.51.08-.66.25-1.31.4-2,.1-.42.21-.84.34-1.26a1.34,1.34,0,0,1,.8-1,3.07,3.07,0,0,0,.54-.3,2.53,2.53,0,0,1,2-.14,2.64,2.64,0,0,1,2.07,2.25,10.37,10.37,0,0,1,.3,4.14,16.31,16.31,0,0,0-.11,1.78c0,1.28-.06,2.55-.12,3.83a20.8,20.8,0,0,0-.18,2.22,19.11,19.11,0,0,0,.46,3.1c.27,1.17.64,2.32,1,3.46a13.6,13.6,0,0,0,.76,1.63,5.11,5.11,0,0,1,.6,2.7c-.07.86-.25,1.71-.38,2.56a.68.68,0,0,0,0,.14c.11,1.29-.6,2.44-.73,3.69-.09.85-.23,1.69-.34,2.53-.14,1-.32,2.07-.4,3.12a8.9,8.9,0,0,0,.18,1.56c.08.75.1,1.51.23,2.25a10.94,10.94,0,0,0,.52,1.68q.4,1.15.85,2.29a4.65,4.65,0,0,0,1.57,2,3,3,0,0,0,.64-2c0-.35-.21-.73-.29-1.11a5.42,5.42,0,0,1-.1-.83c0-.63-.12-1.25-.1-1.88,0-.85.11-1.69.17-2.54,0-.16,0-.33,0-.49a20.37,20.37,0,0,1,.09-3.54,7.66,7.66,0,0,0,0-1.85,6.67,6.67,0,0,1,.75-2.81,2.61,2.61,0,0,1,1.33-1.66,5.33,5.33,0,0,1,1.12-.48,2.52,2.52,0,0,1,.94.2,3.86,3.86,0,0,1,2.9,3.58,8.24,8.24,0,0,1,0,1.66,5.06,5.06,0,0,1-.34,1.11,16.1,16.1,0,0,0-1,2.82,19.8,19.8,0,0,0,0,3.29,5.08,5.08,0,0,0,.07.54,2,2,0,0,0,.64,1.22,5.34,5.34,0,0,1,1.38,3.54,10,10,0,0,1-.25,1.89c-.08,1-.57,1.85-.33,2.86.13.55,0,1.17.47,1.62a5.74,5.74,0,0,0,1.06.82,5.37,5.37,0,0,0,2.59.72,5.56,5.56,0,0,0,2-.6,4.67,4.67,0,0,0,.74-.32c.29-.16.55-.35.82-.54.45-.31.91-.6,1.33-.94a4.58,4.58,0,0,0,.48-.58c.16-.18.4-.32.52-.52a3.08,3.08,0,0,0,.15-2.86c-.28-.69-.71-1.42-.35-2.2a8.13,8.13,0,0,1,.9-1.52,4.68,4.68,0,0,1,3.35-1.52,16.22,16.22,0,0,0,2.16-.47,1.49,1.49,0,0,0,.9-1.71,6,6,0,0,1,0-2.83,3.44,3.44,0,0,1,3.42-2.37c.85,0,1.69.2,2.54.31,1,.13,2,.27,3,.37a11.34,11.34,0,0,0,1.66,0,2.2,2.2,0,0,0,.85-.2,4.93,4.93,0,0,0,2-1.35,4.24,4.24,0,0,0,0-4.66,6.75,6.75,0,0,0-1.75-1.17,11,11,0,0,0-1.16-.52l0,0a15.66,15.66,0,0,0-2.6-.81,8.21,8.21,0,0,0-2.46.15,10.33,10.33,0,0,1-2.6.33,13.44,13.44,0,0,0-2.5.09,9.44,9.44,0,0,1-3.33-.5c-.91-.22-1.8-.53-2.69-.81A4.39,4.39,0,0,1,317.1,38c-.53-.57-1.08-1.13-1.6-1.71a5.14,5.14,0,0,1-1.14-3.38c-.07-1.13-.19-2.26-.32-3.39a1.5,1.5,0,0,0-1.16-1.06,6.7,6.7,0,0,1-2.75-1.26,1.81,1.81,0,0,1-.44-1,3.27,3.27,0,0,1,.93-3,11.83,11.83,0,0,1,2.29-2.11,4.57,4.57,0,0,1,2-.47,23.77,23.77,0,0,1,2.5-.05,1.33,1.33,0,0,0,1.09-1.76q-.43-1.63-.83-3.26a2.82,2.82,0,0,1,1.63-2.94c.31-.12.61-.28.91-.43a4,4,0,0,1,2.49-.24,3.65,3.65,0,0,1,1.27.61,1.93,1.93,0,0,0,1.68.25,28.3,28.3,0,0,0,3.51-1.44,5.18,5.18,0,0,0,1.28-1.25c.83-.9,1.25-2.11,2.57-2.65a24.57,24.57,0,0,0,2.44-1.42,6,6,0,0,1,2.89-.79,3.7,3.7,0,0,1,2.16.87c.87.66,1.77,1.3,2.67,1.92.39.26.83.45,1.23.69a1.54,1.54,0,0,0,1.25.13,5.74,5.74,0,0,1,2.28-.11,5.43,5.43,0,0,1,2.07,1c.56.31.91.93,1.38,1.38a3.61,3.61,0,0,0,.91.64,1.66,1.66,0,0,1,.93.85Z"/></g></g></svg>