<svg xmlns="http://www.w3.org/2000/svg" viewBox="0 0 152.34 110.9"><defs><style>.cls-1{fill:#fff;}</style></defs><title>celeb_title</title><g id="Layer_2" data-name="Layer 2"><g id="ceremonie"><path class="cls-1" d="M152.34,108.13c-.38.86-1.19,1.1-1.78.54a1.4,1.4,0,0,1-.37-.8c-.12-1.11-.2-2.22-.28-3.33-.11-1.48-.25-3-.33-4.45s-.07-3-.13-4.48a15.31,15.31,0,0,0-.24-2.61,4.5,4.5,0,0,0-.8-1.48,18.57,18.57,0,0,1-2.29-4.5c-.56-1.6-1.28-3.15-1.93-4.73-.35-.85-.63-1.72-1-2.55-.47-1-1-1.94-1.56-2.9l-.39-.74a2.62,2.62,0,0,0-.06.4c0,1.42.12,2.84.14,4.25,0,1,0,2.05,0,3.08s0,2.33,0,3.5.15,2.15.2,3.22c0,.37-.11.75-.09,1.12.06,1.74.17,3.48.2,5.22,0,1.14-.13,2.29-.08,3.44s.2,2.37.36,3.55c.08.62.27,1.23.39,1.85a1.08,1.08,0,0,1-.48,1.14.7.7,0,0,0-.3.77c0,.48,0,.94-.55,1.17a.8.8,0,0,1-1.12-.32,12.26,12.26,0,0,1-.64-1.87,8.36,8.36,0,0,1-.29-1.3c-.05-.42,0-.85,0-1.27,0-1.06-.11-2.12-.1-3.18,0-.74.15-1.49.18-2.23s0-1.73,0-2.6,0-2,0-3-.15-1.78-.21-2.67c0-.35,0-.71,0-1.06-.06-1.24-.14-2.49-.21-3.73,0-.55-.1-1.11-.12-1.66,0-1.73-.07-3.47-.12-5.2-.06-2.24-.13-4.48-.23-6.71a5.89,5.89,0,0,0-.25-1.27,1.41,1.41,0,0,1,.87-1.37c.32,0,.63-.16.95-.21a1.39,1.39,0,0,1,1.63,1.12,3.4,3.4,0,0,0,.56,1.31c.51.94.93,1.93,1.36,2.92.49,1.15.94,2.32,1.43,3.47s1,2.16,1.44,3.25c.58,1.39,1.09,2.8,1.68,4.19.31.72.74,1.4,1.08,2.11.15.32.05.79.56.89h0c0-1.22,0-2.44,0-3.66,0-.37,0-.74,0-1.11-.08-1-.17-2-.26-2.94s-.19-2-.29-2.94c-.18-1.75-.37-3.5-.54-5.26,0-.37,0-.74,0-1.11s-.13-.55-.13-.82c0-.73.25-1,.94-1.08s1-.41,1.64-.23a.72.72,0,0,1,.58.84c0,.13,0,.26,0,.39-.14,1.3-.34,2.59-.42,3.89a31.74,31.74,0,0,0,0,3.44c0,.95.24,1.89.3,2.83s0,2,0,3,.15,1.89.22,2.83c0,.55.06,1.11.09,1.66s.1,1.39.1,2.08c0,.45-.11.91-.09,1.36.05,1.73.16,3.47.21,5.2,0,1.08,0,2.17,0,3.25,0,.39.16.78.21,1.17.09.89.14,1.78.24,2.67a1.86,1.86,0,0,0,.21.5Z"/><path class="cls-1" d="M89,110.9a5.67,5.67,0,0,1-.58-.86c-.4-.92-.76-1.85-1.13-2.78-.43-1.09-.8-2.2-1.31-3.26-.66-1.38-1.43-2.71-2.23-4.2a14.93,14.93,0,0,1-1,2,3.45,3.45,0,0,0-.51,2c-.06,1.42-.19,2.85-.19,4.27a1.48,1.48,0,0,1-.6,1.34,1.36,1.36,0,0,1-1.41.21c-.51-.17-.55-.6-.48-1.15.12-.94,0-1.92.17-2.86a1.19,1.19,0,0,0-.44-1.17.56.56,0,0,1-.06-.52,4.79,4.79,0,0,0,.69-2.87c-.06-1-.1-1.91-.11-2.86,0-.68.08-1.35.1-2,0-1.37.1-2.74.1-4.11,0-1.15-.09-2.31-.09-3.46,0-.88.09-1.77.09-2.65,0-.55-.09-1.11-.09-1.66,0-1.16,0-2.33,0-3.49s-.17-2.13-.2-3.2c0-.68.08-1.35.09-2s0-1.29,0-1.93,0-1.39-.1-2.08c0-.5-.19-1-.19-1.5a3.21,3.21,0,0,1,.26-1.42c.22-.41.73-.27,1.15-.21.58.08,1.16.12,1.74.18a7.72,7.72,0,0,0,.91.09c1.49,0,3-.12,4.46-.09a28.16,28.16,0,0,1,3.42.33c.67.1,1,.72,1.44,1.17a4.51,4.51,0,0,1,1.07,2.55,4,4,0,0,1-.12,1.3c-.2,1.1-.35,2.22-.66,3.29a28.24,28.24,0,0,1-1.14,3c-.33.81-.69,1.62-1.06,2.41-.56,1.17-1.17,2.31-1.71,3.49-.43.93-.8,1.88-1.17,2.84-.76,2-1.5,4-2.24,6a14.64,14.64,0,0,0-.61,1.72,1.82,1.82,0,0,0,.12,1c.28.72.63,1.41.95,2.11.15.32.28.65.41,1,.32.79.61,1.58,1,2.36.63,1.41,1.3,2.81,2,4.22.33.7.68,1.39,1,2.1a1.38,1.38,0,0,1-.63,1.5ZM82.21,98.07c.1-.16.16-.24.21-.33A17.57,17.57,0,0,0,83.34,96c.61-1.58,1.16-3.18,1.76-4.77.26-.7.56-1.39.86-2.07s.62-1.29.91-1.95c.76-1.75,1.51-3.51,2.23-5.27.5-1.21,1-2.44,1.42-3.67.22-.59.39-1.2.6-1.79a6.49,6.49,0,0,0,.63-3.61A2,2,0,0,0,90,71c-.71-.1-1.42-.18-2.13-.22a23.48,23.48,0,0,0-2.53-.07c-1,0-1.91.23-2.87.28-.74,0-.85.14-.68.89A5.57,5.57,0,0,1,82,73.15c0,1-.08,2-.13,2.93a17,17,0,0,0-.08,2c.09,1.32.27,2.63.4,3.95a1.51,1.51,0,0,1,0,.33A15.31,15.31,0,0,0,82,84c0,1,.09,2.06.08,3.09s-.07,2.2-.1,3.3c0,.33,0,.67,0,1,0,.68-.12,1.35-.08,2C82,94.93,82.09,96.41,82.21,98.07Z"/><path class="cls-1" d="M0,34.35c.11-.65.25-1.3.32-1.95.12-1.12.2-2.25.29-3.37.06-.75.08-1.5.17-2.25s.29-1.66.42-2.5.23-1.67.34-2.5c0-.09,0-.2,0-.27a26.74,26.74,0,0,0,1-4.2c.28-1.17.71-2.3,1-3.46.27-1,.45-2,.73-3A10.15,10.15,0,0,1,5.51,7.73,15,15,0,0,1,6.72,6,8.54,8.54,0,0,1,8.09,5a4.49,4.49,0,0,1,1.05-.77,3.45,3.45,0,0,1,1.42,0,4.14,4.14,0,0,1,2.1.92,4.31,4.31,0,0,1,1.42,2c.22.64.46,1.27.71,1.9a.69.69,0,0,1-.47.77.85.85,0,0,1-1-.62,3.05,3.05,0,0,0-.17-.38c-.53.25-.76-.06-1.07-.45A3.21,3.21,0,0,0,9.2,6.86a1,1,0,0,0-.9.6c-.43.82-.9,1.62-1.3,2.46s-.68,1.65-1,2.47a7.91,7.91,0,0,0-.43.91c-.18.68-.31,1.37-.46,2.05-.21.95-.43,1.89-.63,2.85s-.39,2.13-.6,3.19c-.17.85-.38,1.69-.55,2.55C3.13,25,3,26,2.77,27s-.47,2-.62,3.07a17.17,17.17,0,0,0,0,1.89c0,1.13-.13,2.25-.14,3.38a9.35,9.35,0,0,0,.17,1.35,1,1,0,0,1,0,.26,10.36,10.36,0,0,0,0,3.75,6.79,6.79,0,0,0,1.09,2.37A2.37,2.37,0,0,0,5,44a7.64,7.64,0,0,0,1.44.31c1,0,2,0,3,0a10.07,10.07,0,0,0,2.08-.14,10.35,10.35,0,0,0,2-.81c.54-.25,1-.58,1.57-.83a.88.88,0,0,1,1.16.49.7.7,0,0,1-.41,1c-.25.1-.37.47-.61.63a4.26,4.26,0,0,1-1.21.63q-2.08.57-4.2,1a5.7,5.7,0,0,1-1.14-.09,4.69,4.69,0,0,0-1.2.1,2.17,2.17,0,0,1-1.92-.23,2.7,2.7,0,0,0-1-.3,5.83,5.83,0,0,0-1.14-.12,1.49,1.49,0,0,1-1.15-.57,3.33,3.33,0,0,1-1-1.85c0-.3-.35-.55-.42-.85-.21-.87-.37-1.76-.56-2.64-.06-.29-.15-.57-.22-.86Z"/><path class="cls-1" d="M25.37,0a1.27,1.27,0,0,1,.16.11l.5.47a3.28,3.28,0,0,1-.51.41q-1.21.63-2.43,1.23c-1,.47-1.92,1-2.91,1.35a1.05,1.05,0,0,1-1.44-.92.67.67,0,0,1,.64-.75,10.85,10.85,0,0,0,2.83-1L24.54.11A.84.84,0,0,0,24.71,0Z"/><path class="cls-1" d="M109.24,23.13l-.74-.38a12.82,12.82,0,0,0,0,1.36c0,.56.15,1.11.23,1.66a22.55,22.55,0,0,1,.32,2.48c0,1-.07,2-.14,3.07a10.7,10.7,0,0,1-.19,1.57c-.2.92-.49,1.82-.68,2.75a7.67,7.67,0,0,1-1.25,2.71c-.52.78-.93,1.76-1.93,2.1a1,1,0,0,1-.75-.21,2.13,2.13,0,0,0-.37-1.37s0-.14,0-.22l.14.09c.53-.69,1.1-1.36,1.58-2.09a10.88,10.88,0,0,0,1.12-2.13,19,19,0,0,0,.8-3,16.11,16.11,0,0,0,.23-2.56,14.42,14.42,0,0,0-.17-1.46,8.21,8.21,0,0,0-.06-1.49A26.43,26.43,0,0,0,106,21.74a17,17,0,0,0-2.31-3.4,20.39,20.39,0,0,0-4.83-4,25.22,25.22,0,0,0-3-1.76A4.44,4.44,0,0,0,94,12.31c-.79,0-1.57.07-2.36.1a9.1,9.1,0,0,0-2.05,0,26.33,26.33,0,0,0-3,1.17c-.27.11-.49.32-.76.41a9.73,9.73,0,0,0-3.58,2.29,21,21,0,0,0-3.64,4.41,17.64,17.64,0,0,0-1.42,3.08,9.25,9.25,0,0,0-.61,2.77,14.18,14.18,0,0,0,.29,4.89c.26.82.29,1.72.59,2.51a16.87,16.87,0,0,0,1.33,2.63c.41.7.94,1.33,1.41,2a6.63,6.63,0,0,0,1.85,1.76c1,.67,2,1.51,3.07,2.12a33.61,33.61,0,0,0,4,1.86,5.9,5.9,0,0,0,1.88.28,22.11,22.11,0,0,0,2.57,0,7.17,7.17,0,0,0,1.17-.36,1.59,1.59,0,0,1,1.39,0,3.91,3.91,0,0,1,.38.34c-.15.14-.27.36-.45.41-.44.14-.9.2-1.44.31l.32.45c0,.67-.48.7-1,.73-.79.05-1.58.3-2.37.28a17.34,17.34,0,0,1-4.76-.75,13.1,13.1,0,0,1-4.06-2c-1.17-.87-2.32-1.77-3.4-2.74A35,35,0,0,1,76,38.12a7.88,7.88,0,0,1-1.14-2.28,23.37,23.37,0,0,1-.9-2.76,10.57,10.57,0,0,1-.49-4.2c.06-.38-.07-.79-.06-1.19a12,12,0,0,1,1.2-4.95A25.12,25.12,0,0,1,77,18.8a14.26,14.26,0,0,0,.84-1.19c.19-.32.27-.71.49-1a6.73,6.73,0,0,1,1-1c.57-.49,1.16-1,1.78-1.39.83-.58,1.7-1.11,2.55-1.67.32-.21.6-.47.93-.66s.68-.29,1-.44c.54-.24,1.08-.47,1.61-.73a11,11,0,0,1,4.52-1.16,19.34,19.34,0,0,1,4.37.36,9,9,0,0,1,2.86.72c1.14.65,2.49,1,3.36,2.12.46.58,1.12,1,1.62,1.56a23.64,23.64,0,0,1,1.64,2q1,1.4,2,2.87a4.71,4.71,0,0,1,1.1,3.49A3.28,3.28,0,0,1,111,21.49c.62-.12,1.24-.24,1.87-.33a16.91,16.91,0,0,1,2-.21,14,14,0,0,1,2.25.11,15.57,15.57,0,0,1,2.2.51c.93.27,1.85.59,2.76.92a6,6,0,0,1,1,.5,8.85,8.85,0,0,1,.94.63,2.64,2.64,0,0,1,.64.63,4.07,4.07,0,0,0,1.18,1.14,5,5,0,0,1,1,1.2c.45.62.83,1.29,1.3,1.89a17.24,17.24,0,0,1,2.12,2.85,7.11,7.11,0,0,1,.56,1.72A24.45,24.45,0,0,1,131.3,36c.09,1.08.08,2.17.09,3.26a7.21,7.21,0,0,1-.1,1.15c-.18,1.16-.34,2.32-.57,3.47a7.2,7.2,0,0,1-.54,1.33c-.19.45-.36.92-.6,1.35a17.21,17.21,0,0,1-2.6,3.74c-1.27,1.32-2.42,2.75-3.74,4a7.06,7.06,0,0,1-3.7,2,8.25,8.25,0,0,0-1.47.61,2.87,2.87,0,0,1-.65.08c.37-.6,1.16-.53,1.42-1.27a18.08,18.08,0,0,1-6.55.65A14,14,0,0,1,109.7,56a17.22,17.22,0,0,1-2.89-.8,8.57,8.57,0,0,1-2.09-1.31,26.15,26.15,0,0,1-2.28-2.15,4.09,4.09,0,0,1-1-1.41c-.48-1.48-1.86-2.41-2.3-3.9-.1-.34-.44-.6-.6-.93a11.55,11.55,0,0,1-1.34-4.79c0-.7-.22-1.39-.3-2.09,0-.26.11-.54.09-.81a11.27,11.27,0,0,1,.56-4,46.18,46.18,0,0,1,1.37-4.59A7.79,7.79,0,0,1,101,26.27c.67-.58,1.37-1.14,2.09-1.64.19-.13.53-.05.81-.07,0,.29.12.67,0,.85a3.81,3.81,0,0,1-1,.81,7.51,7.51,0,0,0-2.28,2.35,5.77,5.77,0,0,0-.68,1c-.4,1.09-.79,2.2-1.08,3.32A29.85,29.85,0,0,0,98,36.95a20.36,20.36,0,0,0,.11,3.16h.15c.08-.72.13-1.45.24-2.16.21-1.3.43-2.59.69-3.87a9.48,9.48,0,0,1,.5-1.54c.41-1,.81-2.11,1.29-3.12a5,5,0,0,1,.83-.94c.64-.74,1.24-1.51,1.9-2.22a.94.94,0,0,1,1.45,0c.15.28.2.63-.21.7-.77.13-1.13.71-1.57,1.24a12,12,0,0,0-1.11,1.29,16.24,16.24,0,0,0-1.11,2.23,16,16,0,0,0-.87,2.53c-.24,1-.33,2.09-.47,3.14a23.76,23.76,0,0,0-.29,2.48A10.19,10.19,0,0,0,99.72,42a25.25,25.25,0,0,0,.79,3.41c.35,1,.94,2,1.37,3a4.79,4.79,0,0,0,1.37,2,13.49,13.49,0,0,0,3.35,2.3c.27.1.44.44.71.54a13.65,13.65,0,0,0,2.35.75c1.4.25,2.83.43,4.25.56a18.43,18.43,0,0,0,3.43.1,12.53,12.53,0,0,0,3-.77,8.86,8.86,0,0,0,3.3-1.91,11,11,0,0,0,1.69-2.57,25.11,25.11,0,0,0,1.2-2.73c.21-.53.32-1.1.49-1.65s.39-1.11.56-1.67a19,19,0,0,0,.63-2.28,17.63,17.63,0,0,0,.34-3.19,11.87,11.87,0,0,0-1.1-4.33c-.14-.33-.28-.66-.41-1a12.47,12.47,0,0,0-3.24-5,21.4,21.4,0,0,1-1.64-1.6,5.05,5.05,0,0,0-2.6-1.46c-1.71-.43-3.42-.88-5.14-1.23a4.54,4.54,0,0,0-1.9.11,21.52,21.52,0,0,0-2.48.87.6.6,0,0,1-.84-.46C109.22,23.6,109.24,23.38,109.24,23.13Zm3.07-.86,0,.11c.71,0,1.42-.11,2.13-.11a16.92,16.92,0,0,1,5,1,6.71,6.71,0,0,1,3.23,1.54A21.13,21.13,0,0,1,125,27.14a4.39,4.39,0,0,0,.58.56,3.6,3.6,0,0,1,.52.56q.64,1,1.23,2a9.14,9.14,0,0,1,.64,1.29c.42,1.1.77,2.22,1.19,3.32a8.83,8.83,0,0,1,.55,3.8,28.48,28.48,0,0,1-.83,4c-.08.36-.23.71-.35,1.07-.33,1-.64,2-1,3-.17.5-.36,1-.53,1.5l.21.1c.32-.53.67-1,1-1.6a23.52,23.52,0,0,0,1.23-2.56c.25-.66.27-1.4.47-2.08a14,14,0,0,0,.41-5c0-.42,0-.86-.08-1.27-.13-.78-.37-1.55-.46-2.34a5.68,5.68,0,0,0-1.2-2.73c-.48-.67-1-1.29-1.51-1.95s-.88-1.24-1.38-1.81a17.94,17.94,0,0,1-1.6-1.67,6,6,0,0,0-2.49-1.94,26.71,26.71,0,0,0-2.84-1,10.22,10.22,0,0,0-5.06-.47A13.89,13.89,0,0,0,112.31,22.27Zm-22,23.56,0-.15c-.11,0-.22-.14-.33-.14a8.21,8.21,0,0,1-3.48-1.1A19.49,19.49,0,0,1,82,41.7c-.91-.74-1.76-1.54-2.59-2.36a7.43,7.43,0,0,1-1.1-1.44,29.71,29.71,0,0,1-1.69-3.06,9.24,9.24,0,0,1-.56-2.19,30.94,30.94,0,0,1-.47-3.33,14,14,0,0,1,.11-2.8,19.11,19.11,0,0,1,.68-3.28A12.94,12.94,0,0,1,78.62,19c.42-.52.78-1.08,1.18-1.61.27-.36.58-.69.87-1l-.16-.14c-.65.71-1.35,1.39-1.94,2.15a24.25,24.25,0,0,0-1.68,2.51A18.84,18.84,0,0,0,75.25,24a11.2,11.2,0,0,0-.69,4.39,14.91,14.91,0,0,0,0,1.93c.23,1.24.54,2.46.85,3.67A7.63,7.63,0,0,0,77,37.44c.62.68,1.13,1.47,1.79,2.1a39.79,39.79,0,0,0,3,2.6,21.54,21.54,0,0,0,3,2.13A16,16,0,0,0,88,45.41,21.82,21.82,0,0,0,90.29,45.83ZM95.34,11.2c3.61,1.25,6.43,3.67,9.24,6.13a1,1,0,0,0-.17-.48c-.76-.92-1.51-1.84-2.3-2.73a5.84,5.84,0,0,0-2.46-1.84,9.37,9.37,0,0,1-1.54-.86c-.13-.07-.25-.21-.37-.21C96.94,11.19,96.14,11.2,95.34,11.2Zm14.8,11.56.07.17,1.47-.39,0-.17Z"/><path class="cls-1" d="M44.34,106.31c1.12-.06,2.24-.06,3.35-.2a4.28,4.28,0,0,0,1.37-.59c.41-.22.69-.11.66.35a1.75,1.75,0,0,1-.28,1,4.54,4.54,0,0,1-2.35,1.58,4.66,4.66,0,0,0-.72.22c-1.21.45-2.34,0-3.49-.27a8.48,8.48,0,0,0-.9-.17L39.71,108c-.36,0-.72-.12-.88-.53,0-.06-.11-.1-.17-.13a5.47,5.47,0,0,1-2.37-2.92,11.4,11.4,0,0,1-.62-2.84c-.21-1.4-.35-2.81-.51-4.21-.07-.58-.11-1.15-.16-1.73-.12-1.36-.25-2.72-.33-4.08s-.07-2.52-.12-3.78q-.09-2.26-.22-4.52c-.06-1-.16-2.08-.21-3.11,0-.65,0-1.3,0-1.95,0-.86.11-1.72.09-2.59s-.16-1.45-.2-2.17c-.06-1-.08-1.92-.12-2.88s-.08-1.67-.11-2.5c0-1.74-.09-3.49-.11-5.23,0-1.17,0-2.33,0-3.5q0-2-.11-4c-.06-1.6-.16-3.2-.22-4.8-.05-1.38-.05-2.76-.12-4.14-.09-1.77-.24-3.54-.32-5.31,0-1.07,0-2.14,0-3.21s-.15-2-.18-3.06c0-.76.07-1.52.07-2.28s-.09-1.5-.09-2.26c0-.58.09-1.17.09-1.75,0-2,0-4,0-5.94,0-.9-.12-1.8-.15-2.7,0-.54.07-1.09,0-1.63-.06-1.56-.12-3.11-.22-4.67-.07-1.09-.23-2.17-.31-3.26,0-.63,0-1.26,0-1.89q0-1.61,0-3.22A1.3,1.3,0,0,1,33,4.33c.13,0,.34,0,.39.13a6,6,0,0,1,1.05,3c0,.75-.09,1.5-.11,2.25a20.4,20.4,0,0,0,.25,4.24,10.28,10.28,0,0,1,0,1.63c0,.23.07.46.09.69.14,1.92.33,3.83.41,5.75.05,1.2-.05,2.4-.07,3.6a4.84,4.84,0,0,0,.09.7,9.16,9.16,0,0,1,.12,1c0,.69,0,1.37,0,2.06,0,1.4-.08,2.81-.09,4.21,0,.83.09,1.65.09,2.48,0,1.44,0,2.88-.05,4.33,0,.17.06.35.06.52,0,.93,0,1.86,0,2.78s.16,1.82.18,2.73-.06,1.54-.09,2.31c0,.6,0,1.19,0,1.79,0,.83,0,1.66,0,2.49,0,1.14,0,2.27,0,3.41s.1,2.21.1,3.31-.06,2.43-.08,3.64c0,.19.08.39.09.59,0,1.21,0,2.42.12,3.63s.22,2.47.32,3.7c.09,1.06.15,2.13.23,3.19.05.67.19,1.33.2,2,0,1.36,0,2.73,0,4.09A8.57,8.57,0,0,0,36.39,83a10.63,10.63,0,0,1,.17,1.8c.11,1.4.23,2.8.33,4.2.05.74,0,1.48.12,2.21.14,1.31.32,2.62.48,3.93.1.82.19,1.63.29,2.45.08.63.13,1.26.27,1.88.23,1.05.5,2.1.8,3.13a3.21,3.21,0,0,0,1.35,2,6.85,6.85,0,0,1,1.14.92,2.47,2.47,0,0,0,1.94.69c.35,0,.7,0,1.05,0Z"/><path class="cls-1" d="M70.54,109.11c-1,.08-2,.14-3,.25a4.17,4.17,0,0,0-.84.33c-.76.27-1.23-.07-1.32-.86-.18-1.71-.42-3.42-.59-5.14-.07-.67,0-1.35-.07-2-.06-1.4-.13-2.79-.18-4.19,0-1,0-2,0-2.94,0-.68-.11-1.35-.1-2,0-1.25.07-2.5.1-3.76,0-.88.06-1.76.06-2.64,0-1.08,0-2.16-.06-3.24,0-.64-.13-1.28-.1-1.92.07-1.6.23-3.21.29-4.81,0-.82-.06-1.65-.08-2.48,0-.55,0-1.11,0-1.66,0-.37,0-.68-.39-.93s-.48-1-.26-1.14a13.32,13.32,0,0,1,1.18-.86,1,1,0,0,1,1,0,8.41,8.41,0,0,0,1.77.28,12.76,12.76,0,0,0,1.47.09c.62,0,1.24-.07,1.86-.09s1.08,0,1.62,0a4.68,4.68,0,0,1,3.58,1.28,5.19,5.19,0,0,1,1.62,3c0,.43,0,.86,0,1.28.06,1,.16,2,.2,3a3.26,3.26,0,0,1-.21.93c-.24.88-.51,1.76-.73,2.64-.11.46-.1.94-.21,1.4-.29,1.18-.66,2.34-.92,3.53a19.7,19.7,0,0,1-1,3.47c-.74,1.77-1.43,3.57-2.12,5.36-.17.45-.26.94-.45,1.37s0,.61.3.82c1,.73,2.08,1.44,3.08,2.22a9.17,9.17,0,0,1,.86,1,6,6,0,0,1,1.5,2.63,3.12,3.12,0,0,1-.31,3,7.55,7.55,0,0,1-1.36,1c-.33.24-.68.45-1,.69a4.32,4.32,0,0,1-2.79,1,19.38,19.38,0,0,0-2.28.21Zm-3-6.71.14,0a25.08,25.08,0,0,1,1-2.4,41.6,41.6,0,0,0,2.25-5.69c.29-.81.55-1.63.86-2.43.44-1.15.94-2.28,1.36-3.44.24-.65.34-1.36.59-2A24.31,24.31,0,0,0,74.92,82c.21-1.24.67-2.43.89-3.66a14.48,14.48,0,0,0,.26-3.42,5.12,5.12,0,0,0-1.88-3.4,1.4,1.4,0,0,0-.87-.27c-.92,0-1.84.07-2.76.09-1.16,0-2.32,0-3.42,0a20.83,20.83,0,0,0-.53,2.73c-.09,1.42,0,2.85,0,4.28,0,.24.18.47.19.71,0,1.18,0,2.37,0,3.55,0,1.38.17,2.75.2,4.13,0,1.11-.06,2.21-.1,3.32,0,.33,0,.67,0,1s-.11.69-.09,1c.05,1.23.15,2.45.21,3.68,0,.9,0,1.8.12,2.7C67.25,99.77,67.39,101.08,67.52,102.4Zm.47,4.28a1.37,1.37,0,0,0,.25.06c.8-.05,1.6-.12,2.4-.16.48,0,1,0,1.45,0,.86-.11,1.71-.27,2.55-.44.22,0,.53-.15.61-.32a2.29,2.29,0,0,0,.21-1.74,10,10,0,0,0-1.9-3.33,3.68,3.68,0,0,0-1.83-1.29c-.36-.11-.47,0-.61.28-.83,1.8-1.69,3.58-2.52,5.38C68.37,105.6,68.2,106.12,68,106.68Z"/><path class="cls-1" d="M102.57,102.39c-1.19-.08-2.33-.21-3.46-.22-1.53,0-3.06,0-4.58.11-.54,0-.4.53-.42.84-.05.66,0,1.34,0,2s-.15,1.56-.21,2.34c0,.6-.06,1.21-.12,1.81a.86.86,0,0,1-1,.87,1.06,1.06,0,0,1-1-1.17c.08-.82.13-1.64.23-2.45.13-1.15.28-2.3.43-3.45.05-.4,0-.66-.5-.69a.79.79,0,0,1-.8-.9.87.87,0,0,1,.86-.76c.63,0,.85-.3.9-1,.08-1.23.12-2.46.23-3.69.15-1.68.33-3.36.55-5s.53-3.34.75-5c.19-1.44.31-2.89.46-4.34.18-1.7.38-3.39.55-5.09.1-1.06.11-2.13.24-3.19.15-1.23.4-2.46.58-3.69a1.46,1.46,0,0,1,1.06-1.31c.45-.16.8-.45,1.37-.29s.56.49.61.84c.16,1.09.18,2.2.42,3.26.39,1.75.91,3.48,1.38,5.21.26,1,.49,1.91.78,2.85a25.38,25.38,0,0,1,.77,4.63c.16,1.29.38,2.58.56,3.87a10.83,10.83,0,0,1,.27,2.54,6.67,6.67,0,0,0,.17,1.87c.22,1.32.52,2.62.74,3.93.16,1,.23,1.92.37,2.87.17,1.18.36,2.37.58,3.55.15.79.33,1.58.54,2.36.07.26.33.46.46.7a2,2,0,0,1,.23.66,8.5,8.5,0,0,1,.06,1.07c0,.2,0,.4-.05.59a2.92,2.92,0,0,0,0,.71c.07.41.31.87-.3,1-1,.28-1.64,0-1.77-.64-.2-1-.45-2.08-.71-3.11-.34-1.32-.73-2.64-1.09-4A3,3,0,0,1,102.57,102.39Zm-8.21-2,1.54-.14c.76-.06,1.56.09,2.19-.59.14-.15.58-.13.84-.06a6.43,6.43,0,0,0,2.57-.22c.4-.05.48-.22.38-.59-.25-.88-.51-1.76-.71-2.66s-.35-2.06-.56-3.09-.47-1.92-.66-2.88c-.28-1.38-.53-2.77-.78-4.15s-.53-2.48-.64-3.73c-.19-2.06-.24-4.12-.36-6.18a6.12,6.12,0,0,0-.13-.73A5.27,5.27,0,0,0,97.51,77c-.07.42,0,.87,0,1.3-.13.83-.37,1.64-.47,2.47-.17,1.52-.25,3.06-.41,4.59-.11,1.08-.25,2.15-.44,3.22-.26,1.53-.61,3.06-.87,4.59-.19,1.14-.31,2.3-.45,3.45-.08.67-.15,1.35-.23,2S94.45,99.74,94.35,100.41Z"/><path class="cls-1" d="M59.81,70.4c.15.09.27.13.31.2a7.12,7.12,0,0,1,.23.69,2.27,2.27,0,0,1-.52,0c-1.11-.15-2.21-.38-3.33-.47a8.48,8.48,0,0,0-2,.18,16.11,16.11,0,0,0-1.61.43c0,.65,0,1.26,0,1.86.09,1.66.2,3.32.32,5q.1,1.39.23,2.78c.1,1,.23,2,.31,3,0,.45,0,.9,0,1.34.08,1.81.18,3.63.25,5.44,0,.89,0,1.79,0,2.72l8.7-1-.3.88c0,.08-.1.15-.1.23s.08.54,0,.65a1.3,1.3,0,0,1-.84.4,17.81,17.81,0,0,0-5.75.81,6.16,6.16,0,0,1-1,.09c-.5,0-.64.26-.59.76.07.73,0,1.48.09,2.21s.19,1.26.25,1.89c.11,1,.15,2,.3,3a10.18,10.18,0,0,0,1,4,1,1,0,0,0,.33.33,6.14,6.14,0,0,0,3.62,1,5.53,5.53,0,0,0,2.46-.58c.54-.3,1.05-.63,1.58-.93a2.23,2.23,0,0,1,.43-.14,2.47,2.47,0,0,1,.14.45,1,1,0,0,1-.51,1c-.64.42-1.24.89-1.89,1.29a2.61,2.61,0,0,1-.87.25,17.24,17.24,0,0,1-2.37.4,6.21,6.21,0,0,1-3-.58,1.6,1.6,0,0,0-.62-.16,2.17,2.17,0,0,1-2-1.39,21,21,0,0,1-1.31-3.52C51.22,103,50.9,101,50.52,99c-.15-.77-.32-1.53-.43-2.31-.06-.4,0-.83,0-1.24s-.14-1-.18-1.45c0-.24.08-.5.07-.74q-.15-2.74-.33-5.48c-.1-1.64-.26-3.28-.32-4.92,0-.79.17-1.59.2-2.39,0-1,0-2.08,0-3.12q.09-3.14.23-6.27A4.34,4.34,0,0,1,50,69.82,2.39,2.39,0,0,1,51.88,69a4.29,4.29,0,0,0,2,0,5.35,5.35,0,0,1,.69,0c1-.06,2-.16,3.06-.18,1.45,0,2.9,0,4.34,0,.47,0,.56.39.56.66s-.33.47-.56.53C61.31,70.18,60.6,70.27,59.81,70.4Z"/><path class="cls-1" d="M130.18,108.7a10.2,10.2,0,0,1-2.37-.71c-2.18-1.11-2.86-3.09-3.39-5.21-.18-.72-.36-1.44-.47-2.16a17.14,17.14,0,0,1-.11-1.82c-.07-1.49-.13-3-.19-4.46,0-.86,0-1.72-.06-2.58s0-1.72,0-2.58c0-1.06,0-2.11,0-3.17,0-.81-.12-1.62-.09-2.42s.18-1.66.26-2.49c.1-1,.14-2,.3-3a25.76,25.76,0,0,1,.71-3.19c.35-1.18.82-2.33,1.24-3.5,0,0,0,0,0-.05-.36-.93.56-1.18.92-1.73a.4.4,0,0,1,.23-.13c.82-.18,1.53-.75,2.46-.62a4.9,4.9,0,0,0,1.5-.2.88.88,0,0,1,.91.44c.9,1.33,2.06,2.5,2.43,4.15.18.79.43,1.56.68,2.32.16.48.44.93.57,1.42a25.76,25.76,0,0,1,.5,2.54c.17,1.17.32,2.34.43,3.51.15,1.65.62,3.24.61,4.92,0,1.24-.3,2.44-.33,3.66a9,9,0,0,0-.09,2.4,6.46,6.46,0,0,1-.17,2c-.07.72-.12,1.45-.22,2.17-.14,1-.29,2-.49,2.93s-.46,1.88-.73,2.8a5.31,5.31,0,0,1-.45.81,14,14,0,0,1-.77,1.56A4.74,4.74,0,0,1,130.18,108.7Zm4.88-23.1H135c0-.08,0-.16,0-.24-.3-1.74-.69-3.48-.88-5.24a30.67,30.67,0,0,0-1.72-6.39A5.31,5.31,0,0,0,130.3,71c-.27-.19-.66-.43-.92-.36a2.24,2.24,0,0,0-1.1.73,5.39,5.39,0,0,0-.84,1.56c-.34,1-.62,2-.87,3a17.27,17.27,0,0,0-.56,2.81c-.09,1.11-.16,2.21-.32,3.32a44.42,44.42,0,0,0-.25,4.72c0,1,0,2.1,0,3.14s.09,1.92.14,2.87c0,.28,0,.56,0,.84q.07,1.26.14,2.52c0,.26,0,.53,0,.79a27.08,27.08,0,0,0,.14,2.86,9.7,9.7,0,0,0,2.19,4.87,5.87,5.87,0,0,0,2,1.73,1.21,1.21,0,0,0,1.75-.48c.33-.51.56-1.09.91-1.58a12.37,12.37,0,0,0,1.31-3.47c.76-2.37.58-4.86.87-7.29a49.11,49.11,0,0,0,.14-4.91C135.07,87.66,135.05,86.63,135.05,85.6Z"/><path class="cls-1" d="M26.81,31.8l0,.62a3.77,3.77,0,0,1,.77.32.69.69,0,0,1,.23.5c0,.07-.26.19-.42.22-1,.2-2,.39-3,.55s-1.76.22-2.64.34c-.64.09-1.28.21-1.92.34a.4.4,0,0,0-.24.29c0,.71,0,1.43.11,2.14.09,1,.22,2,.32,2.93a10.15,10.15,0,0,0,.22,2.25,4,4,0,0,0,1.19,1.63,5.71,5.71,0,0,0,3.11.9,2.58,2.58,0,0,0,1.78-.68c1-.74,2.05-1.48,3.1-2.19.11-.08.35,0,.53,0a2.31,2.31,0,0,1-.3.74,9.62,9.62,0,0,0-1.38,1.64c-.22.38-.74.57-1.08.9a5.65,5.65,0,0,1-4,1.5,4.64,4.64,0,0,1-3.24-1.19,5.77,5.77,0,0,1-1.51-2.29,8.47,8.47,0,0,1-.52-2.46c-.16-1.86-.25-3.72-.35-5.58-.06-1.18-.13-2.36-.15-3.55,0-1,0-1.92,0-2.87s-.1-2.09-.1-3.14c0-1.92.07-3.83.1-5.75,0-1.11,0-2.22,0-3.33,0-.74-.16-1.48-.2-2.23,0-.51,0-1,0-1.55s0-1.25,0-1.88,0-1.12,0-1.68c0-.79-.08-1.57-.12-2.36,0-.31-.07-.62-.09-.93,0-.77.19-1,1-1,1.1-.07,2.2-.22,3.31-.3.3,0,.61.1.91.08.8,0,1.59-.13,2.39-.2a1.82,1.82,0,0,1,.31.06c.8.09,1.61.16,2.41.27A1.28,1.28,0,0,1,28,5.1c.31.24.35.49-.09.67a7.8,7.8,0,0,1-3.14.76A17,17,0,0,0,21.3,7a9.53,9.53,0,0,1-1.58,0h-.55c0,1,0,1.79,0,2.64,0,1.23.08,2.47.1,3.7,0,.29-.1.57-.1.86q0,1.77,0,3.55c0,.51.05,1,.08,1.52.08,1.77.17,3.55.21,5.32,0,.79-.1,1.58-.09,2.37,0,1.39.07,2.77.1,4.16,0,.45,0,.89,0,1.33,0,.1.27.26.4.25.79-.07,1.58-.18,2.37-.28L26.18,32A3.55,3.55,0,0,0,26.81,31.8Z"/><path class="cls-1" d="M115.67,70a1.84,1.84,0,0,1-2,1,4,4,0,0,0-.64-.09l-2.91-.11c-.36,0-.48.08-.44.51.08.81,0,1.63.06,2.45,0,.53.07,1.06.08,1.59,0,.23-.1.46-.09.7,0,1.12.1,2.24.13,3.36,0,.56,0,1.12,0,1.68s.08,1,.09,1.47c0,1.46.08,2.91.11,4.37,0,1,0,1.91,0,2.87s0,1.72,0,2.57c0,1.28.14,2.56.21,3.83,0,.11,0,.22,0,.33,0,1.18,0,2.37.12,3.55.12,1.4.36,2.8.53,4.2.06.47.06.95.13,1.42s.24,1.23.29,1.85a6.77,6.77,0,0,1-.08,1.47.71.71,0,0,1-.77.68c-.48,0-1,0-1.14-.6a.26.26,0,0,0-.09-.14c-.88-.57-.59-1.5-.65-2.29-.1-1.4-.08-2.8-.13-4.2,0-1.15-.16-2.3-.21-3.45,0-.8,0-1.6,0-2.39-.09-2-.21-3.91-.33-5.86-.07-1.15-.17-2.3-.21-3.45-.06-1.6-.1-3.21-.11-4.81,0-1.33.11-2.65.08-4,0-.85-.21-1.69-.26-2.54s0-1.63-.06-2.44c0-.4,0-.8-.05-1.21s0-1,0-1.52c-.92.08-1.79.17-2.67.24a25.44,25.44,0,0,1-2.92.16c-.57,0-1.14-.36-1.12-.82a1.08,1.08,0,0,1,1-1,13,13,0,0,0,2.06-.25A8.37,8.37,0,0,1,106,69c1.31,0,2.63-.12,3.94-.16.57,0,1.14.05,1.7.08a15.1,15.1,0,0,1,2.15.13A2.45,2.45,0,0,1,115.67,70Z"/><path class="cls-1" d="M12.9,95.06c2,0,4,0,6,0,.68,0,1.35-.13,2-.1a32.48,32.48,0,0,1,6.63.57,3.73,3.73,0,0,1,2.51,1.34A1.1,1.1,0,0,1,30,98.14c-.14.14-.32.41-.27.56a1.87,1.87,0,0,1-.51,1.85,6,6,0,0,1-3.25,2.25A19.09,19.09,0,0,1,24,103l-2.87.29c-.66.06-1.31.11-2,.15-1.52.08-3,.16-4.55.22a19,19,0,0,1-5-.4,25.06,25.06,0,0,1-5.09-1.72,7,7,0,0,1-1.41-.89,1.87,1.87,0,0,1-.43-2.54,3,3,0,0,1,.42-.77,5.78,5.78,0,0,1,3.45-1.54c1.41-.3,2.83-.56,4.26-.76a14.69,14.69,0,0,1,2,0Zm11.28,1.77H20.62c-2.17,0-4.34,0-6.51,0-1.09,0-2.18.25-3.26.17a8.48,8.48,0,0,0-2.21.31c-1.29.24-2.53.78-3.8,1.15a.59.59,0,0,0-.48.61.78.78,0,0,0,.39.5A10.09,10.09,0,0,0,8,101c1.11.21,2.18.65,3.29.82a23.84,23.84,0,0,0,3.1.14c.21,0,.43-.09.64-.1,1.46-.08,2.92-.13,4.37-.24,1.11-.09,2.21-.25,3.32-.38,1.35-.15,2.74-.05,3.92-.93a3.36,3.36,0,0,0,1.3-1.62,1.17,1.17,0,0,0-.76-1.37C26.23,97.12,25.28,97,24.18,96.83Z"/><path class="cls-1" d="M13.94,84.87c1.44,0,2.89,0,4.32,0s3.1.19,4.64.33a30.12,30.12,0,0,1,3.28.45,4.78,4.78,0,0,1,2.23,1.18c.43.38.93.68,1.36,1.05a2.42,2.42,0,0,1,.64,2.68,1.78,1.78,0,0,1-.78.83A7.44,7.44,0,0,1,26,92.62c-.86,0-1.73.09-2.59.11s-2,0-3,0c-1.23,0-2.46-.1-3.7-.1-1.68,0-3.37.21-5,.06a19.47,19.47,0,0,1-4.41-.55,8.35,8.35,0,0,1-2.67-1.09A2.28,2.28,0,0,1,3.5,88.29c.17-.47.32-1,.49-1.43.26-.7,1-.85,1.53-1,1.53-.34,3.09-.59,4.64-.79,1.25-.16,2.51-.2,3.77-.3Zm-8.72,4c-.12.47.11.73.57.93a15.49,15.49,0,0,0,5.58,1.19c1.47.05,3-.07,4.43-.09,1.81,0,3.62,0,5.43,0a17.29,17.29,0,0,0,3.81-.2c.75-.17,1.54-.18,2.28-.37a4.14,4.14,0,0,0,1.1-.63.32.32,0,0,0,.14-.24,1.07,1.07,0,0,0-1.14-.68c-.55.13-1-.11-1-.56a.55.55,0,0,0-.53-.63c-.25,0-.5-.07-.74-.13a27,27,0,0,0-5.57-.64c-.28,0-.55,0-.83,0-1.1,0-2.2,0-3.3,0-.75,0-1.5-.06-2.25-.09a3.91,3.91,0,0,0-.62,0c-1.13.14-2.26.26-3.39.44S6.91,87,5.87,87.8C5.46,88.1,5.16,88.26,5.22,88.83Z"/><path class="cls-1" d="M118.31,69.58c.91,0,1.3.54,1.2,1.2s-.05,1.15-.09,1.73-.11,1.09-.11,1.64.06,1.25.07,1.88c0,.25-.06.49-.06.74,0,1.08,0,2.17,0,3.25,0,.81.21,1.62.27,2.43s0,1.44,0,2.16,0,1.52,0,2.29-.05,1.59-.08,2.38c-.07,1.95-.14,3.89-.23,5.84,0,.79-.17,1.57-.2,2.36s0,1.75,0,2.63c0,1.51-.08,3-.1,4.54a7,7,0,0,0,.2.81c0,.41.06.82.07,1.24a4.42,4.42,0,0,0,0,.87,1,1,0,0,1-.35,1.15,1.07,1.07,0,0,1-1.44-.15,1.49,1.49,0,0,0-.26-.25,1.44,1.44,0,0,1-.71-1.66,10.3,10.3,0,0,0,0-2.26,11.65,11.65,0,0,1,.22-3.42,9.69,9.69,0,0,0,0-1.39c.07-1.39.19-2.78.21-4.16s-.07-2.87-.08-4.31c0-.94.08-1.88.08-2.82,0-1.31-.1-2.61-.08-3.92,0-2.07.08-4.14.19-6.21.09-1.62.29-3.24.42-4.86,0-.33-.1-.68-.1-1a13.36,13.36,0,0,1,.1-1.94A.9.9,0,0,1,118.31,69.58Z"/><path class="cls-1" d="M14.12,66.25l1,4.65H16l3.59-.11q1.1,0,2.19-.11c1.7-.11,3.41-.12,5.09-.38A17.56,17.56,0,0,1,28.91,70a.84.84,0,0,1,.86.51,1.07,1.07,0,0,1-.56,1.14c-1.17.2-2.36.36-3.53.57a36.65,36.65,0,0,1-5.88.21c-1.19,0-2.38,0-3.56,0-.71,0-1.41.13-2.12.19-.17,0-.35-.09-.53-.08-1.89.07-3.78.13-5.66.23-1.44.08-2.88.24-4.33.3a2,2,0,0,1-1-.32.69.69,0,0,1-.24-.56c0-.36.88-1,1.24-1,1.42,0,2.84-.05,4.26-.12s2.71-.17,4.07-.24c.43,0,.86,0,1.3,0-.07-.28-.12-.47-.16-.67-.16-.79-.3-1.59-.49-2.37s-.43-1.56-.6-2.34c-.09-.4.51-1.05.9-1.13a15,15,0,0,1,3.4.12c1.55,0,3.09.09,4.64.1,2.44,0,4.88,0,7.32,0a5.48,5.48,0,0,1,1.46.13,1,1,0,0,1,.62.65.9.9,0,0,1-.73,1.08c-.62,0-1.24-.08-1.86-.1s-1.28,0-1.91,0c-1.16,0-2.31-.09-3.47-.1-.86,0-1.72.08-2.59.09-.29,0-.57-.09-.86-.1-1.13,0-2.26,0-3.39,0Z"/><path class="cls-1" d="M13.76,80.77c-.05-.79-.09-1.52-.15-2.25a12.19,12.19,0,0,1-.19-1.45c0-.62-.43-.59-.76-.57-.85,0-1.69.19-2.53.27a1.6,1.6,0,0,1-.58-.1c-.85-.25-1.62.28-2.44.27-.16,0-.32,0-.49.06l-2.83.23a.66.66,0,0,1-.8-.5c-.14-.56,0-1.23.38-1.36a3.47,3.47,0,0,1,.91-.14c.7,0,1.4-.07,2.1-.12a13.67,13.67,0,0,1,2.41-.19c1.69.18,3.33-.31,5-.25.75,0,1.5.14,2.25.1,2-.11,4-.29,5.95-.42.65,0,1.3,0,1.95,0s1.2-.07,1.8-.11L28.87,74a2.16,2.16,0,0,1,.94,0,.94.94,0,0,1,.52.66,1.32,1.32,0,0,1-.35,1,2.4,2.4,0,0,1-1.2.18c-.85,0-1.71,0-2.56,0S24.67,76,23.9,76c-1.68.1-3.36.23-5,.32-1.09.06-2.18.07-3.27.14-.14,0-.4.25-.39.36.1,1.1.24,2.19.37,3.29,0,.1,0,.21,0,.31,0,.38.1.76.11,1.14s.08.71-.08.87-.44.59-.92.37a4,4,0,0,0-1.42-.36c-.52,0-1,.14-1.56.16s-.94-.06-1.41-.07-1.19,0-1.78,0a20.35,20.35,0,0,0-2.36-.08A21.52,21.52,0,0,0,3.49,83a1,1,0,0,1-1.16-.51.79.79,0,0,1,.16-1.08,2.12,2.12,0,0,1,1-.37c1-.11,2-.19,3-.23s2.31,0,3.46,0Z"/><path class="cls-1" d="M25.45,60.57c-.49-.28-1-.57-1.47-.83s-1.09-.55-1.66-.78a4.18,4.18,0,0,0-.95-.24,1.32,1.32,0,0,1-.87-1.06.89.89,0,0,1,.7-1,.7.7,0,0,1,.35.09c1,.44,2,.86,3,1.32a6.47,6.47,0,0,1,1,.59,16.38,16.38,0,0,0,4.19,1.83c.46.15.85.34.93.87a1,1,0,0,1-1,1.13c-1.17,0-2.35.11-3.52.1-.91,0-1.82-.12-2.73-.18a8.88,8.88,0,0,0-1.22,0c-1.34.1-2.66-.2-4-.07a27.18,27.18,0,0,1-3.58-.25c-1,0-1.95,0-2.92.07l-.49,0H3.31a4.37,4.37,0,0,1-1-.13c-.44-.11-.53-.5-.54-.87s.1-.75.59-.76c.69,0,1.37,0,2.06,0,.27,0,.54-.09.81-.09.62,0,1.24.09,1.86.1.8,0,1.6,0,2.39,0,1.65,0,3.29,0,4.94,0,1.8,0,3.6.15,5.4.21.78,0,1.57,0,2.35,0s1.5.08,2.25.11c.33,0,.67,0,1,0Z"/><path class="cls-1" d="M58.09,64.37a5.39,5.39,0,0,1,.72,0c.12,0,.3.11.32.2s-.09.27-.19.33c-.4.24-.82.45-1.24.68-1.32.71-2.64,1.42-3.95,2.14A1.3,1.3,0,0,1,52,67.49a1,1,0,0,1,.57-1.43c1.25-.51,2.51-1,3.78-1.44a11.27,11.27,0,0,1,1.7-.32Z"/></g></g></svg>