<svg xmlns="http://www.w3.org/2000/svg" viewBox="0 0 353.48 106.54"><defs><style>.cls-1{fill:#fff;}</style></defs><title>civil_line</title><g id="Layer_2" data-name="Layer 2"><g id="civil"><path class="cls-1" d="M0,85.13c.58,0,1.15-.08,1.73-.11,1.05,0,2.11-.1,3.16-.09a2.72,2.72,0,0,0,1.5-.21c.3-.17.94.26,1,.83s.09,1.08.1,1.63c0,1.46.14,2.92.09,4.38a16.1,16.1,0,0,0,.18,3.52,8.31,8.31,0,0,0,.44,1.86,1.12,1.12,0,0,1,0,.39l2.25-.26a1.55,1.55,0,0,1,.3-.05,15.88,15.88,0,0,0,3.94-.46,11.41,11.41,0,0,1,1.53-.07c.65,0,.88-.29.78-.92s-.18-1.39-.3-2.08a4.58,4.58,0,0,0-.24-.71c.15-.21.27-.57.53-.72a4.35,4.35,0,0,1,1.42-.53c.77-.13,1.56-.15,2.33-.24a.46.46,0,0,0,.29-.33c0-.65,0-1.31,0-2,0-.45-.15-.91.08-1.37.06-.11-.09-.32-.12-.41a4.31,4.31,0,0,1,.25-.71,5.92,5.92,0,0,1,.43-.51c.37-.51.85-.4,1.38-.35a8.31,8.31,0,0,0,1.54-.17c.35,0,.35-.23.33-.52a6.32,6.32,0,0,1,0-2.81c.13-.37.41-.51.67-.37a3.4,3.4,0,0,0,1.95.08c.52,0,1-.09,1.57-.1,1.67,0,3.34-.07,5-.12.34,0,.68-.15,1-.14.8,0,1.22.62,1.07,1.46a5.73,5.73,0,0,0,0,.7,5.67,5.67,0,0,0-.07.81A13.72,13.72,0,0,0,36.36,86c0,.08.2.17.31.16.64,0,1.28-.1,1.92-.19.16,0,.31-.19.53-.33.9.26,1.21.67,1.21,1.73a13.83,13.83,0,0,0,0,2.34A9.29,9.29,0,0,1,40.68,91a7.48,7.48,0,0,0,.12.83c.09,0,.29,0,.49,0,1.08,0,2.17,0,3.25,0A10.72,10.72,0,0,1,46,92a2.29,2.29,0,0,1,.75.32c.45.26.2.7.21,1.05,0,1.19,0,2.37,0,3.56,0,.09.24.25.37.25a10.1,10.1,0,0,0,1.25-.12c.63-.09,1.26-.18,1.88-.31.15,0,.38-.22.38-.33a6.3,6.3,0,0,0-.08-1.83,1.85,1.85,0,0,1,.64-1.85l1.66-1.94c.72-.84,1.42-1.7,2.17-2.51.48-.52,1-1,1.52-1.48s.75-.85,1.12-1.28l1.13-1.28a36.8,36.8,0,0,0,2.79-3.17c.72-1,1.47-2,2.28-3a.69.69,0,0,0,.15-.26.76.76,0,0,1,1.35-.43,9.51,9.51,0,0,1,1,1.29l1.08,1.42,1.76,2.24c.21.27.42.53.64.79,1.09,1.28,2.17,2.57,3.28,3.83.51.57,1.1,1.07,1.63,1.62.68.71,1.31,1.46,2,2.16a1,1,0,0,0,.64.28c.87,0,1.17.32,1,1.19a12,12,0,0,0,0,1.44c0,.19-.07.37-.09.56,0,.61-.06,1.23-.12,1.84-.07.83-.16,1.66-.25,2.49,0,.14-.06.27-.06.41,0,1.37,0,2.74,0,4.11,0,.54-.06,1.17.59,1.45l-.54.34,0,.15a2.51,2.51,0,0,0,.56.06c.55-.06,1.1-.14,1.64-.25.13,0,.24-.07.32-.33.23-.73-.09-1.39-.07-2.08,0-1.21.09-2.42.09-3.64a8.25,8.25,0,0,0-.22-1.22,2.1,2.1,0,0,1,0-.59,3.13,3.13,0,0,0,.1-.52c.67-.85,1.34-.84,1.75.1.7-.14,1.44-.24,2.15-.44s1.61-.6,2.45-.77A13.25,13.25,0,0,0,90.74,94a11.41,11.41,0,0,1,1.9-.59,6.28,6.28,0,0,0,1-.48c.07,0,.1-.18.11-.27.1-.7.39-.78,1.06-.53s1.62.44,2.43.66a2.84,2.84,0,0,1,.79.32,3.37,3.37,0,0,0,2.52.68c.15,0,.34.21.52.25.72.16,1.45.29,2.18.44s1.71.37,2.56.57,1.55.4,2.33.6a1.7,1.7,0,0,1,.76,1.35c0,.49-.05,1-.09,1.47s.08.56.5.54c.85,0,1.7-.07,2.56-.07.32,0,.44-.11.44-.43,0-1,.09-2.08.09-3.11,0-1.24,0-2.48-.11-3.72,0-.8-.14-1.6-.2-2.4,0-.55.43-.86,1-.78a18,18,0,0,0,2.3.14c.11,0,.31-.28.31-.43a15.46,15.46,0,0,0-.26-4c-.09-.36-.14-.72-.2-1a7,7,0,0,1,.88-.09c.52,0,1,.11,1.57.09.94,0,1.88-.13,2.82-.2l2.57-.21,1.25-.1c.1,0,.27,0,.31,0,.28.42.72.38,1.13.45s.37.31.37.63c0,.75.06,1.51.06,2.26,0,.27-.17.53-.18.8,0,.47.05.93.09,1.51.6,0,1.16-.12,1.71-.1.73,0,1.45.11,2.17.19.07,0,.18.12.18.18-.07.91.48,1.75.3,2.69a11.94,11.94,0,0,0-.2,1.86c0,.52.07,1,.08,1.57s0,1.05,0,1.63c1.27,0,2.49,0,3.71,0s2.19-.08,3.29-.1a6,6,0,0,1,.77.1c.43,0,.7-.07.74-.57s.23-1.13.25-1.7a4.42,4.42,0,0,0-.19-1.32,11.18,11.18,0,0,1,0-2.84c0-1-.08-2-.1-3.05,0-.69,0-1.38,0-2.07s.08-1.15.1-1.73c0-1.19.08-2.39.07-3.58,0-.65-.12-1.31-.16-2,0-.48,0-1,0-1.44,0-1.05,0-2.11-.11-3.16-.12-1.78-.33-3.55-.4-5.33s0-3.63,0-5.44c0-.61-.11-1.23-.09-1.84,0-1.17.12-2.34.22-3.51,0-.17.21-.33.35-.54-.43-.45,0-.8.26-1.23a26.64,26.64,0,0,0,1.16-2.46c.46-1.17.82-2.38,1.29-3.54.33-.83.81-1.61,1.16-2.43.29-.66.52-1.36.74-2,.47-1.45.91-2.9,1.37-4.35.21-.66.46-1.3.63-2,.09-.36,0-.77.07-1.14a1.82,1.82,0,0,1,.32-.72,2.07,2.07,0,0,1,.5-.37c.64.2.75.47.85,1.27a7.25,7.25,0,0,0,.56,1.64c.32.81.66,1.62,1,2.43q.26.63.53,1.25c.21.47.41.94.64,1.39s.46.78.68,1.18c.31.55.63,1.1.89,1.68.46,1,.93,2,1.32,3,.27.7.39,1.45.61,2.17.1.32.27.63.39.94q.34.86.66,1.72c.09.24.15.48.24.72.16.45.33.9.51,1.39-.47.05-.55.22-.64.58-.24,1,0,1.93-.18,2.89a4.55,4.55,0,0,0,.27,1.51c0,.2.07.41.12.72.45,0,1-.1,1.48-.12s1.14,0,1.7,0c1.08,0,2.16,0,3.24,0,1.38-.06,2.75-.22,4.13-.3.45,0,.9.07,1.36.09,1,0,2,.1,3,.1.84,0,1.69-.06,2.53-.1.55,0,1.11-.08,1.66-.1l5.51-.11c.87,0,1.74,0,2.61,0,.49,0,1,.09,1.46.1.85,0,1.7,0,2.55,0l7.73.1h2c0-.68-.08-1.23-.09-1.79s0-1.27,0-1.91c-.06-1.46-.12-2.91-.22-4.37,0-.46-.19-.91-.26-1.36a1.17,1.17,0,0,1,.06-.41,5.44,5.44,0,0,1,.24-1,.81.81,0,0,1,.94-.44,4,4,0,0,1,.6.15c.47.14.58,0,.55-.45s0-1.21,0-1.81,0-1.1,0-1.65c0-.86-.06-1.73-.1-2.59s-.1-1.89-.15-2.83c0-.28,0-.55-.06-.83,0-1.22-.1-2.44-.1-3.65,0-1.43,0-2.85.11-4.28a8.54,8.54,0,0,1,.23-1.75.89.89,0,0,1,.61-.5c.55-.1,1.11-.07,1.67-.14.13,0,.33-.22.33-.34,0-.81-.07-1.61-.1-2.42a3.46,3.46,0,0,1,.06-1.47c.3-.62-.08-1.16,0-1.75a5.28,5.28,0,0,0-.09-1.63,1,1,0,0,0-.44-.63c-.32-.17-.34-.33-.25-.65.19-.66.33-1.34.5-2,.1-.4.24-.79.36-1.18a37.63,37.63,0,0,1,1.37-4.7c.31-.68.51-1.41.76-2.11l1.31-3.69c.47-1.32.91-2.65,1.41-4,.22-.57.57-1.09.81-1.66.16-.37.19-.8.35-1.17A9.71,9.71,0,0,1,206.65,0H207c.73.31.86,1,1,1.66a10,10,0,0,0,.45,1.4,1.06,1.06,0,0,1,.06.41,8.87,8.87,0,0,0,.62,2.94l.33,1.39.69,2.91c.27,1.12.49,2.26.8,3.37.42,1.46.91,2.91,1.36,4.36.09.28.12.58.23.85a6.4,6.4,0,0,0,.52,1.06c.17.28.42.5.17.85a.27.27,0,0,0,0,.2,19.38,19.38,0,0,1,.09,3.23c0,.63.1,1.26.1,1.89s-.1,1.36-.09,2a13.1,13.1,0,0,0,.21,1.87c.1.58.27.61.76.27a1.82,1.82,0,0,1,.68-.13c0,.36.76.31.49.9-.11.24,0,.61,0,.91a19.21,19.21,0,0,0,.16,2.65,13.11,13.11,0,0,1,0,3.31,15.57,15.57,0,0,0,.1,1.67c0,.78.06,1.55.11,2.33s.14,1.82.18,2.73,0,1.64,0,2.46.08,1.75.13,2.72h2.08c.42,0,.65.24.52.59-.23.63.08,1.21.07,1.81,0,1.32.12,2.64.15,4,0,.81-.11,1.62-.09,2.42,0,1.07.13,2.13.22,3.2a.44.44,0,0,0,.28.31,7.71,7.71,0,0,0,1.7.21c1.86-.1,3.73-.26,5.59-.4h.16l5.19-.11,5.38-.11,3.17-.1c1.23,0,2.47,0,3.7-.12.77,0,1.54-.24,2.31-.3,1.83-.13,3.67-.22,5.51-.33a4.67,4.67,0,0,0,.69-.15,18.45,18.45,0,0,0-.14-3.69,17.72,17.72,0,0,1-.17-2.47c0-.73,0-1.47,0-2.21,0-.12.07-.31.16-.35a2.49,2.49,0,0,0,1.23-1.93,27.63,27.63,0,0,1,1.35-3.39c.42-1.05.84-2.11,1.15-3.19.42-1.45.7-2.94,1.09-4.4.27-1,.67-1.91,1-2.88.16-.54.14-1.14.33-1.67a4.23,4.23,0,0,0,.34-1.47c0-.37.74-.84,1.09-.81a1.17,1.17,0,0,1,1,.92c.4,1.87.78,3.75,1.19,5.62a23.17,23.17,0,0,0,1.07,3.72c.32.81.41,1.72.77,2.51.89,1.94,1.24,4.05,2,6,.17.42.31.86.46,1.29,0,0,0,.13.05.14.94.45.65,1.31.68,2,0,.58-.05,1.16-.05,1.74s0,1.45.06,2.17,0,1.42.06,2.13c0,.49,0,1,0,1.47,0,.7,0,1.4,0,2.09s-.08,1.15-.09,1.72c0,.81,0,1.63.05,2.44a8.73,8.73,0,0,1,0,2.39,7.48,7.48,0,0,0,0,1.63c0,1,.09,2,.09,3.05,0,.58-.07,1.15-.1,1.73a3.4,3.4,0,0,0-.06.93,5.91,5.91,0,0,1,0,2.05c0,.25,0,.5,0,.76,0,.56-.08,1.12-.11,1.68,0,.28,0,.57,0,.85,0,.65-.09,1.29-.12,1.94,0,.39,0,.79,0,1.18,0,.74,0,1.49,0,2.3l1-.13,1.3-.11c.43,0,.87-.05,1.3-.12a.54.54,0,0,0,.54-.66c-.13-1.38-.23-2.77-.32-4.15,0-.51,0-1,0-1.54,0-.83,0-1.67,0-2.5,0-.38-.17-.77.24-1a.74.74,0,0,1,.31-.15l3.35-.22c.87-.06,1.74-.2,2.61-.2,1.34,0,2.67.16,4,.18a13.15,13.15,0,0,0,1.69-.24,11.76,11.76,0,0,1,1.88-.14c.2,0,.49.35.54.59a9.65,9.65,0,0,1,.21,1.92c0,.84-.07,1.69-.12,2.53,0,.2,0,.4,0,.69.6-.35,1.1-.59,1.29-1.25.09-.3.42-.52.63-.78.7-.88,1.41-1.75,2.1-2.64.47-.61.91-1.24,1.33-1.88.69-1,1.35-2.11,2-3.17.46-.72.9-1.46,1.4-2.16s.92-1.12,1.38-1.67c.13-.16.27-.32.39-.49a.84.84,0,0,1,1.41-.11c.85.94,1.72,1.87,2.54,2.83.4.47.7,1,1.08,1.5.53.69,1.07,1.37,1.61,2.05s.95,1.18,1.45,1.75,1,1,1.45,1.56,1.12,1.19,1.69,1.78c.32.32.71.58,1,.92a8.42,8.42,0,0,0,1.73,1.51c.43.29.27.77.24,1.19s-.13,1-.15,1.5a18,18,0,0,0,0,2c.07,1.09.22,2.18.29,3.28,0,.76,0,1.52,0,2.39,2,.28,3.93-.36,6-.11v-12l-.47-.34,5.51-1c0-.94,0-1.74,0-2.55,0-.57.05-1.13.09-1.7,0,0,.06-.12,0-.13a.56.56,0,0,1,0-.88,2,2,0,0,1,1.25-.38,10.66,10.66,0,0,0,3-.19l1.6-.19c.33,0,.49-.15.42-.54-.1-.57-.12-1.16-.17-1.74a.76.76,0,0,1,.92-.87.43.43,0,0,0,.3-.05c.75-.72,1.5-1.45,2.23-2.19s1.27-1.36,1.91-2a7.91,7.91,0,0,1,.79-.77c.26-.21,1.13.16,1.28.47a2.43,2.43,0,0,0,.47.73c.54.51,1.13,1,1.66,1.48s1.14,1.24,1.75,1.82,1.08.85,1.6,1.31a1.12,1.12,0,0,1,.48,1.29,2.15,2.15,0,0,0,0,.58c0,.43.09.55.58.48a11,11,0,0,1,1.75.15,14.12,14.12,0,0,0,2.39,0,.61.61,0,0,1,.75.43c.15.73.17,1.48.27,2.23,0,.32.17.63.23,1s.06.59.08.88c0,.51.06,1,.13,1.53a.45.45,0,0,0,.36.25c.43,0,.85-.17,1.28-.17.7,0,1.4.06,2.09.11a13,13,0,0,0,1.34.17,1,1,0,0,1,1.15.76v.42c-.28.12-.55.25-.84.35a.82.82,0,0,1-.45.06,8.54,8.54,0,0,0-3.65-.32c-.48.08-1,.11-1.45.2a.78.78,0,0,1-1-.73,33.25,33.25,0,0,0-.55-5.19c0-.15-.22-.39-.35-.4q-1.78-.15-3.56-.22c-.17,0-.35.18-.52.28s-.47.35-.64.31a1.1,1.1,0,0,1-.71-.52,3.42,3.42,0,0,1-.09-1.81c.14-.76-.39-1.28-1-1.77-.76-.66-1.43-1.44-2.15-2.15-.54-.53-1.12-1-1.68-1.56l-.63-.56-1.64,1.63c-.67.65-1.35,1.28-2,2-.33.35-.51.89-.9,1.12-.94.57-.38,1.23-.2,1.84s-.06,1.07-.79,1.14c-1.26.11-2.52.29-3.78.4a16.62,16.62,0,0,1-1.7,0c-.36,0-.55.07-.44.51.06.25-.08.55-.07.82.05.84.12,1.68.22,2.52,0,.14.22.29.37.38s.56.28.45.69a.73.73,0,0,1-.76.62c-1,.09-2,.28-3,.46a13.57,13.57,0,0,0-1.5.38c-.55.16-.64.38-.56,1a4.33,4.33,0,0,1-.07.55c0,1.07,0,2.13,0,3.2,0,1.36,0,2.71-.09,4.07a9.27,9.27,0,0,0,.1,3,.71.71,0,0,1-.76.86c-1.07,0-2.14,0-3.22,0-.85,0-1.7.16-2.56.19a13.09,13.09,0,0,1-1.84-.11c-.33,0-.65-.74-.6-1.13a11.34,11.34,0,0,0,0-3.59,2.77,2.77,0,0,1,0-.47c0-1.22,0-2.45,0-3.66a3.37,3.37,0,0,0-1.08-2.64c-1-1-2.07-2.07-3.06-3.14-.81-.88-1.57-1.8-2.33-2.73a18.9,18.9,0,0,0-1.65-2.15,15.56,15.56,0,0,1-1.56-2.11c-.62-.79-1.37-1.49-2.16-2.34l-1.63,2-.88,1.07a2.79,2.79,0,0,0-.36.48,21.46,21.46,0,0,1-1.69,2.71,4.93,4.93,0,0,0-1,1.52c-.06.23-.39.37-.55.59s-.41.67-.63,1-.32.31-.45.5c-.69,1-1.36,2-2.06,2.91-.27.37-.44.82-1,1-.24.07-.34.61-.51.93a4.93,4.93,0,0,1-.57,1,.79.79,0,0,1-.68.22.89.89,0,0,1-.53-.57,12.15,12.15,0,0,1-.27-3.83,15.29,15.29,0,0,0,.13-2.26,4.17,4.17,0,0,0-.08-.56c0-.36-.19-.34-.53-.3-1.05.11-2.11.11-3.17.15h-.26c-1.53,0-3.07-.12-4.6-.09a13.94,13.94,0,0,0-2,.38,8,8,0,0,1-.84,0c-.66,0-.83.23-.8.83s.07,1.22.09,1.84,0,1.11,0,1.67a8.9,8.9,0,0,0,.23,2,2.87,2.87,0,0,1,.22,1.55c0,.11.08.26.14.38a1.29,1.29,0,0,1-.34,1.8c-.31.33-.66.23-1,.12-.13,0-.26-.14-.38-.13-1,.08-1.94.18-2.91.27-.63.06-1.26.09-1.88.16s-.62-.33-.62-.69.17-.77.19-1.16a20.07,20.07,0,0,1,.09-3,17.42,17.42,0,0,0,0-2.36c.08-1.61.25-3.21.27-4.81s-.1-3.26-.15-4.89a2.3,2.3,0,0,1,0-.74,7.52,7.52,0,0,0,.09-2.64c0-1.33,0-2.67,0-4,0-1,0-1.94,0-2.91s-.09-1.77-.09-2.66.06-1.5.09-2.25a3.84,3.84,0,0,0,0-.53c-.06-.62-.15-1.24-.2-1.86s0-1.3-.13-1.94c0-.26-.3-.49-.46-.73a1.69,1.69,0,0,1-.26-.39c-.34-1.17-.65-2.36-1-3.53-.5-1.64-1-3.28-1.56-4.91-.26-.81-.55-1.61-.83-2.42,0-.06,0-.13,0-.2-.3-1.26-.61-2.52-.91-3.79-.19-.8-.35-1.62-.54-2.42a4.48,4.48,0,0,0-.22-.54c-.13.4-.35.71-.28.91.25.71-.36,1.07-.53,1.6s-.39,1.37-.56,2.06c-.07.28,0,.58-.11.86-.28,1-.59,1.93-.9,2.89-.41,1.29-.81,2.59-1.25,3.87-.19.56-.53,1.07-.74,1.63s-.37,1.29-.6,1.92c-.37,1-.8,1.94-1.17,2.92a2.63,2.63,0,0,0-.15,1c0,.5.12,1,.16,1.51.09,1.15.16,2.3.25,3.46a19.84,19.84,0,0,1,.14,2.24c0,.19-.44.45-.72.53a12.35,12.35,0,0,1-3.26.25c-1.29,0-2.57.18-3.86.26-.95.06-1.9.1-2.84.15-.29,0-.59.09-.88.09L233,63.5c-.26,0-.51.09-.77.1a31.91,31.91,0,0,1-3.75.08,7,7,0,0,0-2.92.31c-.29.1-.65-.07-1-.05a14.37,14.37,0,0,0-2.18.22,7.37,7.37,0,0,1-3.35-.05,3,3,0,0,0-.89-.06c-.45,0-.61-.22-.6-.6a12.22,12.22,0,0,1,.11-1.25,5.55,5.55,0,0,0,0-1.91,9.34,9.34,0,0,1,0-1.69c0-1.3-.09-2.59-.13-3.89,0-.41.07-.83,0-1.24a13.94,13.94,0,0,0-.23-1.7c0-.1-.26-.23-.39-.23-.47,0-.94.08-1.41.09a1,1,0,0,1-.83-1.4,1,1,0,0,0,.1-.5c0-.75-.08-1.51-.09-2.26,0-.38.11-.77.09-1.14,0-.58-.18-1.16-.22-1.75a10.61,10.61,0,0,1,0-1.87c.06-.5.09-.93-.49-1.09l.24-.65L214,40.6c.58,0,.41-.29.4-.61,0-.77.07-1.54.08-2.31s0-1.54,0-2.3-.13-1.28-.19-1.92c0-.4-.08-.79-.12-1.23-.5-.07-1-.17-1.45-.2s-.44-.25-.45-.56c0-.72-.07-1.44-.1-2.16a8.52,8.52,0,0,0,0-1.49c-.27-1.24.21-2.53-.3-3.75-.12-.29,0-.7-.11-1-.4-.76.12-1.51-.08-2.25s-.46-1.75-.69-2.62-.39-1.46-.59-2.19c-.29-1-.59-2.06-.88-3.1-.14-.51-.24-1-.37-1.56-.23-.93-.47-1.85-.68-2.77-.18-.77-.32-1.55-.52-2.31-.11-.45-.33-.87-.45-1.31s-.11-.75-.18-1.13S207.11,3,207,2.54l-.21,0-1.52,3.41c-.19.6-.32,1.15-.54,1.67-.3.7-.72,1.35-1,2.06s-.28,1.28-.5,1.9c-.32.92-.73,1.82-1.07,2.73a6.23,6.23,0,0,0-.19.92c-.25,1.18-.5,2.36-.74,3.54a14.58,14.58,0,0,0-.31,1.67,5.72,5.72,0,0,0,.14,1.09,12.49,12.49,0,0,1,.15,1.6c0,.6-.21,1.21-.16,1.81.08,1-.44,2,.05,3.08a4.1,4.1,0,0,1,.13,1.13,7,7,0,0,0,.21,1.06c.16.51,0,.8-.49,1.09a3.34,3.34,0,0,1-1.91.31.6.6,0,0,0-.68.6,41,41,0,0,0-.24,7.6c0,.94,0,1.88,0,2.81.07,1.2.21,2.4.29,3.6s.1,2.13.18,3.2c.06.79.16,1.57.26,2.36a.8.8,0,0,1-1.06.78,7.13,7.13,0,0,0-.84-.25.62.62,0,0,0-.75.6c.05,1.12.15,2.23.2,3.35,0,.77,0,1.54,0,2.31,0,.45.08.9.1,1.36s0,.79,0,1.18a3,3,0,0,0,.36,1.48.46.46,0,0,1,0,.7,1,1,0,0,1-.71.34q-2.17,0-4.33-.1c-.73,0-1.45-.16-2.18-.2s-1.56,0-2.34,0c-1.22,0-2.44-.18-3.67-.19-1,0-2,.14-3,.16-.7,0-1.4-.05-2.09-.09-.33,0-.66-.09-1-.08-1,0-2,.06-3,.1-1.51.05-3,.13-4.54.16-1,0-2-.08-3,0-1.61.06-3.22.21-4.83.29-.47,0-.94,0-1.42-.05-.05,0-.1,0-.15,0-1.35.06-2.7.16-4,.19-1,0-2.07,0-3.1-.1-.43,0-.79-.62-.55-.93s.14-.86.17-1.27c.08-1.06.07-2.14.06-3.21a25.25,25.25,0,0,0-.12-2.79,7.78,7.78,0,0,0-.53-1.5c-.42-1.22-.79-2.45-1.26-3.66-.33-.86-.77-1.68-1.17-2.51-.55-1.14-1.13-2.27-1.68-3.41S147.51,42.1,147,41c-.26-.57-.49-1.15-.8-1.9a13.31,13.31,0,0,0-.59,1.38c-.38,1.3-.71,2.61-1.09,3.91-.21.72-.46,1.43-.72,2.13-.18.48-.43.92-.62,1.4-.63,1.53-1.35,3-1.83,4.6a17.45,17.45,0,0,1-1.48,3.77s-.07.09-.07.13c-.08,1.74-.16,3.48-.22,5.23,0,1.15-.1,2.29-.08,3.44s.13,2.38.18,3.58,0,2.3.12,3.44.29,2.34.4,3.51c0,.43-.07.86,0,1.29.08,1.4.24,2.8.26,4.2s-.13,2.53-.17,3.79c0,.8,0,1.6,0,2.4,0,.37.07.73.08,1.1,0,.55,0,1.1,0,1.65s-.11,1.08-.09,1.62c0,.73.16,1.45.2,2.17a6.77,6.77,0,0,1-.06,1.49,2.16,2.16,0,0,0,0,1.43c.22.46-.26.94-.84.91-1.35-.08-2.7-.19-4.06-.2-1.15,0-2.31.14-3.46.18a10.92,10.92,0,0,1-1.25-.09h-.21c-.31,0-.77.14-.91,0a2.3,2.3,0,0,1-.78-1.87c.06-.4.09-.81.1-1.22,0-1.16.09-2.32.1-3.48,0-.52-.07-1-.1-1.5l-3.37.27a.9.9,0,0,1-.88-1c0-.5-.07-1-.08-1.52s0-1.31,0-2a.92.92,0,0,0,0-.37,1.64,1.64,0,0,0-.42-.69,1.86,1.86,0,0,0-.81-.12,10.26,10.26,0,0,0-1.41-.09c-.51,0-1,.17-1.53.22-.8.08-1.6.13-2.4.2-.26,0-.51.09-.91.16,0,.87,0,1.78,0,2.69,0,.47-.08.94-.12,1.41s0,.7-.1,1-.23.58-.63.52L114.9,90a2.12,2.12,0,0,0-.59-.05c-.84.13-.84.14-.83,1,0,.65,0,1.29.06,1.94,0,1,0,2.1,0,3.15s.08,1.82.07,2.73a5.27,5.27,0,0,1-.19,1.14c-.1.43-.44.45-.79.39a5.77,5.77,0,0,0-2.35,0,2.94,2.94,0,0,1-1.37,0,5.39,5.39,0,0,1-1.39-.68c-.1-.06-.11-.34-.1-.52,0-.48.15-1,.17-1.44a.65.65,0,0,0-.69-.74.5.5,0,0,1-.14,0c-.81-.28-1.61-.59-2.43-.83a15.6,15.6,0,0,0-1.58-.28c-.59-.11-1.19-.22-1.78-.34a11.23,11.23,0,0,0-1.4-.32A10,10,0,0,1,97,94.14,4.2,4.2,0,0,0,94.89,94a6.69,6.69,0,0,1-2,.4c-.39,0-.83.44-1.27.62-1.09.46-2.19.92-3.31,1.31-.55.19-1.16.19-1.72.35s-1.22.46-1.84.65-1.23.32-1.84.51c-.78.24-.76.29-.75,1.12,0,.55-.17,1.1-.17,1.65,0,1.44.07,2.87.08,4.31,0,.28-.07.69-.26.81a2.33,2.33,0,0,1-1.66.61,5.28,5.28,0,0,0-1.46.2h-.64l-.18-.63-.11.13c-.27-.08-.68-.08-.78-.26a2,2,0,0,1-.09-1c0-.38.08-.76.08-1.14,0-1,0-2.09,0-3.13,0-.21.06-.41.07-.62a34.93,34.93,0,0,1,.15-3.65,13.05,13.05,0,0,0,.06-2.84c0-.67-.64-1-1-1.41q-1.44-1.55-2.87-3.12c-.59-.65-1.18-1.31-1.76-2s-1.1-1.33-1.64-2l-2.2-2.69L66,80a1.32,1.32,0,0,1-.1-.12c-.58-.93-.59-.94-1.28-.12-.54.65-1.06,1.33-1.61,2-.83,1-1.68,1.95-2.54,2.9-.33.37-.73.67-1.1,1-.05,0-.13.09-.15.15-.37,1.16-1.45,1.69-2.2,2.52-1.09,1.22-2.15,2.48-3.21,3.73-.48.57-1,1.14-1.41,1.75a1.67,1.67,0,0,0-.3.9c0,.81.07,1.62.09,2.44,0,.65-.05.66-.67.73-1,.1-2,.26-3,.38a3.64,3.64,0,0,1-2.6-.41c-.17-.11-.17-.52-.19-.79-.05-.76-.07-1.52-.1-2.29,0-.35,0-.7,0-1.05s0-.47,0-.61h-.95c-.48,0-1,0-1.44,0a2,2,0,0,1-.5-.1c-.21-.06-.37-.18-.57.11s-1.44.18-1.73,0a.68.68,0,0,0-.37-.16c-.51,0-.53-.33-.57-.7-.09-.88-.21-1.75-.31-2.63,0-.37,0-.74-.12-1.1a5.65,5.65,0,0,0-.34-1.12c0-.1-.29-.18-.44-.17-.55,0-1.1.16-1.65.17-.21,0-.43-.19-.64-.31s-.19-.19-.28-.19c-.65,0-.74-.29-.7-.88.07-1,0-2.05,0-3.15-3,.11-5.94-.2-8.94.5,0,.53.11,1.1.14,1.67a4.24,4.24,0,0,1,0,1.37c-.07.22-.51.34-.82.53-.72-.83-1.78.14-2.83-.08-.08,1.15-.19,2.26-.21,3.37a8.22,8.22,0,0,0,.26,1.35c0,.15,0,.4-.1.46a3.49,3.49,0,0,1-1.17.55c-.89.14-1.81.15-2.71.24-.29,0-.56.16-.54.56a24.75,24.75,0,0,0,.25,3.14c.12.57.09.91-.41,1.15a1.55,1.55,0,0,1-.65.11,22.71,22.71,0,0,0-3.82.29c-1,.18-2.07.14-3.1.25a16.71,16.71,0,0,0-2.14.38.69.69,0,0,1-1-.62A.68.68,0,0,0,7,97.57c-.33-.16-.35-.41-.38-.73-.1-1-.28-2-.36-2.94-.06-.75,0-1.52,0-2.27s0-1.73,0-2.59c0-.51,0-1,0-1.54s-.06-.86-.11-1.42c-1.07,0-2.17,0-3.28,0-.64,0-1.28.15-1.92.19"/></g></g></svg>