<svg xmlns="http://www.w3.org/2000/svg" viewBox="0 0 142.54 93.03"><defs><style>.cls-1{fill:#fff;}</style></defs><title>civil_title</title><g id="Layer_2" data-name="Layer 2"><g id="civil"><path class="cls-1" d="M16.19,0a29.78,29.78,0,0,1,2.15,2.1c1,1.12,1.84,2.31,2.7,3.51.59.82,1.1,1.7,1.63,2.57a17.12,17.12,0,0,0,1.44,2.35,9.67,9.67,0,0,1,.73,1.28c.12.19,0,.69-.18,1a.71.71,0,0,1-.94.37c-.94-.28-1.15-1.21-1.64-1.89S21.25,10,20.84,9.34c-.6-.93-1.19-1.85-1.8-2.77a1.68,1.68,0,0,0-.38-.4q-.89-.68-1.8-1.34a5.37,5.37,0,0,0-2.11-1.21A2.35,2.35,0,0,1,14,3.19c-1.12-.74-1.65-.36-2.59.55a3.66,3.66,0,0,0-1,1.8A8.81,8.81,0,0,1,9.5,7.34,18.45,18.45,0,0,0,8.2,11c-.29,1.06-.84,2-1.12,3.11-.54,2-1,4.09-1.44,6.13-.25,1.07-.58,2.13-.78,3.21-.27,1.39-.45,2.79-.67,4.19-.12.75-.29,1.48-.38,2.23-.19,1.49-.35,3-.52,4.47-.14,1.26-.32,2.52-.42,3.79-.09,1.07-.1,2.15-.15,3.22-.07,1.43-.18,2.86-.22,4.3A20.36,20.36,0,0,0,3,51.46c.57,2.12,1.5,4,3.56,4.82a21.32,21.32,0,0,0,3.6,1,9,9,0,0,0,1.74-.07c.55,0,1.1.13,1.64.08,1.63-.13,3.25-.37,4.88-.45A5.85,5.85,0,0,0,21,56.1,2.6,2.6,0,0,1,22,56a4,4,0,0,0,.45-.1,1,1,0,0,1,.32-.07,2.88,2.88,0,0,1,1.74,2A1.2,1.2,0,0,1,23,59a6.22,6.22,0,0,0-2,0c-2.16.5-4.3,1.1-6.46,1.62a8.94,8.94,0,0,1-1.56.17,15.68,15.68,0,0,1-2.58.1A27.12,27.12,0,0,1,7,60.29,9.82,9.82,0,0,1,5,59.6a3.88,3.88,0,0,1-2-1.67c-.47-.88-.86-1.78-1.28-2.68a28.9,28.9,0,0,1-.77-3,23.54,23.54,0,0,1-.68-4.86c0-.13-.14-.25-.22-.37v-4.9S.09,42,.1,42c.2-2,.39-4,.58-6,.06-.66,0-1.34.14-2,.13-.86.43-1.69.52-2.54.23-2.24.38-4.49.59-6.73.12-1.24.29-2.47.45-3.7A34.93,34.93,0,0,1,4,14.42c.19-.56.33-1.14.5-1.7.41-1.36.8-2.72,1.24-4.06S6.6,6.22,7,5A4.84,4.84,0,0,1,7.56,3.9c.48-.69,1-1.35,1.51-2S10,.67,10.9.61c.57,0,1.13-.16,1.7-.23l2-.24,1-.14Z"/><path class="cls-1" d="M142.54,86.91s-.13.06-.13.1a3.76,3.76,0,0,1-1.13,2.11,5.66,5.66,0,0,1-3.31,2.2c-.56.09-1.11.27-1.66.34s-.83,0-1.25,0a1.28,1.28,0,0,0-.69.31,22.81,22.81,0,0,1-3.48-.94,24.14,24.14,0,0,1-3.12-1.94c-.18.73-1,.72-1.47,1a7.47,7.47,0,0,1-2.3.71,11.74,11.74,0,0,1-2.7-.15A19.15,19.15,0,0,0,119,91c-.73.1-1.46.23-2.19.36a7.44,7.44,0,0,0-1,.26c-.89.3-1.4,0-1.43-1s.06-2,0-3.06c0-.86-.1-1.72-.13-2.58s0-1.8-.06-2.69-.19-1.75-.25-2.63-.05-1.67-.08-2.51c0-1.23-.08-2.47-.14-3.7,0-.74-.13-1.48-.19-2.22-.08-1-.14-2-.23-3-.05-.6.34-1.27-.4-1.76-.32-.22.11-1.37.58-1.74a1,1,0,0,1,1.09-.16,1.67,1.67,0,0,0,.74,0c1,0,2-.15,3.07-.11,1.53.06,3.06.25,4.59.33.71,0,1.42-.06,2.14,0a8.22,8.22,0,0,1,1.18.19c.16.58,0,.82-.56.86a5.83,5.83,0,0,0-1.08.4,6.78,6.78,0,0,1-1.68.42c-1.86.05-3.72,0-5.58,0a17.9,17.9,0,0,0-2,.19c-.08,0-.21.21-.2.32.08,1.39.19,2.77.29,4.16.05.7.12,1.4.15,2.1.05,1.46,0,2.93.13,4.39.06,1.15.21,2.29.34,3.43a.44.44,0,0,0,.26.32,8.35,8.35,0,0,0,1.22.13c.63,0,1.27,0,1.9,0h1.2c1.33,0,2.66.09,4,.11.29,0,.58-.19.87-.18s.41.18.62.28c-.1.17-.17.42-.32.51a7.9,7.9,0,0,1-4.44,1.36c-.75,0-1.5-.11-2.25-.11a21.34,21.34,0,0,0-2.41.14.69.69,0,0,0-.39.53c0,.66.14,1.31.18,2,0,.46,0,.93,0,1.39a5.52,5.52,0,0,0,.09,1.12c0,.11.3.23.45.21.81-.09,1.61-.3,2.41-.33a12.77,12.77,0,0,1,3.09.12,15.65,15.65,0,0,0,2.71.11s.08,0,.11,0a1.83,1.83,0,0,0,1.75-.3,9.06,9.06,0,0,1-.35-1.36.73.73,0,0,1,.68-.89c.14,0,.3.15.45.24s.12.13.19.16c.24.11.54.15.72.33a12.75,12.75,0,0,0,2.59,1.82,4.71,4.71,0,0,0,3.76.68c.89-.24,1.83-.27,2.74-.44a3.27,3.27,0,0,0,2.05-1.6,3.12,3.12,0,0,0,.35-2.79,5.25,5.25,0,0,0-1.45-2.35,9.41,9.41,0,0,0-4-2.05c-.71-.21-1.46-.28-2.16-.51a10,10,0,0,1-4-2,5.78,5.78,0,0,1-1.9-3.59,18.36,18.36,0,0,1-.3-2.13,16.38,16.38,0,0,1,.26-2.93,6.44,6.44,0,0,1,.74-2.15,8.36,8.36,0,0,1,1.77-2.11,6.79,6.79,0,0,1,2-.94,7.19,7.19,0,0,1,2.69-.46s.09,0,.11,0c1,.71,2.12.27,3.14.62a8.3,8.3,0,0,1,2.27,1,2,2,0,0,1,.89,1.49.9.9,0,0,1-.63,1c-.36.15-.56,0-.76-.38a2.08,2.08,0,0,0-1.21-.94,8.12,8.12,0,0,0-2.74-.5c-.71,0-1.42-.2-2.14-.21a5.85,5.85,0,0,0-2,.67c-1.05.39-1.38,1.4-1.86,2.22a5.48,5.48,0,0,0-.41,2.26,7.69,7.69,0,0,0,.74,4.45,6.26,6.26,0,0,0,1.85,1.64c1.19.87,2.61.93,4,1.24a10.57,10.57,0,0,1,1.37.55,6,6,0,0,1,.79.25,15.66,15.66,0,0,1,2.88,1.71,6,6,0,0,1,2,2.84c.12.42.29.83.44,1.24Q142.54,85.81,142.54,86.91Z"/><path class="cls-1" d="M33.17,93a3.57,3.57,0,0,1-1.64-1.84c-.71-1.25-1.41-2.5-2.11-3.75-.58-1-1.15-2.08-1.74-3.1-.26-.45-.57-.86-.85-1.29s-.55-.29-.77,0c-.62.94-1.2,1.92-1.84,2.86s-.37,2-.47,2.95-.65,1.61-1.53,1.23a.67.67,0,0,1-.48-.72c.08-1.74.19-3.48.22-5.21,0-1.57-.08-3.14-.1-4.71,0-1.33,0-2.66,0-4,0-.84-.19-1.68-.2-2.52,0-1.92,0-3.83,0-5.75,0-.37,0-.73,0-1.1a.84.84,0,0,1,.71-.92c.24-.07.73,0,.79.19.31.78.61.77,1.39.55,1.62-.47,3.34-.46,5-.85a8.29,8.29,0,0,1,2.44-.43,3.89,3.89,0,0,1,3.63,3,2.58,2.58,0,0,1-.05,1.47c-.43,1.06-1,2.06-1.5,3.07a11.38,11.38,0,0,1-.78,1.22C32.17,75,31.13,76.5,30,78c-.72,1-1.53,1.88-2.26,2.78,1.27,1.87,2.24,3.88,3.4,5.74s1.93,4,3.44,5.63L34.3,93Zm-9.44-10.1c1-1.31,1.88-2.51,2.8-3.68S28.3,77.12,29.14,76s1.86-2.48,2.7-3.79a27.72,27.72,0,0,0,1.7-3.17c.43-.91.3-1.37-.55-2.06s-2-.44-3-.2a24.89,24.89,0,0,1-3.06.74,16.57,16.57,0,0,0-3.07.72.5.5,0,0,0-.41.59c0,1.1,0,2.21,0,3.31s0,2,0,3c0,1.35.14,2.7.22,4,0,.19.06.38.06.57C23.73,80.8,23.73,81.81,23.73,82.94Z"/><path class="cls-1" d="M98.39,87.87c-.07-1.62-.16-3.3-.21-5,0-.56.08-1.12.09-1.69,0-.74,0-1.48,0-2.21-.05-1.94-.15-3.89-.18-5.83,0-1.13.05-2.27.07-3.4,0-1.29,0-2.58,0-3.87A1.83,1.83,0,0,1,98.6,65a2.84,2.84,0,0,1,.56-.47,2,2,0,0,1,1,2.36,15.84,15.84,0,0,0,0,2.26c0,1.11,0,2.21,0,3.32,0,.67,0,1.33.07,2a2.1,2.1,0,0,1,0,.66c-.36,1.11.05,2.18.11,3.27,0,.65-.06,1.3-.07,2a20.67,20.67,0,0,0,.05,3.46,15.77,15.77,0,0,1,.14,1.81c0,1,.07,2,.13,3,0,.14.2.38.29.37,1.47-.12,2.94-.27,4.41-.41.74-.07,1.48-.19,2.22-.23.36,0,.73.13,1.09.15a17.46,17.46,0,0,0,2.33,0c.7-.06,1.38-.31,2.07-.42a3.32,3.32,0,0,1,.93.17c-.2.29-.31.61-.51.73a17.5,17.5,0,0,1-2.32,1.19,6.54,6.54,0,0,1-1.93.43c-1.39.1-2.78,0-4.16.16s-3,.5-4.49.66a5.28,5.28,0,0,1-1.58-.31c-.1,0-.24-.14-.3-.1-.65.4-1.32.14-2,.13a30,30,0,0,0-4.82.23c-1.35.21-2.67.57-4,.82a10.43,10.43,0,0,1-2.1.24A8,8,0,0,1,84,92.16a.25.25,0,0,1-.16-.15c-.12-1-.78-1.92-.53-3.07a2.54,2.54,0,0,0-.21-2,.61.61,0,0,1-.08-.46,4.93,4.93,0,0,0,.12-2c-.08-1.06,0-2.13,0-3.19,0-.85-.08-1.7-.1-2.56,0-.19.1-.39.1-.59,0-1.08,0-2.16,0-3.24,0-.59.07-1.18.07-1.76,0-1.5,0-3,0-4.5,0-.3,0-.59,0-.89-.07-1.06-.17-2.13-.21-3.19,0-.58.1-1.17.09-1.75,0-.37-.18-.73-.21-1.1-.06-.84-.12-1.69-.11-2.53,0-1.44.08-2.89.1-4.33q0-1.4,0-2.79c0-1.69-.09-3.38-.11-5.07,0-1.47,0-2.95,0-4.42,0-1.09-.21-2.17-.2-3.26,0-1.52.16-3,.19-4.56A9.56,9.56,0,0,0,82.42,33a.93.93,0,0,1,.94-1.11,5.23,5.23,0,0,1,1.17.2.83.83,0,0,1,.46.53c.1.57.1,1.16.16,1.75a9,9,0,0,0,.11,1c.17.85.35,1.69.53,2.54a1.25,1.25,0,0,1,0,.18c.08,1.25.15,2.5.23,3.74.06.94.17,1.88.21,2.83,0,.54-.09,1.08-.1,1.63,0,1,0,2,0,3.06.06,2,.14,4,.23,6,.06,1.35.16,2.7.22,4.05s.06,2.75.12,4.12c0,.54.18,1.07.19,1.61,0,1.31,0,2.61,0,3.92,0,.22-.07.44-.07.66,0,2.27,0,4.54,0,6.81,0,1.89-.25,3.78-.3,5.68,0,1.34.07,2.68.13,4,0,.95.14,1.89.18,2.84s.3,1,1,.79A32.56,32.56,0,0,1,91.4,89a30.77,30.77,0,0,1,3.31-.25c.59,0,1.18.05,1.78.07a.54.54,0,0,0,.25-.08Z"/><path class="cls-1" d="M141.25,31.38c-.33.31-.64.63-1,.92a21.9,21.9,0,0,1-1.81,1.52c-.94.66-1.13,1.77-1.45,2.77a18.16,18.16,0,0,0-.26,2.2,8.39,8.39,0,0,1-1.28,3.4,7.32,7.32,0,0,1-1.19,1.4c-1.28,1.09-2.57,2.19-3.94,3.15-1.79,1.26-3.64,2.4-5.49,3.56-1.08.68-2.18,1.32-3.3,1.91a3.82,3.82,0,0,1-3.33.07c-1.12-.45-2.23-.91-3.36-1.32a6.93,6.93,0,0,0-4.9-.12c-.87.32-1.71.69-2.58,1a29.85,29.85,0,0,0-2.8,1.05,12.36,12.36,0,0,0-2.1,1.48,10.47,10.47,0,0,0-1.33,1.31c-.58.67-1.38.58-1.75-.36-.21-.53-.37-1,.29-1.47.32-.22.35-1,.48-1.47.33-1.26.6-2.55,1-3.79.52-1.69,1.13-3.36,1.69-5S104,40,104.64,38.29c.41-1.1,1-2.14,1.42-3.22.7-1.64,1.36-3.3,2.06-4.94a12.53,12.53,0,0,1,.8-1.49,37.45,37.45,0,0,1,2.15-3.47,44.3,44.3,0,0,1,3-3.43,20.39,20.39,0,0,1,2.13-2c1.55-1.23,3.15-2.39,4.74-3.57.91-.67,1.81-1.37,2.76-2s2.21-1.32,3.35-1.9,2.44-1.18,3.69-1.67c1.86-.73,3.74-1.45,5.64-2.05a25.58,25.58,0,0,1,3.23-.6,5,5,0,0,1-1.11,4c-.62.72-1.11,1.59-1.79,2.23A25.76,25.76,0,0,1,134,16.38a.71.71,0,0,0-.35.89,2.75,2.75,0,0,1-.07,1.35,7.61,7.61,0,0,1-2.07,3.68c-1.31,1.16-2.55,2.4-3.81,3.61a1.13,1.13,0,0,0-.44.92,11.56,11.56,0,0,1-1.18,5.37,20,20,0,0,1-1.8,3.55,14.76,14.76,0,0,1-3.54,3.82,17,17,0,0,1-5.62,2.14,11.79,11.79,0,0,1-2.47,0,16.43,16.43,0,0,1-.77,2.12,2,2,0,0,1-1,.9,6.74,6.74,0,0,1-2.78.55c-1.32-.07-2.64-.07-4-.08a.46.46,0,0,0-.33.28c-.46,1.39-.92,2.78-1.34,4.19-.33,1.12-.6,2.26-.93,3.52.8-.5,1.48-.95,2.18-1.36a11.55,11.55,0,0,1,1.14-.56c.64-.29,1.27-.6,1.92-.84a22.45,22.45,0,0,1,2.38-.74A24.37,24.37,0,0,1,112.6,49a4.69,4.69,0,0,1,1.93.43c1.44.53,2.85,1.17,4.31,1.66a4.2,4.2,0,0,0,1.43,0c1.25-.05,2.18-.86,3.23-1.36a25.5,25.5,0,0,0,2.94-1.87c1.18-.78,2.38-1.52,3.53-2.35s2.38-1.91,3.61-2.81A5.74,5.74,0,0,0,135.4,40a12,12,0,0,0,.56-3.52,4.7,4.7,0,0,1,2.28-3.94,21.79,21.79,0,0,1,2-1,4.4,4.4,0,0,1,.9-.22Zm-33,8.19,0-.24a1.79,1.79,0,0,1,.62.09c.37.2.68.61,1.06.69a22.67,22.67,0,0,0,3.12.51,8.17,8.17,0,0,0,4-.71,18.16,18.16,0,0,0,2.43-1.11,11.63,11.63,0,0,0,3-3,15.63,15.63,0,0,0,2.67-4.89c.33-1.07.53-2.18.78-3.27a5,5,0,0,0-.93.4,15.66,15.66,0,0,1-2.31.82c-1.09.24-2.16.78-3.32.46a.16.16,0,0,0-.14,0c-.46.57-.67,0-1.07-.24.22-.18.37-.37.55-.42.81-.21,1.64-.33,2.43-.57a22.23,22.23,0,0,0,2.86-1A10.82,10.82,0,0,0,126.74,25c1-.93,2-1.79,3-2.75a7.82,7.82,0,0,0,2.06-2.61c.25-.66.44-1.34.65-2l-.15-.08c-.44.28-.88.57-1.33.82-.89.49-1.79,1-2.69,1.44-.51.27-1,.56-1.53.8s-1,.4-1.49.63l-4.37,2.12c-.1,0-.24,0-.37,0,.07-.1.11-.24.2-.3.65-.41,1.31-.8,2-1.2s1.52-1,2.3-1.41c1.17-.67,2.36-1.29,3.52-2,.93-.55,1.83-1.19,2.74-1.77a26.6,26.6,0,0,0,3-1.93,17.47,17.47,0,0,0,3.63-3.93,7.7,7.7,0,0,0,.57-1.55l-.16-.11-2.94,1.17-1.23.49c-.48.19-1,.35-1.44.57-1,.47-2,1.06-3,1.45a37.44,37.44,0,0,0-5.07,2.78c-1.27.71-2.46,1.63-3.67,2.47-.66.46-1.3,1-1.93,1.47s-1.09.9-1.62,1.37c-.94.84-1.89,1.67-2.81,2.55-.41.39-.74.88-1.11,1.31a12.2,12.2,0,0,0-1,1.13c-.63.93-1.21,1.91-1.8,2.88-.36.59-.7,1.18-1,1.79-.24.44-.44.91-.66,1.36s-.39.77-.54,1.17c-.41,1.1-.76,2.21-1.26,3.28-.74,1.59-1.32,3.27-1.95,4.92-.38,1-.73,2-1.11,3.07l2.58-.19c.9-.07,1.8-.13,2.7-.25,1.4-.18,1.68-1.28,1.9-2.51A4.39,4.39,0,0,1,108.23,39.57Z"/><path class="cls-1" d="M2.9,89A11.53,11.53,0,0,0,3,87.55a7.3,7.3,0,0,0-.25-.91,2.81,2.81,0,0,1,0-.93c.09-.5.32-1,.38-1.46a17.4,17.4,0,0,0,.12-2.42c0-1-.16-1.92-.21-2.89,0-.78,0-1.57,0-2.36S3,75.23,3,74.56c0-1.24,0-2.48.11-3.71s.36-2.21.41-3.32c0-.57.23-1.29-.49-1.72-.39-.23-.09-1.17.39-1.29,1.2-.3,2.41-.56,3.6-.87a24.32,24.32,0,0,1,3.21-.87,5.7,5.7,0,0,1,2.42-.05c1.2.36,2.46.52,3.68.82a1.66,1.66,0,0,1,.9.53,27.35,27.35,0,0,1,2,3,5,5,0,0,1,.28,1.64,6.62,6.62,0,0,1,.11.83,1.72,1.72,0,0,1-.09.78,13.41,13.41,0,0,1-2.15,3.18c-.43.44-1,.75-1.4,1.17s-1.08,1.17-1.62,1.74-1,1-1.44,1.48c-.2.21-.35.46-.55.68-.78.84-1.57,1.66-2.35,2.5-.18.2-.28.42.11.49a11,11,0,0,0,1.31.23,10.47,10.47,0,0,1,4.12,1,10.88,10.88,0,0,1,2.41,1.5,6.37,6.37,0,0,1,1.52,2.11,3.2,3.2,0,0,1-.5,2.75,4.46,4.46,0,0,1-3.12,2.18,8.85,8.85,0,0,1-1.1.14c-.64.09-1.28.25-1.92.29a15.85,15.85,0,0,1-5.13,0A8.93,8.93,0,0,0,5,91.82a.45.45,0,0,0-.27.18.93.93,0,0,1-1.56,0,.73.73,0,0,1-.15-.37C3,90.77,3,89.89,2.94,89Zm3-6.38.14.16C6.72,82,7.37,81.25,8,80.51s1.08-1.21,1.63-1.8c1-1,1.93-2.06,2.88-3.1.57-.63,1.1-1.3,1.68-1.91,1-1,2-2,3-3a2.74,2.74,0,0,0,.25-3.07c-.18-.28-.31-.59-.46-.88a2.75,2.75,0,0,0-1.67-1.61c-1.17-.28-2.34-.51-3.52-.75a1.39,1.39,0,0,0-.56,0c-1.24.27-2.49.55-3.73.85a12.85,12.85,0,0,0-1.75.52,1,1,0,0,0-.52.61c-.16.84-.24,1.69-.36,2.54,0,.14-.07.27-.07.41-.06,1-.13,2.06-.14,3.1,0,.81.09,1.61.08,2.42a32.78,32.78,0,0,0,0,3.55,14,14,0,0,1,.18,4.22Zm11.78,4.65c-.07-.21-.07-.43-.18-.53C16.46,85.59,15.4,84.4,13.83,84c-1-.23-2-.49-3-.67-.75-.14-1.51-.18-2.27-.25a.67.67,0,0,0-.46.14c-1,.83-1.93,1.64-2.82,2.55a1.52,1.52,0,0,0-.48,1.48A16.8,16.8,0,0,1,5,89.46c0,.17.13.47.21.47.49,0,1,0,1.46,0a8.61,8.61,0,0,1,1.76.1,15.05,15.05,0,0,0,3.48,0A9.61,9.61,0,0,0,14,89.69,11.83,11.83,0,0,0,16.43,89c.43-.2.72-.78,1.05-1.21A2.39,2.39,0,0,0,17.71,87.27Z"/><path class="cls-1" d="M52,54.86l.68-2.17c.13-.43.25-.86.4-1.28.42-1.14.86-2.28,1.29-3.42s.89-2.29,1.3-3.45.76-2.4,1.2-3.57c.28-.75.68-1.44,1-2.17.57-1.25,1.13-2.5,1.68-3.75.37-.85.71-1.73,1.08-2.58.17-.4.51-.68.89-.5a1.46,1.46,0,0,1,.58.87,3.52,3.52,0,0,1,.92.22,1.49,1.49,0,0,1,.51,2.13c-.49,1-.9,2.08-1.36,3.12-.73,1.66-1.47,3.32-2.18,5-.33.79-.56,1.62-.88,2.42-.16.4-.41.74-.6,1.13s-.23.58-.35.86a30.49,30.49,0,0,1-2.41,4.9,37.41,37.41,0,0,0-2,4c-.51,1-.69,2.19-1.71,2.79-.54.32-.67.42-1.2-.19a3.39,3.39,0,0,1-.61-1.34c-.19-.59-.54-1.12-.76-1.71-.33-.87-.56-1.79-.91-2.65-.41-1-.89-2-1.33-3s-.9-2.16-1.42-3.2c-.68-1.37-1.46-2.68-2.14-4.06-.53-1.09-1-2.23-1.45-3.34-.22-.51-.5-1-.69-1.53s-.26-1-.45-1.51a11.89,11.89,0,0,0-.72-1.58A1.71,1.71,0,0,1,40.77,33a1.46,1.46,0,0,1,1.09-.31c.28.1.48.59.64,1,.37.85.71,1.72,1,2.6s.53,1.64.86,2.42.85,1.72,1.27,2.58c.26.52.51,1,.74,1.58.55,1.3,1.07,2.61,1.64,3.9.46,1,1,2,1.44,3.06.37.83.67,1.7,1,2.55a8.06,8.06,0,0,0,.51,1C51.28,53.83,51.59,54.27,52,54.86Z"/><path class="cls-1" d="M68.39,66.51c.11,2.11.23,4.19.32,6.28s.17,4.21.22,6.31a10.07,10.07,0,0,1-.15,1.34c.62-.05,1.15-.12,1.68-.13s1.29,0,1.93,0c.95,0,1.89.09,2.84.12a7.91,7.91,0,0,1,2.5.32,4.2,4.2,0,0,0,1.34,0,1.42,1.42,0,0,1,.51,0c.13.05.3.21.3.33a.49.49,0,0,1-.24.39,21.76,21.76,0,0,1-2.81.84,15,15,0,0,1-2.6.14c-.58,0-1.16-.12-1.73-.1-1,0-2,.14-3,.21-.07,0-.14,0-.21-.06-.56-.11-.59,0-.55.59.06.85,0,1.7.06,2.55s0,1.86.08,2.79a3,3,0,0,0,.28.77c1.54,0,3.1,0,4.66,0s3.1.15,4.65.24l.1.17a5.71,5.71,0,0,1-.65.85,3.66,3.66,0,0,1-3.09,1,15.07,15.07,0,0,0-2.05-.08c-1.06,0-2.13,0-3.19,0a15.26,15.26,0,0,1-1.65,0c-.81-.09-1-.37-1-1.26,0-1.41,0-2.82,0-4.23s-.11-2.92-.1-4.39c0-1.23.19-2.46.2-3.68,0-1.52,0-3.05-.11-4.57-.06-.93-.26-1.86-.37-2.79,0-.32,0-.65,0-1a21,21,0,0,1-.13-2.26,4.74,4.74,0,0,1,.41-2.57c.2-.3.37-.77.92-.35.26.2.69.14,1.05.15.61,0,1.21,0,1.82,0,.45,0,.9.09,1.35.08.73,0,1.46-.08,2.19-.08.56,0,1.12.08,1.68.11l3,.12a1.5,1.5,0,0,1,.39.09c.13,0,.36.1.36.16a.69.69,0,0,1-.15.48A3.37,3.37,0,0,1,77,66.61c-1.07-.06-2.14,0-3.21,0-.73,0-1.47.11-2.2.1s-1.49-.13-2.23-.19C69.09,66.49,68.81,66.51,68.39,66.51Z"/><path class="cls-1" d="M72.54,17.47c-.1-.92-.26-1.84-.28-2.76s.1-1.85.17-2.77c0-.64.07-1.29.15-1.93.22-1.69.21-3.44,1-5a4,4,0,0,1,2.84-2.34,4.47,4.47,0,0,1,4.06,1.39.76.76,0,0,1,.19.22,16.22,16.22,0,0,0,.85,2.15c1,1.77.82,3.79,1.11,5.71.1.67.27,1.33.32,2,.06.84,0,1.69,0,2.54a10.1,10.1,0,0,1,0,1c-.1,1-.2,2.05-.35,3.07s-.31,2.21-.57,3.28A16.4,16.4,0,0,1,81,27.49a3.25,3.25,0,0,1-2.24,2.08,2.94,2.94,0,0,1-2.86-.93,12,12,0,0,1-1.66-2.08,11.45,11.45,0,0,1-.9-2.63c-.28-1.09-.5-2.2-.66-3.32s-.21-2.08-.31-3.12Zm1.94,0-.14,0a26.83,26.83,0,0,0,.3,3.42,19.23,19.23,0,0,0,1.07,3.79A7.28,7.28,0,0,0,77.41,27a1.26,1.26,0,0,0,1.11.3,2,2,0,0,0,.82-1,14.28,14.28,0,0,0,1.15-4c.24-1.29.41-2.6.57-3.9a11,11,0,0,0,.11-2.07c-.1-1.51-.29-3-.44-4.51a21.87,21.87,0,0,0-.21-2.22c-.16-.81-.48-1.57-.7-2.37A3.7,3.7,0,0,0,78.1,5,2.13,2.13,0,0,0,75,6.26c-.24,1.34-.45,2.69-.56,4-.14,1.66-.21,3.32-.23,5A13.83,13.83,0,0,0,74.47,17.43Z"/><path class="cls-1" d="M58.35,18.55c.12-.8.28-1.69.38-2.58.13-1.1.19-2.22.35-3.32.12-.83.35-1.64.52-2.47.22-1.11.36-2.26.67-3.34A16.42,16.42,0,0,1,61.4,4a3.26,3.26,0,0,1,3-1.72,1.15,1.15,0,0,1,1.26.61c.07.16.27.26.37.41.24.35.47.72.69,1.08a4.14,4.14,0,0,1,.52.93,12.94,12.94,0,0,1,.24,1.47c.07.4.17.8.23,1.21.11.8.24,1.61.3,2.42.15,1.84.19,3.69.41,5.52.13,1-.16,2-.1,3a30,30,0,0,1-.3,3.69,6,6,0,0,1-.54,1.54,23.57,23.57,0,0,1-1.18,3.24,2.42,2.42,0,0,1-3.82.71,11.05,11.05,0,0,1-1.77-1.76,10.77,10.77,0,0,1-1.94-4.73C58.61,20.59,58.49,19.62,58.35,18.55Zm1.8.32c.21.89.45,2,.76,3.15a7.65,7.65,0,0,0,2,3.6c.25.24.54.42.8.64s.67.34.91-.16a24.42,24.42,0,0,0,.94-2.28,11.34,11.34,0,0,0,.64-2.14c.19-1.25.24-2.52.36-3.77a7.94,7.94,0,0,0,.1-1.08c-.05-1-.12-2.09-.22-3.14q-.18-1.91-.42-3.81c-.1-.77-.32-1.53-.35-2.3a4.91,4.91,0,0,0-1.49-3.21A.84.84,0,0,0,63,4.63c-.4,1.18-.8,2.37-1.13,3.58a22.61,22.61,0,0,0-.63,3,19.87,19.87,0,0,0-.56,2.92A43.84,43.84,0,0,1,60.15,18.86Z"/><path class="cls-1" d="M42.23,28.4a3,3,0,0,1-2.41-1.21,26.14,26.14,0,0,1-1.65-2.09A4,4,0,0,1,37.59,24a28,28,0,0,1-.78-2.85,6.93,6.93,0,0,1-.28-2.65c.1-.58-.11-1.21-.07-1.81.11-1.56.27-3.12.44-4.67.14-1.29.23-2.6.48-3.87a15.79,15.79,0,0,1,1-3.21,12.12,12.12,0,0,1,1.5-2.38,1.68,1.68,0,0,1,1.51-.61c.64,0,1.29-.2,1.94-.21A2.65,2.65,0,0,1,45.85,4c.24,1.22.5,2.44.64,3.68a24.45,24.45,0,0,1,0,2.95c0,.65-.08,1.29-.1,1.94,0,.32,0,.64.06,1a5.6,5.6,0,0,1,0,.79c-.1,1.22-.26,2.44-.32,3.66-.08,1.54,0,3.09-.14,4.63a16.61,16.61,0,0,1-.41,3A3.4,3.4,0,0,1,42.23,28.4Zm0-2.07A2.05,2.05,0,0,0,44,24.93a18.38,18.38,0,0,0,.23-2.21c.06-1.64.08-3.29.12-4.93,0-.33,0-.67,0-1,.1-1.32.22-2.64.33-4,0-.26.08-.52.08-.78,0-1.16,0-2.33-.05-3.49s-.34-2.21-.47-3.32c-.08-.68-.24-1.4-.86-1.54a3.13,3.13,0,0,0-2.07.09,4.28,4.28,0,0,0-1.94,3.1c-.34,1.72-.61,3.45-.8,5.19A54.94,54.94,0,0,0,38.2,18a18.1,18.1,0,0,0,.58,3.8,6.91,6.91,0,0,0,1.7,3.32C41,25.63,41.42,26.32,42.25,26.33Z"/><path class="cls-1" d="M48.11,66.89c.15,1.28.31,2.56.44,3.84,0,.33-.1.68-.09,1,.06,1.82.2,3.64.2,5.47,0,1.64-.09,3.28-.22,4.91-.12,1.47-.31,2.95-.58,4.4a9.58,9.58,0,0,1-.78,1.94,5.16,5.16,0,0,0-.4.84c-.26,1.18-1.21,1.48-2.05,1.9a6.16,6.16,0,0,1-1,.38,3.52,3.52,0,0,1-3.15-.91,4.72,4.72,0,0,1-1.66-2.29,14.69,14.69,0,0,1-.41-2.28c-.2-1.24-.43-2.48-.57-3.73-.16-1.47-.25-3-.34-4.43-.07-1.16-.11-2.32-.11-3.48,0-1,.13-2,.09-2.92-.07-1.87-.24-3.74-.32-5.62,0-1.06.11-1.2,1.09-1.29.35,0,.82.67.82,1.07,0,1.43,0,2.87,0,4.3,0,1,.09,2,.1,3,0,1.64,0,3.27,0,4.91,0,.88.3,1.76.29,2.64a23.91,23.91,0,0,0,.81,5.17,13.75,13.75,0,0,0,.48,2.05,2.8,2.8,0,0,0,2,1.94,2,2,0,0,0,2-.88,12.92,12.92,0,0,0,1.46-3.15A11.16,11.16,0,0,0,46.52,83c.13-2,.29-4.07.33-6.11,0-1.19-.18-2.38-.24-3.57,0-.87,0-1.74,0-2.61s-.15-1.83-.2-2.74a24.27,24.27,0,0,1-.06-2.56.75.75,0,0,1,.76-.79,1.19,1.19,0,0,1,1.13,1c0,.41,0,.82,0,1.22Z"/><path class="cls-1" d="M56.54,74.67c.13-.36.19-.62.3-.85.69-1.52,1.42-3,2.09-4.54a17.7,17.7,0,0,0,1.65-5c.07-.62.63-.5,1-.55.17,0,.55.39.57.63A9,9,0,0,1,61,68.72c-.36.8-.67,1.63-1,2.42s-.83,1.54-1.19,2.35c-.45,1-.85,2-1.23,3-.06.15.07.41.17.59.35.63.79,1.21,1.08,1.87.71,1.62,2,2.75,2.91,4.21.65,1,1.44,2,2.06,3a1.93,1.93,0,0,1,.31,2,.84.84,0,0,1-1,.51,1.33,1.33,0,0,1-.84-.64,12.25,12.25,0,0,0-1.45-2.54c-1-1.27-1.88-2.56-2.75-3.89-.54-.82-1-1.72-1.48-2.66a6.08,6.08,0,0,0-.42.77c-.44,1.22-.84,2.45-1.31,3.66s-.9,2.13-1.35,3.19l-1.67,3.94a.94.94,0,0,1-1.29.54,1.17,1.17,0,0,1-.49-1.44c.28-.64.6-1.26.88-1.91s.5-1.24.76-1.85c.38-.88.8-1.74,1.17-2.62.44-1,.83-2.11,1.26-3.15.35-.86.7-1.72,1.1-2.55a1.24,1.24,0,0,0,0-1.28c-.78-1.4-1.49-2.86-2.31-4.24s-1.62-2.42-2.41-3.65A12.19,12.19,0,0,1,49.77,67c-.16-.34.33-1.16.7-1.22.68-.12,1.07.16,1.4.84s.75,1.37,1.15,2c.59,1,1.21,2,1.79,2.94S55.9,73.54,56.54,74.67Z"/><path class="cls-1" d="M29.94,56.3h1c0-.76-.09-1.5-.11-2.24,0-.31.07-.63.07-.95,0-1.33,0-2.66,0-4,0-2,.1-4,.1-6.05,0-1.56-.06-3.13-.11-4.69a27.65,27.65,0,0,1-.08-2.83c0-.57-.13-1.29.44-1.72.2-.15.47-.43.61-.37.65.25,1.46.13,1.94.77a2.18,2.18,0,0,1,.25,1.07c.06.87,0,1.75.14,2.61a21.08,21.08,0,0,1,.2,3.56c0,1-.23,1.95-.3,2.92-.05.71,0,1.43,0,2.15,0,1-.1,2.06-.1,3.1,0,.68.08,1.37.12,2.05,0,.5.06,1,.07,1.51s0,.78,0,1.17c.07.95.17,1.89.22,2.84a9.72,9.72,0,0,1,0,2,.76.76,0,0,1-1.17.53A5,5,0,0,0,31.81,59c-.67-.16-.78-.87-.75-1.44s-.25-.92-.78-1a2.16,2.16,0,0,1-.36-.14Z"/><path class="cls-1" d="M51.61,18.82c.11,0,.18,0,.22,0,1.12-.61,2.22-1.27,3.37-1.79a1.52,1.52,0,0,1,1.24.27,7,7,0,0,1,1.11,1.23.91.91,0,0,0-.15.31c-.05.73-.06,1.45-.13,2.18s-.21,1.66-.29,2.5c0,.33.06.67.06,1,0,.85,0,1.7,0,2.55a1.64,1.64,0,0,0,.12.7c.26.5-.1.83-.28,1.14a.8.8,0,0,1-.93.45,1.13,1.13,0,0,1-.83-1.29q.06-2.64.22-5.28c.06-.92.23-1.82.32-2.74a1.16,1.16,0,0,0-.17-.67c0-.06-.35.07-.52.13a12.87,12.87,0,0,0-1.7.67,8.19,8.19,0,0,0-1.25,1c-.52.44-.24,1-.22,1.54,0,1,0,2-.06,3.06a8.73,8.73,0,0,0,.06,1c.1,1,0,1.6-.94,1.85a.86.86,0,0,1-.79-.25,2.84,2.84,0,0,1-.28-1.05c0-.08.1-.18.09-.27,0-1.56-.06-3.13-.08-4.69,0-.3.1-.6.09-.89-.06-1.17-.15-2.33-.21-3.5,0-.51,0-1,0-1.54-.07-1.6-.17-3.19-.22-4.79-.06-1.91-.07-3.82-.13-5.73,0-.7-.13-1.4-.21-2.09a1,1,0,0,1,.81-1.1.86.86,0,0,1,1,.81,7.62,7.62,0,0,1,.15,2c-.19.92.15,1.77,0,2.67a9.32,9.32,0,0,0,0,1.54q.1,2.27.21,4.54C51.46,15.79,51.54,17.31,51.61,18.82Z"/><path class="cls-1" d="M71.78,34.9c0,.62-.13,1.25-.1,1.87,0,.78.14,1.56.24,2.33s.23,1.46.31,2.19c.1,1,.23,2,.24,2.94,0,1.55-.09,3.11-.1,4.66,0,.85.06,1.7.1,2.54q.11,2,.23,4.05a3,3,0,0,0,.12,1,2.68,2.68,0,0,1,0,2.24,1.24,1.24,0,0,1-.78.71,1.17,1.17,0,0,1-1.33-.74,10.25,10.25,0,0,1-.15-1.38c-.14-1.43-.31-2.87-.42-4.3s-.26-3.17-.32-4.76c-.06-1.43,0-2.87,0-4.3,0-.9-.22-1.78-.3-2.68,0-.53,0-1.06,0-1.59q-.16-2.9-.34-5.81c0-.17-.18-.34-.16-.5a2,2,0,0,1,.26-1,.94.94,0,0,1,.81-.28C71.61,32.56,71.8,33.63,71.78,34.9Z"/><path class="cls-1" d="M32.82,28a2.22,2.22,0,0,1-1.47-2.18c-.16-2.2-.36-4.4-.55-6.61q-.17-1.92-.34-3.84c-.15-1.58-.3-3.16-.45-4.73,0-.06,0-.12,0-.18,0-2.13-.08-4.27-.11-6.4a.83.83,0,0,1,.95-.9c.36,0,.76.13.76.73,0,.84.07,1.67.1,2.51.08,2.52.11,5,.25,7.56.08,1.33.38,2.65.53,4,.1.85.09,1.71.14,2.57,0,.48.06,1,.11,1.44.18,1.48.42,3,.52,4.45A5.41,5.41,0,0,1,32.82,28Z"/></g></g></svg>