<svg xmlns="http://www.w3.org/2000/svg" viewBox="0 0 233.02 16.53"><defs><style>.cls-1{fill:#fff;}</style></defs><title>Asset 9</title><g id="Layer_2" data-name="Layer 2"><g id="coord"><path class="cls-1" d="M179.16,3.92c.73-.14,1.46-.31,2.2-.4a4.11,4.11,0,0,1,1.35,0,1.74,1.74,0,0,1,1.07,1.57,4.64,4.64,0,0,1-1.27,3.4,1,1,0,0,0-.09.15,5.68,5.68,0,0,1,2.41,1.82c0-.29-.07-.59-.12-.88-.14-.84-.27-1.67-.43-2.5-.06-.31-.23-.6-.29-.9-.11-.56.3-.86.7-1.05a6.66,6.66,0,0,1,1.53-.51,5.64,5.64,0,0,1,1.54-.12,1.07,1.07,0,0,1,.71.45,6.94,6.94,0,0,1,1.25,3.52,3.58,3.58,0,0,1-.42,1.39c-.14.34-.08.52.25.65l1.24.54.16-.12a6.58,6.58,0,0,1-.22-.83,10.73,10.73,0,0,1-.13-1.49c0-.8.05-1.6.1-2.39,0-.52.07-1,.14-1.57,0-.1.21-.26.3-.24.31.06.67.1.71.52a11,11,0,0,1,.1,1.29c0,1-.08,2-.09,3a8.8,8.8,0,0,0,.11,1.6,2.46,2.46,0,0,0,.42.85.41.41,0,0,0,.38.06,3.49,3.49,0,0,0,2-3.4,10,10,0,0,0-.68-3,.9.9,0,0,1,.3-.82c.3-.19.64,0,.76.39a5.36,5.36,0,0,1,.35,1.22,11.24,11.24,0,0,1-.1,4.06A4.66,4.66,0,0,1,195,11a4.16,4.16,0,0,1-2.18,2,1,1,0,0,1-.63,0c-.8-.26-1.61-.53-2.39-.84a6,6,0,0,1-1.33-.73c-.3-.22-.47-.27-.75,0a4.69,4.69,0,0,1-.94.71c-.55.3-.43-.31-.68-.56,0,.37,0,.69,0,1s-.29.56-.62.62-.4-.22-.43-.49-.1-.54-.15-.85c-.07,0-.2,0-.25,0a6.54,6.54,0,0,1-2.58,1.2c-.79.29-1.6.54-2.39.86-.23.09-.38.36-.58.54s-.57.24-.77-.17a8.48,8.48,0,0,0-.55-1,1.12,1.12,0,0,1,0-1.57,1,1,0,0,0,.1-.64,17.8,17.8,0,0,1-.07-4.32,20.8,20.8,0,0,0-.1-2.38,1.32,1.32,0,0,1,.43-.75c.07-.08.35,0,.52.07a2.63,2.63,0,0,1,.47.31Zm0,6.73c.29-.57.92-.76.83-1.45a.61.61,0,0,1,.35-.48,2.59,2.59,0,0,0,1.41-1.14,3,3,0,0,0,.67-2.81,12.83,12.83,0,0,0-1.72.17,3.8,3.8,0,0,0-1.44.61c-.19.14-.09.65-.13,1,0,0,0,0,0,.05A13.16,13.16,0,0,0,179.2,10.65Zm7.93-.24-.14-.34c-.21-.52,0-.82.57-.76.74.09,1-.16,1-.91a3.5,3.5,0,0,0-.87-2.19.87.87,0,0,0-.66-.33,13.42,13.42,0,0,0-1.57.45l.7,4.81Zm-3.41.6a18.16,18.16,0,0,0-1.63-.94.74.74,0,0,0-.93.13c-.53.58-1.08,1.13-1.66,1.65-.4.36-.44.46-.07.88Z"/><path class="cls-1" d="M37.55,11.27c-.57.09-1,.15-1.47.25-.22.05-.49,0-.54.41a.78.78,0,0,1-.58.48.61.61,0,0,1-.66-.52c-.08-.39-.39-.38-.67-.16-.75.6-1.46,1.27-2.25,1.79a2.75,2.75,0,0,1-1.55.48c-.37,0-.79-.45-1.05-.79a5.22,5.22,0,0,1-.94-3.7C27.9,8.67,28,7.81,28,7A7.24,7.24,0,0,1,29,4.25a3.09,3.09,0,0,1,.4-.7,2.45,2.45,0,0,1,2-.76c.48,0,1.05,0,1.23.53a10.18,10.18,0,0,1,.4,2c0,.29-.52.44-.74.19a2,2,0,0,1-.47-.78c-.06-.24-.09-.48-.35-.47a1.76,1.76,0,0,0-1,.22,5.79,5.79,0,0,0-.73,1,4.33,4.33,0,0,0-.59,2.25c-.12.71-.16,1.44-.22,2.16a3.87,3.87,0,0,0,.84,2.67.71.71,0,0,0,.66.05c.93-.49,1.84-1,2.75-1.57a1.46,1.46,0,0,0,.3-.29,1.13,1.13,0,0,0,.4-1.12,12.42,12.42,0,0,1,0-2.1c0-.92-.05-1.84-.12-2.75,0-.42.11-.7.51-.71s.6.18.62.63c0,.8.19,1.59.23,2.39,0,.64-.08,1.28-.07,1.92a6.37,6.37,0,0,0,.21,1.1l2.08.25c0-.44,0-.81,0-1.19a35.34,35.34,0,0,1,.3-6.27.54.54,0,0,1,.52-.51.43.43,0,0,1,.55.46,7.37,7.37,0,0,1,.08,1.59,13.8,13.8,0,0,0-.11,3.42c.05.73,0,1.47,0,2.2,0,.49.09,1,.15,1.63.26-.64.5-1.12.66-1.62.25-.78.47-1.56.66-2.36.23-1,.42-2,.63-2.94a1.15,1.15,0,0,1,.07-.29c.4-.77.89-.83,1.42-.12A6.25,6.25,0,0,1,43,5.57a26.36,26.36,0,0,1,1.62,5.67A10.36,10.36,0,0,0,45,12.71,1.09,1.09,0,0,1,44.75,14a.64.64,0,0,1-1-.39,6.69,6.69,0,0,0-.26-1,.5.5,0,0,0-.42-.2c-.94.14-1.88.32-2.82.48-.12,0-.28,0-.34.06-.3.34-.56.72-.87,1-.16.16-.51.38-.6.32a1.25,1.25,0,0,1-.52-.7C37.74,12.84,37.66,12,37.55,11.27Zm5.68.18a15.32,15.32,0,0,0-1.51-5.16l-1.37,5.16Z"/><path class="cls-1" d="M216.57,11.19a6.66,6.66,0,0,1-3.69,1.59c-1,.14-1.48-.19-1.64-1.14-.11-.64-.08-1.29-.12-1.94-.1-1.38-.21-2.75-.29-4.13a2.7,2.7,0,0,1,.12-.91.65.65,0,0,1,1-.11,2,2,0,0,1,.33.89c.07.85.09,1.71.1,2.57,0,.52-.09,1-.07,1.55s.15.95.18,1.42.3.58.7.54a8.82,8.82,0,0,0,3-.76c.32-.15.36-.31.24-.64A4.31,4.31,0,0,1,216.25,9c0-.57-.08-1.14-.11-1.71,0-.81-.07-1.63-.11-2.44,0-.41.14-.8.55-.77a1,1,0,0,1,.69.6,9.91,9.91,0,0,1,.31,2.3,16.75,16.75,0,0,0,.34,3.54c.15.7.79.83,1.52.31.12-.09.29-.12.39-.22s.27-.28.27-.42c0-1,0-1.9-.07-2.86,0-.77-.06-1.54,0-2.3a.81.81,0,0,1,.44-.57,6.31,6.31,0,0,1,2.77-.45c.85.06,1.7.09,2.55.11a18.87,18.87,0,0,0,2.1,0c.44,0,.58.06.49.47l-7,1.06c.08.65.16,1.21.2,1.77a4,4,0,0,1,0,1.1c-.08.38.14.35.34.33,1.26-.12,2.52-.27,3.78-.39.1,0,.31.14.31.18-.05.22-.1.57-.25.63a17.81,17.81,0,0,1-1.76.53c-.6.17-1.2.35-1.81.51-.24.06-.49.07-.46.42a.66.66,0,0,0,.57.64,6,6,0,0,0,2.84-.2c.44-.12.86-.33,1.3-.46a1.36,1.36,0,0,1,.47,0c0,.17,0,.39-.09.5a1.88,1.88,0,0,1-.57.44,7.09,7.09,0,0,1-3.28,1.13,2.42,2.42,0,0,1-2-.5,5.71,5.71,0,0,1-.63-1.13,19,19,0,0,1-1.74,1.08c-.87.43-1.3.23-1.69-.66-.05-.12-.1-.25-.16-.37S216.62,11.23,216.57,11.19Z"/><path class="cls-1" d="M61.72,12.31c1.34-.06,2.59-.09,3.84-.18a.7.7,0,0,0,.71-.8,2.07,2.07,0,0,1,0-.42c.14-1.06-.55-1.58-1.33-2s-1.36-.6-2-1a1.31,1.31,0,0,1-.65-1.65A6.56,6.56,0,0,1,62.64,5a1.34,1.34,0,0,1,.67-.66,2.61,2.61,0,0,1,2.54,0,1.27,1.27,0,0,1,.31.43c.06.11.06.28.15.36.33.33.16.63-.09.84a.58.58,0,0,1-.89-.11,1,1,0,0,0-1.2-.31c-.58.15-.6.62-.62,1,0,.15.4.36.64.48.67.32,1.39.55,2,.93a3.4,3.4,0,0,1,1.37,3.37c0,.18,0,.37,0,.55a1.89,1.89,0,0,1-1.64,1.57,9.12,9.12,0,0,1-4.3-.48,2.85,2.85,0,0,0-1.93.29,15.33,15.33,0,0,1-1.55.48,1.56,1.56,0,0,1-1.92-1.45,38.81,38.81,0,0,1-.32-6.34,9.49,9.49,0,0,1,0-1.42.86.86,0,0,1,.51-.59c.2,0,.48.19.71.32s.24.25.37.26c1,0,2,0,3,0a2.57,2.57,0,0,1,.63.24,4.38,4.38,0,0,1-.68.51,5.46,5.46,0,0,1-1.28.46c-.46.08-.95,0-1.42,0a.58.58,0,0,0-.43.31,6,6,0,0,0-.14,1.19c0,.49,0,1,0,1.56.28-.05.61-.09.93-.17s.88-.28,1.32-.37a.62.62,0,0,1,.77.44.55.55,0,0,1-.37.74A17.78,17.78,0,0,1,58,10c-.49.11-.65.37-.57.84s.15.88.2,1.32c0,.28.08.36.42.29a11.19,11.19,0,0,0,3.09-1,3,3,0,0,1,.83-.18l.13.12Z"/><path class="cls-1" d="M165.6,9.89c-.21.66-.36,1.23-.57,1.78a4.2,4.2,0,0,1-.6,1.12c-.91,1.12-1.59,1-2.53-.12a2.93,2.93,0,0,1-.61-2,38.28,38.28,0,0,1,.22-4.09,3.26,3.26,0,0,0,0-1c-.12-.67.46-.58.87-.74l.31,1a1.84,1.84,0,0,1,1.93-1.28.7.7,0,0,1,.67.6c.07.43.23.86.3,1.29s.1.83.19,1.26c0-.3.1-.59.12-.89,0-.72,0-1.45.13-2.16,0-.18.27-.49.38-.48.27,0,.64.08.65.52a2.83,2.83,0,0,0,.11.52c.44-.35.78-.67,1.17-.94a.92.92,0,0,1,1.44.57c.21.91.5,1.8.65,2.72a15.79,15.79,0,0,1,.06,2.08,6.07,6.07,0,0,1-1,2.7,2.29,2.29,0,0,1-1.64,1.22c-.41.1-1.22-.58-1.39-1a5.91,5.91,0,0,1-.65-2.44C165.76,10.12,165.68,10,165.6,9.89Zm3.27-4.22c-.75-.07-1.81,1.1-1.84,1.76-.05,1.14-.12,2.29-.09,3.43a3,3,0,0,0,.48,1.27.62.62,0,0,0,.6.1,4,4,0,0,0,.78-.88,4.4,4.4,0,0,0,.64-3.78C169.27,6.94,169.06,6.32,168.86,5.67Zm-6.18,1-.06,0c-.1.68-.24,1.35-.3,2a12.44,12.44,0,0,0,0,1.8,2.56,2.56,0,0,0,.44,1.54c.35.44.67.46,1,0a5.17,5.17,0,0,0,.52-1.14,6.89,6.89,0,0,0,.37-4.32c-.07-.21,0-.52-.33-.46s-.53.19-.59.36a11.51,11.51,0,0,0-.22,1.27c0,.13-.19.23-.29.35-.12-.11-.32-.2-.35-.33A9,9,0,0,1,162.69,6.67Z"/><path class="cls-1" d="M80.81,16.45l-.63-3.36c-.82.54-1.53,1-2.25,1.47a2.39,2.39,0,0,1-2.51-.44,3.89,3.89,0,0,1-.91-2.36,8,8,0,0,1,.23-2.59A5.14,5.14,0,0,1,76,7a9.17,9.17,0,0,1,4.55-2.63c.29-.08.72-.22.87-.09s.62.73.55,1c-.13.49.15.8.2,1.2s.09.93.13,1.4c0,.2.05.4.08.6a3.6,3.6,0,0,1-.74,2.87A1.56,1.56,0,0,0,81.38,13a8.24,8.24,0,0,1,.15,2.9c0,.21-.33.4-.51.61Zm-1-5c-.55-.41-.66-.92-.25-1.33a.58.58,0,0,1,1,.1s.29,0,.34,0a1.15,1.15,0,0,0,.22-.55c.06-.9.11-1.8.1-2.7a.75.75,0,0,0-.73-.84A3.71,3.71,0,0,0,78,7a10.16,10.16,0,0,0-1.34,1.34A3,3,0,0,0,76,9.4a15.2,15.2,0,0,0-.21,1.7,2.6,2.6,0,0,0,.35,1.75,1,1,0,0,0,1.35.43c.6-.38,1.16-.83,1.73-1.26C79.43,11.86,79.61,11.66,79.85,11.44Z"/><path class="cls-1" d="M2.07,9.85c-1,.52-.74,1.45-.83,2.26a11.85,11.85,0,0,0,0,1.21c.15,0,.29-.13.36-.09s.37.26.35.35a16.77,16.77,0,0,1-.62,1.83c-.07.17-.37.41-.44.37-.26-.12-.64-.33-.66-.55-.1-.93-.09-1.86-.12-2.8,0-.53,0-1.06,0-1.59a4.75,4.75,0,0,1,.09-.6,4.35,4.35,0,0,0,0-.47c0-.75,0-1.49,0-2.24,0-.51,0-1-.08-1.53A21.27,21.27,0,0,1,0,3.84a1,1,0,0,1,.56-.66A11.22,11.22,0,0,1,2.7,2.53a1.65,1.65,0,0,1,2,1.36,3.51,3.51,0,0,1,.11,1.43A6,6,0,0,1,4.13,7a5.85,5.85,0,0,1-.86,1.09c-.42.47-.12,1,.31,1.57.68.85,1.4,1.67,2.08,2.51a14.12,14.12,0,0,1,.94,1.3.47.47,0,0,1-.09.45c-.17.13-.49.28-.61.21a3.51,3.51,0,0,1-.81-.76c-.45-.52-.86-1.08-1.31-1.61S2.65,10.48,2.07,9.85ZM1.45,8.44c.45-.54.87-1,1.2-1.45a13,13,0,0,0,.88-1.56c.3-.6,0-1.57-.51-1.54a5.5,5.5,0,0,0-1.5.39c-.11,0-.15.32-.17.49s.08.23.08.34c0,1-.06,1.95-.09,2.92A1.83,1.83,0,0,0,1.45,8.44Z"/><path class="cls-1" d="M51.09,13.37a.93.93,0,0,1-1.38-.23c-.42-.54-.83-1.09-1.25-1.63a3.2,3.2,0,0,0-.52-.54.36.36,0,0,0-.35,0,2.57,2.57,0,0,0-.37.86c-.06.45,0,.91-.31,1.32s-.53.53-1.21.19a.83.83,0,0,1-.45-1,3.83,3.83,0,0,1,.36-.83,1.59,1.59,0,0,0,.15-.91c-.09-1-.07-2.1-.13-3.15-.05-.83-.13-1.67-.26-2.49-.09-.6.14-.89.76-.87A2.94,2.94,0,0,0,47,4a5,5,0,0,1,2.44.13,1.59,1.59,0,0,1,1.09,1.72,5.64,5.64,0,0,1-1.63,3.35c-.21.24-.22.39,0,.6a6.65,6.65,0,0,1,1.62,2.53A7.66,7.66,0,0,0,51.09,13.37ZM47,9.29l.13,0c.21-.28.41-.58.63-.85A6.33,6.33,0,0,0,49.16,6c.08-.34,0-.52-.31-.58a5.27,5.27,0,0,0-1.22-.13c-.33,0-.73.12-.73.54C46.91,7,47,8.12,47,9.29Z"/><path class="cls-1" d="M130.68,5c-2,1-4.34.84-6.47,1.39V7.45a11.27,11.27,0,0,0,1.23-.13,3.7,3.7,0,0,1,2.91.81,3,3,0,0,1,1.27,3.4,3.18,3.18,0,0,1-2.76,2.21,9.53,9.53,0,0,1-3-.74.65.65,0,0,1-.4-1c.11-.31.19-.3.51-.23,1.09.25,2.14.84,3.33.53a1.83,1.83,0,0,0,1.29-1.54A1.28,1.28,0,0,0,128,9.53a3.75,3.75,0,0,0-3.61-.72l-.58.19c-.54.17-.84,0-.84-.63,0-.3.06-.61.06-.91,0-.73-.06-1.46-.06-2.19,0-.43.24-.59.68-.56.65,0,1.3,0,1.94,0h2.73c.63,0,1.26,0,1.89,0a2.9,2.9,0,0,1,.5.1Z"/><path class="cls-1" d="M95.86,9.51c.12-1.56-.37-3-.24-4.44,1-.12,1.28.1,1.34,1,.11,1.88.22,3.76.31,5.64,0,.58,0,1.16,0,1.74s-.46.31-.71.41a1,1,0,0,1-.33-.48A6.51,6.51,0,0,1,96,12a1.82,1.82,0,0,0-.65-1.29c-.86-.92-1.67-1.87-2.5-2.8-.1-.12-.19-.25-.29-.37l-.15.06q0,1.34,0,2.69c0,.6,0,1.2,0,1.8a3.73,3.73,0,0,1-.13,1.07c-.05.16-.34.26-.54.33,0,0-.24-.25-.26-.39-.13-1.27-.21-2.54-.35-3.8-.11-1-.26-2-.4-3.07-.08-.64.3-.88.94-.9,1.15,0,1.55.81,2.1,1.55S95.13,8.58,95.86,9.51Z"/><path class="cls-1" d="M12.24,9.1c.65.27,1.24.56,1.86.77a2.36,2.36,0,0,0,.84,0l.77-.07a1.77,1.77,0,0,1-2.38,1.15c-.13,0-.27-.06-.4-.1-.51-.13-.69.05-.56.56.09.35.17.69.28,1,.17.53.41.68.94.56,1-.23,2-.45,2.92-.73a9.51,9.51,0,0,0,1.17-.56,1.9,1.9,0,0,1,.44-.08c0,.19.06.46,0,.56A4.13,4.13,0,0,1,17,13a19.81,19.81,0,0,1-2.39,1,10.65,10.65,0,0,1-1.54.32,1.47,1.47,0,0,1-1.37-.89c-.2-.63-.35-1.28-.53-1.91-.07-.23-.18-.45-.26-.68a2.21,2.21,0,0,1,0-1.23,14.47,14.47,0,0,0,.22-1.89c.06-.87.08-1.74.11-2.62a1,1,0,0,0-.06-.4A.49.49,0,0,1,11.7,4,7.55,7.55,0,0,0,13,4a8.12,8.12,0,0,1,4.07.34c.19.07.32.28.47.43-.2.1-.42.3-.6.27a11.26,11.26,0,0,0-3.84.47c-.36.06-.58.22-.55.74a12.55,12.55,0,0,1-.26,2.23C12.27,8.69,12.25,8.93,12.24,9.1Z"/><path class="cls-1" d="M208.83,10.58c0,.27.17.65,0,.77a2.59,2.59,0,0,1-1.08.67c-.9.25-1.82.4-2.74.58-.37.07-.74.12-1.12.17-.64.09-.9-.13-1-1.16-.14-1.7-.18-3.41-.27-5.11,0-.34-.07-.68-.05-1A.57.57,0,0,1,203.5,5a1.57,1.57,0,0,0,.63.13c.85,0,1.7-.1,2.55-.09,1,0,2.07.09,3.12.14,0,.32-.12.5-.51.58-.83.17-1.65.38-2.48.51s-1.47.17-2.2.22c-.41,0-.65.09-.52.6a2.49,2.49,0,0,1,0,1c-.07.44,0,.56.48.52s1.1-.09,1.65-.1a3.83,3.83,0,0,1,1.12.12c.19.06.31.32.46.49-.16.14-.31.35-.5.4-.58.15-1.17.24-1.76.33a6.27,6.27,0,0,1-1,.1c-.31,0-.46.11-.43.43a2.21,2.21,0,0,0,.13.8.7.7,0,0,0,.59.23c.68-.08,1.34-.22,2-.36S208.11,10.75,208.83,10.58Z"/><path class="cls-1" d="M158,4.2c.51-.17.91-.33,1.32-.44a.61.61,0,0,1,.79.49,38.73,38.73,0,0,1,.82,4.11,8.33,8.33,0,0,1-.48,4.12c-.45,1.12-2.26,2-3.15,1a3.35,3.35,0,0,1-1-1.73c-.09-.61-.22-1.21-.33-1.81a8.3,8.3,0,0,1,.08-3.41c.14-.56.29-1.12.48-1.66a1.52,1.52,0,0,1,.4-.57C157.35,3.88,157.65,3.9,158,4.2Zm-1.07,4c.12,1.08.22,2.06.36,3a3.06,3.06,0,0,0,.32.86c.43.89,1.25.85,1.86.12a3.35,3.35,0,0,0,.64-2.27c0-1.22-.17-2.44-.31-3.66a6.5,6.5,0,0,0-.37-1.19l-.25,0a6.46,6.46,0,0,0-.79,1.19c-.23.58-.28,1.22-.47,1.82-.07.23-.31.4-.47.6Z"/><path class="cls-1" d="M8.49,12.39a4,4,0,0,0,.79-2.26,16.09,16.09,0,0,0,.1-2.38c0-.76-.2-1.52-.29-2.29s-.17-1.34-.2-2A.57.57,0,0,1,9.19,3c.18-.06.51,0,.59.08a4.34,4.34,0,0,1,.45,1,2.51,2.51,0,0,1,0,1.25,10.3,10.3,0,0,0,.17,1.57,22.46,22.46,0,0,1,0,2.78,15.25,15.25,0,0,1-.49,2.5,4.34,4.34,0,0,1-.62,1.16.85.85,0,0,1-1.14.23,4.26,4.26,0,0,1-2.06-2.2,8.28,8.28,0,0,1-.34-2.24c-.07-.86-.09-1.73-.11-2.59s0-1.52,0-2.28c0-.48.31-.91.64-.91s.72.53.72.93C7,4.88,7,5.46,7,6c0,.75-.08,1.5-.09,2.25A4.9,4.9,0,0,0,7,9.37c.14.68-.1,1.45.46,2C7.78,11.74,8.13,12,8.49,12.39Z"/><path class="cls-1" d="M87.37,5.7c-.14,1.48-.25,2.72-.38,4-.09.89-.15,1.79-.32,2.67a2,2,0,0,1-1.36,1.35c-.88.39-1.15.35-1.62-.52A9.05,9.05,0,0,1,83,11.09a9.07,9.07,0,0,1,.19-3.42c.07-.53.14-1.05.22-1.58a.57.57,0,0,1,.66-.52.6.6,0,0,1,.61.68c0,.41-.06.82-.11,1.22-.13,1.05-.33,2.1-.39,3.15a4.74,4.74,0,0,0,.3,1.49c0,.14.26.34.36.32a.83.83,0,0,0,.56-.34,4.84,4.84,0,0,0,.42-1.35C86,9.87,86,9,86.06,8.08c0-.73.08-1.46.09-2.18A3.24,3.24,0,0,0,86,5.31a2.27,2.27,0,0,1-.09-.84A.71.71,0,0,1,86.35,4a.69.69,0,0,1,.58.3A12,12,0,0,1,87.37,5.7Z"/><path class="cls-1" d="M231.81,10.21c-.19-.1-.39-.2-.58-.31-.79-.47-1.57-1-2.37-1.4s-1.46-1.21-1.29-2a2.43,2.43,0,0,1,1.59-1.71,8.19,8.19,0,0,1,2.06-.36.6.6,0,0,1,.45.29A1.15,1.15,0,0,1,231,6.19a.42.42,0,0,1-.27,0A1.31,1.31,0,0,0,229,6.6c0,.08.07.3.17.37.9.59,1.83,1.13,2.71,1.73a2.27,2.27,0,0,1,1.15,2,.71.71,0,0,1-.42.7,6.85,6.85,0,0,1-1.21.4c-.65.14-1.31.23-2,.36a2.24,2.24,0,0,1-1.94-.75.53.53,0,0,1,0-.49.54.54,0,0,1,.46-.13,6.5,6.5,0,0,0,3.66-.35Z"/><path class="cls-1" d="M198.29,9.91c-.26.85-.46,1.56-.7,2.26-.05.15-.23.26-.35.39-.16-.18-.47-.36-.46-.53a11.21,11.21,0,0,1,.28-1.92c.12-.51.35-1,.5-1.49a.73.73,0,0,0,0-.45c-.35-.88-.76-1.74-1.07-2.64a1.14,1.14,0,0,1,.14-1c.19-.21.61-.1.84.18a1,1,0,0,1,.14.31l.64,2,2.28-2.57c.4-.46.66-.51,1-.22a.86.86,0,0,1-.07,1.2c-.47.47-1,.91-1.4,1.41a7.41,7.41,0,0,0-.89,1.31.85.85,0,0,0,0,.69,13.16,13.16,0,0,0,2,3.22c.13.13,0,.47.06.71-.25,0-.56.07-.75,0a5.59,5.59,0,0,1-1.81-2.34C198.56,10.29,198.47,10.17,198.29,9.91Z"/><path class="cls-1" d="M100.15,6.18a12.56,12.56,0,0,1-1.66,0,1,1,0,0,1-.69-.48,1.42,1.42,0,0,1,.07-.91c0-.1.36-.13.56-.15.73-.05,1.45-.08,2.18-.12.5,0,1-.09,1.5-.09a10.21,10.21,0,0,1,1.45.11,8,8,0,0,1,1,.29v.49l-2.51.43c-.39.06-.52.26-.5.66.09,2.46.15,4.92.22,7.38,0,.29-.06.57-.38.56a1,1,0,0,1-.64-.29c-.12-.12-.12-.38-.13-.59,0-.69-.06-1.39-.11-2.08-.06-.89-.15-1.78-.2-2.68,0-.49.05-1,0-1.47A7.68,7.68,0,0,0,100.15,6.18Z"/><path class="cls-1" d="M52.76,13.09a1.64,1.64,0,0,1-1.68-1.52c0-1.05.12-2.1.09-3.16s-.16-2-.24-3a1.63,1.63,0,0,1,0-.56c.05-.18.21-.44.34-.45s.68,0,.73.18a10.57,10.57,0,0,1,.51,1.94A8.57,8.57,0,0,1,52.54,8c0,.54-.07,1.07-.09,1.61s0,1.08,0,1.62a.34.34,0,0,0,.44.36l1.39-.31c.12,0,.23-.12.34-.1.28,0,.65-.19.81.23s-.22.48-.46.65A4.58,4.58,0,0,1,52.76,13.09Z"/><path class="cls-1" d="M153.41,11.18c0-1.37,0-2.75,0-4.12a8.93,8.93,0,0,0-.27-1.34,9.56,9.56,0,0,1-.21-1.45.66.66,0,0,1,.41-.47c.31-.08.71-.08.81.33a11.44,11.44,0,0,1,.64,4c-.11,1.08-.16,2.17-.21,3.25a6.22,6.22,0,0,0,.1,1,.52.52,0,0,1-.53.62.89.89,0,0,1-.7-.44,6.9,6.9,0,0,1-.18-1.42Z"/><path class="cls-1" d="M120.47,4.5c.79,0,.76.59.86,1a13,13,0,0,1,.33,2.15c0,.47,0,.95,0,1.42.06.72.18,1.43.23,2.15.07.93.1,1.87.11,2.81,0,.09-.25.25-.38.25s-.43-.12-.47-.24a8,8,0,0,1-.25-1.25c-.14-.95-.28-1.9-.4-2.84-.08-.63-.14-1.26-.2-1.89s0-1.11-.11-1.65S120,5.5,120,5.07A.52.52,0,0,1,120.47,4.5Z"/><path class="cls-1" d="M114.49,4c.8,0,1,.21,1,.9,0,.49.22,1,.31,1.45.15.84.24,1.69.42,2.52.12.58.38,1.12.52,1.7s.64,1.14.4,1.81a1.22,1.22,0,0,1-.51.61c-.28.16-.37-.15-.44-.35-.23-.62-.47-1.23-.67-1.86-.29-.92-.6-1.85-.81-2.79-.25-1.12-.41-2.27-.59-3.41C114.08,4.2,114.25,4,114.49,4Z"/><path class="cls-1" d="M89.46,6.9c.16,1.42.32,2.83.46,4.25.06.63.09,1.27.11,1.91a.89.89,0,0,1-.78.85.59.59,0,0,1-.45-.33,6.11,6.11,0,0,1,0-1c0-.46-.05-.93-.1-1.39-.16-1.43-.34-2.85-.51-4.28,0-.36-.07-.72-.11-1.08s.13-.69.51-.69a.75.75,0,0,1,.84.6c.07.38.09.76.13,1.15Z"/><path class="cls-1" d="M144.74,9.79a5.61,5.61,0,0,1-4.09.7c-.09,0-.19.06-.29.08a.86.86,0,0,1-1.09-.75c0-.27.52-.74.93-.7,1,.09,2,.24,3,.37l1,.15C144.33,9.67,144.54,9.74,144.74,9.79Z"/><path class="cls-1" d="M88.78.77c0,.3-.41.76-.67.67a1.4,1.4,0,0,1-.75-.52C87.21.66,87.71,0,88,0A.84.84,0,0,1,88.78.77Z"/></g></g></svg>