<svg xmlns="http://www.w3.org/2000/svg" viewBox="0 0 237.4 34.66"><defs><style>.cls-1{fill:#fff;}</style></defs><title>Asset 10</title><g id="Layer_2" data-name="Layer 2"><g id="coord"><path class="cls-1" d="M102.3,3c1.29.39,1.23,1.33,1.31,2.18A15.42,15.42,0,0,1,103.72,7c0,.85-.15,1.7-.18,2.56,0,1.24-.08,2.47,0,3.71a10.33,10.33,0,0,0,.34,1.66c.12.58.55.53,1,.51a2,2,0,0,1,.81.09,2.2,2.2,0,0,1-1.78,1,1.21,1.21,0,0,1-1.27-1c-.14-.53-.27-1.06-.42-1.59a2.45,2.45,0,0,0-.19-.38,1.77,1.77,0,0,0-.28.21,7.88,7.88,0,0,1-2.79,1.7c-.05,0-.13.07-.16.05-.65-.35-1.29-.06-1.94,0C95.44,15.71,95,15,94.56,14c-.11-.24-.2-.5-.31-.77-.73.57-1.4,1.14-2.11,1.62a3.52,3.52,0,0,1-1.19.44c-.46.1-.8-.22-1.07-1a2.06,2.06,0,0,0-.43.28,3.74,3.74,0,0,1-2.58,1.1c-.5,0-1.56-.83-1.85-1.42A16.64,16.64,0,0,1,83.8,9.63c-.07-.42-.44-.9-.32-1.21A5.93,5.93,0,0,0,83.67,6a22.52,22.52,0,0,0-.26-3.54A14.75,14.75,0,0,1,83.06.75c0-.45.16-.7.49-.7a1.09,1.09,0,0,1,.86.4A4.55,4.55,0,0,1,84.81,2c.11,1.31.13,2.63.2,3.94,0,.45.1.91.16,1.46A5.4,5.4,0,0,1,88.24,7a3.1,3.1,0,0,1,1,.16c.2.07.34.32.6.58l-3.5,1c-.06,0-.11.07-.16.08-1.39.14-1.12.39-1,1.49a10.07,10.07,0,0,0,1,3.26,1.42,1.42,0,0,0,2,.69c.35-.17.73-.3,1.06-.49s.68-.37.77-.89A3,3,0,0,1,91.33,11a7.86,7.86,0,0,1,3-1.72,1.1,1.1,0,0,1,1.39,1.25,5.45,5.45,0,0,0,.47,3.29,1.59,1.59,0,0,0,.79.64c.51.21.81,0,.73-.55-.14-.87.52-1.39.83-2a5.81,5.81,0,0,1,2.27-2.41,2.1,2.1,0,0,1,.71-.27c.43-.08.63-.21.47-.72-.09-.27.09-.62.08-.93,0-1.1-.11-2.2-.09-3.3A4.91,4.91,0,0,1,102.3,3Zm-.46,8-.15-.15c-.48.41-1,.79-1.45,1.23a12,12,0,0,0-1.12,1.33c-.08.1,0,.3,0,.51A5.45,5.45,0,0,0,101.83,11ZM91.26,13.64a3.94,3.94,0,0,0,2.49-2.43A5.41,5.41,0,0,0,91.26,13.64Z"/><path class="cls-1" d="M154,11.8a7.49,7.49,0,0,0,1.2-.6,6,6,0,0,0,2.29-2.84,7.44,7.44,0,0,0,.58-1.95,2.54,2.54,0,0,0-1.36-2.33,1.61,1.61,0,0,0-1.15,0c-1.09.32-2.17.67-3.23,1.08a5.92,5.92,0,0,0-2.14,1.74,11.9,11.9,0,0,0-2.1,4.18A2.37,2.37,0,0,0,149,14a6.21,6.21,0,0,0,4.5,1.44,12.67,12.67,0,0,0,2.6-.51c1.2-.36,2.37-.82,3.53-1.28.45-.18.85-.48,1.29-.69a1.37,1.37,0,0,1,.47,0c0,.17,0,.42-.13.5-.66.46-1.33.9-2,1.31A15.12,15.12,0,0,1,156.74,16a21.34,21.34,0,0,1-2.93.64,6.67,6.67,0,0,1-3.35-.24,6.43,6.43,0,0,1-3.51-2.49,1.23,1.23,0,0,1-.23-.53,9.5,9.5,0,0,1,.87-4.86,11.93,11.93,0,0,1,2.2-3.46,6.54,6.54,0,0,1,3-1.58c.84-.27,1.67-.56,2.47-.91a2,2,0,0,1,1.63,0,3.55,3.55,0,0,1,2.05,1.79,4.45,4.45,0,0,1,.29,2,11.78,11.78,0,0,1-.46,2.36,11.08,11.08,0,0,1-.59,1.43,5.89,5.89,0,0,1-1.81,2,6.76,6.76,0,0,1-1.22.68,2,2,0,0,0-.35.2,1.44,1.44,0,0,1-2.2-.62c0-.13-.1-.25-.18-.46l-.69.41c-.52.31-1,.67-1.56.93-1,.49-1.67,0-1.77-1.14A2.87,2.87,0,0,1,150,9.46a18.5,18.5,0,0,1,3.62-1.67,2.67,2.67,0,0,1,1.58.33c.33.13.16,1-.23,1.34A2.34,2.34,0,0,0,154,11.8Zm-3.87,0L152,10.25A2.44,2.44,0,0,0,150.13,11.78Z"/><path class="cls-1" d="M124.42,13.4a4.55,4.55,0,0,1-3.23,1.5c-.53,0-1.23,0-1.52-.69-.06-.15-.32-.22-.48-.34a9.83,9.83,0,0,1-1.27-1c-.21-.22-.34-.29-.5-.06a4.07,4.07,0,0,1-2.31,1.39,21.53,21.53,0,0,1-3.34.81c-.35.05-.83-.32-1.14-.62a5.43,5.43,0,0,1-.72-1.11,6.52,6.52,0,0,1-1.37,1,12.29,12.29,0,0,1-2.27.53c-.1,0-.26-.16-.36-.28a2.82,2.82,0,0,1,0-2.76,6.43,6.43,0,0,1,3.73-2.55c.26-.07.46-.37.72-.42a2.36,2.36,0,0,1,1.16,0c.14,0,.2.54.19.82,0,.67-.17,1.33-.21,2a4.17,4.17,0,0,0,.12,1.12,1.42,1.42,0,0,0,1.67.94.42.42,0,0,0,.24-.28,5.85,5.85,0,0,1,1.7-3.26,4.78,4.78,0,0,1,2.7-1.79c.48-.11,1-.2,1.38.27.18.25.33.79.19,1-.5.59-.27,1.22-.24,1.83a3,3,0,0,0,.34.88,7.4,7.4,0,0,0,.57-.75,8.6,8.6,0,0,1,3.58-3.49,1.62,1.62,0,0,1,2.5,1.89,9.28,9.28,0,0,0-.29,2.3c0,1,.43,1,1.42.88a1.42,1.42,0,0,1,.61,0c.41.15.35.47,0,.61a9.39,9.39,0,0,1-2,.69C125.24,14.64,124.76,14.12,124.42,13.4Zm-3.38.09a2.45,2.45,0,0,0,2.37-1.18c.55-.7,1.35-1.3,1-2.45a4.39,4.39,0,0,0-3.08,3.07A3.46,3.46,0,0,1,121,13.49Zm-11-2.33c-1.4-.06-3,1.22-3,2.29A6.86,6.86,0,0,0,110.05,11.16Zm7.18-.46-1.81,1.56A2.46,2.46,0,0,0,117.23,10.71Z"/><path class="cls-1" d="M177.45,11.51a24,24,0,0,0-1.75,1.93A8,8,0,0,0,175,15a.81.81,0,0,1-1,.57c-.45-.11-.42-.49-.39-.83.11-1.12.25-2.24.34-3.37a8.18,8.18,0,0,0-.1-1.3c0-.43-.07-.87-.12-1.3a.62.62,0,0,1,.64-.75.92.92,0,0,1,.66.59c.17.87.22,1.76.32,2.6.57-.36,1.16-.76,1.77-1.12a.91.91,0,0,1,1.4.32l.74,1.07a3,3,0,0,1,.51-.78,5.73,5.73,0,0,1,1.43-.87.88.88,0,0,1,1.1.59,9,9,0,0,1,.37,1.09c.11.37.21.75.32,1.12.52-.45,1-1,1.61-1.39a11,11,0,0,1,4.22-1.68c1-.23,1.59.38,1.6,1.47,0,1.31.15,2.63.22,3.94,0,.49.42.43.67.35.77-.23,1.51-.54,2.27-.8a2.16,2.16,0,0,1,.63,0c0,.2,0,.47-.15.58a8.33,8.33,0,0,1-3,1.77,1.35,1.35,0,0,1-1.77-1c-.22-.79-.32-1.61-.48-2.42a2.11,2.11,0,0,0-.12-.28c-1.57,1.46-3.66,1.65-5.52,2.44a5.79,5.79,0,0,0,0,.89.86.86,0,0,1-.58,1c-.4.07-.77-.28-.78-.8,0-.75,0-1.5,0-2.24a15.11,15.11,0,0,0-.29-1.8c-.06-.31-.16-.61-.28-1a5.15,5.15,0,0,0-.65.39,4.65,4.65,0,0,0-1,.92,2.62,2.62,0,0,0-.29,1.11c-.11.83-.12,1.68-.29,2.5,0,.19-.49.39-.77.41s-.49-.32-.49-.5a12.5,12.5,0,0,1,.12-2.34A4,4,0,0,0,177.45,11.51Zm11.23-.21a7.45,7.45,0,0,0-4.52,2.29C185.87,13.22,187.54,12.79,188.69,11.3Z"/><path class="cls-1" d="M169.78,9.06c.32-.73.57-.85,1.17-.6s.46.7.42,1.09c-.18,1.61-.4,3.21-.64,4.81-.21,1.41-.49,2.8-.7,4.21-.13.9-.14,1.82-.27,2.73-.25,1.73-.52,3.46-.81,5.19a16.77,16.77,0,0,1-.52,2.46,49.1,49.1,0,0,1-1.71,4.63A1.77,1.77,0,0,1,165,34.66a1.82,1.82,0,0,1-1.56-1.14,2.07,2.07,0,0,1,.15-.78c.18.12.41.21.52.38.27.42,1,.41,1.57-.31a9.22,9.22,0,0,0,1.8-4.21c.31-1.52.61-3.05.83-4.59.19-1.33.25-2.69.38-4,.19-2,.4-4,.6-6,0-.27,0-.54,0-1-.55.4-1,.77-1.5,1.08a21.16,21.16,0,0,1-2.43,1.43,1.38,1.38,0,0,1-1.52-.19,1.5,1.5,0,0,1-.52-1.35c.13-2,1.43-3,3-3.87A6.37,6.37,0,0,1,169.78,9.06Zm-.31,1.76-.15-.26a12.75,12.75,0,0,0-1.5.56c-1.18.61-2.4,1.18-3,2.53,0,.11-.07.23-.11.35.14,0,.3.06.41,0A13.78,13.78,0,0,0,167,12.92C167.89,12.27,168.67,11.53,169.48,10.82Z"/><path class="cls-1" d="M18.7,10.75c.69.08.92-.26,1-.81a4,4,0,0,1,.4-1.1,1.46,1.46,0,0,1,1.73-.46c1.21.42,2.21,2.68,1.51,3.87-.27.46-.52.49-1,.29A6.12,6.12,0,0,0,21,12.09c-.44-.08-.58.26-.51.62a3,3,0,0,0,1.24,2.07c1.55,1,2.58.67,3.47-.75.28-.44.12-1.16.14-1.75,0-.36,0-.73,0-1.09,0-1.32.09-2.65.11-4a3.88,3.88,0,0,0-.13-.63,15.67,15.67,0,0,1-.24-1.78A.88.88,0,0,1,26,4c.47.07.55.43.61.83.12.88.31,1.75.39,2.63.06.71,0,1.42,0,2.16a17.32,17.32,0,0,1,1.77.32c.26.07.46.35.69.53-.22.21-.4.53-.67.62-.57.2-1.18.26-1.77.42a.48.48,0,0,0-.29.36c.1,1.21.21,2.42.37,3.62,0,.38,1,.67,1.41.4a16.33,16.33,0,0,0,1.44-1.18c.38-.33.69-.83,1.49-.51l-1.26,1.53c-.06.08-.16.13-.19.22-.32.85-1.12,1.07-1.85,1.33a1.46,1.46,0,0,1-1.67-.62c-.32-.45-.64-.92-1-1.42a3.18,3.18,0,0,1-2.17,1.27,3.22,3.22,0,0,1-2.56-.67,3.48,3.48,0,0,1-1.54-2.88,1.94,1.94,0,0,0-.41-1.38C18.66,11.39,18.73,11.05,18.7,10.75Zm3.56.15.12-.15a4.52,4.52,0,0,0-.69-.79c-.1-.07-.41.1-.59.21s0,.36.07.39C21.51,10.7,21.89,10.79,22.25,10.9Z"/><path class="cls-1" d="M213,10.18a3.38,3.38,0,0,0-.79,1.91c-.52,1.89.5,2.38,1.94,2.49a12.33,12.33,0,0,0,2.65-.26,1,1,0,0,0,.84-.94,7.51,7.51,0,0,1,.89-3.41c.15-.38.27-.77.44-1.14.34-.73,1.24-.76,1.72-1.33a2.15,2.15,0,0,1,.54-.36.76.76,0,0,1,1.21.37,11.45,11.45,0,0,1,.76,4.67,3.11,3.11,0,0,1-2,2.85c-.07,0-.2.06-.2.11-.14,1-.91.74-1.44.65a2.47,2.47,0,0,1-1.33-.75c-.31-.35-.4-.26-.74-.08a10.64,10.64,0,0,1-2.35.91,4.18,4.18,0,0,1-3.45-.5,2.41,2.41,0,0,1-1-1.79,6.38,6.38,0,0,1,.4-3.22,5.18,5.18,0,0,1,1.76-2.74s.07-.11.12-.12a2.43,2.43,0,0,1,1.08-.13c.2.07.35.57.33.86a7.31,7.31,0,0,1-.31,1.6C213.87,10.59,213.62,10.65,213,10.18Zm8.73-1.25a2.58,2.58,0,0,0-1.91,1.94,12.63,12.63,0,0,0-.2,2.66.46.46,0,0,0,.31.33,2.24,2.24,0,0,0,2.12-1.79A25.43,25.43,0,0,0,221.76,8.93Z"/><path class="cls-1" d="M237.4,16.85a1,1,0,0,1-1.83-.1,9.78,9.78,0,0,1-.79-2.31c-.11-.84-.28-1.66-.43-2.49A5.68,5.68,0,0,0,234,11c-.3.16-.61.29-.89.47s-.29.31-.46.43a3.39,3.39,0,0,0-1.19,2.9c0,.22,0,.44,0,.66,0,.65-.19.79-.87.84s-.68-.39-.69-.8A9.45,9.45,0,0,1,230,14c.14-1,.3-2,.48-3.19l-.92.43c-.12.06-.23.16-.35.22-1,.51-1.7,1.1-1.42,2.38a2.4,2.4,0,0,1-.13,1.23,1,1,0,0,1-.62.56c-.14,0-.52-.33-.53-.54a13.3,13.3,0,0,1-.06-4.12,15.16,15.16,0,0,0,.15-2.58c0-.46.25-.74.7-.67s.65.22.57.76a9.91,9.91,0,0,0,.09,1.88l1.29-.77A5.43,5.43,0,0,1,230.44,9c.84-.24,1.33.22,1.42,1.32.6-.35,1.2-.67,1.76-1s1.51,0,1.84.83c.62,1.49.42,3.11.83,4.63C236.51,15.47,236.51,16.37,237.4,16.85Z"/><path class="cls-1" d="M0,33.69a2.4,2.4,0,0,0,2.36-1.42,12.1,12.1,0,0,0,1-1.43,14.64,14.64,0,0,0,1.18-3.41A17,17,0,0,0,4.42,24c0-.28,0-.56,0-.84,0-1,0-2.06,0-3.09,0-1.71,0-3.42-.14-5.12-.09-1.17-.39-2.33-.58-3.49a15.93,15.93,0,0,1-.23-1.79.73.73,0,0,1,.68-.88c.62-.08.8.36.86.77q.42,2.61.74,5.23c.13,1.09.21,2.2.24,3.3,0,.85-.09,1.69-.1,2.54,0,.51.1,1,.11,1.53,0,1.17-.05,2.34,0,3.51a10.26,10.26,0,0,1-.14,3A7.41,7.41,0,0,1,4.6,31.58a22.19,22.19,0,0,1-1.49,1.83,1.89,1.89,0,0,1-2,.77c-.09,0-.22.08-.34.09C.41,34.31.09,34.24,0,33.69Z"/><path class="cls-1" d="M134.51,10.57a3.42,3.42,0,0,0-.79.21A12.31,12.31,0,0,0,131.85,12c-.23.19-.24.69-.27,1a5.49,5.49,0,0,0,.15.75c0,.41.07.85-.41,1.06-.66.29-.85.18-1-.53a6.86,6.86,0,0,1,0-3.47,4.76,4.76,0,0,0,0-1.06c0-.33,0-.66,0-1a.65.65,0,0,1,.75-.65c.3.08.55.49.72.81a3.71,3.71,0,0,1,.17,1,6.05,6.05,0,0,0,.7-.41,3.38,3.38,0,0,1,2.61-.65.36.36,0,0,1,.21.1c.51.56,1,.28,1.5,0a5.29,5.29,0,0,1,1.15-.42c.29-.08,1.08.6,1.15,1a15.36,15.36,0,0,1,.35,2.17c0,.74-.17,1.49-.21,2.24,0,.5.09,1,0,1.5a1.12,1.12,0,0,1-.36.8c-.34.2-1-.25-1-.66,0-.77,0-1.53,0-2.3s.09-1.41.11-2.11a.59.59,0,0,0-.88-.56,6.62,6.62,0,0,0-.7.43,1.42,1.42,0,0,0-.5,1.52,4.22,4.22,0,0,1-.07,1c-.06.5-.47.46-.77.39a.89.89,0,0,1-.54-.47,3,3,0,0,1-.14-1C134.5,11.91,134.51,11.29,134.51,10.57Z"/><path class="cls-1" d="M56.5,15.48c-.09-.05-.29-.17-.48-.3-.35-.24-.66-.42-1.1-.09s-1.06.63-1.57,1a1.28,1.28,0,0,1-2-1.05c-.2-1.63-.37-3.27-.48-4.9-.1-1.44-.08-2.89-.14-4.33a6.2,6.2,0,0,0-.22-1c-.16-.73.26-1.4.85-1.37a1.78,1.78,0,0,1,.92,1c0,.38,0,.77,0,1.15-.06.93-.19,1.86-.21,2.79s.05,1.75.11,2.63.16,1.58.23,2.37c.17,1.86.21,1.87,1.76,1.12.87-.42.87-.6.8-1.58s.05-1.87.08-2.81c0-.15-.08-.3-.08-.45a3.26,3.26,0,0,1,0-1c0-.11.43-.2.63-.15s.42.3.58.62c.57,1.11,0,2.21.18,3.29,0,.21.17.39.22.6a1.17,1.17,0,0,1,0,.48c-.08.48.19.79.64.63a11.64,11.64,0,0,0,1-.58c.13-.06.42-.08.45,0a.65.65,0,0,1,0,.53A2.78,2.78,0,0,1,56.5,15.48Z"/><path class="cls-1" d="M46.24,15c-1,.54-1.86,1.1-2.8,1.58a2.56,2.56,0,0,1-2.33-.29.73.73,0,0,1-.27-.44c-.55-1.87-.55-2.11,1.39-3.46,1.1-.77,2.24-1.5,3.39-2.2a1.82,1.82,0,0,1,1.65-.4c.8.29,1,.72.74,1.55a15.36,15.36,0,0,0-.44,2.85c0,.73.38,1,1.23,1.2a1.75,1.75,0,0,1,.47.25c-.15.13-.29.35-.45.37a4.65,4.65,0,0,1-1.71,0c-.34-.09-.55-.62-.82-1C46.24,15,46.22,14.92,46.24,15Zm0-3-.12-.15a4.73,4.73,0,0,0-.52.23L44,13a12.21,12.21,0,0,0-1.6,1A1.13,1.13,0,0,0,42,15c.15.47.66.46,1.08.32A4.9,4.9,0,0,0,46.28,12Z"/><path class="cls-1" d="M204.89,12.63c-.16.33-.19.55-.33.66-1.32,1.14-2.61,2.31-4.53,2.29a1.43,1.43,0,0,1-1.43-1,9.85,9.85,0,0,1-.57-2.39,27.23,27.23,0,0,1,.46-6.49c.1-.76.16-1.53.25-2.3.06-.52.17-1,.24-1.57s.09-.87.12-1.31,0-.57.41-.58.87,0,.9.53a11.27,11.27,0,0,1-.06,1.91c-.15,1.47-.34,2.94-.52,4.4a4,4,0,0,1-.15.93,7.32,7.32,0,0,0-.31,3.24,15.54,15.54,0,0,0,.49,2.65c.06.22.47.55.66.51a9.52,9.52,0,0,0,3.72-1.37A2.47,2.47,0,0,1,204.89,12.63Z"/><path class="cls-1" d="M68,11.84a8.21,8.21,0,0,1,.27-2A4.08,4.08,0,0,1,69.33,8.7a1.66,1.66,0,0,1,.47-.25.66.66,0,0,1,.94.22A7.63,7.63,0,0,1,72.28,12,.88.88,0,0,1,71.57,13c-.48.08-1,.14-1.45.25-.22,0-.67-.05-.53.38a1.1,1.1,0,0,0,.65.55,1.45,1.45,0,0,0,.89,0c.94-.32,2.06-.15,2.82-1,0-.05.37.05.47.17a.55.55,0,0,1,.11.49,1.3,1.3,0,0,1-.5.51,7.94,7.94,0,0,1-3.86,1.3,1.88,1.88,0,0,1-2-1.51,1.1,1.1,0,0,0-1.1-.93c-.54-.05-.56-.56-.59-1s.31-.5.67-.48S67.63,11.84,68,11.84Zm1.39,0a8.68,8.68,0,0,0,1.06-.12.63.63,0,0,0,.41-.31c.07-.21-.66-1-1-1.1Z"/><path class="cls-1" d="M60.93,10.71c.62-.36,1.19-.72,1.79-1A4.34,4.34,0,0,1,64,9.2c.66-.11,1,.18,1.11,1.07.17,1.07.27,2.16.38,3.24.06.59.07,1.19.13,1.78a.69.69,0,0,0,.19.41c.31.29.45.58.05.89s-1,.27-1.19-.16a8.66,8.66,0,0,1-.38-1.65c-.22-1.26-.41-2.52-.61-3.77a4.21,4.21,0,0,0-2.37,1.63A4,4,0,0,0,61,14.36c0,.46,0,.93,0,1.39,0,.11-.3.31-.34.28-.26-.16-.65-.35-.69-.59a20.1,20.1,0,0,1-.27-2.54c-.06-1.1-.13-2.21-.1-3.32,0-.36.16-.81.76-.8s.53.4.54.78S60.91,10.26,60.93,10.71Z"/><path class="cls-1" d="M6.82,11.84l-.38,1.49c-.51,0-.63-.2-.65-.67A4.73,4.73,0,0,1,8.48,8.11a3.32,3.32,0,0,1,1.29-.35c.49,0,.92.49,1,1.07.16,1.27.4,2.54.45,3.82,0,.86.29,1.81-.44,2.58a2.66,2.66,0,0,1-1.92,1.05c-.71,0-1.08-.62-1.24-1.26-.27-1-.46-2.1-.69-3.15Zm2,3.19c1.49-.64,1.26-1,1.2-2.17,0-.78,0-1.57-.06-2.35,0-.41-.16-1-.44-1.13s-.84.06-1.2.26A.92.92,0,0,0,8,10.72c.14.67.2,1.36.33,2S8.68,14.23,8.87,15Z"/><path class="cls-1" d="M193.72,11.09c-.05-.39-.1-.78-.16-1.17a1.06,1.06,0,0,1,.85-1.1c.39,0,.67.33.71.86a22,22,0,0,0,.29,3c.1.48.25,1.13,1,1.32.22.06.56.39.53.52a1.42,1.42,0,0,1-.53.75c-.31.23-1.63-.36-1.83-.75A6.64,6.64,0,0,1,193.72,11.09Z"/><path class="cls-1" d="M206.88,13.09c-.06.28,0,.65-.19.83s-.73.48-.82.4a3.14,3.14,0,0,1-.65-1c-.06-.14.07-.37,0-.52a.63.63,0,0,1,.45-.91.81.81,0,0,1,1.14.63,3.81,3.81,0,0,1,0,.6Z"/><path class="cls-1" d="M4.44,4.37,4,5.49c-.68.22-1,0-1.2-.94-.05-.25-.34-.65.09-.84a.92.92,0,0,1,1.15.16C4.22,4.06,4.37,4.27,4.44,4.37Z"/><path class="cls-1" d="M80.42,14a1,1,0,0,1-.75,1,.94.94,0,0,1-.81-.8c0-.62.32-1.25.73-1.25S80.41,13.46,80.42,14Z"/><path class="cls-1" d="M13.66,13.65a1.19,1.19,0,0,1,.95.87,1,1,0,0,1-.82.93.92.92,0,0,1-.85-.8C12.93,13.88,13.09,13.65,13.66,13.65Z"/><path class="cls-1" d="M33.95,15.4c0-.88.26-1.27.71-1.27a1.11,1.11,0,0,1,.86.9c0,.38-.58,1-1,.88S34.06,15.51,33.95,15.4Z"/><path class="cls-1" d="M195.67,4c.56,0,.72.34.77.76s-.41,1-.79.93c-.59-.06-.49-.55-.53-.94S195.2,4,195.67,4Z"/><path class="cls-1" d="M57,5.57c.52.08.78.2.82.65,0,.23.14.45.17.68a.37.37,0,0,1-.14.32c-.45.19-1.47-.6-1.34-1.06C56.61,5.94,56.87,5.77,57,5.57Z"/></g></g></svg>