<svg xmlns="http://www.w3.org/2000/svg" viewBox="0 0 263.19 35.07"><defs><style>.cls-1{fill:#fff;}</style></defs><title>Asset 8</title><g id="Layer_2" data-name="Layer 2"><g id="coord"><path class="cls-1" d="M153.06,0a15.11,15.11,0,0,0,1.09,1.12c.46.39.26.85.26,1.31a13.46,13.46,0,0,0,0,1.81q.3,2.33.71,4.65c.3,1.73.66,3.44,1,5.17.15.87.23,1.75.37,2.61.19,1.12.39,2.24.62,3.36s.45,2.07.73,3.09.59,1.82.86,2.73.55,1.87.77,2.82c.15.63.23,1.28.31,1.93,0,.29.05.65-.31.71a1.42,1.42,0,0,1-.7-.19c-.28-.11-.53-.3-.81-.4-.81-.28-.72-1.06-.95-1.66a3.05,3.05,0,0,1-.12-.85c0-.49-.24-.69-.75-.63a25.27,25.27,0,0,0-2.72.35,18.39,18.39,0,0,1-4.17.3c-1,0-1,0-1.19.92s-.33,1.72-.48,2.58c-.06.34-.17.55-.59.54-1,0-1.14-.2-1-1.19.29-1.52.58-3,.8-4.58.28-1.91.47-3.83.74-5.74.11-.8.36-1.58.51-2.37.29-1.51.54-3,.83-4.52s.59-3,.88-4.46c.17-.88.3-1.76.47-2.64,0-.18.2-.33.27-.5s.18-.65.28-1c.28-.88.58-1.74.84-2.62.2-.69.34-1.4.54-2.09a2.71,2.71,0,0,1,.34-.59Zm.23,7.36L153,8.53c-.28,1.08-.57,2.17-.85,3.25a3.14,3.14,0,0,1-.18.83,5.17,5.17,0,0,0-.76,2.11c-.07.62-.2,1.23-.31,1.84a.9.9,0,0,1-.14.38,10.51,10.51,0,0,0-1,2.71,2.59,2.59,0,0,0-.2.93,8.66,8.66,0,0,1-.42,2.44,4,4,0,0,0-.12.44c-.16.9-.28,1.8-.47,2.69-.09.4,0,.55.4.53.19,0,.38,0,.57,0l4.31-.41L156.4,26C154.93,19.89,154.4,13.63,153.28,7.36Z"/><path class="cls-1" d="M84.08,0c.68.66,1.36,1.31,2,2a5.92,5.92,0,0,1,.57.82c0,.06.06.12.1.18.5.67,1,1.34,1.51,2,.29.38.3.76,0,1a.81.81,0,0,1-1.09-.18c-.63-.82-1.24-1.65-1.9-2.45-.39-.47-.85-.87-1.27-1.28-1.14,1.18-1.41,2.77-2.09,4.16a7.92,7.92,0,0,0-.43,1.7c-.27,1.16-.53,2.31-.79,3.47s-.57,2.45-.86,3.68-.6,2.37-.89,3.57c0,.18.06.39.05.59-.06,1.37-.15,2.74-.18,4.12,0,.86,0,1.72.09,2.57s.23,1.86.29,2.8a6.62,6.62,0,0,0,.84,2.51,1.52,1.52,0,0,0,1.38.81,6,6,0,0,0,1.92-.17,4.41,4.41,0,0,0,1.44-.9,8,8,0,0,0,1.76-2.9,10.39,10.39,0,0,0,1-3.15c.05-.38.13-1-.05-1.11a2.21,2.21,0,0,0-1.23-.08c-.74.06-1.48.21-2.22.23a1,1,0,0,1-.76-.4.76.76,0,0,1,.08-1c.11-.1.3-.23.41-.19A5.17,5.17,0,0,0,86,22.14,11.09,11.09,0,0,1,87.15,22c.46,0,.93,0,1.28-.36,0,0,.09,0,.14,0a1.47,1.47,0,0,1,1.56,1.06c0,.2-.16.61-.27.62-.79.08-.69.73-.69,1.15a10.84,10.84,0,0,1-.54,3.07,4.05,4.05,0,0,1-.33.94A8.14,8.14,0,0,0,87.38,31a.3.3,0,0,1-.06.13c-1.21,1.37-2.44,2.72-4.52,2.58a1.48,1.48,0,0,0-.55.1c-.84.28-1.53-.17-2.29-.38s-1-.81-1.36-1.35a24.14,24.14,0,0,1-1.46-2.67,8.31,8.31,0,0,1-.52-1.94c-.15-.81-.23-1.64-.3-2.46,0-.3.1-.61.08-.91,0-.59-.11-1.18-.2-1.76a9,9,0,0,1,0-3.14c.14-.73.42-1.44.59-2.17a9.14,9.14,0,0,0,.33-1.83A11.23,11.23,0,0,1,78,11.74c.25-.69.36-1.43.56-2.14.3-1.1.62-2.2.93-3.29.27-.94.51-1.88.84-2.8a13.73,13.73,0,0,1,1-2.08A5,5,0,0,1,82.29.32,2.37,2.37,0,0,1,83,0Z"/><path class="cls-1" d="M0,4.45C.1,4.29.28,4.13.3,4a.76.76,0,0,1,.8-.76C1.73,3.15,2.39,3.36,3,3c.14-.08.4.11.61.12.82,0,1.63.05,2.45.07a38.63,38.63,0,0,0,5.6-.2,1.32,1.32,0,0,1,.6.1c.68.25,1.35-.07,2,0A.41.41,0,0,0,14.58,3,.94.94,0,0,1,15.91,3a1.38,1.38,0,0,1,.42,1.4,28.69,28.69,0,0,0-.75,3.54c-.12,1.58-.71,3-.92,4.61-.19,1.41-.65,2.78-1,4.17a7.51,7.51,0,0,0-.23,1.56,8.92,8.92,0,0,1-.52,2.14c-.33,1.27-.59,2.56-.84,3.84a20.63,20.63,0,0,0-.49,3.2,14.89,14.89,0,0,1-.91,3.48c-.17.63-.36,1.25-.58,1.86a17.8,17.8,0,0,1-.72,1.67,1,1,0,0,1-1,.62c-.78-.11-1.57-.19-2.35-.33a1,1,0,0,1-.57-.41,13.82,13.82,0,0,1-1.08-1.83c-.37-.82-.64-1.69-1-2.53a2.53,2.53,0,0,0-.4-.64,1.42,1.42,0,0,1,.12-2.17c1.16.24,1.34.95,1.63,2a11,11,0,0,0,1.59,3.4,1.16,1.16,0,0,0,2-.34,11.72,11.72,0,0,0,1.06-3.41c.06-.5.11-1,.17-1.52.17-1.29.32-2.59.53-3.87s.49-2.44.71-3.67.32-2.27.53-3.4.5-2.19.71-3.3.34-2.16.52-3.24.38-2,.54-3c.09-.58.14-1.16.22-1.87-.85.1-1.61.22-2.37.27-.49,0-1-.08-1.48-.07-.75,0-1.5.07-2.25.12a15.83,15.83,0,0,1-3.65.2,9.28,9.28,0,0,0-1.74.17A4.55,4.55,0,0,1,.57,5.46c-.21,0-.38-.26-.57-.4Z"/><path class="cls-1" d="M263.19,15.2a4.16,4.16,0,0,1-2.27.71c-.75,0-1.5,0-2.33,0,.15,1.29.31,2.62.46,3.94.09.8.08,1.62.23,2.4.4,2.1.41,4.27,1.28,6.27.22.51.35,1.05.54,1.57a.47.47,0,0,1-.35.66c-.11,0-.31-.21-.45-.34s-.14-.25-.25-.31a2.45,2.45,0,0,1-1-1.64c-.17-.65-.34-1.3-.45-2-.22-1.3-.41-2.6-.6-3.9-.08-.55-.16-1.1-.22-1.65s-.14-1.28-.19-1.93c-.08-.93-.14-1.87-.22-2.8a.45.45,0,0,0-.16-.29,2,2,0,0,0-1.83-.17,9.49,9.49,0,0,1-2,.34.61.61,0,0,1-.56-1,.5.5,0,0,1,.29-.23c.91-.19,1.81-.4,2.72-.52a8.57,8.57,0,0,1,2.09-.07,21.76,21.76,0,0,0,4.44.49,3.83,3.83,0,0,1,.8.1Z"/><path class="cls-1" d="M201.87,3.82a2.15,2.15,0,0,0-.45-.09,30.76,30.76,0,0,0-4.41.19,20.29,20.29,0,0,1-2.36.11c-.69,0-.86-.21-.85-.89,0-.35.14-.51.51-.56a1.8,1.8,0,0,0,.81-.33,1,1,0,0,1,.93-.17,10.24,10.24,0,0,0,2.15.23c1.06,0,2.12-.05,3.18-.12a28.29,28.29,0,0,0,4.12-.35A22.06,22.06,0,0,1,208,1.76c.44,0,.88-.07,1.32-.1a3.84,3.84,0,0,1,1.85.06,7.57,7.57,0,0,0,2,.16,3,3,0,0,1,.59.16,3.67,3.67,0,0,0-.17.77c0,.48-.13.82-.85.81a10.78,10.78,0,0,1-2.13-.22,9,9,0,0,0-2.55,0c-1.13.07-2.27.07-3.4.1h-.47c0,.91-.07,1.81-.13,2.71A6.4,6.4,0,0,1,204,7a2,2,0,0,0-.06.3c0,1.08-.08,2.17-.1,3.25,0,.93.07,1.87,0,2.79a18.82,18.82,0,0,0,.22,3.53c.08.92.09,1.85.11,2.78,0,1.38,0,2.75.12,4.13,0,.49.22,1,.29,1.47s.06,1,.11,1.5c.08.72.19,1.44.29,2.16,0,.35.08.71.12,1.06.07.57.15,1.14.22,1.71a1.24,1.24,0,0,1,0,.42c0,.21-.16.41-.2.62a.9.9,0,0,1-1.46.72l-.52-.26c-.41.48-.69.56-.83.23a3,3,0,0,1-.28-1.2c0-.55.2-1.09.25-1.64a17.12,17.12,0,0,0,.13-2.15c0-1.3-.14-2.59-.19-3.89s-.11-2.49-.09-3.74c0-1,.17-2,.19-3,0-1.9.06-3.81,0-5.71-.06-1.7-.29-3.39-.38-5.09C201.82,6,201.87,4.95,201.87,3.82Z"/><path class="cls-1" d="M210.65,27.1c-.14.67-.3,1.33-.42,2s-.62.72-1.33.21a3,3,0,0,0,0,1.14c.21.45,0,.86.08,1.28a.54.54,0,0,1-.54.65.9.9,0,0,1-.69-.5,12.33,12.33,0,0,1-.15-4,19.14,19.14,0,0,0,.15-4.53c-.17-1.23-.16-2.49-.24-3.73-.06-1-.18-2.07-.19-3.11a11.12,11.12,0,0,1,.21-1.87c.06-.38.59-.6.82-.31.52.65,1.12.3,1.73.3,1.26,0,2.54-.12,3.61.91a3.65,3.65,0,0,1,1,2.11,2.72,2.72,0,0,1-.23,1.33c-.41,1.11-.84,2.22-1.34,3.3s-1,1.91-1.47,2.87a.71.71,0,0,0,0,.57,24.71,24.71,0,0,0,1.32,2.12,9.67,9.67,0,0,0,1,1,8.74,8.74,0,0,1,1.1,1.22,8.88,8.88,0,0,1,.74,1.56,1.53,1.53,0,0,1,0,.56c-.18,0-.39.05-.52,0a2.23,2.23,0,0,1-.74-.64,8.46,8.46,0,0,0-1.4-1.62c-.78-.76-1.45-1.63-2.16-2.45-.09-.11-.17-.24-.25-.35Zm-1.66.76a9.21,9.21,0,0,1,.33-.88c.47-1,1-1.91,1.43-2.88q.87-1.8,1.7-3.62a7.42,7.42,0,0,0,.88-3,1.25,1.25,0,0,0-.16-.51,1.65,1.65,0,0,0-1.47-1,5.89,5.89,0,0,0-2.7.28.7.7,0,0,0-.39.5c0,.79.12,1.57.18,2.36.11,1.43.27,2.86.29,4.3A20.17,20.17,0,0,1,209,27.87Z"/><path class="cls-1" d="M176.93,25.69q-.15-2.64-.29-5.28c0-.15,0-.31,0-.47-.07-1.65-.12-3.3-.21-4.94,0-.8.2-1.1.86-.94s.43.62.45.92c.08.93,0,1.87,0,2.8s.14,1.66.19,2.49c.06,1.18.12,2.36.14,3.55,0,1.45,0,2.89,0,4.34,0,.65.26,1.29.32,1.94a.92.92,0,0,1-.37.7.66.66,0,0,1-.89-.44c-.11-.61-.18-1.24-.33-1.84a4.07,4.07,0,0,0-.43-.88c-.26-.49-.57-1-.78-1.46A39.86,39.86,0,0,0,173.33,21c-.33-.56-.6-1.15-.89-1.73l-.14,0q.19,1.82.38,3.64c.07.69.18,1.38.22,2.07.06,1,.05,2,.12,2.93.05.74.22,1.48.25,2.22a5.18,5.18,0,0,1-.2,1.28.36.36,0,0,1-.3,0c-.24-.17-.61-.34-.65-.57a27.82,27.82,0,0,1-.33-2.9c-.1-1.42-.13-2.85-.23-4.27,0-.53-.21-1.05-.3-1.58a9,9,0,0,1-.1-1.12c0-1.32-.06-2.64-.11-4,0-.45-.16-.91-.16-1.36a3.2,3.2,0,0,1,.2-1.16.67.67,0,0,1,.59-.31,1,1,0,0,1,.5.56c.15.35.2.74.34,1.1.46,1.16.93,2.33,1.44,3.47.27.6.65,1.16,1,1.75a8.07,8.07,0,0,1,.39.93c.4,1.07.79,2.14,1.19,3.21a3.76,3.76,0,0,0,.26.48Z"/><path class="cls-1" d="M121.86,15c0,1.63-.11,3.28-.11,4.93,0,1.13.13,2.26.17,3.39,0,.53-.09,1.06-.06,1.58a8.43,8.43,0,0,0,.27,1.32,2.33,2.33,0,0,1,.11,1.57,1.16,1.16,0,0,0,0,.52q.15,1.72.31,3.44c0,.32-.42.77-.84.84s-.51-.25-.56-.53c-.11-.67-.18-1.34-.25-2-.13-1.13-.31-2.25-.36-3.39a3.65,3.65,0,0,0-.57-1.43c-.27-.58-.52-1.17-.83-1.73-.49-.9-1-1.77-1.53-2.66a16.86,16.86,0,0,0-1.07-1.76c0,.35-.06.71-.08,1.06-.07,1.07-.16,2.14-.2,3.22,0,.61.06,1.23.09,1.85s0,1.2.1,1.79.13,1.49.25,2.23c.09.55-.05,1-.41,1.09a.91.91,0,0,1-1-.83c-.1-1.34-.21-2.68-.24-4s0-2.56,0-3.84c0-.67.1-1.33.09-2,0-1.1-.06-2.2-.1-3.31a5,5,0,0,1-.08-.9c.07-.45.45-.51.79-.35a1.48,1.48,0,0,1,.63.57c.89,1.6,1.75,3.22,2.63,4.82.23.41.52.78.75,1.19s.29.64.44,1c.07.15.15.3.27.54,0-.93,0-1.73,0-2.53,0-1.28,0-2.57,0-3.85,0-.42-.11-.85-.08-1.27a1.65,1.65,0,0,1,.32-.82c.05-.07.41.08.62.14S121.68,14.9,121.86,15Z"/><path class="cls-1" d="M247.72,26.35a4.38,4.38,0,0,0-.23,1.3,4.05,4.05,0,0,0,.53,2.08c.22.3.1.91,0,1.35a.76.76,0,0,1-.66.31,1.77,1.77,0,0,1-.71-.78,5.44,5.44,0,0,1-.29-1.27.93.93,0,0,0-.56-.83c-.09,0-.12-.34-.1-.5a11.09,11.09,0,0,0,.29-1.77c-.05-1.91-.2-3.82-.29-5.74,0-.57,0-1.14,0-1.72,0-.92,0-1.84,0-2.75a1.8,1.8,0,0,1,.2-.67,4.39,4.39,0,0,1,1.35-1,6.44,6.44,0,0,1,2.4-.57,3.76,3.76,0,0,1,3,2.26,6.31,6.31,0,0,1-.1,1.71,6.8,6.8,0,0,1-.72,2.77,29.48,29.48,0,0,1-1.94,2.87c-.36.51-.77,1-1.12,1.48-.05.08,0,.33.13.42.94.82,1.91,1.62,2.85,2.45.56.49,1.07,1,1.61,1.55.37.35.59.88,1.19,1a.43.43,0,0,1,.28.3c0,.09-.13.23-.24.31-.68.51-1.2,0-1.69-.33s-1-.85-1.5-1.26c-1.05-.85-2.12-1.69-3.17-2.54a2.3,2.3,0,0,1-.28-.33Zm-.5-1.69c.11-.12.19-.2.25-.28l1.45-1.9a9.92,9.92,0,0,0,2.26-4.15c.06-.33.07-.68.14-1a1.35,1.35,0,0,0-.69-1.74,4.52,4.52,0,0,0-.49-.36c-.25-.11-.57-.28-.8-.22-.72.21-1.41.51-2.11.79a.3.3,0,0,0-.16.22c-.08,1-.19,2.08-.2,3.12s0,2.06.1,3.09C247,23,247.13,23.8,247.22,24.67Z"/><path class="cls-1" d="M23.62,18.93c0,1.66,0,3.2,0,4.74,0,.5,0,1,.06,1.5,0,.84,0,1.68.12,2.51a7.7,7.7,0,0,0,.47,2.62,4.18,4.18,0,0,1,.15,1.47,1.69,1.69,0,0,1,0,.57c-.06.19-.25.52-.29.51-.28-.09-.68-.19-.78-.41a5.82,5.82,0,0,1-.46-1.64c-.21-1.49-.41-3-.51-4.49-.09-1.33,0-2.67,0-4,0-1.15-.08-2.3-.06-3.45A16.85,16.85,0,0,1,22.48,17a3.75,3.75,0,0,0,.06-.55c0-.41.11-.67.58-.73s.59.06.69.47a7,7,0,0,0,.51,1.41c.18.36.53.63.7,1,.38.8.67,1.64,1.05,2.44a13.3,13.3,0,0,0,.83,1.38c.15.23.32.45.48.68l.13,0c-.08-.91-.15-1.83-.24-2.74-.07-.67-.21-1.34-.26-2a22.2,22.2,0,0,1-.09-2.3,1.16,1.16,0,0,1,.35-.73c.09-.09.47,0,.6.1a1.86,1.86,0,0,1,.27.67,4.19,4.19,0,0,0,.3.76,1,1,0,0,1,0,1.17,1.36,1.36,0,0,0-.1.84,40.83,40.83,0,0,1,.39,5.45c0,1.42.06,2.83.08,4.25,0,.22-.11.44-.09.65a17,17,0,0,0,.39,2.54,1.48,1.48,0,0,1-.31.4,1,1,0,0,1-.58.18.62.62,0,0,1-.43-.34,10.2,10.2,0,0,1-.27-3.79,6,6,0,0,0-.85-3.54A20.24,20.24,0,0,1,24.23,20a4.67,4.67,0,0,0-.33-.74A3.1,3.1,0,0,0,23.62,18.93Z"/><path class="cls-1" d="M63.33,23.24c0-.61,0-1.23,0-1.84q0-2.48,0-5c0-.31,0-.62,0-.94A.48.48,0,0,1,64,15c.26.09.61.43.61.66,0,1.22-.06,2.44-.07,3.66,0,1.9,0,3.8,0,5.69A1.58,1.58,0,0,0,65,26.28c.12.12.15.56.07.61-.68.39-.41,1-.34,1.5L65,31.06c0,.25.07.5.1.75s0,.61-.49.56a2.07,2.07,0,0,0-.51.11c-.11-.45-.25-.88-.34-1.33a19.89,19.89,0,0,1-.42-4.55,3.53,3.53,0,0,0-.71-1.81c-.42-.84-.9-1.65-1.4-2.44-.63-1-1.32-2-2-3-.1.21-.18.3-.18.37.13,1.54.29,3.08.4,4.62.07,1,0,2.1.12,3.14.1,1.25.28,2.49.39,3.74.07.8.09,1.12-.76,1a.48.48,0,0,1-.35-.26,5.39,5.39,0,0,1-.21-1.09c-.12-1.37-.23-2.75-.3-4.12-.05-1,0-1.92-.06-2.88-.1-1.75-.2-3.51-.39-5.25-.06-.5.14-1.12-.36-1.54,0,0,0-.17,0-.25a5.69,5.69,0,0,1,.16-1.19.67.67,0,0,1,.57-.33c.22,0,.56.25.6.43.31,1.5,1.35,2.56,2.14,3.78.69,1.06,1.35,2.13,2,3.2.1.17.18.35.27.53Z"/><path class="cls-1" d="M242.55,28.29c-1.83-.43-3.59.06-5.42.54,0,.37,0,.79,0,1.22,0,.19-.09.47-.22.54s-.56.19-.71.09-.5-.53-.47-.77c.23-1.76.47-3.51.82-5.25s.83-3.6,1.26-5.4c.36-1.49.78-3,1.06-4.46a7.67,7.67,0,0,1,.29-1.06.66.66,0,0,1,.79-.52c.39,0,.55.22.63.6.29,1.33.64,2.64.9,4,.15.75.1,1.53.24,2.28.22,1.15.51,2.29.83,3.41.27.95.68,1.85,1,2.8.36,1.19.64,2.4,1,3.59.11.36.33.69.46,1.05s.18.58.07.69a.73.73,0,0,1-.9.25,1.43,1.43,0,0,1-.86-.93C243,30.06,242.78,29.16,242.55,28.29Zm-5.21-1c.13,0,.28.12.39.09a6.48,6.48,0,0,1,3.85-.16,6.84,6.84,0,0,0,.75.13c-.08-.24-.15-.48-.23-.73-.28-.94-.58-1.88-.82-2.84-.34-1.35-.63-2.72-.94-4.08a9.46,9.46,0,0,1-.19-1c-.07-.63-.12-1.27-.18-1.9h-.2c-.13.46-.25.93-.4,1.39-.36,1.11-.81,2.2-1.06,3.33s-.24,2.2-.4,3.29C237.77,25.62,237.54,26.41,237.34,27.27Z"/><path class="cls-1" d="M14.41,26.34c.13-1.33.33-2.6.36-3.88a15.76,15.76,0,0,1,.47-3.28,7,7,0,0,1,1-2.91c.35-.45.76-.9,1.31-.82a7.42,7.42,0,0,1,2.42.74c.4.22.61.86.82,1.35A8.29,8.29,0,0,1,21.23,19c.15.66.27,1.33.37,2s.16,1.26.2,1.89c0,.32-.09.64-.08,1,0,.74.06,1.48.09,2.22a.48.48,0,0,1,0,.19c-.48,1.14-.6,2.39-1.11,3.54a14.49,14.49,0,0,1-1.06,2.49c-.89,1.31-2.29,1-3.26.17-1.23-1.1-1.43-2.6-1.65-4.1C14.58,27.67,14.5,27,14.41,26.34Zm1.5-1.78h-.13a2.82,2.82,0,0,0-.05.38c0,.66,0,1.32,0,2A6.88,6.88,0,0,0,16,28.77c.35,1,.37,2.2,1.4,2.92.55.39,1,.39,1.28-.22a32.13,32.13,0,0,0,1.31-3.21A9.62,9.62,0,0,0,20.49,25a22.68,22.68,0,0,0-.4-4.72,14.58,14.58,0,0,0-1-3.06,1.16,1.16,0,0,0-1-.7,1.5,1.5,0,0,0-1.33,1.25c-.19.83-.43,1.65-.57,2.48a3.52,3.52,0,0,0,0,2.4c.16.3,0,.76,0,1.15h-.11l-.18-.32-.14.81.09,0,.28-.35a18.54,18.54,0,0,1,.3,3.88C15.81,26.87,16.07,25.67,15.91,24.55Z"/><path class="cls-1" d="M37,32.47c-.39,0-.76-.45-.93-1a7.07,7.07,0,0,0-.69-1.83c-.17-.26-.74-.34-1.14-.34-.78,0-1.56.18-2.34.16-.58,0-.73.24-.8.71a4.87,4.87,0,0,1-.78,2.28.77.77,0,0,1-.59.25c-.3,0-.29-.26-.24-.54.31-1.64.59-3.28.89-4.93.17-.94.39-1.88.56-2.82a18.36,18.36,0,0,0,.26-1.86,18.61,18.61,0,0,1,.78-3.3c.15-.58.31-1.16.47-1.74.22-.81.42-1.62.69-2.41a.74.74,0,0,1,.56-.39c.17,0,.42.24.51.43A19.36,19.36,0,0,1,35.05,19c.22,1.09.4,2.19.56,3.29.09.62.09,1.25.18,1.88.16,1.15.34,2.3.52,3.46a.45.45,0,0,0,0,.15c.6,1.09.47,2.41,1.18,3.49A.71.71,0,0,1,37,32.47Zm-5.57-4.38h3.61l-1.4-9.95C32.33,21.36,32.27,24.78,31.44,28.09Z"/><path class="cls-1" d="M221.32,13.9c.25.09.5.17.74.28a.36.36,0,0,1,.16.24c.14.87.3,1.73.39,2.61.06.56,0,1.14,0,1.71s.06,1.09.1,1.63c.06,1,.18,1.94.18,2.91a18.75,18.75,0,0,1-.22,2.12c0,.19-.05.37-.07.55a11.24,11.24,0,0,1-.83,4.24c-.49,1-1.1,1.38-2.05,1a3.7,3.7,0,0,0-.57-.18c-1.49-.28-1.81-1.56-2.21-2.69a19.82,19.82,0,0,1-.85-6.84c0-1.28,0-2.55-.1-3.83,0-.83-.13-1.66-.2-2.49a1.27,1.27,0,0,1,0-.56c.1-.24.27-.6.45-.63.48-.08.75.26.78.74.09,1.53.22,3.06.29,4.59,0,.91,0,1.84,0,2.75s-.21,1.8.24,2.69a3.23,3.23,0,0,1,.15,1.46,5.29,5.29,0,0,0,1,2.86c.22.37.34.8.94.82s.91-.06,1-.78c.25-1.43.56-2.85.69-4.28a27,27,0,0,0-.06-3.16c0-.5,0-1,0-1.5A20,20,0,0,0,221,16c-.14-.44-.21-.91-.32-1.36S220.8,14,221.32,13.9Z"/><path class="cls-1" d="M99.43,24.34c-.27.23-.53.47-.81.69a7.42,7.42,0,0,1-2.94,1.13c-.67.16-1.34.31-2,.49-.51.14-.59.39-.51.89.12.68.15,1.37.22,2.06a4.15,4.15,0,0,0,.16.89.54.54,0,0,0,.39.31,5.5,5.5,0,0,0,2.77-.29c.27-.14.52-.3.79-.44l.73-.36.12.11c0,.14,0,.33-.12.43C97,31.53,95.6,32.41,93.69,32c-1.16-.27-1.4-.69-1.68-2.14-.19-1-.13-2-.24-2.94a16.72,16.72,0,0,1,.15-2.37c0-.56,0-1.13,0-1.69,0-.14,0-.27,0-.41,0-1.18-.09-2.37-.1-3.55,0-.93.07-1.86.06-2.78a5.6,5.6,0,0,0-.22-1.18c-.2-.85.07-1,.64-1.17a19.61,19.61,0,0,1,3.95-.33c.5-.05,1-.19,1.48-.21.87,0,1.74,0,2.61,0l0,.15a2.62,2.62,0,0,1-.52.28c-1.26.35-2.52.71-3.79,1-.68.16-1.4.16-2.1.29s-.81.24-.81,1c0,1.64,0,3.29,0,4.93,0,.54.17,1.07.18,1.61a20.87,20.87,0,0,1-.08,2.11c0,.38,0,.62.47.57A20,20,0,0,0,98,24.51c.44-.16.92-.23,1.37-.35Z"/><path class="cls-1" d="M52.16,29.27c.18.42.45.76.4,1a3.26,3.26,0,0,1-.65,1.32c-.2.25-.75,0-.85-.37a2.43,2.43,0,0,1-.06-.87c.08-.79.21-1.57.31-2.36a8.86,8.86,0,0,0,.09-1.12,28,28,0,0,1,.71-6.72c.26-1.06.36-2.16.54-3.24.06-.38.13-.75.22-1.12a.78.78,0,0,1,.72-.67.8.8,0,0,1,.81.69c.34,1.73.72,3.46,1,5.2.19,1.1.26,2.22.43,3.32s.36,2.49.65,3.71A7.81,7.81,0,0,1,57,29.5a6.8,6.8,0,0,0,.5,1.31c.08.27.14.69,0,.84s-.56.18-.86.18c-.12,0-.3-.18-.34-.31-.23-.65-.43-1.31-.65-2,0-.11-.16-.28-.24-.28C54.36,29.26,53.33,29.27,52.16,29.27Zm1.58-10.63-.2,0c-.22,1.19-.46,2.38-.64,3.58-.13.84-.19,1.69-.25,2.53s-.08,1.45-.1,2.17a2,2,0,0,0,.06.81c0,.09.41,0,.64.06,0,0,.09,0,.14.05l1.92.34Z"/><path class="cls-1" d="M181.3,25.72l2.09-.6,2.87-.76c.07,0,.23,0,.25.07a.54.54,0,0,1,0,.38,1,1,0,0,1-.38.32q-1.45.73-2.9,1.44a7.64,7.64,0,0,1-1.15.49c-.46.13-.52.44-.46.82s.12.94.23,1.4a1.21,1.21,0,0,0,1,1,4.13,4.13,0,0,0,2.1.08,2.21,2.21,0,0,0,.58-.28,9.35,9.35,0,0,0,2-1.75A3.11,3.11,0,0,1,188,28l.18.14a7,7,0,0,1-.51,1c-.64.88-1.13,1.93-2.23,2.36a4,4,0,0,1-1.46.27,5.51,5.51,0,0,1-2.64-.72,2,2,0,0,1-.87-1.72c-.14-1.41-.23-2.82-.32-4.23-.06-1-.07-2-.11-3s-.09-1.88-.1-2.83.12-1.81,0-2.7a2.56,2.56,0,0,1,.41-1.47.92.92,0,0,1,.65-.44c1.57,0,3.14-.06,4.71,0a12.64,12.64,0,0,1,2.1.42.65.65,0,0,1,.18.11v.16a5.53,5.53,0,0,1-1,.31c-1.05.1-2.11.15-3.17.22L181.4,16C181.16,19.24,181.28,22.42,181.3,25.72Z"/><path class="cls-1" d="M46.81,28.2c.12,1,.22,2,.37,3,.06.41-.17.71-.57.6-.22-.06-.58-.07-.64-.21a3.66,3.66,0,0,1-.25-1.13c-.09-.8-.13-1.61-.21-2.41-.06-.62-.16-1.24-.21-1.87-.08-1-.1-2-.22-3.06-.2-1.61-.47-3.2-.7-4.81a10,10,0,0,1-.11-1.37c0-.33.11-.66.53-.69a.78.78,0,0,1,.81.68c.1,1.13.18,2.27.31,3.4s.36,2.53.5,3.79c.1.9.14,1.8.21,2.86.53-.11,1-.19,1.46-.32.1,0,.2-.27.19-.41-.05-1.22-.1-2.44-.2-3.65s-.26-2.46-.4-3.69c-.06-.57-.16-1.14-.18-1.71a.58.58,0,0,1,.39-.42c.35,0,.82-.15.91.38.11.69.16,1.38.22,2.07.14,1.64.28,3.28.41,4.92,0,.5,0,1,0,1.51a7.52,7.52,0,0,0,.26,1.05.56.56,0,0,1,0,.3,5,5,0,0,0,.12,3.19,7.73,7.73,0,0,1,.28,1.38c0,.14-.28.42-.43.42a1,1,0,0,1-.76-.28,3.37,3.37,0,0,1-.42-1.28c-.09-.71-.09-1.43-.12-2.15,0-.5-.06-.51-.52-.33A7.51,7.51,0,0,1,46.81,28.2Z"/><path class="cls-1" d="M228.24,27.67c-.15-.47-.39-1.23-.65-2-.46-1.3-.9-2.62-1.43-3.89A9,9,0,0,0,225.09,20a7.81,7.81,0,0,1-1.33-3.44c-.1-.64.35-.93.53-1.39a1.53,1.53,0,0,1,1.37-1,1.88,1.88,0,0,1,.71.16.47.47,0,0,1,.22.21c.13.23.4.52.34.71-.11.36-.46.27-.78.17s-1,.61-1,1.08a14.19,14.19,0,0,0,.38,1.92A1.66,1.66,0,0,0,226,19a8,8,0,0,1,1.65,3.29c.27.88.66,1.72,1,2.58a28.29,28.29,0,0,1,1,2.93,2.68,2.68,0,0,1-.73,2.57,1.38,1.38,0,0,1-.66.22,2.24,2.24,0,0,1-1.58,0c-.2-.1-.48,0-.71,0a1.94,1.94,0,0,1-1.58-2.07c0-.09-.06-.2,0-.28s.12-.57.25-.61c.34-.09.54.15.63.49a3.35,3.35,0,0,0,.29.9c.36.59.94.57,1.53.43,0,0,.09-.06.14-.07C228.21,29.11,228.24,29.08,228.24,27.67Z"/><path class="cls-1" d="M110,28.59l-.92.93c-.41.41-.87.79-1.24,1.24a5.17,5.17,0,0,1-1.91,1.52,2.85,2.85,0,0,1-2.68-.5,2.23,2.23,0,0,1-.25-1.12c-.06-1,0-2.06-.13-3.09s-.07-2.2-.09-3.29c0-2.28,0-4.55-.12-6.83,0-.85-.28-1.69-.37-2.55a1.63,1.63,0,0,1,.15-.93.46.46,0,0,1,.75-.1,1.69,1.69,0,0,1,.63,1.23c.05,1,.09,1.91.11,2.87,0,1.38,0,2.77,0,4.15,0,1,.13,2,.17,3.06.06,1.39.08,2.78.13,4.17a13.85,13.85,0,0,0,.12,1.39.77.77,0,0,0,1,.47,10.69,10.69,0,0,0,1.53-.85c.81-.54,1.57-1.15,2.37-1.7a3.51,3.51,0,0,1,.64-.28Z"/><path class="cls-1" d="M234.76,28.12c0,.42,0,.84,0,1.26a.79.79,0,0,1-.77.86,5.15,5.15,0,0,1-2.56,0,1.65,1.65,0,0,1-.9-1.74c0-.1.2-.24.28-.22a.8.8,0,0,1,.43.26c.11.14.1.39.22.5a1.77,1.77,0,0,0,.66.34c.13,0,.29-.05.44-.08.84-.16.92-.35.78-1.21-.18-1.07-.21-2.16-.46-3.21a12.92,12.92,0,0,0-1-2.56c-.46-.95-1-1.84-1.53-2.77-.35-.63-.7-1.26-1-1.9a2.32,2.32,0,0,1,.37-2.54l.26-.26c.8-.79,1-.58,1.83-.18a5.19,5.19,0,0,1,.52.4c.4.27.56.52.13,1s-.48.44-.78,0c-.08-.12-.31-.28-.4-.24s-.49.24-.56.43a1.62,1.62,0,0,0,.15,1.48c.9,1.44,1.78,2.9,2.54,4.42a10,10,0,0,1,1,4,6.62,6.62,0,0,0,.24,1.17c.06.28.15.55.23.82Z"/><path class="cls-1" d="M162.47,30.4c.68,0,1.28,0,1.88,0a4.21,4.21,0,0,0,2.61-.47.74.74,0,0,1,.57,0,3.28,3.28,0,0,1-2.69,1.63,3.39,3.39,0,0,0-1.7.38,1.53,1.53,0,0,1-1.75-.1.75.75,0,0,1-.24-.51c0-.47,0-.95,0-1.42,0-1.61,0-3.22-.08-4.82-.07-1.19-.34-2.37-.49-3.56-.13-1-.21-2.06-.33-3.09-.09-.75-.21-1.5-.29-2.26-.06-.5-.08-1-.12-1.5s0-.7.44-.79a.77.77,0,0,1,.88.6c.05.39,0,.8,0,1.19,0,.68.08,1.36.16,2,.14,1.16.31,2.33.45,3.49.16,1.32.33,2.63.46,3.95.06.64,0,1.28.06,1.92,0,.32.09.64.1,1,0,.61,0,1.23,0,1.84C162.47,30.06,162.47,30.26,162.47,30.4Z"/><path class="cls-1" d="M44,16.27c-.19.18-.28.35-.39.37-.48.1-1,.16-1.45.22a10.12,10.12,0,0,0-1,.12.45.45,0,0,0-.26.34c0,1.26.13,2.52.18,3.78,0,.72,0,1.44.06,2.15s.12,1.43.14,2.14c0,1.15,0,2.29,0,3.44A8,8,0,0,0,41.48,30c0,.17.06.33.1.49.08.4-.17.75-.47.7a1.18,1.18,0,0,1-.84-.65,16.27,16.27,0,0,1-.33-2.62c0-.51.09-1,.08-1.55,0-.79-.11-1.58-.16-2.37-.06-1-.09-2-.15-3-.07-1.26-.12-2.52-.23-3.78A.62.62,0,0,0,39,16.8c-1.06,0-2.11.11-3.16.16a.68.68,0,0,1-.68-.89.57.57,0,0,1,.44-.25c1.22,0,2.43-.07,3.65-.11a.41.41,0,0,0,.24-.13.72.72,0,0,1,1.17.09.91.91,0,0,0,.56.33C42.1,16.11,43,16.17,44,16.27Z"/><path class="cls-1" d="M113.05,29.23c.47.08.55.42.5.86a7.34,7.34,0,0,1-.17,1.51c-.06.19-.54.32-.84.33s-.45-.17-.48-.56c-.06-.85-.26-1.7-.36-2.55,0-.31.09-.64.08-1,0-.92-.07-1.85-.1-2.77,0-1.76-.05-3.53-.11-5.29,0-1.28-.12-2.56-.21-3.83a.77.77,0,0,1,.57-.85c.27-.09.73.39.78.76s.08.85.1,1.27c0,.84.1,1.67.1,2.51,0,1.27-.08,2.54-.09,3.8,0,.75.07,1.5.09,2.26s0,1.66,0,2.49C112.94,28.53,113,28.84,113.05,29.23Z"/><path class="cls-1" d="M168.57,16.38c0,1.58,0,3.16,0,4.73,0,.82-.1,1.65-.08,2.47s.14,1.64.23,2.45c0,.48.11,1,.17,1.43q.13,1,.26,2a3.47,3.47,0,0,1,.12,1.08,1.17,1.17,0,0,1-.59.65c-.23.12-.79-.37-.82-.68-.11-1.27-.21-2.54-.31-3.81s-.24-2.64-.29-4c0-.93.09-1.86.08-2.79,0-1.1-.07-2.2-.11-3.31,0-.63-.09-1.27-.08-1.9,0-.24.13-.56.47-.46s.77-.08.81.46.06,1.09.08,1.64Z"/><path class="cls-1" d="M138.67,25.92c.06.55-.29.57-.54.63a.82.82,0,0,1-.54-.09c-.73-.41-1.48,0-2.22-.08a.52.52,0,0,0-.3.15,1.78,1.78,0,0,1-1.47.22c-.13,0-.33-.38-.3-.56s.22-.65.42-.71a6.38,6.38,0,0,1,3.15-.43,8.79,8.79,0,0,1,1.68.65C138.63,25.73,138.66,25.91,138.67,25.92Z"/></g></g></svg>