<svg xmlns="http://www.w3.org/2000/svg" viewBox="0 0 668.38 1"><title>Asset 5</title><g id="Layer_2" data-name="Layer 2"><g id="Layer_1-2" data-name="Layer 1"><path d="M1.81.33c4.29,0,8.59,0,12.88,0H64.47l11.6,0c2.21,0,4.43,0,6.64,0,5.88,0,11.76,0,17.64,0H165.3c2.35,0,4.69,0,7-.06,1,0,2,0,3,0h30c3.88,0,7.77,0,11.64,0,7.24,0,14.47,0,21.71,0,3.62,0,7.23,0,10.84,0,3.41,0,6.81,0,10.22,0,2.45,0,4.9,0,7.36,0h18.22L299,.29l4.41,0,16.74,0c1.3,0,2.6,0,3.9,0h28.82c4.27,0,8.54,0,12.81,0,5.59,0,11.19,0,16.78,0H460c2.27,0,4.54,0,6.81,0L483.52.27h1.68l20.67,0h20.86L547,.16c2.87,0,5.75,0,8.62,0L572.86.1c2.48,0,5,0,7.45,0h6.53l8.77,0,16.25,0q11.19,0,22.38,0c5.21,0,10.4.08,15.6.12,1.54,0,3.12,0,4.65,0,2.24,0,4.44.09,6.68.12l5.57.05c.57,0,1.09.06,1.63.09a15.88,15.88,0,0,1-1.59.16c-4.28,0-8.57.08-12.87.09-3.63,0-7.27,0-10.91,0-4.63,0-9.26,0-13.9,0L598.28.7c-3.7,0-7.39.06-11.09.07-3,0-6,0-9,0L559.29.82h-8.91l-13.06,0-13,0-24.8,0c-4,0-7.95,0-11.92,0-3.13,0-6.26,0-9.39,0-3.35,0-6.7,0-10,0l-17.77,0-7.23,0c-3.78,0-7.56.06-11.34.06s-7.43,0-11.15,0c-2.07,0-4.17.05-6.22,0C402.73.91,391,1,379.3,1c-2.28,0-4.54,0-6.82-.06-1.91,0-3.83,0-5.75,0H352.15l-10.68,0H308.83l-16.71,0c-3.69,0-7.38,0-11.06,0-5.22,0-10.44.06-15.66.07q-6.15,0-12.31,0l-19.69,0c-4.62,0-9.25,0-13.87,0-2.78,0-5.56,0-8.34,0l-8.66,0-4.29,0H192l-5.77,0-9.48,0c-4,0-8.08,0-12.11,0C160,.94,155.26.9,150.55.87c-1.29,0-2.6,0-3.91,0h-9.73c-7.74,0-15.5,0-23.21,0-6.76,0-13.46,0-20.18,0L80.16,1H48.37L32.27,1c-3.07,0-6.14,0-9.21,0H6.74L0,1"/></g></g></svg>