<svg xmlns="http://www.w3.org/2000/svg" viewBox="0 0 322.68 48.71"><title>Asset 6</title><g id="Layer_2" data-name="Layer 2"><g id="coord"><path d="M18.18,48.71c-.69-1-1.35-2.08-2.07-3.08a32.51,32.51,0,0,0-5.59-5.75,42.35,42.35,0,0,0-4-3.25A20.85,20.85,0,0,1,2,32.33c-.49-.58-.66-1.47-1.6-1.75a.67.67,0,0,1,0-1.2,10.56,10.56,0,0,1,5.91-1.21A9.87,9.87,0,0,0,10,28c.37-1.79.62-3.38,1-4.92a15.86,15.86,0,0,0,1-5.3c-.08-1.3-.35-2.6-.33-3.89,0-1.64.2-3.29.36-4.93a1.15,1.15,0,0,1,1.66-1,6.8,6.8,0,0,0,1.82.45c3.17.1,6.34.13,9.5.21,1.25,0,2.5.08,3.75.2,2.74.27,5.47.71,8.22.87,3.06.19,6.13.14,9.19.22,1.31,0,2.63.19,3.94.17,3.21-.05,6.39.26,9.59.52s6.44.14,9.66.25a5.6,5.6,0,0,1,2.25.47c.54.27.84,1,1.65.83.1,0,.32.23.4.4a1.78,1.78,0,0,1-1.35,2.32c-1.21.13-2.43.14-3.65.2l-2.95.14c1.36,1.06,2.52,2,3.73,2.91a42.17,42.17,0,0,0,5.08,3.48c.85.45.73.91.82,1.53a1.27,1.27,0,0,1-.85,1.46,8.21,8.21,0,0,1-2.53.22,16.45,16.45,0,0,1-2.14-.33c-2.26-.36-4.52-.72-6.78-1.07-.85-.13-1.71-.2-2.56-.29l-.05.18,4.17,1.1a2.22,2.22,0,0,1-1.41.6,32.33,32.33,0,0,1-3.33-.42c-1.22-.19-2.42-.46-3.64-.66-2.62-.42-5.24-.8-7.86-1.22-2.35-.38-4.69-.82-7-1.17-1.68-.25-3.37-.36-5.05-.58s-3.28-.47-4.92-.73c-.89-.14-1.76-.37-2.65-.52-1.55-.27-3.1-.55-4.66-.74a.79.79,0,0,0-1,.84c-.09,1.29-.4,2.56-.55,3.84-.21,1.76-.37,3.53-.49,5.29,0,.19.36.59.53.57,3.1-.33,6.08.58,9.11.86.72.07,1.46-.11,2.19-.08a2.3,2.3,0,0,1,1.21.38,1.07,1.07,0,0,1,.37.92A2.74,2.74,0,0,1,34,33.54a4.07,4.07,0,0,0-1.11.59c-1.51,1.23-3,2.46-4.48,3.75-2.27,2-4.48,4.1-6.73,6.14a9.11,9.11,0,0,1-2.13,1.72c-.84.38-.83.87-.76,1.57a11.43,11.43,0,0,1,0,1.39ZM41.3,19.39l3.12.72c-.31-.73-.24-1.22.56-1.31s1,.17,1.12,1.62a48.87,48.87,0,0,0,5,.74c2.56.13,5.13-.06,7.69.07s4.94.48,7.42.69c1.44.12,2.9.16,4.34.24l.1-.26c-.69-.54-1.43-1-2.08-1.64A25.93,25.93,0,0,0,62,16.4c-.25-.12-.58-.42-.58-.64,0-.68-.27-1.54.72-1.85.79-.24,1.59-.47,2.48-.73a3.69,3.69,0,0,0-3.15.18,2.1,2.1,0,0,1-1.54,0c-.27-1-1.11-.78-1.64-.82-2.71-.21-5.42-.3-8.14-.39a1.44,1.44,0,0,0-.9.49c-.65.69-1.53.74-1.78,0S46.87,12,46.35,12a37.9,37.9,0,0,0-4.68.2c-.34.3-.65.79-1,.85s-1-.21-1.2-.84c-.11-.3-.76-.5-1.18-.55-1.21-.12-2.44-.13-3.66-.19.23.57.84,1.15.14,1.71a1.17,1.17,0,0,1-1.12.07c-.6-.6-.65-1.31.29-1.94-2.05-.15-3.92-.3-5.79-.42-1.19-.08-2.38-.15-3.57-.16-.22,0-.63.31-.62.43a1,1,0,0,1-1,1.17c-.82,0-.95-.6-.88-1.28a1.32,1.32,0,0,0-.05-.31l-5.39-.29c.57.62.69,1.25.25,1.79a.74.74,0,0,1-1.24,0,4.23,4.23,0,0,1,0-1.66c-1.23-.11-1.48.1-1.48,1.55,0,1.61,0,3.21,0,4.82a18.37,18.37,0,0,1-.72,5.65.37.37,0,0,0,0,.22c.46.19,1,.25,1.17.53s0,.86,0,1.3h-.24c.07.09.18.16.22.26.13.38.24.77.35,1.15-.45.09-1,.35-1.33.23s-.91-.51-.37-1.15c.13-.15-.06-.56-.2-.84a5.37,5.37,0,0,0-.43,4.34c.42,1.12-.16,1.84-1.34,1.86-1.88,0-3.76,0-5.64,0H3.68l-.14.24a3.45,3.45,0,0,0,1.07.62c1,.15,1.27.55.79,1.55L11.66,38c-.05-1.16.64-1,1.19-.93.27,0,.7.49.66.66a3.86,3.86,0,0,1-.75,1.1c2,1.56,3.5,3.83,5.13,6.07l2.42-2.83a1,1,0,0,1-.8-1.3,1.19,1.19,0,0,1,.8-.57c.62-.14,1,.22,1.09,1.05l3.09-3c-1.37-.6-.63-1.48-.25-2.46.47.4.9.79,1.37,1.12a.58.58,0,0,0,.55-.06c1.45-1.36,2.89-2.74,4.31-4.12.07-.07.05-.23.1-.48l-1.79-.12L29,33.55c-.5.41-1.13.7-1.61,0-.24-.33-.09-.94-.14-1.68-1.45,0-3.15,0-4.84,0-.31,0-.61.31-.87.58.69-.08,1.39-.3,1.71.52a1,1,0,0,1-.19.88,1.36,1.36,0,0,1-1.83-.17l.22-.77c-1,.5-1.24.09-1.24-.86,0-2.2-.27-4.42-.12-6.6.17-2.4.66-4.79,1.06-7.17a6.45,6.45,0,0,1,.6-1.4,3.12,3.12,0,0,1-1.08-.42c-.24-.24-.51-.85-.39-1,.5-.61,0-1.8,1.11-2,.31-.05.66.18,1.1.32L22,16.41c1.24.06,2.34.11,3.44.18a6.24,6.24,0,0,1,.88.17c2,.43,4,.93,6.08,1.28,2.49.44,5,.75,7.52,1.13l1.43.24Z"/><path d="M118.13,21.63a9.74,9.74,0,0,0-.27-1.18,2.55,2.55,0,0,0-2-1.69,33.17,33.17,0,0,1-4.17-1.35c-.87-.32-1.66-.84-2.53-1.16a4.47,4.47,0,0,1-2.53-2.86,6.44,6.44,0,0,1,0-4.41c.61-2.24,2.12-3.47,3.89-4.59a1.35,1.35,0,0,1,.68-.17,5.18,5.18,0,0,1,3.72,1.53c.15.15.15.53.11.79s-.24.55-.3.84c-.18.93-.65,1.38-1.52.88-.4-.3-.79-.83-1.21-.86-.64,0-1.48,0-1.85.69-.47.93-.81,1.92-1.23,2.87a.94.94,0,0,0,.52,1.34c1,.44,2,.76,3,1.14a15.39,15.39,0,0,1,2.24.87c1.67.95,3.31,1.94,4.9,3a3.13,3.13,0,0,1,1.66,2.6,5.68,5.68,0,0,0,.23,1.05c.3,1.48-.72,2.36-1.65,3.12a5,5,0,0,1-3.93.88c-1.94-.23-3.91-.22-5.86-.27a1.1,1.1,0,0,0-.78.33c-.94,1.15-2.17,1-3.43.89-2.36-.19-3.53-2.06-4.93-3.52A43,43,0,0,1,98,18.66c-.74-1-.74-1-1.69-.1a4.73,4.73,0,0,1-1,.79c-1.11.54-1,1.51-1,2.49a9.7,9.7,0,0,1,0,1.3c-.09,1.14-.64,1.69-1.73,1.49-.34-.06-.67-.7-.82-1.14s-.11-1.14-.23-1.7A1.61,1.61,0,0,0,91,21a1.33,1.33,0,0,1-.19-2.11A2.4,2.4,0,0,0,91.56,17c-.27-3-.49-6-.75-9-.16-1.81-.38-3.61-.52-5.42a1.41,1.41,0,0,1,1.56-1.5c1,0,1.32.32,1.39,1.46a6,6,0,0,0,.32,1.26c1.15-.18,2.22-.41,3.31-.49,1.64-.12,3.3-.16,4.95-.19a2.49,2.49,0,0,1,2.49,1.79,5.21,5.21,0,0,1-.72,5.68c-1.16,1.43-2.29,2.88-3.44,4.32a1,1,0,0,1-.33.32c-.82.35-.46.6,0,1.06,1.06,1.09,2,2.33,3,3.4a19.17,19.17,0,0,0,2.55,2,1.94,1.94,0,0,0,1,.21c1.6,0,3.2,0,4.8,0,.79,0,1.58.2,2.36.15C115.07,22,116.55,21.79,118.13,21.63ZM94,15.67l.3.28a2.36,2.36,0,0,1,.28-.64,28.17,28.17,0,0,1,2.07-2.25c.42-.39,1.1-.52,1.51-.91a32.21,32.21,0,0,0,2.42-2.65,13.71,13.71,0,0,0,1.34-2,.84.84,0,0,0-.09-.8,4.56,4.56,0,0,0-1.44-.68,11.29,11.29,0,0,0-4.49.13c-1.08.15-1.47,1.06-2.23,1.53-.09.05-.09.28-.1.42,0,.51,0,1,0,1.52C93.73,11.67,93.87,13.67,94,15.67Z"/><path d="M134,6.9c-.29,1.06-.63,2.1-.87,3.17-.64,2.86-1.14,5.75-1.88,8.57a49.46,49.46,0,0,1-2.05,5.89,1.57,1.57,0,0,1-1.54,1.1,1.44,1.44,0,0,1-1.41-1.13A18.66,18.66,0,0,0,124.74,22c-.09-.15-.28-.33-.25-.47.3-1.51-1.08-2.28-1.52-3.46-.73-2-1.67-3.83-2.53-5.73-.27-.59-.58-1.17-.87-1.76-.79-1.63-1.58-3.26-2.35-4.9A1.05,1.05,0,0,1,118,4.38a1.92,1.92,0,0,1,2.16,1c.92,1.63,1.77,3.3,2.65,5,.69,1.3,1.43,2.58,2,3.92.82,1.81,1.52,3.68,2.3,5.58.26-1,.53-2,.82-3.08.65-2.37,1.37-4.72,2-7.1.32-1.31.41-2.68.65-4a2.73,2.73,0,0,1,.48-1.1,9.35,9.35,0,0,1,1.07-1.09,1.48,1.48,0,0,1,2.13.32c.07.13.16.25.35.17.43.16.85.34,1.28.46a2.51,2.51,0,0,0,1,.13,28.2,28.2,0,0,1,8.28.22A2.29,2.29,0,0,1,146.95,6a16.22,16.22,0,0,1,1.12,2c.55,1.85-.31,3.3-1.53,4.63-.82.89-1.56,1.86-2.37,2.77-.57.65-1.18,1.27-1.8,1.88s-1.42,1.26-2.05,2a2.3,2.3,0,0,0-.59,2.1,10,10,0,0,0,.62,2.71c.28.6-.36,1.28-1.13,1.38a1.5,1.5,0,0,1-1.73-1.33c-.27-1.22-.63-2.42-1-3.61-.05-.17-.32-.3-.5-.41a1.22,1.22,0,0,1-.51-1.78,3.52,3.52,0,0,0,.3-3.3c-.37-1.33-.91-2.62-1.19-4s-.32-2.75-.47-4.13Zm10.17.36c-1.07.13-2.11.18-3.11.4s-2,.62-3.07,1a12.47,12.47,0,0,0,.85,5.92,1,1,0,0,0,.23-.13,41.18,41.18,0,0,0,3.73-3.65A5,5,0,0,0,144.14,7.26Z"/><path d="M260.53,9.16c1.83.75,3.67.84,5.15,2a6,6,0,0,1,2.48,4.5l.29-.06a14.24,14.24,0,0,0,.1-1.72,22.83,22.83,0,0,1,.35-6.39c0-.15.4-.29.62-.31.66-.05,1.12-.1,1.37-1,.47-1.59,2.8-1.91,4.08-.82a6.55,6.55,0,0,1,1.92,2.93,7.74,7.74,0,0,1,.62,4.52,7.9,7.9,0,0,0,.14,1.74c0,1.59-.05,3.19-.09,4.78a2.94,2.94,0,0,1-2.29,2.88,9.29,9.29,0,0,1-3.58.32c-1-.12-1.62-1.11-2-2.06-.47-1.28-.83-2.6-1.14-3.58a10,10,0,0,1-1.5,2.63,6.74,6.74,0,0,1-4.2,2.21c-1.67.14-3.32.66-5,.79a46.43,46.43,0,0,1-6.17.06,2.32,2.32,0,0,1-2-1.6c-.2-.54-.33-1.13.19-1.43a1.34,1.34,0,0,1,1.21.28,3.45,3.45,0,0,0,2.72.65c1.94,0,3.87-.24,5.8-.45,2.22-.24,4.41-.61,5.91-2.54.09-.12.27-.23.27-.35a3,3,0,0,0-.08-1.16c-.37-.94-.15-2.2-1.55-2.6s-2.42-1-3.67-1.32a16.66,16.66,0,0,0-3.71-.29c-.39,0-.79.41-1.15.67a3.23,3.23,0,0,0-.58.59c-.39.47-1,.75-1.39.31s-.92-.92-.6-1.76,1.09-1.23,1.79-1.66c1.23-.75,2.48-1.48,3.89-2.33-1.55,0-2.87,0-4.19,0s-2.64.12-3.95,0c-.3,0-.65-.7-.79-1.14a.85.85,0,0,1,.55-1.18,3.69,3.69,0,0,1,1-.19l9.84-.2c.45,0,.9-.11,1.35-.16.67-.08,1.43-.08,1.6.68s.39,1.52-.51,2S261.63,8.55,260.53,9.16Zm10.33,4.25a14.23,14.23,0,0,0,1,5.52c.6,1.32.61,1.53,1.91,1.3.78-.13,1.48-.31,1.74-1.38a22.15,22.15,0,0,0,.32-5.58,11,11,0,0,0-1-4.88,2.89,2.89,0,0,0-1.52-1.19c-.29-.11-.93.24-1.19.56a3.69,3.69,0,0,0-.75,1.6C271.14,10.72,271,12.07,270.86,13.42Z"/><path d="M316.1,16h3.28c0-1.23.06-2.44,0-3.64-.1-1.73-.31-3.46-.45-5.2a9.88,9.88,0,0,1-.05-2c.08-.65.58-.94,1.25-.94.85,0,1,.77,1.07,1.23a30.14,30.14,0,0,1,.58,4.51c.09,1.85-.06,3.71,0,5.56a32.62,32.62,0,0,0,.62,3.82c.05.29.27.58.26.86a8.62,8.62,0,0,1-.28,1.35c-.53-.21-1.26-.27-1.54-.65a25.29,25.29,0,0,1-1.68-3,15.39,15.39,0,0,1-1.64.46c-.71.12-.74.49-.56,1.07A1.48,1.48,0,0,1,316,21a1.76,1.76,0,0,1-1.62-1.06,3.91,3.91,0,0,1-.19-.79c-.05-.59-.46-.55-.87-.54-1.71.07-3.43.13-5.14.23-.16,0-.39.26-.44.43-.17.57-.25,1.17-.41,1.75s-1.08,1.42-1.6,1.15c-.7-.37-.65-1.17-.53-1.82a12.39,12.39,0,0,1,2-5,8.9,8.9,0,0,0,1.41-4.88,29.27,29.27,0,0,1,.23-3.93,28.67,28.67,0,0,1,1.32-4.28c.2-.55,1.27-.56,1.59,0a31.87,31.87,0,0,1,2.35,5c.67,2.11,1,4.33,1.45,6.5C315.76,14.54,315.93,15.23,316.1,16Zm-4.89-9c-.07,3.17-.29,6.27-1.83,9.13h4.09C312.69,13,312.57,9.87,311.21,7Z"/><path d="M229.78,17c.39.92.69,1.7,1.07,2.45.06.11.55.11.77,0,1.4-.61,2.79-1.23,4.15-1.92,1-.52,2-1.15,3-1.71a3.21,3.21,0,0,1,.72-.21c.5.89.05,1.42-.55,1.86-.9.65-1.89,1.2-2.72,1.93a13,13,0,0,1-5.28,2.54,1.67,1.67,0,0,1-2.18-1c-.08-.2-.12-.4-.19-.6-.28-.78-.69-.88-1.29-.33a7.87,7.87,0,0,1-5.8,2.32,4,4,0,0,1-3.66-2.76,11.08,11.08,0,0,1-.34-4,8.28,8.28,0,0,0-.18-1.44,18.36,18.36,0,0,1,.16-6.69,14.7,14.7,0,0,0,.2-1.71c0-.55.18-1,.86-.89s1.32.41,1.22,1.32c-.12,1.16-.31,2.32-.31,3.47,0,1.37.17,2.74.23,4.11,0,1.17,0,2.33.06,3.5,0,2.27,1.24,3.12,3.35,2.8a11.31,11.31,0,0,0,3.65-1.22,1.31,1.31,0,0,0,.71-1.84,23.72,23.72,0,0,1-.69-3.37c-.29-1.54-.54-3.08-.86-4.61a1.6,1.6,0,0,1,1.54-2.17,32.14,32.14,0,0,1,4.36-.31,22.22,22.22,0,0,1,4,.81c1.12.28,2.21.65,3.5,1a4,4,0,0,1-3.08.91c-2.42,0-4.85-.39-7.26.13-.46.1-.63.24-.52.73.26,1.15.43,2.33.71,3.47a1,1,0,0,0,.71.58c1.12,0,2.23-.21,3.35-.25a26.22,26.22,0,0,1,2.89.12.57.57,0,0,1,.36.43.86.86,0,0,1-.32.54,7.79,7.79,0,0,1-3.63,1.41C231.68,16.55,230.87,16.75,229.78,17Z"/><path d="M300.44,8.68,297,13.27a14.45,14.45,0,0,1,1.66.74c.24.15.38.48.56.73-.26.18-.49.46-.78.51a4.45,4.45,0,0,1-3.45-1c-2.34-1.65-4.59-3.43-6.93-5.2-.09.56-.21,1.14-.27,1.72a18.31,18.31,0,0,0-.17,2.73c.1,1.79.32,3.57.46,5.36a11.29,11.29,0,0,1,0,2.48c0,.31-.63.72-1,.74a1.24,1.24,0,0,1-1-.69,15.19,15.19,0,0,1-.41-2.45c-.19-1.41-.45-2.81-.52-4.23a27.31,27.31,0,0,1,.17-3.32c.11-1.61.21-3.21.36-4.82,0-.52.18-1.4.42-1.46a2.47,2.47,0,0,1,1.86.28C289.61,6.59,291,8,292.47,9.31c.69.63,1.35,1.28,2.08,1.87a.76.76,0,0,0,.74,0c1.23-1.46,2.47-2.93,3.59-4.47a18.24,18.24,0,0,0,1-2.17,2.1,2.1,0,0,1,1-1c.57-.19,1.25-.13,1.41.71.25,1.24.5,2.47.74,3.71a47.9,47.9,0,0,1,.56,9.3c0,1.43,0,2.86,0,4.28,0,.87-.59,1-1.15,1.14a.88.88,0,0,1-1.16-.74A19.43,19.43,0,0,1,301,19c0-1.07.06-2.14.09-3.22,0-.34,0-.69,0-1q-.19-2.85-.41-5.71C300.68,8.95,300.54,8.83,300.44,8.68Z"/><path d="M207.32,24.13a12.77,12.77,0,0,1-5-1.58,25.25,25.25,0,0,0-2.86-1.49,1.87,1.87,0,0,0-1.35.33c-.21.12-.27.59-.28.9a14.35,14.35,0,0,1,0,1.73,1.69,1.69,0,0,1-.68,1c-.11.08-.57-.27-.83-.48a1.11,1.11,0,0,1-.53-1.22,1.6,1.6,0,0,0-.38-1,1.64,1.64,0,0,1-.2-1.71,5.47,5.47,0,0,0,0-2.65c-.26-1.47-.69-2.9-1-4.36-.24-1-.42-2.06-.65-3.08-.14-.62-.25-1.22.36-1.65.16-.11.48-.25.56-.18,1,.86,2.09.15,3.06-.07a5.43,5.43,0,0,1,5.3,1.59c.79.82,1,2.22,1.38,3.4a3.73,3.73,0,0,1-1,3.43c-.46.62-1,1.17-1.47,1.8a.74.74,0,0,0,.18.7c1.32.77,2.68,1.49,4,2.23.8.44,1.59.89,2.36,1.38a.77.77,0,0,1,.21.63c0,.14-.26.33-.42.37A3.64,3.64,0,0,1,207.32,24.13Zm-9.73-4.75c.72-.57,1.33-1,1.87-1.49a23.69,23.69,0,0,0,2.25-2.29c.59-.73.33-2.64-.28-3.36a3.92,3.92,0,0,0-5.25-.34Z"/><path d="M163.18,21.2c.06,1.1.09,2.38.21,3.65.07.79-.52.82-1,.93a.84.84,0,0,1-1.05-.75c-.51-2.68-1.14-5.34-1.45-8s-.29-5.45-.41-8.17A.85.85,0,0,1,160.69,8c1.21.48,2.31-.21,3.46-.14.95.06,1.9-.11,2.86-.12.45,0,.91.19,1.35.15,1.07-.1,1.77.37,2.2,1.64a5.37,5.37,0,0,1-1.07,5.62c-1.26,1.4-2.66,2.68-4,4-.41.41-.81.84-1.24,1.23S163.62,20.87,163.18,21.2Zm-.51-2.47.44.16c1.4-1.5,2.82-3,4.17-4.51a11.5,11.5,0,0,0,1.43-2.11,1.35,1.35,0,0,0-.86-2c-2-.51-3.89.21-5.82.42-.13,0-.32.44-.3.66.1,1.61.2,3.22.38,4.82A23.89,23.89,0,0,0,162.67,18.73Z"/><path d="M181.19,17.63a31.21,31.21,0,0,1-.31,3.78c-.5,2.6-2.93,4.35-5.51,2.58a4.31,4.31,0,0,1-1.88-3.19,15.31,15.31,0,0,1-.05-4.48,41.41,41.41,0,0,0-.15-5.09,1.83,1.83,0,0,1,.81-1.2c.72-.5,1.57-.81,2.32-1.27a1.35,1.35,0,0,1,1.76.12c1.78,1.38,2.33,3.36,2.71,5.41C181.07,15.27,181.08,16.29,181.19,17.63ZM177,10.93c-.2.16-.46.27-.53.45a10.57,10.57,0,0,0-.73,2.27,25.26,25.26,0,0,1-.07,2.76,10.83,10.83,0,0,0,.22,4.6,1.4,1.4,0,0,0,1.47,1.31c.43,0,.93-.56,1.21-1a6.41,6.41,0,0,0,.81-3.77,25.75,25.75,0,0,1-.31-2.67c.12-1.49-.8-2.45-1.5-3.54C177.5,11.18,177.28,11.1,177,10.93Z"/><path d="M190.42,20.19c-.26-1-.49-2.08-.77-3.11-.55-2-1.17-4.07-1.64-6.13a1.45,1.45,0,0,1,.76-1.15c.76-.31.87.55,1,1,.57,2.3.94,4.64,1.56,6.92a7.68,7.68,0,0,1,.35,3.93,3.54,3.54,0,0,1-1.47,2.25,3.82,3.82,0,0,1-3.75.57c-1.39-.54-1.83-1.78-2.16-3a32.26,32.26,0,0,1-.42-3.24c-.26-1.62-.67-3.23-.84-4.86a6.22,6.22,0,0,1,.44-2.45,1.3,1.3,0,0,1,.94-.51,2.91,2.91,0,0,1,.91,1.35,26.82,26.82,0,0,1,.23,2.91c.11,1.24.19,2.48.38,3.7a27.3,27.3,0,0,0,.71,3.15,1.59,1.59,0,0,0,2.57.92A2.84,2.84,0,0,0,190.42,20.19Z"/><path d="M318.13.65a2.14,2.14,0,0,1,0-.65s2.31.27,2.31.8a4.45,4.45,0,0,1,0,.75C320.43,1.61,318.13,1.08,318.13.65Z"/><path d="M216.31,8.08v6.5H216V8.11Z"/><path d="M62.57,20.65c.7.1,1-.4.79-.86a1.7,1.7,0,0,0-1.07-.94c-.53-.1-1.28.19-1.22.86S61.91,20.59,62.57,20.65Z"/><path d="M57.57,14.57c0,.74-1.18,1.69.41,2,.54.1,1.15.12,1.32-.61S58.64,14.66,57.57,14.57Z"/><path d="M57.45,17.65c-.5.56-1,.86-1,1.2-.06.56.22,1.24.91,1.19a1.38,1.38,0,0,0,1-.9C58.38,18.75,57.89,18.33,57.45,17.65Z"/><path d="M27.34,12.86a3.51,3.51,0,0,0,1.29.53,1.12,1.12,0,0,0,.75-.82c0-.47-.16-1.27-.88-1.1-.46.11-.82.67-1.22,1Z"/><path d="M41.3,19.39c1.06-.08,1.2-.24,1.06-1.28-.07-.56-.76-.78-1.79-.55a1.82,1.82,0,0,0,.76,1.85Z"/><path d="M68,21.07c.09-1.09-.51-1.36-1.08-1.46-.19,0-.64.48-.71.79a.89.89,0,0,0,.94,1.13C67.49,21.53,67.82,21.17,68,21.07Z"/><path d="M49.64,16.79c-.27.35-.72.68-.77,1.06-.09.63.38.89,1,1,.81.09.88-.51.84-1s-.44-.7-.68-1Z"/><path d="M55.05,15.8c-.32-.23-.72-.71-.94-.64-.4.13-1,.58-1,.91a1.34,1.34,0,0,0,.89,1C54.57,17.12,55,16.69,55.05,15.8Z"/><path d="M42.5,16.58c.71.18.91-.37.81-.89-.06-.34-.49-.88-.75-.87-.48,0-1.12.13-1.13.9S41.82,16.62,42.5,16.58Z"/><path d="M18.66,18.9c.17.86.42,1.38,1.11,1.16a1.26,1.26,0,0,0,.76-.86.85.85,0,0,0-1-.92C19.15,18.34,18.87,18.73,18.66,18.9Z"/><path d="M16.55,23.18a10.76,10.76,0,0,0,1.69.92c.13,0,.67-.54.62-.66A7.82,7.82,0,0,0,18,22.14Z"/><path d="M36.51,12.92c-1-.19-.68.67-1,1.06.38.25.74.66,1.13.71s.85-.58.79-.75C37.34,13.48,37.41,12.59,36.51,12.92Z"/><path d="M16.62,28.07c-.34-.17-.71-.52-1-.46s-1.19-.24-1.13.65a1.12,1.12,0,0,0,1.26,1c.31,0,.62-.52.93-.81Z"/><path d="M17.62,37.44c.12-.8-.59-.93-1-1-.23,0-.68.59-.78,1-.2.73.54.84,1,.89A.72.72,0,0,0,17.62,37.44Z"/><path d="M54.75,14.37c.65,0,1.12-.14,1.08-.83s-.51-.78-1.05-.84-.9.3-.91.83S54.14,14.49,54.75,14.37Z"/><path d="M20.14,11.25c-.4.6-.89,1-.8,1.25a1.56,1.56,0,0,0,1,.88c.28,0,.86-.57.86-.88S20.69,11.84,20.14,11.25Z"/><path d="M11.47,32.47a8.16,8.16,0,0,0,1.45.69c.14,0,.6-.4.6-.63s-.26-1.07-.39-1.06a7,7,0,0,0-1.59.42Z"/><path d="M52,19.43a4.42,4.42,0,0,0,.91,1.17A1.12,1.12,0,0,0,54,20.43a1,1,0,0,0,0-1C53.46,18.93,52.81,18.88,52,19.43Z"/><path d="M23.91,34.77a4,4,0,0,0,1,.8c.48.16,1-.1.93-.67s-.16-1.2-.92-1.11c-.35,0-.68.37-1,.57Z"/><path d="M14,14.54a4.74,4.74,0,0,0,1.32.86c.21.05.67-.45.82-.79.08-.18-.2-.64-.44-.81C15,13.32,14.54,13.77,14,14.54Z"/><path d="M25.68,15.08c.95.24.87-.6.9-1,0-.24-.6-.73-.93-.72a1.21,1.21,0,0,0-.9.78C24.7,14.63,24.91,15.25,25.68,15.08Z"/><path d="M17.39,30.8c-.54,0-.91.15-.89.84s.47,1,1,.88a1.4,1.4,0,0,0,.86-.91C18.45,31,18,30.77,17.39,30.8Z"/><path d="M14.89,35.37l1.25-1.1L15.05,33.2a3.9,3.9,0,0,0-.87,1.07C14.11,34.49,14.55,34.87,14.89,35.37Z"/><path d="M22,38.28a5.31,5.31,0,0,0-1-1.16c-.19-.12-.76.15-1,.4a.91.91,0,0,0,.09.89C20.55,38.91,21.17,39,22,38.28Z"/><path d="M46.27,13.29a8.61,8.61,0,0,0-1.6-.32c-.15,0-.5.63-.42.74.23.35.63.8,1,.81s.76-.44,1.14-.68Z"/><path d="M31.63,16.4c-.15-.78-.4-1.1-1-1.11a.81.81,0,0,0-.91.92,1.6,1.6,0,0,0,1,.87C31,17.14,31.33,16.64,31.63,16.4Z"/><path d="M16.56,20.62c.37-.49.73-.76.76-1.05a.92.92,0,0,0-1-1.05c-.34,0-.76.67-.83,1.08C15.45,19.82,16.06,20.16,16.56,20.62Z"/><path d="M11.29,33.58c-.62-.12-1,.25-.82.74s.62,1,.82,1c.42-.1.75-.56,1.12-.88l-.93-1Z"/><path d="M18.74,34.8l1.18,1c.22-.28.64-.57.62-.82,0-.46.07-1.23-.74-1.17-.35,0-.67.39-1,.6Z"/><path d="M52.65,15.25c.05-.06.41-.28.45-.54.09-.68-.2-1.22-1-1-.32.07-.85.47-.82.67C51.34,14.85,51.62,15.38,52.65,15.25Z"/><path d="M16.72,15.3c.15.79.45,1.22,1,1.06.38-.11.89-.56.91-.89,0-.62-.58-.9-1.12-.84C17.24,14.66,17,15.07,16.72,15.3Z"/><path d="M32.84,15.7c.41-.59.85-1,.78-1.17a3.9,3.9,0,0,0-.86-1.08c-.31.32-.84.62-.85,1S32.38,15.1,32.84,15.7Z"/><path d="M17.06,41.87a.74.74,0,0,0,.88-.89c-.05-.33-.59-.85-.82-.81a1.35,1.35,0,0,0-.92.85A.71.71,0,0,0,17.06,41.87Z"/><path d="M32.8,16.77c-.11,1,.46,1.24.92,1.17s.88-.64.82-.84a1.52,1.52,0,0,0-.93-.94C33.35,16.1,33,16.64,32.8,16.77Z"/><path d="M17.63,25.26c.59.41.95.85,1.32.86s.88-.59.83-.78a1.44,1.44,0,0,0-.88-.92C18.61,24.36,18.22,24.85,17.63,25.26Z"/><path d="M39.34,18.56c.21-.31.56-.6.59-.92a.86.86,0,0,0-1-1c-.31,0-.83.56-.79.78.08.41.49.75.77,1.13Z"/><path d="M48.05,16.61c0-1-.68-1-1.11-1.08-.2,0-.71.57-.66.7a2.24,2.24,0,0,0,.88,1C47.29,17.34,47.75,16.85,48.05,16.61Z"/><path d="M17.46,27.92c0,.94.63,1.5,1.24,1.11.3-.19.4-.71.58-1.08a3.79,3.79,0,0,0-.92-.27A3.25,3.25,0,0,0,17.46,27.92Z"/><path d="M9.82,31H8.11a4.83,4.83,0,0,0,.41,1.36,1,1,0,0,0,.91,0A4.59,4.59,0,0,0,9.82,31Z"/></g></g></svg>