<svg xmlns="http://www.w3.org/2000/svg" viewBox="0 0 153.75 109.5"><defs><style>.cls-1{fill:#fff;}</style></defs><title>soiree_title</title><g id="Layer_2" data-name="Layer 2"><g id="soiree"><path class="cls-1" d="M0,31.66a5.68,5.68,0,0,1,.72-.87,1.78,1.78,0,0,1,2.81.6,2.43,2.43,0,0,1,.13.32,10.31,10.31,0,0,0,4.69,5.17,27.93,27.93,0,0,0,4,1.9,4.45,4.45,0,0,0,1.33.1,7.65,7.65,0,0,1,1.8.18,3.49,3.49,0,0,0,3.3-.85A5,5,0,0,0,21,33.88a14.92,14.92,0,0,0-2.52-8.09A102,102,0,0,0,12.26,17c-.93-1.16-2-2.24-2.94-3.36a14.33,14.33,0,0,1-1.84-2.18,6.35,6.35,0,0,1-.74-2.5,8.4,8.4,0,0,1,1.46-6C10.1.43,13.74-1,16.81.83c.91.54,1.86,1,2.78,1.57a1.73,1.73,0,0,1,.49.47,11.29,11.29,0,0,1,1.81,3.55,8.51,8.51,0,0,0,.65,1.32c.22.45.58,1,.17,1.38a4.2,4.2,0,0,1-1.52.64.45.45,0,0,1-.39-.19C20.4,8.81,19.6,8.3,19.62,7.3a4.73,4.73,0,0,0-1.85-3.65c-1.58-1.45-3.39-1.43-5.29-1.17-.71.1-1.08.7-1.38,1.27a4.35,4.35,0,0,0-.28,2.67c.33,2.59,1.51,4.87,2.41,7.26a3,3,0,0,0,.67,1,27.51,27.51,0,0,1,4.14,5.34c.92,1.49,2,2.87,2.95,4.34a15.56,15.56,0,0,1,1.4,2.74,16.33,16.33,0,0,1,1.36,6.13,2.36,2.36,0,0,1-.1.91c-.63,1.38-1.15,2.81-1.82,4.17a4.46,4.46,0,0,1-2.64,2.12,12.57,12.57,0,0,1-6.53.82,20.45,20.45,0,0,1-3.61-1A6.84,6.84,0,0,0,8.32,40a11.41,11.41,0,0,1-5.85-3.17A8.47,8.47,0,0,1,.9,34.08,2.39,2.39,0,0,0,0,32.81Z"/><path class="cls-1" d="M130.55,35.78c-.58.05-.76.38-.84.85a.88.88,0,0,1-.81.83c-.55.07-.72-.29-.93-.67a9.16,9.16,0,0,0-.67-.93,5.4,5.4,0,0,0-1,2.53.92.92,0,0,1-1.42-.41,5.36,5.36,0,0,0-.61-.83,1.52,1.52,0,0,0-2.58.06c-.33.46-.54,1-.89,1.46a1.7,1.7,0,0,1-.88.6c-.45.1-.67-.25-.76-.68a1.1,1.1,0,0,0-.14-.31c-1-1.75-1.74-1.93-3.39-.82-.13.09-.23.2-.36.28-.53.32-.84.22-1.25-.28a19.58,19.58,0,0,0-1.74-2,3.73,3.73,0,0,0-5-.23l-.92.68c-.84,0-1.07-.61-1.16-1.3a5.94,5.94,0,0,0-.11-1.25,2.07,2.07,0,0,0-.77-1.16c-.27-.12-.81.25-1.18.49s-.66.63-1,.88a.92.92,0,0,1-.73.09c-2.19-.89-4.38-1.78-6.53-2.75a2.7,2.7,0,0,1-1.21-3.44A87.31,87.31,0,0,1,100.9,14a52.34,52.34,0,0,1,3.94-5.21c.85-1,1.63-1,2.66-.2,1.3,1.06,2.63,2.1,4,3.14.45.35.46.39.2,1.57l1.46,1.24a4.63,4.63,0,0,1,.38-1.12c.2-.28.52-.65.81-.66.48,0,.71.41.67.88a2.13,2.13,0,0,0,1.1,2.14c.2-.44.38-.83.56-1.22.09-.2.11-.48.26-.61a.94.94,0,0,1,.7-.25c.19,0,.35.35.45.57s.15.77.36,1c.55.71,1.22.37,1.92.06,0-.15,0-.34,0-.52a.71.71,0,0,1,.64-.81c.5-.08.67.28.85.61s.19.58.35.83a3.17,3.17,0,0,0,.56.54,1.22,1.22,0,0,0,.22-1.34c-.11-.49-.11-1,.47-1.13a.88.88,0,0,1,1.07.66,1.07,1.07,0,0,0,1.36.85,5.68,5.68,0,0,1,.12-1c.09-.29.24-.68.47-.79a1.27,1.27,0,0,1,.95.11c.25.12.41.43.74.8.18-.52.31-.9.43-1.29a4,4,0,0,1,.19-.64,2.27,2.27,0,0,1,1.72-1.33c.6-.09,1.2-.2,1.8-.27.87-.1,1.75-.15,2.62-.26a2.24,2.24,0,0,1,2.56,1.43,14.79,14.79,0,0,1,.84,2.13c.28,1.14.42,2.31.61,3.42,0-.08,0-.3.14-.4a6.22,6.22,0,0,1,.8-.52c.16.28.46.58.44.85a3.91,3.91,0,0,0,.24,2c.27.62.57,1.23.88,1.84a8.11,8.11,0,0,1,.92,5.2,28.91,28.91,0,0,1-1.46,4,2,2,0,0,0-.11,1.44.92.92,0,0,1-.29,1.19l-1-.24c.16,1.09.27,2.1.48,3.1.16.76-.31,1.5-1,1.28a1.56,1.56,0,0,0-1.37.29,6.1,6.1,0,0,1-4.79.43c-.66-.19-1.19-.91-1.75-1.41A3.29,3.29,0,0,1,130.55,35.78Zm6.76-16.46.24,0c-.14-1.36-.19-2.73-.44-4.07a10.91,10.91,0,0,0-1-2.67,1.28,1.28,0,0,0-1-.63c-1.37.12-2.72.37-4.08.57a.64.64,0,0,0-.61.8q.06.51.11,1c.1,1.1.24,2.2.29,3.31.06,1.29,0,2.58.09,3.87,0,.45.08.91.12,1.36.22,2.39.76,4.78.54,7.19a18.81,18.81,0,0,0,.27,4.33,2.09,2.09,0,0,0,2.49,2.06c1-.08,1.95-.26,2.93-.36s1.09-.19,1-1.21c-.14-1.25-.34-2.5-.4-3.76-.08-2-.06-4-.09-6,0-.3,0-.61-.07-.91Zm-36.8,12.53c.38-.74.74-1.36,1-2,.53-1.19,1-2.4,1.55-3.58,1-2.34,2.1-4.68,3.17-7a27.83,27.83,0,0,1,3.47-6.18,2.77,2.77,0,0,0,.29-.61c-1.08-.86-2.14-1.68-3.16-2.53a.74.74,0,0,0-1.12.1,9.22,9.22,0,0,0-2.14,2.76c1.44.64,1.7.95,1.64,1.94l-2.3-.83-.09.22c.38.24.79.45,1.15.72s1,.28.94,1.1l-3.11-.6-.51.87c1.18.43,1.55.86,1.57,1.72-1,.09-1.07,0-2.07-.93l-.39.8A3.37,3.37,0,0,1,103,19.31c-.5.53-1.08.08-1.58.07a1.4,1.4,0,0,1-1.48-.87L99,20.21c.74.44,1.55.63,2,1.52-1,.41-1.88-.11-2.82-.35l-.28.7c.82.61,2,.76,1.89,2.19l-2.68-1-.41,1.08c.7.51,1.56.79,2,1.88l-2.56-.38c-.32.65-.65,1.26-.91,1.89-.41,1-.24,1.35.74,1.79.56.25,1.13.47,1.67.75C98.6,30.77,99.52,31.3,100.51,31.85Zm13.32-16s-.13.07-.15.13c-.91,2.52-1.8,5-2.74,7.55-.54,1.43-1.15,2.83-1.74,4.25-.44,1.06-.89,2.11-1.33,3.17a11.56,11.56,0,0,0-.84,2.53c2.56-.74,4.82-.47,6.8,1.47,1-5.94,1.53-11.79,2.06-17.5Zm6.3,1.48-2.77-.5a3.82,3.82,0,0,0-.23.74q-.4,3.13-.77,6.27-.42,3.59-.82,7.17c-.12,1.1-.23,2.21-.34,3.31a1.23,1.23,0,0,0,.57,1.31,2.77,2.77,0,0,1,3.52.71Zm5.48,18.94c-.42-3.33-.84-6.4-1.18-9.48s-.61-6.27-.91-9.37l-2.18-.19a1.37,1.37,0,0,0-.09.35q-.14,3.08-.27,6.17c-.12,2.84-.27,5.69-.35,8.53a14.73,14.73,0,0,0,0,3.65C122.45,34.4,123.21,34.77,125.61,36.25ZM112.56,15.9l-2-1.48a10.82,10.82,0,0,0-1.25,1.88c-.94,2.33-2.51,4.38-3.13,6.85a2.6,2.6,0,0,1-.2.41c-.62,1.35-1.27,2.69-1.85,4.06A13.58,13.58,0,0,0,103,30.88a5.58,5.58,0,0,1,1.78-.05,5.69,5.69,0,0,1,1.44,1C108.81,26.7,110.49,21.19,112.56,15.9Zm12.14.66a124.77,124.77,0,0,0,1.7,17.82l1.62.13c-.12-2-.23-4.05-.37-6.06s-.29-4-.47-6-.41-4-.61-6Zm4.58-1.34a2.4,2.4,0,0,1-.36.14c-1,.21-1.31.84-1.2,1.83.13,1.18.2,2.36.24,3.55a59.47,59.47,0,0,0,.57,7.09,29.89,29.89,0,0,1,.23,3.08c.06,1.2.09,2.4.14,3.72l1.32-.47c0-1.4-.08-2.74,0-4.07a27.32,27.32,0,0,0-.4-6.29,34,34,0,0,1-.27-5.26A11.08,11.08,0,0,0,129.28,15.23Zm10,15.41c.6-1.44,1.1-2.62,1.59-3.81a4.37,4.37,0,0,0,0-3.45c-.54-1.29-1.18-2.54-1.77-3.81l-.17,0Z"/><path class="cls-1" d="M80.91,107.25a1.75,1.75,0,0,1-1.83.8,4.88,4.88,0,0,0-2.37-.11c-.45.15-.85-.27-.91-.79,0-.34,0-.69,0-1-.07-2.64-.15-5.28-.21-7.92-.08-3.33-.14-6.66-.23-10,0-1.07-.13-2.14-.14-3.21a24.34,24.34,0,0,0,.12-2.51c-.28-2.5.43-4.95.27-7.43-.07-1.1-.14-2.21-.29-3.3-.18-1.4-.43-2.79-.66-4.18,0-.3-.12-.6-.16-.9-.12-.85.42-1.55,1.24-1.36,2.18.51,4.32-.17,6.49-.06a16.77,16.77,0,0,1,7.28,1.69,4.09,4.09,0,0,1,2.19,2.52c.2.71.57,1.38.74,2.1a11,11,0,0,1-.73,7.05c-.69,1.62-1.25,3.3-2.06,4.85-1.23,2.37-2.62,4.67-3.95,7-.45.79-.46.95.06,1.64a4,4,0,0,1,.31.34c1.38,2.34,2.79,4.66,4.11,7a13.92,13.92,0,0,0,3.23,4c.88.74,1.78,1.45,2.62,2.23a5.94,5.94,0,0,0,2.8,1.63,1.68,1.68,0,0,1-2.62,1.39c-.73-.49-1.34-1.13-2.07-1.63a22.69,22.69,0,0,1-5.07-4.64,32.42,32.42,0,0,1-2.64-3.86c-.82-1.41-1.46-2.92-2.19-4.38,0-.06-.12-.09-.29-.21-.18.32-.38.63-.54,1-.56,1.13-1.13,2.25-1.65,3.4s-1,2.3-1.45,3.48a2.6,2.6,0,0,0,0,1.13c.12,1.14.26,2.28.42,3.41A7.81,7.81,0,0,0,80.91,107.25Zm-1-11.07c.66-1,1.3-2,1.86-2.95,2-3.51,4.16-7,6-10.54a22.76,22.76,0,0,0,2.41-7.37,8.53,8.53,0,0,0-.38-4.42,5,5,0,0,0-4.67-3.26A26.94,26.94,0,0,1,79,67.26a5.27,5.27,0,0,0-1.34.16,17.31,17.31,0,0,1,.15,2.19c-.13,2.16-.49,4.33.23,6.46a.51.51,0,0,1,0,.23,15.23,15.23,0,0,0,.39,4.41c.16,1.13.31,2.27.41,3.4s.13,2.36.23,3.54C79.38,90.43,79.65,93.21,79.93,96.18Z"/><path class="cls-1" d="M69.31,107.56c-1.36,0-1.47-.1-1.36-1.32,0-.34,0-.69,0-1,.07-2.68.17-5.36.22-8,0-.84-.13-1.68-.17-2.52-.1-2.29-.23-4.59-.26-6.88s.06-4.73.06-7.1c0-1.45-.11-2.91-.12-4.36,0-1.29.07-2.59,0-3.89-.09-5.21-.23-10.42-.3-15.64,0-2.64.08-5.29.06-7.93q0-8.33-.16-16.66c0-1-.18-2-.21-3,0-1.38-.07-2.76,0-4.14A28.33,28.33,0,0,0,66.71,20a17.61,17.61,0,0,1-.09-2.52c0-.4.26-.57.61-.82,1-.69,1.8-.14,2.67.09.41.11.46.47.45.83-.07,1.6.21,3.17.08,4.8-.19,2.26.06,4.56.08,6.85,0,3.25,0,6.51,0,9.76,0,1.45.1,2.9.12,4.35,0,1,0,2.05,0,3.08q0,2.82.09,5.63c0,1,.12,2,.11,3,0,3-.15,6-.18,8.93,0,1.81.06,3.62.08,5.43,0,.38-.09.75-.12,1.13q-.13,2.41-.24,4.82c-.08,1.68-.19,3.36-.22,5,0,2.59,0,5.18-.17,7.77-.2,3.51-.17,7,0,10.55a23.55,23.55,0,0,0,1,6.67,27.81,27.81,0,0,1,.66,2.78.94.94,0,0,1-.53,1.14,1,1,0,0,1-1.27-.46,4.77,4.77,0,0,1-.21-.65C69.48,108,69.4,107.79,69.31,107.56Z"/><path class="cls-1" d="M126.36,68.43l-1,20.05a4.85,4.85,0,0,0,.88.31,32.58,32.58,0,0,0,10.39-.23,14.15,14.15,0,0,1,2.16-.22c.84,0,1.22.22,1.31.79a1.49,1.49,0,0,1-1,1.47c-.6.12-1.22.12-1.83.18-1,.1-2,.16-2.93.33a36.51,36.51,0,0,1-7.76.68c-.26,0-.53,0-.93,0a9.67,9.67,0,0,0,0,1.26c.24,1.79.11,3.59.23,5.37a39.77,39.77,0,0,0,.74,5.45,3.5,3.5,0,0,0,1.85,2.39,4.83,4.83,0,0,0,3.2.55,19.57,19.57,0,0,1,3.31-.3,6.66,6.66,0,0,0,4.72-1.68.85.85,0,0,1,1-.27c.21.09.65-.26.93-.48s.76-.51,1.24,0a5,5,0,0,1-1.75,2.6,9.83,9.83,0,0,1-5.32,2.24c-1.21.13-2.41.45-3.62.54a8.2,8.2,0,0,1-6-1.66,4.3,4.3,0,0,1-1.17-1.81c-.56-1.54-1-3.13-1.49-4.69a10.09,10.09,0,0,1-.42-3.17c0-2.26,0-4.53-.19-6.77s-.13-4.28-.23-6.41-.33-4-.42-6c-.12-2.53-.22-5.06-.2-7.59,0-1.48.28-3,.45-4.45a.69.69,0,0,1,.76-.69c.77,0,1.53,0,2.3,0a64.56,64.56,0,0,0,8.49-.43,31.1,31.1,0,0,1,3.79-.11,7.9,7.9,0,0,1,1.57,0c.67.12.8.44.72,1.28-.05.56-.45.62-.9.65l-8.8.51Zm-1.89,1.21a10.6,10.6,0,0,0-.27,5.23Z"/><path class="cls-1" d="M57.81,19.64c-.32,2.23-.68,4.53-1,6.84A27,27,0,0,1,55,33a10.77,10.77,0,0,1-4.26,5.4,16.08,16.08,0,0,0-1.38,1c-1.42,1.1-3.06,1.06-4.72.94a6.48,6.48,0,0,1-3.77-1.76A19,19,0,0,1,37,34.77a13.26,13.26,0,0,1-1.83-4.05c-.24-.93-.56-1.83-.76-2.76a24.69,24.69,0,0,1-.37-2.48c-.08-.68-.12-1.37-.16-2.06a40.38,40.38,0,0,1,.54-7.77,71.64,71.64,0,0,1,1.35-7.2,11.83,11.83,0,0,1,3.34-5.92A7.63,7.63,0,0,1,42.36.4c3-.75,5.7-.58,8.08,1.67a23.17,23.17,0,0,1,3.89,4.31,14.57,14.57,0,0,1,1.6,3.15,28.45,28.45,0,0,1,1.22,6.17C57.29,17,57.57,18.24,57.81,19.64Zm-2.28,1.65c-.17-2.33-.28-4.47-.49-6.6a15.52,15.52,0,0,0-3.85-9.26,20.43,20.43,0,0,0-2.94-2.54,4.31,4.31,0,0,0-1.81-.64,12.1,12.1,0,0,0-1.59.09,4.68,4.68,0,0,0-4.23,2.51,44.79,44.79,0,0,0-3,6,11.66,11.66,0,0,0-.88,3.88c-.1,2.17.13,4.36.12,6.53a55,55,0,0,0,.78,8.17A9.56,9.56,0,0,0,39,33.12a15,15,0,0,0,3.56,4,3.75,3.75,0,0,0,3.2.94c1.26-.29,2.48-.75,3.71-1.15.1,0,.17-.15.26-.22a9.33,9.33,0,0,0,2.73-3.21c.53-1.1.9-2.27,1.39-3.4C55,27.21,55.15,24.13,55.53,21.29Z"/><path class="cls-1" d="M5.65,50.74a60.32,60.32,0,0,1-.32,7c-.08,1.4.13,2.82.17,4.24,0,.8,0,1.61,0,2.41a1,1,0,0,1-1.07,1.1c-.52,0-.88-.4-.9-1.12,0-.87,0-1.75,0-2.62-.09-2.18-.1-4.37-.36-6.53S2.89,50.91,2,48.93a1.17,1.17,0,0,1,.21-1.38c.38-.41.8-.23,1.26-.07,3,1,5.82,2.28,8.84,3.15,2.12.61,4.15,1.55,6.24,2.29S23,54.49,25.27,55.2c3.17,1,6.32,2.05,9.4,3.33,1.73.72,3.51,1.33,5.26,2,1.5.56,3,1.22,4.51,1.67a13.87,13.87,0,0,0,5.54.58,4.16,4.16,0,0,0,3.13-1.88,7.89,7.89,0,0,0,1.43-2.72,2.4,2.4,0,0,0,.12-.79,8.1,8.1,0,0,0-2.35-5.1,9.81,9.81,0,0,0-2.68-1.49c-1-.43-2-.72-3-1.08a2.64,2.64,0,0,1-.62-.29.73.73,0,0,1-.28-1,1.47,1.47,0,0,1,.79-.54,1.62,1.62,0,0,1,.78.12c2.44.64,4.87,1.29,6.79,3.11a8.13,8.13,0,0,1,2.51,7.71c-.06.38-.22.74-.28,1.11a5.23,5.23,0,0,1-3.27,4,11.3,11.3,0,0,1-3.75.92,23,23,0,0,1-4.69-.21,25.71,25.71,0,0,1-5.74-1.49c-1.35-.52-2.77-.85-4.12-1.36s-2.66-1.17-4-1.72c-1.52-.61-3.07-1.15-4.59-1.76-2.62-1.06-5.2-2.21-7.83-3.23a86.24,86.24,0,0,0-9-3.28c-1-.26-2-.65-2.94-1A4.08,4.08,0,0,0,5.65,50.74Z"/><path class="cls-1" d="M105,89.33c1,.08,2,.2,3.07.21,2.15,0,4.3,0,6.45,0a1.87,1.87,0,0,1,1.44.58c.44.45.37.93-.2,1.18a2.84,2.84,0,0,1-1.1.24c-2.14,0-4.27,0-6.41,0-1,0-2-.11-3.15-.18,0,1.28,0,2.42,0,3.55,0,1.92,0,3.84,0,5.75a11.56,11.56,0,0,0,.39,3.52,2.87,2.87,0,0,0,2.67,2.13,8.41,8.41,0,0,0,4.36-.62c1.09-.54,2.08-1.29,3.19-1.8.78-.37,1.52-1.1,2.52-.7.45,1.19.33,1.41-.62,2.06a36.92,36.92,0,0,1-4.83,2.49c-.4.2-.74.52-1.14.69-1.32.55-2.65.11-4-.09a7.74,7.74,0,0,1-2.26-.76,3.19,3.19,0,0,1-1.65-1.83,11.78,11.78,0,0,1-.72-3.58c0-2.57-.19-5.13-.27-7.69,0-1.45,0-2.9,0-4.34-.08-1.79-.22-3.58-.35-5.37-.1-1.49-.23-3-.31-4.47-.14-2.48-.24-5-.36-7.45a2.41,2.41,0,0,1,0-.8,2,2,0,0,0-.5-2.11.84.84,0,0,1-.16-.63,13.72,13.72,0,0,1,.53-2.6c.08-.23.93-.43,1.23-.27a4.64,4.64,0,0,0,2.36.22,38.54,38.54,0,0,0,5.26,0,39,39,0,0,1,5.83,0,2.72,2.72,0,0,1,1.26.46c.45.28.37.76-.14.95a5.18,5.18,0,0,1-2.66.44,18.74,18.74,0,0,0-3.38.06l-5.69.19c-.91,0-1,.11-1,1s.11,1.53.15,2.29a6.22,6.22,0,0,1-.1,2.62,3.43,3.43,0,0,0-.06,1.14c0,2.51,0,5,.05,7.54C104.74,85.2,104.87,87.19,105,89.33Z"/><path class="cls-1" d="M29.77,78.48c.34.77.62,1.32.82,1.89.35,1,.67,2,1,3A1.28,1.28,0,0,1,31,84.9a5.66,5.66,0,0,1-3.45,1.35c-2.52.05-5,.14-7.55.23A1.51,1.51,0,0,1,18.66,86a1.65,1.65,0,0,0-.8-.37c-.5-.14-.84-.36-.77-1a.86.86,0,0,1,1-.88c2,0,4-.08,6-.08a17.53,17.53,0,0,0,4.33-.38,12.86,12.86,0,0,0,1.4-.54c-.51-.87-.94-1.62-1.39-2.36-.08-.13-.25-.21-.3-.34-.47-1.29-1.36-1.46-2.64-1.25a44.91,44.91,0,0,1-4.9.4,15.67,15.67,0,0,1-2.36,0c-.5,0-1-.24-.92-.93a1,1,0,0,1,.93-1c1.85-.28,3.68-.65,5.52-1,1.5-.25,3-.51,4.52-.66,1.17-.12,2.36-.09,3.54-.1s2.13.06,3.19,0c.68,0,1.36-.17,2-.19,1.37,0,2.74,0,4.11-.06,1.75-.06,3.51-.16,5.26-.25L47.75,75c1.49-.13,3-.29,4.46-.38,1.75-.1,3.51-.13,5.26-.17a3.28,3.28,0,0,1,.88.24c.82.23.92.35.79.93-.16.74-.5,1.07-1.19.92a10.29,10.29,0,0,0-3.3,0c-2.46.23-4.93.37-7.39.58q-4.49.38-9,.81c-1.17.11-2.34.35-3.51.45s-2.06.07-3.1.09C31.09,78.49,30.52,78.48,29.77,78.48Z"/><path class="cls-1" d="M37.29,72l-2.82.18a7,7,0,0,1-1.38,0c-3.66-.52-7.33.08-11,0a45.6,45.6,0,0,0-6.81.74,39.9,39.9,0,0,1-6.15.28c-2.4-.06-4.8.18-7.21.29l-.34,0c-.82,0-1.22-.2-1.33-.78A1.39,1.39,0,0,1,1.3,71.14a12.63,12.63,0,0,1,1.91-.24c2.09-.1,4.18-.13,6.27-.26,3.47-.21,6.94-.5,10.41-.71,1.82-.11,3.65-.13,5.47-.2,2.67-.11,5.33-.21,8-.35q2.74-.14,5.47-.37c1.25-.1,2.5-.27,3.75-.41a1,1,0,0,1,1,.4.85.85,0,0,1,0,1.06c-.21.31-.34.68-.56,1a1.12,1.12,0,0,1-.61.44c-1.5.25-3,.47-4.52.67A2,2,0,0,1,37.29,72Z"/><path class="cls-1" d="M14.78,97.91a3.21,3.21,0,0,1,1.51-2.42A8.5,8.5,0,0,1,21,93.84c.94,0,1.87-.27,2.81-.36a13.88,13.88,0,0,1,1.91,0c1.59.08,3.19.12,4.77.28a26.71,26.71,0,0,1,3.25.61,4.3,4.3,0,0,1,2.92,2.79,4.1,4.1,0,0,1-1.8,5.4,16.22,16.22,0,0,1-5.73,1.86,16.82,16.82,0,0,1-3.36.62,17.8,17.8,0,0,1-3.48-.47,12.3,12.3,0,0,1-6.09-3.23A4.55,4.55,0,0,1,14.78,97.91ZM16.71,99a17.33,17.33,0,0,0,1.8,1.76,8.67,8.67,0,0,0,2.38,1.34c1.8.58,3.61,1.3,5.56.83s3.85-.92,5.75-1.45a4.77,4.77,0,0,0,1.48-.84,1.48,1.48,0,0,0,.51-1.75,2.39,2.39,0,0,0-1.9-1.61,24.36,24.36,0,0,0-2.69-.49c-2.33-.34-4.66-.74-7-1A5.36,5.36,0,0,0,16.71,99Z"/><path class="cls-1" d="M47.79,83.47a11.32,11.32,0,0,1,5.48.79,4.49,4.49,0,0,1,2,1.55s0,.1,0,.11c1.65.75,1.11,2.35,1.3,3.6.31,2-.55,3.32-2.41,4.31a13.81,13.81,0,0,1-4.58,1.41,29.46,29.46,0,0,1-7-.3,14.21,14.21,0,0,1-6.06-2.56c-1.46-.9-2.63-2.18-2.1-4.19,0,0,0-.08,0-.11-.46-1.44.64-1.89,1.58-2.35a23,23,0,0,1,8.64-2Zm-.65,9.92a7.43,7.43,0,0,0,1.6,0,15,15,0,0,0,4.88-1.9c.92-.59,1-.9.6-1.87a2.67,2.67,0,0,0-1-1.35c-.45-.28-.63-1-1-1.44a1.29,1.29,0,0,0-.7-.36c-.74-.17-1.49-.33-2.24-.44a28.42,28.42,0,0,0-8.22.34,8.55,8.55,0,0,0-4,1.28c-1.19.87-1.14,1.72-.32,2.43A12.2,12.2,0,0,0,41,92.51,23.28,23.28,0,0,0,47.13,93.39Z"/><path class="cls-1" d="M149.86,90.28c-.07-1.49-.18-3-.21-4.47,0-.83.12-1.67.13-2.5,0-2.75,0-5.5,0-8.24,0-1.07-.19-2.13-.23-3.2s0-2.2,0-3.3c0-.5,0-1,0-1.49a1.52,1.52,0,0,1,1.28-1.39c.91-.1,1.48.44,1.19,1.31a12.16,12.16,0,0,0-.39,4.21c.08,3.16.2,6.32.3,9.48.08,2.44.19,4.87.27,7.31.05,1.52.1,3,.1,4.57,0,1.07-.18,2.14-.12,3.21s.29,2.19.46,3.28a7.07,7.07,0,0,1,.19,1.12c0,.75-.38,1.08-1.14,1.17-.59.06-1-.17-1.09-.89-.22-1.2-.36-2.42-.5-3.63-.11-.95-.16-1.91-.22-2.86,0-.61,0-1.22,0-1.83s0-1.22,0-1.83Z"/><path class="cls-1" d="M102.55,61.51a28.27,28.27,0,0,0,6-1.69,3,3,0,0,1,2-.14c.57.19,1.21.13,1.81.26.26.06.48.31.8.53a3.9,3.9,0,0,1-2,.94c-1.2.21-2.37.56-3.55.88s-2.42.66-3.62,1a1.32,1.32,0,0,1-1.47-.36A1.11,1.11,0,0,1,102.55,61.51Z"/><path class="cls-1" d="M67.64,10.86a1,1,0,0,1-1.37-.74,6.89,6.89,0,0,1-.16-5.74c.08-.17.13-.41.26-.5a1.49,1.49,0,0,1,.89-.33,1,1,0,0,1,.66.63c.14,1.74.24,3.49.26,5.24A4.52,4.52,0,0,1,67.64,10.86Z"/><path class="cls-1" d="M153,105.47a12.49,12.49,0,0,1,.7,1.53,2,2,0,0,1-1.16,2.2,1.7,1.7,0,0,1-2-1.44,2.45,2.45,0,0,1,1.44-2.13A7.62,7.62,0,0,1,153,105.47Z"/><path class="cls-1" d="M132.31,31.82a10.25,10.25,0,0,1,1.22-1.29c.31-.23.7.13.59.52a4.21,4.21,0,0,1-.46,1.14.74.74,0,0,1-.64.28C132.79,32.41,132.62,32.12,132.31,31.82Z"/><path class="cls-1" d="M136.35,29l-.45,1.6a.63.63,0,0,1-.95-.22,1.52,1.52,0,0,1,.4-1.55C135.73,28.5,136,28.62,136.35,29Z"/><path class="cls-1" d="M133.67,28.35c-.83-.2-1.24-.7-1-1.25a.75.75,0,0,1,.55-.42c.18,0,.39.26.52.46s0,.3,0,.45S133.69,28,133.67,28.35Z"/><path class="cls-1" d="M135.8,18.06c-.06.3.14.79-.44.85-.4,0-.77-.45-.78-1a.66.66,0,0,1,.69-.74C135.8,17.2,135.8,17.64,135.8,18.06Z"/><path class="cls-1" d="M134.81,22.07c0-.81.22-1.1.65-1.08s.53.36.54.72-.36,1-.69.86S134.89,22.17,134.81,22.07Z"/><path class="cls-1" d="M132.82,17.62l-.34,1.11c-.24-.08-.6-.09-.68-.25a1.19,1.19,0,0,1-.11-.93C131.91,17.12,132.31,17.21,132.82,17.62Z"/><path class="cls-1" d="M134.89,24.91c1,.39,1.32.68,1,1a1,1,0,0,1-.77.28c-.14,0-.35-.31-.38-.51A2.68,2.68,0,0,1,134.89,24.91Z"/><path class="cls-1" d="M133.08,21.38c-.78,0-1.17-.3-1.11-.75a.54.54,0,0,1,.65-.48C133.11,20.19,133.26,20.62,133.08,21.38Z"/><path class="cls-1" d="M133,24.47c-.12-.26-.4-.59-.33-.79s.46-.42.75-.53c.09,0,.42.26.43.42C133.86,24.05,133.54,24.31,133,24.47Z"/></g></g></svg>