<svg xmlns="http://www.w3.org/2000/svg" viewBox="0 0 458.45 135.62"><defs><style>.cls-1{fill:#fff;}</style></defs><title>soiree_line</title><g id="Layer_2" data-name="Layer 2"><g id="soiree"><path class="cls-1" d="M0,60.7c1.62.57,3.24,1.13,4.86,1.72,3.93,1.42,7.84,2.88,11.78,4.28,3.71,1.32,7.44,2.63,11.18,3.86,3.4,1.12,6.83,2.14,10.25,3.2.6.19,1.19.39,1.9.62a4.7,4.7,0,0,1-.06-1.14,1.07,1.07,0,0,1,.47-.72.89.89,0,0,1,.83.18,2.06,2.06,0,0,0,1.78.82c.45,0,1,.06,1.05.63,0,.36-.29.74-.48,1.17l3.88,1.17c3.17.94,6.34,1.9,9.52,2.8,3.71,1,7.44,2,11.16,3,1.18.32,2.35.74,3.6.23a.78.78,0,0,1,.72.21c.81,1.42,2.15,1,3.28.84,1.83-.22,3.64-.65,5.46-1l5.08-.93c3.34-.62,6.69-1.21,10-1.88,2.62-.53,5.21-1.17,7.82-1.73,1.37-.29,2.76-.46,4.12-.78s2.59-.8,3.91-1.12c2-.5,4.06-.92,6.17-1.39l.19-2.16,3.58-.84c1.28-.31,1.34-.29,2,.8.11.19.2.4.38.78,12-3.23,24.09-6,36.06-9.52l.15-1.76c1.68-.52,3.23-1,4.8-1.48a8.3,8.3,0,0,1,1.21-.17l.66,1.43c12.38-3.43,24.45-7.79,36.62-12.12-.21-.52-.45-1-.64-1.6s-.16-.85.34-1c1.18-.43,2.37-.85,3.57-1.24a2.71,2.71,0,0,1,3.13.81,1.38,1.38,0,0,0,1.92.38,9.49,9.49,0,0,1,1.94-.61c.52-.15,1.07-.22,1.57-.42,1.6-.63,3.17-1.33,4.78-2,1.39-.54,2.82-1,4.21-1.51s2.56-1.06,3.88-1.6l-11-6.13c-.66,1-1,2.35-2.64,1.6.17.66.25,1.17.42,1.66a4,4,0,0,1-1.74,4.33,9,9,0,0,1-4.45,1.35,2.86,2.86,0,0,1-3-2.66c-.34-2.83.69-4.35,3.49-5.05,1-.25,1.77-.63,1.82-1.84,0-.33.35-.68.6-1,.44-.49.55-.95,0-1.39a22.07,22.07,0,0,0-2.16-1.61c-2.44-1.46-4.92-2.87-7.38-4.3-1.21-.71-2.45-1.39-3.63-2.14q-4.17-2.68-8.29-5.42c-1.58-1-3.13-2.14-4.7-3.21a7.11,7.11,0,0,0-.63-.34c-.47.75-.94,1.47-1.37,2.2-.34.58-.47,1.21-1.15,1.66s-.57,1.43-.5,2.28a4.71,4.71,0,0,1-1.85,4.4c-2,1.52-5.65.93-6.66-1.38-1.36-3.1-1-7.25,3.38-8.4a1.52,1.52,0,0,0,1.29-1.45c1.53,0,1.63-.13,2.55-2.2a2.67,2.67,0,0,0-.42-.46c-2.5-1.73-5-3.4-7.51-5.18s-5.14-3.86-7.7-5.81a2.59,2.59,0,0,1-.4-.51h3.28a5.81,5.81,0,0,0,.66.69q5.27,4,10.56,7.94c.68.51,1.46.9,2.2,1.35a11.12,11.12,0,0,1,.81-1,1.2,1.2,0,0,1,1.83-.21,21.92,21.92,0,0,1,2.47,2.11c.47.46.36.86-.17,1.35a8.62,8.62,0,0,0-.58.66c1.84,1.27,3.57,2.5,5.33,3.68,3.44,2.3,6.85,4.64,10.35,6.84s7.16,4.29,10.75,6.4a4.43,4.43,0,0,0,1,.32,9.73,9.73,0,0,1,.77-1.32,1,1,0,0,1,1.35-.28c1.15.61,2.29,1.24,3.43,1.88.74.41.8,1,.19,1.63-.3.31-.58.64-1,1.07L230.63,40c1.43-.63,2.67-1.2,3.92-1.71,1.68-.68,3.4-1.27,5.07-2,2.08-.86,4.13-1.79,6.2-2.67s3.93-1.64,5.88-2.47c.2-.09.34-.32.55-.53-1.16-.4-1.22-.52-.69-1.4.21-.35.45-.67.68-1,1.45,0,2.74-.32,3.5-1.86a10.9,10.9,0,0,1,1.15.93,13.46,13.46,0,0,1,.92,1.26c12.26-5.26,24.55-10.24,36.53-15.75a15.33,15.33,0,0,0,.12-1.56c0-1.32,0-1.27,1.08-1.68a29.86,29.86,0,0,0,3.09-1.35c.8-.4,1.21-.34,1.65.47.21.38.39.76.64,1.26,2.23-1.16,4.31-2.27,6.41-3.33,2.75-1.39,5.53-2.73,8.29-4.11,1.62-.81,3.21-1.67,4.81-2.51h4.1c-1.68.89-3.34,1.81-5,2.65-2.77,1.37-5.58,2.64-8.34,4-2.39,1.2-4.72,2.5-7.08,3.74-.6.31-1.23.54-1.86.8l2.08,5.37c.59.63,1.31,1.32,1.94,2.09,2,2.4,1.26,5.27-1.5,6.77a5.42,5.42,0,0,1-4.08.29,3.14,3.14,0,0,1-2.28-3.8c.08-.49.16-1,.23-1.48a2.27,2.27,0,0,0-.71-2,14.65,14.65,0,0,1-1.8-3,5.82,5.82,0,0,1-.32-1c-1,.33-1.94.57-2.84,1-1.91.83-3.76,1.79-5.67,2.61-3.33,1.43-6.7,2.77-10,4.18-2.76,1.16-5.5,2.38-8.26,3.54-1.33.56-2.71,1-4,1.6-1.74.76-3.44,1.6-5.16,2.4l-.85.39c0,.93,1.5,1.54.43,2.51a15.78,15.78,0,0,1,4,2.79,2.35,2.35,0,0,1,.46,2.13c-.35,1.64-.85,3.2-2.48,4a3.72,3.72,0,0,1-1.79.51,7.56,7.56,0,0,1-2.89-.65,3.15,3.15,0,0,1-1.88-3.22,6.54,6.54,0,0,0-1.55-5c-.05-.06,0-.18-.08-.26a2,2,0,0,0-.22-.28c-1.54.72-3.06,1.51-4.65,2.16-4.37,1.76-8.77,3.45-13.15,5.2-.74.3-1.43.73-2.3,1.18l14.84,7.69c.1,0,.22-.06.26-.12,1-1.54,1-1.51,2.61-.82a4.71,4.71,0,0,1,2,1.06,1.35,1.35,0,0,1,.43,1.45c-.3,1-.2,1.08.79,1.53,5.87,2.67,11.73,5.36,17.62,8,2.82,1.26,5.68,2.4,8.53,3.58a4,4,0,0,0,.46.14c.13-.08.24-.11.28-.18.73-1.54.72-1.53,2.15-.67a9.88,9.88,0,0,0,1.57.8c1.42.54,1.43.52,1.15,2.26,8.28,2.92,16.4,6.37,24.9,9,.72-1.07,1.7-.93,2.74-.48.78.34,1.58.64,2.54,1l.15,1.08a9.68,9.68,0,0,0,1.49.78q4.45,1.47,8.93,2.87c3.59,1.12,7.19,2.24,10.8,3.3,3.17.93,6.37,1.78,9.64,2.68.21-.73.31-1.49,1.05-1.77l4.33,1.32.1,1.82c9.44,2.74,19,5,28.79,7.28.17-.56.27-1,.42-1.39.25-.69.67-.78,1.23-.28a5.87,5.87,0,0,0,.89.77,1.81,1.81,0,0,0,2,.19c.14-.08.42.06.73.12l-.15,1.67,29.69,6.53c.72-1.49,1.15-1.71,2.7-1.21,1.32.42,2.71.75,3.43,2.21.15.3.76.44,1.18.54q3.18.69,6.37,1.31c.71.14,1.44.18,2.17.25,3.12.29,6.24.5,9.35.9a68.88,68.88,0,0,0,9.4.2c2.17,0,4.34-.3,6.5-.49a1.26,1.26,0,0,1,1.41,1.63.92.92,0,0,1-.68.51c-1.76.08-3.53.08-5.29.13l-3.39.1c-1.31,0-2.61.08-3.92.06-.95,0-1.9-.12-2.84-.21-3.69-.35-7.39-.62-11.07-1.09-2.74-.35-5.45-1-8.17-1.48-.31-.06-.62-.15-.93-.19-1-.15-1-.13-1.32.85-.31.82-.37,1.79-1.14,2.27.1,1.42.25,2.77.29,4.13a2.34,2.34,0,0,1-2.12,2.39,6.24,6.24,0,0,1-4.25-1.14,2.27,2.27,0,0,1-1-1.71,4.13,4.13,0,0,1,1.34-3.93,3.45,3.45,0,0,0,.81-.91,2.84,2.84,0,0,0,.33-1.07c.06-.44,0-.91,0-1.34.13-.7-.16-1-.81-1.14-1.42-.31-2.83-.64-4.23-1-2.95-.7-5.89-1.45-8.85-2.1-2-.45-4.09-.72-6.12-1.16-3-.66-6.08-1.4-9.2-2.13-.24.82-.46,1.55-.67,2.28-.06.22,0,.5-.16.65-.94,1.05-.58,2.2-.3,3.35a4,4,0,0,1-2.49,5.07,2.64,2.64,0,0,1-2.81,0c-1.43-.95-2.26-2.18-1.95-3.83a5,5,0,0,1,1.42-2.26c.8-.84,1.36-1.6.93-2.86a3.87,3.87,0,0,1,.21-1.71c.06-.31.16-.61.25-.92.17-.61-.07-.93-.68-1.07q-3.31-.75-6.61-1.55c-2-.49-4-1-6-1.51-1.5-.36-3-.66-4.5-1-1.32-.33-2.62-.71-3.93-1.07l-6.28-1.68a18,18,0,0,1-.93,3.09,2.76,2.76,0,0,0-.07,2.3,15.37,15.37,0,0,1,.32,2c.4,2.35-2.52,4.52-5,3.64a4.12,4.12,0,0,1-2.26-1.15,3.65,3.65,0,0,1,.09-4.85,13.05,13.05,0,0,0,1-1.08,2.54,2.54,0,0,0,.78-2.17,7.18,7.18,0,0,1,.38-2.39c0-.26,0-.53.07-.87-10.4-2.82-20.64-6-30.87-9.55-.28.88-.51,1.61-.74,2.33-.08.26-.12.6-.3.74-.8.61-.49,1.35-.38,2.12.19,1.39.28,2.8.4,4.2a1.82,1.82,0,0,1-.67,1.56,5.43,5.43,0,0,1-6.91.34c-1.34-1-1.36-2.56-1.1-4a5,5,0,0,1,2.73-3.84c.23-.11.53-.32.58-.53a20.76,20.76,0,0,0,.9-4.65l-24.88-9c-.12.23-.25.5-.38.77-.56,1.19-1.19,2.35-1.66,3.57a6.7,6.7,0,0,0-.35,2.24c0,1.23.09,2.43-.89,3.44a4,4,0,0,1-6.05-.36A4.74,4.74,0,0,1,275,74.43a3.43,3.43,0,0,1,1.43-2.81c.3-.21.61-.4.91-.6A3.09,3.09,0,0,0,279,68.54a14.55,14.55,0,0,1,.9-3c-9.06-3.92-18.26-7.62-27.14-12.15-1.06,1-.85,2.94-2.61,3.57.12.27.24.59.39.91a5.94,5.94,0,0,1-.57,6.52,3.88,3.88,0,0,1-3,1.47,13.41,13.41,0,0,1-2.7-.23A2.67,2.67,0,0,1,242,63a17.86,17.86,0,0,1-.12-3.5,4.16,4.16,0,0,1,2.46-3.22l1.34-.75-.47-1.1c1.5-.59,1.49-2.05,1.87-3.24.2-.62-.43-1-1-1.31L236,44.65c-1.56-.81-3.1-1.64-4.68-2.4a1.63,1.63,0,0,0-1.15,0c-.93.35-1.81.84-2.75,1.19-4.72,1.74-9.46,3.44-14.19,5.17-.59.21-1.16.47-1.72.7.09,1.21,1.44,2.07.69,3.35.83,1,1.65,2,2.43,2.94a3.87,3.87,0,0,1,.11,4.55c-1.07,1.63-4.22,2.33-5.49,2.05A2.44,2.44,0,0,1,207,59.86a4.23,4.23,0,0,1,0-1.62,4.68,4.68,0,0,0-.12-2.41c-.12-.49-.26-.83-.8-1s-.65-.47-.63-1.11a6,6,0,0,0-.74-2c-.68.17-1.25.27-1.8.46-3.17,1.09-6.34,2.22-9.51,3.31-2.66.91-5.33,1.8-8,2.68-2.37.78-4.74,1.53-7.11,2.3s-4.56,1.5-6.85,2.22c-1.16.37-2.35.68-3.68,1.06.52,1.58.42,3.22,1.78,4.54,2.06,2,2.11,3.85.44,6.2a7,7,0,0,1-1.79,1.8c-1.36.9-2.6.21-3.75-.6A3.59,3.59,0,0,1,163.07,72a10,10,0,0,1,.42-1.43c.19-.65.38-1.3.5-1.73l-2.42-3a23.55,23.55,0,0,0-2.45.4c-2.72.73-5.42,1.53-8.13,2.27-2.89.78-5.79,1.53-8.68,2.27l-13.71,3.49-3.9,1c.55,1.36.66,2.73,1.77,3.77a3.92,3.92,0,0,1,1.07,4.31,3.41,3.41,0,0,1-4.73,2c-.33-.14-.63-.35-1-.54l-.24.56a.79.79,0,0,1-.24-.09,3.32,3.32,0,0,1-1.09-3,7.7,7.7,0,0,0,0-2.66A9.51,9.51,0,0,0,118.93,77c-.12-.19-.69-.19-1-.12q-3.53.75-7,1.58c-3.09.73-6.17,1.51-9.26,2.24-1.81.42-3.63.81-5.45,1.17s-3.66.64-5.49,1c-2.58.49-5.16,1-7.75,1.49-1.11.21-2.24.35-3.42.53,1.11.66,14.93,4,16.48,4,.61-1.29.67-1.22,2-.72a14.88,14.88,0,0,0,3.43.69c1.37.15,1.47.22,1,1.67l5.05,1.08c2.26.49,4.51,1,6.77,1.47,3.86.81,7.73,1.59,11.59,2.39,2.53.53,5,1.1,7.58,1.6,2.14.42,4.29.77,6.43,1.17a.87.87,0,0,0,.94-.32,3.07,3.07,0,0,1,1.17-.56c1-.39,2,0,3,.14,1.2.16,1.37.5,1.14,1.75,15.09,2.9,30.29,5,45.58,6.69a12.27,12.27,0,0,0-1.32-.26c-.49,0-1,0-1.44,0-.3-1.12,0-1.67.79-1.58a36.88,36.88,0,0,1,3.88.7,4.43,4.43,0,0,1,1.12.71l-.85,1c12.83,2,25.63,3.59,38.49,5.16a1.44,1.44,0,0,1,1.8-1.16c.81.11,1.62.16,2.43.25,1.34.15,1.37.2,1.45,1.61,13.09,1.93,26.26,3.18,39.49,4.53l.53-2.35,4.36.49.36,2.31c14.89,1.55,29.93,2.22,45,3.43l.38-1.3a1.11,1.11,0,0,1,1.38-.92,14.06,14.06,0,0,1,2.13.46,1.72,1.72,0,0,0,2.23-.67c.29,1,.89,1.75-.42,2.63,1.83.1,3.31.21,4.79.26,4.76.17,9.51.36,14.27.48,5,.13,10.08.19,15.12.27,1.4,0,2.8,0,4.3,0a4.81,4.81,0,0,0,.06-.8c-.1-1,.27-1.39,1.29-1.33a21.06,21.06,0,0,0,2.69,0c1.3-.08,1.51.08,1.56,1.36,0,.22.06.44.1.76,1.2-.06,2.36-.15,3.51-.18,1.35,0,2.71,0,4.06,0,3,0,6.09,0,9.14,0,2.82,0,5.64,0,8.46-.09,3.27-.07,6.54-.18,9.81-.26l9.67-.2a4.7,4.7,0,0,0,.77-.14c.34-1.53.43-1.64,2.06-1.85a15,15,0,0,1,2.44-.16,1.69,1.69,0,0,1,1.7,1.59c9.45-.41,18.89-.92,28.23-2.87l.77,1.35a2.65,2.65,0,0,1-2.1,1c-3,.39-5.94.71-8.92,1-2,.21-4,.45-6,.57-2.63.16-5.27.22-7.9.35-1.22.06-2.44.17-3.71.26a6.23,6.23,0,0,0,.2,3.21,1.12,1.12,0,0,1,0,.78,2.46,2.46,0,0,0,.39,2.19,5.05,5.05,0,0,0,.46.68,3.63,3.63,0,0,1-2.16,5.92c-1.61.36-3,.31-4.26-1a4.42,4.42,0,0,1-.26-6l.63-.75c-.34-.64-.84-1.2-.25-2,.2-.27-.09-.95-.25-1.41a9.19,9.19,0,0,0-.62-1.23c-1.7,0-3.42,0-5.13,0-2.31,0-4.63.11-6.94.16s-4.78.13-7.18.18c-2.59,0-5.18.06-7.78.1-3.31.05-6.61.14-9.92.16-2.21,0-4.42-.07-6.63-.06a20.82,20.82,0,0,0-2.37.29,11,11,0,0,1,0,2.36,4,4,0,0,0,.69,3.68,1.64,1.64,0,0,1,.15,1.06,21.06,21.06,0,0,1-.37,3,2.33,2.33,0,0,1-1.94,1.85,6.64,6.64,0,0,1-4.52-.36,3.46,3.46,0,0,1-.47-5.69,2,2,0,0,0,1-1.68c0-1.4-.07-2.8-.11-4.15l-38-1c-.22.92-.48,1.78-.6,2.66,0,.29.26.64.43,1,.47.87,1,1.72,1.39,2.63a1.94,1.94,0,0,1,0,1.41,4.74,4.74,0,0,1-5.41,2.61,2.58,2.58,0,0,1-1.95-1.86c-.38-1.39-.71-2.7.16-4a2.38,2.38,0,0,0,.33-1.17c0-1.09,0-2.18,0-3.34a4.88,4.88,0,0,0-1.05-.34c-2.31-.17-4.62-.29-6.93-.45-3.48-.25-7-.53-10.45-.78-2.62-.19-5.25-.31-7.86-.53-3.66-.3-7.31-.66-11-1-2.53-.21-5.07-.36-7.78-.55.13,1.87-.61,3.73.53,5.51a5.93,5.93,0,0,1,.52,3.83A2.62,2.62,0,0,1,283,130a4.88,4.88,0,0,1-5.83-.51c-1.09-.86-1.22-2.74-.46-4.38.23-.49.62-.9.85-1.38s.37-.9.22-1.11c-.69-1-.38-2-.47-3,0-.44-.05-.88-.09-1.5-6.53-.64-13-1.2-19.4-1.93s-12.82-1.62-19.28-2.45c-.2,1.19-.41,2.29-.55,3.4a2.27,2.27,0,0,0,.24.89c.38,1.16.85,2.3,1.14,3.48a2.85,2.85,0,0,1-2,3.66,5.24,5.24,0,0,1-4.32,0c-1.57-.8-2.33-4.4-.73-5.71a8,8,0,0,0,.81-.74c.4-.43.5-.82-.11-1.22a1.72,1.72,0,0,1-.64-2,3.46,3.46,0,0,0,0-2.35L194.92,108c-.19.83-.35,1.62-.55,2.39a3,3,0,0,1-.42,1.12,1.69,1.69,0,0,0-.07,2,9,9,0,0,0,.64,1,3,3,0,0,1-1.24,4.39c-1.58.61-3.14,1.19-4.88.54a3.13,3.13,0,0,1-1.91-4.5,20,20,0,0,1,1.88-2.68l.26-5.15-5.3-.76c-4.22-.62-8.43-1.25-12.65-1.86-1.61-.23-3.24-.37-4.85-.62-2.63-.42-5.25-.91-7.88-1.34-2.1-.34-4.21-.6-6.31-.94s-3.91-.69-5.88-1a4.26,4.26,0,0,0-.8,2.53l.91.43c0,.13,0,.26,0,.29a8,8,0,0,1-1.19.58c-.73.24-1,.59-.71,1.29a6.47,6.47,0,0,0,.76,1.29,2.59,2.59,0,0,1,.08,2.84c-.76,1.55-2.22,2.09-3.73,2.45-1.06.25-3.93-1.3-4.3-2.26-.61-1.55-.94-2.86.7-4.63a6,6,0,0,0,1.83-3.84,14.48,14.48,0,0,1,.36-1.94l-37.92-7.81c-.16.53-.32.95-.4,1.38A2.77,2.77,0,0,1,100,95.42c-.45.23-.45.66-.21,1.06s.53.84.79,1.27a2.39,2.39,0,0,1-.68,3.45c-1.85,1.49-3.79,1.35-5.75.45a2.59,2.59,0,0,1-1.15-1.4A4.29,4.29,0,0,1,93.84,96c.64-.83,1.24-1.59.41-2.66a.9.9,0,0,1,.18-.84c1.09-.46.55-1.39.8-2.24L90.7,89.21c-3.26-.78-6.52-1.57-9.79-2.34-1.8-.42-3.61-.85-5.43-1.18a8,8,0,0,0-2,.13c-.36,1.19,1.23,1.91.41,3,.31.39.56.71.83,1a5.05,5.05,0,0,1,.48,6.09,2.84,2.84,0,0,1-2.45,1.69c-.84.05-1.68.21-2.83.37-2.12-.87-2.85-2.53-1.92-5a5,5,0,0,0,.54-2.77,7.15,7.15,0,0,0-.45-1.53,13.39,13.39,0,0,0-.94-1.5c-1.43.2-2.91.38-4.38.61q-3.62.57-7.23,1.18c-2.23.39-4.45.87-6.69,1.21-3,.46-5.93.82-8.88,1.25-4.54.67-9.13.81-13.7,1.09l-4.11.25c0,1.12,0,2.13,0,3.15a1.14,1.14,0,0,0,.3.6,7.08,7.08,0,0,0,1.17,1.32A3.77,3.77,0,0,1,25,100.31c.45,2.19-.51,3.73-2.75,4.12a19.34,19.34,0,0,1-3.35.23,2.72,2.72,0,0,1-2.24-2.27,5.1,5.1,0,0,1,.26-3.31c.66-1.37.15-2.75-.2-4.1a.9.9,0,0,0-.06-.12c-.84-1.93-.84-2-3-1.83-2.89.23-5.78.57-8.67.85-1.67.16-3.34.3-5,.45q0-1.09,0-2.19a5.66,5.66,0,0,0,1.2.16c1.62-.13,3.24-.31,4.86-.46L15.25,91c.25-1.26.57-1.47,1.68-1a3.77,3.77,0,0,0,2.76-.22c1.25-.47,1.26-.54,1.77.63.07.16.16.32.22.43,15.23-.17,30.05-3,45-5.73l-.53-1.73c-3.85-1.12-7.63-2.24-11.41-3.33-2.87-.83-5.77-1.59-8.63-2.44A7.23,7.23,0,0,0,43.41,77c-.53,1.11-1,2.17-1.54,3.23a1.47,1.47,0,0,0-.14,1.4c.72,1.55.06,2.81-1.05,3.88a2.55,2.55,0,0,1-1.31.62,6.66,6.66,0,0,1-2,0,2.74,2.74,0,0,1-2.59-2.94,4.31,4.31,0,0,1,2.15-3.94c1.24-.73,2.39-1.83,2.19-3.59a2.46,2.46,0,0,0-.39-.21c-3.24-1-6.49-2-9.72-3-3.06-1-6.12-2-9.16-3s-6-2.18-8.95-3.24c-2-.73-4.12-1.39-6.17-2.12-1.58-.56-3.14-1.18-4.7-1.78Q0,61.52,0,60.7ZM181.48,17.49c-1.25-1.29-1.48-1.32-2.91-.59-.36.18-.78.23-1.15.39a8.22,8.22,0,0,0-1.34.64c-1.52,1-1.5,2.48-1.3,4a3.15,3.15,0,0,0,2.68,2.69,2.49,2.49,0,0,0,3-2.35c0-.5,0-1,0-1.49a16,16,0,0,1,.45-2.09A8.38,8.38,0,0,1,181.48,17.49Zm66.11,38.18a4,4,0,0,1-2.41,2.07,2.61,2.61,0,0,0-1.59,1.75,5.71,5.71,0,0,0,.08,3.21A1.69,1.69,0,0,0,245,64.05a10.44,10.44,0,0,0,2,.22,2.62,2.62,0,0,0,2.3-1.8,4.68,4.68,0,0,0-.21-3.53,4.36,4.36,0,0,1-.33-2.56Zm54.56-39-1.31.89a1.09,1.09,0,0,0-.53,1.14,11.87,11.87,0,0,1-.05,2.68c-.37,2.47.2,3.13,2.71,3h.27a3.1,3.1,0,0,0,2.57-2.47,2.88,2.88,0,0,0-.88-2.32C304.05,18.6,303.12,17.69,302.15,16.69ZM208.53,54.22a14.33,14.33,0,0,1,.39,2c0,1-.07,2.06,0,3.09s.47,1.44,1.45,1.36a6.66,6.66,0,0,0,2.22-.55,1.89,1.89,0,0,0,1.06-2.59,15.2,15.2,0,0,0-3.12-4.26Zm104.14,29-1.85-.64c-.33.26-.58.6-.9.69A2.94,2.94,0,0,0,308,85.4c-.74,2.14,0,3.36,1.95,3.68a3.44,3.44,0,0,0,2.83-1,1.3,1.3,0,0,0,.3-1C313,85.82,312.83,84.58,312.67,83.21ZM213.13,36a7.3,7.3,0,0,1-3.8,1.87.89.89,0,0,0-.26.08,2.56,2.56,0,0,0-1.41,3c.3,1,1.07,1.29,2.52,1.18a5.39,5.39,0,0,0,2.59-1,2.06,2.06,0,0,0,1-2.3C213.61,38,213.37,37.07,213.13,36Zm49.26,1.53A3.08,3.08,0,0,0,257,36a1.65,1.65,0,0,0-.16.51c-.08.33-.12.68-.22,1a2,2,0,0,0,1.68,2.78c.31.06.62.15.93.19A3.26,3.26,0,0,0,262.38,37.56ZM19.17,96.93a17.07,17.07,0,0,1-.33,1.85c-.18.65-.56,1.24-.71,1.9-.36,1.54.31,2.35,1.86,2.36a4.94,4.94,0,0,0,1.22,0,5.13,5.13,0,0,0,1.84-.69,1.87,1.87,0,0,0,0-2.58c-.73-1-1.48-2-2.25-3.09Zm407.41,29.92a10,10,0,0,1-1.12,2.22,2.72,2.72,0,1,0,4.1,3.57c.46-.67.77-1.48.17-2.13a7.36,7.36,0,0,1-1.64-3.9Zm-52.59.93a9.39,9.39,0,0,1-.75,1.79,10.85,10.85,0,0,1-1.34,1.31,1.72,1.72,0,0,0,.28,2.6,3.83,3.83,0,0,0,3.37.53,1.65,1.65,0,0,0,1.22-1.33,3.66,3.66,0,0,0-.33-3,11.31,11.31,0,0,1-.92-1.91ZM166.8,67.47c-.34.32-.73.52-.85.82-.38,1-.66,2-1,3a4.27,4.27,0,0,0,.23,2.91,1.94,1.94,0,0,0,2.93.48,4.72,4.72,0,0,0,1.33-2.33,2,2,0,0,0-.32-1.81C168.41,69.53,167.65,68.57,166.8,67.47Zm113.24,55a26,26,0,0,0-1.63,2.89,9.41,9.41,0,0,0-.48,2.46c0,.18.27.47.49.6a3.5,3.5,0,0,0,1.22.54c1,.15,2.1.51,2.86-.56a2.63,2.63,0,0,0,.06-2.89c-.44-.93-.74-1.93-1.16-3Zm-139.1-18.91c-1,1.32-1.82,2.47-2.65,3.64a2.05,2.05,0,0,0,.06,2.06,3.75,3.75,0,0,0,3.56,1.13,1.78,1.78,0,0,0,1.15-2.46,4.66,4.66,0,0,1-.71-3.92ZM70.2,89.9a6.13,6.13,0,0,1-.56,3.54,4.55,4.55,0,0,0-.22,1.46c0,.83.31,1.19,1.12,1.2a8.2,8.2,0,0,0,2.27-.24,2.12,2.12,0,0,0,.77-3.63,3.45,3.45,0,0,1-1.24-1.63l1.33.81C72.69,89.49,72.13,89.27,70.2,89.9Zm120.16,22a6.79,6.79,0,0,1-.56,1.45c-.29.43-.83.7-1.12,1.14a6.24,6.24,0,0,0-.81,1.71,1.36,1.36,0,0,0,.9,1.72,3.67,3.67,0,0,0,3.48-.23c1.08-.54,1.37-1.07.82-2.12a7.35,7.35,0,0,1-1.14-3.67Zm91.27-40.48c-1-.53-1.08-.51-1.91.11-.62.46-1.27.87-1.88,1.34a2.82,2.82,0,0,0-.8.87,2.73,2.73,0,0,0,1.51,3.44,2,2,0,0,0,2.75-1.57c0-.31,0-.63,0-.95C281.44,73.59,281.53,72.57,281.63,71.38Zm66.48,21.47c-.83.89-1.65,1.68-2.37,2.55a2.52,2.52,0,0,0-.47,2.42c.27.91,1.09,1.05,1.83,1.18a2.28,2.28,0,0,0,2.82-2.56,28.43,28.43,0,0,0-.59-3.12ZM96.82,94.27c-.72,1.22-1.38,2.29-2,3.4a4.41,4.41,0,0,0-.45,1.42c-.13.85.09,1.15.87,1.46a3,3,0,0,0,4-1.34c-.54-1.38-1.92-2.6-1-4.36Zm236.93,35.15c-.56-1.14-1.09-2.24-1.66-3.31a.84.84,0,0,0-.53-.34,1.43,1.43,0,0,0-1.8,1.09c-.17.46-.43.9-.62,1.35a3.42,3.42,0,0,0,.63,2.9,2.46,2.46,0,0,0,3.08-.53C333.14,130.24,333.4,129.87,333.74,129.42ZM235.28,124a13.46,13.46,0,0,0,1.61-.47c.88-.37,1-.64.76-1.59-.38-1.29-.87-2.56-1.36-3.82-.18-.47-.74-.49-.88,0a6,6,0,0,1-1.78,2.52c-.71.68-.42,1.48-.12,2.27A1.77,1.77,0,0,0,235.28,124ZM122.45,78.35c-.74,1.83-.67,1.82-.31,3.91a2.17,2.17,0,0,0,1.77,1.81,1.86,1.86,0,0,0,2-.63,1.88,1.88,0,0,0,.26-2A20.74,20.74,0,0,0,123.93,79,5.13,5.13,0,0,0,122.45,78.35ZM418.33,112.2c-.15-1.16-.3-2.5-.52-3.83-.1-.59-.66-.73-1.1-.32s-.95.95-1.43,1.42c-.78.77-1.4,1.65-1,2.76s1.61,1.17,2.59,1.45H417C417.95,113.71,418.36,113.3,418.33,112.2ZM39.5,80.51c-1-.45-1.71.11-2.41.65a2.06,2.06,0,0,0-.67,2.09,1.86,1.86,0,0,0,2.44,1.44,1.75,1.75,0,0,0,1.22-2.33C39.89,81.76,39.71,81.17,39.5,80.51ZM382.14,101c-.57,1.92-2.51,2.83-2.77,4.86a21.91,21.91,0,0,0,2.85.63c.32,0,.8-.39,1-.73C383.65,105.09,383,101.93,382.14,101Zm-81-87.89c-.57-.58-1-.87-1.63-.48s-1.52.74-2.36,1.14l.7,1Zm-2.92,3.06c.56.42,1,.71,1.65.34s1.5-.93,2.31-1.44l-.56-.75ZM425.36,122.51c.87,1.23,1.92.47,2.83,1l-.11-1.29ZM190.15,110.09c.87.06,1.53.13,2.2.13s.49-.36.42-.78l-2.41-.41Zm93.57-43.14-1.95-.86-.34.9,2,1.05Zm-2,52.46c-.1-.34-.09-.66-.22-.73a4.33,4.33,0,0,0-2.45-.21c-.15.53,0,.76.48.78C280.18,119.29,280.85,119.35,281.71,119.41ZM313.8,78.95c0-.68,0-1.15-.64-1.31a8.68,8.68,0,0,1-1.14-.48v1.37Zm-.44,1.44c-.8,0-1.47-.63-2.17,0,.63.87,1.41,1.28,2.06,1.07ZM214.83,31.16l2,1.14c.12-.39.31-.68.24-.85C216.87,31,215.59,30.68,214.83,31.16Zm19.56,82.78,2.1.52c0-.35,0-.61,0-.87C234.71,113.2,234.71,113.2,234.39,113.94ZM348.27,90.76l-.14.21a9.18,9.18,0,0,0,1.2.79c.63.29.76.14.8-.79a.8.8,0,0,0-.24-.11Zm-251.38.07c.24.73.8.7,1.35.73s1,.1,1.57.15A4.16,4.16,0,0,0,96.89,90.83Zm331.29,33.36c-.68.44-1.66-.11-2,.91h2ZM250.29,54.56l-2.44-1.12a3.36,3.36,0,0,0,2.21,1.79ZM332,123.13l.19-.3c-.11-.17-.2-.48-.32-.49a2.06,2.06,0,0,0-1.95.37Zm41.82.48a2.07,2.07,0,0,0,2.3.35C375.34,123.09,374.58,123.39,373.83,123.61ZM249.58,49.53l-.13.29,1.83,1C251.27,49.7,250.95,49.5,249.58,49.53ZM381.81,99.11l0,.3c.5.17,1,.37,1.51.49.15,0,.34-.16.52-.25-.11-.18-.2-.5-.32-.51C382.93,99.08,382.37,99.11,381.81,99.11ZM183.54,10.21c-.46.83-.44.81.31,1.33.43.3.75.42,1-.23Zm96.93,59.08,2.19.75.24-.9C282.11,69.3,281.45,68.48,280.47,69.29ZM71.86,87.51a5,5,0,0,0-2.76.41A3.38,3.38,0,0,0,71.86,87.51ZM382.28,97.1a1.79,1.79,0,0,0,1.9.78C383.88,96.65,382.95,97.24,382.28,97.1ZM42.11,76.86a4,4,0,0,0-.86-.58c-.49-.14-.66.29-.64.61s.36.59.56.59S41.67,77.17,42.11,76.86Zm211.81-47,.12.28,2-.86A1.7,1.7,0,0,0,253.92,29.87Zm119.81,95.78V126a1.93,1.93,0,0,0,2.33-.16ZM249,51.72c.69,1,.69,1,1.58,1C250.27,52,250.2,52,249,51.72Zm47.58-40.84.13.34L299.34,10C298,9.75,297.49,10.75,296.62,10.88ZM209.63,50l-2.33.87C208.19,50.9,209.11,51,209.63,50Zm-68.36,51.65a2.21,2.21,0,0,0,2.46.57Zm-18.8-27.88-.14-.49c-.58.36-1.37.13-1.77,1ZM255.84,34c1.49.05,1.65-.06,1.57-.92Zm-1.18-2c1.3.33,1.59.2,1.76-.76Zm-20.33,83.64,0,.27c.71.17,1.39.61,2.18-.1Zm116-26.06.17-.25a2,2,0,0,0-2.12-.5ZM181.49,14.93l-.15.3,1.4.86.19-.32ZM375.85,121.88l0-.42c-.44.13-1-.27-1.4.42ZM20.48,95.3l.23-.26c-.18-.64-.64-.77-1.29-.61ZM166.14,64.72c-.72-.23-.72-.23-1.58.41Zm17.11-50.6c-.12-.71-.12-.71-.93-.86Zm-85,78.73c.79.6.79.6,1.53.41ZM40.72,79v-.3c-.26,0-.6-.56-.78.35Z"/></g></g></svg>