<svg xmlns="http://www.w3.org/2000/svg" viewBox="0 0 1087.4 318.44"><title>verrerie</title><g id="Layer_2" data-name="Layer 2"><g id="verrerie"><path d="M85.63,305.51c-1-1.85-1.22-4.4-1.45-7.35-.2-2.48-.47-5-.75-7.44-.32-2.92-.71-5.83-1-8.75-.58-5.28-1.11-10.57-1.69-15.85A25.28,25.28,0,0,1,83,252.68c.69-1.51,1.56-2.9,3.46-3.17a7,7,0,0,0,1.43-.65,7.65,7.65,0,0,1,6.64.1,25.46,25.46,0,0,1,7.05,5c1.64,1.68,2.93,3.7,4.48,5.48,4.28,4.9,8.25,10.08,13,14.54a27.93,27.93,0,0,0,7.25,4.65c2.74,1.31,5.67,2,8.45,3.15a6.86,6.86,0,0,0,5.31-.18,19.5,19.5,0,0,0,8.12-6.12,9.72,9.72,0,0,0,2-8,19.12,19.12,0,0,1,.45-7.19c.3-1.35.67-2.68.93-4a9.91,9.91,0,0,1,3.11-5.58,20.33,20.33,0,0,1,7.66-4.67,6.48,6.48,0,0,1,3.09-.06c2.37.49,4.71,1.16,7.06,1.76a64.32,64.32,0,0,0,12.83,2,13.76,13.76,0,0,0,3.12-.38c1.29-.24,2.56-.6,3.84-.84a14.66,14.66,0,0,0,6.66-3.65,116.33,116.33,0,0,0,9.17-8.31,19.59,19.59,0,0,0,5.41-12.93c0-1,.36-2.08.32-3.11-.19-5.71-.29-11.47-2.43-16.87a27.59,27.59,0,0,0-5.25-8C203,192,199,189.44,195,187a85.07,85.07,0,0,1-9.67-6.8,22.54,22.54,0,0,1-7.3-10.57,28.73,28.73,0,0,1-1-12.85,38.25,38.25,0,0,1,4.57-12.93,57.87,57.87,0,0,0,6.81-21.06c.49-4.2.1-8.5,0-12.75-.05-3.74-1.42-7.21-2.7-10.62a12.71,12.71,0,0,0-6.43-6.69c-4.15-2.12-8.69-2.89-13.23-3.66-2.13-.36-4.25-.8-6.39-1a20.09,20.09,0,0,0-7,.25c-2.55.6-5.19.86-7.74,1.46A32.65,32.65,0,0,0,132,96.14c-.51.41-1.06.77-1.6,1.15a2.47,2.47,0,0,1-3,.41c-1.15,3.4-1.7,6.74.21,9.79a9.76,9.76,0,0,0,7.9,4.94,119.74,119.74,0,0,1,14.86,1.65,13.6,13.6,0,0,1,7.67,3.71c1.36,1.41,3,2.64,4,4.28a25.91,25.91,0,0,1,3.77,10.84c.25,2.54.75,5.06,1.1,7.59.7,5,.13,10-.51,14.92a18.52,18.52,0,0,1-1.09,3.54c-.39,1.12-.85,2.21-1.24,3.32a28.55,28.55,0,0,1-7.7,11.73c-2.08,1.9-4,4-6.07,5.88a57.72,57.72,0,0,1-14.65,9.5,49.81,49.81,0,0,1-7.81,3.06c-3.28.87-6.69,1.28-10,1.84-1.22.21-2.47.26-3.7.43a35.73,35.73,0,0,1-11.34-.67c-4.45-.83-8.84-2-13.3-2.75-2.82-.47-5.73-1-8.61-.23-5,1.29-8.93,3.94-11.33,8.66a11.43,11.43,0,0,0-1.36,4.67,26.81,26.81,0,0,0,.39,5.26A40.66,40.66,0,0,0,71,218.15a30.62,30.62,0,0,1,1.68,7.45c.35,2.91.84,5.87.15,8.81a19.12,19.12,0,0,1-.83,2.38,20.37,20.37,0,0,1-4.15,6.38,16.44,16.44,0,0,1-9,5.2,61.73,61.73,0,0,1-7.4,1,7.16,7.16,0,0,1-5.71-2.11c-1.66-1.59-3.27-3.23-4.9-4.86a15.15,15.15,0,0,0-1.24-1.27c-1.5-1.18-3.21-.75-4.35.78a11,11,0,0,0-1.86,7c.09,4,.58,8,1,11.91.43,3.77,1.15,7.52,1.54,11.3s.51,7.31.7,11c.09,1.7.09,3.4.09,5.1,0,3.32-.09,6.64,0,10,.14,3.61-1.83,8.22-2,4.63,0-.71-.32-1.42-.34-2.13-.12-3.81-.17-7.62-.29-11.43-.15-4.92-.19-9.86-.58-14.76-.31-3.85-1.17-7.66-1.62-11.5-.54-4.62-1-9.26-1.29-13.9a16.9,16.9,0,0,1,.82-6,10.69,10.69,0,0,1,3.71-4.94c1.24-1,5.38-.31,6.69,1.05,1.45,1.51,2.77,3.15,4.18,4.7a9.25,9.25,0,0,0,1.86,1.68c1.74,1.08,3.53,1.87,5.73,1.24,1.81-.52,3.78-.48,5.57-1,6.21-1.95,9.92-6.35,11.41-12.56a17.85,17.85,0,0,0,0-5A28.37,28.37,0,0,0,67.78,218c-1.69-3.7-2-7.74-2.22-11.75-.3-5.81,2.39-10.18,6.9-13.53a25.53,25.53,0,0,1,5.39-3.21,17.93,17.93,0,0,1,5.36-1.08c4.05-.32,8,.74,11.86,1.65,3.45.81,6.84,1.79,10.42,1.92,1.89.07,3.79.77,5.64.62a85.26,85.26,0,0,0,12.44-1.69c3.54-.83,6.89-2.47,10.34-3.73a39.92,39.92,0,0,0,8.94-4.53,51,51,0,0,0,12.24-11.34c1.53-2,3.16-4,4.57-6.15a34.36,34.36,0,0,0,1.8-3.93,30.86,30.86,0,0,0,3-14.93,74.45,74.45,0,0,0-1.85-15.17,27.5,27.5,0,0,0-2.57-7c-2.23-4-5.46-6.73-10.1-7.39-4.28-.61-8.58-1.21-12.89-1.51-3.75-.26-7.12-1.18-9.92-3.75a11.1,11.1,0,0,1-3.46-11.08,34.9,34.9,0,0,1,5.59-12.27,14.33,14.33,0,0,0,2.49-10.1,19.76,19.76,0,0,0-1.91-5.76,27.8,27.8,0,0,0-5.39-8.18,57.59,57.59,0,0,0-4.88-4.28c-1.74-1.36-4-1.31-6-1.57a32.25,32.25,0,0,0-10.38.78c-4.18.82-8.36,1.63-12.57,2.24-3.52.51-6.93-.49-10.3-1.34a23.51,23.51,0,0,1-9.16-5.23,8.26,8.26,0,0,1-3-6.39,33.17,33.17,0,0,1,1.82-10.41c.85-2.89,1.9-5.73,2.87-8.59.81-2.39.48-4.84.26-7.25a24.48,24.48,0,0,0-3.49-11.16A14.43,14.43,0,0,0,65.07,6.1c-3.88-2.42-8.12-3.16-12.58-3.31C44.56,2.53,37.21,5,29.95,7.7a88.85,88.85,0,0,0-10.74,4.9,71.2,71.2,0,0,0-9.47,6A39.54,39.54,0,0,0,4,24.47C2.12,26.63,2.14,26.71,0,25v-.79a17,17,0,0,0,1.94-1.77C4.56,19.2,7.27,16.12,11,14c3-1.69,5.81-3.9,9-5.31C25.55,6.23,31.16,3.6,37.26,2.33c2.69-.56,5.33-1.37,8-2A12.4,12.4,0,0,1,48,0,49.12,49.12,0,0,1,60,.87,18.42,18.42,0,0,1,72.11,9.53,30.23,30.23,0,0,1,76,21.74c.11.91.24,1.81.35,2.72.37,3.2-.93,6-1.84,9s-1.95,5.86-2.68,8.85a24.44,24.44,0,0,0-.67,6c0,2.87,2.17,4.54,4.25,6.05a21.91,21.91,0,0,0,17.79,3.68c4.06-.79,8.08-1.81,12.16-2.4a29.54,29.54,0,0,1,13.1.74A8.6,8.6,0,0,1,121,57.57a32.49,32.49,0,0,1,9.55,10.08,45.61,45.61,0,0,1,3.72,8.45,14.5,14.5,0,0,1,0,8.14c-.73,3.08-2.66,5.53-4.21,8.18-.41.7-.79,1.41-1.18,2.12l.32.22c1.2-.87,2.37-1.79,3.62-2.58a33.85,33.85,0,0,1,4.76-2.76,42.44,42.44,0,0,1,12.68-3.49,32.66,32.66,0,0,0,3.5-.57,23.7,23.7,0,0,1,9.35.24c4.25.82,8.5,1.67,12.69,2.76,4.81,1.25,9.11,3.52,11.77,7.92a34.89,34.89,0,0,1,2.29,5.79c.09.24.06.54.17.77,1.63,3.44,1.55,7.13,1.55,10.81,0,3.46.22,6.95-.44,10.36a105.52,105.52,0,0,1-2.78,11.88,63.76,63.76,0,0,1-3.92,8.77c-1.74,3.54-3.48,7.08-4.2,11-1.13,6.14-.58,12.06,3,17.39a26.68,26.68,0,0,0,4.39,5.52,90.75,90.75,0,0,0,8.21,5.75c3.15,2.14,6.44,4.09,9.43,6.42a32.93,32.93,0,0,1,7.2,8.54,27.39,27.39,0,0,1,3.91,13,82.89,82.89,0,0,1,.39,8.64A28.2,28.2,0,0,1,211.16,237a9,9,0,0,1-1.31,1.47c-3.74,3.29-7.48,6.58-11.27,9.82a12.29,12.29,0,0,1-5.91,2.55,19.22,19.22,0,0,0-2.51.47,18.15,18.15,0,0,1-9.69.33c-1.47-.32-3-.45-4.46-.77-2.5-.53-5-1.19-7.47-1.71-1.6-.34-3.22-.58-4.84-.77a2.79,2.79,0,0,0-1.52.29c-2.23,1.14-4.53,2.27-6,4.36a12.73,12.73,0,0,0-1.82,4.08,27.87,27.87,0,0,0-1,10.48c.47,4-1,7.42-3.82,10.55-2.6,2.93-5.79,4.67-9.17,6.26a8.44,8.44,0,0,1-5.61.17,57.09,57.09,0,0,1-13.14-5.22,20.41,20.41,0,0,1-4.61-3.32,64.62,64.62,0,0,1-6.8-7.12c-2.3-3-4.95-5.62-7.2-8.58a30.27,30.27,0,0,0-6.28-6.74,43.34,43.34,0,0,0-4.22-2.49,3,3,0,0,0-3,0c-.8.44-1.67.77-2.47,1.23a2.48,2.48,0,0,0-1,.93,19.76,19.76,0,0,0-2.38,7.86,56.37,56.37,0,0,0,.4,8.35c.43,4.56,1,9.12,1.5,13.67.42,3.58.89,7.15,1.32,10.72.07.59.08,1.18.12,1.77.25,3.6.47,7.21.76,10.81"/><path d="M1054.36,11.06a4,4,0,0,0,1,.26,19.94,19.94,0,0,1,8.27,1.7c2.26,1,4.49,2,6.74,3a42,42,0,0,1,8.66,5.64c1.93,1.51,3.8,3.11,5.66,4.71a3.45,3.45,0,0,1,1,1.32,1.31,1.31,0,0,1-.26,1.11c-.16.18-.66.13-1,.08a1.17,1.17,0,0,1-.61-.39c-2.42-2.68-5.48-4.54-8.42-6.54a48.89,48.89,0,0,0-7.42-4.44c-4.08-1.82-8.2-3.73-12.87-3.56-1.1,0-2.2-.17-3.3-.12-2.63.11-5.26.36-7.89.45a37.43,37.43,0,0,0-6.2.92,42.31,42.31,0,0,0-11.19,4.17c-2.28,1.19-4.61,2.31-6.83,3.6a19.25,19.25,0,0,0-3.38,2.56A125.3,125.3,0,0,0,1005.76,37a47.78,47.78,0,0,0-6.48,9.41,21.53,21.53,0,0,0-2.08,6.65,49.61,49.61,0,0,0-.12,7.17c0,4.09,1.79,7.62,3,11.33a79.35,79.35,0,0,1,3.57,16.57c.34,3.45-.09,7-2.53,9.95a11.52,11.52,0,0,1-4,3.24c-1.79.82-3.56,1.71-5.37,2.51a4.28,4.28,0,0,1-1.93.43c-2.15-.16-4.29-.43-6.43-.69a4,4,0,0,1-1.22-.36c-1.89-.9-3.76-1.84-5.63-2.76a8.23,8.23,0,0,1-1.64-.85c-2.11-1.74-4.67-2-7.17-1.93A15.4,15.4,0,0,0,961,99.41c-1.21.62-2.35,1.35-3.56,2a5,5,0,0,0-2.37,2.94c-.62,1.68-1.18,3.37-1.75,5.06a7.49,7.49,0,0,0,.14,4.56,37.83,37.83,0,0,0,1.85,4.76,2.55,2.55,0,0,0,1.18,1.12,28.64,28.64,0,0,0,4.43,1.85A36.81,36.81,0,0,1,971.28,126c3.27,2.14,5.66,5,5.82,9.1.14,3.61-1.82,6.11-4.83,7.94-2.8,1.7-5.92,2.43-9,3.19-2.51.61-5.09.91-7.58,1.58a22.71,22.71,0,0,0-4.38,1.91c-1.37.7-2.62,1.63-4,2.33a18.77,18.77,0,0,0-9,9.88c-.56,1.35-1.12,2.71-1.65,4.07a16.74,16.74,0,0,0-.82,9.42c.16.85.3,1.7.42,2.56.29,2,1.76,3.36,2.88,4.87a7,7,0,0,0,5.81,2.7,18.24,18.24,0,0,0,8.09-1.52c2.8-1.23,4.75-3.47,6.66-5.74.67-.8,1.26-1.67,1.87-2.52,1.62-2.24,3.88-3.19,6.56-3.65,4.29-.74,7.27,1.32,9.27,4.57,3.52,5.71,3.5,11.58.42,17.73-2.35,4.69-4.45,9.58-4.53,15.08a35.26,35.26,0,0,0,.81,9.7c.51,1.9,1.18,3.76,1.83,5.62.36,1,.82,2,1.22,3a10.32,10.32,0,0,0,4.62,4.89c1.16.71,2.29,1.47,3.49,2.1a14.1,14.1,0,0,0,7.52,1.33l1.85-.08c6.87-.18,11.71-3.41,14.43-9.71a24.86,24.86,0,0,1,3.74-6.35,9.79,9.79,0,0,1,7.9-3.75,22.06,22.06,0,0,1,6.42.65,13.06,13.06,0,0,1,7.88,6,13.68,13.68,0,0,0,4.21,4.77c1.78,1.22,3.55,2.45,5.36,3.63,2.16,1.41,4.63,1.55,7.1,1.65a50.07,50.07,0,0,0,5.38,0,59.19,59.19,0,0,0,7.15-.81,15.43,15.43,0,0,1,14.39,4.43c.93.9,1.83,1.83,2.74,2.75a29,29,0,0,0,6.08,4.44v1.86a2.5,2.5,0,0,1-2.89-.29,48.6,48.6,0,0,1-6.68-5.74c-2.12-2.12-4.46-4.11-7.53-4.81a9.63,9.63,0,0,0-2.74-.33c-2,.14-4,.52-6,.66q-4,.28-8.09.34a45.22,45.22,0,0,1-4.9-.3,12.06,12.06,0,0,1-6.82-2.5,50,50,0,0,0-4.64-3.28,11.15,11.15,0,0,1-3.59-3.87c-2.27-3.92-5.55-6.49-10.16-6.83-4-.3-7.58.61-10.05,5-1,1.82-1.8,3.74-2.79,5.57a16.17,16.17,0,0,1-9.24,8c-4.64,1.58-9.32,1.44-14,.94a6,6,0,0,1-2.25-.78c-2.62-1.48-5.55-2.52-7.67-4.75a12.8,12.8,0,0,1-2.46-3.65c-1.24-2.88-2.34-5.83-3.33-8.81a29.19,29.19,0,0,1-1-10.61,27.74,27.74,0,0,1,2.26-9.84c1.27-2.94,2.59-5.86,3.67-8.87a14.38,14.38,0,0,0-2.26-14.14,5.63,5.63,0,0,0-6.63-2,11,11,0,0,0-4.76,3.87c-2.64,3.3-5.33,6.64-9.66,8-3.45,1.07-6.91,1.86-10.53,1.11a7.9,7.9,0,0,1-4.73-2.65c-.7-.86-1.49-1.65-2.2-2.5-2.08-2.52-2.55-5.54-2.61-8.67,0-2.34-.35-4.7.54-7,1.67-4.23,3-8.64,6.05-12.16a18.51,18.51,0,0,1,3.73-3.31c3.13-2.07,6.24-4.26,9.85-5.43a69.07,69.07,0,0,1,7.54-1.76,32,32,0,0,0,10.39-3.68c2.85-1.71,3.38-4.17,3-6.74a8.1,8.1,0,0,0-4.28-5.91,37.83,37.83,0,0,0-8.33-3.5c-1.3-.39-2.59-.78-3.88-1.18-3.78-1.19-5.39-4.19-6.56-7.66-1.42-4.17-.25-8,1.16-11.87.91-2.52,2.69-3.92,4.82-5.27a19.93,19.93,0,0,1,15.73-2.77,5.65,5.65,0,0,1,2.2.91,19.85,19.85,0,0,0,5.61,2.77,1.07,1.07,0,0,1,.34.15c2.21,2,5,1.72,7.66,2a4.62,4.62,0,0,0,2.35-.25,59.38,59.38,0,0,0,6.39-3.28c2-1.2,2.78-3.22,3.14-5.44a31,31,0,0,0-.88-12c-.83-3.6-1.89-7.14-2.88-10.7A10,10,0,0,0,996,68a14.29,14.29,0,0,1-1.4-5.7,71,71,0,0,1-.4-7.57,24,24,0,0,1,4-12,102.32,102.32,0,0,1,11.06-13.87,51.63,51.63,0,0,1,7.19-6.89,66.71,66.71,0,0,1,8.79-5c1.79-.95,3.68-1.73,5.55-2.51a49.93,49.93,0,0,1,12.53-3.06,9.2,9.2,0,0,0,1.38-.41Z"/><path d="M197.49,131.63c1.94.62,3.83,1.39,5.76,2,2.28.75,4.57,1.45,6.87,2.15,3.24,1,6.49,2,9.72,3,5.41,1.68,10.83,3.33,16.21,5.11,4.21,1.39,8.33,3,12.54,4.44,4,1.33,8,2.48,12,3.73,5.7,1.78,11.4,3.59,17.1,5.36,4.77,1.48,9.56,2.9,14.32,4.39,3.52,1.1,7,2.28,10.51,3.42,6.33,2.05,12.67,4.06,19,6.17,3.27,1.1,6.46,2.43,9.72,3.58,2.56.9,5.17,1.62,7.73,2.5,3.09,1.07,6.14,2.24,9.23,3.32,1.57.55,3.19,1,4.76,1.51,4.65,1.62,9.37,3.09,13.92,5a140.86,140.86,0,0,0,14.69,4.88c5.2,1.51,14,4.5,19,6.41,3.59,1.35,1.39,2.07,2.46,2.38.51,2.9.83,25.64.91,28.41.1,3.49.36,7,.48,10.48.08,2.33,0,4.66.05,7,0,4.07.23,8.15-.09,12.19a51,51,0,0,0,.48,11.23,32.42,32.42,0,0,1,0,4.39c10.66,1.06,22.52.29,33.4-.2,0-.53-1.16-47.4-1.17-48-.07-3.13-.11-6.26-.27-9.39-.15-2.88-.47-5.75-.65-8.63-.12-2-.11-3.94-.18-5.9-.12-3.21-.18-6.42-.41-9.62-.08-1.17.79-2.21.27-3.41-.06-.13.5-.64.85-.81,2-1,4-1.88,6-2.92q6.52-3.46,13-7c3.44-1.91,6.84-3.89,10.24-5.89,2.81-1.65,5.56-3.39,8.37-5s5.75-3.33,8.62-5q4.53-2.65,9-5.34c4.76-2.84,9.5-5.7,14.27-8.53q6-3.57,12.08-7.09c3-1.73,6-3.41,9-5.09,1.66-.93,3.43-1.69,5-2.76a2.67,2.67,0,0,1,2-.5c4.06.61,8.12.24,12.18.18,4.31-.07,8.63,0,12.94,0h5.41c0-1.85.14-3.57,0-5.26-.16-1.9-.56-3.78-.87-5.66-.21-1.28,0-1.54,1.27-1.56a6,6,0,0,0,3.42-.55c.24-.15.69,0,1,.06.56.16,1.11.39,1.77.64,0,.14.18.5.09.58-1.07,1-.76,2.18-.71,3.39.08,1.7,0,3.41,0,5.12,0,.43,0,.86,0,1.29a1.11,1.11,0,0,0,1.27,1.24c1,0,2,0,3,0,3.16,0,6.32,0,9.47,0,1.66,0,3.32-.16,5-.24,3.7-.17,7.4-.22,11.09-.51,5.86-.48,11.72-.33,17.59-.24,3,.05,6,0,9,0,3.7.07,7.4.27,11.11.32,3.21,0,6.42,0,9.64-.05l17,0c5.43,0,10.86,0,16.28-.07,3.67,0,7.35-.16,11-.16,1.72,0,3.44.23,5.17.28,1.54.05,3.07,0,4.74,0a9.45,9.45,0,0,0,.27-2.15c-.36-3-.11-6-.91-9-.28-1,.14-1.52,1.16-1.73a13.57,13.57,0,0,1,1.66-.12c1.16-.09,2.31-.2,3.47-.27a4,4,0,0,1,.89.16l1,14.08c.63,0,1.1.07,1.58.07,3.52,0,7,.15,10.57.11,3.31,0,6.61-.28,9.92-.32,2.14,0,4.28.1,6.42.23,2.6.16,215.6,0,218.56.93-1.92.25,2.61.8,1.07.91-4.3.3-225,.24-229.32.51-2.52.16-14.86.1-18.06.58a2.28,2.28,0,0,1-2.37-.69,2.69,2.69,0,0,1-.63-1.24c-.29-3.69-.53-7.38-.76-11.07-.1-1.6-.53-2-2.05-1.6a3.22,3.22,0,0,0-.73.38c.27,2.65.55,5.21.78,7.77.05.61-.1,1.23-.09,1.84a15.42,15.42,0,0,0,.15,2.53,1.47,1.47,0,0,1-.79,1.7,1.12,1.12,0,0,1-1.63-.37c-.37-.73-.9-.73-1.54-.65a39.07,39.07,0,0,1-8.81-.35,41.53,41.53,0,0,0-4.8-.07c-3.77,0-7.53.06-11.3.13-1.42,0-2.83.25-4.24.21-2-.06-4-.32-6-.42-1.22-.06-2.44.08-3.66.06-2.83,0-5.67-.16-8.5-.15-3.44,0-6.87.17-10.31.19-2.39,0-4.77-.11-7.16-.18-.68,0-1.35-.1-2-.1-5.68,0-11.37.06-17-.17-5.48-.23-10.93.13-16.4.19-2.9,0-5.81.09-8.69.38-3.58.36-7.15.27-10.73.27-3.12,0-6.25.43-9.37.61a4.93,4.93,0,0,1-2.16-.33,1.76,1.76,0,0,1-.81-1.26c-.14-1.35-.1-2.71-.13-4.06,0-1.65,0-3.31-.13-5-.11-1.31-.55-1.47-2-1,.17,3,.32,5.89.52,8.84,0,.32.35.61.46.94.17.48.53,1.2.34,1.44a2.42,2.42,0,0,1-1.64.92c-2.87-.12-5.74-.45-8.61-.61-1.25-.07-2.52.11-3.78.16a9.82,9.82,0,0,1-2,0,29.11,29.11,0,0,0-7.18.1c-3,.22-6,.21-9,.29a6.25,6.25,0,0,0-3.3.72c-3.86,2.28-7.85,4.35-11.77,6.51-3.56,2-6.94,4.21-10.63,6-2.38,1.12-4.49,2.8-6.77,4.16-4.92,2.93-9.88,5.79-14.8,8.71-5.88,3.5-11.73,7.06-17.62,10.55-4.82,2.85-9.68,5.65-14.53,8.44C452.61,183,449,185,445.41,187c-.52.29-1,.64-1.69,1.07,2.13.94,4.1.5,6,.41,3.76-.16,7.5-.46,11.26-.64,4.9-.23,9.81-.47,14.72-.59,3.05-.07,6.11.07,9.17.1,7.35.08,14.69.13,22,.23,2.58,0,5.16.23,7.75.22,2.83,0,5.66-.2,8.5-.27,5.85-.14,11.7-.2,17.55-.39,4.62-.15,9.23-.47,13.85-.68,2.83-.13,5.67-.15,8.5-.29s5.53-.38,8.3-.52c3.33-.17,6.65-.29,10-.43l8.42-.36c.56,0,1.11,0,1.67,0,4.92-.2,9.85-.42,14.77-.6,1.79-.07,3.58,0,5.37-.05,4.07-.11,19.45-.86,23.07-1,3.84-.14,7.69-.08,11.54-.23,3.07-.12,22.13-.33,28.54-.31,2.87,0,239.6-.13,242.45.43-6,.09,5.32,1-.71,1.16-4.62.14-273.31.71-277.36.93-3.55.19-24.74,1-29.29,1.26-4,.19-8,.28-12,.38-5.91.14-11.81.23-17.72.39-2.22.06-4.43.25-6.65.37L567,188c-4.43.23-8.86.47-13.3.67-3.88.17-7.76.29-11.64.45-4.86.2-9.71.46-14.57.64-3.88.14-7.75.23-11.63.3-2.7.05-5.39.07-8.09,0-4.3-.05-8.61-.18-12.91-.23-3.81,0-7.62,0-11.43-.07-2.63,0-5.26-.21-7.9-.29-.48,0-1,.15-1.46.18-3.2.19-6.4.38-9.6.53-5,.23-10,.34-14.92.95-1.65.2-3.33.1-5,.14l-6.33.16c0,.81,0,1.34,0,1.87.11,3.32.24,6.63.33,9.95.06,2.08,0,4.17.12,6.25.24,6.72.48,13.44.78,20.15.09,2,.45,4,.56,6.07.12,2.46.12,4.92.14,7.38,0,2.9,0,5.8,0,8.7,0,2.64,0,5.27.07,7.91,0,2.28.24,4.56.15,6.83-.36,8.42.64,16.81.61,25.23,0,6.08.82,12.14.53,18.24-.12,2.58-.17,5.17-.27,7.75a3,3,0,0,1-.17.64c-.21,0-.4,0-.42-.09a31.54,31.54,0,0,1-1.51-7.92c-.07-3.5-.11-7-.2-10.49-.12-4.5-.28-9-.41-13.5-.21-7-.21-9.19-.3-9.55-.45,0-11.06,1.14-15.38,1-6.27-.14-12.53-.51-18.8-.83a4.07,4.07,0,0,1-1.87-.59,1.55,1.55,0,0,1-.55-1.21c.09-1.47.4-2.93.45-4.4a34.56,34.56,0,0,0-.2-4.05,57.7,57.7,0,0,1,0-8.64c.22-3.16.19-6.34.12-9.51-.13-5.46-.37-10.92-.58-16.37-.12-3.14-.58-28.31-1.28-31.5-4.48-1.65,0,0-4.59-1.61-5.17-1.81-10.38-3.52-15.58-5.23-2.28-.75-4.64-1.26-6.89-2.08-3.69-1.33-7.32-2.85-11-4.23-2.07-.78-4.19-1.4-6.28-2.14-1.86-.66-3.69-1.4-5.55-2-1-.36-2.13-.56-3.17-.9-3.16-1-6.3-2.13-9.45-3.18-2.4-.8-4.82-1.55-7.2-2.39-3.48-1.23-6.94-2.53-10.42-3.78-5.83-2.09-11.74-3.93-17.67-5.72-2.95-.89-5.83-2-8.75-2.94s-5.58-1.82-8.38-2.69c-4.11-1.28-8.24-2.5-12.35-3.78-4.88-1.52-9.76-3-14.62-4.61s-9.84-3.19-14.73-4.86c-3.9-1.33-7.73-2.86-11.65-4.12-2.79-.9-5.69-1.43-8.5-2.25q-5.75-1.66-11.44-3.51c-2.39-.77-4.72-1.74-7.1-2.54-3-1-6.1-1.88-9.13-2.89S193.56,130.37,197.49,131.63Z"/><path d="M486.49,246.44a12.46,12.46,0,0,1-1.63-.15,15.82,15.82,0,0,0-1.6-.15c-.9,0-1.81,0-2.71,0h-4.36a24.57,24.57,0,0,1-.73-7.57c0-.79,0-1.58,0-2.37,0-1-.06-2-.1-2.95-.07-1.78-.14-3.57-.11-5.35.06-3.79,1-6.69,2.95-8.87a8.36,8.36,0,0,1,6.06-2.86h0c2.36,0,4.24.94,6.35,3a2.7,2.7,0,0,1,.44.75l.18.37a18.23,18.23,0,0,1,2,8.79c0,1.68.07,3.36.18,5l.52,10.28a3.14,3.14,0,0,1,0,.5,5,5,0,0,0,0,.58c0,.39-.06.67-.85.71l-1.42.07c-1.67.08-3.34.17-5,.18Zm-5.19-1.06a13.78,13.78,0,0,1,2.32.17,17,17,0,0,0,2.93.23h0c1.21,0,2.41-.09,3.66-.19l2-.14a.61.61,0,0,0,.58-.61v-1.58c0-1.07,0-2.06,0-3.06,0-1.47-.1-2.93-.15-4.4-.1-2.54-.19-5.08-.22-7.62a16.35,16.35,0,0,0-1.84-7.55,6.61,6.61,0,0,0-8.83-2.89l-.55.26c-.33.15-.66.31-1,.49a7.57,7.57,0,0,0-3.15,3.93,17.6,17.6,0,0,0-1.14,7.47c.07,2.9.06,5.81.06,8.71v4.07a3.13,3.13,0,0,0,.92,2.67.61.61,0,0,0,.4.14c.67,0,1.34,0,2-.05S480.66,245.38,481.31,245.38Z"/><path d="M486.49,302a12.46,12.46,0,0,1-1.63-.15,15.82,15.82,0,0,0-1.6-.15c-.9,0-1.81,0-2.71,0h-4.36a24.57,24.57,0,0,1-.73-7.57c0-.79,0-1.58,0-2.37,0-1-.06-2-.1-2.95-.07-1.78-.14-3.57-.11-5.35.06-3.79,1-6.69,2.95-8.87a8.36,8.36,0,0,1,6.06-2.86h0c2.36,0,4.24.94,6.35,3a2.7,2.7,0,0,1,.44.75l.18.37a18.23,18.23,0,0,1,2,8.79c0,1.68.07,3.36.18,5L493.9,300a3.14,3.14,0,0,1,0,.5,5,5,0,0,0,0,.58c0,.39-.06.67-.85.71l-1.42.07c-1.67.08-3.34.17-5,.18Zm-5.19-1.06a13.78,13.78,0,0,1,2.32.17,17,17,0,0,0,2.93.23h0c1.21,0,2.41-.09,3.66-.19l2-.14a.61.61,0,0,0,.58-.61v-1.58c0-1.07,0-2.06,0-3.06,0-1.47-.1-2.93-.15-4.4-.1-2.54-.19-5.08-.22-7.62a16.35,16.35,0,0,0-1.84-7.55,6.61,6.61,0,0,0-8.83-2.89l-.55.26c-.33.15-.66.31-1,.49a7.57,7.57,0,0,0-3.15,3.93,17.6,17.6,0,0,0-1.14,7.47c.07,2.9.06,5.81.06,8.71v4.07a3.13,3.13,0,0,0,.92,2.67.61.61,0,0,0,.4.14c.67,0,1.34,0,2-.05S480.66,300.95,481.31,300.95Z"/><path d="M559.15,246.44a12.46,12.46,0,0,1-1.63-.15,15.82,15.82,0,0,0-1.6-.15c-.9,0-1.81,0-2.71,0h-4.36a24.57,24.57,0,0,1-.73-7.57c0-.79,0-1.58,0-2.37,0-1-.06-2-.1-2.95-.07-1.78-.14-3.57-.11-5.35.06-3.79,1-6.69,2.95-8.87a8.36,8.36,0,0,1,6.06-2.86h0c2.36,0,4.24.94,6.35,3a2.7,2.7,0,0,1,.44.75l.18.37a18.23,18.23,0,0,1,2,8.79c0,1.68.07,3.36.18,5l.52,10.28a3.14,3.14,0,0,1,0,.5,5,5,0,0,0,0,.58c0,.39-.06.67-.85.71l-1.42.07c-1.67.08-3.34.17-5,.18ZM554,245.38a13.78,13.78,0,0,1,2.32.17,17,17,0,0,0,2.93.23h0c1.21,0,2.41-.09,3.66-.19l2-.14a.61.61,0,0,0,.58-.61v-1.58c0-1.07,0-2.06,0-3.06,0-1.47-.1-2.93-.15-4.4-.1-2.54-.19-5.08-.22-7.62a16.35,16.35,0,0,0-1.84-7.55,6.61,6.61,0,0,0-8.83-2.89l-.55.26c-.33.15-.66.31-1,.49a7.57,7.57,0,0,0-3.15,3.93,17.6,17.6,0,0,0-1.14,7.47c.07,2.9.06,5.81.06,8.71v4.07a3.13,3.13,0,0,0,.92,2.67.61.61,0,0,0,.4.14c.67,0,1.34,0,2-.05S553.32,245.38,554,245.38Z"/><path d="M640.36,246.44a12.46,12.46,0,0,1-1.63-.15,15.82,15.82,0,0,0-1.6-.15c-.9,0-1.81,0-2.71,0H630a24.57,24.57,0,0,1-.73-7.57c0-.79,0-1.58,0-2.37,0-1-.06-2-.1-2.95-.07-1.78-.14-3.57-.11-5.35.06-3.79,1-6.69,2.95-8.87a8.36,8.36,0,0,1,6.06-2.86h0c2.36,0,4.24.94,6.35,3a2.7,2.7,0,0,1,.44.75l.18.37a18.23,18.23,0,0,1,2,8.79c0,1.68.07,3.36.18,5l.52,10.28a3.14,3.14,0,0,1,0,.5,5,5,0,0,0,0,.58c0,.39-.06.67-.85.71l-1.42.07c-1.67.08-3.34.17-5,.18Zm-5.19-1.06a13.78,13.78,0,0,1,2.32.17,17,17,0,0,0,2.93.23h0c1.21,0,2.41-.09,3.66-.19l2-.14a.61.61,0,0,0,.58-.61v-1.58c0-1.07,0-2.06,0-3.06,0-1.47-.1-2.93-.15-4.4-.1-2.54-.19-5.08-.22-7.62a16.35,16.35,0,0,0-1.84-7.55,6.61,6.61,0,0,0-8.83-2.89l-.55.26c-.33.15-.66.31-1,.49a7.57,7.57,0,0,0-3.15,3.93,17.6,17.6,0,0,0-1.14,7.47c.07,2.9.06,5.81.06,8.71v4.07a3.13,3.13,0,0,0,.92,2.67.61.61,0,0,0,.4.14c.67,0,1.34,0,2-.05S634.52,245.38,635.17,245.38Z"/></g></g></svg>