<svg xmlns="http://www.w3.org/2000/svg" viewBox="0 0 1092.06 72.87"><title>vous_invit</title><g id="Layer_2" data-name="Layer 2"><g id="phrase"><path d="M0,12a9.18,9.18,0,0,0,.25-1.2C.31,10,1.43,9.22,2.59,9.22A2,2,0,0,1,4.68,10.7c.24,2.23.52,4.46.77,6.69.18,1.65.28,3.31.53,5,.38,2.49.79,5,1.31,7.44.34,1.6,1,3.16,1.34,4.76.32,1.33.47,2.69.71,4s.48,2.87.77,4.3A24.7,24.7,0,0,1,10.87,46c.08,1.15.69,2.36.43,3.4-.32,1.26.36,2.34.49,3.49a31.93,31.93,0,0,0,1.5,5.17,19.21,19.21,0,0,1,.37,2.11H14c0-.58,0-1.16,0-1.74a41.07,41.07,0,0,1,.29-4.65c.25-1.52.84-3,1.17-4.51.16-.72,0-1.48.1-2.21.41-3.29.64-6.61,1.36-9.87.56-2.55.26-5.09.53-7.63.16-1.55.58-3.1.77-4.65.17-1.38.18-2.76.28-4.14s.27-3,.39-4.51c0-.58,0-1.16,0-1.74a38.53,38.53,0,0,1,.07-4.2c.1-.88,1-1.2,2.46-1.09,1.09.08,1.4.64,1.38,1.29-.05,2.14-.15,4.28-.25,6.42-.08,1.83-.11,3.66-.28,5.48-.13,1.28-.49,2.56-.71,3.84a19.77,19.77,0,0,0-.29,2.19c-.12,1.83-.07,3.68-.31,5.5s-.8,3.68-1.16,5.52c-.12.6,0,1.23-.1,1.83-.32,2.13-.67,4.25-1,6.38-.33,1.94-.74,3.88-1,5.83a42.65,42.65,0,0,0-.51,5.19,57.26,57.26,0,0,0,.25,6c.11,1.35.77,2.71.57,4s.82,2.95-.85,4.19h-2.6c-.47-.55-1-1.08-1.4-1.66a16.44,16.44,0,0,1-1.19-2A9.76,9.76,0,0,1,11,66a34.91,34.91,0,0,0-1.5-4.87c-.42-1.43-.82-2.88-1.11-4.33-.27-1.3-.37-2.61-.57-3.91-.25-1.58-.53-3.16-.8-4.75a5.68,5.68,0,0,0-.32-1.61c-1-2-.66-4-1-6.07-.16-1.08-.22-2.17-.41-3.25-.15-.91-.43-1.8-.64-2.71a32.67,32.67,0,0,0-1.26-5.41c-.78-1.91-.13-4-1.76-5.78,1-.78-.25-1.5-.15-2.29A9.53,9.53,0,0,0,1,18.59C.84,17.21.72,15.82.51,14.44c-.12-.77-.34-1.53-.51-2.3Z"/><path d="M191.66,72.87a6.1,6.1,0,0,1-1-.48c-.32-.23-.69-.51-.76-.81-.32-1.27-.57-2.55-.77-3.84a11.9,11.9,0,0,1,0-1.75c0-.79,0-1.59,0-2.38-.07-1.56-.08-3.13-.27-4.69s-.59-3.22-.87-4.83c-.08-.46-.11-.93-.15-1.39-.15-1.82-.25-3.64-.44-5.45-.14-1.39-.54-2.77-.56-4.15,0-2.1.21-4.2.19-6.3,0-1.08-.39-2.15-.47-3.23q-.22-3.08-.26-6.17c0-3,0-6,0-9.07a27.33,27.33,0,0,0,.21-2.82,9.54,9.54,0,0,1-.05-3.24c.06-.26-1-.65-1.79-1.13a11,11,0,0,1,1.71-2.34,4.58,4.58,0,0,1,2.38-.67c2.4-.14,4.81-.2,7.22-.19,1.44,0,2.87.23,4.31.33,1.15.08,2.31.09,3.45.23a1,1,0,0,1,.69.67c0,.19-.4.53-.69.58-1.86.29-3.72.58-5.61.73-2.46.2-5,.24-7.42.42-.28,0-.77.51-.71.72a19.16,19.16,0,0,1,.3,6.65c-.14,1.7,0,3.4-.12,5.1,0,1-.25,2.05-.31,3.08a4.67,4.67,0,0,0,.11,2.14c.75,1.71-.1,3.43.29,5.13a16.37,16.37,0,0,1,.39,3c0,.9-.21,1.81-.14,2.71.16,2.1.44,4.19.66,6.28,0,.44,0,.88,0,1.32.34,2.43.69,4.85,1.1,7.28A1.08,1.08,0,0,0,193,55c2.82.29,5.66.53,8.49.76,1.25.1,2.52.09,3.75.23a3.84,3.84,0,0,1,1.23.63,4.64,4.64,0,0,1-1.28.62c-1.53.24-3.08.41-4.63.56q-3.09.3-6.19.53c-1.69.13-1.67.11-1.42,1.36a8.17,8.17,0,0,1,0,1.14c.08,1.53.13,3.06.28,4.59a4.81,4.81,0,0,0,.6,2.08c.67,1.08,2.35,1.33,3.68,1.46,2.3.22,4.68.06,7,.06.74,0,1.49,0,2.22,0,2.21-.1,4.43-.24,6.64-.33a4.11,4.11,0,0,1,1.05.24c-.11.21-.13.5-.34.62a7.68,7.68,0,0,1-1.92.91,50.56,50.56,0,0,1-5.08,1.07c-1.66.24-3.38.3-5.08.43a5,5,0,0,0-1.4.07c-1.38.67-2.87.24-4.1,0s-2.22-.35-3,.52a2.4,2.4,0,0,1-.57.32Z"/><path d="M589,0c.89.59,1.77,1.19,2.67,1.77.63.4,1.31.77,1.94,1.17a9,9,0,0,1,1.15.86c.52.46,0,.77-.48.94a6,6,0,0,1-5-1c-.34-.34-.77-.64-1.26-1-1,.58-1.95,1.14-2.9,1.67a2.32,2.32,0,0,1-2.88-.59A1.06,1.06,0,0,1,582.65,2c1.5-.7,3-1.37,4.54-2Z"/><path d="M1092.06,61.83c-.64.43-1.31.84-1.93,1.29a3.89,3.89,0,0,1-4-.29c-1.08-1.22-.9-1.6.68-2.49a5.17,5.17,0,0,1,4.48-.31c.35.13.53.47.79.71Z"/><path d="M639.86,9.2v1c-2,.35-4,.71-6,1a12.64,12.64,0,0,1-2.45.05c-1.4-.08-2.79-.25-4.18-.32-.24,0-.74.26-.75.41-.15,2.24-.31,4.48-.31,6.73,0,2.75.2,5.5.22,8.25,0,2.41-.13,4.82-.14,7.22,0,1.66.12,3.32.15,5s0,3.59,0,5.39q0,3.66,0,7.31c0,.09,0,.18,0,.28,0,.55-.08,1.55.05,1.57a12.14,12.14,0,0,0,3.31,0c2.45-.4,4.84-1,7.29-1.42a6.34,6.34,0,0,1,1.8.24A4.85,4.85,0,0,1,637.63,53a55.24,55.24,0,0,1-5.26,2.11,17,17,0,0,1-4,.82c-2,.14-2.15.16-2.2,1.58a19.14,19.14,0,0,0-.22,2.85c.24,2,.65,4.07,1,6.1.13.7.69,1,1.77.93a12.24,12.24,0,0,0,5.77-2.19c.89-.53,1.55-1.25,2.39-1.83a14.22,14.22,0,0,1,2.2-1.19,1.39,1.39,0,0,1,1,.1.58.58,0,0,1,.19.69,18.14,18.14,0,0,1-9.06,6.72c-2.92,1-5.63.74-7.45-1a3.92,3.92,0,0,1-.71-2,28.2,28.2,0,0,1-.92-3.8,43,43,0,0,1-.14-4.33c0-.31.12-.64,0-.91s-.34-.68,0-1.07c.13-.15,0-.58-.28-.72-1-.62-.69-1.23-.22-1.95a4,4,0,0,0,.76-1.94c.1-3.23.07-6.45.11-9.68,0-.86.17-1.71.18-2.57,0-4.06,0-8.11,0-12.17,0-2,.15-4,.14-6,0-3.31-.13-6.62-.13-9.93,0-1-.9-1.65-1.32-2.58-1,.33-1.83.68-2.74.92-2.67.7-5.36,1.35-8,2.05-.28.07-.63.36-.62.55,0,1.15.16,2.3.2,3.45.11,2.87.27,5.74.25,8.6a43.77,43.77,0,0,1-.5,5.8c-.34,2.4-.93,4.78-1.24,7.17s-.42,5.06-.66,7.59c-.06.65-.3,1.3-.43,1.95a4.75,4.75,0,0,0,0,.75c-.07,1.93-.16,3.86-.19,5.78a23.6,23.6,0,0,0,.21,2.63c.16,1.57.3,3.15.52,4.71a36.5,36.5,0,0,1,.71,4.66,3.63,3.63,0,0,1-.87,2.89,1.75,1.75,0,0,1-2.1.49,1.5,1.5,0,0,1-1.18-1.77,3.31,3.31,0,0,0,.07-1.19c-.24-2-.52-4.06-.79-6.08-.17-1.32-.38-2.64-.51-4a23.74,23.74,0,0,1,0-2.4A34.64,34.64,0,0,1,604,44.8a11.33,11.33,0,0,0,.08-3.35c-.09-2.32.69-4.55,1.28-6.8a21,21,0,0,0,.31-3c.15-1.32.36-2.64.49-4a32.06,32.06,0,0,0,.25-4.1c-.08-2.31-.34-4.61-.48-6.92-.07-1.14,0-2.28,0-3.41,0-.49,0-.69-1-.62a20,20,0,0,1-8.57-.87,10.47,10.47,0,0,0-4.07-.53c-1.8,0-3.61.1-5.41.17-.77,0-1.47,1.15-1.46,1.85a36.17,36.17,0,0,1-.28,3.92c-.16,1.53-.38,3.06-.54,4.6-.09.88-.13,1.77-.19,2.65-.09,1.28-.13,2.56-.27,3.84-.31,2.75-.74,5.5-1,8.26-.15,1.6,0,3.21,0,4.81,0,1-.27,2.06-.22,3.09.12,2.84.34,5.68.5,8.3,2.36.24,4.31.57,6.26.59a53.16,53.16,0,0,0,6-.44c1.37-.14,2.71-.44,4.08-.6a3,3,0,0,1,1.06.33c-.22.24-.35.59-.66.71a39.18,39.18,0,0,1-5.27,1.85,34.72,34.72,0,0,1-8.79,1c-2.1-.06-2.39.16-2.14,1.59a17.35,17.35,0,0,0,2.07,6.09c1,1.7,4.65,2.27,6.62,1.07a28.93,28.93,0,0,1,4-1.83c1.45-.6,2.94-1.16,4.46-1.66.52-.17,1.37-.48,1.72.12s0,.91-.82,1.24a18.58,18.58,0,0,0-3.34,1.83,27.61,27.61,0,0,1-7.12,3.52c-2.18.72-4.13,0-6-.8-2.79-1.11-3.55-3.08-4.41-5a15.88,15.88,0,0,1-1.22-6.2c-.05-2.21-.64-4.41-.79-6.62-.12-1.86.06-3.72.11-5.59,0-.27,0-.55,0-.82.09-2.67.08-5.34.3-8s.68-5.43,1-8.14c.13-1.14.15-2.29.27-3.43.24-2.26.53-4.52.76-6.79.13-1.26.16-2.53.28-3.79.07-.72.26-1.44.38-2.14-1.85.22-3.66.53-5.5.63-2.21.11-4.44.1-6.65,0-1.9-.07-3.8-.31-5.9-.5,0,.8,0,1.41,0,2,0,2.16-.1,4.33,0,6.49.11,1.9.54,3.78.71,5.68a18,18,0,0,1-.21,2.54c0,.75,0,1.49,0,2.45,1.61-.12,3.15-.23,4.69-.36,2.41-.2,4.81-.44,7.22-.61a3.18,3.18,0,0,1,1.05.33c-.24.21-.42.51-.73.63a36.38,36.38,0,0,1-8.71,2.33c-.83.11-1.66.22-2.47.39s-1.28.38-1,1.12a4.76,4.76,0,0,1,.15,1.76c.09,1.95.22,3.89.24,5.84,0,1.22-.24,2.44-.2,3.66s.34,2.15.47,3.23c.2,1.72.36,3.45.53,5.17.1,1,.12,2.07.29,3.09.29,1.69.7,3.37,1,5.06.22,1.21.36,2.42.5,3.63a2.1,2.1,0,0,1-.11,1.08c-.39.88-.87,1.74-1.32,2.61a1.5,1.5,0,0,1-1.57.73c-.82,0-.86-.37-.9-.8-.06-.67-.17-1.34-.24-2-.1-.95-.14-1.9-.27-2.85a67.81,67.81,0,0,0-1.07-6.83c-.54-2.19-.35-4.37-.49-6.56-.1-1.6-.46-3.2-.53-4.8-.11-2.55-.07-5.09-.11-7.64,0-.93-.13-1.86-.15-2.79-.05-2.56-.07-5.12-.11-7.69,0-.63-.08-1.25-.1-1.88s0-1.48,0-2.22c-.17-2.72-.36-5.44-.54-8.16-.09-1.37-.1-2.75-.28-4.12,0-.32-.51-.72-.93-.9-1.08-.44-1.79-1.16-1.29-1.93a2.8,2.8,0,0,1,1.9-.79,27,27,0,0,1,6.7.57A31.92,31.92,0,0,0,571.9,9c2.95.18,5.91.28,8.86.36A2.22,2.22,0,0,0,582.12,9c1.37-1.44,3.26-1,5.09-.79,2.77.27,5.54.62,8.32.8,1.48.1,3-.14,4.49-.13a3.18,3.18,0,0,1,1.6.42,3.85,3.85,0,0,0,3.54.46A6.33,6.33,0,0,1,609,9.45c1.36.29,3.11-.3,4.68-.54s3-.52,4.53-.82a20.35,20.35,0,0,0,2.14-.55c2-.62,3.74-.14,5.69.28a94.18,94.18,0,0,0,9.41,1.35A40.64,40.64,0,0,0,639.86,9.2Z"/><path d="M735.38,66.12a10.81,10.81,0,0,1-7.48,1.73,40.62,40.62,0,0,1-4.32-.69c-2.87-.6-5.08-1.75-5.91-3.91-.36-.93-.58-1.9-.9-2.84s-.71-2-1.07-2.92c-.06-.17-.21-.34-.21-.51-.09-3.68-.41-7.38-.16-11.05.13-1.93.09-3.85.12-5.77s-.29-3.63-.2-5.44c.12-2.46.5-4.92.71-7.38.06-.66-.13-1.33-.12-2,0-.87.14-1.74.19-2.61,0-.72.06-1.44.06-2.15s-.07-1.16,0-1.74c0-1.07.07-2.13.22-3.19.19-1.35.54-2.68.73-4a12.53,12.53,0,0,0,.22-3.37c-.11-.85.56-1.1,1.32-1.24a2.28,2.28,0,0,1,2.68,1.65c.12,2-.59,4-1,5.92a20.69,20.69,0,0,0-.06,3.22c-.14,2.61-.36,5.22-.49,7.84-.07,1.35,0,2.71,0,4.06s-.42,3-.47,4.44.15,2.88.2,4.32c.06,1.79.14,3.58.1,5.38-.05,2.22-.34,4.44-.29,6.66,0,1.56.75,3.12.64,4.67-.17,2.35,1.15,4.45,1.65,6.68.33,1.45,1.44,2.35,3.47,2.71a24.3,24.3,0,0,1,3.5.8c1.86.63,3.13,0,4.41-.81a18,18,0,0,0,1.72-1.09.82.82,0,0,0,.25-.71c-.27-2.56-.6-5.13-.85-7.69a1.29,1.29,0,0,0-.75-1.22c-1.13-.63-1-1.05-.07-1.77a1.3,1.3,0,0,0,.45-1c0-1.35-.1-2.7-.19-4,0-.6-.17-1.2-.23-1.8-.1-.95-.19-1.9-.25-2.84-.1-1.4-.19-2.8-.25-4.2,0-.77,0-1.54,0-2.31-.11-1.88-.3-3.77-.37-5.65a19.89,19.89,0,0,1,.24-2.21c0-.32-.13-.64-.12-1,.07-1.41.22-2.81.26-4.22s0-2.65,0-4a24,24,0,0,0,0-2.42,56.75,56.75,0,0,0-.83-6.21c-.21-.94.54-1.09,1.32-1.16,2.79-.24,5.62-.3,8.4-.61a27.78,27.78,0,0,1,6.54.4c.6.07,1.17.26.91.75a1.56,1.56,0,0,1-1.08.69c-3.16-.16-6,.76-9,1.22-.12,0-.24.08-.36.09-.62.07-1.68,0-1.78.22a3.48,3.48,0,0,0-.2,1.79c0,1.06.18,2.12.22,3.18s0,1.85,0,2.78q-.11,3.48-.26,7c-.07,1.8-.27,3.6-.23,5.4,0,1.6.34,3.2.47,4.8,0,.41-.23.83-.22,1.25,0,.72.19,1.45.23,2.17.1,1.6.14,3.21.27,4.81s.37,3.39.51,5.09c.06.75.52,1.05,1.57,1.12,1.82.13,3.63.41,5.45.5a10,10,0,0,0,2.7-.34c1-.23,1.89-.6,3-1a13.54,13.54,0,0,1-.21-1.87c0-1.35.09-2.7.2-4.05.12-1.54.39-3.08.45-4.62.09-2.34,0-4.69.08-7,.07-1.94.28-3.88.46-5.83.12-1.26.32-2.51.43-3.76.16-1.79.21-3.59.41-5.37.15-1.38.58-2.75.67-4.13s-.15-2.62-.16-3.92c0-1.14.7-1.63,2.21-1.68.8,0,1.22.17,1.44.78a11.76,11.76,0,0,1,.06,6.85,14.24,14.24,0,0,0-.32,2.35c-.13,2.11-.18,4.22-.34,6.33-.1,1.23-.43,2.45-.53,3.68-.14,1.71-.16,3.42-.23,5.14q-.13,3-.28,6c0,.73-.08,1.46-.13,2.19-.11,1.53-.35,3.06-.3,4.59.06,2.15.28,4.31.53,6.45s.54,4.52,1,6.75,2.06,4.17,4.92,5.39a2.09,2.09,0,0,0,1.32-.21,7.19,7.19,0,0,0,2.8-3.18c1.09-1.87,2.34-3.7,3.27-5.6a11.73,11.73,0,0,0,1.1-3.87c.18-1.65,0-3.33.05-5,.07-3.18.2-6.37.23-9.55a13.8,13.8,0,0,0-.46-2.4c-.28-1.59-.62-3.18-.78-4.78-.13-1.23,0-2.47,0-3.71-.14-2.83-.42-5.66-.48-8.49,0-2.38.14-4.76.23-7.14a3.55,3.55,0,0,0,0-.55c-.17-1.44-.18-1.44,1.86-1.53.25,0,.49-.05,1-.1a15,15,0,0,1,1,3.32c.12,1.83-.16,3.68-.13,5.51,0,2.92.21,5.84.31,8.77a25.35,25.35,0,0,0,0,2.67c.29,2.07.79,4.12,1,6.2.17,1.57,0,3.16,0,4.74,0,.58.11,1.16.09,1.74-.05,2-.19,4-.2,5.94,0,1.4.23,2.8.17,4.2a10.82,10.82,0,0,1-.62,2.83A21.3,21.3,0,0,1,771,58.27,39.6,39.6,0,0,1,766.86,65c-2.75,3.28-8.81,2.94-11.6.12a48.64,48.64,0,0,1-3.25-4h0c.58,1-.57,1.65-1.14,2.39a12.51,12.51,0,0,1-5.24,3.9C742.78,68.62,737.09,69,735.38,66.12Zm4.52-.66a12.71,12.71,0,0,0,2.47.16,8.48,8.48,0,0,0,5.41-2.76,5.68,5.68,0,0,1,3.88-2.21l-1.44-8.33c-.43.23-.73.37-1,.53a8.06,8.06,0,0,1-4.91,1.26c-1.81-.1-3.63,0-5.45,0-.61,0-.94.09-.87.6.25,1.81.46,3.62.66,5.3l1.89.35C739.53,62.08,738.25,63.67,739.9,65.46Z"/><path d="M959.21,65c-1.06.36-2,.73-2.93,1-2.21.56-4.42,1.14-6.68,1.57a36,36,0,0,1-5.15.56c-3.47.14-4.5-.45-5.52-2.68a9.61,9.61,0,0,1-1.19-4.61,25.14,25.14,0,0,0-.38-4c0-.2.14-.4.16-.6,0-.42,0-.7-.78-.86s-1.56-.59-1.61-.95c-.08-.65.36-1.36,1.62-1.49,0-1.71,0-3.39,0-5.08,0-.89.21-1.77.24-2.66,0-1.38,0-2.77,0-4.16-.06-2.39-.18-4.79-.26-7.18-.18-5.25-.38-10.5-.5-15.75-.07-2.89,0-5.77,0-8.66a3.66,3.66,0,0,1,0-.64c.27-1.5,1.58-2,3.53-1.4a12.12,12.12,0,0,0,3.05.5c2.69.07,5.38,0,8.07,0a5.8,5.8,0,0,1,2,.4,37.69,37.69,0,0,1-12.18,2.32c-.09.85-.18,1.58-.24,2.32a8.18,8.18,0,0,0,0,1.27c0,.45.28.92.18,1.34-.57,2.28-.31,4.58-.47,6.87a46.23,46.23,0,0,0,0,5c.14,3.93.34,7.86.51,11.8.09,1.93.24,3.86.24,5.79,0,2.21-.16,4.42-.23,6.63,0,.5.09.83,1,1a33.88,33.88,0,0,0,10.5.49c.53,0,1-.32,1.55-.35a4.06,4.06,0,0,1,1.16.28c-.18.27-.27.71-.55.79-2,.54-4,1-6.06,1.5a9.84,9.84,0,0,1-1.92.36c-1.6.05-3.2,0-5,0,.14,1.45.16,2.83.43,4.18A38.27,38.27,0,0,0,943,64.05c.38,1.21,1.42,1.58,3.19,1.34,2.42-.32,4.88-.47,7.29-.84a48.17,48.17,0,0,0,4.93-1.13c.19-.05.34-.45.3-.66-.45-2.1-1.08-4.19-1.39-6.3-.45-3-.8-6-1-9.06-.13-2.41.1-4.82.13-7.24,0-.57-.24-1.14-.23-1.71.05-2.38.24-4.76.22-7.14,0-1.63-.43-3.27-.39-4.9.05-2.08.37-4.17.59-6.25.18-1.67.39-3.33.61-5a6.52,6.52,0,0,1,.27-1.43c.49-1.35-.68-2.38-1.24-3.54a8,8,0,0,1-1-2.76c0-.45.74-1.22,1.34-1.33,2.08-.4,5.54.41,5.26,2.53-.36,2.71,1.25,4.94,3,7.21a15.42,15.42,0,0,1,1.23,2.9c1.19,2.48,2.41,4.95,3.67,7.4.43.82,1,1.6,1.68,2.58.75-1.5,1.43-2.89,2.16-4.28,1.38-2.65,1.34-5.45,1.87-8.2.34-1.77,1.18-3.49,1.61-5.25a5.59,5.59,0,0,0,0-2.89c-.22-.73.46-1.4,1.51-1.58A3.06,3.06,0,0,1,982,8a12.61,12.61,0,0,1,1.51,6.6c-.06,2.39-.46,4.77-.64,7.16-.11,1.45,0,2.9-.12,4.34-.07,1-.43,2.06-.42,3.08,0,2.4.48,4.82.23,7.19-.24,2.2,0,4.41-.33,6.59-.56,3.57.34,7,1.26,10.51.33,1.23.45,2.49.71,3.73a40.73,40.73,0,0,0,1.26,5.28c.22.61.14,1.65,1.69,1.75.14,0,.28.2.38.32.44.6.1,3-.68,3.25a7.59,7.59,0,0,1-3.08.19,1.92,1.92,0,0,1-1.2-1.25c-.53-1.94-.72-3.94-1.39-5.86a36.78,36.78,0,0,1-1.81-8.1c-.19-1.73-.74-3.45-1-5.18a20.91,20.91,0,0,1,0-2.51c0-.91-.19-1.82-.19-2.73s.15-2.1.19-3.16c0-1.36,0-2.73.05-4.09s.2-2.94.22-4.42c0-.76-.23-1.53-.22-2.29,0-1.06.15-2.12.24-3.18s.16-2.08.26-3.12c.05-.55.16-1.09.24-1.64l-.31,0c-.23.61-.45,1.22-.7,1.82-.83,2-1.64,4-2.51,5.92-.58,1.3-1.27,2.58-1.92,3.87-.35.7-.7,1.4-1.11,2.08-.23.38-2.61,1.07-2.91.81a4.55,4.55,0,0,1-1.38-1.82c-.41-1.21-.39-2.5-.87-3.69-.57-1.4-1.53-2.72-2.25-4.09s-1.31-2.77-2-4.14-1.23-2.46-1.93-3.87a30.8,30.8,0,0,0-1,4.24,44.87,44.87,0,0,0,0,5.39c0,2,.2,4,.25,6,0,1.63,0,3.27,0,4.9,0,1.43-.2,2.85-.2,4.28,0,1.72.16,3.44.22,5.16,0,1.52,0,3,.09,4.55,0,.71.45,1.42.43,2.13a15.77,15.77,0,0,0,1,5.64c.58,1.6.87,3.25,1.31,4.88a1.08,1.08,0,0,0,.4.69,1.28,1.28,0,0,1,.57,1.91,3.46,3.46,0,0,1-2,.83,1.93,1.93,0,0,1-2.12-1A15.28,15.28,0,0,1,959.21,65Z"/><path d="M851.83,50.87v-10c0-1.6,0-3.21,0-4.81-.06-2.69-.17-5.38-.24-8.07,0-1.16,0-2.33,0-3.5-.11-3.38-.16-6.77-.39-10.15-.13-1.85-.69-3.69-.85-5.54A4.07,4.07,0,0,1,851,6.57c.44-.76,1.53-.78,2.51-.62s1.24.59,1.06,1.31a6.66,6.66,0,0,0,0,3.22,22.25,22.25,0,0,1,.54,4.61c0,1.55-.48,3.14-.14,4.64.47,2.07-.15,4.13.35,6.2a19.17,19.17,0,0,1,.07,4.53q0,2.18,0,4.35c0,1.08,0,2.15,0,3.23,0,.48-.23,1-.21,1.43.15,4.83.37,9.67.49,14.5a37.5,37.5,0,0,0,1.6,8.72,1.69,1.69,0,0,0,.74,1c.95.52.44,1.17.12,1.55a2.56,2.56,0,0,1-2.42.95,2.39,2.39,0,0,1-1.55-1,36.52,36.52,0,0,1-1.56-4.89c-.37-1.52-.53-3.06-.82-4.59-.06-.31.09-.67-.89-.66a3.1,3.1,0,0,1-3-2.25c-.36-1.43-1-2.82-1.49-4.23s-1-2.55-1.31-3.84c-.51-2-.9-4.1-1.3-6.15s-.62-4.1-1.09-6.13A45.14,45.14,0,0,0,841,27.06c-.92-2.48-2-4.93-3-7.39-.08-.19-.27-.35-.73-.52,0,.49,0,1,0,1.47,0,1.69,0,3.38,0,5.07,0,.84.2,1.68.19,2.51,0,2.24-.23,4.49-.23,6.73a42.74,42.74,0,0,0,.3,7.12c.64,3.8.23,7.6.5,11.4.16,2.26.66,4.5,1,6.75.12.84.18,1.69.28,2.54.16,1.34.38,2.68.5,4a4.48,4.48,0,0,1-.24,1.43c-.18.73-.71,1.18-1.87,1.18s-2-.37-2.27-1.17a5.19,5.19,0,0,1-.06-3.8,2.58,2.58,0,0,0,0-1.19c-.19-1.77-.38-3.53-.62-5.3-.16-1.15-.55-2.3-.61-3.45-.11-2.12,0-4.24-.07-6.36s-.4-4.06-.48-6.09c-.12-3.33-.15-6.66-.17-10,0-1.35.09-2.7.15-4.06.07-1.5.23-3,.24-4.51,0-1.25-.22-2.49-.24-3.74,0-2,0-4.1,0-6.15s.37-4.3-1.65-6.17a4.33,4.33,0,0,1-.66-1.12c-4.33.94-8.66,2.19-13.57,1.72.18,1.55.34,3.07.53,4.6.16,1.27.38,2.53.5,3.8.17,1.83.31,3.66.41,5.49.08,1.57,0,3.15.14,4.72.07,1.05.47,2.1.47,3.15a45.48,45.48,0,0,1-.31,5.85c-.27,2.12-.87,4.22-1.17,6.34s-.36,4.16-.57,6.23c-.1,1-.35,1.91-.49,2.87-.08.54-.09,1,1,1a34.5,34.5,0,0,0,8.16-.18,11.28,11.28,0,0,1,2.3.14c-.6,1.34-2.16,1.6-3.45,2a22,22,0,0,1-6.72.76c-1.33,0-1.46.21-1.38,1.21s-.1,2.22.05,3.32a51,51,0,0,0,1,5.47c.3,1.21,2.34,1.42,3.85.54s3-1.61,4.52-2.4c1.29-.68,2.54-1.38,3.87-2a20.56,20.56,0,0,1,2.27-.77l.29.25c-.1.27-.07.62-.31.8-.93.72-2,1.37-2.92,2.07-.29.21-.51.48-.8.69-.77.57-1.56,1.14-2.36,1.7a15.61,15.61,0,0,0-2.05,1.45c-1.24,1.26-3.2,1.44-5,1.61-2.93.28-4.82-1.09-5.59-3.18a22.46,22.46,0,0,1-1-8.56c0-.87.26-1.66-1-2.32-.62-.33-.6-1,.25-1.36,1.17-.46,1-1.3,1.15-2,.29-1.66.36-3.33.56-5q.36-2.94.8-5.88c.3-2,.76-4,1-6a42.06,42.06,0,0,0,.06-5.54c-.1-2.61-.26-5.23-.52-7.84s-.67-5.13-1-7.69c-.13-1-.16-2-.29-3s-.33-2-.47-3c0-.2-.06-.49.1-.61A10.19,10.19,0,0,1,816,5.38a4.41,4.41,0,0,1,2.86-.11,18.82,18.82,0,0,0,7.31-.18,43.14,43.14,0,0,1,6-.42,8.58,8.58,0,0,1,2.13.68,11.35,11.35,0,0,1,1.34.2c.61.28,1.41.61,1.6,1,1.12,2.59,2.15,5.2,3.1,7.83.57,1.59.87,3.23,1.44,4.82s1.25,2.87,1.9,4.3,1.34,2.71,1.83,4.1a30.21,30.21,0,0,1,.67,3.31c.47,2,1,4.07,1.46,6.12.28,1.28.26,2.6.64,3.87,1,3.21,2,6.4,3.1,9.59a1.77,1.77,0,0,0,.25.38Z"/><path d="M899.28,5.32l1.86-.16c.68-.07,2,.72,2.11,1.22.26,2.27.51,4.53.78,6.8.15,1.3.38,2.59.51,3.89s.12,2.56.29,3.84c.28,2.1.72,4.18,1,6.28.14,1.15-.05,2.33.06,3.48.29,2.88.69,5.76,1,8.64.13,1.18.07,2.38.3,3.55.53,2.67.45,5.39,1.9,8,.79,1.42.81,3,1.2,4.58s.73,2.81,1.1,4.21l.33,0c-.31-1.67-.64-3.34-.94-5-.19-1.07-.35-2.14-.49-3.22-.19-1.38-.44-2.76-.5-4.15-.09-2.17,0-4.35-.07-6.52,0-2-.25-4-.19-6a43,43,0,0,1,1.23-10.07c.43-1.59.39-3.25.87-4.84a27.68,27.68,0,0,1,2.21-5.41,17,17,0,0,1,3.25-4.32,13.28,13.28,0,0,1,4.59-2.77,5.54,5.54,0,0,1,4.21.32,11.2,11.2,0,0,0,3,1c.82.18,1.25.53,1.11,1s-.06,1.13-1.37,1.12A8.3,8.3,0,0,1,924.7,10a1.92,1.92,0,0,0-2.17.14c-1.14.84-2.42,1.59-3.56,2.44-.28.2-.21.63-.36.94a43.64,43.64,0,0,0-2.43,4.86A41.67,41.67,0,0,0,914.45,25c-.5,2.85-.81,5.72-1.05,8.59-.21,2.47-.26,4.94-.25,7.41,0,1.11.38,2.22.46,3.34.11,1.65,0,3.31.15,5,.19,1.82.6,3.63.93,5.45.25,1.37.46,2.75.78,4.12.52,2.21.59,4.51,2.58,6.44a2.84,2.84,0,0,0,2.72.66,26.31,26.31,0,0,0,3-1.66A15.52,15.52,0,0,0,925.61,63a3,3,0,0,0,1-3.08c0-.18-.15-.34-.19-.52-.39-1.81-1.92-2.53-4.49-2.13-1.34.21-2.24-.18-2.5-1.08-.2-.67.53-1.37,1.75-1.51,1-.11,2,0,2.95-.15,2.83-.59,5.61-1.29,8.43-1.92a5.24,5.24,0,0,1,1.77,0c-1.21,1.65-3.78,2.26-4.94,3.39a46.11,46.11,0,0,1,1.16,4.69c.21,1.51-1.12,2.71-2.31,3.8A15.71,15.71,0,0,1,922.65,68c-2.71,1-6.2.86-8.39-.93a6.52,6.52,0,0,1-1.15-1.8l-.72.27c-.54.19-1.14.59-1.61.52-.83-.12-1.49-.44-1.63-1.28a30.25,30.25,0,0,0-1.32-3.7c-.71-2.25-1.32-4.52-2-6.78-.18-.61-.42-1.22-.67-1.91-.92.19-1.85.41-2.8.57-2.28.4-4.57.77-6.85,1.15,0,0-.08,0-.11,0-3.14-.22-3.92,1.17-4.13,3a4.71,4.71,0,0,1-.56,1.56,13.66,13.66,0,0,0-1.24,5.63c-.09,1.37-1.71,2.4-3.48,2.2-1.32-.15-1.78-.82-1.19-1.66a7.83,7.83,0,0,0,1.13-3.77,12.49,12.49,0,0,1,1.18-2.79c.46-1.12.94-2.24,1.29-3.38a1.43,1.43,0,0,0-.38-1.69,1,1,0,0,1,.16-1.64c1.28-.78,1.16-1.79,1.29-2.78.37-2.76.56-5.53,1.12-8.26.68-3.35,1.73-6.67,2.49-10,.56-2.45.85-4.94,1.35-7.4.38-1.9.93-3.78,1.36-5.68s.76-3.88,1.2-5.82c.4-1.75.83-3.5,1.36-5.23C898.5,6,899,5.62,899.28,5.32ZM893,51.49c1.23-.06,2.2-.12,3.17-.15,2.56-.07,5.11-.14,7.67-.18,1.1,0,1.07-.51.89-1a29.61,29.61,0,0,1-1.51-8.51c-.07-1.05-.32-2.1-.48-3.15-.22-1.55-.48-3.1-.63-4.66-.12-1.23-.06-2.48-.19-3.71-.31-2.9-.66-5.79-1-8.68-.2-1.57-.45-3.13-.71-4.89-.15.4-.26.61-.32.84-.49,1.82-1,3.63-1.46,5.46-.24.95-.44,1.9-.62,2.85-.3,1.58-.5,3.18-.86,4.75-.42,1.8-.95,3.59-1.49,5.38a45.12,45.12,0,0,0-1.82,8.53C893.4,46.7,893.22,49,893,51.49Z"/><path d="M530.84,56.35c-3.07,1.68-6.57.94-9.86,1.54-.59,2-1.15,4.16-1.84,6.26-.61,1.87-1.38,3.72-2,5.59a1.05,1.05,0,0,1-1.35.71c-.83-.17-1.87-.36-1.76-1.19a19.29,19.29,0,0,1,.63-2.47c0-.14.08-.28.19-.65a11.53,11.53,0,0,0-1.19.45c-2,1.09-3.91,2.3-6,3.27-2.61,1.2-5.23,1-6.54-1.46a31.14,31.14,0,0,1-1.7-3.23,13.35,13.35,0,0,1-.94-3.53c-.16-1.6,0-3.21,0-4.81,0-2.34-.07-4.67,0-7,.07-1.87.37-3.74.47-5.61,0-.86-.17-1.72-.2-2.58-.11-3-.26-6.07-.27-9.1,0-2.63.24-5.27.21-7.9,0-1.8-.41-3.6-.46-5.41,0-2,.11-4,.17-6,0-1.06,0-2.12.07-3.17.15-1.51,1.88-2.19,3.53-1.33a1.87,1.87,0,0,1,.89,1.49c0,1.27-.2,2.55-.29,3.82s-.22,2.79-.25,4.19c0,1.12.11,2.25.12,3.37,0,.76-.13,1.53-.11,2.29,0,1.38.23,2.77.23,4.15s-.19,2.86-.23,4.3c0,1.61,0,3.23,0,4.84,0,3.05,0,6.1,0,9.16,0,1.21-.43,2.45-.18,3.63a28.32,28.32,0,0,1,.17,4.73c0,1-.22,2-.22,3a17,17,0,0,0,1.85,7.6c.25.5.57,1,.78,1.49.39.93.7,1,1.86.48s2.4-1.23,3.7-1.7,3-.84,4.41-1.29c.35-.11.79-.35.85-.58.67-2.4,1.29-4.81,1.9-7.22.27-1.06.45-2.14.74-3.2Q519,50,520,46.9c.08-.26.42-.48.46-.52a6.69,6.69,0,0,1,0-1.3c.59-2.61,1.15-5.22,1.84-7.82.52-2,1.26-3.91,1.82-5.87.26-.91.31-1.86.5-2.78.32-1.6.7-3.2,1-4.81.38-2,.75-4,1.06-6.07q.57-3.64,1-7.28c.09-.67.55-.91,1.43-.87.3,0,.61,0,.91,0,1.55,0,2.37.43,2,1.43-.4,1.16.41,2.16.35,3.25s-.09,2.46-.06,3.69c0,1.84.16,3.68.25,5.53a2.62,2.62,0,0,1,0,.55c-.41,2.42.28,4.79.5,7.18.16,1.76.19,3.52.28,5.28s.19,3.35.25,5c0,1.17,0,2.34,0,3.51.13,2.17.34,4.34.48,6.51.12,1.93.15,3.86.3,5.78a13.94,13.94,0,0,0,1.17,5.14c.8,1.66,1.28,3.41,1.93,5.11.23.61-.89,1.87-1.71,2A3.24,3.24,0,0,1,533.16,68c-.62-2.08-1.34-4.14-1.95-6.22a11.44,11.44,0,0,1-.36-2.46C530.79,58.42,530.84,57.5,530.84,56.35Zm-9.14-1.52c2.5,0,5,0,7.47,0,1,0,1.52-.2,1.43-1-.14-1.21-.2-2.43-.27-3.64-.1-1.56-.17-3.11-.27-4.67-.07-1.16-.22-2.31-.24-3.47,0-1.88,0-3.77,0-5.65,0-1,0-1.9-.08-2.85s-.3-2.1-.43-3.15-.25-2-.37-3.06c-.26.14-.39.3-.4.46a25.09,25.09,0,0,1-.36,3.35c-.53,2.14-1.24,4.27-1.87,6.4-.47,1.58-1,3.15-1.4,4.74s-.65,3.33-1,5-.86,3.23-1.31,4.84C522.26,53,522,53.91,521.69,54.83Z"/><path d="M1033.93,46c-.1-1.6-.2-3.2-.32-4.79-.16-2.2-.27-4.4-.52-6.59s-.69-4.57-1-6.85c-.1-.8,0-1.6,0-2.4-.06-1.25-.13-2.49-.26-3.73-.28-2.75-.73-5.49-.86-8.24-.1-2.11.21-4.23.31-6.34,0-.89,0-1.78.06-2.67a1.78,1.78,0,0,1,1.52-1.57,2.41,2.41,0,0,1,2.36.57.85.85,0,0,1,.34.64c-.17,1.54-.47,3.08-.56,4.62-.07,1.18.12,2.36.14,3.54,0,.56-.15,1.13-.11,1.69.12,1.77.27,3.53.45,5.29.13,1.23.38,2.46.45,3.7.09,1.45,0,2.91.09,4.35.12,1.26.54,2.49.74,3.75.23,1.42.42,2.85.51,4.28.14,2.2.15,4.41.29,6.61.08,1.29.43,2.58.44,3.88a26.25,26.25,0,0,1-.43,3.52,1.24,1.24,0,0,0,0,.55,10.13,10.13,0,0,1,.33,4.95,12.62,12.62,0,0,0,.43,3.5c.16,1.17.31,2.34.47,3.52l1.47.06a4.43,4.43,0,0,1-3,4.71c-1.14.24-2.42-.11-2.54-1-.16-1.13-.18-2.26-.27-3.39s-.18-2.18-.28-3.26c-.07-.74-.2-1.47-.24-2.21-.11-1.68-.13-3.37-.31-5.05,0-.31-.55-.74-1-.86a3.85,3.85,0,0,1-2.91-2.5c-.44-1.24-1.16-2.43-1.7-3.66-.75-1.71-1.44-3.43-2.17-5.14q-.43-1-1-2c-1.67-3.19-3.4-6.36-5-9.56-.92-1.81-1.66-3.66-2.48-5.5-.71-1.58-1.43-3.15-2.24-4.94a5,5,0,0,0-.44,1.46c.13,2.43.26,4.86.52,7.28.15,1.42.61,2.83.8,4.25a45.78,45.78,0,0,1,.44,5.09c0,1.61-.27,3.23-.19,4.85.1,1.9.46,3.79.68,5.69.12,1,.24,2.06.31,3.08a43.41,43.41,0,0,1,.23,4.43c0,1.45-.31,2.89-.49,4.33a5.73,5.73,0,0,0,.69,4.12c.11.17,0,.41,0,.62a6.14,6.14,0,0,0,.08,1.86c.44,1.27-.15,2.46-.7,3.57-.18.37-1.89.5-2.87.44-.41,0-1-.8-1-1.24-.05-1.68.17-3.37.16-5.06,0-1-.37-1.92-.39-2.88a18.78,18.78,0,0,1,.21-3.84,19.6,19.6,0,0,0,.24-7,51.88,51.88,0,0,1-.79-6.24c-.19-3.55-.13-7.1-.32-10.64-.08-1.4-.65-2.79-.82-4.19-.26-2.16-.39-4.33-.55-6.5-.07-1-.13-2-.13-3,0-.45.23-.89.22-1.34a52.74,52.74,0,0,0-.34-6.95,2.42,2.42,0,0,1,.7-2.32,2.23,2.23,0,0,1,2.12-.51,2.19,2.19,0,0,1,1.38.77c1.21,2.18,2.36,4.38,3.42,6.61.48,1,.66,2.09,1.06,3.13.26.68.74,1.33,1,2,.55,1.43,1,2.88,1.54,4.31.41,1.09.83,2.18,1.35,3.24q1,2.14,2.27,4.24c1.26,2.16,2.91,4.24,3.79,6.48a85.8,85.8,0,0,0,3.84,7.92,3.47,3.47,0,0,0,.44.54Z"/><path d="M122.75,45.75q-.18-1.67-.36-3.34c0-.24-.05-.49-.07-.73-.09-2-.22-3.9-.25-5.86,0-2.41,0-4.83,0-7.24,0-.55-.24-1.1-.28-1.65a3.07,3.07,0,0,1,.22-1c.11-.41.6-.86-.33-1.12-.1,0-.15-.21-.16-.33-.27-1.85-.51-3.71-.8-5.56-.11-.72-.33-1.42-.45-2.14a6.56,6.56,0,0,1,0-1.19c0-.93,0-1.86.07-2.79a24.68,24.68,0,0,1,.26-3c.1-.55,1.45-1,2.34-.8,1.27.22,1.57.67,1.56,1.51,0,2.08.06,4.16.1,6.25,0,.83,0,1.66.08,2.49.23,2.41.54,4.81.75,7.22.15,1.78.19,3.56.28,5.34.2,3.6.38,7.2.6,10.79.11,1.86.27,3.72.44,5.59.15,1.64.38,3.27.5,4.9.07,1-.11,2,0,3,.47,3,1.06,6,1.56,9.06a25.39,25.39,0,0,1,.39,3.55c0,.72-.59,1.31-1.67,1.34-1.72,0-2.57-.55-2.66-1.53-.12-1.17-.34-2.33-.57-3.5-.38-1.93-1.28-3.89-1.06-5.78.17-1.47-.89-2.46-1.36-3.65-1.06-2.7-2.5-5.32-3.62-8-.72-1.71-.85-3.57-1.77-5.21a34.4,34.4,0,0,1-2.07-5.53c-1.16-3.2-2.39-6.39-3.64-9.58-.31-.8-.83-1.56-1.21-2.36a20.72,20.72,0,0,0-1.79-3.36c0,.67,0,1.33,0,2,.16,1.9.39,3.8.56,5.7s.27,3.81.43,5.72c.15,1.73.32,3.45.54,5.18.18,1.41.51,2.81.68,4.21s.23,3.11.39,4.67c.12,1.14.39,2.28.5,3.42.08.83,0,1.67,0,2.51a24.38,24.38,0,0,0,.3,2.72,34,34,0,0,0,1,5.08,21.12,21.12,0,0,1,.78,3.74c.11.77.1,1.54.23,2.31s-.73,1.23-1.46,1.2a5.9,5.9,0,0,1-2.72-.85c-.35-.23.06-1,0-1.51-.24-1.67-.53-3.34-.81-5-.23-1.38-.54-2.75-.72-4.13-.21-1.57-.34-3.14-.47-4.71s-.21-3.23-.33-4.85c0-.32-.19-.64-.23-1-.19-1.62-.36-3.24-.55-4.86-.06-.48-.21-.95-.27-1.43-.12-.94-.19-1.89-.31-2.84,0-.32-.16-.64-.19-1q-.28-3-.53-5.92c-.18-2.06-.32-4.11-.53-6.17s-.52-4.26-.75-6.39c-.13-1.26-.14-2.52-.3-3.77-.11-.83-.48-1.64-.61-2.46-.08-.52.13-1.06.1-1.59s.45-.91,1.26-1.05c.22,0,.37-.25.56-.37,1.51-.95,3.12-.59,3.63.77s1.22,3,1.75,4.51c.37,1,.55,2.12.89,3.16a16.55,16.55,0,0,0,.85,2.06c1.19,2.51,2.48,5,3.59,7.52,1,2.36,1.95,4.75,2.85,7.15.66,1.75,1.13,3.54,1.83,5.28.49,1.23,1.25,2.4,1.84,3.61a13.82,13.82,0,0,1,.55,1.51Z"/><path d="M216.72,12.11a34.08,34.08,0,0,0,1.2,4.15c.81,2,1.82,3.9,2.85,5.82.86,1.61,1.91,3.18,2.81,4.78s1.71,3,2.45,4.6c.59,1.24,1,2.53,1.48,3.79q1.26,3.05,2.61,6.09a6.57,6.57,0,0,0,.88,1.08c-.22-2.81-.44-5.32-.62-7.83-.12-1.59-.15-3.17-.3-4.76-.13-1.42-.39-2.83-.51-4.25-.07-.83.11-1.68,0-2.51-.25-1.66-.68-3.32-1-5a41.43,41.43,0,0,1-.63-4.85,19.38,19.38,0,0,1,.35-3.56c0-.15.32-.33.55-.41,1.89-.63,3-.29,3.83,1.14a1.16,1.16,0,0,0,.31.38c.63.47.77.8-.33,1a.75.75,0,0,0-.48.63c.2,2,.51,4,.68,6.06.11,1.32,0,2.65.09,4,0,1.07.16,2.14.24,3.21s.13,2.44.27,3.65c.22,2,.51,3.91.76,5.87,0,.38,0,.76,0,1.14.08,1.58.19,3.16.26,4.75.1,2.32.07,4.64.3,6.95.18,1.86.7,3.7,1,5.56.18,1.22.08,2.46.32,3.67a11.62,11.62,0,0,0,1.35,4.39c1,1.54,0,2.92.14,4.36a5.39,5.39,0,0,1-.25,2c-.23.79-1.14.74-1.95.59s-1.43-.36-1.22-1.15c.39-1.46-.27-2.83-.73-4.24-.62-1.9-.83-3.86-1.3-5.78-.29-1.2-.69-2.38-1.07-3.56-.57-1.78-1.12-3.57-1.78-5.34-.37-1-1-1.9-1.41-2.87-.61-1.46-1.07-3-1.69-4.41-.78-1.85-1.63-3.68-2.47-5.51-1.33-2.89-2.61-5.79-4.06-8.65-.89-1.74-2.12-3.4-3.12-5.12-.51-.88-.83-1.81-1.25-2.71-.76-1.65-1.54-3.3-2.46-4.94.28,1.12-.89,2.11-.26,3.32.42.81.12,1.79.2,2.7.21,2.51.45,5,.69,7.53.08.85.16,1.7.26,2.55.17,1.39.33,2.77.54,4.15.11.73.38,1.46.51,2.19S215,38.23,215,39c.17,1.91.38,3.82.49,5.73.08,1.43,0,2.87.05,4.3s.35,2.67.51,4a4.28,4.28,0,0,1-.07.83c0,.22-.14.5,0,.66a2.42,2.42,0,0,1,.39,2.07,12.71,12.71,0,0,0,.33,3c0,.15.15.3.12.44-.45,2,.8,3.8,1.06,5.71a.45.45,0,0,0,.18.32c1.65,1,1.12,2.34,1.32,3.55.17,1-.74,1.47-2.62,1.57-1.41.08-1.33-.61-1.54-1.29a8.82,8.82,0,0,0-1.14-1.85,1.84,1.84,0,0,1-.35-.65c-.15-1.24-.22-2.49-.39-3.73-.22-1.55-.6-3.09-.73-4.65-.22-2.54-.21-5.08-.66-7.62a49.47,49.47,0,0,1-.34-5.4c-.06-.88-.18-1.75-.26-2.62a5.62,5.62,0,0,1-.1-1.79c.48-2-.13-3.94-.37-5.9-.22-1.76-.41-3.52-.67-5.28-.06-.4-.43-.78-.49-1.18-.12-.79-.11-1.58-.17-2.38-.17-2.5-.35-5-.52-7.5s-.4-5.22-.48-7.84a4.12,4.12,0,0,1,.67-2.29c.2-.32,1.17-.44,1.83-.54a10.81,10.81,0,0,1,2,0,7.54,7.54,0,0,1,1.42.2,10.27,10.27,0,0,1,2.26.68,2,2,0,0,1,1.07,1.22C217.87,11.14,217.24,11.52,216.72,12.11Z"/><path d="M24.32,60.38c-.22-2.64-.47-5.29-.66-7.93-.07-1,0-2,0-3-.06-1.24-.22-2.49-.25-3.73,0-1.52,0-3,.06-4.56,0-.65.12-1.29.2-1.94.25-2.32.51-4.64.76-7,.11-1.09.12-2.19.3-3.28.21-1.33.55-2.66.81-4s.48-2.68.74-4q.57-3,1.15-6a8.29,8.29,0,0,1,.43-1.87,28.21,28.21,0,0,1,2-3.9C30.31,8.41,32,8.25,33,8.6a6.87,6.87,0,0,1,3.64,2.78A54.46,54.46,0,0,1,40.21,17a11.41,11.41,0,0,1,1.05,3.5A43.83,43.83,0,0,1,41.93,26c.08,1.83-.09,3.66-.12,5.48,0,1.08,0,2.16,0,3.24s0,2.24,0,3.37c0,1.4.08,2.8.08,4.21,0,2.27,1,4.48.53,6.81s-.18,4.48-.37,6.72a17.14,17.14,0,0,1-.81,3.54,40.74,40.74,0,0,1-1.79,5.06A38.05,38.05,0,0,1,36.34,70c-1.23,1.8-3,1.86-5.39.82-4.51-2-5.77-5.1-6.29-8.52,0-.33-.19-.65-.25-1s-.07-.63-.11-.95ZM33,68.31l.44-.12c.48-.86,1-1.71,1.42-2.58a38.74,38.74,0,0,0,1.76-3.83,29.24,29.24,0,0,0,.82-3.38,32.32,32.32,0,0,0,.75-3.28c.18-1.44.19-2.9.28-4.34a23.55,23.55,0,0,0,.23-3.21c-.17-2.4-.51-4.79-.73-7.19,0-.44.22-.89.21-1.34,0-1.35-.18-2.69-.21-4,0-1.78,0-3.56,0-5.34,0-1.25-.18-2.5-.22-3.74,0-.47.17-.95.13-1.42s-.29-1-.39-1.58c-.3-1.55-.26-3.18-.94-4.64a63.64,63.64,0,0,0-3.84-6.34c-.33.48-.6.7-.65,1-.3,1.33-.54,2.67-.81,4-.5,2.43-1,4.85-1.5,7.28-.57,2.87-1.17,5.74-1.61,8.62-.25,1.61-.17,3.24-.28,4.85-.14,1.92-.49,3.85-.47,5.77,0,3,.27,6,.5,8.94.19,2.52.48,5,.78,7.55a12,12,0,0,0,2.1,6.21A20.54,20.54,0,0,0,33,68.31Z"/><path d="M469.9,60.39c.65,1.84-.37,3.78,1.23,5.5-.19.15-.39.3-.57.46-1.11,1-1.63,1.18-3.31.77a.86.86,0,0,1-.54-.52,25,25,0,0,1-.75-3.29c-.2-1.62-.31-3.25-.36-4.88-.08-2.44.27-4.87-.53-7.31-.36-1.09-.05-2.28-.15-3.42-.19-2.28-.44-4.56-.68-6.85,0-.21-.13-.41-.14-.62-.08-2.14-.21-4.27-.21-6.41,0-1.68.24-3.36.18-5-.09-2.86-.4-5.71-.48-8.57-.1-3.35-.09-6.7,0-10a2.25,2.25,0,0,1,.91-1.5,9,9,0,0,1,10.64-.35,8,8,0,0,1,3.49,6,31.66,31.66,0,0,1,.23,5.53,31.74,31.74,0,0,1-.92,5.52c-.81,3.3-1.74,6.59-2.67,9.88-.3,1.05-.88,2.07-1.11,3.13-.71,3.27-2.46,6.4-2.59,9.76a2.77,2.77,0,0,1-1,2.21c-.65.54-.51,1.84-.14,2.67.83,1.8,2.12,3.5,3.05,5.28s1.63,3.88,2.66,5.75c.93,1.68,1.59,3.54,3.63,4.78,1,.64,1.34,1.14.5,1.89a1.79,1.79,0,0,1-.77.4c-1.33.27-3.56-.47-4.11-1.33-.39-.62-.73-1.25-1.17-1.85a24.08,24.08,0,0,1-3.59-7.37c0-.1-.16-.18-.27-.25S470.14,60.38,469.9,60.39ZM468.63,44l.14,0a12.09,12.09,0,0,1,.32-1.9c.9-2.74,1.85-5.47,2.77-8.2a14.93,14.93,0,0,0,.53-1.93c.22-1.17.29-2.35.6-3.5.38-1.43,1.07-2.82,1.4-4.25a25.52,25.52,0,0,0,.58-4.63c.06-1.41-.15-2.82-.23-4.23-.11-2-.33-3.88-2.84-5.2-.83-.43-3.16-.15-3.34.55a33.2,33.2,0,0,0-.84,4.68c-.12,1.18.07,2.36,0,3.55,0,.85-.27,1.69-.26,2.54,0,1.31.12,2.62.25,3.93s.33,2.41.46,3.61a10.16,10.16,0,0,1,0,1.57C468.16,32,468,33.49,468,35c0,.6.17,1.19.16,1.79,0,1-.22,1.91-.14,2.85C468.13,41.07,468.41,42.52,468.63,44Z"/><path d="M366.36,55.32c2,2.19,4,4.3,5.86,6.48,1.13,1.32,2,2.75,3,4.14a18.18,18.18,0,0,1,1.12,1.72c.44.8-.6,2.09-1.66,2.08a2.39,2.39,0,0,1-2.22-1.39A35.64,35.64,0,0,0,368,62.27a59.2,59.2,0,0,0-4.69-4.38,2.3,2.3,0,0,0-.67-.24,33.31,33.31,0,0,0,.47,3.48,31.13,31.13,0,0,0,1.44,4.73c.57,1.36-.92,2.6-2.43,2.42a2.35,2.35,0,0,1-1.89-1.74c-.45-2.55-1-5.09-1.39-7.65-.2-1.4-.1-2.82-.17-4.23s-.23-2.62-.23-3.93.26-2.68.22-4c-.1-3-.3-6-.51-8.95-.14-2.08-.3-4.15-.54-6.23-.18-1.59-.57-3.16-.72-4.75-.12-1.31,0-2.62,0-3.93,0-.81-.19-1.63-.27-2.44-.19-2.11-.35-4.22-.55-6.33a28.5,28.5,0,0,0-.46-3.55c-.32-1.4.42-1.88,2.4-2.11,3.06-.36,5.28.71,7.48,1.84,1.78.91,2.16,2.45,2.82,3.83s1.19,2.78,1.74,4.18a2.21,2.21,0,0,1,.08.82c0,1.18,0,2.36,0,3.53,0,.62,0,1.23,0,1.85a41.5,41.5,0,0,1,0,4.28c-.24,2.47-.65,4.94-1,7.41-.06.49,0,1-.08,1.46-.08,1.1-.12,2.21-.27,3.3-.09.7-.34,1.4-.51,2.09a9.35,9.35,0,0,0-.25,1.33c-.17,2.12-.26,4.25-.5,6.36a38.74,38.74,0,0,1-.82,4A2.3,2.3,0,0,1,366.36,55.32Zm-6.41-44.11c0,1.77-.06,3.26,0,4.75.13,2.58.35,5.17.5,7.75.06,1,0,2,0,3,.16,3.15,1.26,6.24,1.11,9.43-.11,2.56.44,5.13.55,7.7.13,2.85.09,5.7.14,8.55a5.24,5.24,0,0,0,.18.93l.47,0c.3-2.17.6-4.33.91-6.5s.69-4.62,1-6.93c.19-1.32.34-2.65.55-4,.32-2,.84-4,1-6,.17-2.58.07-5.17,0-7.75a19.27,19.27,0,0,0-.28-3.47,12.27,12.27,0,0,0-1-2.59c-.73-1.59-1.25-3.28-3.52-4.24C361.18,11.59,360.69,11.46,359.95,11.21Z"/><path d="M658.62,12a11,11,0,0,0-.26,1.55c-.1,4.48-.12,9-.29,13.43-.18,4.64-.49,9.28-.76,13.92-.15,2.59-.38,5.17-.5,7.76-.13,2.87-.17,5.74-.28,8.61,0,1.13-.21,2.25-.23,3.38,0,.89.24,1.78.19,2.67a8.89,8.89,0,0,1-.59,2.86,2.09,2.09,0,0,1-1.55.77c-.67-.17-1.62-.73-1.63-1.13-.11-3.62,0-7.24,0-10.86,0-1.18-.08-2.36,0-3.54.06-1.52.2-3,.32-4.56,0-.45.16-.9.18-1.36.1-2.33.13-4.67.28-7,.2-3.06.56-6.12.74-9.18.12-2.06,0-4.12,0-6.18q0-5,0-10a2.68,2.68,0,0,0-.7-2.16c-.75-.77-.42-1.44.79-1.62,2.44-.35,4.91-.88,7.39-.1a39.66,39.66,0,0,1,4.58,1.5,5.91,5.91,0,0,1,3,3.21c.36.83.86,1.64,1.14,2.49a16.66,16.66,0,0,1,1,4,38.84,38.84,0,0,1-.14,6.23c-.16,1.67-.64,3.33-1,5s-.53,3.17-.83,4.76c-.5,2.57-1.05,5.13-1.54,7.71-.39,2.09-.59,4.2-1.09,6.27s-1.33,4.14-1.94,6.21c-.37,1.26-.63,2.55-.87,3.83s-.32,2.42-.56,3.63a11.53,11.53,0,0,1-.63,1.55,3,3,0,0,0-.34,1.31c.1.72-.4,1.15-1.24,1.24a6.15,6.15,0,0,1-2.76-.09A1.52,1.52,0,0,1,658,66.3a22.79,22.79,0,0,0,1.49-4.6,59.2,59.2,0,0,1,1.86-6.31c.67-2.29,1.37-4.58,1.93-6.88.67-2.73,1.27-5.47,1.8-8.21.29-1.47.33-3,.57-4.43s.59-2.92.87-4.38c.15-.78.3-1.55.4-2.33a44.62,44.62,0,0,0,.72-6.91,28.06,28.06,0,0,0-1.29-6.6A5.11,5.11,0,0,0,664.45,13a9.71,9.71,0,0,0-3.4-1A13.29,13.29,0,0,0,658.62,12Z"/><path d="M54.44,66.94a11.14,11.14,0,0,0,.91-5.38c-.13-2.35.06-4.71-.06-7.06-.1-1.91-.56-3.81-.7-5.72-.13-1.7,0-3.4-.06-5.1,0-.6-.17-1.2-.24-1.8-.27-2.17-.56-4.34-.77-6.51-.1-1,.09-2,0-3-.26-2.13-.77-4.26-.95-6.39-.22-2.71-.22-5.44-.3-8.16,0-.86,0-1.73,0-2.59a27.55,27.55,0,0,0-.49-2.92c-.34-1.6,1.09-2.28,2.66-2a2,2,0,0,1,1.7,1.76A28.06,28.06,0,0,1,56.2,20a19.37,19.37,0,0,0,.39,4c.12,1.22.18,2.44.29,3.65.16,1.77.38,3.55.5,5.32.09,1.38,0,2.78.08,4.16.13,2.2.33,4.4.48,6.6,0,.56-.05,1.12,0,1.68q.16,2.27.39,4.54c.2,2.06.48,4.11.63,6.17.14,1.83.17,3.67.22,5.51a12.48,12.48,0,0,1-1.54,6.93,4.15,4.15,0,0,1-3.89,1.89,5.07,5.07,0,0,1-3.05-1.51C49.56,67.54,49,66,48,64.58c-1.49-2.08-1.43-4.33-1.77-6.54-.29-2-.56-3.91-.72-5.87-.08-1.06.16-2.13.15-3.19s-.16-2.37-.2-3.56c0-.89.05-1.78.05-2.67,0-1.27,0-2.54-.07-3.81-.07-1.74-.15-3.48-.28-5.21-.08-1-.31-1.92-.41-2.89-.08-.78-.06-1.56-.09-2.34-.09-2.61-.14-5.21-.28-7.82-.12-2.21-.32-4.41-.5-6.61a7.22,7.22,0,0,1-.19-2c.08-.39.65-.84,1.17-1.06a3.4,3.4,0,0,1,3.46.73c.2.3,0,.73,0,1.1,0,2.33,0,4.67,0,7,0,1.28.2,2.55.24,3.83,0,1.6-.07,3.21,0,4.81.21,3.4.55,6.79.75,10.19.16,2.78.13,5.56.29,8.33.2,3.53.41,7.05.81,10.57a25.83,25.83,0,0,0,1.29,5.22,35.44,35.44,0,0,0,1.79,3.79c.11.23.18.48.27.72Z"/><path d="M783.57,58.84c-.29,1.34-.52,2.62-.85,3.89a2.39,2.39,0,0,1-2.38,1.3,1.79,1.79,0,0,1-1.79-1.65c-.15-1-.53-2-.76-3a12.9,12.9,0,0,1-.47-2.5c-.07-2.13,0-4.27,0-6.4,0-1.82-.17-3.63-.17-5.45,0-1.43.14-2.86.18-4.29,0-1.17,0-2.35,0-3.52s.29-2.63.22-3.93c-.11-1.9-.43-3.8-.63-5.7a9.79,9.79,0,0,1,.13-1c0-1.93.09-3.86,0-5.78s-.44-4.11-.54-6.17c0-.93-.84-1.83-.15-2.82.4-.57-1-1.38.16-1.88A11.13,11.13,0,0,1,779.66,9c1.78-.18,3.6-.18,5.4-.21a7.72,7.72,0,0,1,5.78,2.51c1.81,1.73,2,3.76,2.08,5.85a18.61,18.61,0,0,1-.86,6.13c-.63,2-1.54,3.88-2.22,5.84-.86,2.49-1.6,5-2.43,7.51-.29.87-.76,1.71-1,2.59-.32,1.05-.49,2.13-.78,3.18-.55,2-1.15,4-1.69,6-.5,1.83-1,3.67-1.38,5.51a.84.84,0,0,0,.49.78,16.48,16.48,0,0,1,5.42,3.38,25.41,25.41,0,0,1,2,2.47c.8.83,1.77,1.59,2.68,2.37.37.32.77.63,1.18.93.87.63,1.79,1.23,2.64,1.89.6.46,1.48.93.63,1.67a2.85,2.85,0,0,1-3.17.35c-1.73-1.15-3.44-2.32-5-3.57-1.26-1-2.35-2.1-3.48-3.18-.66-.63-1.23-1.29-1.86-1.93A2,2,0,0,0,783.57,58.84ZM781.2,43.52c.6-1.91,1.23-3.82,1.8-5.74.36-1.2.58-2.43,1-3.62.56-1.61,1.28-3.2,1.87-4.81.79-2.15,1.53-4.31,2.3-6.46a6.3,6.3,0,0,0,.54-1.45c.14-1.83.26-3.66.25-5.49a5.46,5.46,0,0,0-.56-2.38c-1.06-2.14-5.89-2.89-8.15-1.57C781.19,22.62,781.21,33.06,781.2,43.52Z"/><path d="M143.86,59.44a3.75,3.75,0,0,0,.26-.93c0-2-.09-4.05,0-6.07.17-2.77.52-5.54.77-8.31.05-.59-.07-1.19,0-1.78.24-2.18,0-4.37.69-6.55.38-1.15,0-2.42.08-3.64.07-2.09.15-4.18.29-6.27.11-1.74.41-3.47.46-5.21,0-1.49-.17-3-.22-4.48a18.17,18.17,0,0,1,0-3.7,5,5,0,0,1,1.3-2.31,2.59,2.59,0,0,1,1.81-.21c.6.19,1.39.72,1.4,1.11.07,2-.08,4.09-.15,6.13a49.25,49.25,0,0,1-.32,6.55c-.33,1.94,0,3.85-.2,5.77-.32,2.88-.71,5.75-1,8.62-.1,1,0,2,0,3-.11,1.36-.34,2.71-.52,4.06s-.36,2.53-.49,3.8a25.52,25.52,0,0,0-.24,3.83,34.41,34.41,0,0,1-.46,7.68c-.29,1.68.15,3.42.15,5.13,0,1-.28,2.07-.33,3.11,0,.51.25.89-.18,1.51-.77,1.11-1.9.69-2.82.64a1.69,1.69,0,0,1-1.61-1.42c-.24-.94-.7-1.84-1-2.77-.46-1.4-.87-2.8-1.3-4.2-.56-1.84-1.16-3.67-1.66-5.52-.31-1.15-.45-2.33-.68-3.49-.44-2.16-.86-4.31-1.34-6.46s-1.08-4.18-1.48-6.29c-.29-1.5-.3-3-.49-4.54-.06-.45-.38-.89-.47-1.34-.49-2.46-.94-4.92-1.42-7.38-.14-.71-.37-1.42-.51-2.13-.48-2.39-1.44-4.72-1.34-7.17a12.62,12.62,0,0,0-.52-2.68c-.29-1.55-.83-3.09-.43-4.65a1.84,1.84,0,0,1,3.13-.51c1.56,1.3,1.22,2.86,1.44,4.31.3,2,.11,4,.36,6,.21,1.7.76,3.38,1.13,5.08.41,1.88.76,3.77,1.17,5.66.33,1.51.75,3,1.06,4.53.37,1.79.64,3.59,1,5.38.27,1.29.71,2.57,1,3.87.34,1.73.56,3.47.87,5.21.13.71.35,1.41.55,2.11q1,3.42,1.95,6.84Z"/><path d="M336.94,59.24c-.12,2.64-.15,5.3-.41,7.95-.12,1.2.32,2.64-1.68,3.39l-2-.4-.41,0c.07-1.08.14-2.17.23-3.25s.13-2,.26-3c.2-1.53.46-3.06.68-4.59.05-.37,0-.74.08-1.11.17-1.78.29-3.57.54-5.35.3-2.1.71-4.19,1.07-6.28.24-1.41.5-2.81.72-4.22.27-1.71.58-3.42.75-5.13s.16-3.5.31-5.24c.09-1.05.34-2.09.51-3.14.26-1.63.5-3.25.78-4.88.14-.84.38-1.67.52-2.51a21.44,21.44,0,0,0,.24-2.36,25.24,25.24,0,0,1,0-2.59c.37-2.46.84-4.92,1.28-7.37.11-.63,1.48-1.09,2.62-.68A3.5,3.5,0,0,1,344.71,10a7.62,7.62,0,0,1,.85,2.2,7.32,7.32,0,0,1,0,1.47c0,.72.08,1.44.15,2.16.21,2,.39,4,.66,6,.31,2.29.62,4.59,1.09,6.87a33,33,0,0,1,.7,6.78,53.59,53.59,0,0,0,.85,7.69c.31,2.14.79,4.26,1.19,6.39,0,.2,0,.41.09.61.17.94.32,1.89.52,2.83.3,1.36.56,2.73,1,4.07.59,1.93,1.27,3.84,2,5.75a10.06,10.06,0,0,0,1,2.23c.57.86-.4,1.25-1,1.65a1.88,1.88,0,0,1-2.07-.07,2,2,0,0,1-1.09-1.14c-.71-2-1.66-3.93-2.52-5.88,0,0,0-.05-.06-.08-.13-.44-.08-1.14-.44-1.26a6.94,6.94,0,0,0-2.28-.13c-1.8,0-3.62,0-5.39.21A17.52,17.52,0,0,0,336.94,59.24Zm5.82-37.14h-.36c-.12.58-.27,1.16-.36,1.74-.28,1.8-.53,3.61-.81,5.41-.34,2.23-.7,4.45-1,6.68-.15,1.12-.14,2.25-.29,3.36-.3,2.16-.65,4.31-1,6.46-.29,1.71-.65,3.41-1,5.12-.2,1-.46,2.08-.56,3.13-.17,1.87-.13,1.79,2.48,1.75s5.12.12,7.66.19c-.12-.57-.31-1.33-.44-2.09-.31-1.7-.59-3.41-.89-5.11-.23-1.31-.49-2.63-.69-3.94s-.35-2.67-.48-4c-.09-.91-.08-1.83-.15-2.74-.15-1.92-.31-3.83-.47-5.75-.09-1.14-.11-2.28-.29-3.41-.28-1.69-.69-3.38-1-5.06C343,23.28,342.86,22.69,342.75,22.1Z"/><path d="M291.62,56.75c-2.76.89-5.35,1.74-8,2.56A20.65,20.65,0,0,1,281,60c-1.66.29-2.4.83-2.62,2-.26,1.4-.49,2.81-.8,4.2a34.45,34.45,0,0,1-1,3.88,1.83,1.83,0,0,1-2.25.9c-1.49-.35-2.15-1.08-1.77-2a37.78,37.78,0,0,0,1.51-3.49,53.69,53.69,0,0,0,1.43-5.59c.1-.48-.39-1-.51-1.53,0-.21.07-.59.27-.65a2,2,0,0,0,1.62-1.87c.13-.85.59-1.68.76-2.53.47-2.46.86-4.92,1.3-7.38.15-.82.4-1.64.57-2.46a31.25,31.25,0,0,0,.7-3.63A39,39,0,0,1,282,30.83a31.56,31.56,0,0,0,.83-4.88c.25-1.5.52-3,.81-4.49a20.27,20.27,0,0,0,.7-3.47,22.86,22.86,0,0,1,1.17-6.2,6.55,6.55,0,0,0,.16-1.45c.06-.94,1.08-1.34,2.05-1.25a2.9,2.9,0,0,1,2,1.13,31.67,31.67,0,0,1,1.6,5.34,27.21,27.21,0,0,1,.07,3c.19,1.87.48,3.73.71,5.59,0,.4,0,.81,0,1.21.24,1.65.64,3.29.75,4.94.09,1.43-.2,2.87-.18,4.3,0,.77.4,1.54.46,2.32.14,1.71.13,3.43.3,5.14s.6,3.56.73,5.35c.15,2.11,0,4.24.19,6.35a26.31,26.31,0,0,0,1.08,4c.55,2,1,4.07,1.63,6.09a37.36,37.36,0,0,0,1.6,4.68,4.57,4.57,0,0,1,.2,3.36c-.24.75-.93.53-1.59.38A2.69,2.69,0,0,1,295,70c-.23-1.09-.68-2.16-1-3.25-.18-.72-.17-1.46-.33-2.19q-.49-2.23-1.08-4.44C292.33,59,291.95,57.83,291.62,56.75Zm-3.7-39.54-.17,0a2,2,0,0,0-.21.53,18,18,0,0,1-.14,1.92c-.27,1.3-.69,2.59-.92,3.89s-.12,2.44-.36,3.64c-.52,2.55-1.2,5.07-1.74,7.62q-1.09,5.15-2.06,10.32c-.26,1.37-.3,2.77-.56,4.14-.44,2.31-.95,4.62-1.48,6.93-.16.7.33.95,1.11.82,1.6-.25,3.16-.6,4.74-.93,1.33-.28,2.67-.54,4-.89.49-.13,1.2-.51,1.21-.78a40.52,40.52,0,0,0-.17-4.41c-.15-2-.33-3.94-.53-5.91-.18-1.79-.44-3.58-.6-5.37-.1-1.09,0-2.19-.12-3.28-.17-2.54-.37-5.08-.57-7.62-.08-1-.13-2-.26-3-.23-1.8-.52-3.59-.78-5.39C288.16,18.67,288,17.94,287.91,17.21Z"/><path d="M411,54.86l1.93.46c-2.18,1.55-.44,3.09-.09,4.57a35.12,35.12,0,0,0,2.13,5.32c.33.79-.55,1.68-1.7,1.78-2.62.21-3.07-.93-3.43-2.33-.5-1.94-1-3.88-1.55-5.82-.1-.38-.25-.76-.41-1.25a8.94,8.94,0,0,0-1.64.21c-1.92.62-3.86.26-5.81.14-.48,0-1,0-1.45,0h-2.55c-.36,1.28-.85,2.68-1.11,4.1-.36,2-.53,3.93-.85,5.89,0,.25-.44.48-.7.7-.1.09-.31.11-.41.19-.29.22-.55.47-.83.7-.54-.38-1.49-.22-1.77-1.08-.46-1.42.2-2.69.49-4,.42-2,1-4,1.41-6,.59-3.09.94-6.2,1.63-9.28.48-2.14,1.45-4.23,2-6.36s.86-4.3,1.25-6.45c.56-3.06,1.05-6.12,1.65-9.17.55-2.82,1.21-5.63,1.77-8.45.12-.58,0-1.19,0-1.79.1-.84.37-1.67.41-2.51s-.26-1.65-.19-2.46a4,4,0,0,1,.67-2.17c.48-.61,1.5-.57,2.4-.22.29.11.7.07,1,.19s.74.39.79.62c.31,1.68.59,3.36.78,5,.08.77-.13,1.56-.11,2.33,0,1.32.1,2.64.16,4,0,.64.05,1.29.1,1.93.17,2.59.26,5.19.55,7.77.22,1.95.72,3.88,1.07,5.82q.45,2.53.85,5.07c.3,1.92.62,3.84.85,5.76C410.55,50.36,410.74,52.63,411,54.86Zm-14.5.53a28.38,28.38,0,0,1,3.45-.16c1.89.15,3.76.43,5.63.68,1.23.17,1.79-.27,1.65-1.14-.39-2.42-.81-4.85-1-7.28-.19-2.78-.12-5.57-1.05-8.31a23.78,23.78,0,0,1-.84-4.11q-.44-2.83-.74-5.66c-.15-1.42-.2-2.85-.29-4.27l-.36,0c-.22,1.17-.42,2.35-.66,3.52-.47,2.3-1,4.6-1.44,6.9a4.47,4.47,0,0,0-.06.62,17.57,17.57,0,0,1-.21,2.85c-.38,1.62-.93,3.22-1.4,4.83-.35,1.21-.71,2.42-1,3.63-.28,1-.54,2.06-.75,3.09C397.06,52.12,396.78,53.69,396.47,55.39Z"/><path d="M324.18,58.56l-3-.69c.25,1,.47,1.89.66,2.75.1.45.12.9.23,1.34s.35,1.09.45,1.64a7.4,7.4,0,0,1,0,1.27,9.18,9.18,0,0,0,0,2.35,3,3,0,0,1-.88,2.65,1.2,1.2,0,0,1-.87.13,5.59,5.59,0,0,1-2.08-1c-.37-.42-.11-1.1-.17-1.67-.11-1.1-.27-2.21-.36-3.31-.06-.73.07-1.48-.05-2.21-.26-1.57-.68-3.12-.93-4.69a15.3,15.3,0,0,1,.16-1.89c-.05-1.93-.09-3.86-.27-5.78-.15-1.63-.58-3.25-.7-4.87-.13-1.87,0-3.75-.07-5.63-.06-2.28-.17-4.56-.25-6.84-.1-2.85-.11-5.7-.28-8.55-.16-2.65-.46-5.29-.78-7.93a11.77,11.77,0,0,0-.81-3.27c-.26-.59-1-1.07-.74-1.8s.19-1.67,1.81-1.86c1-.12,1.77-.11,2.27.68a9.8,9.8,0,0,1,6.36.25A9.54,9.54,0,0,1,327.11,12a8.68,8.68,0,0,1,1.78,2.69c.58,1.37,1.55,2.63,1.31,4.21s.32,3.2.37,4.8a25.52,25.52,0,0,1-.24,3.74c-.32,2.84-.62,5.68-1.07,8.51-.2,1.26-.79,2.49-1.08,3.75-.24,1.07-.29,2.15-.45,3.23-.42,2.8-.81,5.6-1.3,8.4-.24,1.4-.67,2.78-1,4.17,0,.06,0,.13,0,.18C326.33,57,324.36,57.5,324.18,58.56Zm-3.06-2.16a9.31,9.31,0,0,0,.39-1.11c.88-4.32,1.77-8.64,2.6-13,.63-3.26,1.17-6.52,1.74-9.78.33-1.88.74-3.76.93-5.65.27-2.72.52-5.44-.3-8.16a15.18,15.18,0,0,0-2.85-5.45,4.33,4.33,0,0,0-3.46-1.3c-.82.11-1.77.3-1.73,1.07.06,1.29.32,2.58.37,3.87.09,2.18.06,4.36.12,6.54a39.5,39.5,0,0,0,.31,5.42c.3,1.76-.33,3.54.45,5.27a.52.52,0,0,1,0,.27,10.63,10.63,0,0,0-.23,1.9c.11,1.93.33,3.85.46,5.77.07,1,0,2,.09,3,.12,1.49.38,3,.48,4.47.13,2,.16,4,.26,6A2.66,2.66,0,0,0,321.12,56.39Z"/><path d="M425.4,67.8a4.81,4.81,0,0,0,3.4-4.27c.05-.38.53-.76.45-1.1a13.63,13.63,0,0,0-1.14-3.26c-.14-.27-1.22-.41-1.86-.4-1.2,0-2.86-.61-3.17-1.35-.46-1.09,1-2.13,2.69-1.8a7.63,7.63,0,0,0,4-.28l7.12-2.25a1.34,1.34,0,0,1,.6-.11c.47.11.92.29,1.37.44-.17.23-.25.53-.51.69-2,1.19-4,2.4-6.06,3.52-.95.51-.28,1.08,0,1.31,1.55,1.26,1.15,2.71.84,4.08a33.21,33.21,0,0,1-1.72,4.66,1.84,1.84,0,0,1-.58.87,33.92,33.92,0,0,1-3.22,2.09c-2,1.09-3.2.6-5.08-.45-2.22-1.24-2.8-3.06-3.59-4.82-.45-1-.93-2-1.46-3a9.77,9.77,0,0,1-1.19-5.43,11.62,11.62,0,0,0-.21-2.26c-.25-2.18-.48-4.35-.79-6.52-.18-1.22-.63-2.43-.74-3.65-.18-2-.22-4-.27-6,0-1.47,0-2.93,0-4.4s.2-2.92.21-4.38c0-.88-.18-1.76-.21-2.64,0-.44.16-.89.17-1.33.08-2,1-3.95,1.34-5.94a26.43,26.43,0,0,1,.81-3.31,7.63,7.63,0,0,1,1.11-2.33,21.25,21.25,0,0,1,3.36-3.82c1.5-1.23,3.22-2.46,5.95-2.2a3.07,3.07,0,0,1,2.4,1.15.82.82,0,0,1-.23,1,3.25,3.25,0,0,1-1.85.59c-1.45-.28-1.86.48-2.45,1a26.7,26.7,0,0,0-2.23,2.36,11.74,11.74,0,0,0-2.83,5,17.18,17.18,0,0,1-.5,3.16,16.13,16.13,0,0,0-1,4.28c-.16,1.57,0,3.15-.07,4.73s-.23,3.07-.32,4.6c0,.58,0,1.17,0,1.76a33.9,33.9,0,0,0,.16,3.48c.24,1.77.64,3.52.95,5.28.15.84.23,1.69.33,2.53.26,2.27.48,4.55.78,6.81a17.11,17.11,0,0,0,.83,4.28c.94,2.3,2.2,4.54,3.39,6.8C424.61,67.24,425.1,67.53,425.4,67.8Z"/><path d="M452.11,67.29l6.64-5.78,1.24,1c-.53.72-1.05,1.46-1.62,2.18-1,1.32-2.06,2.63-3.12,3.93-1.28,1.57-4.61,1.68-6.14.65a26.9,26.9,0,0,1-4.6-3.38c-.9-1-1.07-2.29-1.43-3.47a16.07,16.07,0,0,1-.6-3c-.11-1,0-2-.11-3-.06-.64-.36-1.26-.45-1.9s0-1.19,0-1.78c-.12-1.31-.31-2.63-.42-3.94-.05-.62.07-1.24,0-1.85-.14-1.86-.4-3.71-.48-5.56-.05-1.18.21-2.37.19-3.56,0-1.46-.19-2.92-.33-4.37s-.31-3-.48-4.55c0-.29-.18-.58-.19-.87-.1-2-.17-4.09-.27-6.14-.08-1.62-.23-3.25-.24-4.87,0-1.4.17-2.8.23-4.2a23.3,23.3,0,0,0,0-2.49c0-.16-.37-.3-.47-.48a4.41,4.41,0,0,1-.69-1.65c0-.18,1-.49,1.5-.54a23.56,23.56,0,0,1,2.87,0c.46,0,.91.14,1.37.16,3.08.13,6.16.33,9.24.34a22.24,22.24,0,0,1,4.82.43,6.19,6.19,0,0,1,2.23,1.1c-5.79,1-11.62.7-17.05.95,0,1.07,0,2.07,0,3.07,0,.24-.14.48-.13.71.08,3.16.12,6.31.27,9.47.11,2.34.29,4.68.54,7,.11,1.07.56,2.13.67,3.2.09.9-.13,1.82-.12,2.73,0,1.37.1,2.74.17,4.1.11,2.49.16,5,.38,7.46a36.69,36.69,0,0,0,.83,4,2.66,2.66,0,0,1,.09,1c-.2,1,.73,1.25,1.81,1.31,2.47.15,5,.22,7.42.39,1.19.08,2.36.32,3.54.48l.13.39a13.57,13.57,0,0,1-2.26.85,48,48,0,0,1-5.33.81c-1.62.13-3.28,0-5,0C447.15,61.36,447.4,64.9,452.11,67.29Z"/><path d="M696.92,6.87c-3.2,1.21-6.39,2.44-9.62,3.61a16.44,16.44,0,0,1-3.63.94,48.61,48.61,0,0,1-5.57.25c-.87,0-.84.33-.86.71-.08,1.58-.18,3.16-.17,4.75,0,1.15.17,2.31.25,3.46.09,1.42.16,2.83.26,4.25.14,2-.23,3.95.43,5.93.31.94-.16,2-.15,3,0,1.22.18,2.44.23,3.65.1,2.26.08,4.53.29,6.79.24,2.58.67,5.16,1,7.73.1.71.3,1.42.5,2.35,2.56-.19,5-.3,7.38-.57a23.27,23.27,0,0,0,3-.83,13.21,13.21,0,0,1,2.75-.42,10.4,10.4,0,0,1-4.4,3,25.65,25.65,0,0,1-3.59,1.08,13.29,13.29,0,0,1-2.5.28c-1.73.07-2.2.5-1.8,1.65.27.76.36,1.56.69,2.31.55,1.25.34,2.74,2,3.66a7.25,7.25,0,0,0,2.54,1,8,8,0,0,0,7.64-3.1c.26-.32.52-.76.93-.86a2.39,2.39,0,0,1,1.5.21,1.67,1.67,0,0,1-.22,1.36,8.36,8.36,0,0,1-1.43,1.55c-.63.58-1.38,1.1-2,1.69a6.26,6.26,0,0,1-3.54,1.54c-2.38.32-4.84.92-7-.47-.62-.39-1.27-.76-1.93-1.12a3.68,3.68,0,0,1-1.9-2.57c-.54-2.09-1.15-4.17-1.85-6.23a2.13,2.13,0,0,0-1.33-.88c-.94-.24-1.53-.69-1.39-1.3.08-.38.78-.8,1.34-1,1.16-.39.76-1.15.72-1.66-.14-1.81-.55-3.62-.83-5.43a70.21,70.21,0,0,1-.8-11.52c0-2.73-.17-5.46-.22-8.18,0-.75.26-1.51.22-2.26-.12-2.16-.4-4.33-.48-6.49a55.77,55.77,0,0,1,0-6.38c0-.65-.1-.84-.91-1-1.33-.21-1.87-.73-1.75-1.59.08-.6.45-.86,1.42-1,2.93-.45,5.64.24,8.43.55a10.87,10.87,0,0,0,3.3-.18c2-.42,3.85-1,5.79-1.51s3.91-1,5.89-1.38a3.6,3.6,0,0,1,1.14.17Z"/><path d="M880.45,62.25c-.36-.74-.65-1.27-.88-1.81-.5-1.19-1.8-1.49-3.34-1.55-1.24,0-2.49-.06-3.7-.21-.52-.06-1.28-.38-1.36-.67a1.31,1.31,0,0,1,.46-1.37,10.24,10.24,0,0,1,2.66-.86c1.68-.4,3.36-.78,5.08-1.1,1-.18,2-.2,3.22-.32-.14,1.52-2.56,1.47-2.74,2.63,2.73.49,5,3.94,4.38,5.78a3.94,3.94,0,0,1-1.59,1.55c-.82.53-1.83.92-2.74,1.38a17.53,17.53,0,0,1-1.77,1c-3.76,1.42-8.86.83-11.18-2a15.46,15.46,0,0,1-1.83-3,38,38,0,0,1-1.87-4.35,17.86,17.86,0,0,1-.75-3.44,33.61,33.61,0,0,1-.49-5.17,46.11,46.11,0,0,1,.68-4.87c.15-1.18.16-2.37.32-3.55.4-3,.8-6,1.3-8.92.34-2,.9-4,1.25-6,.28-1.58.33-3.18.58-4.77.16-1,.53-2.06.76-3.1a18.22,18.22,0,0,0,.72-3.75,5.66,5.66,0,0,1,1.36-3c.88-1.31,1.91-2.57,2.88-3.84a5.14,5.14,0,0,1,3.66-1.13c1.09.13,2.23.1,3.29.29,1.28.23,2,.86,2.13,1.86s-.72,1.29-1.63,1.5a1.76,1.76,0,0,1-2.08-.61,1,1,0,0,0-1.52-.09,17.83,17.83,0,0,0-3,3.47,25.07,25.07,0,0,0-1.86,5.38c-.48,1.84-.69,3.71-1.08,5.56-.28,1.34-.71,2.66-1,4q-.61,3-1.08,6-.58,3.74-1.06,7.48c-.26,2-.56,4-.62,6.07a46.15,46.15,0,0,0,.36,5.48,16.61,16.61,0,0,0,.58,4.06,47.68,47.68,0,0,0,2.85,6.4C871,65,875.57,65.5,878,63.77,878.78,63.22,879.65,62.74,880.45,62.25Z"/><path d="M1004.92,8.77a3.64,3.64,0,0,1-1.15.57c-2.43.2-4.87.37-7.32.48-1.11.05-2.24-.06-3.36,0a1.07,1.07,0,0,0-.51.18c.1,1.6.18,3.09.28,4.57.07,1,.21,2.08.21,3.13a31.4,31.4,0,0,1-.24,3.73,30.94,30.94,0,0,0-.26,9.12c.22,1.29.17,2.6.28,3.9.15,1.72.41,3.44.47,5.17a36.83,36.83,0,0,1-.23,3.91c-.07,1-.22,2.07-.24,3.1,0,1.87,0,3.74,0,5.61,0,.69.43.8,1.27.79,2.44,0,4.88,0,7.32,0,.44,0,.86.38,1.29.58-.27.27-.46.61-.82.79a20,20,0,0,1-7.7,1.53c-.9,0-1.25.13-1.11.86.35,1.91.55,3.84.82,5.76,0,.12,0,.3.11.34,1.36.57,2.33,1.6,4.11,1.71a26.79,26.79,0,0,0,9.68-1.53c.61-.19,1.1-.59,1.72-.76a4.78,4.78,0,0,1,1.41.1c-.16.36-.15.85-.49,1.07a22.58,22.58,0,0,1-9.15,3.22c-3.4.41-7,.45-9.86-1.38a4,4,0,0,1-1.9-2.85c-.3-2.09-.37-4.19-.62-6.28a2.1,2.1,0,0,0-.8-1.11c-.61-.52-1-1-.08-1.53a1.29,1.29,0,0,0,.65-.82q.21-2.71.28-5.42c0-1.85,0-3.7,0-5.54,0-1.43.3-2.86.22-4.29-.17-3.31-.59-6.61-.71-9.92a44.57,44.57,0,0,1,.47-5.27,26.75,26.75,0,0,0,.22-3.85c-.17-2.82-.46-5.63-.77-8.44,0-.28-.66-.52-.73-.81a2,2,0,0,1,.18-1.28c.11-.24.69-.36.84-.61.65-1,1.93-1,3.2-1a.56.56,0,0,1,.25,0c2.3,1.51,5.35.92,8,1.44,1.45.28,2.92.49,4.38.75C1004.65,8.5,1004.73,8.63,1004.92,8.77Z"/><path d="M247.06,10c.31,1.87.63,3.64.9,5.4.22,1.47.4,3,.57,4.43q.53,4.58,1,9.17c0,.27,0,.55,0,.83.23,2.48.49,5,.71,7.43s.38,5,.6,7.45c.17,1.89.42,3.79.58,5.68.18,2.1.27,4.2.46,6.3.11,1.17.32,2.34.51,3.52.25,1.59.51,3.17.78,4.76.17,1,.37,2,.51,3,.11.76-.69,1-1.52,1.08s-1.82.22-2.14-.72a20.1,20.1,0,0,1-1.34-6A43.18,43.18,0,0,0,248,57.7c-.15-1.12-.11-2.26-.23-3.38-.29-2.91-.68-5.82-.92-8.73-.09-1.12.28-2.27.15-3.38-.23-2-.75-4-1-6.08-.2-1.55-.16-3.11-.29-4.66-.32-3.85-.55-7.7-1.07-11.54-.38-2.81-1.18-5.58-1.75-8.38a7.92,7.92,0,0,1,0-1.53c-.38,0-.71-.07-1-.07h-6c-.59,0-1.34.09-1.3-.57a2.65,2.65,0,0,1,.39-1.55,2.77,2.77,0,0,1,1.59-.44q3.41-.16,6.83-.2c2.52,0,5.06-.15,7.56,0,2.9.2,5.9-.05,8.69.83.75.24,1.65.24,2.43.45.32.08.5.42.75.64a3.57,3.57,0,0,1-1.09.42c-4.55.15-9.11.26-13.66.39Z"/><path d="M1067.75,6.84c-.61.17-1.21.4-1.84.52-1.94.37-3.89.69-5.84,1-1.09.2-2.16.44-3.26.61-.75.12-1.38.22-1.43.92a1.09,1.09,0,0,1-.67.77c-1,.37-.87,1-.82,1.57s.18,1.1.24,1.65c.18,1.92.41,3.83.48,5.75s-.19,3.65-.06,5.46c.16,2.23.6,4.44.85,6.66.16,1.44.17,2.88.3,4.32.24,2.65.56,5.31.74,8a21.29,21.29,0,0,1-.34,2.48c-.09,1.73-.09,3.47-.15,5.21s-.26,3.36-.22,5c0,.89.65,1.77.61,2.65a35.07,35.07,0,0,1-.7,4.92c0,.21-.59.39-.93.56-.09,0-.28,0-.38,0-.77.28-1.69.66-2.26,0a2.67,2.67,0,0,1-.51-1.81c0-1.37.2-2.74.22-4.1.11-6.68.26-13.37.23-20.05,0-2.81-.47-5.63-.71-8.44-.12-1.38-.18-2.77-.29-4.15-.25-2.92-.33-5.86-.84-8.77a36.42,36.42,0,0,1-.72-6.58c0-1.25-.28-1.48-2-1.28a16.24,16.24,0,0,1-6.8-1,18.74,18.74,0,0,1-3.09-1.13,1.35,1.35,0,0,1-.66-1.22c.08-.59.86-.64,1.64-.75,2.06-.27,3.64.51,5.36,1a13.12,13.12,0,0,0,1.41.31,13.9,13.9,0,0,0,2.19.31,4,4,0,0,0,2-.32,3.16,3.16,0,0,1,2.87-.33,5.44,5.44,0,0,0,1.45.32c2.07-.13,4.14-.35,6.21-.5s4-.29,6-.34a5.4,5.4,0,0,1,1.57.45Z"/><path d="M70.53,68.27a3.66,3.66,0,0,1-3.8-1.92c-.57-.86-.93-1.79-1.43-2.68-.36-.65,0-1.16.75-1.37a2.06,2.06,0,0,1,2.26.42,21.18,21.18,0,0,0,1.81,2,2.25,2.25,0,0,0,2.82-.39c.67-1.19,1.39-2.37,2-3.58a5.31,5.31,0,0,0,.69-4c-.35-1.15-.29-2.35-.6-3.51a29.46,29.46,0,0,0-1.22-3c-.16-.41-.18-.85-.34-1.26A18.74,18.74,0,0,1,71.93,45c-.36-2.65-2.12-5-3.27-7.4-.92-2-2.31-3.83-3.37-5.78a33.15,33.15,0,0,1-2.5-6c-.68-2.17-.91-4.38-1.46-6.55a7.36,7.36,0,0,1,.56-4.85c.45-1,.75-2.08,1.24-3.1s2.4-1.95,4-1.91c1.11,0,2.23.08,3.33.2a3.29,3.29,0,0,1,2.89,2c.28.66-.4,1.22-1.32,1.41a1.7,1.7,0,0,1-1.11-.49c-.72-.75-3.21-1.1-3.93-.43a3.38,3.38,0,0,0-.74,1.48,15.7,15.7,0,0,0-.75,2.58,8.18,8.18,0,0,0,0,2.4,35.83,35.83,0,0,0,.79,4.21,62.08,62.08,0,0,0,1.82,6A25.94,25.94,0,0,0,70,32.17c.77,1.37,1.5,2.76,2.27,4.13.55,1,1.21,1.95,1.68,3,.58,1.25,1,2.53,1.53,3.79.92,2.3,1.92,4.58,2.74,6.89a44.73,44.73,0,0,1,1.89,6.59c.2,1.08-.34,2.22-.58,3.33A12.13,12.13,0,0,1,78.93,62a13.25,13.25,0,0,1-1.08,1.8,5.45,5.45,0,0,0-.46.71C76.55,66.55,73.76,68.23,70.53,68.27Z"/><path d="M184.25,9.09a2.81,2.81,0,0,1-.91.46c-3,.28-6,.52-9,.78a1,1,0,0,0-.09.3,33.88,33.88,0,0,1,.4,5.68,21.44,21.44,0,0,0,.3,2.82c.08,2.08-.15,4.16-.15,6.24,0,1.11.25,2.23.33,3.34.11,1.48.15,3,.26,4.43.06.74.22,1.48.28,2.22,0,.28-.13.57-.13.86,0,2.31-.11,4.63,0,6.93s.56,4.46.72,6.69c.08,1.12-.24,2.25-.2,3.37a25.66,25.66,0,0,0,.52,3.13c.17,1,.34,2,.49,3.06.27,1.93.51,3.87.8,5.8a4.4,4.4,0,0,0,.47,1l.93-.13c0,.05.12.14.11.15-1.33.92-.42,2-.47,3a1.89,1.89,0,0,1-.66,1.48,3.84,3.84,0,0,1-2,.15c-1.22-.13-1.76-.63-1.87-1.6-.29-2.55-1.41-5-1.26-7.63.11-2-.48-3.93-.67-5.9-.1-1,0-2,0-3,0-1.85.06-3.7,0-5.55a23.78,23.78,0,0,0-.6-2.46,19.51,19.51,0,0,1-.14-2.29c-.08-1.83-.22-3.65-.22-5.48,0-.8.44-1.6.44-2.4,0-1.36-.2-2.73-.29-4.09,0-.64,0-1.28,0-1.92s-.09-1.58-.14-2.36c-.08-1.19-.2-2.37-.25-3.56-.11-2.46-.13-4.93-.29-7.39-.08-1.32-.57-2.62,0-3.95,0-.12-.55-.55-.83-.54a39.25,39.25,0,0,0-4.32.28A5.35,5.35,0,0,1,161.4,10c-.36-.3-.23-1.1.07-1.55a1.72,1.72,0,0,1,1.85-.72,44.08,44.08,0,0,0,4.43.31c2.59.11,5.19.17,7.78.29,1.19.05,2.37.2,3.55.28,1.66.1,3.33.17,5,.25Z"/><path d="M391.17,10.11c-.52,1.47-3.12.55-3.58,1.84l-4.57.4c.18,2.26.42,4.48.5,6.7.06,1.56-.21,3.12-.15,4.68,0,1.17.43,2.32.57,3.49.09.69,0,1.38,0,2.07,0,.41.12.82.15,1.23.14,2.1.38,4.2.38,6.3s-.31,4.08-.34,6.11c0,1.64.14,3.28.25,4.93.14,2,.7,4.08.39,6.07-.38,2.48.66,4.77,1.11,7.13.31,1.62.57,3.24.88,4.86a3.46,3.46,0,0,0,.39.92c.55,1,.43,1.17-.92,1.45a4.07,4.07,0,0,1-1.17.66,2.68,2.68,0,0,1-2.54-1.51c-.23-1.83-.53-3.66-.77-5.49-.28-2.09-.52-4.17-.78-6.26-.15-1.17-.32-2.35-.44-3.52,0-.35.16-.7.17-1.05,0-1.82,0-3.65,0-5.47,0-2-.46-4.09-.16-6.09a44,44,0,0,0,.13-6.14c0-1.81-.33-3.61-.48-5.42-.19-2.33-.35-4.66-.51-7-.08-1.26-.11-2.52-.19-3.77-.09-1.41-.26-2.82-.31-4.23,0-.57-.28-.88-1.07-.87-1.28,0-2.57.13-3.85.14a27.81,27.81,0,0,1-4.91-.11A4,4,0,0,1,367,10.61c-.63-.92.64-1.7,2.17-1.57,1.88.16,3.77.22,5.66.35,1.31.09,2.6.27,3.91.31,3.48.1,7,.15,10.45.23C389.85,10,390.48,10,391.17,10.11Z"/><path d="M98.78,69.21c-.15-1.47-.31-2.94-.47-4.41,0-.27-.12-.54-.15-.81q-.4-4.59-.78-9.18c-.08-.94-.15-1.88-.25-2.81-.17-1.56-.37-3.12-.52-4.69-.18-1.85-.34-3.69-.5-5.54-.19-2.19-.45-4.39-.51-6.59-.05-1.68.28-3.36.19-5s-.53-3.42-.7-5.13c-.12-1.17,0-2.35,0-3.52s0-2.11,0-3.17c0-.6.21-1.2.23-1.8.06-1.18.06-2.37.07-3.55,0-.68-.08-1.35,0-2,.07-1.13,1.39-1.49,2.8-1s1.31.9,1.18,1.83a52.85,52.85,0,0,0-.11,5.86c0,1.6-.26,3.19-.22,4.79s.34,3.39.47,5.08.24,3.31.26,5c0,1.09-.31,2.2-.21,3.28.24,2.54.66,5.07,1,7.6.09.75,0,1.5.06,2.25.12,1.18.37,2.36.48,3.54.08.9-.05,1.82,0,2.72.15,1.37.46,2.73.62,4.1.12,1,.11,2,.19,3,.06.78.18,1.56.24,2.34a20.44,20.44,0,0,0,.27,3.38c.23.93-.25,1.93.76,2.8.8.69.39,2.89-.29,3.55s-1.75.45-2.65.3-1.26-.57-1.26-1.2a9,9,0,0,0-.1-.95Z"/><path d="M158.75,62.85c-.37-2.4-.77-4.79-1.09-7.2-.24-1.79-.45-3.59-.52-5.38-.09-2.25,0-4.51,0-6.77,0-1.86-.13-3.73-.26-5.59s-.44-3.92-.48-5.88.19-4.11.19-6.16c0-.83-.43-1.66-.46-2.49-.07-2.37,0-4.75,0-7.12-.07-2-.33-4-.42-6,0-.62.43-.8,1.45-.81,1.72,0,2.85.52,2.89,1.76,0,.42.13.84.13,1.25,0,.88-.1,1.76-.13,2.64s0,2,0,3q0,2.4,0,4.79c0,1.6,0,3.2,0,4.79s-.07,3.39.06,5.08.51,3.66.69,5.49c.1,1,0,2,0,3q.07,2.94.2,5.88c.06,1.29.1,2.59.25,3.87s.43,2.29.6,3.43c.13.88.13,1.76.28,2.64.43,2.48.86,5,1.39,7.43.29,1.35.89,2.68,1.15,4,.14.72-.42,1.49-1.55,1.51a4.14,4.14,0,0,1-2.55-.68,6.8,6.8,0,0,1-1-2.62c-.2-.62-.32-1.25-.47-1.88l-.49-2Z"/><path d="M1088.94,4c0,2.14-.06,4,0,5.84,0,1,.4,2,.47,3.06s0,2.3,0,3.46a42.57,42.57,0,0,0,.2,4.83,39.44,39.44,0,0,1-.18,4.78,19.63,19.63,0,0,0,.37,2c0,.44-.14.88-.12,1.32.16,3.23.28,6.45.53,9.68.13,1.66.52,3.32.73,5a.94.94,0,0,1-.48.77,1.53,1.53,0,0,1-1-.11,4.43,4.43,0,0,1-2.63-3.9c-.36-3.73-.55-7.48-.81-11.22-.17-2.35-.32-4.7-.53-7.05-.11-1.26-.37-2.52-.46-3.79s.06-2.47-.08-3.7c-.25-2.32-.71-4.63-.91-6.95a16.73,16.73,0,0,1,.29-3.61c.09-.69.8-1,1.71-.91C1087.2,3.63,1088.26,3.87,1088.94,4Z"/><path d="M297.88,21.17a.87.87,0,0,1-.39.32c-.3.12-.89.25-1,.15a9.29,9.29,0,0,1-1.92-1.8,8.92,8.92,0,0,1-1.2-2.58c-.4-1.38-.63-2.79-.93-4.19q-.11-.53-.26-1.06c-.25-.93.24-1.35,1.58-1.34,2.09,0,2.58.62,2.58,2.27a37,37,0,0,0,.69,5.13,3.78,3.78,0,0,0,.09.54C297.34,19.42,297.59,20.22,297.88,21.17Z"/><path d="M272.51,68c-.51.57-.9,1-1.32,1.45a1.1,1.1,0,0,1-1.51.06c-.45-.32-.6-.77.09-1.06A3.21,3.21,0,0,1,272.51,68Z"/><path d="M1.28,69.11c0,.62,0,1.24,0,1.85,0,.08-.27.16-.42.23-.11-.11-.31-.22-.3-.33.05-.6.16-1.19.24-1.78Z"/></g></g></svg>