<svg xmlns="http://www.w3.org/2000/svg" viewBox="0 0 1095.06 193.24"><title>where</title><g id="Layer_2" data-name="Layer 2"><g id="where"><path d="M659.81,164.06c-.65-2.39-1.45-4.64-1.85-7-.49-2.86,2.12-7.28,4.7-8.47,2.43-1.12,6.12.67,7,3.43.72,2.35.86,4.64-.65,6.83-1.14,1.66-2.11,3.43-3.37,5.49,1.77.11,3.26.19,4.76.32a4.38,4.38,0,0,0,3.42-1.4l3.22-2.95,2.36,1.29a8.5,8.5,0,0,1-.86,1.21c-1.39,1.36-2.87,2.65-4.23,4a6.07,6.07,0,0,1-5,2.09,15.76,15.76,0,0,1-7-1.88c-2,.69-3.89,1.29-5.71,2a5.78,5.78,0,0,1-6.33-1.5c-2-2-3.83-4.27-5.86-6.58a16.39,16.39,0,0,1-1.6,1.53,19.36,19.36,0,0,1-3.17,2.07,2,2,0,0,1-1.78-.25c-.68-.59-.4-1.43.2-2,1-1,2-1.87,3-2.79.37-.34.8-.63,1.18-1a5.73,5.73,0,0,0,2-4.87A43.73,43.73,0,0,1,646,139.17c.6-1.85.94-3.79,1.43-5.67.62-2.37,1.26-4.74,1.95-7.1.79-2.7,2.71-4.7,4.51-6.72,1.16-1.29,5.2-.69,6.25.88a16,16,0,0,1,1.94,4.09,51.09,51.09,0,0,1,1.17,5.46,3.53,3.53,0,0,1,0,1.25,35.28,35.28,0,0,1-7.34,16.47c-2,2.43-3.8,5-5.67,7.49-.29.39-.69.91-.64,1.32.35,2.54.75,5.28,3.16,6.64C654.93,164.5,657.41,165.52,659.81,164.06Zm-11.09-12.7.48.12c1.72-2.24,3.53-4.42,5.14-6.75,2.64-3.83,3.63-8.36,5-12.7a10.58,10.58,0,0,0-.91-8.13c-.66-1.31-1.53-1.48-2.66-.61a3.9,3.9,0,0,0-1.22,1.28,74.9,74.9,0,0,0-3.74,8.58,54.58,54.58,0,0,0-2.07,13C648.62,147.88,648.72,149.62,648.72,151.36Zm14.37,10.1a19.79,19.79,0,0,0,3.44-8.79c-1.13-.68-2.23-1-3.14-.1C661.33,154.63,661.23,158.78,663.09,161.46Z"/><path d="M355.53,48.17l.6,1.36c-2.32,3.14-5.52,4-9,3.64s-6.29-2.25-6.92-6.51a21.06,21.06,0,0,0-1.84,2,12.13,12.13,0,0,1-4,3.4,5.23,5.23,0,0,1-7.76-2.64,6.6,6.6,0,0,1,.25-6.14c2-3.35,3.65-6.91,6.65-9.53a37.55,37.55,0,0,1,3.32-2.7,6.49,6.49,0,0,1,5.82-.88,5.2,5.2,0,0,0,1.24.18c2.12.11,2.85,1,2.38,3.07-.52,2.31-1.16,4.59-1.58,6.91a11.91,11.91,0,0,0,.41,6.27,3.41,3.41,0,0,0,3.67,2.53C350.85,48.92,353,48.52,355.53,48.17Zm-13.87-15a3.27,3.27,0,0,0-3.84,1c-1.8,1.79-3.52,3.66-5.18,5.58a6.5,6.5,0,0,0-1.55,4.46,2.33,2.33,0,0,0,1.43,2.45c1.09.44,2.09.77,3.08-.12a26.4,26.4,0,0,0,2.62-2.39C339.82,42.34,341.74,36,341.66,33.2Z"/><path d="M625.73,107.36c-1.51-.1-3-.29-4.54-.29-2.69,0-5.39.24-8.08.15-5-.18-10-.53-14.93-.82-.93-.05-1.87-.2-2.8-.16-7.27.29-14.55-.08-21.82-.07-4,0-7.95-.59-11.93-.76a47.78,47.78,0,0,0-6.6.2c-2.16.2-3.28-.11-3.35-1.29-.05-.93.85-1.57,3-1.64,3.21-.11,6.42-.1,9.63,0,5.58.24,11.14.67,16.72.94q6.24.31,12.48.41c1.77,0,3.56-.4,5.3-.22a178.56,178.56,0,0,0,23.67.78,43.39,43.39,0,0,0,8.76-.76,5.26,5.26,0,0,1,1.26,0c1,0,1.69.38,1.64,1.49a1.6,1.6,0,0,1-1.62,1.65c-2.28.14-4.56.22-6.84.32Z"/><path d="M369.8,4.54c8.07.09,16.14.21,24.21.25,4.25,0,8.52-.31,12.76-.11,6.62.32,13.23-.08,19.84.11,2.44.07,4.89,0,7.34,0,3.65.08,7.29.22,10.94.34.93,0,1.73.28,1.7,1.43a1.78,1.78,0,0,1-2,1.58c-2.36-.17-4.72-.48-7.08-.63-2.54-.16-5.09-.28-7.63-.29-7.55,0-15.11,0-22.66-.07-2.71,0-5.42-.3-8.14-.3-3,0-5.94.26-8.91.29-1.77,0-3.55-.28-5.33-.28s-3.38.24-5.07.27c-4.33.09-8.67.13-13,.17A1.31,1.31,0,0,1,365.29,6c0-1,.58-1.29,1.49-1.32s2-.18,3-.28Z"/><path d="M743.85,103.6c-1.79.16-5.14.49-8.5.73-1.42.1-2.85-.07-4.27,0-7.35.52-14.69,1.1-22,1.63-2,.15-4.06.28-6.09.3-3.69,0-7.38-.08-11.07-.07-1,0-1.47-.37-1.57-1.25s.7-2.16,1.53-2a11,11,0,0,0,6-.17c.13,0,.31.11.47.16,3.66,1.11,7.36.79,11.08.39,4-.43,8-.71,12.07-1.08.57-.05,6.81-.36,7.13-.38,3.72-.21,7.45-.45,11.17-.64,2.18-.11,4.37-.1,6.55-.2a57.65,57.65,0,0,1,11.37.19,3.27,3.27,0,0,1,1.61.53,1.58,1.58,0,0,1-.74,2.47,3,3,0,0,1-1,.07Z"/><path d="M694.49,189.11c5.4-.13,10.83,0,16.2-.45,8.83-.78,17.67-.35,26.51-.7,4.72-.19,9.48.5,14.22.74,2.62.13,5.24.16,7.87.24a4.22,4.22,0,0,1,.76,0,1.81,1.81,0,0,1,1.65,1.93c0,1-.76,1.6-2,1.46-3.2-.37-6.39-.83-9.58-1.25-.34,0-.67-.14-1-.16-4.92-.16-9.83-.39-14.75-.45-5.22-.06-10.45,0-15.67.11-3.38.07-6.77.26-10.14.56-3.12.27-6.2.87-9.32,1.1a62.31,62.31,0,0,1-7,0,1.67,1.67,0,0,1-1.81-1.71c0-1.14.56-1.6,2-1.62h2Z"/><path d="M400.57,75.43c3.3-.19,6.6-.5,9.9-.54,7-.08,14-.06,21,0,3.22,0,6.44.24,9.66.32,1,0,1.9.33,1.84,1.29a2.82,2.82,0,0,1-1.38,1.84,3.3,3.3,0,0,1-2.17.14,79.16,79.16,0,0,0-19-1.56c-2.34,0-4.68,0-7,0s-4.58.27-6.87.32c-4.76.1-9.53,0-14.28.2q-8.4.3-16.79.9c-3.8.27-7.58.74-11.37,1.21-.86.11-1.56.18-1.8-.8a1.44,1.44,0,0,1,1.16-1.93,13.62,13.62,0,0,1,2.5-.4c7.39-.25,14.79-.43,22.18-.7,4.15-.15,8.29-.44,12.44-.67Z"/><path d="M551.5,190.22c1.88,0,3.79,0,5.7,0,1.09,0,2.18-.24,3.28-.27,2.71-.08,5.43-.07,8.14-.16,1.17,0,2.34-.35,3.51-.34,1.69,0,3.38.31,5.07.29a65.11,65.11,0,0,0,7.55-.42c5.93-.78,11.87-.45,17.8-.38,5.09.06,10.18.24,15.25.56,1.3.08,3-.23,3.82,1.4-1,2-1.19,1.93-3,1.75-4.88-.49-9.71-1.43-14.68-1.24-3.63.14-7.28-.39-10.91-.37-3.27,0-6.53.5-9.81.59-3.89.11-7.8,0-11.69.06-1.85,0-3.69.29-5.54.42-4.31.3-8.62.66-12.94.86C550.94,193.06,550.76,192.64,551.5,190.22Z"/><path d="M382,22.15c4.63,0,9,0,13.3,0,6.3,0,12.59-.05,18.89-.13,2.69,0,5.38-.26,8.07-.29,1.52,0,3,.3,4.56.28,5.27-.06,10.54-.21,15.81-.32.6,0,1.19,0,1.79,0A1.54,1.54,0,0,1,446,23.29a1.67,1.67,0,0,1-1.46,1.8,2,2,0,0,1-.76.06,97.7,97.7,0,0,0-13.67-.61c-4.8,0-9.6-.23-14.4-.3-3.3-.05-6.6-.11-9.89,0-4.23.16-8.46.57-12.69.74-3.15.13-6.3.1-9.45.07C381.21,25.05,380.82,24.28,382,22.15Z"/><path d="M317.12,77.14c-1.72,1.62-3.31,1.36-5,1.12a53.68,53.68,0,0,0-7.05-.44c-4.42,0-8.84,0-13.26.12-5.35.12-10.7.28-16,.52-4.91.22-9.82.56-14.73.88-2.62.17-5.24.51-7.86.59a34,34,0,0,1-4.52-.43c-1.3-.14-1.42-.94-1.18-2s.88-1,1.72-.81A28.48,28.48,0,0,0,258,77c3.45-.33,7-.11,10.43-.23,2.88-.1,5.76-.38,8.65-.49,2.25-.08,4.51.05,6.76,0,2.79-.13,5.58-.4,8.37-.61a6.45,6.45,0,0,1,1.76-.16c3.08.68,6.06-.21,9.09-.38a87,87,0,0,1,10.68,0C314.89,75.06,315.93,76.34,317.12,77.14Z"/><path d="M265.54,8.73H250.79a7.07,7.07,0,0,1-1.52-.08,1.66,1.66,0,0,1-1.45-1.8,1.42,1.42,0,0,1,1.67-1.49c1.52,0,3,.27,4.56.38,3,.21,6.07.44,9.1.58,3.88.17,7.76.27,11.65.35,2.86.06,5.73.11,8.6,0,3-.11,6.08-.52,9.13-.61,4.39-.14,8.78-.12,13.18-.16,1.33,0,2.65,0,4,0s2,.48,2,1.61-.56,1.59-2.11,1.38c-5.74-.81-11.51-.59-17.27-.64-3,0-5.9.42-8.86.44-3.38,0-6.77-.23-10.16-.3-2.59-.05-5.18,0-7.77,0Z"/><path d="M442.38,61.17c-.08,2.46-1.11,3.72-2.71,3-1.93-.82-3.86-.56-5.77-.69-4.15-.29-8.32-.46-12.47-.37-6.87.15-13.73.54-20.6.85-6.69.3-13.37.65-20.06.94a2.23,2.23,0,0,1-1.57-.44,1.76,1.76,0,0,1-.36-1.6,2.23,2.23,0,0,1,1.62-.89c3.14-.07,6.28.06,9.42,0,5.94-.11,11.88-.29,17.82-.46,4.67-.14,9.33-.34,14-.47q9.29-.26,18.59-.43A7.94,7.94,0,0,1,442.38,61.17Z"/><path d="M712,168.76c1.36.06,2.72,0,4.07.21,3.91.48,7.76-.17,11.63-.49a10.91,10.91,0,0,1,2.55,0c5.6.88,11.17-.32,16.76-.2,2.1,0,4.21,0,6.31,0,2.53,0,5.06,0,7.58,0,1.05,0,1.93.17,1.87,1.46a1.92,1.92,0,0,1-2.14,1.67c-2.94-.28-5.86-.75-8.81-.84s-5.6.29-8.4.33c-5.57.09-11.14,0-16.71.15-3.22.07-6.42.41-9.64.55-1.82.08-3.65,0-5.47,0-1.19,0-2.37.07-3.55.14-.68,0-1.34.21-2,.23a1.44,1.44,0,0,1-1.61-1.31,1.51,1.51,0,0,1,1.45-1.76,20.9,20.9,0,0,1,2.29-.05H712Z"/><path d="M613.5,124.63c.32,1.85.1,2.51-1.38,2.85a7.73,7.73,0,0,1-3.49.16c-6.5-1.66-13.1-1.8-19.74-1.65-8.47.19-17,.31-25.43.52-2.88.07-5.76.34-8.64.5A5.31,5.31,0,0,1,553,127c-.39-.12-1-.62-.94-.92,0-.49.37-1.24.75-1.37a10.06,10.06,0,0,1,2.77-.35c3.73-.14,7.47-.32,11.2-.33,3.37,0,6.75.26,10.12.27,2.37,0,4.74-.28,7.12-.31q9.21-.13,18.42-.14c1.17,0,2.33.4,3.51.48C608.48,124.45,611,124.52,613.5,124.63Z"/><path d="M398.79,42.65c4.82,0,9.65.09,14.47,0,3.22-.08,6.43-.49,9.64-.72,1.41-.1,2.82-.12,4.22-.19,3.72-.19,7.43-.47,11.15-.54a6.59,6.59,0,0,1,3.07,1,1.65,1.65,0,0,1,.56,2.26,1.41,1.41,0,0,1-1.95.72c-4.46-1.73-9.1-.86-13.64-.83-6.77,0-13.54.6-20.32.72-4.38.08-8.76-.21-13.13.41-1.65.23-3.33.21-5,.31-1,.07-1.88-.16-2-1.41s.8-1.57,1.75-1.77a10.6,10.6,0,0,1,2-.26c3,0,6.08,0,9.12,0Z"/><path d="M608.82,171.5c-4.76-1.8-9.47-1-14.17-.71-2.71.16-5.43,0-8.15.06-5.6.11-11.2.23-16.79.43-4.66.16-9.32.45-14,.66a8.38,8.38,0,0,1-1.52-.16c-1-.15-2.11-.36-2-1.74a2.73,2.73,0,0,1,3.14-1.93c3,1.19,6,1.16,9.15.92,3.45-.27,6.93-.1,10.39-.18,5.93-.13,11.87-.27,17.8-.49,3.9-.15,7.79-.48,11.68-.66a26.51,26.51,0,0,1,3.53.24c1.79.16,2.23.83,1.61,2.51A6.44,6.44,0,0,1,608.82,171.5Z"/><path d="M759.73,125.32a8.29,8.29,0,0,1,1,1.77,1.33,1.33,0,0,1-1.55,1.71c-3.36-.3-6.71-.65-10.08-.83-3.78-.21-7.58-.42-11.37-.36-4.45.08-8.9.52-13.35.68-2.44.09-4.89-.13-7.34-.13-1.17,0-2.34.22-3.52.3-.82.06-1.65,0-2.47.1a1.49,1.49,0,0,1-1.8-1.63c.05-1.07.94-1.54,2-1.56q2.67-.05,5.34,0c3.48,0,7,.1,10.43,0s6.85-.33,10.28-.36c2.54,0,5.08.27,7.62.3C749.74,125.36,754.59,125.32,759.73,125.32Z"/><path d="M257.6,24.14c3.88-.31,7.75-.64,11.63-.93,7-.52,14-1.07,21-1.47a25.29,25.29,0,0,1,5.53.54,1.6,1.6,0,0,1,1.34,1.89c-.13,1-.88,1.12-1.71,1.09a14.79,14.79,0,0,1-2.54-.1c-4-.88-7.93-.2-11.88.3a6.44,6.44,0,0,1-.75.13c-3.79,0-7.58,0-11.37.06-1.43,0-2.85.3-4.28.44-3.79.38-7.58.78-11.38,1.12a9.56,9.56,0,0,1-2.78-.13,1.73,1.73,0,0,1-1.15-1c-.15-.76.41-1.21,1.22-1.28,2.36-.21,4.73-.43,7.09-.65Z"/><path d="M554.37,149.4l.65-2.63c7.45,0,14.64,0,21.82,0,3.1,0,6.2-.23,9.3-.29,4.33-.09,8.67-.21,13-.13a28,28,0,0,1,4.94.91c.56.11,1.1.31,1.7.48.07,1.27-.6,1.85-1.83,1.79-2.11-.11-4.22-.26-6.33-.41-.85-.06-1.69-.24-2.53-.24-6.79,0-13.58,0-20.37.11-5.75.1-11.49.38-17.23.56C556.57,149.55,555.65,149.45,554.37,149.4Z"/><path d="M714.52,148.86v-2.68l7.44.42c1,.06,2,.22,3,.18q8.13-.28,16.26-.63c1.61-.07,3.21-.24,4.82-.34,2.28-.14,4.57-.35,6.85-.35s4.74.19,7.11.33c1,.06,1.65.53,1.5,1.62-.13.92-.6,1.59-1.68,1.54l-.25,0c-4.33-.72-8.71-.61-13.07-.87a24.61,24.61,0,0,0-3,.26c-5.67.37-11.34.8-17,1.05-3.29.15-6.6,0-9.9,0A10.53,10.53,0,0,1,714.52,148.86Z"/><path d="M299.62,61.88,298,63.68c-3.68-.2-7.06-.45-10.43-.56q-7.47-.25-14.95-.34c-1.77,0-3.54.27-5.31.32q-7.08.22-14.15.34a6,6,0,0,1-2-.27,1.34,1.34,0,0,1-.85-1.86,1.94,1.94,0,0,1,1.45-1c2.45.09,4.89.47,7.34.53,4.33.1,8.66.05,13,0,3,0,6,0,9-.06s6.26-.22,9.39-.26c2.36,0,4.72,0,7.07.16C298.18,60.76,298.76,61.37,299.62,61.88Z"/><path d="M253.23,41.37c4,.19,8.08.46,12.13.53,2,0,4.06-.27,6.09-.42,5.67-.4,11.35-.74,17-1.24a3,3,0,0,1,2.88,1.15,2.18,2.18,0,0,1,.12,1.84,1.71,1.71,0,0,1-1.46.64,51.31,51.31,0,0,0-14.28,0c-3.56.47-7.22.18-10.83.28-1.86.05-3.71.28-5.57.31-2.78,0-5.56,0-8.33-.1a2.32,2.32,0,0,1-1.5-1.06c-.12-.19.43-1.1.86-1.31a19.16,19.16,0,0,1,2.89-.92Z"/><path d="M357.69,28.51a4.93,4.93,0,0,1-5.95,2.32A4.64,4.64,0,0,1,349,29.21a19.35,19.35,0,0,1-2.48-5.78,4.06,4.06,0,0,1,1.5-3.21c.65-.51,2.1-.17,3.14.05.38.08.76.88.86,1.41a2.86,2.86,0,0,1-.25,1.72c-1.44,2.8-.85,3.55,2.35,4.32C355.3,28,356.45,28.23,357.69,28.51Z"/><path d="M667.05,103.77a7.6,7.6,0,0,1-2.33.53c-2.49-.3-4.84.49-7.26.75-1.3.15-2.31-.43-2.46-1.45s.66-1.61,2.06-1.73c2.6-.22,5.21-.4,7.82-.52C666.4,101.29,666.52,101.48,667.05,103.77Z"/><path d="M359.3,10.88c-.89,1.41-2,1-2.89.72-2.11-.65-4.17-1.44-6.25-2.18-1.79-.64-1.79-.64-1.42-2.84.2-.08.47-.31.64-.25,2.88,1,5.77,1.88,8.6,3C358.56,9.53,358.9,10.38,359.3,10.88Z"/><path d="M617,145.77c.18-2.53.32-4.47.47-6.41.08-1.08.58-1.78,1.75-1.73.94,0,1.35.75,1.27,1.77-.18,2.27-.3,4.54-.43,6.8,0,.51.15,1.1-.06,1.5a2.2,2.2,0,0,1-1.21,1.1,1.42,1.42,0,0,1-1.22-.68A13.93,13.93,0,0,1,617,145.77Z"/><path d="M699.39,149.55c3,1.11,3,1.11,2.67,3.62l-.38-1.4a7.68,7.68,0,0,0-1.32,4.2,6.83,6.83,0,0,1-.31,2.24,2.24,2.24,0,0,1-1.51,1c-.8.13-1.27-.49-1.21-1.28.1-1.26.36-2.51.46-3.77A7.35,7.35,0,0,1,699.39,149.55Z"/><path d="M671.82,104.68c2.7.77,5.18,1.33,7.23,3,.26.21.59.46.67.74.14.51.32,1.24.07,1.56a1.68,1.68,0,0,1-1.51.35c-2.31-.8-4.58-1.74-6.87-2.59-.93-.35-1.55-1-1.15-1.9C670.48,105.28,671.32,105,671.82,104.68Z"/><path d="M620.31,131.81a6.71,6.71,0,0,1,1.28-4.87c.86-1.15,1.6-2.39,2.4-3.59.54-.8,1.29-1.17,2.14-.57s.71,1.35.17,2.2c-1.26,2-2.44,4-3.62,6C622.13,132,622.17,132,620.31,131.81Z"/><path d="M343.64,6.43a18,18,0,0,1-2.72.44c-1.77,0-3.54-.12-5.31-.15a1.24,1.24,0,0,1-1.37-1.43c.07-.53.68-1.39,1.08-1.4a60.55,60.55,0,0,1,7.06.13C343.36,4.09,344,4.86,343.64,6.43Z"/><path d="M695.34,165.37c2.13,1,2.38,1.61,1.39,3.23-.62,1-1.27,2-1.84,3s-1,2.51-2.69,2.69c-.3,0-.54.61-1,1.1C690.7,171.1,693.26,168.34,695.34,165.37Z"/><path d="M363.86,15c1.34-1.35,1.63-1.44,2.92-.6,2.24,1.45,3.24,3.89,4.62,6a1.39,1.39,0,0,1-.43,1.29,3.11,3.11,0,0,1-1.64.17c-.18,0-.36-.33-.51-.53Z"/><path d="M330.24,7.7a15.53,15.53,0,0,1-2.62,1.19,11,11,0,0,0-4.54,2.2,3.73,3.73,0,0,1-1.27.79,1.11,1.11,0,0,1-1.41-1.47c1-2.91,6.78-5.35,9.24-3.8C329.82,6.73,329.88,7,330.24,7.7Z"/><path d="M309.28,19.27a10.59,10.59,0,0,1,5.58-5.12,1.56,1.56,0,0,1,2.22.51c.54.89.15,1.46-.73,2a32,32,0,0,0-3.71,3C311.23,21,310.89,21,309.28,19.27Z"/><path d="M639.58,112.44c-.3.46-.45,1-.75,1.09-2.11.82-3.5,2.54-5.12,4-.62.55-1.25.88-2,.33a1.56,1.56,0,0,1-.15-2.57,55,55,0,0,1,4.53-3.62,3.79,3.79,0,0,1,2.35-.44C638.81,111.24,639.15,112,639.58,112.44Z"/><path d="M618.83,154.15c1.69.63,2.11,1.42,2.13,2.73,0,2.11.31,4.22.51,6.33.08.86,0,1.6-1,1.68s-1.34-.7-1.46-1.46c-.38-2.42-.73-4.85-.94-7.29C618,155.53,618.53,154.87,618.83,154.15Z"/><path d="M325.68,73.07a5.52,5.52,0,0,1-1.69,1,2.57,2.57,0,0,1-1.63-.56c-1.46-1-2.9-2-4.25-3.09a2.66,2.66,0,0,1-.71-1.56,1.17,1.17,0,0,1,1.74-1.31c2.11,1.4,4.1,3,6.12,4.48C325.42,72.19,325.45,72.51,325.68,73.07Z"/><path d="M635.84,181.95c3.44.31,6,1.21,7.86,3.6.42.55,1,1.16.3,1.71a1.92,1.92,0,0,1-1.8.09,19.66,19.66,0,0,0-6.13-3c-.16-.05-.39-.1-.45-.22a4,4,0,0,1-.67-1.68C635,182.19,635.83,182,635.84,181.95Z"/><path d="M682.79,113.64l1.54-1.4c2.57.64,4.08,2.53,5.71,4.23.54.56.92,1.36.26,2.06a1.44,1.44,0,0,1-2.24.14Z"/><path d="M374.93,35.21l-2.06-5.69c0-.08-.09-.15-.12-.23-.42-1.21-.19-2.18.66-2.38a1.66,1.66,0,0,1,2,1.14c.36.86.73,1.71,1,2.59.26.72.43,1.46.65,2.19C377.84,35.27,377.53,35.6,374.93,35.21Z"/><path d="M623.8,169.6c1.83-.65,2.59.36,3.05,1.61a5.54,5.54,0,0,0,2.91,3.6c.34.15.76.88.65,1.16a2,2,0,0,1-1.17,1.09,2.09,2.09,0,0,1-1.65-.31,12.78,12.78,0,0,1-3.92-6A3.34,3.34,0,0,1,623.8,169.6Z"/><path d="M698.45,128.69,697,130.25c-.76-.65-1.42-1-1.72-1.51a54.34,54.34,0,0,1-2.47-5,2.17,2.17,0,0,1,.05-1.67c.51-1,1.77-.8,2.38.32C696.31,124.38,697.3,126.42,698.45,128.69Z"/><path d="M650.72,106.91c-.17.22-.37.76-.75,1-1.57.8-3.18,1.54-4.81,2.22a1.53,1.53,0,0,1-2.28-.83c-.37-.95.19-1.77,1.37-2.23,1.4-.55,2.78-1.18,4.18-1.74A1.56,1.56,0,0,1,650.72,106.91Z"/><path d="M367.38,66a6.06,6.06,0,0,1-1.06,1.07c-1.63,1.05-3.31,2-5,3-.69.42-1.55.82-2-.06a2.12,2.12,0,0,1,.36-2,39.55,39.55,0,0,1,5.3-3.45A1.58,1.58,0,0,1,367.38,66Z"/><path d="M701.86,141.49a5.49,5.49,0,0,1,.32,1.93c-.11.53-.65,1.31-1.08,1.37s-1.52-.5-1.56-.87a66,66,0,0,1-.28-7.1c0-.33.94-1,1.26-.89a2.08,2.08,0,0,1,1.3,1.27,36.36,36.36,0,0,1,.32,4.25Z"/><path d="M687.47,177.7l2.16.49c-.07.6.07,1.33-.23,1.68-1.61,1.85-2.53,4.59-5.51,4.82a2.41,2.41,0,0,1,.18-3.38C685,180.09,686.22,179,687.47,177.7Z"/><path d="M333.71,73c1.32.24,2.66.42,4,.74.87.22,1.6.82,1.42,1.81s-1.14,1-2,1c-1.5-.14-3-.27-4.5-.45a2.26,2.26,0,0,1-1.39-.49,2.17,2.17,0,0,1-.4-1.6c.06-.33.7-.67,1.13-.77a7.89,7.89,0,0,1,1.76,0Z"/><path d="M306.56,57.6a6.74,6.74,0,0,1-1.91-1.29,10.61,10.61,0,0,1-1.77-5.42c-.07-.87.26-1.65,1.17-1.59.63,0,1.64.52,1.77,1,.59,2.23.94,4.53,1.37,6.8Z"/><path d="M378.16,44a36.2,36.2,0,0,1-1.22,3.84,1.6,1.6,0,0,1-1.41.67,1.71,1.71,0,0,1-1-1.25,46.91,46.91,0,0,1,.1-5.5,1.41,1.41,0,0,1,1-1,1.9,1.9,0,0,1,1.52.58A13.76,13.76,0,0,1,378.16,44Z"/><path d="M353.46,74.29c-2,.63-3.88,1.2-5.73,1.79a1.65,1.65,0,0,1-2.16-.83c-.4-.77-.28-1.57.68-1.84,1.71-.49,3.43-.93,5.16-1.3C353,71.78,353.36,72.21,353.46,74.29Z"/><path d="M306,24.43a1.59,1.59,0,0,1,1.66,2,42.36,42.36,0,0,1-1.68,5,1.88,1.88,0,0,1-1.55.82,1.26,1.26,0,0,1-1.16-1.62,52.66,52.66,0,0,1,1.58-5C305.07,25.06,305.74,24.7,306,24.43Z"/><path d="M373.06,53.92c1.32.09,2.14.89,1.83,1.85a21.41,21.41,0,0,1-1.9,4.39c-.28.47-1.29.5-2,.74-.18-.59-.63-1.24-.5-1.75a32.73,32.73,0,0,1,1.56-4.52C372.24,54.25,372.83,54.07,373.06,53.92Z"/><path d="M304.21,41.42a8.9,8.9,0,0,0,0,1.73c.17.82,0,1.5-.88,1.44-.65-.05-1.71-.5-1.81-1a29.29,29.29,0,0,1-.53-4.75,1.49,1.49,0,0,1,1.42-1.76c1.1,0,1.67.72,1.71,1.8,0,.83,0,1.67,0,2.51Z"/><path d="M314.37,65.87l-2.54.86c-1-1.49-2-2.81-2.79-4.25a1.83,1.83,0,0,1,.11-1.73,1.88,1.88,0,0,1,1.81-.08A9.78,9.78,0,0,1,314.37,65.87Z"/><path d="M652.06,186.29c.8,0,1.62,0,2.43,0,1.25.09,2.5.3,3.75.39.84.06,1.58.24,1.61,1.22a1.29,1.29,0,0,1-1.42,1.46,37.84,37.84,0,0,1-5-.52C652.31,188.64,651.85,187.71,652.06,186.29Z"/><path d="M675.06,186.07c.29,1.07-.4,1.53-1.19,1.94-1.19.63-2.37,1.27-3.58,1.87a2.17,2.17,0,0,1-2.49-.6c-.42-.82,0-1.53,1.27-2l2.84-1.13C673.17,185.64,673.35,185.64,675.06,186.07Z"/><path d="M132.51,156.7c-1.92-.25-3-.76-3.29-2.38-.25-1.42.15-2.17,1.43-2.37s2.43.45,2.44,1.79A15.34,15.34,0,0,1,132.51,156.7Z"/><path d="M1009.39,168.64a5.15,5.15,0,0,0,4.27,2.65c-2.18,1-4.1-.26-4.27-2.65Z"/><path d="M700.09,133.56l-1.26-3.17C700,131.13,701,131.93,700.09,133.56Z"/><path d="M680.52,71.85v1.22h-.37V71.86Z"/><path d="M1009.4,168.63c-1.07.44-1.63-.09-1.83-1.26l1.83,1.26Z"/><path d="M505.62,139.4c.36,0,.73.05,1.09.11a1.2,1.2,0,0,1,0,.39c-.35.06-.7.07-1.05.1Z"/><path d="M32.16,135.27c-.21,0-.48-.07-.9-.56-.94-1.09-1.89-2.17-2.87-3.22a4.06,4.06,0,0,1-.75-4.74,1.24,1.24,0,0,0,.31-.63c.33-3.51,3.09-4.16,6-4.85a56.75,56.75,0,0,1,13.2-1.78h1c1.43,0,2.86-.08,4.29-.16,1-.05,1.92-.1,2.89-.13,1.28,0,2.55-.05,3.83-.07,1.95,0,3.89-.05,5.83-.15,3.11-.15,6.22-.39,9.33-.62l2.61-.2q6.86-.5,13.72-1a56.52,56.52,0,0,0,7.68-1,.61.61,0,0,0-.06-1.19l-.54-.07a11.11,11.11,0,0,0-1.17-.12,96,96,0,0,1-21-3c-2.21-.58-4.46-1-6.71-1.46-1.17-.23-2.34-.45-3.5-.7s-2.07-.42-3.11-.62a66.54,66.54,0,0,1-7.69-1.8,9.31,9.31,0,0,0-2.88-.47,10.41,10.41,0,0,0-4.81,1.3c-2.76,1.41-5.59,2.69-8.43,3.94-1.4.62-2.82,1.19-4.24,1.77-1.17.48-2.35.95-3.51,1.45a1.9,1.9,0,0,1-.73.17c-.28,0-.7-.08-1.16-.78a.59.59,0,0,1-.05-.46,2.36,2.36,0,0,1,1.1-1.34c3-1.83,12.06-7.35,12.06-7.35a.61.61,0,0,0-.15-1.1l-.72-.2a16.61,16.61,0,0,0-4.67-.88,8.76,8.76,0,0,0-1.62.15,10.47,10.47,0,0,1-2,.16c-.57,0-1.13,0-1.7-.05l-1.2,0c-.19-1.49.24-2,1.8-2.33a50.39,50.39,0,0,1,6.47-.83C48.61,99.39,56.6,99,64.08,99c1.6,0,3.18.12,4.77.24,1.35.1,2.7.2,4,.23,1.12,0,2.25.08,3.38.12,1.68.07,3.36.14,5,.14a37.67,37.67,0,0,0,5.93-.4,28.4,28.4,0,0,1,4.24-.26l3.17,0c.65,0,1.31,0,2,0,3.66-.17,7.31-.47,11-.83a.6.6,0,0,0,0-1.2l-1.29-.15c-.91-.1-1.82-.21-2.74-.28a79,79,0,0,1-14.14-2.53c-2.39-.61-4.75-1.11-7-1.47s-4.54-.68-6.81-1c-2.09-.29-4.18-.59-6.26-.91-1.39-.22-2.77-.48-4.15-.75-1.69-.33-3.38-.65-5.09-.89A79,79,0,0,0,52,88.34h0a12.37,12.37,0,0,0-3.43.57l-1.43.38a64.29,64.29,0,0,0-10.7,3.52c-.24.11-.5.2-.76.3A4.79,4.79,0,0,0,34,94a2.41,2.41,0,0,1-1.77.53l-1,0a4.73,4.73,0,0,0-1.33.16,5.59,5.59,0,0,1-.65-.86,2,2,0,0,1,.51-.68,23.67,23.67,0,0,1,3.6-1.65c1.73-.66,3.48-1.28,5.22-1.89l2.9-1c.4-.15.79-.32,1.23-.51l.71-.32a.6.6,0,0,0,.37-.57.61.61,0,0,0-.39-.56,19.5,19.5,0,0,0-7.07-1.34,21,21,0,0,0-3.92.38,3.3,3.3,0,0,1-.64.07c-.65,0-1.06-.2-1.07-1.21a1.92,1.92,0,0,1,.5-1.41,1.77,1.77,0,0,1,1.3-.5l2.58.09c2.75.11,5.49.21,8.24.21q13.13,0,26.26-.17c4.85-.07,10.58-.18,16.32-.53,3.94-.24,7.88-.62,11.81-1l7-.66c4.13-.38,8.26-.75,12.38-1.28a13,13,0,0,0,3.42-1.12c.56-.24,1.14-.49,1.78-.73a.61.61,0,0,0,.08-1.1c-1.82-1-2.11-2.2-2-4,.14-2.1.24-4.21.34-6.44l.15-3a.6.6,0,0,0-.6-.63l-9.38-.06-6.08.05-8.9,0c-2.15,0-4.3,0-6.44.09s-4.3.29-6.45.51c-1.66.17-3.31.34-5,.44-2.13.13-4.28.18-6.42.23-1.66,0-3.32.08-5,.15-2.7.13-5.39.28-8.09.43l-6.16.33c-.38,0-.76,0-1.14,0l-2.12,0a.61.61,0,0,0-.61.61v11.9l-1.3.59L44.33,65.73a.61.61,0,0,0-.55-.46c-.58,0-1.17-.05-1.77-.05a30.28,30.28,0,0,0-6.84.77,4.19,4.19,0,0,0-3.41,3.67,21.74,21.74,0,0,0,0,3.9l0,1a2,2,0,0,0,.27.82,5.49,5.49,0,0,0,1.3,4.55,1.07,1.07,0,0,1-.27,0,.88.88,0,0,1-.59-.24l-.72-.59a11.83,11.83,0,0,1-2.3-2.22,13.61,13.61,0,0,1-2.22-7.58c0-1.38.71-2.64,2.36-4,2.49-2,5.55-2.61,8.21-2.95,4.2-.52,8.42-.93,12.63-1.34l1.5-.15h.21a6.18,6.18,0,0,1,.92.06,8.4,8.4,0,0,0,1,.08l11.5-.23,4.25-.05c2.66,0,5.32-.05,8-.15,2.49-.09,5-.27,7.47-.44l4.21-.28c3.55-.21,7.09-.4,10.64-.56,3-.13,6-.24,9-.34l4.15-.15a.61.61,0,0,0,.58-.62V57.7a.61.61,0,0,0-.61-.58h-11l-7.83,0c-2.18,0-4.37-.15-6.54-.32-3.11-.24-6.21-.55-9.31-.87-1.73-.18-13.25-1.49-13.25-1.49-3.35-.38-6.69-.76-10.05-1-3.61-.24-7.22-.38-10.84-.52-2.4-.1-4.81-.19-7.21-.31a9.78,9.78,0,0,1-1.65-.28A11.18,11.18,0,0,0,33.74,52c-3.53-.19-7.06-.32-10.59-.45l-6.72-.23c-3.39-.1-6.77-.19-10.15-.45a24.91,24.91,0,0,1-4.58-1c-.57-.15-1.13-.31-1.7-.45v-.55a7.83,7.83,0,0,1,4.09-2.25c7.23-1.71,15.42-3.64,23.2-6,5.18-1.57,10.55-2.76,15.74-3.91,2.42-.53,4.84-1.07,7.24-1.64,2.61-.62,5.21-1.3,7.81-2,3.05-.8,6.1-1.6,9.18-2.3,3.36-.76,6.73-1.44,10.1-2.12,2.86-.58,5.72-1.15,8.57-1.78,2.22-.49,4.42-1.06,6.62-1.62,1.82-.47,3.64-.94,5.47-1.37,3.07-.71,6.14-1.38,9.21-2l7.88-1.74a31,31,0,0,0,5-1.43,2.86,2.86,0,0,1,1.08-.23,3.27,3.27,0,0,1,1.9.73,1.43,1.43,0,0,1,.54.86,1.81,1.81,0,0,1-.75.62,7.43,7.43,0,0,1-2,.61l-4.12.7c-2.3.38-4.61.76-6.9,1.22-1.88.37-3.74.84-5.6,1.32l-2.57.65-1.6.37c-1,.24-2.09.48-3.12.77s-1.77.54-2.65.83c-1.2.39-2.4.78-3.63,1.09s-2.34.49-3.52.69-2.15.37-3.21.61Q77.73,31,71.52,32.51l-9.81,2.32c-2.15.5-4.3,1-6.46,1.46-2.64.59-5.28,1.18-7.91,1.81l-4.18,1C37,40.52,30.72,42,24.65,44.08c-.65.22-1.32.41-2,.59a24.84,24.84,0,0,0-3.42,1.14.61.61,0,0,0-.35.65.6.6,0,0,0,.54.51l2.6.27c2.16.22,4.32.44,6.48.68,1,.12,2,.26,3.06.4l6.15.84c3.48.48,7,1,10.46,1.34s6.7.65,10.06.92l2.88.24q5.46.45,10.92.83c.48,0,1,0,1.45,0l9.3,0c5.7,0,11.4.06,17.1.14s11.25.21,16.88.35l6.24.15a8.86,8.86,0,0,1,1.67.09c1.14.24,1.11.51,1.09.7a3.22,3.22,0,0,1-.82,1.79,6.77,6.77,0,0,1-1.58,1c-.29.16-.59.32-.89.5a.61.61,0,0,0-.28.43.59.59,0,0,0,.15.49c1.55,1.68,1.33,3.56,1.1,5.54l-.05.45a61.71,61.71,0,0,0,.27,12.83c.37,3.72.51,8.06-1.19,12.07a7.42,7.42,0,0,1-1.51,2c-2.28,2.39-5.21,3.42-8.32,4.51-1.08.38-2.16.76-3.21,1.2a.61.61,0,0,0,.23,1.16l7.42-.61.69,0a4.72,4.72,0,0,0,2-.35,2.36,2.36,0,0,1,1.06-.28,3.68,3.68,0,0,1,2.19,1.19l.52.43a1.12,1.12,0,0,1,.35.54,18.79,18.79,0,0,0-.14,3.35,10.86,10.86,0,0,1-.66,5,12,12,0,0,1-7.89,6.6l-.71.2a9.71,9.71,0,0,0-2,.71.6.6,0,0,0,.28,1.14h7.12a3.26,3.26,0,0,0,.77-.13,2.38,2.38,0,0,1,.48-.09h0c1.26,0,1.85.14,2.13.44s.4,1,.31,2.35c-.13,1.92-.13,3.86-.12,5.79,0,1.12,0,2.25,0,3.37a15.62,15.62,0,0,1-.16,1.69c-.06.43-.12.86-.15,1.3a.85.85,0,0,1-.68.87,26.2,26.2,0,0,1-1.79-11.56.61.61,0,0,0-.6-.65l-4.53.4c-3.43.3-6.79.59-10.14.92l-2,.21a55.34,55.34,0,0,1-6,.44q-.87,0-1.74-.06-.56,0-1.13,0a37.27,37.27,0,0,0-4.07.3l-9.09.93c-4.19.43-8.37.86-12.57,1.24-2.46.22-4.94.32-7.46.42l-3.55.15a.61.61,0,0,0-.57.5,18.09,18.09,0,0,0,.68,9c.21.64.15.81.12.85a.43.43,0,0,1-.24.12c-3.36-2.75-4.63-5.63-4-9a.61.61,0,0,0-.3-.63,7.26,7.26,0,0,0-3.74-.88c-.43,0-.87,0-1.29,0l-1,0a106.24,106.24,0,0,0-10.93.59,13.58,13.58,0,0,0-4.3,1.57l-.8.39c-1.31.63-.88,1.92-.64,2.62l.25.74c.41,1.25.83,2.5,1.19,3.76a7.9,7.9,0,0,1,.21,1.23l0,.2A1,1,0,0,1,32.16,135.27ZM75.6,101.65c-3,0-6.13.2-9.12.38l-3.72.22c-1,.05-2.06.15-3.09.24l-1.38.12a.61.61,0,0,0-.55.55.6.6,0,0,0,.44.64c4,1.06,8,1.87,11.89,2.65,1.77.35,3.54.71,5.3,1.09A201.54,201.54,0,0,0,98,111.26c1.08.1,2.17.17,3.26.17h0a18.79,18.79,0,0,0,6.82-1.14,26.15,26.15,0,0,0,8.41-5.14,5.62,5.62,0,0,0,2-3.89.6.6,0,0,0-.6-.66l-3.13.34c-2.14.24-4.24.48-6.34.63-3.58.26-7.16.46-10.75.65l-3.35.18c-.48,0-1,0-1.43,0s-.7,0-1,0c-1.69-.08-3.37-.19-5.05-.3-3.49-.22-7-.44-10.46-.47ZM57.76,84.55a.61.61,0,0,0-.6.66l0,.2c0,.28.27.75.54.79l1,.14c.73.1,1.46.19,2.19.31l10.52,1.8,5.48.91c3.85.63,7.71,1.27,11.54,2a64.5,64.5,0,0,0,12.14,1.27,40.76,40.76,0,0,0,13.56-2.19,7.78,7.78,0,0,0,5.66-7.69.61.61,0,0,0-.57-.62q-2.6-.15-5.2-.15a128.1,128.1,0,0,0-14.21.88c-.71.08-1.41.18-2.11.27-1,.14-2.1.29-3.15.37-2.87.23-5.74.41-8.62.52-5.51.2-11,.39-16.55.5-1.52,0-3,0-4.57,0Z"/><path d="M105.59,155.36a35,35,0,0,1-7.25-.8l-.61-.13c-2.6-.56-5.21-1.11-7.79-1.77-2.17-.55-4.33-1.14-6.5-1.72-2.74-.74-5.48-1.48-8.24-2.16-1.7-.42-3.42-.73-5.14-1-1.12-.2-2.24-.4-3.35-.63a11.73,11.73,0,0,1-1.47-.45c-.47-.16-.94-.33-1.42-.44-2.31-.55-4.63-1.07-7-1.52h-.25a4.15,4.15,0,0,0-1.54.28l-2.51.87c-2.38.82-4.76,1.64-7.07,2.62a62.37,62.37,0,0,0-7,3.66,8.68,8.68,0,0,1-4.53,1.14l-1.18,0a5.5,5.5,0,0,0-1.28.13,3.36,3.36,0,0,1-.69.1c-.33,0-.48-.07-.55-.5a1.31,1.31,0,0,1,.94-1.53,12.13,12.13,0,0,1,1.28-.36,11.3,11.3,0,0,0,1.67-.5c3.51-1.48,7-3,10.64-4.55l4-1.72a.61.61,0,0,0,0-1.12,21.15,21.15,0,0,0-7.61-1.74,13.45,13.45,0,0,0-1.35.07c-2,.2-4.14.3-6.62.3-1,0-1.93,0-2.89,0a1.48,1.48,0,0,1-1.51-1.27c-.06-.61.12-1,1.15-1.15.72-.1,1.45-.21,2.17-.33,1.1-.18,2.21-.36,3.32-.46,1.64-.15,3.29-.25,4.93-.35,1.32-.08,2.64-.16,4-.26,2.18-.17,4.37-.36,6.56-.55,3-.25,5.94-.51,8.91-.72,1.28-.09,2.56-.12,3.85-.14s2.53,0,3.79-.13c4.51-.31,9.14-.47,13.77-.47q5.42,0,10.85.28c3.1.15,6.21.25,9.32.25q2.62,0,5.24-.1a58.4,58.4,0,0,0,13.75-1.65,9.5,9.5,0,0,1,1.4-.31,7.33,7.33,0,0,1,.82-.05c1.29,0,2,.4,2.11,2.44.09,2.94,0,5.89-.09,8.83a2.79,2.79,0,0,1-.46,1.09,14.94,14.94,0,0,1-7.65,6.51A27.59,27.59,0,0,1,105.59,155.36ZM111,139.27c-3.23,0-6.47,0-9.7,0q-8.61.06-17.22.18-11.84.16-23.68.38a8.37,8.37,0,0,0-1.56.22l-.68.13a.6.6,0,0,0-.5.69c0,.24.3,1,.53,1l3.47.89c2.61.68,5.22,1.36,7.86,1.93,1.83.4,3.69.69,5.55,1,1.49.23,3,.47,4.47.76,3.89.76,7.76,1.6,11.62,2.5a52.87,52.87,0,0,0,12.05,1.38q1.51,0,3-.08a15.8,15.8,0,0,0,14.49-10.18.6.6,0,0,0-.55-.86H111Z"/><path d="M2.26,41.15a1.14,1.14,0,0,1-1.15-1,6.25,6.25,0,0,1-.25-2.9A34.24,34.24,0,0,0,1.93,27.9c0-1.43.06-2.85.18-4.27a40.87,40.87,0,0,0-.52-11.79,21.44,21.44,0,0,1-.16-5.25C1.53,4.31,2.1,4,3.65,4l.6,0c.74,0,1.48.05,2.21.05,1.22,0,2.45,0,3.67-.08l6.5-.21c2.48-.09,5-.18,7.45-.21,3.39,0,6.78-.06,10.18-.07,3.15,0,6.31,0,9.46-.07,1.82,0,3.64-.08,5.46-.14,2.27-.08,4.53-.15,6.79-.15,4.49,0,8.87.15,13.25.33,2.73.11,5.46.25,8.19.39,3.79.2,7.57.39,11.36.51l1.39,0c1.44,0,2.89-.06,4.33-.12s2.63-.11,3.95-.12l3.48,0a78,78,0,0,1,12.19.75,6.28,6.28,0,0,0,1,.08,15.24,15.24,0,0,0,3.31-.5l1.17-.25a3.27,3.27,0,0,1,.63-.06,2.72,2.72,0,0,1,2.63,1.64,1,1,0,0,1-.16.92,1.13,1.13,0,0,1-.93.51c-2.67,0-5.33-.18-8-.33-.76,0-1.53-.11-2.29-.18-1.1-.1-2.19-.2-3.28-.22-1.25,0-2.5,0-3.76,0l-8.37,0c-2,0-3.95,0-5.92-.1-.66,0-1.32,0-2,0-1.68,0-3.36.08-5,.15s-3.32.15-5,.15h-.51c-1.68,0-3.07.08-4.47.17S70.4,7,69,7a22.08,22.08,0,0,1-4.38-.38,19.85,19.85,0,0,0-3.84-.31l-3.33,0-9.23,0c-3.46,0-6.93,0-10.39.06q-10.45.16-20.89.55c-2.65.1-5.29.32-8,.54l-3.81.3a.61.61,0,0,0-.56.64L4.72,11c.11,1.94.22,3.81.27,5.69.07,2.7.11,5.41,0,8.12,0,1-.14,2.09-.24,3.13a31.19,31.19,0,0,0-.23,5,20.3,20.3,0,0,1-.1,3,17,17,0,0,0,.05,4.59l-.35.11a11.27,11.27,0,0,1-1.59.43Z"/><path d="M121.87,186a1.62,1.62,0,0,1-.52-.1,1.45,1.45,0,0,1-.69-.88c-.14-1.81-.21-3.62-.28-5.43,0-1.13-.09-2.26-.15-3.39s-.17-2.42-.28-3.69l-.15-1.75a.61.61,0,0,0-.57-.56s-1.37-.08-1.82-.09l-2.85-.08c-3.27-.09-6.55-.18-9.83-.21h-.65a23.45,23.45,0,0,0-4.51.36,36.67,36.67,0,0,1-7.22.48h-.69c-9.13,0-18.26.17-27.38.33-2.44,0-4.87.17-7.44.3l-3.88.19a.61.61,0,0,0-.44.22.6.6,0,0,0-.13.47l1.82,12.46a1.74,1.74,0,0,1-.76-.72,3.59,3.59,0,0,0-.83-.91.61.61,0,0,0-.35-.11l-.17,0-1.15.33A30.7,30.7,0,0,1,49,172.45a.61.61,0,0,0-.57-.6c-.38,0-.76,0-1.14,0-5.07,0-9.16,2.23-12.59,4.32-1.94,1.18-2.29,2-1.77,4.22.32,1.33.69,2.65,1.09,4.06l.41,1.48a1,1,0,0,1-.33.07,4.54,4.54,0,0,1-3.35-3.12,18.84,18.84,0,0,1-1-5.29c-.14-3,1.45-5.38,4.49-6.59a33.71,33.71,0,0,1,11.2-2.36c.77,0,1.54-.13,2.31-.23.58-.07,1.16-.15,1.75-.19l.63-.05c1.17-.09,2.35-.18,3.52-.18l2.52,0c1.11,0,5.53-.08,6.63-.08a43.56,43.56,0,0,1,8,.61,9,9,0,0,0,1.65.14c.81,0,1.63-.08,2.45-.16.62-.06,1.24-.13,1.85-.15,1.1,0,1.83-.08,2.55-.08l16.47.14a12.41,12.41,0,0,0,1.95-.2l4.79-.74c3.22-.51,6.45-1,9.68-1.44,1.56-.21,3.12-.33,4.69-.45s2.93-.23,4.39-.41a3.91,3.91,0,0,1,.53,0,2.44,2.44,0,0,1,1.86.72,3.66,3.66,0,0,1,.77,2.76c-.05.89-.13,1.78-.21,2.67-.11,1.31-.23,2.63-.27,3.94,0,.82,0,1.64.07,2.46a18.44,18.44,0,0,1,0,3.24,12.54,12.54,0,0,1-.88,3c-.19.5-.39,1-.55,1.5A.75.75,0,0,1,121.87,186Z"/><path d="M6,189.81c-2.23-.57-2.36-.74-3.19-3.43a4.17,4.17,0,0,0,.73-5,2,2,0,0,1-.09-.69L3.42,177c-.06-3.78-.12-7.56-.12-11.34,0-1.09.09-2.18.18-3.27.08-.93.16-1.87.18-2.8,0-1.64,0-3.28,0-4.91l0-2.17,0-.51a3.11,3.11,0,0,1,0-.87,16.62,16.62,0,0,0,0-6.2,59,59,0,0,1-.37-7.24c0-1.2,0-2.4-.07-3.59-.06-1.45-.14-2.9-.22-4.34-.09-1.67-.19-3.35-.24-5-.1-3-.16-5.95-.22-8.92l-.05-2.54c-.07-3.54-.32-7.27-.77-11.4a70.63,70.63,0,0,1-.21-8.43c0-1.49,0-3,0-4.48-.07-3.72-.17-7.44-.27-11.16,0,0-.27-11.61-.32-13-.06-2,.65-2.94,2.46-3.17a3.23,3.23,0,0,1,1.46,3.33c-.26,2.71-.31,5.42-.34,8.44,0,1.06,0,2.12.11,3.18,0,.81.09,1.62.1,2.43,0,2.54,0,5.08,0,7.63,0,.48-.06,1-.11,1.46s-.11,1.06-.11,1.58c0,2.71-.05,5.41,0,8.12.07,3.67.19,7.34.3,11l.54,16.4c.08,2.56.14,5.13.2,7.69.13,5.41.26,10.81.54,16.21.32,6,.36,11.85.14,17.74a89,89,0,0,0,.34,9.6c.12,1.64.23,3.27.3,4.9a62.8,62.8,0,0,1,0,6.8,3.21,3.21,0,0,1-.66,1.34Z"/><path d="M11.86,33a8.14,8.14,0,0,1-2.22-.45l-.25-.08c1.52-1.45,3.48-2,5.7-2.65.78-.23,1.58-.45,2.38-.73a.6.6,0,0,0,.39-.71,20.31,20.31,0,0,1-.3-5.22,17.61,17.61,0,0,0-1-7.64.6.6,0,0,0-.5-.36,14.26,14.26,0,0,1-7-2.47c.24-1.45.3-1.45,1-1.45l.67,0a13.84,13.84,0,0,1,2.63.53c.65.17,1.31.35,2,.46,3.9.67,7.82,1.28,11.73,1.88l5.47.83c2.71.41,5.42.81,8.13,1.25q7.51,1.21,15,2.56c.87.15,1.73.37,2.59.58s1.73.43,2.61.59c2.84.51,5.69,1,8.55,1.34,1,.13,1.24.52,1.3,1.16a1.2,1.2,0,0,1-1.14,1.31c-3.93.66-7.87,1.25-11.81,1.84l-1.72.25a4.8,4.8,0,0,1-.78,0,6.33,6.33,0,0,0-1,.07l-2.18.36Q38.7,28.56,25.27,30.83c-.91.15-1.8.38-2.69.61s-1.79.46-2.7.61A73.23,73.23,0,0,1,12,33ZM23,16.61a8.49,8.49,0,0,0-.93.07l-.52.05a.61.61,0,0,0-.56.49c-1.07,5.48-1.06,9,0,11.56a.61.61,0,0,0,.56.37L56,22.84a.61.61,0,0,0,.49-.66c0-.29-.3-.81-.59-.83l-1.44-.07a27.37,27.37,0,0,1-3-.23c-3.51-.52-7-1.09-10.51-1.65l-6.71-1.08c-3.55-.57-7.09-1.14-10.65-1.68A3.74,3.74,0,0,0,23,16.61Z"/><path d="M30.39,164a.72.72,0,0,1-.23,0c-.49-.34-.78-.62-.83-.83h0c.07,0,.33-.28.46-.33l1.38-.46a19.73,19.73,0,0,1,4.57-1.17c6.52-.56,13.13-.87,19-1.14,2.12-.1,4.24-.14,6.36-.18,3.68-.07,7.49-.14,11.21-.54,4.54-.48,9.18-.66,13.66-.84,3.31-.13,6.62-.25,9.93-.5.74-.05,1.48-.07,2.23-.09,0,0,14.18-.4,18.64-.55.73,0,1.47-.08,2.2-.15s1.73-.15,2.6-.15a4.57,4.57,0,0,1,2.14.46,1.57,1.57,0,0,1,.65,1.07,2.17,2.17,0,0,1-.94.81,11.3,11.3,0,0,1-5.2,1l-2.79,0a16.52,16.52,0,0,0-2.15.12l-8.84.12c-6.69.08-13.24.16-19.79.41-4.7.18-9.46.57-14.06.94-2.68.21-5.36.43-8,.61-1.31.09-2.62.11-3.93.13s-2.43,0-3.64.11c-2.9.17-5.81.36-8.71.55s-6,.4-9.07.57c-1.49.09-3,.09-4.48.09Z"/><path d="M147.4,193.24c-1,0-2,0-3,0a2.5,2.5,0,0,1-1.72-.48,2.88,2.88,0,0,1-.24-2,11.85,11.85,0,0,0-.25-4.67,30.77,30.77,0,0,1-.84-9.12c0-1.26,0-2.52,0-3.76-.1-2.5-.66-15-.66-15-.14-2.92-.28-5.84-.33-8.76,0-1.56,0-3.12.1-4.67s.12-3,.1-4.44c0-3.42-.13-6.84-.22-10.25l-.26-10.23c-.15-6.08-.29-12.09-.41-18.1,0-1.58,0-3.15,0-4.73s0-3.11,0-4.66c0-1.39-.09-2.78-.15-4.18-.07-1.55-.14-3.1-.16-4.64,0-3,0-6.07-.05-9.11s0-6.08-.05-9.12c0-1.17-.1-2.35-.2-3.51-.06-.8-.12-1.57-.16-2.34l-.05-1.09c-.22-4.51-.43-9-.58-13.54-.06-1.93,0-3.86,0-5.8l0-.77q.21-7.48.47-15c0-.93.09-1.85.15-2.78.12-1.94.22-3.67.2-5.4,0-3.76-.3-7.48-.53-10.67-.08-1.05.1-1.35.54-1.63a1.3,1.3,0,0,1,.66-.25,1.23,1.23,0,0,1,.8.4,2.88,2.88,0,0,0,1.83.58,3.73,3.73,0,0,0,1-.13,20.13,20.13,0,0,1,5.45-.72,27,27,0,0,1,3.95.3,37.76,37.76,0,0,0,4.46.28l5.09.18c1.93.07,3.84.14,5.75.24l1.07.05c2.25.11,4.5.22,6.73.47a43.78,43.78,0,0,0,4.9.25c2.58,0,5.16-.18,7.73-.35q2.28-.16,4.55-.15a96.07,96.07,0,0,1,10.2.61,24.08,24.08,0,0,0,2.69.14c2,0,4.17-.21,6-.39l1.89-.18Q214.94,4,216,4a20.33,20.33,0,0,1,7.36,1.35,24,24,0,0,1,2.94,1.48c.7.39,1.21.67,1.72.93l2.35,1.15c1,.5,2.07,1,3.08,1.53,3.09,1.62,5.53,4.17,7.68,8a47.13,47.13,0,0,1,4.63,12.8,45.12,45.12,0,0,1,.15,20.38A41.52,41.52,0,0,1,243,59.39l-1.39,3.16A214.58,214.58,0,0,1,231.9,83c-2.49,4.41-5.24,8.85-7.67,12.77l-2.15,3.47c-.63,1-1.34,2-2.09,3.07l-1.2,1.7a1.09,1.09,0,0,0,.4,1.6,70.09,70.09,0,0,1,15.31,11,32.6,32.6,0,0,1,9.35,14.81c.37,1.18.77,2.34,1.16,3.51a50,50,0,0,1,2.42,8.73c.34,2.27.81,4.5,1.28,6.75s.88,4.2,1.2,6.24a12.33,12.33,0,0,1-.31,4.63l-.55,2.43a47,47,0,0,1-2.66,9.06c-1.78,3.94-5.13,7.22-10.24,10.05a46.36,46.36,0,0,1-10.63,4.77l-.65.19a6.42,6.42,0,0,1-.95.25l-4.29.67c-4.26.67-8.52,1.33-12.8,1.87-3.45.44-7,.58-10.06.69-2.44.08-4.88.13-7.32.18h-.67c-3.69.07-7.39.13-11.07.31-3.16.15-6.31.43-9.46.7l-.44,0c-2.37.2-4.75.41-7.13.56-1.53.1-3.06.12-4.58.12ZM217,108a2.37,2.37,0,0,0-.67.23,4.08,4.08,0,0,0-1,.82c-1.29,1.65-2.56,3.32-3.83,5-3,3.93-5.86,7.68-8.83,11.21A146.93,146.93,0,0,1,191,137.56a50.11,50.11,0,0,0-8.09,9.45,42.18,42.18,0,0,1-7.33,8l-1.32,1.22c-1.81,1.68-3.85,3.26-5.66,4.66s-3.74,2.9-5.52,4.52-3.49,3.36-5.18,5.08a95.6,95.6,0,0,1-7.22,6.84,4,4,0,0,0-1.44,4l1.31,7.41a1.08,1.08,0,0,0,1,.89l1.05.11c.88.09,1.37.14,1.86.21a40.55,40.55,0,0,0,5.81.44,30,30,0,0,0,7.48-.9,7,7,0,0,1,1.72-.23,5.64,5.64,0,0,1,.66,0,15.88,15.88,0,0,0,2,.13,36.71,36.71,0,0,0,4.12-.31c.65-.08,1.27-.15,1.88-.2,4-.35,7.91-.57,11.87-.79,2.29-.13,4.58-.25,6.86-.4,3.57-.24,7.17-.48,10.68-.93a15,15,0,0,0,3.45-1c.58-.22,1-.36,1.34-.49l4.44-1.46c3.58-1.16,7.23-2.34,10.76-3.69a65,65,0,0,0,7.92-3.86l1.1-.6c2.17-1.18,3.18-3.18,4.14-5.11l.38-.74c.32-.61.65-1.21,1-1.82a24.3,24.3,0,0,0,2.91-6.72A32.29,32.29,0,0,0,243,142c-2-4.87-3.88-9.13-5.87-13.05a49.91,49.91,0,0,0-5.31-8.26,53.35,53.35,0,0,0-9.66-8.82c-1.59-1.24-3.06-2.37-4.48-3.57A2.38,2.38,0,0,0,217,108ZM159.87,9.57a60.64,60.64,0,0,0-9.46,1,71.16,71.16,0,0,1-7.65.93,1.09,1.09,0,0,0-1,1.09v1.22c0,.81,0,1.6,0,2.39-.06,1.55-.13,3.09-.19,4.64-.14,3.15-.27,6-.3,8.88-.07,5.3-.06,10.61-.05,15.91v7c0,2.92,0,5.71.11,8.48.09,2,.26,4.08.44,6.12.12,1.34.23,2.68.32,4,.3,4.49.57,9,.84,13.47l.22,3.65c.19,3.06.35,5.79.47,8.51,0,.93,0,1.86,0,2.78,0,1.29,0,2.59.1,3.87.17,2.22.38,4.44.59,6.65.29,3.11.59,6.19.77,9.27.19,3.27.27,6.54.35,9.82.06,2.32.11,4.65.21,7,.14,3.41.37,6.82.6,10.23l.13,2c.25,3.73.52,7.45.82,11.18.13,1.53.29,3.06.47,4.74l.28,2.58a1.09,1.09,0,0,0,.74.92H149a1.06,1.06,0,0,0,.87-.31s3.08-3.37,3.85-4.2L163.44,153c.92-1,1.83-2,2.79-2.92q2.64-2.56,5.32-5.09l.33-.32q3.34-3.17,6.65-6.38c.85-.83,1.64-1.7,2.44-2.59a36.54,36.54,0,0,1,3.52-3.56,71.89,71.89,0,0,0,8.18-8.5c1.45-1.68,2.73-3.17,4.08-4.59,2.3-2.44,4.44-5.09,6.5-7.65,1.05-1.31,2-2.51,3-3.7l2.53-3c1.5-1.79,3-3.59,4.49-5.39a104.63,104.63,0,0,0,9.59-13c2.65-4.5,5.74-8.77,8.73-12.91a19.18,19.18,0,0,0,2.54-5.23c.26-.73.49-1.35.74-2,3.27-7.88,6.66-16,7.23-24.71a23.62,23.62,0,0,0-1.36-9.93,5.58,5.58,0,0,0-.74-1.29,4,4,0,0,1-.51-.84c-.32-.93-.6-1.87-.87-2.82s-.63-2.16-1-3.22c-2.25-6.24-7.07-10.3-14.34-12.08a70.74,70.74,0,0,0-9.71-1.44l-1.43-.15c-2.22-.23-4.47-.33-6.71-.43l-2.5-.12q-3.68-.19-7.36-.33l-.81,0c-.45,0-.9,0-1.33,0s-.95.07-1.43.11c-1,.1-1.82.18-2.6.18l-.65,0C186.84,9,184.94,8.9,183,8.9c-1.67,0-3.35.05-5,.16-5.27.35-10.37.53-15.15.53Z"/><path d="M826.37,189.18c-5.59-2.33-11.48-4.77-15.44-9.92a25.43,25.43,0,0,1-2.33-4c-.35-.7-.64-1.26-.94-1.81s-.42-.83-.62-1.25l-.45-1c-.63-1.28-.51-1.84.56-2.54a2.4,2.4,0,0,1,1.25-.47,1.93,1.93,0,0,1,1.43,1,10.13,10.13,0,0,1,1.18,2.18c.41,1,.78,1.92,1.14,2.9l.5,1.31a11,11,0,0,0,5.54,5.73c.72.38,1.42.81,2.13,1.23a24.4,24.4,0,0,0,5.26,2.59,7.64,7.64,0,0,0,2.27.37,7.12,7.12,0,0,0,4.36-1.61,41.24,41.24,0,0,0,6.69-6.48,48.23,48.23,0,0,0,9.77-17.55,63.25,63.25,0,0,0,1.75-8.15c.31-1.83.61-3.61,1-5.35a87.1,87.1,0,0,0,2-18.42,115.55,115.55,0,0,0-3-30c-.6-2.37-1.24-4.73-1.88-7.09-1.05-3.87-2-7.45-2.84-11.08a43.64,43.64,0,0,0-3.91-11.31c-2.6-4.83-5.21-8-8.47-10.31A6.07,6.07,0,0,0,829.65,57a10.18,10.18,0,0,0-2.25.28c-5.05,1.11-9.15,3.92-13.12,6.63l-1.76,1.2a4,4,0,0,1-2,.8c-.27,0-1.08,0-1.42-2-.64-3.71-1.11-7.06-1.43-10.24-.39-3.94-.67-8-.84-12.08-.12-2.86-.17-5.73-.23-8.61-.05-2.63-.09-4.86-.17-7.09-.06-1.78-.16-3.56-.27-5.33-.11-1.94-.23-3.88-.28-5.83s0-3.84,0-5.76l0-3.06c0-.68.32-1.16.77-1.16a7.54,7.54,0,0,0,2.83-.56,5.39,5.39,0,0,1,1.72-.43A1.76,1.76,0,0,1,812,4l.31,0a1.78,1.78,0,0,0,1.23-.35,1.23,1.23,0,0,1,1-.58,5.31,5.31,0,0,1,1.29.25,8.9,8.9,0,0,0,1.52.32c1.85.16,3.71.17,5.57.18h1.4c7.57.06,14.4.21,21.31,1.41a12.71,12.71,0,0,1,3.55,1.46c.58.3.67.47.68.52-1.24,1.5-2.09,2.44-3.4,2.44H815.63c-.55,0-1.09.05-1.6.1l-.62.05a1.1,1.1,0,0,0-1,1.09V57.64a1.09,1.09,0,0,0,.54.94,2.28,2.28,0,0,0,.55.15,1.07,1.07,0,0,0,.54-.15l1.08-.62c.58-.34,1.06-.62,1.55-.86,2.8-1.36,5.61-2.72,8.45-4a2.78,2.78,0,0,1,1.1-.2l2.9.26a56.45,56.45,0,0,1,7.38,1,17.77,17.77,0,0,1,10.62,7.35c5.24,7.12,6.74,15.56,7.83,23.6.33,2.43.59,4.87.85,7.3.4,3.76.79,7.45,1.4,11.1a169.43,169.43,0,0,1,1.7,17.9l.28,4.5a99.58,99.58,0,0,1-.25,12.63c-.11,1.78-.22,3.56-.29,5.33,0,.94-.12,1.89-.19,2.83s-.15,1.81-.19,2.72a37.57,37.57,0,0,1-2.15,9.59l-.18.55a79.71,79.71,0,0,1-4.63,12.17,70.82,70.82,0,0,1-10.19,14.48c-1.8,2-4.31,2.29-7,2.55-2,.19-3.6.26-5.2.33l-2.49.13Z"/><path d="M509.18,146.42a31.1,31.1,0,0,1-4.36-.3c-6.64-.94-11-4.43-12.9-10.37-2-6.26-3-12.66-3.71-20.33-.46-4.71-.57-9.47-.67-14.08-.09-3.91-.18-7.9-.48-11.83-.31-4.11-.3-8.33-.29-12.41,0-2.66,0-5.11-.05-7.56-.05-2.17-.2-4.33-.35-6.49-.13-1.92-.25-3.66-.32-5.41l0-1.09c-.13-3.38-.27-6.89-.1-10.29.28-5.56.72-11.11,1.16-16.67l.3-3.83c.05-.66.17-1.33.28-2a17,17,0,0,0,.34-3.13c0-3.09-.3-6.11-.59-9.46-.13-1.44-.32-2.86-.5-4.29-.14-1-.27-2-.38-3a2.58,2.58,0,0,1,.2-1.78c.28-.34,1-.54,2.2-.64.33,0,.64,0,1,0a10.36,10.36,0,0,1,4.17.88,6.3,6.3,0,0,0,2.38.43l3.08-.13c3.35-.15,7.16-.31,10.81-.68a31.84,31.84,0,0,0,4.19-.8,28.19,28.19,0,0,1,4-.76c2.2-.2,4.55-.39,6.84-.39a30.47,30.47,0,0,1,6.3.6c.57.12.69.27.66.86a21.28,21.28,0,0,0,.07,2.49l.07,1.16-.81.56a24.65,24.65,0,0,1-2.86,2.53,6.52,6.52,0,0,1-4,1.06l-.72,0c-2.48-.13-5-.2-7.47-.28-3.5-.1-7-.21-10.45-.46a73.22,73.22,0,0,1-7.45-1.05c-1.17-.21-2.34-.42-3.51-.6l-2.69-.36a2.36,2.36,0,0,0-.72.28,1.07,1.07,0,0,0-.37.81v1c0,.59,0,1.12,0,1.65l-.18,3.72c-.12,2.32-.23,4.64-.28,7s-.06,4.87-.08,7.3c0,4.15,0,8.4-.27,12.55l-.24,4c-.3,4.78-.61,9.73-.43,14.63.13,3.44.28,6.88.43,10.32l0,.7c.16,3.49.31,6.92.44,10.35.06,1.67,0,3.34,0,5V88A1.09,1.09,0,0,0,492,89.06l4.35,0c.85,0,1.68,0,2.5,0a63.51,63.51,0,0,1,6.73.51,69.1,69.1,0,0,0,9.71.56l6-.05a20.32,20.32,0,0,1,5,.53c.82.2,1.36.53,1.48.9s-.15,1.09-.76,1.82a5.12,5.12,0,0,1-4.27,1.85s-3.24-.06-3.93-.06-1.36,0-2,.05q-7.38.44-14.75,1.06a14.62,14.62,0,0,0-2.45.5,16.51,16.51,0,0,1-1.61.37c-1.06.18-2.13.29-3.3.41l-1.89.21a1.09,1.09,0,0,0-1,1.14l.15,2.66c.12,2.08.24,4.25.33,6.42,0,1,.06,2.09.08,3.13,0,1.83.06,3.44.16,5,.22,3.29.49,6.81,1,10.2a65.78,65.78,0,0,0,1.74,8.34c1.29,4.63,4.56,7,9.74,7.18h.69c.77,0,.93.1,1.14.35a2.25,2.25,0,0,0,1.75.65,11.54,11.54,0,0,0,1.58-.15c3.62-.53,6.67-1,9.68-1.58a20.48,20.48,0,0,0,4.81-1.65c3.56-1.72,7.07-3.54,10.57-5.38a3.47,3.47,0,0,1,1.34-.51,1.06,1.06,0,0,1,.6.23,2.63,2.63,0,0,0,1.53.37,3.11,3.11,0,0,1,2,1.38,1.6,1.6,0,0,1,.33.71,2.22,2.22,0,0,1-.86,1.23l-.66.36a44.11,44.11,0,0,1-6.66,3.2c-4.43,1.53-9,2.79-13.28,3.92A40.32,40.32,0,0,1,509.18,146.42Z"/><path d="M534.34,190.26c-4.33,0-8.66-.19-13-.35l-4.57-.16s-1-.09-1.29-.1c0,0-14.55-.26-19.1-.36-.79,0-1.58-.1-2.36-.18s-1.28-.13-1.92-.16l-1.2-.09c-1.05-.1-1.87-.17-2.67-.17a10.41,10.41,0,0,0-1.7.13,19.23,19.23,0,0,1-3.08.24,48.72,48.72,0,0,1-5-.35l-1.3-.13a24.79,24.79,0,0,1-7.64-2.3c-2.13-.94-3.26-2.63-3.66-5.46-.13-.91-.18-1.84-.23-2.76,0-.58-.17-2.25-.17-2.25a6.3,6.3,0,0,1,.16-3,3.18,3.18,0,0,0,.22-1.14c0-2,.09-3.92.16-5.87A100.42,100.42,0,0,0,466,152.9c-.11-1.18-.28-2.35-.44-3.52a38.77,38.77,0,0,1-.55-6c0-2.4-.05-4.8-.19-7.2-.16-2.84-.34-5.67-.51-8.5-.28-4.51-.57-9-.77-13.52-.11-2.35-.28-4.71-.45-7.07a109.9,109.9,0,0,1-.4-15.67,36.81,36.81,0,0,0-.06-4.5c-.05-.89-.1-1.78-.11-2.67,0-4.62-.05-9.25,0-13.88,0-1.46.08-2.93.15-4.39.08-1.82.16-3.62.15-5.43,0-2-.07-4-.14-6-.08-2.16-.15-4.32-.14-6.49,0-2,.09-4,.18-6,.1-2.4.2-4.78.18-7.17,0-2.7-.21-5.4-.39-8.11-.12-1.82-.22-3.35-.29-4.88,0-.73,0-1.47,0-2.21s.06-1.74,0-2.6c-.19-3.16-.46-6.33-.73-9.49l-.12-1.41a2.49,2.49,0,0,0-.28-.9,1.63,1.63,0,0,1,.65-2,1.31,1.31,0,0,1,.51-.12,1.7,1.7,0,0,1,1.19.72,9.5,9.5,0,0,1,2.31,5.86c.27,4.68.45,9.36.61,13.49l.18,4.35-.2,4.09c-.13,2.62-.24,4.8-.27,7,0,1.48,0,3,.11,4.45s.12,2.84.11,4.19c0,1.58-.08,3.16-.15,4.74-.08,1.88-.16,3.63-.15,5.38q0,7.38.31,14.75.46,11.43,1.11,22.86c.1,1.69.26,3.37.43,5.06.2,2,.4,4.06.48,6.08.06,1.69,0,3.38-.1,5.07-.07,1.35-.13,2.69-.13,4,0,2.4.07,4.8.13,7.21,0,1.69.09,3.36.11,5,0,1.87,0,3.73,0,5.59v.46c0,3.78,0,7.56.18,11.33.18,4.07.51,8.12.85,12.17q.24,2.93.47,5.87l.23,3.54c.09,1.44.18,2.89.3,4.34a15.74,15.74,0,0,0,3,8.88,2.23,2.23,0,0,1,.36.75c.65,2.27,2.46,2.86,4.15,3.13,1.19.19,4.09.69,4.09.69,1.72.3,3.44.61,5.16.86a12.69,12.69,0,0,0,1.83.13,12.82,12.82,0,0,0,1.8-.12c2.71-.38,5.42-.77,8.12-1.17,3-.44,5.85-.86,8.74-1.26a72.24,72.24,0,0,1,7.25-.68c6.53-.25,13.07-.4,19.6-.54h.78c.93,0,.93,0,1.37,1.62a9.45,9.45,0,0,0,1.91,4.1c.2.23.53.67.46,1s-.57.69-.86.83a9,9,0,0,1-3.79,1.07Z"/><path d="M792.65,189.09a1.17,1.17,0,0,1-.41-.08c-2.36-.88-4-1.94-4.71-4.47a59.57,59.57,0,0,1-2.05-19c0-.57.05-1.14.09-1.72a35.42,35.42,0,0,0,.08-3.73c-.17-3.23-.39-6.47-.62-9.7l-.49-7.34c-.2-2.95-.39-5.9-.56-8.85l-.22-3.78c-.3-5.17-.59-10.08-.77-15-.08-2.06-.06-4.12,0-6.19s0-3.71,0-5.5-.16-3.57-.28-5.35c-.09-1.28-.16-2.42-.22-3.56,0-.54,0-1.08,0-1.63s0-1.1,0-1.6q-.29-8.65-.63-17.31c0-1.06-.1-2.13-.16-3.19-.1-1.8-.2-3.6-.21-5.4,0-3.06,0-6.13,0-9.19v-.61c0-4.72,0-9.45-.05-14.18,0-2.87-.24-5.74-.44-8.61-.13-1.88-.26-3.76-.35-5.64s-.1-3.75-.13-5.63l0-3.25a3.78,3.78,0,0,0-.11-.78c-.08-.35-.44-1.1-1-1.16l-.69-.07a1.09,1.09,0,0,0-1,.66c-1.06,2.46-2.09,4.93-3.13,7.41-2.43,5.79-4.83,11.5-7.4,17-1.58,3.37-2.87,6.89-4.11,10.28a91.15,91.15,0,0,1-5.84,13.6l-.15-.15a4.76,4.76,0,0,1-.8.11,2.58,2.58,0,0,1-.9-.25c.08,0-.06-.4-.19-.77-.45-1.21-.83-2.25-.4-3.31.95-2.28,1.91-4.55,2.87-6.83,2-4.79,4-9.54,5.9-14.33a204,204,0,0,1,9.42-20.11,103.48,103.48,0,0,0,6.53-15.34,3.25,3.25,0,0,1,1.45-2A2.24,2.24,0,0,1,782,2.17a1.83,1.83,0,0,1,.86.26c.61.34.75.67.75,1.76,0,2.86.07,5.71.14,8.57,0,1.9.09,3.79.12,5.68,0,2.21,0,4.42,0,6.64,0,3.31,0,6.63.11,9.95.06,2.4.25,4.81.45,7.21l.23,2.94c0,.15.19,1.52.19,1.52l2.4,31.13c.26,3.29.52,6.57.73,9.86s.37,6.67.52,10l.2,4.36c.16,3.55.32,6.86.38,10.18,0,2.61,0,5.22,0,7.83,0,2.39,0,4.51,0,6.62,0,1.72.14,3.44.26,5.15l1.25,18.2c.13,1.91.24,3.84.35,5.76.18,3.17.36,6.34.62,9.5.34,4.17.75,8.34,1.15,12.5l.72,7.52a16.42,16.42,0,0,1,0,2.86A.88.88,0,0,1,792.65,189.09Z"/><path d="M674.49,94.82a1.61,1.61,0,0,1-1.24-.56,2.07,2.07,0,0,0-.78-.5c-2.74-.54-2.76-2.39-2.78-4.95l0-1c0-1.19-.11-2.37-.18-3.56-.15-2.56-.29-5.18-.19-7.74a54.62,54.62,0,0,0-.54-8.39c-.15-1.24-.29-2.45-.39-3.66L668,61c-.26-2.73-.51-5.43-.65-8.14-.12-2.39-.18-4.77-.24-7.16-.08-3-.15-6.06-.35-9.07-.24-3.64-.64-7.28-1-10.92-.2-1.87-.4-3.71-.58-5.55-.1-1-.15-2-.22-3.07l-.11-1.77a1.1,1.1,0,0,0-.71-1l-.35,0a1,1,0,0,0-.8.27,22.87,22.87,0,0,0-4.33,6.74c-.38.79-.69,1.44-1,2.08a31.9,31.9,0,0,0-2,5.13c-.39,1.18-.91,1.52-1.56,1.65a3.36,3.36,0,0,1-2-1.59c-2.08-3.49-3.77-6.14-5.48-8.59a1.08,1.08,0,0,0-.89-.47c-.78.19-1.09.61-1.09,1.08l0,1.65a42.39,42.39,0,0,0,.38,7.84,53,53,0,0,1,.54,7.59c0,1.17.05,2,.09,2.87q.17,4.14.21,8.29l.07,10.81c0,4.65.05,9.31.12,14,0,3.22.12,6.44.2,9.67,0,0,.14,5.52.18,8a4.34,4.34,0,0,1-.27,1.73c-.11.25-.4.82-.83.82a1.36,1.36,0,0,1-.76-.33,3.88,3.88,0,0,0-2.61-1.06l-.56,0a1.45,1.45,0,0,1-1.23-.4,2.43,2.43,0,0,1-.49-1.85c.25-2.76.45-5.52.66-8.29l.38-5.12.3-3.56c.16-1.88.3-3.44.41-5s.14-3.28.14-4.92l0-4c0-4.15,0-8.12-.07-12.08-.06-2.33-.26-4.67-.47-7-.12-1.4-.24-2.8-.33-4.2-.12-1.84-.21-3.69-.31-5.54s-.2-3.94-.33-5.89c-.24-3.61-.54-7.23-.84-10.85-.15-1.82-.87-9.64-.87-9.64a3,3,0,0,1,0-.76c.08-.2.15-.41.23-.63.32-1,.44-1.15.8-1.21a2,2,0,0,1,1.92,1c1,1.39,2,2.75,3.07,4.11l.29.38c1.12,1.47,2.25,2.95,3.33,4.45.78,1.09,1.5,2.24,2.21,3.38s1.27,2,1.92,3,1.28,1.66,2.3,1.66A3,3,0,0,0,656.58,18a21.77,21.77,0,0,0,1.36-2.25c.28-.49.49-.88.73-1.27l1.78-2.9c1.09-1.76,2.17-3.52,3.22-5.3a9.88,9.88,0,0,0,.8-1.95l.28-.82c.56-1.46,1.35-1.46,1.62-1.46,1,.12,1.48.74,1.55,1.9a92.33,92.33,0,0,0,1.76,12.69,34,34,0,0,1,.49,4.34c.08,1.14.16,2.16.29,3.16.41,3.12.83,6.24,1.26,9.36.51,3.74,1,7.49,1.5,11.24a6.33,6.33,0,0,1-.08,1.51,10,10,0,0,0-.11,1.67c.07,1.65.2,3.29.33,4.94l.16,2.19c.15,2,.27,4,.4,6.06l0,.48c.31,4.95.62,10.05,1.18,15.06.29,2.66.36,5.35.43,8s.13,5.25.41,7.88c.18,1.71-.32,1.94-.49,2A2.31,2.31,0,0,1,674.49,94.82Z"/><path d="M373.51,189a2.3,2.3,0,0,1-1.53-.82,3.72,3.72,0,0,0-.59-.39,2.07,2.07,0,0,0-.77-.18l-.78.27a3.35,3.35,0,0,1-.71.3H369c-1.07,0-1.6-.49-1.71-1.22a21.71,21.71,0,0,1-.19-2.3l-.27-4.28c-.19-2.79-.38-5.57-.44-8.35,0-1.53.06-3.07.15-4.61s.16-2.71.16-4c0-4.42-.08-8.85-.2-13.27q-.33-11.81-.74-23.62c-.09-2.55-.2-5.12-.32-7.67-.16-3.54-.31-7.09-.41-10.63,0-1.69,0-3.39.06-5.09,0-1.45.08-2.74.08-4a21.19,21.19,0,0,0-.19-2.4c-.08-.66-.15-1.29-.17-1.93,0-1.14.06-1.25,1.27-1.46a8.26,8.26,0,0,1,1.42-.17c.72,0,.95.09,1.89,2.2l.37.84a37.73,37.73,0,0,0,4.14,7.66c1.83,2.43,3.51,5,5.14,7.58.81,1.26,1.62,2.53,2.46,3.77,1.08,1.62,2.2,3.23,3.35,4.8q4.44,6.05,8.94,12.07a4.76,4.76,0,0,0,1.07,1l.36.27a2.6,2.6,0,0,0,.68.23,1.11,1.11,0,0,0,.65-.21s.77-.61.77-1.14l0-3.32c0-3.13-.06-6-.16-8.86-.11-3.15-.32-6.29-.61-9.43-.11-1.28-.29-2.56-.46-3.84s-.36-2.68-.47-4c-.13-1.58-.17-3.18-.21-4.77l-.08-2.48c0-.62-.1-1.23-.17-1.84-.17-1.39,0-1.68,1.24-1.95A2.2,2.2,0,0,1,397.93,93l1.28,3.25a21.88,21.88,0,0,1,.94,7.83c0,2-.09,4-.17,6s-.14,3.47-.17,5,0,3.31.08,5l.2,7.36c.12,4.9.24,9.81.42,14.71.08,2.29.21,4.57.34,6.84.15,2.7.29,5.17.38,7.63.08,2.31.1,4.62.12,6.93s0,4.49.11,6.74c0,1.36.18,2.71.33,4.07.11,1,.21,2,.28,3.05l.08,1.18c.16,2.48.31,5,.24,7.35a1.89,1.89,0,0,1-3,1.39,1.7,1.7,0,0,1-.17-.56,107.09,107.09,0,0,1-.68-13.26c0-2.56-.05-5.11-.18-7.66-.1-1.9-.23-3.8-.36-5.7s-.25-3.71-.34-5.41c-.13-2.57-.23-5.16-.18-7.73a6.08,6.08,0,0,0-1.33-3.87c-1.22-1.72-2.36-3.48-3.5-5.25-1-1.56-1.89-2.93-2.82-4.28-1.24-1.82-2.52-3.61-3.79-5.4-1.88-2.65-3.65-5.14-5.33-7.69-1.89-2.87-3.67-5.82-5.44-8.77l-2.64-4.36a7.62,7.62,0,0,0-.45-.62A1.81,1.81,0,0,0,371,106a3.2,3.2,0,0,0-.67.15,1.1,1.1,0,0,0-.82,1.19l.45,3.84c.35,3,.71,6,1,9,.22,2.45.38,4.9.54,7.34.11,1.78.23,3.56.37,5.33.1,1.31.24,2.62.38,3.92.16,1.5.31,3,.41,4.42q.44,6.22.72,12.43.44,10.17.77,20.33c0,1.23,0,2.46.05,3.69s0,2.58.06,3.86a26.25,26.25,0,0,0,.29,2.74l.23,1.64a6.61,6.61,0,0,1,.09.69c.07,1.37,0,1.87-.53,2.18A1.62,1.62,0,0,1,373.51,189Z"/><path d="M332.36,187.66a.38.38,0,0,1-.32-.15,8.3,8.3,0,0,1-2.09-3c-1.07-4-2-8.14-2.81-12.13l-.35-1.63c-.16-.74-.53-2.45-2.34-2.45a3.27,3.27,0,0,0-.76.1,39.94,39.94,0,0,1-8.27.74c-1.84,0-3.52.08-5.2.24l-5.79.5a1.1,1.1,0,0,0-1,.81,50.35,50.35,0,0,0-1.87,11.4,32.73,32.73,0,0,1-.43,4.15c-.18,1.06-.41,1.34-1.78,1.37h-.62a2.07,2.07,0,0,1-.42,0c-.49-.09-1-.22-1.45-.34l-.43-.11a5.94,5.94,0,0,1,.52-2.6,10,10,0,0,0,.49-1.94,8.2,8.2,0,0,1,.47-1.7,14,14,0,0,0,.49-1.56l.28-1.2c.73-3.13,1.43-6.17,2-9.24.56-2.89,1.06-5.79,1.56-8.7l1.35-7.6c.81-4.45,1.6-8.8,2.48-13.13.51-2.51,1.06-5,1.61-7.52.6-2.74,1.16-5.3,1.68-7.86.38-1.88.67-3.77,1-5.67.21-1.35.41-2.6.63-3.84s.49-2.63.75-3.94.54-2.75.77-4.06c.17-1,.31-2,.45-2.93.22-1.52.41-2.89.69-4.25a29.56,29.56,0,0,1,1.44-4.88,3.27,3.27,0,0,1,3-2,2.35,2.35,0,0,1,1.2.31A2.33,2.33,0,0,1,320.54,95a41.25,41.25,0,0,0,1.25,11.11c.61,2.89,1.16,5.8,1.7,8.71.89,4.79,1.81,9.7,3,14.45,1.48,5.69,2.57,11.57,3.62,17.27.82,4.45,1.62,8.78,2.59,13.08.88,3.89,1.49,7.92,2.08,11.82l.68,4.4c.17,1.07.3,2.14.43,3.21s.29,2.31.48,3.46a7.17,7.17,0,0,0,.54,1.64,7.69,7.69,0,0,1,.33.86,2.12,2.12,0,0,1,0,1.73,2.15,2.15,0,0,1-1.66.52c-.65-.07-.81-.09-1-.09a4.51,4.51,0,0,0-.56.07c-.24.06-.48.14-.73.21A3.76,3.76,0,0,1,332.36,187.66ZM317.3,116.91a1.09,1.09,0,0,0-1.06.82c-1.17,4.69-2.28,9.39-3.39,14.09l-2,8.54c-1.2,5-2.43,9.92-3.68,14.92l-1.94,7.8a1.09,1.09,0,0,0,.63,1.26,20.71,20.71,0,0,0,8.48,1.64,56.68,56.68,0,0,0,7.06-.58l2.38-.28a1.09,1.09,0,0,0,.95-1.29c-2.62-13.53-4.19-27.28-5.71-40.58l-.61-5.37a1.09,1.09,0,0,0-1-1Z"/><path d="M286.94,188.86a1.51,1.51,0,0,1-1.33-1c-1-2-1.89-4-2.8-6L280.56,177a18.68,18.68,0,0,0-1.83-3.44c-3.63-5-5.89-10.78-7.62-15.74a1.1,1.1,0,0,0-.88-.72h0a1.14,1.14,0,0,0-1,.46s-4.3,6.18-5.65,8.14a7.36,7.36,0,0,0-.54,1,5.51,5.51,0,0,1-.31.61c-1,1.58-1.61,2.11-2.55,2.11a3.35,3.35,0,0,1-.84-.12H259a1,1,0,0,0-.63.16,1.1,1.1,0,0,0-.48.78l-.07.55a7,7,0,0,0-.1,1.18l.13,3.62c.1,2.53.19,4.89.19,7.24a11.86,11.86,0,0,1-.7,3.4c-.2.66-.57,1.05-1,1.05a1.57,1.57,0,0,1-1-.6,2.4,2.4,0,0,1-.62-1.16,50.12,50.12,0,0,1-.35-5.35c0-2.58,0-5.15,0-7.73v-5.74c0-3.64-.07-7.29-.13-10.93l-.13-6.34c-.1-4.41-.19-8.81-.18-13.21,0-2.43.18-4.86.36-7.28.11-1.59.2-2.81.27-4,.09-1.73.17-3.46.13-5.19-.1-4.61-.61-24.06-.61-24.06A17.73,17.73,0,0,1,254.2,93c.16-1.29.69-1.29.91-1.29a2.48,2.48,0,0,1,.84.18,23.84,23.84,0,0,0,8.17,1.36c.95,0,1.9,0,2.85-.13S269,93,270.06,93c1.23,0,2.45.05,3.69.1l.93,0c1.93.08,3.86.13,5.79.17l4.61.11a2.37,2.37,0,0,1,.52.12l.5.13a20.18,20.18,0,0,1,7.51,3.81,9.63,9.63,0,0,1,3.64,6.45c.5,2.85.85,5.63-.38,8.34a13.94,13.94,0,0,0-.88,3.13c-.11.55-.2,1-.32,1.46a24.83,24.83,0,0,1-3.86,7.39c-.46.68-.92,1.37-1.36,2.06-3.37,5.3-6.84,10.53-10.34,15.74-1.25,1.86-2.59,3.65-3.93,5.43l-.81,1.09a5.62,5.62,0,0,0-1.11,5.79c1.93,5.76,4.86,11,7.69,16.12l.66,1.18a36.25,36.25,0,0,1,1.75,3.84s1,2.45,1.36,3.36c.61,1.55,1.21,3.09,1.91,4.6a6.51,6.51,0,0,0,1.47,1.86c.31.31.54.53.76.78a9,9,0,0,1-1.59,2.13A1.86,1.86,0,0,1,286.94,188.86Zm-6.58-92.29a31.78,31.78,0,0,0-4.14.36c-3.12.4-6.24.86-9.36,1.31l-6.27.91c-2.3.33-2.62,1.24-2.52,3.28a8.81,8.81,0,0,1-.06,1.3l-.26,3.22c-.14,1.76-.28,3.51-.33,5.27s-.06,3.22-.07,4.83c0,2.74,0,5.17-.18,7.59a175.4,175.4,0,0,0-.37,20.76c.07,1.26.23,2.53.4,3.79s.33,2.48.39,3.71c.1,1.94.08,3.89.05,5.89l0,2.79a1.09,1.09,0,0,0,.74,1h.27a1.05,1.05,0,0,0,.94-.38l11.88-15.51c2.67-3.52,5.34-7,8.12-10.45a86.55,86.55,0,0,0,10.29-15c3.32-6.51,3.48-12.57.49-18.52a11.58,11.58,0,0,0-3.76-4.3A10,10,0,0,0,280.36,96.56Z"/><path d="M925.35,187.35a6.62,6.62,0,0,1-3.55-1c-4.81-3-7.8-6.55-9.41-11.25a61,61,0,0,1-2.93-22.31,193,193,0,0,1,2.6-24.35l.43-2.65c.59-3.71,1.2-7.54,2.17-11.21a59.42,59.42,0,0,1,4.1-10.63,14.73,14.73,0,0,1,3-3.69l.68-.68a2.58,2.58,0,0,1,1.85-.87,3.22,3.22,0,0,1,1.53.44c.57.3,1.14.6,1.71.88a34.53,34.53,0,0,1,3.56,2,5.3,5.3,0,0,1,1.65,2.1,41.19,41.19,0,0,1,3.65,12.5c.3,2.37.62,4.73,1,7.1.49,3.55,1,7,1.36,10.52a30.8,30.8,0,0,1,.1,4c0,1.18,0,2.27,0,3.34.08,1.56.25,3.11.42,4.67.11,1.06.23,2.13.32,3.2.17,2.15.33,4.31.35,6.47a1.28,1.28,0,0,1-.32.95,2,2,0,0,1-1.45.45c-1.36,0-2.7-.05-4-.09l-3.12-.08a2.73,2.73,0,0,0-1.08.17,27.15,27.15,0,0,1-7.54,1.5,40.93,40.93,0,0,0-6.72,1.09,1.09,1.09,0,0,0-.8,1.16l.11,1.26a26.66,26.66,0,0,0,.31,2.65c.2,1.1.37,2.21.54,3.32a43,43,0,0,0,1.88,8.47c1.62,4.39,4.71,6.71,8.95,6.71a13.6,13.6,0,0,0,3.55-.51,3.15,3.15,0,0,0,1.59-1.11,63.81,63.81,0,0,0,7.43-11.14c1.54-3.15,3.34-6.26,5.08-9.27q1.29-2.22,2.54-4.45c.28-.51.52-1,.76-1.56s.38-.84.58-1.22a3.5,3.5,0,0,1,.52-.83,8.78,8.78,0,0,0,.18,2.87,6.9,6.9,0,0,1,.18,1.89,25.31,25.31,0,0,1-1.5,6.11,101.48,101.48,0,0,1-4,9.47c-1.4,2.86-3.45,6.46-6.87,8.94-.35.25-.68.54-1,.82a8.38,8.38,0,0,1-1.11.88,25.4,25.4,0,0,1-3.63,1.89,12.15,12.15,0,0,1-2.19.58l-1.09.24A9.48,9.48,0,0,1,925.35,187.35Zm-6.18-33.92c1.62,0,3.23.08,4.84.16s3.32.16,5,.16a38.91,38.91,0,0,0,4.16-.2,1.08,1.08,0,0,0,1-1.06l.05-2.31c0-1.67.09-3.26,0-4.83-.06-1.42-.19-2.83-.32-4.25a56.75,56.75,0,0,1-.35-6.32c.17-8.12-1.34-16.42-4.89-26.91a9.82,9.82,0,0,0-1.13-2.13c-.23-.35-.43-.68-.63-1a1.09,1.09,0,0,0-.73-.53H926a1.11,1.11,0,0,0-.73.2c-.41.31-.8.58-1.16.82a9.57,9.57,0,0,0-2.28,1.89l-.51.63a11.66,11.66,0,0,0-2.73,4.7,190.77,190.77,0,0,0-3.11,18.9c-.44,4.23-.54,8.56-.63,12.73,0,1.67-.07,3.28-.13,4.9a20.47,20.47,0,0,0,.11,2.38l.09,1.2a1.09,1.09,0,0,0,.37.75,2.33,2.33,0,0,0,.72.27C917.15,153.46,918.17,153.42,919.18,153.42Z"/><path d="M613.82,94.84c-2.64,0-4.66-1.79-6.34-3.47a3.77,3.77,0,0,1-1-1.41c-.22-.74-.46-1.48-.71-2.21a22.88,22.88,0,0,1-1.36-5.63,40.1,40.1,0,0,0-.56-4,34.17,34.17,0,0,1-.55-4c-.13-2.28-.4-4.55-.68-6.82a65.05,65.05,0,0,1-.7-11.05,14,14,0,0,0-.12-2.27,12.64,12.64,0,0,1-.12-1.8q.25-7.71.65-15.43l0-.92c.15-2.85.3-5.78.67-8.61s.95-5.9,1.5-8.84l.44-2.37a10.24,10.24,0,0,1,.34-1.21,9.93,9.93,0,0,0,.5-2.08,10.19,10.19,0,0,1,1.6-3.95A16.23,16.23,0,0,0,609,5.43a4.1,4.1,0,0,0,.49,0,3.93,3.93,0,0,0,3-1.47,7.34,7.34,0,0,1,.67-.64,23.09,23.09,0,0,1,2.7-1.89A2.07,2.07,0,0,1,617,1.14a3.81,3.81,0,0,1,1.56.41,25.26,25.26,0,0,0,2.52.93c.71.23,1.26.42,1.8.64a3.52,3.52,0,0,1,1.27.82,32.83,32.83,0,0,1,6,9.83,40.72,40.72,0,0,1,2.18,7.65c.28,1.28.54,2.49.85,3.7.12.46.28.93.44,1.38a4.78,4.78,0,0,1,.44,3,2.19,2.19,0,0,0,.64,2c1.6,1.57,2,3.69,2.45,5.93l.31,1.48a58.58,58.58,0,0,1,1.16,9.66,41.4,41.4,0,0,1-.16,5.16c-.06.84-.12,1.68-.16,2.52a7.85,7.85,0,0,0,0,2c.7,3.55.13,7.18-.42,10.69l-.28,1.81c-.29,2-.78,3.94-1.26,5.85-.29,1.16-.51,2.07-.72,3a30.58,30.58,0,0,1-3.55,8.54c-1,1.73-1.94,3.22-3.59,4a2.67,2.67,0,0,0-1.33,1c-.77,1.37-1.87,1.64-3.51,1.64-.39,0-.8,0-1.2,0-.59,0-1.08,0-1.58,0l-2.4,0-2.11-.06a7.69,7.69,0,0,0-1.39.1A7,7,0,0,1,613.82,94.84ZM617.4,8.22a3.31,3.31,0,0,0-2.85,1.21,15.29,15.29,0,0,0-2.26,4.34c-1,3.73-2,7.89-3.14,13.11a139.24,139.24,0,0,0-2.56,20.59c-.29,4.65-.44,9.3-.58,13.55l-.18,5.08c.12,5.66.44,11.14,3.12,16.24A30.27,30.27,0,0,0,616,91,4.36,4.36,0,0,0,619,92.17a4.43,4.43,0,0,0,1.18-.16c2.8-.8,6-1.71,7.8-5.23,3-5.73,5-10.72,5.34-16.47.06-1.23.21-2.45.35-3.68.19-1.63.37-3.16.41-4.7a96.82,96.82,0,0,0-.21-11.06c-.38-4.32-1-8.66-1.64-12.86L632,36.43a12.19,12.19,0,0,0-1.87-5.72,20.54,20.54,0,0,1-1.85-3.54l-.46-1a10,10,0,0,1-.67-2.17c-.19-1-.35-1.91-.52-2.87-.29-1.73-.59-3.46-1-5.16A10.72,10.72,0,0,0,620,8.82,6,6,0,0,0,617.4,8.22Z"/><path d="M1092.92,188.52a3.6,3.6,0,0,1-1.73-.4c-4.91-2.91-10.08-6.09-14.44-10.17-1-1-2.09-1.9-3.14-2.84a58.12,58.12,0,0,1-8.43-8.59,42,42,0,0,0-6.2-6.29l-1.74-1.54c-3.19-2.9-6.11-5.4-8.93-7.65-4-3.18-7.89-6.26-12-9.11s-9.13-3.84-12.91-4.28c-.28,0-.57-.05-.86-.07a6.09,6.09,0,0,1-1.25-.16,9.67,9.67,0,0,0-2.56-.36c-3,0-5.56,1.49-8.07,4.67a21.31,21.31,0,0,0-3.81,8.49,25.51,25.51,0,0,0-.36,12.08c.55,2.28,1.11,4.63,1.91,6.91,1.09,3.13,3.34,5.26,5.56,7.17a14,14,0,0,0,6.31,3.57,9.36,9.36,0,0,0,1,.05,8.77,8.77,0,0,0,.88,0c.65-.06,1.29-.12,1.93-.12l.59,0a2.53,2.53,0,0,1,.9.37,4.4,4.4,0,0,0,2.2.7,3.54,3.54,0,0,0,.74-.08c.55,0,.66.18.71.26a1.36,1.36,0,0,1,0,1.26c-.91,1.92-4.13,3.73-6.63,3.73a3.93,3.93,0,0,1-1-.11c-6.2-1.57-10.79-5.3-14-11.41-.58-1.1-1.09-2.24-1.6-3.38s-1-2.22-1.53-3.27c-1.36-2.67-1.71-5.57-2.07-8.64s-.72-6.28-.85-9.37c-.14-3.46.5-5.84,2.08-7.71a6.32,6.32,0,0,0,1.07-1.49c2-4.35,5.9-5.48,10.82-6.51a17.43,17.43,0,0,1,2.38-.28,19.33,19.33,0,0,0,3.19-.41,5.42,5.42,0,0,1,1.36-.17,8.34,8.34,0,0,1,2.53.45c3,.94,5.89,2.12,8.72,3.27,5,2,9,5.37,13.21,8.93s8.26,6.62,12.29,9.7c1.84,1.4,3.58,2.74,5.32,4.09a23.77,23.77,0,0,0,6,5.8,37.77,37.77,0,0,1,3.08,2.5,115.57,115.57,0,0,0,13.05,10.34,5.74,5.74,0,0,0,.75.42l.44.23a2.55,2.55,0,0,0,.5.12,1.09,1.09,0,0,0,1.09-1.09c0-1.65.11-3.28.22-4.88a37.79,37.79,0,0,0-.18-9.62,4.1,4.1,0,0,1,0-.79l0-5.3c0-3.78,0-7.57-.14-11.35a31.4,31.4,0,0,1,.45-8.52c.53-2.27,1.43-2.73,2.71-2.73a6.67,6.67,0,0,1,1.22.13,2.27,2.27,0,0,1,1.38,2,109.14,109.14,0,0,1-.82,14c-.16,1.63-.33,3.23-.47,4.82a82.76,82.76,0,0,0-.45,11c.2,4.4.57,8.79.94,13.19l.47,5.62c-.13,1.64-.28,2.44-.84,2.64A3,3,0,0,1,1092.92,188.52Z"/><path d="M1066.18,54.1c-.26,0-.39,0-.48-.78l-.11-.85a12,12,0,0,1-.12-3.79,19.13,19.13,0,0,0-.08-6.58c-.12-.94-.24-1.85-.29-2.77l-.08-1.17a17.87,17.87,0,0,1,0-3.45,2.86,2.86,0,0,0-1.94-3.29q-5.22-2.1-10.46-4.15l-1.35-.53c-1-.41-2.1-.81-3.16-1.19a78.77,78.77,0,0,1-7.61-3.11c-4-2-7.83-4.3-12-6.88a38.44,38.44,0,0,0-6.45-3.43,27.74,27.74,0,0,1-3.53-1.77c-.71-.4-1.23-.69-1.77-1-.73-.38-3.51-1.76-3.51-1.76a2.42,2.42,0,0,0-.49-.11,1.1,1.1,0,0,0-.55.15,1.09,1.09,0,0,0-.54.9l-.11,3c-.08,2.1-.14,3.89-.26,5.68-.17,2.76-.61,9-.61,9-.19,2.75-.38,5.5-.55,8.24-.08,1.29-.1,2.59-.13,3.89,0,1,0,2-.08,3l0,.66a16.36,16.36,0,0,1-.37,3.4,3.83,3.83,0,0,1-1.28,1.78,6.7,6.7,0,0,1-1.8.87l-.67.25a1.44,1.44,0,0,1-.56.11,1.24,1.24,0,0,1-1.27-1,19.79,19.79,0,0,1-.05-7.37,48.37,48.37,0,0,0,.7-7.66c0-1,.08-2,.15-3.08l.21-3.07c.2-2.76.38-5.37.45-8s0-5.21,0-7.81c0-1.39,0-2.77,0-4.15a30.87,30.87,0,0,1,.14-3.85c.05-.43.27-.64.63-.64l1,.11a12.4,12.4,0,0,1,5.25,1.37,34.5,34.5,0,0,0,4.55,2.18l1.09.45c3,1.31,6.1,2.57,9.16,3.82q7.16,2.92,14.34,5.81c1.19.48,2.39.94,3.6,1.37L1059.22,22c.9.32,1.79.66,2.69,1l1.34.51.8,0c1.41-.59,2-1.83,1.71-3.7a9,9,0,0,1,1.44-6.07,1.92,1.92,0,0,1,1.89-1.16,1.7,1.7,0,0,1,1.49,1.37,2.2,2.2,0,0,1,.09.66l-.31,9.3a4.72,4.72,0,0,0,.05.73l.06.52a1.09,1.09,0,0,0,.69.9l3.85,1.45,10.76,3.94a5.39,5.39,0,0,0,1.9.4,4,4,0,0,0,1.58-.33,2.1,2.1,0,0,1,.81-.18,1.74,1.74,0,0,1,1.53,1c.71,1.28,1.3,2.55.8,4a11.83,11.83,0,0,0-.4,1.52c-.08.36-.15.68-.24,1-.41,1.39-1.1,1.57-1.66,1.57a3.36,3.36,0,0,1-1-.19c-.86-.28-1.72-.51-2.59-.74s-1.62-.43-2.31-.66c-1.14-.37-4-1.34-4-1.34-1.54-.53-3.09-1.05-4.64-1.54a24,24,0,0,0-2.61-.61l-1.46-.27a2.35,2.35,0,0,0-.68.24,1.08,1.08,0,0,0-.4.85v3.76c0,2.44,0,4.8,0,7.16a27,27,0,0,1-.27,3.65,3.78,3.78,0,0,1-3.2,3.36A3.45,3.45,0,0,1,1066.18,54.1Z"/><path d="M721.94,94.75a11.57,11.57,0,0,1-2.35-.24,21.77,21.77,0,0,0-4.29-.29c-.56,0-1.11,0-1.66,0-2.28-.08-3.82-1.32-4.85-3.92a39.05,39.05,0,0,1-2.94-15.41c.08-4.38,0-8.77,0-13.16,0-2.48-.07-5-.08-7.45V52.4c0-3.67,0-7.38.15-11,.08-1.63.3-3.26.52-4.89.24-1.78.47-3.49.56-5.2a69.12,69.12,0,0,1,1.21-8.82c.44-2.45.89-4.91,1.12-7.38.25-.54.34-.73.4-.93l.42-1.18c.37-1.06.75-2.11,1-3.19A10.68,10.68,0,0,1,714.88,4a5.44,5.44,0,0,1,3.31-1.16c2.14,0,4,1.34,5.12,3.69a63.79,63.79,0,0,1,4.84,14.89,31.51,31.51,0,0,0,.95,3.36,30.41,30.41,0,0,1,.86,3q1.73,8,3.23,16.13a39.14,39.14,0,0,1,.45,3.93c.05.68.32,3.31.32,3.31A52.06,52.06,0,0,0,736.12,63a1.64,1.64,0,0,1-.18,1.43,2.15,2.15,0,0,1-1.61.95c-4.64.5-8.76.82-12.59,1l-1.11,0c-1.14,0-2.28-.07-3.42-.13S715,66.1,714,66.08h0a13.55,13.55,0,0,0-2.12.2l-1.15.17a1.09,1.09,0,0,0-.94,1.16l.19,2.68c.13,1.93.25,3.73.48,5.51a55.63,55.63,0,0,0,1.42,7.61,21.35,21.35,0,0,0,2.05,4.53l.29.52c.73,1.34,3.24,2.27,5,2.27a4,4,0,0,0,1.4-.23,12.24,12.24,0,0,0,4-2.37c1-1,2-2.05,2.94-3.13s1.54-1.74,2.29-2.49c1.44-1.44,1.87-1.5,1.91-1.5,1.16.21,2.42.51,3,1.57a4.5,4.5,0,0,0,.42.61l-.61,1.49c-.69,1.75-1.41,3.56-2.3,5.28a4.65,4.65,0,0,1-1.52,1.27c-.28.18-.56.36-.82.55A13.34,13.34,0,0,1,721.94,94.75ZM717.69,9.3a2.11,2.11,0,0,0-.48.11,7.59,7.59,0,0,0-4.44,6.34c-.29,2.17-.63,4.34-1,6.51A120.75,120.75,0,0,0,710,38.76c-.08,3.77-.27,7.53-.46,11.3,0,0-.21,4.22-.29,6a13.62,13.62,0,0,0,0,1.46c0,.4.05.73,0,1.07a2.54,2.54,0,0,0,2.53,2.77l1.15.09c2.26.18,4.52.37,6.78.41h.44c1.17,0,2.35-.08,3.52-.16.82-.05,1.62-.11,2.42-.14l1.63,0,2.78,0a1.09,1.09,0,0,0,1.09-1c.79-12.12-8-45.94-13.24-51A1.09,1.09,0,0,0,717.69,9.3Z"/><path d="M420.86,189.34a4.1,4.1,0,0,0-.67-.06c-5.26,0-7.79-3.66-9.57-7.25-1.49-3-1.78-6.41-2-9.72a157.61,157.61,0,0,1,0-18.84c.13-3.5.26-7,.27-10.49v-1.88c0-3.12,0-6.06.1-9,0-1,.16-2,.29-3a31.26,31.26,0,0,0,.31-3.59c.06-5.69,0-11.39-.08-17.08,0-2.68-.18-5.36-.31-8l-.15-3.09c0-.28,0-.56-.06-.85,0-.44-.08-.78-.08-1.12a2.71,2.71,0,0,1,.78-1.92,2.11,2.11,0,0,1,1.5-.67,52,52,0,0,1,5.26,1.11c1.28.32,2.31.57,3.36.79a13.09,13.09,0,0,0,2.74.29l.75,0c1-.06,2-.2,2.92-.33.71-.1,1.43-.2,2.15-.27,1.92-.18,3.84-.34,5.76-.4l1.51,0a7.7,7.7,0,0,1,4.07.87,3.77,3.77,0,0,0,1.67.55c.42,0,.71.19.92,1,0,.18.06.23-.66.71A9.09,9.09,0,0,1,437,98.47c-.68.08-1.35.18-2,.31a21.63,21.63,0,0,1-4.47.43,58.27,58.27,0,0,1-7.51-.66l-1.83-.24a29,29,0,0,0-3.62-.24,23.6,23.6,0,0,0-4,.34,1.09,1.09,0,0,0-.91,1.05c-.29,12.78.08,25.74.44,38.27.17,5.81.33,11.51.44,17.23a1.09,1.09,0,0,0,1.09,1.07l1.6,0,.84,0,5.43-.41c3.93-.3,7.87-.61,11.81-.82.51,0,1,0,1.52,0,1.41,0,2.84.09,4.26.18l1.7.11a1.79,1.79,0,0,1,.42.09,1.79,1.79,0,0,1-.15.32l-.9.61a15.84,15.84,0,0,1-4.21,2.36,29.17,29.17,0,0,1-7.72,1.12h-1.24c-2.07,0-4.15-.1-6.23-.21-1.39-.07-2.78-.14-4.17-.18h0a8.38,8.38,0,0,0-1.74.21l-.78.15a1.08,1.08,0,0,0-.91,1.12l.09,2.91c.14,5,.27,9.78,2.27,14.42.88,2.05,2.13,4.31,4.68,5.47a19.69,19.69,0,0,0,7.14,1.36,5.39,5.39,0,0,0,.94-.06h0a18.36,18.36,0,0,0,5-1.46c1.34-.51,2.52-.95,3.59-1.24l1.6-.78c1-.53,2.08-1.05,3.15-1.5.34-.15.67-.32,1-.5a4.79,4.79,0,0,1,1.83-.71,2.88,2.88,0,0,1-.53.56c-4.43,3.35-9.78,7.08-15.87,9.38a16.41,16.41,0,0,1-5.74.78c-.89,0-1.54,0-2.19.08h0Z"/><path d="M564.11,94.75a8.05,8.05,0,0,1-6.48-2.88c-.43-.49-.87-1-1.32-1.45-1.7-1.8-3.1-3.28-3.86-5.27-1.12-2.93-2.29-6-2.17-9.32.28-8.38,2.3-16.42,4.24-23.18.63-2.2,1.11-4.43,1.6-6.66.3-1.36.56-2.57.85-3.77.22-.89.47-1.79.72-2.68s.5-1.8.72-2.72c.45-1.84.88-3.7,1.31-5.56.79-3.4,1.58-6.8,2.48-10.17s2.25-7.4,5-10.42A17.56,17.56,0,0,1,575.6,5.3a2,2,0,0,0,1.15-.39,4.5,4.5,0,0,1,3-1.16,11.61,11.61,0,0,1,4.85,1.66,16,16,0,0,1,6.65,6.32,37.73,37.73,0,0,1,2.55,5.65c.4,1,.79,2,1.23,3a2.43,2.43,0,0,1-.1,2.17,2.3,2.3,0,0,1-1.66,1.2,2.64,2.64,0,0,1-1.49-.71c-1.17-1.09-2.28-2.25-3.38-3.41-.63-.66-1.27-1.33-1.91-2-2.1-2.12-4.22-4.23-6.33-6.33L579,10.29a3.94,3.94,0,0,0-2.66-1.45,4,4,0,0,0-2.62,1.33c-3,2.65-4.24,6.16-5.45,9.55-1.55,4.34-2.89,8.69-4.07,12.54-.72,2.32-1.32,4.48-1.92,6.64L561.47,42,561,43.54c-.35,1.14-.69,2.25-.94,3.39s-.37,2-.52,3-.29,2-.5,3c-.3,1.4-.65,2.78-1,4.17-.51,2-1,4-1.38,6a43.11,43.11,0,0,0,.16,16.22c.87,4.52,3.91,7.75,9,9.61a32.39,32.39,0,0,0,6.55,1.39l1.34.19c2.29.34,4.6.58,6.91.81l1.73.18a8.16,8.16,0,0,0,.91,0c.35,0,.7,0,1.05,0l10.39-.78h.67c1.44,0,2.37.49,2.4,1.19A2.62,2.62,0,0,1,595.68,94c-2.94.37-5.56.58-8,.66-1.43,0-2.86.06-4.29.06l-13.84-.08c-1.63,0-3.26,0-4.88.09Z"/><path d="M926.16,88.38h-.67c-4.09,0-6.23-1.72-7.36-6-.29-1.1-.61-2.2-.93-3.29-.43-1.46-.76-2.61-1.07-3.77a29.49,29.49,0,0,1-.65-3.54q-1-7.79-2-15.59l-.23-1.77c-.29-2.24-.59-4.49-.72-6.75-.09-1.4-.06-2.8,0-4.21,0-1.2,0-2.4,0-3.59-.18-5.32-.44-10.63-.7-15.95-.06-1.21-.15-2.39-.24-3.57s-.16-2.15-.22-3.23,0-2.32,0-3.49c.06-2.51.13-5,.23-7.52a11.13,11.13,0,0,1,.25-1.71,2.17,2.17,0,0,1,1.46-1.67,1.76,1.76,0,0,1,1.06,1.74c0,1.09,0,2.18-.06,3.27-.06,2.41-.12,4.57,0,6.74.25,4.8.64,9.6,1,14.4l.29,3.56c.27,3.39.59,6.77.93,10.15q.87,8.53,1.79,17l.53,5.12c.16,1.65.33,3.29.57,4.91.52,3.54,1.51,7.55,4.88,10.56a17.76,17.76,0,0,0,2,1.51l.83.56a2.51,2.51,0,0,0,.62.2c3.2-.88,3.71-3.28,4.09-5a86.88,86.88,0,0,0,2.06-17.6V59c0-3.92.06-7.92-.17-11.86-.46-7.91-1.09-15.66-1.7-22.86-.21-2.48-.48-5-.76-7.44s-.51-4.53-.7-6.69a18,18,0,0,1,.17-4.27,1.07,1.07,0,0,1,1.1-1,1.52,1.52,0,0,1,.78.23,3.42,3.42,0,0,1,2,3.13,48.61,48.61,0,0,0,.76,8.61c.3,2.05.61,4.11.71,6.13.25,5,.45,10,.52,15,.09,6.78.06,13.56,0,20.33v2.26c0,5.9,0,12-1.49,17.86a19.44,19.44,0,0,1-5.12,8.62,3.86,3.86,0,0,1-2.8,1.29Z"/><path d="M1074.83,124.68a25.22,25.22,0,0,1-4.44-.41c-6.25-1.13-12.41-2.42-18.14-3.64a26.22,26.22,0,0,1-8.49-3.6l-1-.62a13.6,13.6,0,0,1-4.21-3.34,4.19,4.19,0,0,1-.7-1.13c-.11-4.57.38-8.34,3.14-11.87,3.38-4.33,6.66-6.79,10.61-8a27.63,27.63,0,0,1,8-1.44l.89,0,3.69.27c3.41.25,6.44.47,9.45.78a13.83,13.83,0,0,1,4.31,1.16,91.59,91.59,0,0,1,8.24,4.3c3.59,2.12,5.58,5.57,6.1,10.52a18.39,18.39,0,0,1-2.81,12.15,7.91,7.91,0,0,1-4.88,3.28,53.78,53.78,0,0,1-7.84,1.46C1076.08,124.65,1075.46,124.68,1074.83,124.68Zm-11.48-30.87a21.59,21.59,0,0,0-12,3.51,27,27,0,0,0-3.47,2.85c-.67.61-1.34,1.23-2,1.79-2.5,2-3.08,4.24-1.86,7.22a8.5,8.5,0,0,0,3.88,4.39c1.54.85,3.14,1.57,4.75,2.29,1.33.6,2.44,1.1,3.53,1.65a20.43,20.43,0,0,0,9.11,2l2.58-.23c1.91-.17,3.82-.33,5.71-.64,3.06-.49,6.89-1.52,9.42-5.16.3-.43.58-.87.85-1.31a19.86,19.86,0,0,1,1.21-1.79,7.61,7.61,0,0,0,1.34-7,8.23,8.23,0,0,0-5.35-5.43l-2-.66a90.26,90.26,0,0,0-10.53-3A26.39,26.39,0,0,0,1063.35,93.81Z"/><path d="M879,84.57c-1.91,0-3.74-1-5.77-3C871,79.28,869,77,868.5,74.08a52.87,52.87,0,0,1-.74-5.88.68.68,0,0,1,.59-.73c.72,0,.79.17.89.38l.41.86a15.34,15.34,0,0,1,1.11,2.7c1,3.84,3.76,6,6.43,8.09l1.25,1a2.31,2.31,0,0,0,1.42.42,1.92,1.92,0,0,0,1.43-.51c.37-.38.78-.74,1.18-1.1a9.26,9.26,0,0,0,3.1-4.09,95.94,95.94,0,0,0,3.9-15.93c.41-2.7,1.06-5.42,1.68-8.06,1.15-4.82,2.28-9.33,3.43-13.83.14-.56.34-1.1.54-1.64a15.19,15.19,0,0,0,.77-2.56c.56-3.18,1.08-6.38,1.59-9.57l1-6.21c.4-2.41.87-4.8,1.35-7.2a3.28,3.28,0,0,0-.28-2.78A3.17,3.17,0,0,0,897,6.59l-1.41,0c-1.05,0-2.1,0-3.14,0a43.23,43.23,0,0,0-4.7.22c-2.27.23-4.55.34-6.83.45l-1.24.05c-3,.15-6.05.28-9.08.32a4.08,4.08,0,0,1-1.89-.45,1.28,1.28,0,0,1-.74-1,1.35,1.35,0,0,1,.6-1.14,5.55,5.55,0,0,1,2.14-1.14L872,3.67a57.09,57.09,0,0,1,8.28-.83c3.62,0,7.07.23,10.52.43,2,.12,4.06.24,6.09.32.63,0,1.25,0,1.88,0a22.19,22.19,0,0,0,3.42-.23,4.78,4.78,0,0,1,.68-.05,3.23,3.23,0,0,1,2,.68c.18,4.82-1,9.69-2.28,14.64-.39,1.46-.82,2.91-1.26,4.36a70.67,70.67,0,0,0-2.37,9.45l-.57,3.64a157.19,157.19,0,0,0-2.41,22c-.09,5.48-2.08,10.55-4.48,16.14a24.07,24.07,0,0,1-4.48,7.48l-.36.41a3,3,0,0,1-.49.5,47.11,47.11,0,0,1-5.92,1.77A5.75,5.75,0,0,1,879,84.57Z"/><path d="M350.43,187c-.77-.5-1.38-.89-2-1.22s-.89-.7-1-1.85c-.11-1.77-.2-3.54-.29-5.3-.12-2.35-.22-4.37-.36-6.39-.13-1.79-.28-3.57-.44-5.36-.22-2.45-.41-4.62-.55-6.78-.12-1.84-.11-3.69-.1-5.54v-1.77c0-5.94-.47-11.91-.91-17.69l-.22-2.92c-.18-2.4-.23-4.81-.29-7.22l-.1-3.6c-.05-1.51-.15-3-.24-4.53-.16-2.64-.33-5.34-.27-8s0-5.34-.11-8c0-1.5-.09-3-.11-4.5a2.27,2.27,0,0,1,.4-1.58,1.72,1.72,0,0,1,1.26-.36l.63,0a3.41,3.41,0,0,0,1.48-.27,3.37,3.37,0,0,1,1.37-.43c.15,0,.51,0,.68,1.42.33,2.93.62,5.88.91,8.82q.85,8.69,1.66,17.38c.33,3.59.66,7.1.92,10.63A153.49,153.49,0,0,1,353,156.6c-.14,1.52-.16,3.05-.18,4.58,0,.79,0,1.57,0,2.35l-.13,2.95c-.13,2.79-.24,5.16-.22,7.53,0,3,.21,6.27.57,10.26.22,2.44.1,2.71-1.85,3.14Z"/><path d="M690.25,94.48c-.5,0-.88-.07-1.18-1a20,20,0,0,1-1.2-5.12c-.28-4.85-.47-9.71-.66-14.57L686.8,63c-.12-3.52-.24-7.16-.57-10.75-.56-6.14-.7-12.4-.84-18.46l-.07-3.1c-.06-2.58-.29-5.15-.52-7.72-.15-1.62-.29-3.25-.39-4.88s-.14-3.33-.17-5.06l-.06-2.75a1.08,1.08,0,0,0-1-1.06s-5.87-.75-7.65-1a6,6,0,0,0-.72,0l-1,0c-2.3-.08-2.36-.87-2.4-1.4-.14-1.82.61-3,2-3.18l2.17-.3c4-.56,8-1.12,11.91-1.47,1.48-.14,2.95-.2,4.42-.2a108.18,108.18,0,0,1,13.28,1.07c.87.1,1.15.18,1.31,1l-.83.42s-.83.41-.94.91l-.5,2.22a16,16,0,0,1-6,.79c-1,0-1.89,0-2.81.1l-6.39.63a1.09,1.09,0,0,0-1,1L688,11a17.24,17.24,0,0,0-.1,2.53c.14,2.53.33,5.06.51,7.58l.5,7.2c.25,3.7.5,7.41.69,11.12.05,1,0,2.06,0,3.09a36,36,0,0,0,.17,5c.33,2.59.42,5.25.52,7.83a71.11,71.11,0,0,0,.87,10.23,53,53,0,0,1,.62,8.16c0,1.36.06,2.48.12,3.59.11,2.15.2,4.3.29,6.46L692.3,86c.12,2.83.18,3.18,2,5.51a4.19,4.19,0,0,1-3.19,2.92A4.26,4.26,0,0,1,690.25,94.48Z"/><path d="M969.28,190.77a2.52,2.52,0,0,1-1.41-.55,3.78,3.78,0,0,1-1.88-3.55c.14-3.13.12-6.28.09-9.43l0-3.61a6.22,6.22,0,0,0-.13-1.53,19.89,19.89,0,0,1-.34-5.09v-1.14c0-3.5-.21-7-.43-10.45l-.05-.83c-.11-1.65-.25-3.3-.4-5-.19-2.17-.39-4.35-.48-6.53-.28-6.26-.44-12.52-.55-18.79-.06-3.62-.07-7.24-.07-10.86l0-5.94a4.63,4.63,0,0,0-.15-1.06s-.27-1.06-.87-1.21a28.81,28.81,0,0,0-7.28-1,22.74,22.74,0,0,0-4.34.42,21.71,21.71,0,0,1-3.23.28l-1.2.05A4.43,4.43,0,0,1,943,102.9a1,1,0,0,1-.11-1,1.81,1.81,0,0,1,1.43-1.07,45.06,45.06,0,0,1,5.78-.41,27.8,27.8,0,0,1,5,.43,15.3,15.3,0,0,0,2.7.22c.89,0,1.79-.06,2.67-.13,5.67-.45,11.34-.95,17-1.45l4.53-.39a4.56,4.56,0,0,1,4.59,3.7,4.37,4.37,0,0,1-3.13,1.17H983a19.29,19.29,0,0,0-2.3.18c-.43.05-.85.1-1.28.13l-10.83.81a1.1,1.1,0,0,0-1,1.09s0,8.44,0,10.94v1.3c0,3.13,0,6.26.12,9.39q.32,11.56.73,23.13c.16,4.5.35,9,.54,13.48l.14,3.28q.2,4.63.44,9.25a3.61,3.61,0,0,0,.59,2.37c1,1.1.9,2.44.85,4-.08,2.19-.16,4-.38,5.84C970.54,189.6,970.28,190.77,969.28,190.77Z"/><path d="M1028.32,89.09a1,1,0,0,1-.87-.41,37.58,37.58,0,0,0-8-6.84c-1.2-.85-2.22-1.57-3.2-2.33-2.95-2.28-6-4.5-9-6.71,0,0-3.92-2.88-5.53-4.09-1-.75-1.07-1.33-.33-2.5a4.76,4.76,0,0,0,.75-1.4,1.42,1.42,0,0,1,1.63-1.16c1.06,0,2,.06,2.91.08a55.56,55.56,0,0,1,8,.53,73.74,73.74,0,0,0,12.4.91c1.27,0,2.53,0,3.8-.05,2.86-.08,5.72-.26,8.58-.45s5.77-.38,8.65-.45h.63c1.49,0,3,.13,4.49.25,1.85.15,3.42.28,5,.28a9.39,9.39,0,0,1,5.51,1.83c1.1.73,1.16,1.31,1.07,1.84-.17.94-1.35,1-1.85,1.05l-2.92,0c-4.24,0-8.49.05-12.73.05q-4.14,0-8.27,0c-4.14,0-8.27-.17-12.4-.3-2.41-.08-4.8-.15-7.19-.21-.73,0-1.47,0-2.24,0l-4.17,0a1.09,1.09,0,0,0-.61,2l1.47,1c.9.6,1.64,1.09,2.34,1.64q6.71,5.25,13.36,10.57a18.35,18.35,0,0,1,2.15,1.93,1.65,1.65,0,0,1,.54,1.19c-.08.4-.56.68-.84.82a13.32,13.32,0,0,1-2.65.93A2.5,2.5,0,0,1,1028.32,89.09Z"/><path d="M880.33,189.74c-.8,0-1.13,0-1.71-2.47a28.27,28.27,0,0,1-.14-9.49c.06-.59.11-1.11.12-1.62l.14-14.77c.05-6.57.07-13-.38-19.57-.32-4.59-.26-9.26-.2-13.79,0-2,.05-4,0-6l0-17.83c0-2.35.83-2.39,1.09-2.4.94,0,1.67.92,1.71,2.19a8.67,8.67,0,0,1-.13,1.48,11.72,11.72,0,0,0-.15,1.78c0,1.39.08,2.78.14,4.17s.11,2.55.14,3.7c0,2,.06,3.94.08,5.91v.49c0,1.77,0,3.54.07,5.31,0,1.93.1,3.86.16,5.78l.15,5.15c0,.73,0,1.46,0,2.19s0,1.48,0,2.08c0,1.73.11,10.68.11,10.68,0,1.26,0,2.53,0,3.79.17,7.71.34,15.42.56,23.13a21.37,21.37,0,0,0,.33,2.78l.24,1.63a1.1,1.1,0,0,0,1.08.93l4.41-.09c3.5-.06,6.91-.12,10.32-.31a17.86,17.86,0,0,0,4-.85c.66-.19,1.14-.33,1.62-.45l.91-.25a8.73,8.73,0,0,1,1.64-.37l.12,0-.24.55-2,1.07c-1.56,1-3,1.84-4.51,2.59a16.33,16.33,0,0,1-7.32,1.84c-.39,0-.78,0-1.18-.05-.56,0-1.12-.07-1.68-.07a40,40,0,0,0-6.48.69l-1.46.23A11,11,0,0,1,880.33,189.74Z"/><path d="M974.17,87.32a11.84,11.84,0,0,1-2.43-.36c-.44-.1-.84-.18-1.24-.25a4,4,0,0,1-.72-.23,7.88,7.88,0,0,0-1.16-.39c-2.33-.54-2.55-.82-2.61-3.31l-.11-5.16c-.07-3.45-.14-6.89-.24-10.34-.08-2.55-.18-5.11-.29-7.66-.14-3.36-.28-6.73-.36-10.1,0-1.51,0-3,.08-4.55s.1-2.9.08-4.34c-.05-3.18-.16-6.35-.26-9.52-.07-2.09-.14-4.16-.19-6.24,0-1.31,0-2.63,0-3.94l0-4.62c0-2,0-4-.17-6a23.27,23.27,0,0,0-.73-3.88l-.19-.76a2.49,2.49,0,0,1,.12-1.83,1.14,1.14,0,0,1,.78-.49h.08A2.21,2.21,0,0,1,966.86,5a4.09,4.09,0,0,1,0,.6v.55c.23,5.92.46,13.72.1,21.53a41.75,41.75,0,0,0,.19,5.13c.09,1.11.17,2.22.2,3.33,0,1.86,0,3.72,0,5.58,0,3.16,0,6.2.19,9.24.1,1.67.16,3.35.22,5a82.59,82.59,0,0,0,1.09,12.59c.54,2.84,1,5.71,1.38,8.63l.6,4.05a1.1,1.1,0,0,0,.67.85,16.61,16.61,0,0,0,6.35,1.37,13.76,13.76,0,0,0,3.37-.43,5.45,5.45,0,0,1,1.35-.18,4.37,4.37,0,0,1,2.6.86c.86.62.73,1,.69,1.06a1.65,1.65,0,0,1-.88.61c-3.39.71-6.9,1.44-10.4,1.87Z"/><path d="M949.6,85.2c-.3,0-1.11,0-1.25-1.52-.18-1.86-.29-3.72-.41-5.58L947.79,76l.1-8.56c-.08-6.41-.16-12.81-.31-19.22-.07-2.92-.22-5.84-.37-8.76-.14-2.75-.28-5.48-.35-8.21,0-1.54,0-3.08.1-4.62s.14-3.13.11-4.65c-.05-2.75-.17-5.5-.29-8.24-.1-2.13-.18-4-.24-6a10.65,10.65,0,0,1,.27-2.66,1.24,1.24,0,0,1,1.36-.88c.64.05.82.06.84,1.13l0,2.44c0,1.81,0,3.63.17,5.43.23,2.78.52,5.57.8,8.35.35,3.41.66,6.51.91,9.61a29.86,29.86,0,0,1,0,3.91c-.06,1.06-.11,2.08-.1,3.09l0,4.35c.05,5.42.1,11,.39,16.54a67.91,67.91,0,0,0,1.08,8.1c.21,1.19.42,2.37.59,3.56l.11.57a2.64,2.64,0,0,1,.1.69,22.55,22.55,0,0,0,.94,7l.43,1.78a9.09,9.09,0,0,1,.14,2.7c-.08.85-.38,1.11-1.31,1.11l-.55,0a5.84,5.84,0,0,0-2.1.43A2.82,2.82,0,0,1,949.6,85.2Z"/></g></g></svg>